<?xml version="1.0" encoding="utf-8" standalone="no"?>
<!DOCTYPE svg PUBLIC "-//W3C//DTD SVG 1.1//EN"
  "http://www.w3.org/Graphics/SVG/1.1/DTD/svg11.dtd">
<svg xmlns:xlink="http://www.w3.org/1999/xlink" width="432pt" height="288pt" viewBox="0 0 432 288" xmlns="http://www.w3.org/2000/svg" version="1.1">
 <metadata>
  <rdf:RDF xmlns:dc="http://purl.org/dc/elements/1.1/" xmlns:cc="http://creativecommons.org/ns#" xmlns:rdf="http://www.w3.org/1999/02/22-rdf-syntax-ns#">
   <cc:Work>
    <dc:type rdf:resource="http://purl.org/dc/dcmitype/StillImage"/>
    <dc:date>2022-01-10T14:50:48.993311</dc:date>
    <dc:format>image/svg+xml</dc:format>
    <dc:creator>
     <cc:Agent>
      <dc:title>Matplotlib v3.5.1, https://matplotlib.org/</dc:title>
     </cc:Agent>
    </dc:creator>
   </cc:Work>
  </rdf:RDF>
 </metadata>
 <defs>
  <style type="text/css">*{stroke-linejoin: round; stroke-linecap: butt}</style>
 </defs>
 <g id="figure_1">
  <g id="patch_1">
   <path d="M 0 288 
L 432 288 
L 432 0 
L 0 0 
L 0 288 
z
" style="fill: none"/>
  </g>
  <g id="axes_1">
   <g id="patch_2">
    <path d="M 54 252 
L 388.8 252 
L 388.8 34.56 
L 54 34.56 
z
" style="fill: #ffffff"/>
   </g>
   <g id="PolyCollection_1">
    <defs>
     <path id="m81b2740ecc" d="M 69.218182 -231.891772 
L 69.218182 -230.498141 
L 72.56614 -230.669184 
L 75.645963 -230.106203 
L 78.497434 -230.137279 
L 81.15209 -229.427246 
L 83.635354 -229.893344 
L 85.968023 -229.392638 
L 88.167321 -229.392812 
L 90.247679 -229.498757 
L 92.221304 -228.841028 
L 94.098615 -228.20253 
L 95.888578 -228.894675 
L 97.598959 -228.424934 
L 99.236536 -228.783201 
L 100.807254 -228.489703 
L 102.316359 -227.981199 
L 103.768503 -228.341155 
L 105.16783 -227.796677 
L 106.518047 -227.5398 
L 107.822486 -227.478391 
L 109.084148 -226.76073 
L 110.30575 -227.237302 
L 111.489759 -225.11981 
L 112.638419 -227.15132 
L 113.753779 -225.697252 
L 114.837717 -225.967608 
L 115.891954 -225.604648 
L 116.918075 -225.010954 
L 117.91754 -224.944893 
L 118.8917 -224.770329 
L 119.841804 -223.667148 
L 120.769011 -223.456509 
L 121.6744 -222.684132 
L 122.558973 -222.393538 
L 123.423667 -222.188224 
L 124.269355 -222.756982 
L 125.096854 -220.935803 
L 125.906932 -221.696328 
L 126.700305 -221.085104 
L 127.47765 -220.035659 
L 128.2396 -219.113116 
L 128.986755 -219.745855 
L 129.719677 -218.75333 
L 130.438899 -218.70257 
L 131.144923 -218.246242 
L 131.838225 -215.588484 
L 132.519256 -215.7163 
L 133.188443 -216.785149 
L 133.84619 -214.495451 
L 134.492881 -218.006284 
L 135.128883 -212.94759 
L 135.754543 -214.88453 
L 136.370192 -213.607922 
L 136.976146 -213.205218 
L 137.572704 -213.091163 
L 138.160155 -212.610611 
L 138.738771 -211.747384 
L 139.308814 -210.982378 
L 139.870536 -210.717766 
L 140.424175 -211.685601 
L 140.969961 -211.307278 
L 141.508113 -209.679454 
L 142.038842 -208.743562 
L 142.56235 -211.446228 
L 143.078831 -208.737532 
L 143.588471 -208.24499 
L 144.091448 -207.950278 
L 144.587936 -209.103504 
L 145.078099 -209.12953 
L 145.562096 -208.291345 
L 146.04008 -206.52404 
L 146.512199 -205.403684 
L 146.978596 -206.789164 
L 147.439407 -203.94379 
L 147.894764 -207.143715 
L 148.344796 -202.58048 
L 148.789624 -205.282035 
L 149.229369 -202.869191 
L 149.664145 -203.011296 
L 150.094063 -202.233519 
L 150.51923 -204.14863 
L 150.93975 -203.166627 
L 151.355725 -201.917859 
L 151.76725 -201.493972 
L 152.17442 -199.824114 
L 152.577327 -200.105265 
L 152.976059 -201.650684 
L 153.370701 -200.764585 
L 153.761336 -199.961839 
L 162.733995 -193.865391 
L 175.68052 -178.138885 
L 185.350408 -177.283724 
L 193.071664 -169.988983 
L 199.499445 -166.86147 
L 205.005572 -164.282015 
L 209.821505 -161.382559 
L 214.101162 -157.398816 
L 217.952098 -156.507347 
L 221.452441 -153.072856 
L 224.660736 -150.658117 
L 227.621985 -151.325525 
L 230.371529 -144.464252 
L 232.93763 -147.486018 
L 235.343241 -147.603307 
L 237.607262 -144.091349 
L 239.745437 -148.180341 
L 241.771022 -144.102772 
L 243.695286 -140.657864 
L 245.527882 -140.24285 
L 247.277149 -138.969452 
L 248.950336 -142.19433 
L 250.553787 -140.809903 
L 252.093082 -140.002725 
L 253.573159 -135.957804 
L 254.998405 -136.793839 
L 256.372739 -133.990753 
L 257.699672 -132.901809 
L 258.982365 -134.84849 
L 260.223675 -133.700647 
L 261.426186 -130.83839 
L 262.592253 -132.971363 
L 263.724018 -129.39088 
L 264.823443 -131.126852 
L 265.892324 -130.46709 
L 266.932313 -127.546614 
L 267.944931 -131.126357 
L 268.931581 -128.576978 
L 269.893562 -121.172502 
L 270.832078 -121.009147 
L 271.748246 -125.33163 
L 272.643106 -125.739147 
L 273.517627 -127.338099 
L 274.372712 -126.622254 
L 275.209207 -125.51989 
L 276.027903 -124.222329 
L 276.829541 -124.636686 
L 277.614818 -123.485332 
L 278.384389 -118.210846 
L 279.138869 -122.44531 
L 279.878839 -120.155997 
L 280.604846 -120.198812 
L 281.317408 -120.361026 
L 282.017014 -116.868815 
L 282.704126 -119.997029 
L 283.379182 -120.989922 
L 284.0426 -121.824952 
L 284.694772 -121.173839 
L 285.336074 -119.342067 
L 285.966863 -120.583008 
L 286.587477 -115.52752 
L 287.19824 -120.122337 
L 287.799459 -114.940103 
L 288.391428 -116.210864 
L 288.974428 -118.536353 
L 289.548726 -117.250645 
L 290.114578 -114.621566 
L 290.672229 -113.9263 
L 291.221914 -113.036814 
L 291.763856 -113.729198 
L 292.29827 -112.539877 
L 292.825364 -107.381577 
L 293.345335 -112.744053 
L 293.858373 -106.70291 
L 294.364659 -110.334944 
L 294.864371 -107.869522 
L 295.357676 -109.816411 
L 295.844736 -112.861279 
L 296.325708 -107.269202 
L 296.800742 -106.438635 
L 297.269982 -111.668146 
L 297.733569 -106.150697 
L 298.191637 -109.84501 
L 298.644316 -100.062645 
L 299.091731 -108.810223 
L 299.534003 -106.700469 
L 299.971249 -107.081431 
L 300.403582 -110.169298 
L 300.831111 -107.485202 
L 301.253943 -104.915017 
L 301.672178 -109.557283 
L 302.085915 -106.875995 
L 302.495252 -105.998394 
L 302.900279 -105.656451 
L 303.301087 -103.932095 
L 303.697764 -106.711196 
L 304.090392 -102.701213 
L 304.479054 -104.301412 
L 304.86383 -103.948073 
L 305.244796 -99.009767 
L 305.622027 -101.277499 
L 305.995595 -100.831018 
L 306.365572 -100.804791 
L 306.732024 -101.768106 
L 307.09502 -98.45656 
L 307.454623 -99.107242 
L 307.810896 -100.680668 
L 308.163901 -98.988171 
L 308.513697 -96.465985 
L 308.860341 -97.700544 
L 309.20389 -100.108892 
L 309.544399 -99.554335 
L 309.881921 -98.729612 
L 310.216508 -100.499895 
L 310.54821 -100.237881 
L 310.877078 -99.344939 
L 311.203158 -101.514188 
L 311.526498 -99.545478 
L 311.847144 -103.01156 
L 312.165139 -101.263855 
L 312.480528 -98.852738 
L 312.793353 -104.475843 
L 313.103655 -99.502531 
L 313.411475 -100.36015 
L 313.716851 -93.550868 
L 314.019823 -101.18798 
L 314.320428 -93.942373 
L 314.618703 -99.723401 
L 314.914683 -97.150833 
L 315.208404 -97.52737 
L 315.4999 -98.358724 
L 315.789204 -95.370521 
L 316.076349 -94.423531 
L 316.361367 -95.006371 
L 316.644289 -94.759465 
L 316.925146 -94.506319 
L 317.203968 -96.379368 
L 317.480784 -96.844185 
L 317.755623 -96.524768 
L 318.028512 -95.843059 
L 318.29948 -96.236796 
L 318.568552 -97.980261 
L 318.835757 -92.792556 
L 319.101118 -97.787136 
L 319.364662 -95.670815 
L 319.626413 -91.65571 
L 319.886395 -92.678414 
L 320.144633 -94.234675 
L 320.401149 -95.172471 
L 320.655966 -93.793104 
L 320.909107 -89.260325 
L 321.160593 -90.904258 
L 321.410446 -90.715775 
L 321.658687 -93.055837 
L 321.905337 -88.070146 
L 322.150416 -89.34415 
L 322.393943 -92.282169 
L 322.635939 -93.504313 
L 322.876423 -91.306367 
L 323.115413 -90.841751 
L 323.352928 -89.03337 
L 323.588985 -90.859356 
L 323.823603 -88.285367 
L 324.056799 -91.112137 
L 324.288591 -84.036164 
L 324.518994 -92.129469 
L 324.748026 -91.584269 
L 324.975703 -87.372618 
L 325.20204 -89.122886 
L 325.427054 -87.934882 
L 325.650759 -88.616671 
L 325.873172 -89.189694 
L 326.094306 -83.596718 
L 326.314177 -88.689457 
L 326.532798 -86.681799 
L 326.750184 -85.535986 
L 326.966349 -86.050584 
L 327.181306 -86.338998 
L 327.395069 -83.366434 
L 327.607651 -86.039232 
L 327.819065 -83.932913 
L 328.029324 -84.408947 
L 328.23844 -86.575165 
L 328.446426 -83.189602 
L 328.653293 -85.038479 
L 328.859054 -87.197633 
L 329.063721 -89.32082 
L 329.267305 -84.657133 
L 329.469817 -87.500304 
L 329.671269 -79.419622 
L 329.871672 -89.227708 
L 330.071036 -84.060429 
L 330.269373 -85.349023 
L 330.466693 -83.099661 
L 330.663006 -83.44845 
L 330.858322 -81.790302 
L 331.052652 -86.315021 
L 331.246005 -83.349291 
L 331.438392 -80.248565 
L 331.629821 -80.441245 
L 331.820303 -82.970687 
L 332.009847 -81.182646 
L 332.198461 -82.369904 
L 332.386155 -78.855721 
L 332.572938 -84.463236 
L 332.758819 -82.245277 
L 332.943806 -82.604065 
L 333.127908 -83.675616 
L 333.311134 -77.925792 
L 333.493491 -80.83853 
L 333.674987 -83.667597 
L 333.855632 -82.927671 
L 334.035433 -80.937402 
L 334.214397 -80.476861 
L 334.392533 -81.81353 
L 334.569847 -79.291639 
L 334.746349 -82.463043 
L 334.922044 -78.781353 
L 335.096941 -83.868764 
L 335.271047 -81.952274 
L 335.444368 -78.235126 
L 335.616912 -78.129933 
L 335.788686 -77.321983 
L 335.959696 -80.872403 
L 336.12995 -79.545569 
L 336.299453 -79.240004 
L 336.468213 -80.853783 
L 336.636236 -79.368214 
L 336.803529 -74.25466 
L 336.970098 -76.951641 
L 337.135948 -76.30177 
L 337.301087 -74.003548 
L 337.46552 -77.238607 
L 337.629253 -77.204926 
L 337.792292 -76.035738 
L 337.954644 -78.660075 
L 338.116313 -77.894649 
L 338.277306 -77.999812 
L 338.437628 -79.185809 
L 338.597285 -76.932465 
L 338.756282 -76.157223 
L 338.914625 -76.587169 
L 339.072319 -74.397507 
L 339.229369 -77.945292 
L 339.385781 -76.897856 
L 339.541559 -74.522149 
L 339.69671 -76.968356 
L 339.851237 -75.637382 
L 340.005146 -75.628923 
L 340.158442 -75.670414 
L 340.31113 -75.631685 
L 340.463214 -77.289416 
L 340.614699 -74.698985 
L 340.765591 -77.783781 
L 340.915893 -76.637726 
L 341.06561 -76.348648 
L 341.214747 -77.591914 
L 341.363308 -74.467225 
L 341.511297 -74.322442 
L 341.65872 -78.567745 
L 341.80558 -76.914641 
L 341.951881 -76.654994 
L 342.097629 -74.044225 
L 342.242826 -75.670015 
L 342.387477 -75.371266 
L 342.531587 -78.978412 
L 342.675159 -76.309268 
L 342.818197 -73.145706 
L 342.960706 -79.138565 
L 343.102688 -75.084415 
L 343.244149 -78.692474 
L 343.385092 -76.720368 
L 343.52552 -75.004886 
L 343.665437 -77.094506 
L 343.804847 -76.830936 
L 343.943755 -73.549282 
L 344.082162 -77.111383 
L 344.220074 -75.245655 
L 344.357493 -74.671409 
L 344.494422 -72.292581 
L 344.630867 -73.051408 
L 344.766829 -72.057291 
L 344.902312 -72.116005 
L 345.03732 -76.046831 
L 345.171856 -72.801772 
L 345.305923 -74.102746 
L 345.439525 -71.659412 
L 345.572664 -68.991895 
L 345.705345 -72.524565 
L 345.837569 -73.052275 
L 345.969341 -75.731266 
L 346.100662 -73.860197 
L 346.231538 -71.417871 
L 346.361969 -73.340801 
L 346.49196 -70.333795 
L 346.621513 -75.230216 
L 346.750631 -74.094049 
L 346.879318 -72.72764 
L 347.007576 -73.31988 
L 347.135407 -73.548682 
L 347.262815 -72.122764 
L 347.389803 -73.579338 
L 347.516373 -73.328824 
L 347.642528 -73.845078 
L 347.768271 -70.605598 
L 347.893604 -72.523678 
L 348.01853 -70.721089 
L 348.143052 -66.145715 
L 348.267172 -72.428458 
L 348.390894 -71.359792 
L 348.514218 -73.477131 
L 348.637149 -73.424555 
L 348.759688 -73.37684 
L 348.881838 -69.91768 
L 349.003602 -74.593755 
L 349.124981 -73.964351 
L 349.245979 -67.735393 
L 349.366597 -70.997205 
L 349.486839 -70.299417 
L 349.606706 -72.877469 
L 349.7262 -69.419303 
L 349.845325 -71.226914 
L 349.964082 -67.811382 
L 350.082474 -70.961018 
L 350.200502 -66.579595 
L 350.31817 -71.488727 
L 350.435478 -66.901634 
L 350.552431 -68.289995 
L 350.669028 -70.506346 
L 350.785274 -68.733511 
L 350.901169 -68.954288 
L 351.016717 -70.336916 
L 351.131918 -71.719093 
L 351.246776 -70.413966 
L 351.361291 -68.52423 
L 351.475467 -70.148572 
L 351.589305 -72.576171 
L 351.702808 -65.518684 
L 351.815976 -64.671291 
L 351.928813 -71.686685 
L 352.041319 -69.354151 
L 352.153498 -67.824157 
L 352.265351 -66.376125 
L 352.376879 -66.807772 
L 352.488085 -71.32287 
L 352.59897 -63.095943 
L 352.709537 -69.286323 
L 352.819787 -71.416053 
L 352.929722 -68.090188 
L 353.039344 -69.397194 
L 353.148655 -68.294022 
L 353.257655 -70.173515 
L 353.366348 -69.5453 
L 353.474735 -68.845791 
L 353.582817 -66.410291 
L 353.690597 -70.314762 
L 353.798075 -65.190832 
L 353.905254 -66.707483 
L 354.012135 -67.476839 
L 354.118721 -70.433301 
L 354.225011 -68.938412 
L 354.331009 -68.112995 
L 354.436716 -69.07466 
L 354.542133 -67.306584 
L 354.647263 -66.036578 
L 354.752105 -68.449472 
L 354.856663 -66.913439 
L 354.960938 -65.436483 
L 355.06493 -66.442863 
L 355.168643 -68.1285 
L 355.272076 -63.885766 
L 355.375232 -62.012679 
L 355.478113 -67.358654 
L 355.580719 -65.804429 
L 355.683052 -64.659757 
L 355.785114 -69.4131 
L 355.886905 -64.865906 
L 355.988428 -65.642513 
L 356.089684 -64.978769 
L 356.190675 -70.053592 
L 356.2914 -68.864855 
L 356.391863 -67.002987 
L 356.492065 -66.797531 
L 356.592006 -65.877189 
L 356.691688 -69.899406 
L 356.791112 -65.596914 
L 356.89028 -63.88694 
L 356.989194 -68.68053 
L 357.087853 -68.316389 
L 357.186261 -63.763266 
L 357.284417 -60.960693 
L 357.382323 -67.998282 
L 357.479981 -63.852909 
L 357.577392 -66.533214 
L 357.674557 -63.904268 
L 357.771477 -65.734397 
L 357.868154 -66.279802 
L 357.964588 -64.863496 
L 358.060781 -64.360863 
L 358.156734 -61.723242 
L 358.252449 -63.394641 
L 358.347926 -66.01593 
L 358.443167 -62.295787 
L 358.538172 -65.133603 
L 358.632944 -64.686591 
L 358.727483 -63.187486 
L 358.82179 -64.53521 
L 358.915866 -60.431518 
L 359.009713 -63.264892 
L 359.103332 -64.383647 
L 359.196723 -63.537535 
L 359.289889 -62.54295 
L 359.382829 -65.107422 
L 359.475545 -60.746904 
L 359.568039 -63.469329 
L 359.66031 -64.923049 
L 359.752361 -63.355959 
L 359.844192 -63.099583 
L 359.935805 -61.872545 
L 360.0272 -63.055555 
L 360.118378 -57.949257 
L 360.209341 -60.442503 
L 360.300089 -62.078886 
L 360.390624 -62.875327 
L 360.480946 -63.493098 
L 360.571057 -62.691015 
L 360.660957 -61.385921 
L 360.750648 -62.909979 
L 360.84013 -61.127351 
L 360.929404 -62.801851 
L 361.018472 -64.985039 
L 361.107334 -64.69452 
L 361.195991 -63.479808 
L 361.284445 -67.399888 
L 361.372695 -63.902426 
L 361.460744 -63.926726 
L 361.548591 -60.595449 
L 361.636239 -63.259823 
L 361.723687 -63.932832 
L 361.810937 -62.387253 
L 361.89799 -61.990379 
L 361.984846 -62.41665 
L 362.071507 -61.067469 
L 362.157972 -64.355078 
L 362.244244 -60.811499 
L 362.330323 -65.259291 
L 362.41621 -60.971611 
L 362.501905 -61.417568 
L 362.58741 -62.553401 
L 362.672726 -64.053621 
L 362.757852 -59.848921 
L 362.842791 -62.532649 
L 362.927543 -60.523602 
L 363.012108 -63.048279 
L 363.096488 -61.475825 
L 363.180684 -59.573996 
L 363.264695 -63.087551 
L 363.348524 -61.013109 
L 363.43217 -61.196315 
L 363.515635 -63.519254 
L 363.598919 -59.820692 
L 363.682023 -58.482768 
L 363.764948 -61.149456 
L 363.847695 -63.571963 
L 363.930264 -59.625135 
L 364.012657 -59.231247 
L 364.094873 -58.353026 
L 364.176914 -64.307902 
L 364.25878 -58.972014 
L 364.340473 -61.308925 
L 364.421993 -57.904492 
L 364.50334 -58.810619 
L 364.584516 -56.727963 
L 364.665521 -58.18316 
L 364.746355 -57.815248 
L 364.82702 -56.087958 
L 364.907517 -59.14163 
L 364.987845 -56.132981 
L 365.068006 -57.142648 
L 365.148 -57.547806 
L 365.227828 -61.29952 
L 365.307492 -57.755687 
L 365.38699 -60.434575 
L 365.466325 -60.982 
L 365.545496 -59.689362 
L 365.624505 -57.12063 
L 365.703352 -58.498885 
L 365.782037 -55.667657 
L 365.860562 -56.442421 
L 365.938927 -56.936143 
L 366.017133 -54.26919 
L 366.09518 -59.561819 
L 366.173069 -60.440137 
L 366.250801 -57.116723 
L 366.328376 -58.937595 
L 366.405795 -61.119902 
L 366.483059 -58.049902 
L 366.560168 -58.413863 
L 366.637122 -56.214409 
L 366.713923 -57.239624 
L 366.790571 -57.886074 
L 366.867067 -59.776581 
L 366.94341 -58.009887 
L 367.019603 -56.544944 
L 367.095645 -59.193761 
L 367.171537 -60.836455 
L 367.24728 -61.133748 
L 367.322874 -57.687047 
L 367.398319 -56.904138 
L 367.473617 -57.332455 
L 367.548768 -61.017366 
L 367.623772 -56.361367 
L 367.698631 -58.902766 
L 367.773344 -56.451892 
L 367.847912 -58.804962 
L 367.922336 -57.868917 
L 367.996617 -57.335493 
L 368.070754 -55.811254 
L 368.144749 -58.771356 
L 368.218602 -54.902399 
L 368.292313 -56.116031 
L 368.365883 -56.19109 
L 368.439313 -57.336722 
L 368.512603 -55.630228 
L 368.585754 -53.638267 
L 368.658766 -52.373951 
L 368.731639 -52.451232 
L 368.804375 -58.709071 
L 368.876974 -57.261868 
L 368.949436 -55.285717 
L 369.021761 -54.766119 
L 369.093951 -53.557861 
L 369.166006 -57.299706 
L 369.237926 -50.242711 
L 369.309712 -54.206503 
L 369.381364 -50.936441 
L 369.452883 -52.970381 
L 369.52427 -55.659334 
L 369.595524 -51.388118 
L 369.666646 -55.539835 
L 369.737638 -54.957198 
L 369.808498 -52.459563 
L 369.879228 -54.471235 
L 369.949829 -55.74475 
L 370.0203 -55.184352 
L 370.090642 -49.628315 
L 370.160856 -54.616223 
L 370.230942 -52.420151 
L 370.300901 -55.094928 
L 370.370733 -51.919153 
L 370.440438 -58.969073 
L 370.510017 -56.741925 
L 370.579471 -52.636723 
L 370.648799 -53.107353 
L 370.718003 -55.346656 
L 370.787082 -54.370214 
L 370.856038 -53.849823 
L 370.92487 -52.868144 
L 370.993579 -56.278807 
L 371.062166 -53.817124 
L 371.130631 -54.684102 
L 371.198975 -52.474093 
L 371.267197 -55.023513 
L 371.335298 -56.897909 
L 371.403279 -54.01959 
L 371.47114 -51.656926 
L 371.538882 -54.299539 
L 371.606504 -49.707581 
L 371.674008 -52.305925 
L 371.741394 -53.204856 
L 371.808662 -53.390967 
L 371.875813 -54.088602 
L 371.942846 -56.76791 
L 372.009763 -49.702355 
L 372.076564 -51.682778 
L 372.143249 -52.755006 
L 372.209819 -53.271807 
L 372.276273 -53.598404 
L 372.342613 -52.080028 
L 372.408839 -45.883636 
L 372.474951 -47.66351 
L 372.54095 -54.362849 
L 372.606836 -52.668072 
L 372.672609 -51.470782 
L 372.73827 -56.290025 
L 372.803819 -58.139597 
L 372.869256 -53.419892 
L 372.934583 -53.398746 
L 372.999798 -52.883762 
L 373.064904 -51.978738 
L 373.129899 -50.174092 
L 373.194785 -49.928492 
L 373.259561 -51.189332 
L 373.324229 -54.479495 
L 373.388788 -50.082942 
L 373.453239 -50.386865 
L 373.517582 -51.936648 
L 373.581818 -52.427195 
L 373.581818 -56.96917 
L 373.581818 -56.96917 
L 373.517582 -58.782271 
L 373.453239 -55.669479 
L 373.388788 -56.699369 
L 373.324229 -58.068564 
L 373.259561 -56.529194 
L 373.194785 -55.885812 
L 373.129899 -56.996189 
L 373.064904 -58.429913 
L 372.999798 -57.809535 
L 372.934583 -56.916769 
L 372.869256 -59.351757 
L 372.803819 -63.927147 
L 372.73827 -62.712415 
L 372.672609 -57.542861 
L 372.606836 -59.028719 
L 372.54095 -58.394624 
L 372.474951 -53.34345 
L 372.408839 -53.948906 
L 372.342613 -59.98442 
L 372.276273 -59.231517 
L 372.209819 -57.844824 
L 372.143249 -57.855078 
L 372.076564 -58.98857 
L 372.009763 -55.769657 
L 371.942846 -63.404766 
L 371.875813 -60.018636 
L 371.808662 -59.706712 
L 371.741394 -57.99433 
L 371.674008 -58.650725 
L 371.606504 -56.044335 
L 371.538882 -58.671791 
L 371.47114 -56.984754 
L 371.403279 -59.375318 
L 371.335298 -63.457641 
L 371.267197 -59.83136 
L 371.198975 -57.549859 
L 371.130631 -59.695834 
L 371.062166 -59.200636 
L 370.993579 -62.302136 
L 370.92487 -59.531937 
L 370.856038 -59.205113 
L 370.787082 -60.454384 
L 370.718003 -60.698634 
L 370.648799 -58.982151 
L 370.579471 -58.726846 
L 370.510017 -64.650652 
L 370.440438 -63.87409 
L 370.370733 -58.39489 
L 370.300901 -59.624122 
L 370.230942 -59.11526 
L 370.160856 -62.051153 
L 370.090642 -58.414405 
L 370.0203 -62.125131 
L 369.949829 -61.788427 
L 369.879228 -60.243431 
L 369.808498 -59.417909 
L 369.737638 -60.168508 
L 369.666646 -60.821722 
L 369.595524 -57.317752 
L 369.52427 -61.093968 
L 369.452883 -60.022851 
L 369.381364 -58.007555 
L 369.309712 -58.947425 
L 369.237926 -56.890277 
L 369.166006 -62.122549 
L 369.093951 -59.045994 
L 369.021761 -59.324813 
L 368.949436 -60.892054 
L 368.876974 -63.553102 
L 368.804375 -63.247715 
L 368.731639 -59.459322 
L 368.658766 -59.471135 
L 368.585754 -57.777743 
L 368.512603 -60.092519 
L 368.439313 -62.969339 
L 368.365883 -61.141161 
L 368.292313 -62.296425 
L 368.218602 -59.520269 
L 368.144749 -62.294405 
L 368.070754 -61.761888 
L 367.996617 -61.921952 
L 367.922336 -63.794686 
L 367.847912 -64.179572 
L 367.773344 -65.784291 
L 367.698631 -63.981816 
L 367.623772 -62.679022 
L 367.548768 -66.552876 
L 367.473617 -63.168935 
L 367.398319 -63.085887 
L 367.322874 -62.750675 
L 367.24728 -64.637718 
L 367.171537 -67.128131 
L 367.095645 -64.434639 
L 367.019603 -62.606197 
L 366.94341 -63.269711 
L 366.867067 -66.092779 
L 366.790571 -63.53381 
L 366.713923 -63.23102 
L 366.637122 -61.587719 
L 366.560168 -63.295659 
L 366.483059 -64.565001 
L 366.405795 -66.706569 
L 366.328376 -65.414665 
L 366.250801 -63.585415 
L 366.173069 -66.70084 
L 366.09518 -64.328071 
L 366.017133 -60.307905 
L 365.938927 -63.714722 
L 365.860562 -62.658681 
L 365.782037 -60.992468 
L 365.703352 -62.789665 
L 365.624505 -64.428856 
L 365.545496 -65.465805 
L 365.466325 -65.291685 
L 365.38699 -64.995496 
L 365.307492 -64.059211 
L 365.227828 -66.136373 
L 365.148 -63.809799 
L 365.068006 -62.868126 
L 364.987845 -62.937082 
L 364.907517 -68.388824 
L 364.82702 -61.996098 
L 364.746355 -63.293485 
L 364.665521 -63.150498 
L 364.584516 -62.291642 
L 364.50334 -64.396784 
L 364.421993 -63.954051 
L 364.340473 -66.46058 
L 364.25878 -63.57685 
L 364.176914 -69.123012 
L 364.094873 -63.255113 
L 364.012657 -65.254691 
L 363.930264 -66.900811 
L 363.847695 -69.518805 
L 363.764948 -67.51063 
L 363.682023 -64.002682 
L 363.598919 -65.960553 
L 363.515635 -66.941664 
L 363.43217 -68.177949 
L 363.348524 -67.298938 
L 363.264695 -68.991697 
L 363.180684 -67.620624 
L 363.096488 -67.208741 
L 363.012108 -68.84263 
L 362.927543 -66.596885 
L 362.842791 -68.278542 
L 362.757852 -67.15656 
L 362.672726 -68.956535 
L 362.58741 -67.930472 
L 362.501905 -68.149479 
L 362.41621 -66.75682 
L 362.330323 -69.01376 
L 362.244244 -66.566858 
L 362.157972 -70.21704 
L 362.071507 -66.446025 
L 361.984846 -68.617982 
L 361.89799 -67.02674 
L 361.810937 -67.584127 
L 361.723687 -69.146986 
L 361.636239 -68.297164 
L 361.548591 -66.284264 
L 361.460744 -68.91394 
L 361.372695 -68.634661 
L 361.284445 -71.147208 
L 361.195991 -69.694127 
L 361.107334 -69.55949 
L 361.018472 -71.376173 
L 360.929404 -68.268294 
L 360.84013 -67.173046 
L 360.750648 -67.667691 
L 360.660957 -67.60913 
L 360.571057 -68.026481 
L 360.480946 -69.465956 
L 360.390624 -68.024531 
L 360.300089 -67.485093 
L 360.209341 -66.253796 
L 360.118378 -66.916302 
L 360.0272 -68.059354 
L 359.935805 -66.486461 
L 359.844192 -68.35789 
L 359.752361 -68.13013 
L 359.66031 -70.537834 
L 359.568039 -69.425157 
L 359.475545 -67.728722 
L 359.382829 -69.640596 
L 359.289889 -68.550543 
L 359.196723 -68.887231 
L 359.103332 -68.738425 
L 359.009713 -69.480509 
L 358.915866 -66.272328 
L 358.82179 -70.082686 
L 358.727483 -67.260999 
L 358.632944 -70.66619 
L 358.538172 -71.562451 
L 358.443167 -67.948903 
L 358.347926 -70.502156 
L 358.252449 -68.511035 
L 358.156734 -69.767543 
L 358.060781 -68.643407 
L 357.964588 -70.601272 
L 357.868154 -72.331832 
L 357.771477 -71.997864 
L 357.674557 -70.509033 
L 357.577392 -71.642473 
L 357.479981 -69.990202 
L 357.382323 -74.005221 
L 357.284417 -67.883078 
L 357.186261 -72.295464 
L 357.087853 -73.312213 
L 356.989194 -74.574728 
L 356.89028 -70.686471 
L 356.791112 -69.876331 
L 356.691688 -75.792286 
L 356.592006 -70.175166 
L 356.492065 -71.020184 
L 356.391863 -72.090357 
L 356.2914 -74.185796 
L 356.190675 -75.532759 
L 356.089684 -69.63743 
L 355.988428 -72.46004 
L 355.886905 -69.528528 
L 355.785114 -73.440549 
L 355.683052 -72.347054 
L 355.580719 -72.119108 
L 355.478113 -72.768472 
L 355.375232 -68.151717 
L 355.272076 -70.289021 
L 355.168643 -73.691647 
L 355.06493 -72.517572 
L 354.960938 -71.291548 
L 354.856663 -71.635072 
L 354.752105 -74.224844 
L 354.647263 -72.239248 
L 354.542133 -72.547609 
L 354.436716 -73.757355 
L 354.331009 -76.502021 
L 354.225011 -73.448385 
L 354.118721 -74.947649 
L 354.012135 -73.82191 
L 353.905254 -72.958899 
L 353.798075 -70.738435 
L 353.690597 -77.661829 
L 353.582817 -72.878106 
L 353.474735 -74.510788 
L 353.366348 -75.205896 
L 353.257655 -76.50292 
L 353.148655 -75.132022 
L 353.039344 -74.336135 
L 352.929722 -72.871936 
L 352.819787 -77.042648 
L 352.709537 -74.786317 
L 352.59897 -72.205056 
L 352.488085 -77.922527 
L 352.376879 -71.802389 
L 352.265351 -72.536599 
L 352.153498 -73.714829 
L 352.041319 -75.218001 
L 351.928813 -76.289808 
L 351.815976 -71.871568 
L 351.702808 -72.339527 
L 351.589305 -78.217301 
L 351.475467 -75.492526 
L 351.361291 -75.93896 
L 351.246776 -75.29357 
L 351.131918 -76.211755 
L 351.016717 -76.14316 
L 350.901169 -74.45935 
L 350.785274 -74.186822 
L 350.669028 -75.915226 
L 350.552431 -73.519624 
L 350.435478 -75.136707 
L 350.31817 -76.542183 
L 350.200502 -75.08919 
L 350.082474 -77.287758 
L 349.964082 -73.676032 
L 349.845325 -76.081197 
L 349.7262 -76.650324 
L 349.606706 -79.096321 
L 349.486839 -77.312493 
L 349.366597 -75.678578 
L 349.245979 -73.928582 
L 349.124981 -78.867944 
L 349.003602 -79.799431 
L 348.881838 -75.778546 
L 348.759688 -78.232463 
L 348.637149 -79.548278 
L 348.514218 -78.847506 
L 348.390894 -76.650134 
L 348.267172 -77.37895 
L 348.143052 -73.10923 
L 348.01853 -76.772941 
L 347.893604 -77.537096 
L 347.768271 -75.61527 
L 347.642528 -78.804196 
L 347.516373 -77.777168 
L 347.389803 -79.025717 
L 347.262815 -78.375894 
L 347.135407 -80.960858 
L 347.007576 -79.149101 
L 346.879318 -79.884952 
L 346.750631 -79.353649 
L 346.621513 -81.83666 
L 346.49196 -78.539669 
L 346.361969 -81.235339 
L 346.231538 -79.687123 
L 346.100662 -79.413137 
L 345.969341 -81.999489 
L 345.837569 -78.92951 
L 345.705345 -80.101634 
L 345.572664 -76.943289 
L 345.439525 -77.869967 
L 345.305923 -80.902669 
L 345.171856 -80.001598 
L 345.03732 -81.747102 
L 344.902312 -79.781667 
L 344.766829 -79.918404 
L 344.630867 -78.926327 
L 344.494422 -80.029308 
L 344.357493 -78.897495 
L 344.220074 -80.622248 
L 344.082162 -81.129212 
L 343.943755 -79.117002 
L 343.804847 -81.611765 
L 343.665437 -84.825107 
L 343.52552 -80.191681 
L 343.385092 -83.013286 
L 343.244149 -84.935389 
L 343.102688 -81.192101 
L 342.960706 -84.176596 
L 342.818197 -78.740174 
L 342.675159 -83.37632 
L 342.531587 -83.999386 
L 342.387477 -79.784392 
L 342.242826 -82.349292 
L 342.097629 -80.636733 
L 341.951881 -80.118294 
L 341.80558 -80.784038 
L 341.65872 -84.902839 
L 341.511297 -78.984197 
L 341.363308 -79.892786 
L 341.214747 -82.953159 
L 341.06561 -81.793967 
L 340.915893 -83.429934 
L 340.765591 -83.47438 
L 340.614699 -80.045141 
L 340.463214 -81.709116 
L 340.31113 -81.385502 
L 340.158442 -80.431452 
L 340.005146 -81.195928 
L 339.851237 -83.958332 
L 339.69671 -80.264822 
L 339.541559 -80.619782 
L 339.385781 -80.313994 
L 339.229369 -83.924174 
L 339.072319 -79.942219 
L 338.914625 -83.75996 
L 338.756282 -83.149816 
L 338.597285 -81.499027 
L 338.437628 -83.72298 
L 338.277306 -83.957981 
L 338.116313 -85.689494 
L 337.954644 -84.132927 
L 337.792292 -81.431245 
L 337.629253 -82.645455 
L 337.46552 -84.36283 
L 337.301087 -80.524615 
L 337.135948 -80.541396 
L 336.970098 -81.617371 
L 336.803529 -80.749738 
L 336.636236 -84.42801 
L 336.468213 -87.123915 
L 336.299453 -84.357711 
L 336.12995 -84.15185 
L 335.959696 -84.172035 
L 335.788686 -82.431417 
L 335.616912 -84.109394 
L 335.444368 -86.008982 
L 335.271047 -86.807689 
L 335.096941 -89.151632 
L 334.922044 -84.803752 
L 334.746349 -86.990548 
L 334.569847 -83.465865 
L 334.392533 -86.51538 
L 334.214397 -86.385404 
L 334.035433 -85.512346 
L 333.855632 -87.337866 
L 333.674987 -89.039185 
L 333.493491 -86.198273 
L 333.311134 -83.932596 
L 333.127908 -88.946317 
L 332.943806 -88.689023 
L 332.758819 -88.704645 
L 332.572938 -90.238943 
L 332.386155 -85.478399 
L 332.198461 -87.492545 
L 332.009847 -86.508513 
L 331.820303 -87.476472 
L 331.629821 -88.115341 
L 331.438392 -84.601274 
L 331.246005 -90.030389 
L 331.052652 -90.234782 
L 330.858322 -87.850595 
L 330.663006 -88.223865 
L 330.466693 -89.374419 
L 330.269373 -89.540111 
L 330.071036 -88.685771 
L 329.871672 -93.765142 
L 329.671269 -87.620499 
L 329.469817 -92.848299 
L 329.267305 -90.773822 
L 329.063721 -92.869374 
L 328.859054 -92.120504 
L 328.653293 -90.764024 
L 328.446426 -89.997853 
L 328.23844 -91.496462 
L 328.029324 -90.750515 
L 327.819065 -88.912855 
L 327.607651 -91.484767 
L 327.395069 -87.185149 
L 327.181306 -91.447056 
L 326.966349 -90.355427 
L 326.750184 -90.543781 
L 326.532798 -93.965957 
L 326.314177 -94.046643 
L 326.094306 -90.587496 
L 325.873172 -92.558922 
L 325.650759 -94.949316 
L 325.427054 -92.731506 
L 325.20204 -94.121078 
L 324.975703 -92.714633 
L 324.748026 -95.339406 
L 324.518994 -95.498702 
L 324.288591 -90.678072 
L 324.056799 -96.182071 
L 323.823603 -94.920485 
L 323.588985 -96.258687 
L 323.352928 -93.082334 
L 323.115413 -95.321843 
L 322.876423 -96.588057 
L 322.635939 -97.914008 
L 322.393943 -98.376112 
L 322.150416 -95.355704 
L 321.905337 -94.932678 
L 321.658687 -98.116171 
L 321.410446 -95.509956 
L 321.160593 -98.227869 
L 320.909107 -97.470856 
L 320.655966 -99.448466 
L 320.401149 -98.973296 
L 320.144633 -100.161135 
L 319.886395 -98.329303 
L 319.626413 -98.433656 
L 319.364662 -100.453213 
L 319.101118 -104.564683 
L 318.835757 -99.862046 
L 318.568552 -102.954452 
L 318.29948 -100.978892 
L 318.028512 -101.823438 
L 317.755623 -102.256476 
L 317.480784 -103.475918 
L 317.203968 -101.101578 
L 316.925146 -100.205179 
L 316.644289 -100.736443 
L 316.361367 -100.788111 
L 316.076349 -99.165438 
L 315.789204 -100.047038 
L 315.4999 -102.39104 
L 315.208404 -102.027919 
L 314.914683 -102.950364 
L 314.618703 -104.828397 
L 314.320428 -100.892575 
L 314.019823 -108.502004 
L 313.716851 -100.026544 
L 313.411475 -105.221479 
L 313.103655 -104.222882 
L 312.793353 -109.821001 
L 312.480528 -105.94691 
L 312.165139 -106.24617 
L 311.847144 -106.865559 
L 311.526498 -105.069971 
L 311.203158 -105.904359 
L 310.877078 -104.159983 
L 310.54821 -107.016555 
L 310.216508 -106.874472 
L 309.881921 -106.221959 
L 309.544399 -105.474141 
L 309.20389 -104.221937 
L 308.860341 -103.848572 
L 308.513697 -104.793245 
L 308.163901 -105.76947 
L 307.810896 -104.43446 
L 307.454623 -105.916926 
L 307.09502 -105.361231 
L 306.732024 -106.162655 
L 306.365572 -105.991284 
L 305.995595 -106.441022 
L 305.622027 -106.770345 
L 305.244796 -105.099288 
L 304.86383 -107.654683 
L 304.479054 -108.760472 
L 304.090392 -108.489215 
L 303.697764 -111.884352 
L 303.301087 -109.886028 
L 302.900279 -112.470285 
L 302.495252 -110.236986 
L 302.085915 -111.004443 
L 301.672178 -113.604045 
L 301.253943 -113.041942 
L 300.831111 -112.355907 
L 300.403582 -114.878791 
L 299.971249 -111.782264 
L 299.534003 -113.677775 
L 299.091731 -113.565252 
L 298.644316 -110.95569 
L 298.191637 -113.051673 
L 297.733569 -111.000162 
L 297.269982 -116.961241 
L 296.800742 -112.63825 
L 296.325708 -111.491074 
L 295.844736 -117.658218 
L 295.357676 -115.914416 
L 294.864371 -114.054069 
L 294.364659 -115.033595 
L 293.858373 -113.087973 
L 293.345335 -117.548082 
L 292.825364 -114.443489 
L 292.29827 -117.460494 
L 291.763856 -118.212758 
L 291.221914 -118.173699 
L 290.672229 -119.367646 
L 290.114578 -120.028315 
L 289.548726 -121.631596 
L 288.974428 -123.123962 
L 288.391428 -123.939944 
L 287.799459 -119.19175 
L 287.19824 -124.540327 
L 286.587477 -120.494479 
L 285.966863 -126.159937 
L 285.336074 -123.969276 
L 284.694772 -124.881116 
L 284.0426 -128.036956 
L 283.379182 -126.641591 
L 282.704126 -125.579573 
L 282.017014 -120.663584 
L 281.317408 -125.555044 
L 280.604846 -125.256225 
L 279.878839 -126.175665 
L 279.138869 -127.057301 
L 278.384389 -124.278346 
L 277.614818 -127.707349 
L 276.829541 -130.488386 
L 276.027903 -128.720268 
L 275.209207 -130.585921 
L 274.372712 -132.012598 
L 273.517627 -132.117208 
L 272.643106 -131.488635 
L 271.748246 -133.293031 
L 270.832078 -129.548621 
L 269.893562 -129.584164 
L 268.931581 -135.001673 
L 267.944931 -136.598 
L 266.932313 -133.523744 
L 265.892324 -135.78812 
L 264.823443 -136.266449 
L 263.724018 -135.198637 
L 262.592253 -137.661011 
L 261.426186 -136.954296 
L 260.223675 -139.643097 
L 258.982365 -140.07627 
L 257.699672 -137.695949 
L 256.372739 -140.825138 
L 254.998405 -141.042853 
L 253.573159 -141.189871 
L 252.093082 -143.307558 
L 250.553787 -145.932063 
L 248.950336 -147.726526 
L 247.277149 -144.345586 
L 245.527882 -145.874419 
L 243.695286 -146.952662 
L 241.771022 -149.802116 
L 239.745437 -152.658462 
L 237.607262 -148.177111 
L 235.343241 -153.046337 
L 232.93763 -151.748195 
L 230.371529 -152.984054 
L 227.621985 -158.351029 
L 224.660736 -156.84358 
L 221.452441 -158.682113 
L 217.952098 -162.186088 
L 214.101162 -164.414085 
L 209.821505 -165.885119 
L 205.005572 -170.264852 
L 199.499445 -173.877545 
L 193.071664 -174.747299 
L 185.350408 -181.815748 
L 175.68052 -183.319436 
L 162.733995 -197.9614 
L 153.761336 -205.677839 
L 153.370701 -205.949387 
L 152.976059 -206.204169 
L 152.577327 -205.736944 
L 152.17442 -203.885538 
L 151.76725 -204.874232 
L 151.355725 -205.192591 
L 150.93975 -205.969237 
L 150.51923 -207.148787 
L 150.094063 -207.201534 
L 149.664145 -207.493402 
L 149.229369 -207.161265 
L 148.789624 -209.374158 
L 148.344796 -205.359486 
L 147.894764 -210.482095 
L 147.439407 -208.094905 
L 146.978596 -211.460896 
L 146.512199 -209.472764 
L 146.04008 -211.111414 
L 145.562096 -210.456097 
L 145.078099 -212.031005 
L 144.587936 -213.319524 
L 144.091448 -212.068976 
L 143.588471 -210.669833 
L 143.078831 -212.786594 
L 142.56235 -214.24293 
L 142.038842 -212.981745 
L 141.508113 -213.583831 
L 140.969961 -214.741567 
L 140.424175 -213.871124 
L 139.870536 -214.640316 
L 139.308814 -214.081971 
L 138.738771 -215.207925 
L 138.160155 -216.785035 
L 137.572704 -215.770254 
L 136.976146 -217.194402 
L 136.370192 -216.203801 
L 135.754543 -218.37769 
L 135.128883 -216.887789 
L 134.492881 -220.827321 
L 133.84619 -217.800276 
L 133.188443 -219.607362 
L 132.519256 -218.034564 
L 131.838225 -219.597325 
L 131.144923 -220.677072 
L 130.438899 -221.120925 
L 129.719677 -221.498122 
L 128.986755 -222.314805 
L 128.2396 -222.463351 
L 127.47765 -223.040259 
L 126.700305 -224.039735 
L 125.906932 -223.891613 
L 125.096854 -223.66033 
L 124.269355 -224.847031 
L 123.423667 -225.368722 
L 122.558973 -224.658179 
L 121.6744 -225.604188 
L 120.769011 -225.511817 
L 119.841804 -225.704879 
L 118.8917 -226.368793 
L 117.91754 -227.152604 
L 116.918075 -227.496114 
L 115.891954 -227.142082 
L 114.837717 -228.006765 
L 113.753779 -227.152415 
L 112.638419 -228.415768 
L 111.489759 -226.848345 
L 110.30575 -228.469303 
L 109.084148 -228.049032 
L 107.822486 -228.661044 
L 106.518047 -228.833844 
L 105.16783 -228.777089 
L 103.768503 -229.208583 
L 102.316359 -228.93258 
L 100.807254 -229.406188 
L 99.236536 -229.923028 
L 97.598959 -229.325619 
L 95.888578 -230.119372 
L 94.098615 -229.710687 
L 92.221304 -229.883917 
L 90.247679 -230.521386 
L 88.167321 -230.476493 
L 85.968023 -230.557019 
L 83.635354 -230.888735 
L 81.15209 -230.60665 
L 78.497434 -231.310739 
L 75.645963 -231.338391 
L 72.56614 -231.804423 
L 69.218182 -231.891772 
z
" style="stroke: #ff0000; stroke-opacity: 0.2"/>
    </defs>
    <g clip-path="url(#p3b16d2e3c3)">
     <use xlink:href="#m81b2740ecc" x="0" y="288" style="fill: #ff0000; fill-opacity: 0.2; stroke: #ff0000; stroke-opacity: 0.2"/>
    </g>
   </g>
   <g id="matplotlib.axis_1">
    <g id="xtick_1">
     <g id="line2d_1">
      <defs>
       <path id="m12eb0e95f2" d="M 0 0 
L 0 3.5 
" style="stroke: #000000; stroke-width: 0.8"/>
      </defs>
      <g>
       <use xlink:href="#m12eb0e95f2" x="65.550908" y="252" style="stroke: #000000; stroke-width: 0.8"/>
      </g>
     </g>
     <g id="text_1">
      <!-- $\mathdefault{10^{1}}$ -->
      <g transform="translate(56.750908 266.598437)scale(0.1 -0.1)">
       <defs>
        <path id="DejaVuSans-31" d="M 794 531 
L 1825 531 
L 1825 4091 
L 703 3866 
L 703 4441 
L 1819 4666 
L 2450 4666 
L 2450 531 
L 3481 531 
L 3481 0 
L 794 0 
L 794 531 
z
" transform="scale(0.015625)"/>
        <path id="DejaVuSans-30" d="M 2034 4250 
Q 1547 4250 1301 3770 
Q 1056 3291 1056 2328 
Q 1056 1369 1301 889 
Q 1547 409 2034 409 
Q 2525 409 2770 889 
Q 3016 1369 3016 2328 
Q 3016 3291 2770 3770 
Q 2525 4250 2034 4250 
z
M 2034 4750 
Q 2819 4750 3233 4129 
Q 3647 3509 3647 2328 
Q 3647 1150 3233 529 
Q 2819 -91 2034 -91 
Q 1250 -91 836 529 
Q 422 1150 422 2328 
Q 422 3509 836 4129 
Q 1250 4750 2034 4750 
z
" transform="scale(0.015625)"/>
       </defs>
       <use xlink:href="#DejaVuSans-31" transform="translate(0 0.684375)"/>
       <use xlink:href="#DejaVuSans-30" transform="translate(63.623047 0.684375)"/>
       <use xlink:href="#DejaVuSans-31" transform="translate(128.203125 38.965625)scale(0.7)"/>
      </g>
     </g>
    </g>
    <g id="xtick_2">
     <g id="line2d_2">
      <g>
       <use xlink:href="#m12eb0e95f2" x="154.148045" y="252" style="stroke: #000000; stroke-width: 0.8"/>
      </g>
     </g>
     <g id="text_2">
      <!-- $\mathdefault{10^{2}}$ -->
      <g transform="translate(145.348045 266.598437)scale(0.1 -0.1)">
       <defs>
        <path id="DejaVuSans-32" d="M 1228 531 
L 3431 531 
L 3431 0 
L 469 0 
L 469 531 
Q 828 903 1448 1529 
Q 2069 2156 2228 2338 
Q 2531 2678 2651 2914 
Q 2772 3150 2772 3378 
Q 2772 3750 2511 3984 
Q 2250 4219 1831 4219 
Q 1534 4219 1204 4116 
Q 875 4013 500 3803 
L 500 4441 
Q 881 4594 1212 4672 
Q 1544 4750 1819 4750 
Q 2544 4750 2975 4387 
Q 3406 4025 3406 3419 
Q 3406 3131 3298 2873 
Q 3191 2616 2906 2266 
Q 2828 2175 2409 1742 
Q 1991 1309 1228 531 
z
" transform="scale(0.015625)"/>
       </defs>
       <use xlink:href="#DejaVuSans-31" transform="translate(0 0.765625)"/>
       <use xlink:href="#DejaVuSans-30" transform="translate(63.623047 0.765625)"/>
       <use xlink:href="#DejaVuSans-32" transform="translate(128.203125 39.046875)scale(0.7)"/>
      </g>
     </g>
    </g>
    <g id="xtick_3">
     <g id="line2d_3">
      <g>
       <use xlink:href="#m12eb0e95f2" x="242.745182" y="252" style="stroke: #000000; stroke-width: 0.8"/>
      </g>
     </g>
     <g id="text_3">
      <!-- $\mathdefault{10^{3}}$ -->
      <g transform="translate(233.945182 266.598437)scale(0.1 -0.1)">
       <defs>
        <path id="DejaVuSans-33" d="M 2597 2516 
Q 3050 2419 3304 2112 
Q 3559 1806 3559 1356 
Q 3559 666 3084 287 
Q 2609 -91 1734 -91 
Q 1441 -91 1130 -33 
Q 819 25 488 141 
L 488 750 
Q 750 597 1062 519 
Q 1375 441 1716 441 
Q 2309 441 2620 675 
Q 2931 909 2931 1356 
Q 2931 1769 2642 2001 
Q 2353 2234 1838 2234 
L 1294 2234 
L 1294 2753 
L 1863 2753 
Q 2328 2753 2575 2939 
Q 2822 3125 2822 3475 
Q 2822 3834 2567 4026 
Q 2313 4219 1838 4219 
Q 1578 4219 1281 4162 
Q 984 4106 628 3988 
L 628 4550 
Q 988 4650 1302 4700 
Q 1616 4750 1894 4750 
Q 2613 4750 3031 4423 
Q 3450 4097 3450 3541 
Q 3450 3153 3228 2886 
Q 3006 2619 2597 2516 
z
" transform="scale(0.015625)"/>
       </defs>
       <use xlink:href="#DejaVuSans-31" transform="translate(0 0.765625)"/>
       <use xlink:href="#DejaVuSans-30" transform="translate(63.623047 0.765625)"/>
       <use xlink:href="#DejaVuSans-33" transform="translate(128.203125 39.046875)scale(0.7)"/>
      </g>
     </g>
    </g>
    <g id="xtick_4">
     <g id="line2d_4">
      <g>
       <use xlink:href="#m12eb0e95f2" x="331.342319" y="252" style="stroke: #000000; stroke-width: 0.8"/>
      </g>
     </g>
     <g id="text_4">
      <!-- $\mathdefault{10^{4}}$ -->
      <g transform="translate(322.542319 266.598437)scale(0.1 -0.1)">
       <defs>
        <path id="DejaVuSans-34" d="M 2419 4116 
L 825 1625 
L 2419 1625 
L 2419 4116 
z
M 2253 4666 
L 3047 4666 
L 3047 1625 
L 3713 1625 
L 3713 1100 
L 3047 1100 
L 3047 0 
L 2419 0 
L 2419 1100 
L 313 1100 
L 313 1709 
L 2253 4666 
z
" transform="scale(0.015625)"/>
       </defs>
       <use xlink:href="#DejaVuSans-31" transform="translate(0 0.684375)"/>
       <use xlink:href="#DejaVuSans-30" transform="translate(63.623047 0.684375)"/>
       <use xlink:href="#DejaVuSans-34" transform="translate(128.203125 38.965625)scale(0.7)"/>
      </g>
     </g>
    </g>
    <g id="xtick_5">
     <g id="line2d_5">
      <defs>
       <path id="mc9d34572d4" d="M 0 0 
L 0 2 
" style="stroke: #000000; stroke-width: 0.6"/>
      </defs>
      <g>
       <use xlink:href="#mc9d34572d4" x="56.964959" y="252" style="stroke: #000000; stroke-width: 0.6"/>
      </g>
     </g>
    </g>
    <g id="xtick_6">
     <g id="line2d_6">
      <g>
       <use xlink:href="#mc9d34572d4" x="61.496926" y="252" style="stroke: #000000; stroke-width: 0.6"/>
      </g>
     </g>
    </g>
    <g id="xtick_7">
     <g id="line2d_7">
      <g>
       <use xlink:href="#mc9d34572d4" x="92.221304" y="252" style="stroke: #000000; stroke-width: 0.6"/>
      </g>
     </g>
    </g>
    <g id="xtick_8">
     <g id="line2d_8">
      <g>
       <use xlink:href="#mc9d34572d4" x="107.822486" y="252" style="stroke: #000000; stroke-width: 0.6"/>
      </g>
     </g>
    </g>
    <g id="xtick_9">
     <g id="line2d_9">
      <g>
       <use xlink:href="#mc9d34572d4" x="118.8917" y="252" style="stroke: #000000; stroke-width: 0.6"/>
      </g>
     </g>
    </g>
    <g id="xtick_10">
     <g id="line2d_10">
      <g>
       <use xlink:href="#mc9d34572d4" x="127.47765" y="252" style="stroke: #000000; stroke-width: 0.6"/>
      </g>
     </g>
    </g>
    <g id="xtick_11">
     <g id="line2d_11">
      <g>
       <use xlink:href="#mc9d34572d4" x="134.492881" y="252" style="stroke: #000000; stroke-width: 0.6"/>
      </g>
     </g>
    </g>
    <g id="xtick_12">
     <g id="line2d_12">
      <g>
       <use xlink:href="#mc9d34572d4" x="140.424175" y="252" style="stroke: #000000; stroke-width: 0.6"/>
      </g>
     </g>
    </g>
    <g id="xtick_13">
     <g id="line2d_13">
      <g>
       <use xlink:href="#mc9d34572d4" x="145.562096" y="252" style="stroke: #000000; stroke-width: 0.6"/>
      </g>
     </g>
    </g>
    <g id="xtick_14">
     <g id="line2d_14">
      <g>
       <use xlink:href="#mc9d34572d4" x="150.094063" y="252" style="stroke: #000000; stroke-width: 0.6"/>
      </g>
     </g>
    </g>
    <g id="xtick_15">
     <g id="line2d_15">
      <g>
       <use xlink:href="#mc9d34572d4" x="180.818441" y="252" style="stroke: #000000; stroke-width: 0.6"/>
      </g>
     </g>
    </g>
    <g id="xtick_16">
     <g id="line2d_16">
      <g>
       <use xlink:href="#mc9d34572d4" x="196.419622" y="252" style="stroke: #000000; stroke-width: 0.6"/>
      </g>
     </g>
    </g>
    <g id="xtick_17">
     <g id="line2d_17">
      <g>
       <use xlink:href="#mc9d34572d4" x="207.488837" y="252" style="stroke: #000000; stroke-width: 0.6"/>
      </g>
     </g>
    </g>
    <g id="xtick_18">
     <g id="line2d_18">
      <g>
       <use xlink:href="#mc9d34572d4" x="216.074786" y="252" style="stroke: #000000; stroke-width: 0.6"/>
      </g>
     </g>
    </g>
    <g id="xtick_19">
     <g id="line2d_19">
      <g>
       <use xlink:href="#mc9d34572d4" x="223.090018" y="252" style="stroke: #000000; stroke-width: 0.6"/>
      </g>
     </g>
    </g>
    <g id="xtick_20">
     <g id="line2d_20">
      <g>
       <use xlink:href="#mc9d34572d4" x="229.021312" y="252" style="stroke: #000000; stroke-width: 0.6"/>
      </g>
     </g>
    </g>
    <g id="xtick_21">
     <g id="line2d_21">
      <g>
       <use xlink:href="#mc9d34572d4" x="234.159232" y="252" style="stroke: #000000; stroke-width: 0.6"/>
      </g>
     </g>
    </g>
    <g id="xtick_22">
     <g id="line2d_22">
      <g>
       <use xlink:href="#mc9d34572d4" x="238.691199" y="252" style="stroke: #000000; stroke-width: 0.6"/>
      </g>
     </g>
    </g>
    <g id="xtick_23">
     <g id="line2d_23">
      <g>
       <use xlink:href="#mc9d34572d4" x="269.415578" y="252" style="stroke: #000000; stroke-width: 0.6"/>
      </g>
     </g>
    </g>
    <g id="xtick_24">
     <g id="line2d_24">
      <g>
       <use xlink:href="#mc9d34572d4" x="285.016759" y="252" style="stroke: #000000; stroke-width: 0.6"/>
      </g>
     </g>
    </g>
    <g id="xtick_25">
     <g id="line2d_25">
      <g>
       <use xlink:href="#mc9d34572d4" x="296.085973" y="252" style="stroke: #000000; stroke-width: 0.6"/>
      </g>
     </g>
    </g>
    <g id="xtick_26">
     <g id="line2d_26">
      <g>
       <use xlink:href="#mc9d34572d4" x="304.671923" y="252" style="stroke: #000000; stroke-width: 0.6"/>
      </g>
     </g>
    </g>
    <g id="xtick_27">
     <g id="line2d_27">
      <g>
       <use xlink:href="#mc9d34572d4" x="311.687155" y="252" style="stroke: #000000; stroke-width: 0.6"/>
      </g>
     </g>
    </g>
    <g id="xtick_28">
     <g id="line2d_28">
      <g>
       <use xlink:href="#mc9d34572d4" x="317.618449" y="252" style="stroke: #000000; stroke-width: 0.6"/>
      </g>
     </g>
    </g>
    <g id="xtick_29">
     <g id="line2d_29">
      <g>
       <use xlink:href="#mc9d34572d4" x="322.756369" y="252" style="stroke: #000000; stroke-width: 0.6"/>
      </g>
     </g>
    </g>
    <g id="xtick_30">
     <g id="line2d_30">
      <g>
       <use xlink:href="#mc9d34572d4" x="327.288336" y="252" style="stroke: #000000; stroke-width: 0.6"/>
      </g>
     </g>
    </g>
    <g id="xtick_31">
     <g id="line2d_31">
      <g>
       <use xlink:href="#mc9d34572d4" x="358.012715" y="252" style="stroke: #000000; stroke-width: 0.6"/>
      </g>
     </g>
    </g>
    <g id="xtick_32">
     <g id="line2d_32">
      <g>
       <use xlink:href="#mc9d34572d4" x="373.613896" y="252" style="stroke: #000000; stroke-width: 0.6"/>
      </g>
     </g>
    </g>
    <g id="xtick_33">
     <g id="line2d_33">
      <g>
       <use xlink:href="#mc9d34572d4" x="384.68311" y="252" style="stroke: #000000; stroke-width: 0.6"/>
      </g>
     </g>
    </g>
    <g id="text_5">
     <!-- Resources -->
     <g transform="translate(195.867969 280.276563)scale(0.1 -0.1)">
      <defs>
       <path id="DejaVuSans-52" d="M 2841 2188 
Q 3044 2119 3236 1894 
Q 3428 1669 3622 1275 
L 4263 0 
L 3584 0 
L 2988 1197 
Q 2756 1666 2539 1819 
Q 2322 1972 1947 1972 
L 1259 1972 
L 1259 0 
L 628 0 
L 628 4666 
L 2053 4666 
Q 2853 4666 3247 4331 
Q 3641 3997 3641 3322 
Q 3641 2881 3436 2590 
Q 3231 2300 2841 2188 
z
M 1259 4147 
L 1259 2491 
L 2053 2491 
Q 2509 2491 2742 2702 
Q 2975 2913 2975 3322 
Q 2975 3731 2742 3939 
Q 2509 4147 2053 4147 
L 1259 4147 
z
" transform="scale(0.015625)"/>
       <path id="DejaVuSans-65" d="M 3597 1894 
L 3597 1613 
L 953 1613 
Q 991 1019 1311 708 
Q 1631 397 2203 397 
Q 2534 397 2845 478 
Q 3156 559 3463 722 
L 3463 178 
Q 3153 47 2828 -22 
Q 2503 -91 2169 -91 
Q 1331 -91 842 396 
Q 353 884 353 1716 
Q 353 2575 817 3079 
Q 1281 3584 2069 3584 
Q 2775 3584 3186 3129 
Q 3597 2675 3597 1894 
z
M 3022 2063 
Q 3016 2534 2758 2815 
Q 2500 3097 2075 3097 
Q 1594 3097 1305 2825 
Q 1016 2553 972 2059 
L 3022 2063 
z
" transform="scale(0.015625)"/>
       <path id="DejaVuSans-73" d="M 2834 3397 
L 2834 2853 
Q 2591 2978 2328 3040 
Q 2066 3103 1784 3103 
Q 1356 3103 1142 2972 
Q 928 2841 928 2578 
Q 928 2378 1081 2264 
Q 1234 2150 1697 2047 
L 1894 2003 
Q 2506 1872 2764 1633 
Q 3022 1394 3022 966 
Q 3022 478 2636 193 
Q 2250 -91 1575 -91 
Q 1294 -91 989 -36 
Q 684 19 347 128 
L 347 722 
Q 666 556 975 473 
Q 1284 391 1588 391 
Q 1994 391 2212 530 
Q 2431 669 2431 922 
Q 2431 1156 2273 1281 
Q 2116 1406 1581 1522 
L 1381 1569 
Q 847 1681 609 1914 
Q 372 2147 372 2553 
Q 372 3047 722 3315 
Q 1072 3584 1716 3584 
Q 2034 3584 2315 3537 
Q 2597 3491 2834 3397 
z
" transform="scale(0.015625)"/>
       <path id="DejaVuSans-6f" d="M 1959 3097 
Q 1497 3097 1228 2736 
Q 959 2375 959 1747 
Q 959 1119 1226 758 
Q 1494 397 1959 397 
Q 2419 397 2687 759 
Q 2956 1122 2956 1747 
Q 2956 2369 2687 2733 
Q 2419 3097 1959 3097 
z
M 1959 3584 
Q 2709 3584 3137 3096 
Q 3566 2609 3566 1747 
Q 3566 888 3137 398 
Q 2709 -91 1959 -91 
Q 1206 -91 779 398 
Q 353 888 353 1747 
Q 353 2609 779 3096 
Q 1206 3584 1959 3584 
z
" transform="scale(0.015625)"/>
       <path id="DejaVuSans-75" d="M 544 1381 
L 544 3500 
L 1119 3500 
L 1119 1403 
Q 1119 906 1312 657 
Q 1506 409 1894 409 
Q 2359 409 2629 706 
Q 2900 1003 2900 1516 
L 2900 3500 
L 3475 3500 
L 3475 0 
L 2900 0 
L 2900 538 
Q 2691 219 2414 64 
Q 2138 -91 1772 -91 
Q 1169 -91 856 284 
Q 544 659 544 1381 
z
M 1991 3584 
L 1991 3584 
z
" transform="scale(0.015625)"/>
       <path id="DejaVuSans-72" d="M 2631 2963 
Q 2534 3019 2420 3045 
Q 2306 3072 2169 3072 
Q 1681 3072 1420 2755 
Q 1159 2438 1159 1844 
L 1159 0 
L 581 0 
L 581 3500 
L 1159 3500 
L 1159 2956 
Q 1341 3275 1631 3429 
Q 1922 3584 2338 3584 
Q 2397 3584 2469 3576 
Q 2541 3569 2628 3553 
L 2631 2963 
z
" transform="scale(0.015625)"/>
       <path id="DejaVuSans-63" d="M 3122 3366 
L 3122 2828 
Q 2878 2963 2633 3030 
Q 2388 3097 2138 3097 
Q 1578 3097 1268 2742 
Q 959 2388 959 1747 
Q 959 1106 1268 751 
Q 1578 397 2138 397 
Q 2388 397 2633 464 
Q 2878 531 3122 666 
L 3122 134 
Q 2881 22 2623 -34 
Q 2366 -91 2075 -91 
Q 1284 -91 818 406 
Q 353 903 353 1747 
Q 353 2603 823 3093 
Q 1294 3584 2113 3584 
Q 2378 3584 2631 3529 
Q 2884 3475 3122 3366 
z
" transform="scale(0.015625)"/>
      </defs>
      <use xlink:href="#DejaVuSans-52"/>
      <use xlink:href="#DejaVuSans-65" x="64.982422"/>
      <use xlink:href="#DejaVuSans-73" x="126.505859"/>
      <use xlink:href="#DejaVuSans-6f" x="178.605469"/>
      <use xlink:href="#DejaVuSans-75" x="239.787109"/>
      <use xlink:href="#DejaVuSans-72" x="303.166016"/>
      <use xlink:href="#DejaVuSans-63" x="342.029297"/>
      <use xlink:href="#DejaVuSans-65" x="397.009766"/>
      <use xlink:href="#DejaVuSans-73" x="458.533203"/>
     </g>
    </g>
   </g>
   <g id="matplotlib.axis_2">
    <g id="ytick_1">
     <g id="line2d_34">
      <defs>
       <path id="m478c39e71a" d="M 0 0 
L -3.5 0 
" style="stroke: #000000; stroke-width: 0.8"/>
      </defs>
      <g>
       <use xlink:href="#m478c39e71a" x="54" y="231.51893" style="stroke: #000000; stroke-width: 0.8"/>
      </g>
     </g>
     <g id="text_6">
      <!-- $\mathdefault{10^{-4}}$ -->
      <g transform="translate(23.5 235.318149)scale(0.1 -0.1)">
       <defs>
        <path id="DejaVuSans-2212" d="M 678 2272 
L 4684 2272 
L 4684 1741 
L 678 1741 
L 678 2272 
z
" transform="scale(0.015625)"/>
       </defs>
       <use xlink:href="#DejaVuSans-31" transform="translate(0 0.684375)"/>
       <use xlink:href="#DejaVuSans-30" transform="translate(63.623047 0.684375)"/>
       <use xlink:href="#DejaVuSans-2212" transform="translate(128.203125 38.965625)scale(0.7)"/>
       <use xlink:href="#DejaVuSans-34" transform="translate(186.855469 38.965625)scale(0.7)"/>
      </g>
     </g>
    </g>
    <g id="ytick_2">
     <g id="line2d_35">
      <g>
       <use xlink:href="#m478c39e71a" x="54" y="177.701821" style="stroke: #000000; stroke-width: 0.8"/>
      </g>
     </g>
     <g id="text_7">
      <!-- $\mathdefault{10^{-3}}$ -->
      <g transform="translate(23.5 181.50104)scale(0.1 -0.1)">
       <use xlink:href="#DejaVuSans-31" transform="translate(0 0.765625)"/>
       <use xlink:href="#DejaVuSans-30" transform="translate(63.623047 0.765625)"/>
       <use xlink:href="#DejaVuSans-2212" transform="translate(128.203125 39.046875)scale(0.7)"/>
       <use xlink:href="#DejaVuSans-33" transform="translate(186.855469 39.046875)scale(0.7)"/>
      </g>
     </g>
    </g>
    <g id="ytick_3">
     <g id="line2d_36">
      <g>
       <use xlink:href="#m478c39e71a" x="54" y="123.884713" style="stroke: #000000; stroke-width: 0.8"/>
      </g>
     </g>
     <g id="text_8">
      <!-- $\mathdefault{10^{-2}}$ -->
      <g transform="translate(23.5 127.683932)scale(0.1 -0.1)">
       <use xlink:href="#DejaVuSans-31" transform="translate(0 0.765625)"/>
       <use xlink:href="#DejaVuSans-30" transform="translate(63.623047 0.765625)"/>
       <use xlink:href="#DejaVuSans-2212" transform="translate(128.203125 39.046875)scale(0.7)"/>
       <use xlink:href="#DejaVuSans-32" transform="translate(186.855469 39.046875)scale(0.7)"/>
      </g>
     </g>
    </g>
    <g id="ytick_4">
     <g id="line2d_37">
      <g>
       <use xlink:href="#m478c39e71a" x="54" y="70.067604" style="stroke: #000000; stroke-width: 0.8"/>
      </g>
     </g>
     <g id="text_9">
      <!-- $\mathdefault{10^{-1}}$ -->
      <g transform="translate(23.5 73.866823)scale(0.1 -0.1)">
       <use xlink:href="#DejaVuSans-31" transform="translate(0 0.684375)"/>
       <use xlink:href="#DejaVuSans-30" transform="translate(63.623047 0.684375)"/>
       <use xlink:href="#DejaVuSans-2212" transform="translate(128.203125 38.965625)scale(0.7)"/>
       <use xlink:href="#DejaVuSans-31" transform="translate(186.855469 38.965625)scale(0.7)"/>
      </g>
     </g>
    </g>
    <g id="ytick_5">
     <g id="line2d_38">
      <defs>
       <path id="m8f48d1df13" d="M 0 0 
L -2 0 
" style="stroke: #000000; stroke-width: 0.6"/>
      </defs>
      <g>
       <use xlink:href="#m8f48d1df13" x="54" y="247.719494" style="stroke: #000000; stroke-width: 0.6"/>
      </g>
     </g>
    </g>
    <g id="ytick_6">
     <g id="line2d_39">
      <g>
       <use xlink:href="#m8f48d1df13" x="54" y="243.458188" style="stroke: #000000; stroke-width: 0.6"/>
      </g>
     </g>
    </g>
    <g id="ytick_7">
     <g id="line2d_40">
      <g>
       <use xlink:href="#m8f48d1df13" x="54" y="239.855306" style="stroke: #000000; stroke-width: 0.6"/>
      </g>
     </g>
    </g>
    <g id="ytick_8">
     <g id="line2d_41">
      <g>
       <use xlink:href="#m8f48d1df13" x="54" y="236.734347" style="stroke: #000000; stroke-width: 0.6"/>
      </g>
     </g>
    </g>
    <g id="ytick_9">
     <g id="line2d_42">
      <g>
       <use xlink:href="#m8f48d1df13" x="54" y="233.981466" style="stroke: #000000; stroke-width: 0.6"/>
      </g>
     </g>
    </g>
    <g id="ytick_10">
     <g id="line2d_43">
      <g>
       <use xlink:href="#m8f48d1df13" x="54" y="215.318366" style="stroke: #000000; stroke-width: 0.6"/>
      </g>
     </g>
    </g>
    <g id="ytick_11">
     <g id="line2d_44">
      <g>
       <use xlink:href="#m8f48d1df13" x="54" y="205.841644" style="stroke: #000000; stroke-width: 0.6"/>
      </g>
     </g>
    </g>
    <g id="ytick_12">
     <g id="line2d_45">
      <g>
       <use xlink:href="#m8f48d1df13" x="54" y="199.117802" style="stroke: #000000; stroke-width: 0.6"/>
      </g>
     </g>
    </g>
    <g id="ytick_13">
     <g id="line2d_46">
      <g>
       <use xlink:href="#m8f48d1df13" x="54" y="193.902385" style="stroke: #000000; stroke-width: 0.6"/>
      </g>
     </g>
    </g>
    <g id="ytick_14">
     <g id="line2d_47">
      <g>
       <use xlink:href="#m8f48d1df13" x="54" y="189.64108" style="stroke: #000000; stroke-width: 0.6"/>
      </g>
     </g>
    </g>
    <g id="ytick_15">
     <g id="line2d_48">
      <g>
       <use xlink:href="#m8f48d1df13" x="54" y="186.038197" style="stroke: #000000; stroke-width: 0.6"/>
      </g>
     </g>
    </g>
    <g id="ytick_16">
     <g id="line2d_49">
      <g>
       <use xlink:href="#m8f48d1df13" x="54" y="182.917238" style="stroke: #000000; stroke-width: 0.6"/>
      </g>
     </g>
    </g>
    <g id="ytick_17">
     <g id="line2d_50">
      <g>
       <use xlink:href="#m8f48d1df13" x="54" y="180.164357" style="stroke: #000000; stroke-width: 0.6"/>
      </g>
     </g>
    </g>
    <g id="ytick_18">
     <g id="line2d_51">
      <g>
       <use xlink:href="#m8f48d1df13" x="54" y="161.501258" style="stroke: #000000; stroke-width: 0.6"/>
      </g>
     </g>
    </g>
    <g id="ytick_19">
     <g id="line2d_52">
      <g>
       <use xlink:href="#m8f48d1df13" x="54" y="152.024535" style="stroke: #000000; stroke-width: 0.6"/>
      </g>
     </g>
    </g>
    <g id="ytick_20">
     <g id="line2d_53">
      <g>
       <use xlink:href="#m8f48d1df13" x="54" y="145.300694" style="stroke: #000000; stroke-width: 0.6"/>
      </g>
     </g>
    </g>
    <g id="ytick_21">
     <g id="line2d_54">
      <g>
       <use xlink:href="#m8f48d1df13" x="54" y="140.085277" style="stroke: #000000; stroke-width: 0.6"/>
      </g>
     </g>
    </g>
    <g id="ytick_22">
     <g id="line2d_55">
      <g>
       <use xlink:href="#m8f48d1df13" x="54" y="135.823971" style="stroke: #000000; stroke-width: 0.6"/>
      </g>
     </g>
    </g>
    <g id="ytick_23">
     <g id="line2d_56">
      <g>
       <use xlink:href="#m8f48d1df13" x="54" y="132.221089" style="stroke: #000000; stroke-width: 0.6"/>
      </g>
     </g>
    </g>
    <g id="ytick_24">
     <g id="line2d_57">
      <g>
       <use xlink:href="#m8f48d1df13" x="54" y="129.10013" style="stroke: #000000; stroke-width: 0.6"/>
      </g>
     </g>
    </g>
    <g id="ytick_25">
     <g id="line2d_58">
      <g>
       <use xlink:href="#m8f48d1df13" x="54" y="126.347249" style="stroke: #000000; stroke-width: 0.6"/>
      </g>
     </g>
    </g>
    <g id="ytick_26">
     <g id="line2d_59">
      <g>
       <use xlink:href="#m8f48d1df13" x="54" y="107.684149" style="stroke: #000000; stroke-width: 0.6"/>
      </g>
     </g>
    </g>
    <g id="ytick_27">
     <g id="line2d_60">
      <g>
       <use xlink:href="#m8f48d1df13" x="54" y="98.207427" style="stroke: #000000; stroke-width: 0.6"/>
      </g>
     </g>
    </g>
    <g id="ytick_28">
     <g id="line2d_61">
      <g>
       <use xlink:href="#m8f48d1df13" x="54" y="91.483585" style="stroke: #000000; stroke-width: 0.6"/>
      </g>
     </g>
    </g>
    <g id="ytick_29">
     <g id="line2d_62">
      <g>
       <use xlink:href="#m8f48d1df13" x="54" y="86.268168" style="stroke: #000000; stroke-width: 0.6"/>
      </g>
     </g>
    </g>
    <g id="ytick_30">
     <g id="line2d_63">
      <g>
       <use xlink:href="#m8f48d1df13" x="54" y="82.006863" style="stroke: #000000; stroke-width: 0.6"/>
      </g>
     </g>
    </g>
    <g id="ytick_31">
     <g id="line2d_64">
      <g>
       <use xlink:href="#m8f48d1df13" x="54" y="78.40398" style="stroke: #000000; stroke-width: 0.6"/>
      </g>
     </g>
    </g>
    <g id="ytick_32">
     <g id="line2d_65">
      <g>
       <use xlink:href="#m8f48d1df13" x="54" y="75.283021" style="stroke: #000000; stroke-width: 0.6"/>
      </g>
     </g>
    </g>
    <g id="ytick_33">
     <g id="line2d_66">
      <g>
       <use xlink:href="#m8f48d1df13" x="54" y="72.53014" style="stroke: #000000; stroke-width: 0.6"/>
      </g>
     </g>
    </g>
    <g id="ytick_34">
     <g id="line2d_67">
      <g>
       <use xlink:href="#m8f48d1df13" x="54" y="53.86704" style="stroke: #000000; stroke-width: 0.6"/>
      </g>
     </g>
    </g>
    <g id="ytick_35">
     <g id="line2d_68">
      <g>
       <use xlink:href="#m8f48d1df13" x="54" y="44.390318" style="stroke: #000000; stroke-width: 0.6"/>
      </g>
     </g>
    </g>
    <g id="ytick_36">
     <g id="line2d_69">
      <g>
       <use xlink:href="#m8f48d1df13" x="54" y="37.666476" style="stroke: #000000; stroke-width: 0.6"/>
      </g>
     </g>
    </g>
    <g id="text_10">
     <!-- MSE -->
     <g transform="translate(17.420313 153.927656)rotate(-90)scale(0.1 -0.1)">
      <defs>
       <path id="DejaVuSans-4d" d="M 628 4666 
L 1569 4666 
L 2759 1491 
L 3956 4666 
L 4897 4666 
L 4897 0 
L 4281 0 
L 4281 4097 
L 3078 897 
L 2444 897 
L 1241 4097 
L 1241 0 
L 628 0 
L 628 4666 
z
" transform="scale(0.015625)"/>
       <path id="DejaVuSans-53" d="M 3425 4513 
L 3425 3897 
Q 3066 4069 2747 4153 
Q 2428 4238 2131 4238 
Q 1616 4238 1336 4038 
Q 1056 3838 1056 3469 
Q 1056 3159 1242 3001 
Q 1428 2844 1947 2747 
L 2328 2669 
Q 3034 2534 3370 2195 
Q 3706 1856 3706 1288 
Q 3706 609 3251 259 
Q 2797 -91 1919 -91 
Q 1588 -91 1214 -16 
Q 841 59 441 206 
L 441 856 
Q 825 641 1194 531 
Q 1563 422 1919 422 
Q 2459 422 2753 634 
Q 3047 847 3047 1241 
Q 3047 1584 2836 1778 
Q 2625 1972 2144 2069 
L 1759 2144 
Q 1053 2284 737 2584 
Q 422 2884 422 3419 
Q 422 4038 858 4394 
Q 1294 4750 2059 4750 
Q 2388 4750 2728 4690 
Q 3069 4631 3425 4513 
z
" transform="scale(0.015625)"/>
       <path id="DejaVuSans-45" d="M 628 4666 
L 3578 4666 
L 3578 4134 
L 1259 4134 
L 1259 2753 
L 3481 2753 
L 3481 2222 
L 1259 2222 
L 1259 531 
L 3634 531 
L 3634 0 
L 628 0 
L 628 4666 
z
" transform="scale(0.015625)"/>
      </defs>
      <use xlink:href="#DejaVuSans-4d"/>
      <use xlink:href="#DejaVuSans-53" x="86.279297"/>
      <use xlink:href="#DejaVuSans-45" x="149.755859"/>
     </g>
    </g>
   </g>
   <g id="line2d_70">
    <path d="M 69.218182 56.527469 
L 72.56614 56.607305 
L 75.645963 57.200474 
L 78.497434 57.276161 
L 81.15209 57.728429 
L 83.635354 57.700112 
L 88.167321 57.993835 
L 90.247679 57.858008 
L 92.221304 58.590577 
L 94.098615 58.699722 
L 95.888578 58.424672 
L 97.598959 59.036353 
L 99.236536 58.566438 
L 102.316359 59.408943 
L 103.768503 59.196162 
L 105.16783 59.69318 
L 107.822486 59.964559 
L 109.084148 60.591092 
L 110.30575 60.048197 
L 111.489759 62.019787 
L 112.638419 60.406487 
L 113.753779 61.504205 
L 114.837717 61.156486 
L 115.891954 61.749354 
L 116.918075 61.714063 
L 117.91754 62.128411 
L 118.8917 62.372832 
L 119.841804 63.36773 
L 120.769011 63.425802 
L 121.6744 63.795466 
L 122.558973 64.350961 
L 124.269355 64.048514 
L 125.096854 65.907494 
L 125.906932 65.359827 
L 126.700305 65.830111 
L 127.47765 66.562474 
L 128.2396 66.983647 
L 128.986755 67.04556 
L 129.719677 67.727774 
L 130.438899 68.625267 
L 131.144923 68.957587 
L 131.838225 69.828078 
L 132.519256 71.121895 
L 133.188443 70.199173 
L 133.84619 72.207412 
L 134.492881 68.959424 
L 135.128883 72.888858 
L 135.754543 71.070264 
L 136.370192 73.058681 
L 136.976146 72.609763 
L 137.572704 73.58043 
L 138.160155 73.109679 
L 138.738771 74.654244 
L 139.308814 75.057714 
L 139.870536 75.261804 
L 140.424175 74.951434 
L 140.969961 74.837689 
L 141.508113 76.710072 
L 142.038842 76.558789 
L 142.56235 75.507819 
L 143.588471 78.38611 
L 144.587936 76.853193 
L 145.078099 77.416073 
L 145.562096 78.41728 
L 146.04008 78.579271 
L 146.512199 79.962231 
L 146.978596 79.105861 
L 147.439407 81.75138 
L 147.894764 78.891264 
L 148.344796 83.981515 
L 148.789624 81.101156 
L 149.229369 82.929087 
L 149.664145 82.627746 
L 150.094063 83.35711 
L 150.51923 82.392832 
L 150.93975 83.870464 
L 151.355725 84.3645 
L 151.76725 85.075746 
L 152.17442 85.294267 
L 152.577327 84.192561 
L 152.976059 84.513216 
L 153.370701 83.828636 
L 153.761336 84.990851 
L 162.733995 92.105221 
L 175.68052 106.718265 
L 185.350408 109.167873 
L 193.071664 115.528263 
L 199.499445 117.835001 
L 205.005572 120.420188 
L 209.821505 123.798974 
L 214.101162 126.658747 
L 217.952098 128.725971 
L 221.452441 131.314986 
L 224.660736 132.39995 
L 227.621985 132.807036 
L 230.371529 137.973528 
L 232.93763 137.909371 
L 235.343241 137.650277 
L 237.607262 141.952475 
L 239.745437 137.90279 
L 243.695286 143.637485 
L 245.527882 144.280564 
L 247.277149 146.066316 
L 248.950336 143.773537 
L 250.553787 145.001858 
L 252.093082 146.622018 
L 253.573159 149.282176 
L 254.998405 149.004041 
L 256.372739 149.621541 
L 257.699672 152.218477 
L 258.982365 149.982794 
L 260.223675 151.304344 
L 261.426186 153.079225 
L 262.592253 152.734146 
L 263.724018 155.095893 
L 264.823443 154.41991 
L 265.892324 154.99421 
L 266.932313 156.887132 
L 267.944931 154.365401 
L 268.931581 155.663768 
L 269.893562 160.842969 
L 270.832078 160.779008 
L 271.748246 157.122704 
L 272.643106 159.357889 
L 273.517627 158.788008 
L 274.372712 158.843057 
L 275.209207 159.526975 
L 276.027903 160.516462 
L 276.829541 159.760432 
L 277.614818 162.20332 
L 278.384389 165.265622 
L 279.138869 162.747581 
L 279.878839 164.647334 
L 280.604846 165.121343 
L 281.317408 165.002928 
L 282.017014 168.86616 
L 282.704126 164.972492 
L 283.379182 164.337064 
L 284.0426 163.350653 
L 284.694772 164.651255 
L 285.336074 166.696958 
L 285.966863 164.945967 
L 286.587477 169.592477 
L 287.19824 166.113981 
L 287.799459 170.349822 
L 288.391428 167.16465 
L 288.974428 167.47121 
L 289.548726 168.611015 
L 290.114578 170.029666 
L 290.672229 170.242629 
L 291.221914 171.417848 
L 291.763856 171.601593 
L 292.29827 172.441544 
L 292.825364 175.34846 
L 293.345335 173.174286 
L 293.858373 177.263586 
L 294.364659 174.900695 
L 294.864371 175.894974 
L 295.357676 174.281221 
L 295.844736 173.526681 
L 296.325708 178.347919 
L 296.800742 178.087235 
L 297.269982 173.279278 
L 297.733569 178.998307 
L 298.191637 176.961683 
L 298.644316 181.074788 
L 299.091731 177.084374 
L 299.534003 177.48097 
L 299.971249 178.52868 
L 300.403582 176.029155 
L 300.831111 178.258511 
L 301.253943 177.680387 
L 301.672178 176.434799 
L 302.085915 178.818928 
L 302.495252 179.835635 
L 302.900279 179.066872 
L 303.301087 181.328522 
L 303.697764 178.899349 
L 304.090392 182.352906 
L 304.479054 181.472506 
L 304.86383 182.180233 
L 305.244796 184.286686 
L 305.622027 183.648445 
L 305.995595 184.565918 
L 306.365572 184.218088 
L 306.732024 184.535655 
L 307.09502 185.109819 
L 307.454623 184.723112 
L 307.810896 185.201144 
L 308.163901 184.573349 
L 308.513697 185.729617 
L 308.860341 186.118472 
L 309.20389 186.044309 
L 309.544399 185.843753 
L 309.881921 184.936765 
L 310.216508 184.42147 
L 310.54821 183.526387 
L 310.877078 185.991983 
L 311.203158 184.984431 
L 311.526498 184.830797 
L 311.847144 183.235102 
L 312.165139 183.829846 
L 312.480528 185.595964 
L 312.793353 181.047819 
L 313.103655 185.147271 
L 313.411475 185.64698 
L 313.716851 190.26352 
L 314.019823 183.093666 
L 314.320428 188.920049 
L 314.618703 186.124287 
L 315.208404 187.835457 
L 315.4999 187.825201 
L 315.789204 190.11565 
L 316.076349 191.298425 
L 316.361367 189.411938 
L 316.644289 189.445719 
L 316.925146 189.786102 
L 317.203968 189.509886 
L 317.480784 188.476816 
L 317.755623 188.621783 
L 318.028512 188.550424 
L 318.29948 188.912297 
L 318.568552 187.374867 
L 318.835757 190.7406 
L 319.101118 187.783151 
L 319.626413 191.217336 
L 319.886395 192.07784 
L 320.144633 190.742669 
L 320.401149 190.829597 
L 320.655966 191.286879 
L 320.909107 193.171331 
L 321.160593 193.446145 
L 321.410446 194.275492 
L 321.658687 192.262697 
L 321.905337 195.631623 
L 322.150416 194.476402 
L 322.393943 192.507453 
L 322.635939 192.304659 
L 322.876423 194.062973 
L 323.115413 194.914288 
L 323.352928 196.786396 
L 323.588985 194.622147 
L 323.823603 195.826749 
L 324.056799 194.208911 
L 324.288591 199.764461 
L 324.518994 194.180852 
L 324.748026 194.606917 
L 324.975703 198.123782 
L 325.20204 195.526204 
L 325.427054 196.938747 
L 325.650759 196.221733 
L 325.873172 197.13379 
L 326.094306 199.619666 
L 326.314177 196.942507 
L 326.532798 197.4047 
L 326.750184 198.973404 
L 326.966349 199.350564 
L 327.181306 198.306122 
L 327.395069 202.55086 
L 327.607651 198.674917 
L 327.819065 201.000475 
L 328.029324 199.347232 
L 328.23844 198.782989 
L 328.446426 200.327785 
L 329.063721 196.969203 
L 329.267305 199.633809 
L 329.469817 197.70436 
L 329.671269 201.83443 
L 329.871672 196.498508 
L 330.071036 201.375664 
L 330.269373 200.057776 
L 330.858322 202.27451 
L 331.052652 200.443167 
L 331.246005 201.446369 
L 331.438392 205.399634 
L 331.629821 203.052175 
L 331.820303 202.644295 
L 332.009847 204.205814 
L 332.198461 202.890458 
L 332.386155 204.279833 
L 332.572938 201.054047 
L 332.758819 201.782599 
L 332.943806 203.013065 
L 333.127908 201.800685 
L 333.311134 205.891947 
L 333.493491 204.32783 
L 333.674987 201.388293 
L 334.035433 204.929092 
L 334.214397 203.801628 
L 334.392533 204.338897 
L 334.569847 206.593148 
L 334.746349 202.682052 
L 334.922044 205.299331 
L 335.096941 201.628381 
L 335.616912 206.064034 
L 335.788686 207.002891 
L 335.959696 205.180129 
L 336.12995 205.575041 
L 336.299453 206.736325 
L 336.468213 203.599752 
L 336.803529 209.208061 
L 336.970098 207.813154 
L 337.301087 209.47459 
L 337.46552 205.854468 
L 337.792292 208.347877 
L 337.954644 206.259804 
L 338.116313 205.658427 
L 338.756282 208.283692 
L 338.914625 206.85762 
L 339.072319 210.217567 
L 339.229369 206.691927 
L 339.385781 208.79752 
L 339.69671 209.470231 
L 339.851237 208.034857 
L 340.005146 209.365835 
L 340.158442 208.781313 
L 340.31113 209.374104 
L 340.463214 208.276879 
L 340.614699 210.037541 
L 340.765591 206.817821 
L 340.915893 207.104674 
L 341.06561 209.617567 
L 341.214747 208.136221 
L 341.511297 211.252953 
L 341.65872 206.494482 
L 341.80558 209.452395 
L 341.951881 210.113118 
L 342.242826 208.680259 
L 342.387477 210.13475 
L 342.531587 206.941943 
L 342.675159 207.552812 
L 342.818197 211.838852 
L 342.960706 206.415767 
L 343.102688 209.547699 
L 343.244149 206.566468 
L 343.52552 209.81227 
L 343.665437 206.753257 
L 343.943755 211.329556 
L 344.082162 208.904608 
L 344.357493 211.552118 
L 344.494422 211.188318 
L 344.630867 211.903045 
L 344.766829 209.594866 
L 344.902312 211.208366 
L 345.03732 209.614523 
L 345.171856 210.364876 
L 345.305923 210.008836 
L 345.572664 213.891895 
L 345.705345 211.549304 
L 345.837569 211.550059 
L 345.969341 209.387092 
L 346.100662 211.012886 
L 346.361969 210.250094 
L 346.49196 212.653532 
L 346.621513 208.938122 
L 346.750631 211.221435 
L 346.879318 210.903671 
L 347.007576 211.411556 
L 347.135407 211.413803 
L 347.516373 212.863139 
L 347.642528 212.039409 
L 347.768271 214.482679 
L 347.893604 213.466719 
L 348.01853 213.388505 
L 348.143052 216.349192 
L 348.267172 212.309876 
L 348.390894 213.376435 
L 348.514218 210.913185 
L 348.637149 211.154377 
L 348.759688 212.375646 
L 348.881838 214.776514 
L 349.003602 210.929913 
L 349.124981 211.567731 
L 349.245979 216.335448 
L 349.606706 210.904975 
L 349.7262 215.47426 
L 349.845325 213.5018 
L 349.964082 216.743285 
L 350.082474 213.732265 
L 350.200502 215.9866 
L 350.31817 214.07824 
L 350.552431 216.061904 
L 350.669028 214.599686 
L 350.785274 215.527102 
L 350.901169 215.430212 
L 351.131918 214.379485 
L 351.246776 215.080452 
L 351.361291 214.651429 
L 351.475467 215.614596 
L 351.589305 212.104051 
L 351.702808 218.679645 
L 351.815976 218.442056 
L 351.928813 214.301712 
L 352.376879 218.970508 
L 352.488085 213.464976 
L 352.59897 218.874966 
L 352.819787 214.109868 
L 352.929722 217.535663 
L 353.148655 215.614693 
L 353.366348 214.507509 
L 353.582817 217.581781 
L 353.690597 213.718817 
L 353.798075 218.851192 
L 353.905254 218.462182 
L 354.118721 215.668692 
L 354.225011 216.858613 
L 354.331009 214.877368 
L 354.542133 218.4199 
L 354.647263 218.116968 
L 354.752105 217.109072 
L 354.960938 218.946302 
L 355.06493 218.487039 
L 355.168643 216.841995 
L 355.375232 221.579896 
L 355.478113 218.019225 
L 355.580719 218.847671 
L 355.683052 218.61847 
L 355.785114 216.87301 
L 355.886905 220.33161 
L 355.988428 218.741478 
L 356.089684 219.73835 
L 356.190675 215.174036 
L 356.592006 219.742084 
L 356.691688 215.156327 
L 356.791112 220.025222 
L 356.89028 219.403579 
L 356.989194 215.59166 
L 357.186261 218.24625 
L 357.284417 222.012698 
L 357.382323 216.981995 
L 357.479981 219.710175 
L 357.577392 218.721512 
L 357.771477 219.377208 
L 357.868154 219.092868 
L 358.060781 221.341174 
L 358.156734 220.867705 
L 358.252449 221.484188 
L 358.347926 219.503465 
L 358.443167 222.065761 
L 358.538172 219.853178 
L 358.727483 222.067598 
L 358.82179 220.496834 
L 358.915866 223.547579 
L 359.196723 220.900656 
L 359.289889 221.778579 
L 359.382829 220.784746 
L 359.475545 222.818 
L 359.66031 220.86437 
L 359.752361 222.670505 
L 359.844192 221.600867 
L 359.935805 224.136882 
L 360.0272 222.120768 
L 360.118378 224.849377 
L 360.209341 223.990882 
L 360.300089 221.965385 
L 360.390624 222.906406 
L 360.480946 220.797179 
L 360.571057 222.721292 
L 360.660957 222.626892 
L 360.84013 223.077657 
L 360.929404 222.779212 
L 361.018472 219.973435 
L 361.195991 221.719475 
L 361.284445 219.43896 
L 361.372695 222.044685 
L 361.460744 221.091079 
L 361.548591 223.23679 
L 361.723687 221.238557 
L 361.89799 223.407073 
L 361.984846 222.545414 
L 362.071507 224.017851 
L 362.157972 221.025362 
L 362.244244 223.682762 
L 362.330323 221.476153 
L 362.41621 224.509426 
L 362.672726 220.906871 
L 362.927543 224.877871 
L 363.012108 221.963656 
L 363.180684 223.52801 
L 363.264695 222.821501 
L 363.348524 223.757053 
L 363.515635 222.431829 
L 363.682023 225.894254 
L 363.847695 222.052005 
L 364.094873 226.75696 
L 364.176914 221.21034 
L 364.25878 226.49794 
L 364.340473 224.21705 
L 364.584516 228.117899 
L 364.665521 226.875156 
L 364.746355 227.227789 
L 364.82702 229.105961 
L 364.907517 223.479689 
L 364.987845 227.522246 
L 365.068006 227.35449 
L 365.227828 224.902707 
L 365.307492 227.458718 
L 365.466325 224.739025 
L 365.703352 227.438733 
L 365.782037 228.907212 
L 365.938927 227.114633 
L 366.017133 230.262844 
L 366.173069 224.883649 
L 366.328376 226.2992 
L 366.405795 223.967655 
L 366.637122 229.83817 
L 366.867067 225.390345 
L 367.019603 227.863911 
L 367.171537 224.330294 
L 367.24728 225.32444 
L 367.398319 228.261186 
L 367.548768 225.342713 
L 367.623772 228.185663 
L 367.847912 226.041396 
L 368.070754 228.631822 
L 368.144749 227.414999 
L 368.218602 230.587269 
L 368.439313 227.47956 
L 368.585754 232.649006 
L 368.876974 227.006562 
L 369.093951 230.850821 
L 369.166006 228.575694 
L 369.237926 232.851662 
L 369.309712 231.21294 
L 369.381364 232.434777 
L 369.52427 230.314191 
L 369.595524 233.262197 
L 369.737638 229.775612 
L 369.808498 231.751682 
L 369.949829 229.694674 
L 370.0203 229.704293 
L 370.090642 233.232216 
L 370.160856 229.193416 
L 370.230942 231.24368 
L 370.300901 230.158188 
L 370.370733 232.50488 
L 370.440438 226.611557 
L 370.510017 227.469256 
L 370.579471 231.834067 
L 370.648799 230.691311 
L 370.718003 230.926817 
L 370.787082 230.577146 
L 370.856038 231.388593 
L 370.92487 231.094007 
L 370.993579 228.853073 
L 371.198975 232.707789 
L 371.335298 228.915193 
L 371.47114 234.237757 
L 371.538882 231.484958 
L 371.606504 234.971143 
L 371.674008 231.79873 
L 371.741394 232.472614 
L 371.942846 228.22989 
L 372.009763 234.729078 
L 372.076564 231.661999 
L 372.143249 232.503947 
L 372.342613 230.409966 
L 372.474951 236.626199 
L 372.54095 232.033575 
L 372.606836 232.208132 
L 372.672609 232.45811 
L 372.803819 227.358505 
L 372.999798 233.25266 
L 373.064904 231.915075 
L 373.194785 234.665725 
L 373.259561 233.762787 
L 373.324229 231.813457 
L 373.453239 234.6084 
L 373.517582 232.107832 
L 373.581818 232.507305 
" clip-path="url(#p3b16d2e3c3)" style="fill: none; stroke: #0000ff; stroke-width: 1.5; stroke-linecap: square"/>
   </g>
   <g id="line2d_71">
    <path d="M 69.218182 44.443636 
L 373.581818 229.325129 
L 373.581818 229.325129 
" clip-path="url(#p3b16d2e3c3)" style="fill: none; stroke: #000000; stroke-width: 1.5; stroke-linecap: square"/>
   </g>
   <g id="patch_3">
    <path d="M 54 252 
L 54 34.56 
" style="fill: none; stroke: #000000; stroke-width: 0.8; stroke-linejoin: miter; stroke-linecap: square"/>
   </g>
   <g id="patch_4">
    <path d="M 388.8 252 
L 388.8 34.56 
" style="fill: none; stroke: #000000; stroke-width: 0.8; stroke-linejoin: miter; stroke-linecap: square"/>
   </g>
   <g id="patch_5">
    <path d="M 54 252 
L 388.8 252 
" style="fill: none; stroke: #000000; stroke-width: 0.8; stroke-linejoin: miter; stroke-linecap: square"/>
   </g>
   <g id="patch_6">
    <path d="M 54 34.56 
L 388.8 34.56 
" style="fill: none; stroke: #000000; stroke-width: 0.8; stroke-linejoin: miter; stroke-linecap: square"/>
   </g>
  </g>
 </g>
 <defs>
  <clipPath id="p3b16d2e3c3">
   <rect x="54" y="34.56" width="334.8" height="217.44"/>
  </clipPath>
 </defs>
</svg>
