<?xml version="1.0" encoding="utf-8" standalone="no"?>
<!DOCTYPE svg PUBLIC "-//W3C//DTD SVG 1.1//EN"
  "http://www.w3.org/Graphics/SVG/1.1/DTD/svg11.dtd">
<svg xmlns:xlink="http://www.w3.org/1999/xlink" width="432pt" height="288pt" viewBox="0 0 432 288" xmlns="http://www.w3.org/2000/svg" version="1.1">
 <metadata>
  <rdf:RDF xmlns:dc="http://purl.org/dc/elements/1.1/" xmlns:cc="http://creativecommons.org/ns#" xmlns:rdf="http://www.w3.org/1999/02/22-rdf-syntax-ns#">
   <cc:Work>
    <dc:type rdf:resource="http://purl.org/dc/dcmitype/StillImage"/>
    <dc:date>2022-01-10T00:38:52.135933</dc:date>
    <dc:format>image/svg+xml</dc:format>
    <dc:creator>
     <cc:Agent>
      <dc:title>Matplotlib v3.5.1, https://matplotlib.org/</dc:title>
     </cc:Agent>
    </dc:creator>
   </cc:Work>
  </rdf:RDF>
 </metadata>
 <defs>
  <style type="text/css">*{stroke-linejoin: round; stroke-linecap: butt}</style>
 </defs>
 <g id="figure_1">
  <g id="patch_1">
   <path d="M 0 288 
L 432 288 
L 432 0 
L 0 0 
L 0 288 
z
" style="fill: none"/>
  </g>
  <g id="axes_1">
   <g id="patch_2">
    <path d="M 54 252 
L 388.8 252 
L 388.8 34.56 
L 54 34.56 
z
" style="fill: #ffffff"/>
   </g>
   <g id="PolyCollection_1">
    <defs>
     <path id="m29eed4a41b" d="M 69.218182 -243.556364 
L 69.218182 -242.457787 
L 72.56614 -242.327961 
L 75.645963 -242.139594 
L 78.497434 -241.318275 
L 81.15209 -240.939143 
L 83.635354 -240.170914 
L 85.968023 -239.689549 
L 88.167321 -239.268979 
L 90.247679 -238.6586 
L 92.221304 -238.29247 
L 94.098615 -237.60414 
L 95.888578 -237.441373 
L 97.598959 -236.900828 
L 99.236536 -236.931067 
L 100.807254 -236.468928 
L 102.316359 -236.298536 
L 103.768503 -235.134544 
L 105.16783 -235.928781 
L 106.518047 -236.032748 
L 107.822486 -235.148588 
L 109.084148 -235.253066 
L 110.30575 -234.232586 
L 111.489759 -234.660389 
L 112.638419 -234.137233 
L 113.753779 -234.288716 
L 114.837717 -232.825208 
L 115.891954 -233.198462 
L 116.918075 -232.995046 
L 117.91754 -233.32672 
L 118.8917 -232.738066 
L 119.841804 -232.773427 
L 120.769011 -232.306076 
L 121.6744 -230.855042 
L 122.558973 -231.851415 
L 123.423667 -230.288751 
L 124.269355 -231.52626 
L 125.096854 -230.951358 
L 125.906932 -230.517768 
L 126.700305 -229.44663 
L 127.47765 -230.246372 
L 128.2396 -229.99565 
L 128.986755 -229.606832 
L 129.719677 -229.559975 
L 130.438899 -229.365385 
L 131.144923 -229.478585 
L 131.838225 -229.100516 
L 132.519256 -229.483661 
L 133.188443 -229.123038 
L 133.84619 -228.764321 
L 134.492881 -229.430924 
L 135.128883 -228.543023 
L 135.754543 -228.140783 
L 136.370192 -228.078639 
L 136.976146 -227.695179 
L 137.572704 -229.254161 
L 138.160155 -228.148469 
L 138.738771 -227.947199 
L 139.308814 -229.038776 
L 139.870536 -228.458698 
L 140.424175 -228.33992 
L 140.969961 -227.859233 
L 141.508113 -227.65473 
L 142.038842 -227.357967 
L 142.56235 -227.46945 
L 143.078831 -228.18773 
L 143.588471 -227.871675 
L 144.091448 -227.816998 
L 144.587936 -227.552044 
L 145.078099 -227.449789 
L 145.562096 -227.909786 
L 146.04008 -228.268914 
L 146.512199 -227.782982 
L 146.978596 -227.863417 
L 147.439407 -227.619904 
L 147.894764 -227.787711 
L 148.344796 -228.177398 
L 148.789624 -226.204544 
L 149.229369 -228.029339 
L 149.664145 -227.272813 
L 150.094063 -227.148309 
L 150.51923 -227.042686 
L 150.93975 -227.587614 
L 151.355725 -226.518179 
L 151.76725 -226.727029 
L 152.17442 -227.499837 
L 152.577327 -227.074657 
L 152.976059 -228.207722 
L 153.370701 -227.254278 
L 153.761336 -226.677325 
L 162.733995 -224.486678 
L 175.68052 -221.03346 
L 185.350408 -216.872962 
L 193.071664 -216.561134 
L 199.499445 -213.664295 
L 205.005572 -213.110397 
L 209.821505 -212.104115 
L 214.101162 -210.88094 
L 217.952098 -208.507485 
L 221.452441 -209.000704 
L 224.660736 -206.889354 
L 227.621985 -207.752193 
L 230.371529 -205.390506 
L 232.93763 -203.31888 
L 235.343241 -203.038449 
L 237.607262 -203.999625 
L 239.745437 -201.217019 
L 241.771022 -202.634874 
L 243.695286 -201.919092 
L 245.527882 -200.568569 
L 247.277149 -198.895169 
L 248.950336 -199.246536 
L 250.553787 -198.778419 
L 252.093082 -198.363325 
L 253.573159 -197.143516 
L 254.998405 -196.749633 
L 256.372739 -198.248285 
L 257.699672 -197.985382 
L 258.982365 -195.4417 
L 260.223675 -195.116813 
L 261.426186 -195.930015 
L 262.592253 -193.798599 
L 263.724018 -195.768834 
L 264.823443 -195.16722 
L 265.892324 -193.773891 
L 266.932313 -191.471483 
L 267.944931 -192.500487 
L 268.931581 -194.54678 
L 269.893562 -193.124038 
L 270.832078 -191.73819 
L 271.748246 -195.592842 
L 272.643106 -192.380168 
L 273.517627 -193.052856 
L 274.372712 -192.026727 
L 275.209207 -191.507018 
L 276.027903 -194.963044 
L 276.829541 -192.82829 
L 277.614818 -188.486856 
L 278.384389 -193.652471 
L 279.138869 -192.035815 
L 279.878839 -190.402052 
L 280.604846 -189.934071 
L 281.317408 -191.987033 
L 282.017014 -191.902467 
L 282.704126 -192.292132 
L 283.379182 -189.155217 
L 284.0426 -188.047363 
L 284.694772 -189.753008 
L 285.336074 -189.306805 
L 285.966863 -189.117388 
L 286.587477 -190.193552 
L 287.19824 -188.200643 
L 287.799459 -188.414709 
L 288.391428 -186.100289 
L 288.974428 -188.754793 
L 289.548726 -188.875262 
L 290.114578 -188.846107 
L 290.672229 -188.580122 
L 291.221914 -188.90584 
L 291.763856 -188.989818 
L 292.29827 -188.249409 
L 292.825364 -187.643085 
L 293.345335 -187.207692 
L 293.858373 -190.000938 
L 294.364659 -185.801623 
L 294.864371 -187.333379 
L 295.357676 -185.639342 
L 295.844736 -186.216499 
L 296.325708 -187.13394 
L 296.800742 -186.617507 
L 297.269982 -187.78386 
L 297.733569 -186.000906 
L 298.191637 -186.296696 
L 298.644316 -185.506188 
L 299.091731 -185.728837 
L 299.534003 -185.063936 
L 299.971249 -186.360874 
L 300.403582 -188.087392 
L 300.831111 -184.315883 
L 301.253943 -185.010886 
L 301.672178 -184.636122 
L 302.085915 -184.780428 
L 302.495252 -184.743026 
L 302.900279 -185.941524 
L 303.301087 -185.352186 
L 303.697764 -185.009781 
L 304.090392 -185.254874 
L 304.479054 -182.806622 
L 304.86383 -183.305789 
L 305.244796 -181.95907 
L 305.622027 -183.544631 
L 305.995595 -182.579845 
L 306.365572 -182.565384 
L 306.732024 -183.791772 
L 307.09502 -180.792632 
L 307.454623 -183.366455 
L 307.810896 -183.419419 
L 308.163901 -183.003729 
L 308.513697 -181.883247 
L 308.860341 -182.102065 
L 309.20389 -182.289365 
L 309.544399 -181.530526 
L 309.881921 -181.546947 
L 310.216508 -180.677362 
L 310.54821 -181.75737 
L 310.877078 -178.745679 
L 311.203158 -179.406544 
L 311.526498 -181.5754 
L 311.847144 -182.855724 
L 312.165139 -179.524183 
L 312.480528 -183.224797 
L 312.793353 -181.37469 
L 313.103655 -179.088655 
L 313.411475 -180.489985 
L 313.716851 -181.497085 
L 314.019823 -181.548891 
L 314.320428 -180.237256 
L 314.618703 -179.89428 
L 314.914683 -178.558479 
L 315.208404 -180.430418 
L 315.4999 -179.436963 
L 315.789204 -178.492332 
L 316.076349 -178.202843 
L 316.361367 -179.550653 
L 316.644289 -178.749342 
L 316.925146 -179.167936 
L 317.203968 -177.931769 
L 317.480784 -179.485975 
L 317.755623 -177.615132 
L 318.028512 -178.057539 
L 318.29948 -180.238471 
L 318.568552 -179.884489 
L 318.835757 -177.700777 
L 319.101118 -178.168618 
L 319.364662 -179.485172 
L 319.626413 -178.411469 
L 319.886395 -177.248281 
L 320.144633 -178.829263 
L 320.401149 -176.816485 
L 320.655966 -177.075311 
L 320.909107 -178.474209 
L 321.160593 -178.206066 
L 321.410446 -176.366629 
L 321.658687 -178.423108 
L 321.905337 -178.023076 
L 322.150416 -178.851568 
L 322.393943 -177.672756 
L 322.635939 -177.236314 
L 322.876423 -175.729473 
L 323.115413 -177.716117 
L 323.352928 -178.578951 
L 323.588985 -178.952995 
L 323.823603 -175.910357 
L 324.056799 -177.570654 
L 324.288591 -177.520264 
L 324.518994 -177.035501 
L 324.748026 -177.380168 
L 324.975703 -176.275008 
L 325.20204 -175.993661 
L 325.427054 -176.000809 
L 325.650759 -176.151733 
L 325.873172 -177.377287 
L 326.094306 -174.854008 
L 326.314177 -173.924594 
L 326.532798 -175.947887 
L 326.750184 -175.110376 
L 326.966349 -175.429264 
L 327.181306 -176.540816 
L 327.395069 -176.379251 
L 327.607651 -176.09934 
L 327.819065 -175.506354 
L 328.029324 -174.651525 
L 328.23844 -172.701697 
L 328.446426 -175.859612 
L 328.653293 -176.182692 
L 328.859054 -175.007562 
L 329.063721 -176.073244 
L 329.267305 -175.963958 
L 329.469817 -174.479313 
L 329.671269 -173.036395 
L 329.871672 -175.411826 
L 330.071036 -173.869093 
L 330.269373 -174.863228 
L 330.466693 -174.100749 
L 330.663006 -174.877582 
L 330.858322 -175.768766 
L 331.052652 -173.579689 
L 331.246005 -175.260282 
L 331.438392 -173.817994 
L 331.629821 -172.6071 
L 331.820303 -174.379893 
L 332.009847 -174.34186 
L 332.198461 -174.696781 
L 332.386155 -175.09122 
L 332.572938 -174.522879 
L 332.758819 -174.059593 
L 332.943806 -171.58137 
L 333.127908 -175.559753 
L 333.311134 -174.37862 
L 333.493491 -176.470925 
L 333.674987 -174.060919 
L 333.855632 -175.149249 
L 334.035433 -174.659857 
L 334.214397 -173.746685 
L 334.392533 -174.055259 
L 334.569847 -174.365321 
L 334.746349 -172.536472 
L 334.922044 -173.366151 
L 335.096941 -172.14773 
L 335.271047 -173.12584 
L 335.444368 -170.730413 
L 335.616912 -173.706918 
L 335.788686 -174.762554 
L 335.959696 -172.963336 
L 336.12995 -172.686868 
L 336.299453 -172.321201 
L 336.468213 -173.290621 
L 336.636236 -171.241845 
L 336.803529 -170.062918 
L 336.970098 -172.737242 
L 337.135948 -171.478125 
L 337.301087 -170.436459 
L 337.46552 -172.079598 
L 337.629253 -171.024495 
L 337.792292 -170.583835 
L 337.954644 -172.37872 
L 338.116313 -172.142194 
L 338.277306 -173.17317 
L 338.437628 -171.268384 
L 338.597285 -174.506776 
L 338.756282 -171.583296 
L 338.914625 -172.565338 
L 339.072319 -174.533306 
L 339.229369 -170.840597 
L 339.385781 -171.748261 
L 339.541559 -174.080956 
L 339.69671 -173.384982 
L 339.851237 -172.334903 
L 340.005146 -173.828208 
L 340.158442 -170.954745 
L 340.31113 -172.423982 
L 340.463214 -171.939458 
L 340.614699 -172.84193 
L 340.765591 -173.280334 
L 340.915893 -174.527345 
L 341.06561 -172.827604 
L 341.214747 -170.80094 
L 341.363308 -174.856678 
L 341.511297 -173.991435 
L 341.65872 -170.855596 
L 341.80558 -171.278696 
L 341.951881 -170.434222 
L 342.097629 -170.454199 
L 342.242826 -172.366914 
L 342.387477 -170.10843 
L 342.531587 -174.019492 
L 342.675159 -169.86691 
L 342.818197 -172.783641 
L 342.960706 -169.037099 
L 343.102688 -171.900774 
L 343.244149 -171.643291 
L 343.385092 -172.220908 
L 343.52552 -170.606309 
L 343.665437 -170.474198 
L 343.804847 -171.023473 
L 343.943755 -170.566144 
L 344.082162 -169.307088 
L 344.220074 -170.552863 
L 344.357493 -166.624043 
L 344.494422 -171.737883 
L 344.630867 -168.911379 
L 344.766829 -171.669592 
L 344.902312 -168.677734 
L 345.03732 -170.727248 
L 345.171856 -171.940449 
L 345.305923 -171.301094 
L 345.439525 -171.079141 
L 345.572664 -167.174055 
L 345.705345 -172.376966 
L 345.837569 -171.321483 
L 345.969341 -171.465377 
L 346.100662 -170.745196 
L 346.231538 -171.076935 
L 346.361969 -172.913701 
L 346.49196 -171.089675 
L 346.621513 -170.873513 
L 346.750631 -170.611903 
L 346.879318 -169.589424 
L 347.007576 -170.369514 
L 347.135407 -169.574791 
L 347.262815 -171.354279 
L 347.389803 -169.119347 
L 347.516373 -170.112731 
L 347.642528 -169.079737 
L 347.768271 -171.394132 
L 347.893604 -170.786018 
L 348.01853 -168.559903 
L 348.143052 -170.344975 
L 348.267172 -168.923357 
L 348.390894 -169.169106 
L 348.514218 -168.702791 
L 348.637149 -169.454169 
L 348.759688 -167.058201 
L 348.881838 -169.706224 
L 349.003602 -166.827055 
L 349.124981 -168.145297 
L 349.245979 -168.597796 
L 349.366597 -167.20842 
L 349.486839 -168.437389 
L 349.606706 -169.579936 
L 349.7262 -167.00515 
L 349.845325 -168.349014 
L 349.964082 -168.718084 
L 350.082474 -168.900093 
L 350.200502 -167.067928 
L 350.31817 -167.072108 
L 350.435478 -167.940934 
L 350.552431 -167.742929 
L 350.669028 -169.032779 
L 350.785274 -166.713411 
L 350.901169 -169.277006 
L 351.016717 -168.359388 
L 351.131918 -167.472281 
L 351.246776 -167.182973 
L 351.361291 -167.669899 
L 351.475467 -168.454758 
L 351.589305 -167.436679 
L 351.702808 -168.346075 
L 351.815976 -167.799294 
L 351.928813 -169.016489 
L 352.041319 -169.184815 
L 352.153498 -168.088081 
L 352.265351 -167.578862 
L 352.376879 -166.313818 
L 352.488085 -169.13971 
L 352.59897 -167.922237 
L 352.709537 -167.057581 
L 352.819787 -169.372972 
L 352.929722 -169.123844 
L 353.039344 -167.867315 
L 353.148655 -168.958672 
L 353.257655 -168.711249 
L 353.366348 -165.920998 
L 353.474735 -167.437927 
L 353.582817 -166.516423 
L 353.690597 -167.755399 
L 353.798075 -167.151675 
L 353.905254 -165.560812 
L 354.012135 -169.545664 
L 354.118721 -166.889318 
L 354.225011 -168.324804 
L 354.331009 -167.080043 
L 354.436716 -166.755582 
L 354.542133 -166.644456 
L 354.647263 -165.132707 
L 354.752105 -165.428211 
L 354.856663 -165.829342 
L 354.960938 -166.029231 
L 355.06493 -165.663909 
L 355.168643 -165.781346 
L 355.272076 -164.307243 
L 355.375232 -165.599458 
L 355.478113 -166.852959 
L 355.580719 -166.34528 
L 355.683052 -167.672097 
L 355.785114 -167.648947 
L 355.886905 -166.880381 
L 355.988428 -166.379532 
L 356.089684 -166.229219 
L 356.190675 -166.043934 
L 356.2914 -164.92216 
L 356.391863 -166.051614 
L 356.492065 -165.695296 
L 356.592006 -165.658903 
L 356.691688 -166.684192 
L 356.791112 -166.451516 
L 356.89028 -167.399975 
L 356.989194 -167.707683 
L 357.087853 -163.409647 
L 357.186261 -165.262474 
L 357.284417 -166.10222 
L 357.382323 -167.335328 
L 357.479981 -167.127574 
L 357.577392 -168.286308 
L 357.674557 -165.609196 
L 357.771477 -165.870698 
L 357.868154 -166.082592 
L 357.964588 -164.858201 
L 358.060781 -164.811018 
L 358.156734 -165.737212 
L 358.252449 -166.194082 
L 358.347926 -165.96715 
L 358.443167 -168.319004 
L 358.538172 -166.281567 
L 358.632944 -166.928368 
L 358.727483 -167.821629 
L 358.82179 -165.570533 
L 358.915866 -167.765199 
L 359.009713 -166.916044 
L 359.103332 -166.457703 
L 359.196723 -165.756125 
L 359.289889 -165.730498 
L 359.382829 -163.853117 
L 359.475545 -165.060383 
L 359.568039 -166.308087 
L 359.66031 -166.341754 
L 359.752361 -165.973127 
L 359.844192 -164.582304 
L 359.935805 -164.173912 
L 360.0272 -163.35467 
L 360.118378 -163.775573 
L 360.209341 -164.199356 
L 360.300089 -165.015501 
L 360.390624 -163.51763 
L 360.480946 -163.702113 
L 360.571057 -165.363496 
L 360.660957 -165.458829 
L 360.750648 -165.658441 
L 360.84013 -165.6665 
L 360.929404 -163.100116 
L 361.018472 -163.8384 
L 361.107334 -163.439139 
L 361.195991 -163.820914 
L 361.284445 -163.71777 
L 361.372695 -163.071799 
L 361.460744 -165.359672 
L 361.548591 -165.613313 
L 361.636239 -163.188123 
L 361.723687 -165.217569 
L 361.810937 -164.569832 
L 361.89799 -165.929583 
L 361.984846 -162.602832 
L 362.071507 -163.986052 
L 362.157972 -165.26002 
L 362.244244 -165.520848 
L 362.330323 -162.81861 
L 362.41621 -163.377866 
L 362.501905 -163.316214 
L 362.58741 -166.053146 
L 362.672726 -162.942828 
L 362.757852 -162.176316 
L 362.842791 -163.791791 
L 362.927543 -163.982179 
L 363.012108 -164.455057 
L 363.096488 -164.435838 
L 363.180684 -161.818743 
L 363.264695 -165.537425 
L 363.348524 -162.288201 
L 363.43217 -163.028511 
L 363.515635 -161.942125 
L 363.598919 -162.445865 
L 363.682023 -165.06902 
L 363.764948 -163.953446 
L 363.847695 -164.081411 
L 363.930264 -161.816459 
L 364.012657 -164.104409 
L 364.094873 -164.70752 
L 364.176914 -162.782085 
L 364.25878 -163.975763 
L 364.340473 -162.813072 
L 364.421993 -163.235424 
L 364.50334 -162.258987 
L 364.584516 -163.558694 
L 364.665521 -163.647996 
L 364.746355 -162.291089 
L 364.82702 -161.793016 
L 364.907517 -163.699688 
L 364.987845 -163.869611 
L 365.068006 -163.238715 
L 365.148 -163.043384 
L 365.227828 -162.592717 
L 365.307492 -161.560456 
L 365.38699 -163.643198 
L 365.466325 -164.502702 
L 365.545496 -161.892845 
L 365.624505 -163.177036 
L 365.703352 -160.922334 
L 365.782037 -160.749447 
L 365.860562 -162.598292 
L 365.938927 -163.275344 
L 366.017133 -162.941239 
L 366.09518 -162.538805 
L 366.173069 -162.466818 
L 366.250801 -162.456424 
L 366.328376 -163.737532 
L 366.405795 -163.92801 
L 366.483059 -161.634573 
L 366.560168 -163.227622 
L 366.637122 -161.742207 
L 366.713923 -162.924867 
L 366.790571 -162.721865 
L 366.867067 -163.945138 
L 366.94341 -164.750652 
L 367.019603 -162.865675 
L 367.095645 -164.24854 
L 367.171537 -164.149172 
L 367.24728 -165.416522 
L 367.322874 -164.150509 
L 367.398319 -163.407625 
L 367.473617 -162.939596 
L 367.548768 -163.254659 
L 367.623772 -162.606134 
L 367.698631 -162.597814 
L 367.773344 -161.360225 
L 367.847912 -162.239607 
L 367.922336 -163.371092 
L 367.996617 -163.520416 
L 368.070754 -162.499969 
L 368.144749 -162.224927 
L 368.218602 -161.270646 
L 368.292313 -163.004012 
L 368.365883 -162.513145 
L 368.439313 -161.945116 
L 368.512603 -161.070776 
L 368.585754 -161.794404 
L 368.658766 -162.582566 
L 368.731639 -162.554458 
L 368.804375 -163.621748 
L 368.876974 -162.931963 
L 368.949436 -162.675752 
L 369.021761 -161.935315 
L 369.093951 -162.805915 
L 369.166006 -162.238837 
L 369.237926 -160.906207 
L 369.309712 -162.058469 
L 369.381364 -161.349354 
L 369.452883 -162.980975 
L 369.52427 -161.189371 
L 369.595524 -159.622273 
L 369.666646 -160.197306 
L 369.737638 -163.664814 
L 369.808498 -160.995961 
L 369.879228 -162.07682 
L 369.949829 -161.780795 
L 370.0203 -160.716758 
L 370.090642 -162.603975 
L 370.160856 -162.207794 
L 370.230942 -161.223968 
L 370.300901 -161.886913 
L 370.370733 -163.236997 
L 370.440438 -159.783729 
L 370.510017 -162.581212 
L 370.579471 -162.778126 
L 370.648799 -162.63195 
L 370.718003 -163.507145 
L 370.787082 -160.341119 
L 370.856038 -161.4216 
L 370.92487 -159.978494 
L 370.993579 -159.804468 
L 371.062166 -160.512681 
L 371.130631 -161.055918 
L 371.198975 -161.116322 
L 371.267197 -162.764484 
L 371.335298 -161.150869 
L 371.403279 -162.010578 
L 371.47114 -160.919255 
L 371.538882 -160.165727 
L 371.606504 -160.903464 
L 371.674008 -161.213685 
L 371.741394 -160.584158 
L 371.808662 -161.901904 
L 371.875813 -157.740961 
L 371.942846 -161.347853 
L 372.009763 -158.458995 
L 372.076564 -160.071646 
L 372.143249 -161.738021 
L 372.209819 -162.942143 
L 372.276273 -160.890417 
L 372.342613 -160.744719 
L 372.408839 -159.911533 
L 372.474951 -160.161815 
L 372.54095 -160.413667 
L 372.606836 -162.868367 
L 372.672609 -162.077892 
L 372.73827 -160.635323 
L 372.803819 -159.369933 
L 372.869256 -161.019418 
L 372.934583 -160.161989 
L 372.999798 -159.863399 
L 373.064904 -159.386844 
L 373.129899 -158.381883 
L 373.194785 -159.860982 
L 373.259561 -160.917909 
L 373.324229 -160.048973 
L 373.388788 -161.382224 
L 373.453239 -161.776006 
L 373.517582 -159.391561 
L 373.581818 -160.713567 
L 373.581818 -163.625652 
L 373.581818 -163.625652 
L 373.517582 -162.152784 
L 373.453239 -164.671099 
L 373.388788 -163.991556 
L 373.324229 -163.279853 
L 373.259561 -163.564331 
L 373.194785 -163.491717 
L 373.129899 -161.573313 
L 373.064904 -162.35393 
L 372.999798 -161.821512 
L 372.934583 -162.929833 
L 372.869256 -164.290056 
L 372.803819 -162.786821 
L 372.73827 -163.324616 
L 372.672609 -164.176777 
L 372.606836 -166.238918 
L 372.54095 -163.889525 
L 372.474951 -163.126109 
L 372.408839 -163.328942 
L 372.342613 -162.951975 
L 372.276273 -163.844326 
L 372.209819 -167.683237 
L 372.143249 -165.676297 
L 372.076564 -163.485891 
L 372.009763 -161.320721 
L 371.942846 -164.363883 
L 371.875813 -163.278506 
L 371.808662 -165.496776 
L 371.741394 -164.582987 
L 371.674008 -164.88632 
L 371.606504 -165.073738 
L 371.538882 -164.013955 
L 371.47114 -164.057868 
L 371.403279 -164.868524 
L 371.335298 -163.332027 
L 371.267197 -165.097049 
L 371.198975 -163.134685 
L 371.130631 -162.975107 
L 371.062166 -162.85047 
L 370.993579 -163.942266 
L 370.92487 -162.821343 
L 370.856038 -164.390054 
L 370.787082 -164.313903 
L 370.718003 -165.366151 
L 370.648799 -165.625422 
L 370.579471 -165.215349 
L 370.510017 -164.681599 
L 370.440438 -163.607744 
L 370.370733 -165.463029 
L 370.300901 -164.815182 
L 370.230942 -163.872998 
L 370.160856 -164.885422 
L 370.090642 -164.850787 
L 370.0203 -163.255388 
L 369.949829 -164.208609 
L 369.879228 -164.11072 
L 369.808498 -164.033044 
L 369.737638 -165.334265 
L 369.666646 -163.120969 
L 369.595524 -162.987169 
L 369.52427 -163.954553 
L 369.452883 -165.174953 
L 369.381364 -163.620833 
L 369.309712 -164.746268 
L 369.237926 -163.365411 
L 369.166006 -165.927985 
L 369.093951 -166.053286 
L 369.021761 -164.708918 
L 368.949436 -165.231893 
L 368.876974 -165.661825 
L 368.804375 -166.28354 
L 368.731639 -165.619949 
L 368.658766 -165.102007 
L 368.585754 -164.25048 
L 368.512603 -164.124395 
L 368.439313 -164.598012 
L 368.365883 -165.005794 
L 368.292313 -165.007167 
L 368.218602 -163.27782 
L 368.144749 -164.16095 
L 368.070754 -165.710489 
L 367.996617 -165.419324 
L 367.922336 -165.403401 
L 367.847912 -165.494901 
L 367.773344 -164.360996 
L 367.698631 -165.099228 
L 367.623772 -165.050189 
L 367.548768 -166.267013 
L 367.473617 -166.972714 
L 367.398319 -166.411183 
L 367.322874 -167.018366 
L 367.24728 -167.936329 
L 367.171537 -166.879186 
L 367.095645 -166.738843 
L 367.019603 -165.869818 
L 366.94341 -167.391346 
L 366.867067 -166.96401 
L 366.790571 -165.408967 
L 366.713923 -165.990972 
L 366.637122 -164.29817 
L 366.560168 -166.092975 
L 366.483059 -165.131941 
L 366.405795 -167.973007 
L 366.328376 -166.685787 
L 366.250801 -165.679509 
L 366.173069 -165.187389 
L 366.09518 -166.432331 
L 366.017133 -166.504707 
L 365.938927 -166.628267 
L 365.860562 -166.469461 
L 365.782037 -164.263546 
L 365.703352 -166.7336 
L 365.624505 -165.521613 
L 365.545496 -164.525191 
L 365.466325 -168.017813 
L 365.38699 -166.012495 
L 365.307492 -166.184763 
L 365.227828 -166.45949 
L 365.148 -165.787104 
L 365.068006 -165.712938 
L 364.987845 -166.787142 
L 364.907517 -165.975326 
L 364.82702 -164.769788 
L 364.746355 -165.187457 
L 364.665521 -166.21883 
L 364.584516 -166.403321 
L 364.50334 -164.939217 
L 364.421993 -164.669481 
L 364.340473 -165.891689 
L 364.25878 -167.104397 
L 364.176914 -165.841285 
L 364.094873 -167.093208 
L 364.012657 -167.499464 
L 363.930264 -163.842765 
L 363.847695 -167.116205 
L 363.764948 -166.078687 
L 363.682023 -167.997952 
L 363.598919 -165.986324 
L 363.515635 -165.188512 
L 363.43217 -165.243657 
L 363.348524 -165.902744 
L 363.264695 -169.284639 
L 363.180684 -164.610198 
L 363.096488 -166.148865 
L 363.012108 -168.235201 
L 362.927543 -166.806686 
L 362.842791 -166.118125 
L 362.757852 -164.92297 
L 362.672726 -165.217255 
L 362.58741 -168.046545 
L 362.501905 -165.925344 
L 362.41621 -166.999441 
L 362.330323 -167.402097 
L 362.244244 -169.774784 
L 362.157972 -168.001184 
L 362.071507 -167.246727 
L 361.984846 -166.829652 
L 361.89799 -169.577612 
L 361.810937 -167.529389 
L 361.723687 -166.872361 
L 361.636239 -167.325898 
L 361.548591 -168.5009 
L 361.460744 -167.689162 
L 361.372695 -167.015776 
L 361.284445 -166.93039 
L 361.195991 -165.570775 
L 361.107334 -166.511957 
L 361.018472 -166.101484 
L 360.929404 -166.286185 
L 360.84013 -168.235717 
L 360.750648 -168.425262 
L 360.660957 -167.721707 
L 360.571057 -168.006851 
L 360.480946 -167.424023 
L 360.390624 -166.238783 
L 360.300089 -167.556332 
L 360.209341 -166.682869 
L 360.118378 -167.582578 
L 360.0272 -166.911678 
L 359.935805 -168.001349 
L 359.844192 -166.610325 
L 359.752361 -168.932804 
L 359.66031 -169.352085 
L 359.568039 -168.196185 
L 359.475545 -167.886309 
L 359.382829 -167.507274 
L 359.289889 -168.587883 
L 359.196723 -168.680813 
L 359.103332 -168.914324 
L 359.009713 -168.757533 
L 358.915866 -170.787478 
L 358.82179 -168.50185 
L 358.727483 -169.831707 
L 358.632944 -169.484514 
L 358.538172 -168.593717 
L 358.443167 -171.18414 
L 358.347926 -168.86945 
L 358.252449 -169.788575 
L 358.156734 -169.126572 
L 358.060781 -167.705086 
L 357.964588 -166.97125 
L 357.868154 -169.141596 
L 357.771477 -168.240221 
L 357.674557 -168.020967 
L 357.577392 -170.843327 
L 357.479981 -170.758484 
L 357.382323 -170.045897 
L 357.284417 -168.877042 
L 357.186261 -167.590558 
L 357.087853 -166.11996 
L 356.989194 -169.754883 
L 356.89028 -170.35639 
L 356.791112 -168.625778 
L 356.691688 -168.431402 
L 356.592006 -168.331432 
L 356.492065 -167.911226 
L 356.391863 -168.883884 
L 356.2914 -168.361747 
L 356.190675 -169.374739 
L 356.089684 -168.942222 
L 355.988428 -169.904113 
L 355.886905 -169.9974 
L 355.785114 -170.185979 
L 355.683052 -170.379351 
L 355.580719 -168.870603 
L 355.478113 -169.627838 
L 355.375232 -167.884567 
L 355.272076 -169.275802 
L 355.168643 -169.03122 
L 355.06493 -167.56539 
L 354.960938 -168.609352 
L 354.856663 -168.516669 
L 354.752105 -168.377078 
L 354.647263 -168.028261 
L 354.542133 -170.074119 
L 354.436716 -169.097727 
L 354.331009 -169.899227 
L 354.225011 -171.32542 
L 354.118721 -169.470834 
L 354.012135 -172.975516 
L 353.905254 -168.624073 
L 353.798075 -169.859525 
L 353.690597 -170.1153 
L 353.582817 -170.120553 
L 353.474735 -169.903114 
L 353.366348 -168.446552 
L 353.257655 -171.128856 
L 353.148655 -172.132588 
L 353.039344 -171.67975 
L 352.929722 -171.044376 
L 352.819787 -171.689117 
L 352.709537 -170.474696 
L 352.59897 -170.575953 
L 352.488085 -170.757833 
L 352.376879 -169.802165 
L 352.265351 -170.813089 
L 352.153498 -171.052835 
L 352.041319 -171.85437 
L 351.928813 -172.25547 
L 351.815976 -170.47557 
L 351.702808 -171.391429 
L 351.589305 -170.401785 
L 351.475467 -171.538624 
L 351.361291 -170.344255 
L 351.246776 -170.740161 
L 351.131918 -169.378197 
L 351.016717 -170.994707 
L 350.901169 -172.372948 
L 350.785274 -170.871882 
L 350.669028 -172.512145 
L 350.552431 -170.551858 
L 350.435478 -171.171154 
L 350.31817 -169.966521 
L 350.200502 -171.281102 
L 350.082474 -171.747025 
L 349.964082 -171.983097 
L 349.845325 -170.664993 
L 349.7262 -168.928872 
L 349.606706 -172.049012 
L 349.486839 -170.959478 
L 349.366597 -170.784276 
L 349.245979 -170.56591 
L 349.124981 -170.455378 
L 349.003602 -170.259491 
L 348.881838 -171.072586 
L 348.759688 -170.335734 
L 348.637149 -171.225033 
L 348.514218 -171.266006 
L 348.390894 -171.979693 
L 348.267172 -170.471086 
L 348.143052 -172.219042 
L 348.01853 -172.373406 
L 347.893604 -173.247941 
L 347.768271 -174.544175 
L 347.642528 -171.865294 
L 347.516373 -173.050298 
L 347.389803 -170.856745 
L 347.262815 -173.993197 
L 347.135407 -172.490218 
L 347.007576 -174.016371 
L 346.879318 -173.116651 
L 346.750631 -173.78191 
L 346.621513 -173.361462 
L 346.49196 -174.169341 
L 346.361969 -174.752974 
L 346.231538 -173.61186 
L 346.100662 -172.498513 
L 345.969341 -173.351447 
L 345.837569 -175.553708 
L 345.705345 -174.571874 
L 345.572664 -171.592414 
L 345.439525 -173.987444 
L 345.305923 -174.317003 
L 345.171856 -174.887544 
L 345.03732 -174.567904 
L 344.902312 -172.593977 
L 344.766829 -174.809602 
L 344.630867 -171.905857 
L 344.494422 -174.843423 
L 344.357493 -171.360048 
L 344.220074 -172.688796 
L 344.082162 -172.320593 
L 343.943755 -172.858486 
L 343.804847 -173.734568 
L 343.665437 -173.736547 
L 343.52552 -173.323934 
L 343.385092 -174.626257 
L 343.244149 -173.917413 
L 343.102688 -175.127857 
L 342.960706 -173.329846 
L 342.818197 -175.6024 
L 342.675159 -173.132881 
L 342.531587 -176.715606 
L 342.387477 -173.620432 
L 342.242826 -175.340914 
L 342.097629 -172.986999 
L 341.951881 -175.628647 
L 341.80558 -174.263825 
L 341.65872 -175.003044 
L 341.511297 -176.550025 
L 341.363308 -177.184808 
L 341.214747 -175.04717 
L 341.06561 -175.472755 
L 340.915893 -177.560089 
L 340.765591 -175.60926 
L 340.614699 -175.337348 
L 340.463214 -174.722841 
L 340.31113 -177.701004 
L 340.158442 -174.037156 
L 340.005146 -176.571055 
L 339.851237 -176.403564 
L 339.69671 -175.659382 
L 339.541559 -176.097035 
L 339.385781 -174.763799 
L 339.229369 -173.783715 
L 339.072319 -177.516698 
L 338.914625 -174.694503 
L 338.756282 -175.240621 
L 338.597285 -176.898309 
L 338.437628 -173.928111 
L 338.277306 -177.226503 
L 338.116313 -174.604138 
L 337.954644 -174.653122 
L 337.792292 -174.469939 
L 337.629253 -174.298441 
L 337.46552 -175.168348 
L 337.301087 -174.487663 
L 337.135948 -174.423253 
L 336.970098 -176.022339 
L 336.803529 -175.161307 
L 336.636236 -174.307148 
L 336.468213 -176.10565 
L 336.299453 -175.551475 
L 336.12995 -175.350124 
L 335.959696 -174.686984 
L 335.788686 -177.283469 
L 335.616912 -176.756218 
L 335.444368 -175.215722 
L 335.271047 -174.640665 
L 335.096941 -174.821355 
L 334.922044 -175.54531 
L 334.746349 -175.37888 
L 334.569847 -176.70579 
L 334.392533 -177.171844 
L 334.214397 -176.616132 
L 334.035433 -177.372034 
L 333.855632 -177.728698 
L 333.674987 -177.514562 
L 333.493491 -179.82716 
L 333.311134 -176.33623 
L 333.127908 -179.014076 
L 332.943806 -174.664199 
L 332.758819 -176.003616 
L 332.572938 -176.750002 
L 332.386155 -177.576755 
L 332.198461 -177.000227 
L 332.009847 -177.309017 
L 331.820303 -177.507861 
L 331.629821 -175.614773 
L 331.438392 -176.347752 
L 331.246005 -177.430049 
L 331.052652 -176.326685 
L 330.858322 -178.298463 
L 330.663006 -177.545316 
L 330.466693 -176.950861 
L 330.269373 -176.659461 
L 330.071036 -176.856623 
L 329.871672 -177.909098 
L 329.671269 -174.871696 
L 329.469817 -177.044841 
L 329.267305 -179.024543 
L 329.063721 -178.68881 
L 328.859054 -177.135223 
L 328.653293 -177.812092 
L 328.446426 -178.36947 
L 328.23844 -175.552501 
L 328.029324 -177.467498 
L 327.819065 -178.301441 
L 327.607651 -178.471935 
L 327.395069 -178.497577 
L 327.181306 -179.074164 
L 326.966349 -178.213475 
L 326.750184 -178.047955 
L 326.532798 -178.720464 
L 326.314177 -177.833974 
L 326.094306 -178.31021 
L 325.873172 -180.123041 
L 325.650759 -178.883107 
L 325.427054 -178.164255 
L 325.20204 -178.710435 
L 324.975703 -178.856732 
L 324.748026 -179.385929 
L 324.518994 -179.109093 
L 324.288591 -179.940388 
L 324.056799 -180.018587 
L 323.823603 -179.329619 
L 323.588985 -180.583328 
L 323.352928 -180.994842 
L 323.115413 -180.108544 
L 322.876423 -180.165265 
L 322.635939 -180.403992 
L 322.393943 -179.945593 
L 322.150416 -181.331565 
L 321.905337 -180.36985 
L 321.658687 -181.181986 
L 321.410446 -179.727905 
L 321.160593 -181.462652 
L 320.909107 -180.774162 
L 320.655966 -180.577656 
L 320.401149 -178.852261 
L 320.144633 -181.23532 
L 319.886395 -180.025382 
L 319.626413 -181.840633 
L 319.364662 -182.270953 
L 319.101118 -181.31483 
L 318.835757 -180.391948 
L 318.568552 -182.818641 
L 318.29948 -182.501004 
L 318.028512 -181.183559 
L 317.755623 -181.14803 
L 317.480784 -181.899294 
L 317.203968 -180.841903 
L 316.925146 -180.650304 
L 316.644289 -181.605586 
L 316.361367 -182.519541 
L 316.076349 -179.968755 
L 315.789204 -181.139106 
L 315.4999 -182.732099 
L 315.208404 -182.533931 
L 314.914683 -181.372288 
L 314.618703 -182.91516 
L 314.320428 -182.113173 
L 314.019823 -184.124036 
L 313.716851 -183.565627 
L 313.411475 -183.495711 
L 313.103655 -182.469542 
L 312.793353 -184.209759 
L 312.480528 -185.407566 
L 312.165139 -183.289034 
L 311.847144 -185.195986 
L 311.526498 -184.428763 
L 311.203158 -182.51009 
L 310.877078 -181.74289 
L 310.54821 -184.100159 
L 310.216508 -184.138201 
L 309.881921 -185.087823 
L 309.544399 -184.546349 
L 309.20389 -185.118614 
L 308.860341 -184.653107 
L 308.513697 -185.304332 
L 308.163901 -185.789557 
L 307.810896 -185.709455 
L 307.454623 -186.572569 
L 307.09502 -183.96174 
L 306.732024 -186.514189 
L 306.365572 -185.41587 
L 305.995595 -185.944275 
L 305.622027 -186.677424 
L 305.244796 -185.230925 
L 304.86383 -186.01353 
L 304.479054 -186.512015 
L 304.090392 -188.358729 
L 303.697764 -187.1701 
L 303.301087 -188.126309 
L 302.900279 -188.25225 
L 302.495252 -187.187785 
L 302.085915 -186.983337 
L 301.672178 -186.965292 
L 301.253943 -187.87819 
L 300.831111 -188.009654 
L 300.403582 -189.783602 
L 299.971249 -189.601846 
L 299.534003 -187.376763 
L 299.091731 -188.228807 
L 298.644316 -187.873484 
L 298.191637 -188.325642 
L 297.733569 -189.311814 
L 297.269982 -190.575462 
L 296.800742 -189.072863 
L 296.325708 -189.75332 
L 295.844736 -188.694941 
L 295.357676 -188.864454 
L 294.864371 -189.362666 
L 294.364659 -188.46383 
L 293.858373 -192.673735 
L 293.345335 -189.984555 
L 292.825364 -189.878229 
L 292.29827 -190.63257 
L 291.763856 -191.072971 
L 291.221914 -190.924568 
L 290.672229 -190.658817 
L 290.114578 -191.304257 
L 289.548726 -191.100086 
L 288.974428 -192.284511 
L 288.391428 -189.300775 
L 287.799459 -191.486566 
L 287.19824 -190.331442 
L 286.587477 -193.070943 
L 285.966863 -190.798563 
L 285.336074 -191.304299 
L 284.694772 -193.254988 
L 284.0426 -191.62669 
L 283.379182 -192.598587 
L 282.704126 -195.090247 
L 282.017014 -194.739884 
L 281.317408 -195.09085 
L 280.604846 -192.087747 
L 279.878839 -193.742251 
L 279.138869 -195.369947 
L 278.384389 -196.727462 
L 277.614818 -192.582964 
L 276.829541 -194.97012 
L 276.027903 -196.933125 
L 275.209207 -195.584311 
L 274.372712 -195.392351 
L 273.517627 -197.065618 
L 272.643106 -194.659042 
L 271.748246 -197.774961 
L 270.832078 -194.733628 
L 269.893562 -195.533529 
L 268.931581 -197.186322 
L 267.944931 -195.608808 
L 266.932313 -193.741966 
L 265.892324 -195.742722 
L 264.823443 -198.027016 
L 263.724018 -198.660212 
L 262.592253 -198.365871 
L 261.426186 -198.69304 
L 260.223675 -198.245092 
L 258.982365 -198.847883 
L 257.699672 -200.684038 
L 256.372739 -200.80175 
L 254.998405 -199.173163 
L 253.573159 -199.661117 
L 252.093082 -201.088956 
L 250.553787 -202.391218 
L 248.950336 -202.739247 
L 247.277149 -202.660318 
L 245.527882 -204.08937 
L 243.695286 -206.327374 
L 241.771022 -205.322983 
L 239.745437 -203.874534 
L 237.607262 -206.511126 
L 235.343241 -205.130405 
L 232.93763 -205.474363 
L 230.371529 -207.853029 
L 227.621985 -209.966081 
L 224.660736 -209.367286 
L 221.452441 -212.783553 
L 217.952098 -212.318442 
L 214.101162 -213.244228 
L 209.821505 -215.265236 
L 205.005572 -216.258287 
L 199.499445 -216.304766 
L 193.071664 -218.409558 
L 185.350408 -220.769239 
L 175.68052 -222.782614 
L 162.733995 -226.173738 
L 153.761336 -228.928777 
L 153.370701 -229.075881 
L 152.976059 -229.935462 
L 152.577327 -228.049364 
L 152.17442 -229.45136 
L 151.76725 -228.45492 
L 151.355725 -228.630728 
L 150.93975 -228.691903 
L 150.51923 -228.583953 
L 150.094063 -228.909678 
L 149.664145 -228.851024 
L 149.229369 -229.256547 
L 148.789624 -227.738168 
L 148.344796 -229.630355 
L 147.894764 -229.218254 
L 147.439407 -228.822571 
L 146.978596 -229.73305 
L 146.512199 -229.270839 
L 146.04008 -229.91724 
L 145.562096 -228.994415 
L 145.078099 -229.149122 
L 144.587936 -229.397788 
L 144.091448 -229.573997 
L 143.588471 -229.448178 
L 143.078831 -229.809284 
L 142.56235 -229.117438 
L 142.038842 -229.603128 
L 141.508113 -229.781127 
L 140.969961 -229.26032 
L 140.424175 -230.177128 
L 139.870536 -229.82981 
L 139.308814 -230.531139 
L 138.738771 -229.48981 
L 138.160155 -229.650875 
L 137.572704 -230.901254 
L 136.976146 -229.529701 
L 136.370192 -230.389431 
L 135.754543 -229.847587 
L 135.128883 -229.744112 
L 134.492881 -231.13377 
L 133.84619 -230.388721 
L 133.188443 -230.55627 
L 132.519256 -231.219062 
L 131.838225 -230.639651 
L 131.144923 -231.631796 
L 130.438899 -231.063018 
L 129.719677 -231.355594 
L 128.986755 -231.379506 
L 128.2396 -231.954488 
L 127.47765 -232.037668 
L 126.700305 -231.078835 
L 125.906932 -232.449174 
L 125.096854 -232.599034 
L 124.269355 -232.472088 
L 123.423667 -231.956893 
L 122.558973 -233.286894 
L 121.6744 -232.314349 
L 120.769011 -234.029397 
L 119.841804 -233.926049 
L 118.8917 -234.312215 
L 117.91754 -234.919455 
L 116.918075 -234.575882 
L 115.891954 -234.618134 
L 114.837717 -234.473231 
L 113.753779 -235.56852 
L 112.638419 -235.959867 
L 111.489759 -236.117958 
L 110.30575 -236.016967 
L 109.084148 -236.265863 
L 107.822486 -236.169788 
L 106.518047 -237.168182 
L 105.16783 -236.908956 
L 103.768503 -236.241075 
L 102.316359 -237.332258 
L 100.807254 -237.538023 
L 99.236536 -238.299045 
L 97.598959 -238.170003 
L 95.888578 -238.440218 
L 94.098615 -238.734742 
L 92.221304 -239.655373 
L 90.247679 -240.094668 
L 88.167321 -240.747718 
L 85.968023 -240.818996 
L 83.635354 -241.396113 
L 81.15209 -242.124983 
L 78.497434 -242.508653 
L 75.645963 -243.199669 
L 72.56614 -243.415333 
L 69.218182 -243.556364 
z
" style="stroke: #ff0000; stroke-opacity: 0.2"/>
    </defs>
    <g clip-path="url(#p80d6201883)">
     <use xlink:href="#m29eed4a41b" x="0" y="288" style="fill: #ff0000; fill-opacity: 0.2; stroke: #ff0000; stroke-opacity: 0.2"/>
    </g>
   </g>
   <g id="matplotlib.axis_1">
    <g id="xtick_1">
     <g id="line2d_1">
      <defs>
       <path id="m427110d0cc" d="M 0 0 
L 0 3.5 
" style="stroke: #000000; stroke-width: 0.8"/>
      </defs>
      <g>
       <use xlink:href="#m427110d0cc" x="65.550908" y="252" style="stroke: #000000; stroke-width: 0.8"/>
      </g>
     </g>
     <g id="text_1">
      <!-- $\mathdefault{10^{1}}$ -->
      <g transform="translate(56.750908 266.598437)scale(0.1 -0.1)">
       <defs>
        <path id="DejaVuSans-31" d="M 794 531 
L 1825 531 
L 1825 4091 
L 703 3866 
L 703 4441 
L 1819 4666 
L 2450 4666 
L 2450 531 
L 3481 531 
L 3481 0 
L 794 0 
L 794 531 
z
" transform="scale(0.015625)"/>
        <path id="DejaVuSans-30" d="M 2034 4250 
Q 1547 4250 1301 3770 
Q 1056 3291 1056 2328 
Q 1056 1369 1301 889 
Q 1547 409 2034 409 
Q 2525 409 2770 889 
Q 3016 1369 3016 2328 
Q 3016 3291 2770 3770 
Q 2525 4250 2034 4250 
z
M 2034 4750 
Q 2819 4750 3233 4129 
Q 3647 3509 3647 2328 
Q 3647 1150 3233 529 
Q 2819 -91 2034 -91 
Q 1250 -91 836 529 
Q 422 1150 422 2328 
Q 422 3509 836 4129 
Q 1250 4750 2034 4750 
z
" transform="scale(0.015625)"/>
       </defs>
       <use xlink:href="#DejaVuSans-31" transform="translate(0 0.684375)"/>
       <use xlink:href="#DejaVuSans-30" transform="translate(63.623047 0.684375)"/>
       <use xlink:href="#DejaVuSans-31" transform="translate(128.203125 38.965625)scale(0.7)"/>
      </g>
     </g>
    </g>
    <g id="xtick_2">
     <g id="line2d_2">
      <g>
       <use xlink:href="#m427110d0cc" x="154.148045" y="252" style="stroke: #000000; stroke-width: 0.8"/>
      </g>
     </g>
     <g id="text_2">
      <!-- $\mathdefault{10^{2}}$ -->
      <g transform="translate(145.348045 266.598437)scale(0.1 -0.1)">
       <defs>
        <path id="DejaVuSans-32" d="M 1228 531 
L 3431 531 
L 3431 0 
L 469 0 
L 469 531 
Q 828 903 1448 1529 
Q 2069 2156 2228 2338 
Q 2531 2678 2651 2914 
Q 2772 3150 2772 3378 
Q 2772 3750 2511 3984 
Q 2250 4219 1831 4219 
Q 1534 4219 1204 4116 
Q 875 4013 500 3803 
L 500 4441 
Q 881 4594 1212 4672 
Q 1544 4750 1819 4750 
Q 2544 4750 2975 4387 
Q 3406 4025 3406 3419 
Q 3406 3131 3298 2873 
Q 3191 2616 2906 2266 
Q 2828 2175 2409 1742 
Q 1991 1309 1228 531 
z
" transform="scale(0.015625)"/>
       </defs>
       <use xlink:href="#DejaVuSans-31" transform="translate(0 0.765625)"/>
       <use xlink:href="#DejaVuSans-30" transform="translate(63.623047 0.765625)"/>
       <use xlink:href="#DejaVuSans-32" transform="translate(128.203125 39.046875)scale(0.7)"/>
      </g>
     </g>
    </g>
    <g id="xtick_3">
     <g id="line2d_3">
      <g>
       <use xlink:href="#m427110d0cc" x="242.745182" y="252" style="stroke: #000000; stroke-width: 0.8"/>
      </g>
     </g>
     <g id="text_3">
      <!-- $\mathdefault{10^{3}}$ -->
      <g transform="translate(233.945182 266.598437)scale(0.1 -0.1)">
       <defs>
        <path id="DejaVuSans-33" d="M 2597 2516 
Q 3050 2419 3304 2112 
Q 3559 1806 3559 1356 
Q 3559 666 3084 287 
Q 2609 -91 1734 -91 
Q 1441 -91 1130 -33 
Q 819 25 488 141 
L 488 750 
Q 750 597 1062 519 
Q 1375 441 1716 441 
Q 2309 441 2620 675 
Q 2931 909 2931 1356 
Q 2931 1769 2642 2001 
Q 2353 2234 1838 2234 
L 1294 2234 
L 1294 2753 
L 1863 2753 
Q 2328 2753 2575 2939 
Q 2822 3125 2822 3475 
Q 2822 3834 2567 4026 
Q 2313 4219 1838 4219 
Q 1578 4219 1281 4162 
Q 984 4106 628 3988 
L 628 4550 
Q 988 4650 1302 4700 
Q 1616 4750 1894 4750 
Q 2613 4750 3031 4423 
Q 3450 4097 3450 3541 
Q 3450 3153 3228 2886 
Q 3006 2619 2597 2516 
z
" transform="scale(0.015625)"/>
       </defs>
       <use xlink:href="#DejaVuSans-31" transform="translate(0 0.765625)"/>
       <use xlink:href="#DejaVuSans-30" transform="translate(63.623047 0.765625)"/>
       <use xlink:href="#DejaVuSans-33" transform="translate(128.203125 39.046875)scale(0.7)"/>
      </g>
     </g>
    </g>
    <g id="xtick_4">
     <g id="line2d_4">
      <g>
       <use xlink:href="#m427110d0cc" x="331.342319" y="252" style="stroke: #000000; stroke-width: 0.8"/>
      </g>
     </g>
     <g id="text_4">
      <!-- $\mathdefault{10^{4}}$ -->
      <g transform="translate(322.542319 266.598437)scale(0.1 -0.1)">
       <defs>
        <path id="DejaVuSans-34" d="M 2419 4116 
L 825 1625 
L 2419 1625 
L 2419 4116 
z
M 2253 4666 
L 3047 4666 
L 3047 1625 
L 3713 1625 
L 3713 1100 
L 3047 1100 
L 3047 0 
L 2419 0 
L 2419 1100 
L 313 1100 
L 313 1709 
L 2253 4666 
z
" transform="scale(0.015625)"/>
       </defs>
       <use xlink:href="#DejaVuSans-31" transform="translate(0 0.684375)"/>
       <use xlink:href="#DejaVuSans-30" transform="translate(63.623047 0.684375)"/>
       <use xlink:href="#DejaVuSans-34" transform="translate(128.203125 38.965625)scale(0.7)"/>
      </g>
     </g>
    </g>
    <g id="xtick_5">
     <g id="line2d_5">
      <defs>
       <path id="m4efb0a55aa" d="M 0 0 
L 0 2 
" style="stroke: #000000; stroke-width: 0.6"/>
      </defs>
      <g>
       <use xlink:href="#m4efb0a55aa" x="56.964959" y="252" style="stroke: #000000; stroke-width: 0.6"/>
      </g>
     </g>
    </g>
    <g id="xtick_6">
     <g id="line2d_6">
      <g>
       <use xlink:href="#m4efb0a55aa" x="61.496926" y="252" style="stroke: #000000; stroke-width: 0.6"/>
      </g>
     </g>
    </g>
    <g id="xtick_7">
     <g id="line2d_7">
      <g>
       <use xlink:href="#m4efb0a55aa" x="92.221304" y="252" style="stroke: #000000; stroke-width: 0.6"/>
      </g>
     </g>
    </g>
    <g id="xtick_8">
     <g id="line2d_8">
      <g>
       <use xlink:href="#m4efb0a55aa" x="107.822486" y="252" style="stroke: #000000; stroke-width: 0.6"/>
      </g>
     </g>
    </g>
    <g id="xtick_9">
     <g id="line2d_9">
      <g>
       <use xlink:href="#m4efb0a55aa" x="118.8917" y="252" style="stroke: #000000; stroke-width: 0.6"/>
      </g>
     </g>
    </g>
    <g id="xtick_10">
     <g id="line2d_10">
      <g>
       <use xlink:href="#m4efb0a55aa" x="127.47765" y="252" style="stroke: #000000; stroke-width: 0.6"/>
      </g>
     </g>
    </g>
    <g id="xtick_11">
     <g id="line2d_11">
      <g>
       <use xlink:href="#m4efb0a55aa" x="134.492881" y="252" style="stroke: #000000; stroke-width: 0.6"/>
      </g>
     </g>
    </g>
    <g id="xtick_12">
     <g id="line2d_12">
      <g>
       <use xlink:href="#m4efb0a55aa" x="140.424175" y="252" style="stroke: #000000; stroke-width: 0.6"/>
      </g>
     </g>
    </g>
    <g id="xtick_13">
     <g id="line2d_13">
      <g>
       <use xlink:href="#m4efb0a55aa" x="145.562096" y="252" style="stroke: #000000; stroke-width: 0.6"/>
      </g>
     </g>
    </g>
    <g id="xtick_14">
     <g id="line2d_14">
      <g>
       <use xlink:href="#m4efb0a55aa" x="150.094063" y="252" style="stroke: #000000; stroke-width: 0.6"/>
      </g>
     </g>
    </g>
    <g id="xtick_15">
     <g id="line2d_15">
      <g>
       <use xlink:href="#m4efb0a55aa" x="180.818441" y="252" style="stroke: #000000; stroke-width: 0.6"/>
      </g>
     </g>
    </g>
    <g id="xtick_16">
     <g id="line2d_16">
      <g>
       <use xlink:href="#m4efb0a55aa" x="196.419622" y="252" style="stroke: #000000; stroke-width: 0.6"/>
      </g>
     </g>
    </g>
    <g id="xtick_17">
     <g id="line2d_17">
      <g>
       <use xlink:href="#m4efb0a55aa" x="207.488837" y="252" style="stroke: #000000; stroke-width: 0.6"/>
      </g>
     </g>
    </g>
    <g id="xtick_18">
     <g id="line2d_18">
      <g>
       <use xlink:href="#m4efb0a55aa" x="216.074786" y="252" style="stroke: #000000; stroke-width: 0.6"/>
      </g>
     </g>
    </g>
    <g id="xtick_19">
     <g id="line2d_19">
      <g>
       <use xlink:href="#m4efb0a55aa" x="223.090018" y="252" style="stroke: #000000; stroke-width: 0.6"/>
      </g>
     </g>
    </g>
    <g id="xtick_20">
     <g id="line2d_20">
      <g>
       <use xlink:href="#m4efb0a55aa" x="229.021312" y="252" style="stroke: #000000; stroke-width: 0.6"/>
      </g>
     </g>
    </g>
    <g id="xtick_21">
     <g id="line2d_21">
      <g>
       <use xlink:href="#m4efb0a55aa" x="234.159232" y="252" style="stroke: #000000; stroke-width: 0.6"/>
      </g>
     </g>
    </g>
    <g id="xtick_22">
     <g id="line2d_22">
      <g>
       <use xlink:href="#m4efb0a55aa" x="238.691199" y="252" style="stroke: #000000; stroke-width: 0.6"/>
      </g>
     </g>
    </g>
    <g id="xtick_23">
     <g id="line2d_23">
      <g>
       <use xlink:href="#m4efb0a55aa" x="269.415578" y="252" style="stroke: #000000; stroke-width: 0.6"/>
      </g>
     </g>
    </g>
    <g id="xtick_24">
     <g id="line2d_24">
      <g>
       <use xlink:href="#m4efb0a55aa" x="285.016759" y="252" style="stroke: #000000; stroke-width: 0.6"/>
      </g>
     </g>
    </g>
    <g id="xtick_25">
     <g id="line2d_25">
      <g>
       <use xlink:href="#m4efb0a55aa" x="296.085973" y="252" style="stroke: #000000; stroke-width: 0.6"/>
      </g>
     </g>
    </g>
    <g id="xtick_26">
     <g id="line2d_26">
      <g>
       <use xlink:href="#m4efb0a55aa" x="304.671923" y="252" style="stroke: #000000; stroke-width: 0.6"/>
      </g>
     </g>
    </g>
    <g id="xtick_27">
     <g id="line2d_27">
      <g>
       <use xlink:href="#m4efb0a55aa" x="311.687155" y="252" style="stroke: #000000; stroke-width: 0.6"/>
      </g>
     </g>
    </g>
    <g id="xtick_28">
     <g id="line2d_28">
      <g>
       <use xlink:href="#m4efb0a55aa" x="317.618449" y="252" style="stroke: #000000; stroke-width: 0.6"/>
      </g>
     </g>
    </g>
    <g id="xtick_29">
     <g id="line2d_29">
      <g>
       <use xlink:href="#m4efb0a55aa" x="322.756369" y="252" style="stroke: #000000; stroke-width: 0.6"/>
      </g>
     </g>
    </g>
    <g id="xtick_30">
     <g id="line2d_30">
      <g>
       <use xlink:href="#m4efb0a55aa" x="327.288336" y="252" style="stroke: #000000; stroke-width: 0.6"/>
      </g>
     </g>
    </g>
    <g id="xtick_31">
     <g id="line2d_31">
      <g>
       <use xlink:href="#m4efb0a55aa" x="358.012715" y="252" style="stroke: #000000; stroke-width: 0.6"/>
      </g>
     </g>
    </g>
    <g id="xtick_32">
     <g id="line2d_32">
      <g>
       <use xlink:href="#m4efb0a55aa" x="373.613896" y="252" style="stroke: #000000; stroke-width: 0.6"/>
      </g>
     </g>
    </g>
    <g id="xtick_33">
     <g id="line2d_33">
      <g>
       <use xlink:href="#m4efb0a55aa" x="384.68311" y="252" style="stroke: #000000; stroke-width: 0.6"/>
      </g>
     </g>
    </g>
    <g id="text_5">
     <!-- Resources -->
     <g transform="translate(195.867969 280.276563)scale(0.1 -0.1)">
      <defs>
       <path id="DejaVuSans-52" d="M 2841 2188 
Q 3044 2119 3236 1894 
Q 3428 1669 3622 1275 
L 4263 0 
L 3584 0 
L 2988 1197 
Q 2756 1666 2539 1819 
Q 2322 1972 1947 1972 
L 1259 1972 
L 1259 0 
L 628 0 
L 628 4666 
L 2053 4666 
Q 2853 4666 3247 4331 
Q 3641 3997 3641 3322 
Q 3641 2881 3436 2590 
Q 3231 2300 2841 2188 
z
M 1259 4147 
L 1259 2491 
L 2053 2491 
Q 2509 2491 2742 2702 
Q 2975 2913 2975 3322 
Q 2975 3731 2742 3939 
Q 2509 4147 2053 4147 
L 1259 4147 
z
" transform="scale(0.015625)"/>
       <path id="DejaVuSans-65" d="M 3597 1894 
L 3597 1613 
L 953 1613 
Q 991 1019 1311 708 
Q 1631 397 2203 397 
Q 2534 397 2845 478 
Q 3156 559 3463 722 
L 3463 178 
Q 3153 47 2828 -22 
Q 2503 -91 2169 -91 
Q 1331 -91 842 396 
Q 353 884 353 1716 
Q 353 2575 817 3079 
Q 1281 3584 2069 3584 
Q 2775 3584 3186 3129 
Q 3597 2675 3597 1894 
z
M 3022 2063 
Q 3016 2534 2758 2815 
Q 2500 3097 2075 3097 
Q 1594 3097 1305 2825 
Q 1016 2553 972 2059 
L 3022 2063 
z
" transform="scale(0.015625)"/>
       <path id="DejaVuSans-73" d="M 2834 3397 
L 2834 2853 
Q 2591 2978 2328 3040 
Q 2066 3103 1784 3103 
Q 1356 3103 1142 2972 
Q 928 2841 928 2578 
Q 928 2378 1081 2264 
Q 1234 2150 1697 2047 
L 1894 2003 
Q 2506 1872 2764 1633 
Q 3022 1394 3022 966 
Q 3022 478 2636 193 
Q 2250 -91 1575 -91 
Q 1294 -91 989 -36 
Q 684 19 347 128 
L 347 722 
Q 666 556 975 473 
Q 1284 391 1588 391 
Q 1994 391 2212 530 
Q 2431 669 2431 922 
Q 2431 1156 2273 1281 
Q 2116 1406 1581 1522 
L 1381 1569 
Q 847 1681 609 1914 
Q 372 2147 372 2553 
Q 372 3047 722 3315 
Q 1072 3584 1716 3584 
Q 2034 3584 2315 3537 
Q 2597 3491 2834 3397 
z
" transform="scale(0.015625)"/>
       <path id="DejaVuSans-6f" d="M 1959 3097 
Q 1497 3097 1228 2736 
Q 959 2375 959 1747 
Q 959 1119 1226 758 
Q 1494 397 1959 397 
Q 2419 397 2687 759 
Q 2956 1122 2956 1747 
Q 2956 2369 2687 2733 
Q 2419 3097 1959 3097 
z
M 1959 3584 
Q 2709 3584 3137 3096 
Q 3566 2609 3566 1747 
Q 3566 888 3137 398 
Q 2709 -91 1959 -91 
Q 1206 -91 779 398 
Q 353 888 353 1747 
Q 353 2609 779 3096 
Q 1206 3584 1959 3584 
z
" transform="scale(0.015625)"/>
       <path id="DejaVuSans-75" d="M 544 1381 
L 544 3500 
L 1119 3500 
L 1119 1403 
Q 1119 906 1312 657 
Q 1506 409 1894 409 
Q 2359 409 2629 706 
Q 2900 1003 2900 1516 
L 2900 3500 
L 3475 3500 
L 3475 0 
L 2900 0 
L 2900 538 
Q 2691 219 2414 64 
Q 2138 -91 1772 -91 
Q 1169 -91 856 284 
Q 544 659 544 1381 
z
M 1991 3584 
L 1991 3584 
z
" transform="scale(0.015625)"/>
       <path id="DejaVuSans-72" d="M 2631 2963 
Q 2534 3019 2420 3045 
Q 2306 3072 2169 3072 
Q 1681 3072 1420 2755 
Q 1159 2438 1159 1844 
L 1159 0 
L 581 0 
L 581 3500 
L 1159 3500 
L 1159 2956 
Q 1341 3275 1631 3429 
Q 1922 3584 2338 3584 
Q 2397 3584 2469 3576 
Q 2541 3569 2628 3553 
L 2631 2963 
z
" transform="scale(0.015625)"/>
       <path id="DejaVuSans-63" d="M 3122 3366 
L 3122 2828 
Q 2878 2963 2633 3030 
Q 2388 3097 2138 3097 
Q 1578 3097 1268 2742 
Q 959 2388 959 1747 
Q 959 1106 1268 751 
Q 1578 397 2138 397 
Q 2388 397 2633 464 
Q 2878 531 3122 666 
L 3122 134 
Q 2881 22 2623 -34 
Q 2366 -91 2075 -91 
Q 1284 -91 818 406 
Q 353 903 353 1747 
Q 353 2603 823 3093 
Q 1294 3584 2113 3584 
Q 2378 3584 2631 3529 
Q 2884 3475 3122 3366 
z
" transform="scale(0.015625)"/>
      </defs>
      <use xlink:href="#DejaVuSans-52"/>
      <use xlink:href="#DejaVuSans-65" x="64.982422"/>
      <use xlink:href="#DejaVuSans-73" x="126.505859"/>
      <use xlink:href="#DejaVuSans-6f" x="178.605469"/>
      <use xlink:href="#DejaVuSans-75" x="239.787109"/>
      <use xlink:href="#DejaVuSans-72" x="303.166016"/>
      <use xlink:href="#DejaVuSans-63" x="342.029297"/>
      <use xlink:href="#DejaVuSans-65" x="397.009766"/>
      <use xlink:href="#DejaVuSans-73" x="458.533203"/>
     </g>
    </g>
   </g>
   <g id="matplotlib.axis_2">
    <g id="ytick_1">
     <g id="line2d_34">
      <defs>
       <path id="m17b00ba86d" d="M 0 0 
L -3.5 0 
" style="stroke: #000000; stroke-width: 0.8"/>
      </defs>
      <g>
       <use xlink:href="#m17b00ba86d" x="54" y="218.995183" style="stroke: #000000; stroke-width: 0.8"/>
      </g>
     </g>
     <g id="text_6">
      <!-- $\mathdefault{10^{-8}}$ -->
      <g transform="translate(23.5 222.794402)scale(0.1 -0.1)">
       <defs>
        <path id="DejaVuSans-2212" d="M 678 2272 
L 4684 2272 
L 4684 1741 
L 678 1741 
L 678 2272 
z
" transform="scale(0.015625)"/>
        <path id="DejaVuSans-38" d="M 2034 2216 
Q 1584 2216 1326 1975 
Q 1069 1734 1069 1313 
Q 1069 891 1326 650 
Q 1584 409 2034 409 
Q 2484 409 2743 651 
Q 3003 894 3003 1313 
Q 3003 1734 2745 1975 
Q 2488 2216 2034 2216 
z
M 1403 2484 
Q 997 2584 770 2862 
Q 544 3141 544 3541 
Q 544 4100 942 4425 
Q 1341 4750 2034 4750 
Q 2731 4750 3128 4425 
Q 3525 4100 3525 3541 
Q 3525 3141 3298 2862 
Q 3072 2584 2669 2484 
Q 3125 2378 3379 2068 
Q 3634 1759 3634 1313 
Q 3634 634 3220 271 
Q 2806 -91 2034 -91 
Q 1263 -91 848 271 
Q 434 634 434 1313 
Q 434 1759 690 2068 
Q 947 2378 1403 2484 
z
M 1172 3481 
Q 1172 3119 1398 2916 
Q 1625 2713 2034 2713 
Q 2441 2713 2670 2916 
Q 2900 3119 2900 3481 
Q 2900 3844 2670 4047 
Q 2441 4250 2034 4250 
Q 1625 4250 1398 4047 
Q 1172 3844 1172 3481 
z
" transform="scale(0.015625)"/>
       </defs>
       <use xlink:href="#DejaVuSans-31" transform="translate(0 0.765625)"/>
       <use xlink:href="#DejaVuSans-30" transform="translate(63.623047 0.765625)"/>
       <use xlink:href="#DejaVuSans-2212" transform="translate(128.203125 39.046875)scale(0.7)"/>
       <use xlink:href="#DejaVuSans-38" transform="translate(186.855469 39.046875)scale(0.7)"/>
      </g>
     </g>
    </g>
    <g id="ytick_2">
     <g id="line2d_35">
      <g>
       <use xlink:href="#m17b00ba86d" x="54" y="170.498624" style="stroke: #000000; stroke-width: 0.8"/>
      </g>
     </g>
     <g id="text_7">
      <!-- $\mathdefault{10^{-6}}$ -->
      <g transform="translate(23.5 174.297843)scale(0.1 -0.1)">
       <defs>
        <path id="DejaVuSans-36" d="M 2113 2584 
Q 1688 2584 1439 2293 
Q 1191 2003 1191 1497 
Q 1191 994 1439 701 
Q 1688 409 2113 409 
Q 2538 409 2786 701 
Q 3034 994 3034 1497 
Q 3034 2003 2786 2293 
Q 2538 2584 2113 2584 
z
M 3366 4563 
L 3366 3988 
Q 3128 4100 2886 4159 
Q 2644 4219 2406 4219 
Q 1781 4219 1451 3797 
Q 1122 3375 1075 2522 
Q 1259 2794 1537 2939 
Q 1816 3084 2150 3084 
Q 2853 3084 3261 2657 
Q 3669 2231 3669 1497 
Q 3669 778 3244 343 
Q 2819 -91 2113 -91 
Q 1303 -91 875 529 
Q 447 1150 447 2328 
Q 447 3434 972 4092 
Q 1497 4750 2381 4750 
Q 2619 4750 2861 4703 
Q 3103 4656 3366 4563 
z
" transform="scale(0.015625)"/>
       </defs>
       <use xlink:href="#DejaVuSans-31" transform="translate(0 0.765625)"/>
       <use xlink:href="#DejaVuSans-30" transform="translate(63.623047 0.765625)"/>
       <use xlink:href="#DejaVuSans-2212" transform="translate(128.203125 39.046875)scale(0.7)"/>
       <use xlink:href="#DejaVuSans-36" transform="translate(186.855469 39.046875)scale(0.7)"/>
      </g>
     </g>
    </g>
    <g id="ytick_3">
     <g id="line2d_36">
      <g>
       <use xlink:href="#m17b00ba86d" x="54" y="122.002066" style="stroke: #000000; stroke-width: 0.8"/>
      </g>
     </g>
     <g id="text_8">
      <!-- $\mathdefault{10^{-4}}$ -->
      <g transform="translate(23.5 125.801284)scale(0.1 -0.1)">
       <use xlink:href="#DejaVuSans-31" transform="translate(0 0.684375)"/>
       <use xlink:href="#DejaVuSans-30" transform="translate(63.623047 0.684375)"/>
       <use xlink:href="#DejaVuSans-2212" transform="translate(128.203125 38.965625)scale(0.7)"/>
       <use xlink:href="#DejaVuSans-34" transform="translate(186.855469 38.965625)scale(0.7)"/>
      </g>
     </g>
    </g>
    <g id="ytick_4">
     <g id="line2d_37">
      <g>
       <use xlink:href="#m17b00ba86d" x="54" y="73.505507" style="stroke: #000000; stroke-width: 0.8"/>
      </g>
     </g>
     <g id="text_9">
      <!-- $\mathdefault{10^{-2}}$ -->
      <g transform="translate(23.5 77.304725)scale(0.1 -0.1)">
       <use xlink:href="#DejaVuSans-31" transform="translate(0 0.765625)"/>
       <use xlink:href="#DejaVuSans-30" transform="translate(63.623047 0.765625)"/>
       <use xlink:href="#DejaVuSans-2212" transform="translate(128.203125 39.046875)scale(0.7)"/>
       <use xlink:href="#DejaVuSans-32" transform="translate(186.855469 39.046875)scale(0.7)"/>
      </g>
     </g>
    </g>
    <g id="text_10">
     <!-- MSE -->
     <g transform="translate(17.420313 153.927656)rotate(-90)scale(0.1 -0.1)">
      <defs>
       <path id="DejaVuSans-4d" d="M 628 4666 
L 1569 4666 
L 2759 1491 
L 3956 4666 
L 4897 4666 
L 4897 0 
L 4281 0 
L 4281 4097 
L 3078 897 
L 2444 897 
L 1241 4097 
L 1241 0 
L 628 0 
L 628 4666 
z
" transform="scale(0.015625)"/>
       <path id="DejaVuSans-53" d="M 3425 4513 
L 3425 3897 
Q 3066 4069 2747 4153 
Q 2428 4238 2131 4238 
Q 1616 4238 1336 4038 
Q 1056 3838 1056 3469 
Q 1056 3159 1242 3001 
Q 1428 2844 1947 2747 
L 2328 2669 
Q 3034 2534 3370 2195 
Q 3706 1856 3706 1288 
Q 3706 609 3251 259 
Q 2797 -91 1919 -91 
Q 1588 -91 1214 -16 
Q 841 59 441 206 
L 441 856 
Q 825 641 1194 531 
Q 1563 422 1919 422 
Q 2459 422 2753 634 
Q 3047 847 3047 1241 
Q 3047 1584 2836 1778 
Q 2625 1972 2144 2069 
L 1759 2144 
Q 1053 2284 737 2584 
Q 422 2884 422 3419 
Q 422 4038 858 4394 
Q 1294 4750 2059 4750 
Q 2388 4750 2728 4690 
Q 3069 4631 3425 4513 
z
" transform="scale(0.015625)"/>
       <path id="DejaVuSans-45" d="M 628 4666 
L 3578 4666 
L 3578 4134 
L 1259 4134 
L 1259 2753 
L 3481 2753 
L 3481 2222 
L 1259 2222 
L 1259 531 
L 3634 531 
L 3634 0 
L 628 0 
L 628 4666 
z
" transform="scale(0.015625)"/>
      </defs>
      <use xlink:href="#DejaVuSans-4d"/>
      <use xlink:href="#DejaVuSans-53" x="86.279297"/>
      <use xlink:href="#DejaVuSans-45" x="149.755859"/>
     </g>
    </g>
   </g>
   <g id="line2d_38">
    <path d="M 69.218182 44.855479 
L 72.56614 44.960313 
L 75.645963 45.30971 
L 78.497434 46.096478 
L 81.15209 46.502584 
L 85.968023 47.753974 
L 88.167321 47.944398 
L 90.247679 48.696136 
L 92.221304 49.168543 
L 94.098615 49.838882 
L 95.888578 50.030274 
L 97.598959 50.408918 
L 99.236536 50.414527 
L 100.807254 50.914561 
L 102.316359 51.16745 
L 103.768503 52.15487 
L 105.16783 51.554744 
L 106.518047 51.506251 
L 107.822486 52.191258 
L 109.084148 52.153017 
L 110.30575 52.67483 
L 111.489759 52.7888 
L 113.753779 53.174309 
L 114.837717 54.139834 
L 115.891954 54.22651 
L 116.918075 54.163519 
L 117.91754 53.954055 
L 119.841804 54.729704 
L 120.769011 54.822131 
L 121.6744 56.254913 
L 122.558973 55.485184 
L 123.423667 56.749493 
L 124.269355 55.853657 
L 125.096854 56.428631 
L 125.906932 56.532998 
L 126.700305 57.405472 
L 127.47765 56.937622 
L 128.986755 57.392911 
L 129.719677 57.440401 
L 130.438899 57.835771 
L 131.144923 57.368619 
L 131.838225 58.111731 
L 132.519256 57.734561 
L 133.188443 58.113565 
L 133.84619 58.270899 
L 134.492881 57.889576 
L 135.128883 58.690987 
L 135.754543 58.88033 
L 136.370192 58.525592 
L 136.976146 59.218609 
L 137.572704 58.006421 
L 138.160155 58.894137 
L 138.738771 59.163412 
L 139.308814 58.407389 
L 139.870536 58.931225 
L 140.424175 58.773959 
L 141.508113 59.158373 
L 142.038842 59.140095 
L 142.56235 59.479306 
L 143.078831 58.985971 
L 143.588471 59.291409 
L 144.587936 59.284349 
L 145.562096 59.52987 
L 146.04008 58.794515 
L 146.512199 59.21146 
L 146.978596 58.909474 
L 147.439407 59.77155 
L 148.344796 59.187891 
L 148.789624 60.699275 
L 149.229369 59.422999 
L 149.664145 60.084993 
L 150.094063 59.767185 
L 150.51923 60.062597 
L 150.93975 59.788519 
L 151.355725 60.305717 
L 151.76725 60.334645 
L 152.17442 59.285332 
L 152.577327 60.297288 
L 152.976059 59.052856 
L 153.370701 59.736569 
L 153.761336 59.698987 
L 162.733995 62.371672 
L 175.68052 65.809542 
L 185.350408 68.206731 
L 193.071664 70.490599 
L 199.499445 72.510424 
L 209.821505 74.327372 
L 214.101162 75.869648 
L 217.952098 77.128332 
L 221.452441 77.254854 
L 224.660736 79.799651 
L 227.621985 79.158995 
L 230.371529 81.128156 
L 232.93763 83.160321 
L 235.343241 83.612567 
L 237.607262 82.765009 
L 239.745437 85.423005 
L 241.771022 84.086111 
L 243.695286 83.631237 
L 245.527882 85.356573 
L 247.277149 86.738289 
L 248.950336 87.016888 
L 250.553787 86.921336 
L 252.093082 87.995906 
L 253.573159 89.563758 
L 254.998405 89.644637 
L 256.372739 88.841928 
L 257.699672 88.574379 
L 258.982365 90.170251 
L 260.223675 91.007898 
L 262.592253 91.06309 
L 263.724018 90.87674 
L 264.823443 91.103434 
L 265.892324 92.876128 
L 266.932313 95.209352 
L 267.944931 93.488109 
L 268.931581 92.27149 
L 269.893562 93.194197 
L 270.832078 94.340926 
L 271.748246 91.304531 
L 272.643106 94.396676 
L 273.517627 92.297997 
L 274.372712 93.580408 
L 275.209207 93.858801 
L 276.027903 92.244412 
L 276.829541 93.8382 
L 277.614818 96.767719 
L 278.384389 93.06268 
L 279.138869 94.39772 
L 279.878839 95.231305 
L 280.604846 97.028873 
L 281.317408 94.682956 
L 282.017014 94.541584 
L 282.704126 94.046691 
L 283.379182 96.935203 
L 284.0426 97.433941 
L 284.694772 96.273179 
L 285.336074 97.617433 
L 285.966863 97.717608 
L 286.587477 96.682813 
L 287.19824 98.625584 
L 287.799459 97.648713 
L 288.391428 99.582012 
L 288.974428 96.902842 
L 289.548726 97.912665 
L 290.114578 97.954235 
L 290.672229 98.206153 
L 291.221914 97.759877 
L 291.763856 97.769033 
L 292.29827 98.649759 
L 292.825364 98.994075 
L 293.345335 99.092029 
L 293.858373 96.799338 
L 294.364659 100.577383 
L 294.864371 99.520114 
L 295.357676 100.403668 
L 295.844736 100.471974 
L 296.325708 99.294448 
L 296.800742 100.100074 
L 297.269982 98.688313 
L 297.733569 99.931137 
L 298.191637 100.681122 
L 298.644316 101.036527 
L 299.091731 100.951507 
L 299.534003 101.745058 
L 299.971249 99.905447 
L 300.403582 99.414363 
L 300.831111 101.422518 
L 301.253943 101.149346 
L 301.672178 102.346828 
L 302.085915 101.699996 
L 302.495252 102.201825 
L 302.900279 101.069692 
L 303.301087 101.025076 
L 303.697764 102.163871 
L 304.090392 100.41198 
L 304.479054 102.545873 
L 305.244796 103.772365 
L 305.622027 102.795635 
L 305.995595 103.563236 
L 306.365572 103.911257 
L 306.732024 102.768287 
L 307.09502 104.799581 
L 307.454623 102.397166 
L 307.810896 103.493647 
L 308.163901 103.587364 
L 308.513697 103.912452 
L 308.860341 104.5189 
L 309.20389 103.87327 
L 309.544399 104.729421 
L 309.881921 104.480134 
L 310.216508 105.176748 
L 310.54821 104.905309 
L 310.877078 106.960132 
L 311.203158 106.439879 
L 311.526498 104.73928 
L 311.847144 104.21891 
L 312.165139 105.897143 
L 312.480528 103.983684 
L 313.103655 106.992745 
L 313.411475 105.617639 
L 313.716851 105.384767 
L 314.019823 105.683944 
L 314.320428 106.762648 
L 314.618703 106.518502 
L 314.914683 107.717481 
L 315.208404 106.681455 
L 315.4999 106.551061 
L 316.076349 108.732846 
L 316.361367 106.810722 
L 316.644289 107.708967 
L 316.925146 107.906182 
L 317.203968 108.559212 
L 317.480784 107.580283 
L 317.755623 108.425897 
L 318.028512 108.330679 
L 318.29948 106.435494 
L 318.568552 106.925424 
L 318.835757 108.573426 
L 319.101118 108.269205 
L 319.364662 107.041709 
L 319.626413 107.682202 
L 319.886395 109.173649 
L 320.144633 107.630254 
L 320.401149 110.195659 
L 320.655966 108.631552 
L 320.909107 108.349874 
L 321.160593 107.563118 
L 321.410446 109.311306 
L 321.658687 107.868177 
L 321.905337 108.73352 
L 322.150416 107.681398 
L 322.393943 109.168412 
L 322.635939 108.698737 
L 322.876423 109.456875 
L 323.352928 107.878041 
L 323.588985 108.174001 
L 323.823603 109.81948 
L 324.056799 109.213408 
L 324.288591 109.466801 
L 324.518994 110.217944 
L 324.748026 109.860602 
L 324.975703 110.075073 
L 325.427054 110.829809 
L 325.650759 110.523618 
L 325.873172 109.192946 
L 326.094306 110.700375 
L 326.314177 111.344337 
L 326.532798 110.45804 
L 326.750184 111.359167 
L 326.966349 111.107701 
L 327.181306 110.324915 
L 327.395069 110.664427 
L 327.607651 110.366921 
L 328.029324 111.598021 
L 328.23844 113.3857 
L 328.446426 110.891686 
L 328.653293 111.0165 
L 328.859054 112.142635 
L 329.063721 110.472179 
L 329.267305 110.386763 
L 329.671269 113.725193 
L 329.871672 111.0103 
L 330.071036 112.024668 
L 330.466693 112.334985 
L 330.663006 111.664584 
L 330.858322 110.587714 
L 331.052652 112.969672 
L 331.246005 111.877269 
L 331.629821 113.264242 
L 332.009847 111.278678 
L 332.198461 111.832537 
L 332.386155 111.527686 
L 332.758819 112.7512 
L 332.943806 114.26288 
L 333.127908 111.039174 
L 333.311134 112.501182 
L 333.493491 109.615648 
L 333.674987 111.89021 
L 333.855632 111.429077 
L 334.035433 111.902743 
L 334.214397 112.738287 
L 334.392533 112.255379 
L 334.569847 112.464565 
L 334.746349 113.619447 
L 334.922044 113.460775 
L 335.096941 114.443318 
L 335.444368 114.049972 
L 335.616912 112.392258 
L 335.788686 112.387909 
L 335.959696 113.88439 
L 336.468213 113.392377 
L 336.636236 114.944138 
L 336.970098 113.503849 
L 337.135948 114.724751 
L 337.301087 114.985528 
L 337.46552 114.114651 
L 337.629253 114.797624 
L 337.792292 114.888726 
L 337.954644 114.262151 
L 338.116313 114.985419 
L 338.277306 112.571457 
L 338.437628 115.408599 
L 338.597285 112.638326 
L 338.914625 114.524488 
L 339.072319 111.527891 
L 339.229369 115.524481 
L 339.385781 114.847795 
L 339.541559 112.616535 
L 339.69671 113.579018 
L 340.005146 112.804769 
L 340.158442 114.846472 
L 340.31113 112.178076 
L 340.463214 113.873091 
L 340.614699 113.731056 
L 340.765591 113.838105 
L 340.915893 112.18851 
L 341.214747 114.498815 
L 341.363308 112.472669 
L 341.511297 113.126966 
L 341.65872 114.675606 
L 341.80558 114.682666 
L 341.951881 114.268434 
L 342.097629 115.936565 
L 342.242826 114.069967 
L 342.387477 115.595196 
L 342.531587 112.93535 
L 342.675159 116.196632 
L 342.818197 113.803454 
L 342.960706 116.006204 
L 343.102688 114.120617 
L 343.244149 115.047145 
L 343.385092 114.778844 
L 343.52552 115.39833 
L 343.665437 115.098625 
L 343.804847 115.379085 
L 344.082162 116.687948 
L 344.220074 116.177106 
L 344.357493 117.785958 
L 344.494422 114.376874 
L 344.630867 116.869196 
L 344.766829 114.527306 
L 344.902312 116.627155 
L 345.03732 114.817649 
L 345.171856 114.626747 
L 345.305923 114.947689 
L 345.439525 115.790216 
L 345.572664 117.691794 
L 345.705345 114.59121 
L 345.837569 114.177893 
L 346.100662 116.1249 
L 346.361969 114.292472 
L 346.49196 115.817821 
L 346.621513 115.989169 
L 346.750631 115.609345 
L 346.879318 116.83352 
L 347.007576 115.26467 
L 347.135407 116.786413 
L 347.262815 115.480524 
L 347.389803 117.788669 
L 347.516373 116.072741 
L 347.642528 117.53615 
L 347.768271 114.701131 
L 348.01853 116.825165 
L 348.143052 117.021575 
L 348.267172 118.348949 
L 348.390894 117.099084 
L 348.514218 118.189523 
L 348.637149 117.574108 
L 348.759688 118.793664 
L 348.881838 117.880402 
L 349.003602 119.426292 
L 349.124981 118.520075 
L 349.245979 118.610687 
L 349.486839 117.9286 
L 349.606706 116.973463 
L 349.7262 119.785146 
L 349.964082 117.508299 
L 350.082474 117.521473 
L 350.200502 117.70728 
L 350.31817 118.764152 
L 350.435478 118.047007 
L 350.552431 118.845532 
L 350.669028 116.806439 
L 350.785274 118.227007 
L 350.901169 117.332668 
L 351.016717 118.056221 
L 351.131918 119.491944 
L 351.246776 118.492873 
L 351.361291 119.008503 
L 351.475467 117.558984 
L 351.589305 118.624339 
L 351.702808 117.911112 
L 351.815976 118.771964 
L 351.928813 117.326574 
L 352.265351 118.225173 
L 352.376879 119.532908 
L 352.488085 118.203655 
L 352.59897 119.22671 
L 352.709537 118.874392 
L 352.819787 116.96725 
L 353.039344 118.042032 
L 353.148655 117.521571 
L 353.257655 117.863596 
L 353.366348 120.516639 
L 353.582817 119.216492 
L 353.690597 119.091468 
L 353.798075 119.458356 
L 353.905254 120.41112 
L 354.012135 116.804252 
L 354.118721 119.750688 
L 354.225011 118.047217 
L 354.436716 120.214544 
L 354.542133 119.281598 
L 354.752105 120.944856 
L 354.856663 120.911848 
L 354.960938 120.63004 
L 355.06493 121.087591 
L 355.168643 120.023322 
L 355.375232 120.933566 
L 355.478113 119.634998 
L 355.580719 120.091085 
L 355.683052 119.125972 
L 355.785114 119.172379 
L 355.988428 119.786243 
L 356.190675 120.507618 
L 356.2914 120.642536 
L 356.391863 120.089486 
L 356.492065 120.820548 
L 356.592006 120.774986 
L 356.691688 120.413217 
L 356.791112 120.482463 
L 356.89028 118.604998 
L 356.989194 119.633551 
L 357.087853 122.390323 
L 357.577392 118.905304 
L 357.674557 120.918088 
L 357.771477 120.670525 
L 357.868154 119.626117 
L 357.964588 122.027797 
L 358.252449 119.494559 
L 358.347926 120.297676 
L 358.443167 117.9088 
L 358.538172 120.427571 
L 358.727483 119.230135 
L 358.82179 120.46762 
L 358.915866 118.323277 
L 359.009713 120.14545 
L 359.103332 120.118747 
L 359.196723 120.822014 
L 359.289889 120.296712 
L 359.382829 121.841429 
L 359.475545 121.727139 
L 359.66031 120.486376 
L 359.752361 120.229776 
L 359.844192 122.277037 
L 359.935805 121.431633 
L 360.0272 122.343888 
L 360.118378 121.771047 
L 360.209341 122.630112 
L 360.300089 121.764719 
L 360.390624 123.005076 
L 360.571057 121.298269 
L 360.750648 120.877205 
L 360.84013 121.323599 
L 361.018472 123.102298 
L 361.195991 123.337674 
L 361.548591 120.987514 
L 361.723687 121.982906 
L 361.810937 121.597079 
L 361.89799 120.021463 
L 362.071507 122.588914 
L 362.157972 121.783569 
L 362.244244 119.688034 
L 362.330323 122.687632 
L 362.41621 121.825303 
L 362.501905 123.188191 
L 362.58741 121.227824 
L 362.757852 124.086545 
L 363.012108 121.321472 
L 363.180684 124.428716 
L 363.264695 120.479713 
L 363.43217 123.717766 
L 363.515635 123.743237 
L 363.598919 123.29112 
L 363.682023 121.204643 
L 363.930264 124.928538 
L 364.012657 122.036272 
L 364.094873 122.335632 
L 364.176914 123.259118 
L 364.25878 122.864743 
L 364.340473 123.129536 
L 364.50334 124.282909 
L 364.665521 122.893929 
L 364.746355 124.32908 
L 364.82702 124.073296 
L 364.987845 122.424349 
L 365.068006 123.436527 
L 365.148 123.30514 
L 365.227828 122.88369 
L 365.38699 123.349505 
L 365.466325 121.494818 
L 365.545496 124.270736 
L 365.624505 123.662104 
L 365.703352 123.237844 
L 365.782037 124.82157 
L 365.938927 122.564377 
L 366.017133 122.933201 
L 366.09518 122.823979 
L 366.173069 124.506255 
L 366.250801 124.121683 
L 366.405795 121.787243 
L 366.483059 123.873724 
L 366.560168 123.445602 
L 366.637122 124.694967 
L 366.713923 123.090261 
L 366.790571 123.399281 
L 366.94341 122.109456 
L 367.019603 123.614815 
L 367.24728 121.604226 
L 367.623772 124.212512 
L 367.698631 123.915837 
L 367.773344 124.526533 
L 367.996617 123.49689 
L 368.070754 123.665524 
L 368.218602 125.328376 
L 368.365883 123.620684 
L 368.585754 125.038109 
L 368.804375 122.593404 
L 369.021761 124.473415 
L 369.093951 123.243795 
L 369.166006 123.381935 
L 369.237926 125.525799 
L 369.309712 124.64761 
L 369.381364 125.104419 
L 369.452883 123.78129 
L 369.595524 126.363919 
L 369.737638 123.854326 
L 369.808498 125.732352 
L 369.879228 124.857941 
L 369.949829 125.020316 
L 370.0203 125.676306 
L 370.090642 124.258571 
L 370.160856 124.43223 
L 370.230942 125.384726 
L 370.370733 123.365601 
L 370.440438 125.297483 
L 370.510017 124.776523 
L 370.718003 123.431056 
L 370.92487 126.555161 
L 370.993579 125.620551 
L 371.062166 126.03476 
L 371.198975 125.491762 
L 371.267197 124.287942 
L 371.335298 125.508245 
L 371.403279 124.330988 
L 371.538882 125.163946 
L 371.674008 124.469436 
L 371.741394 124.834843 
L 371.808662 124.298903 
L 372.009763 127.53663 
L 372.209819 122.299043 
L 372.342613 126.475174 
L 372.54095 125.234588 
L 372.606836 123.227665 
L 372.803819 126.126265 
L 372.869256 125.250015 
L 373.129899 127.818617 
L 373.259561 125.549907 
L 373.324229 126.233346 
L 373.453239 124.651328 
L 373.517582 126.980456 
L 373.581818 125.845695 
" clip-path="url(#p80d6201883)" style="fill: none; stroke: #0000ff; stroke-width: 1.5; stroke-linecap: square"/>
   </g>
   <g id="line2d_39">
    <path d="M 69.218182 50.260928 
L 373.581818 133.562655 
L 373.581818 133.562655 
" clip-path="url(#p80d6201883)" style="fill: none; stroke: #008000; stroke-width: 1.5; stroke-linecap: square"/>
   </g>
   <g id="line2d_40">
    <path d="M 69.218182 75.51291 
L 373.581818 242.116364 
L 373.581818 242.116364 
" clip-path="url(#p80d6201883)" style="fill: none; stroke: #ff0000; stroke-width: 1.5; stroke-linecap: square"/>
   </g>
   <g id="line2d_41">
    <path d="M 69.218182 45.233834 
L 373.581818 128.535561 
L 373.581818 128.535561 
" clip-path="url(#p80d6201883)" style="fill: none; stroke: #000000; stroke-width: 1.5; stroke-linecap: square"/>
   </g>
   <g id="patch_3">
    <path d="M 54 252 
L 54 34.56 
" style="fill: none; stroke: #000000; stroke-width: 0.8; stroke-linejoin: miter; stroke-linecap: square"/>
   </g>
   <g id="patch_4">
    <path d="M 388.8 252 
L 388.8 34.56 
" style="fill: none; stroke: #000000; stroke-width: 0.8; stroke-linejoin: miter; stroke-linecap: square"/>
   </g>
   <g id="patch_5">
    <path d="M 54 252 
L 388.8 252 
" style="fill: none; stroke: #000000; stroke-width: 0.8; stroke-linejoin: miter; stroke-linecap: square"/>
   </g>
   <g id="patch_6">
    <path d="M 54 34.56 
L 388.8 34.56 
" style="fill: none; stroke: #000000; stroke-width: 0.8; stroke-linejoin: miter; stroke-linecap: square"/>
   </g>
  </g>
 </g>
 <defs>
  <clipPath id="p80d6201883">
   <rect x="54" y="34.56" width="334.8" height="217.44"/>
  </clipPath>
 </defs>
</svg>
