<?xml version="1.0" encoding="utf-8" standalone="no"?>
<!DOCTYPE svg PUBLIC "-//W3C//DTD SVG 1.1//EN"
  "http://www.w3.org/Graphics/SVG/1.1/DTD/svg11.dtd">
<svg xmlns:xlink="http://www.w3.org/1999/xlink" width="432pt" height="288pt" viewBox="0 0 432 288" xmlns="http://www.w3.org/2000/svg" version="1.1">
 <metadata>
  <rdf:RDF xmlns:dc="http://purl.org/dc/elements/1.1/" xmlns:cc="http://creativecommons.org/ns#" xmlns:rdf="http://www.w3.org/1999/02/22-rdf-syntax-ns#">
   <cc:Work>
    <dc:type rdf:resource="http://purl.org/dc/dcmitype/StillImage"/>
    <dc:date>2022-01-10T01:12:08.942268</dc:date>
    <dc:format>image/svg+xml</dc:format>
    <dc:creator>
     <cc:Agent>
      <dc:title>Matplotlib v3.5.1, https://matplotlib.org/</dc:title>
     </cc:Agent>
    </dc:creator>
   </cc:Work>
  </rdf:RDF>
 </metadata>
 <defs>
  <style type="text/css">*{stroke-linejoin: round; stroke-linecap: butt}</style>
 </defs>
 <g id="figure_1">
  <g id="patch_1">
   <path d="M 0 288 
L 432 288 
L 432 0 
L 0 0 
L 0 288 
z
" style="fill: none"/>
  </g>
  <g id="axes_1">
   <g id="patch_2">
    <path d="M 54 252 
L 388.8 252 
L 388.8 34.56 
L 54 34.56 
z
" style="fill: #ffffff"/>
   </g>
   <g id="PolyCollection_1">
    <defs>
     <path id="ma2c9b71cf2" d="M 69.218182 -193.508577 
L 69.218182 -190.630252 
L 72.56614 -191.840185 
L 75.645963 -189.978037 
L 78.497434 -190.215073 
L 81.15209 -190.746963 
L 83.635354 -189.708367 
L 85.968023 -189.178425 
L 88.167321 -189.42744 
L 90.247679 -188.893634 
L 92.221304 -188.550545 
L 94.098615 -188.89995 
L 95.888578 -188.240956 
L 97.598959 -188.181026 
L 99.236536 -188.414176 
L 100.807254 -188.009303 
L 102.316359 -188.133026 
L 103.768503 -187.870753 
L 105.16783 -187.790726 
L 106.518047 -187.835824 
L 107.822486 -187.740704 
L 109.084148 -187.765325 
L 110.30575 -187.817192 
L 111.489759 -187.595317 
L 112.638419 -187.494122 
L 113.753779 -187.314525 
L 114.837717 -187.29994 
L 115.891954 -187.501032 
L 116.918075 -186.968917 
L 117.91754 -187.190491 
L 118.8917 -187.161806 
L 119.841804 -187.319137 
L 120.769011 -186.910592 
L 121.6744 -187.02065 
L 122.558973 -186.874543 
L 123.423667 -187.037396 
L 124.269355 -186.782743 
L 125.096854 -187.016805 
L 125.906932 -187.007138 
L 126.700305 -186.882776 
L 127.47765 -186.784581 
L 128.2396 -186.897075 
L 128.986755 -186.706343 
L 129.719677 -186.937974 
L 130.438899 -186.693611 
L 131.144923 -186.751938 
L 131.838225 -186.764346 
L 132.519256 -186.427468 
L 133.188443 -186.762999 
L 133.84619 -186.664255 
L 134.492881 -186.709543 
L 135.128883 -186.639266 
L 135.754543 -186.608555 
L 136.370192 -186.491405 
L 136.976146 -186.745163 
L 137.572704 -186.597506 
L 138.160155 -186.528736 
L 138.738771 -186.804501 
L 139.308814 -186.70618 
L 139.870536 -186.664044 
L 140.424175 -186.685329 
L 140.969961 -186.586229 
L 141.508113 -186.66237 
L 142.038842 -186.58512 
L 142.56235 -186.515343 
L 143.078831 -186.615099 
L 143.588471 -186.47793 
L 144.091448 -186.484554 
L 144.587936 -186.437928 
L 145.078099 -186.575186 
L 145.562096 -186.636775 
L 146.04008 -186.40847 
L 146.512199 -186.776631 
L 146.978596 -186.418465 
L 147.439407 -186.67644 
L 147.894764 -186.689959 
L 148.344796 -187.039286 
L 148.789624 -186.639254 
L 149.229369 -186.764222 
L 149.664145 -186.330588 
L 150.094063 -186.692463 
L 150.51923 -186.696383 
L 150.93975 -186.721923 
L 151.355725 -186.406431 
L 151.76725 -186.52432 
L 152.17442 -186.559784 
L 152.577327 -186.823506 
L 152.976059 -186.503307 
L 153.370701 -186.960705 
L 153.761336 -186.427334 
L 162.733995 -186.323197 
L 175.68052 -183.284557 
L 185.350408 -177.936993 
L 193.071664 -173.757933 
L 199.499445 -168.124543 
L 205.005572 -164.520399 
L 209.821505 -160.095489 
L 214.101162 -154.050761 
L 217.952098 -152.84778 
L 221.452441 -150.007974 
L 224.660736 -145.856695 
L 227.621985 -139.161881 
L 230.371529 -139.836454 
L 232.93763 -139.453083 
L 235.343241 -135.125121 
L 237.607262 -133.2312 
L 239.745437 -131.477688 
L 241.771022 -132.3983 
L 243.695286 -131.439984 
L 245.527882 -128.087353 
L 247.277149 -130.547403 
L 248.950336 -126.345941 
L 250.553787 -125.932409 
L 252.093082 -123.028797 
L 253.573159 -124.435338 
L 254.998405 -123.983993 
L 256.372739 -123.763908 
L 257.699672 -124.391733 
L 258.982365 -122.516139 
L 260.223675 -117.675892 
L 261.426186 -119.201273 
L 262.592253 -119.463312 
L 263.724018 -117.916699 
L 264.823443 -113.795863 
L 265.892324 -116.396578 
L 266.932313 -115.881669 
L 267.944931 -114.669207 
L 268.931581 -114.268692 
L 269.893562 -115.199124 
L 270.832078 -113.731004 
L 271.748246 -113.866239 
L 272.643106 -113.544871 
L 273.517627 -113.468473 
L 274.372712 -113.241559 
L 275.209207 -110.302817 
L 276.027903 -109.408866 
L 276.829541 -110.579023 
L 277.614818 -107.984701 
L 278.384389 -112.534633 
L 279.138869 -109.576235 
L 279.878839 -108.53188 
L 280.604846 -108.211701 
L 281.317408 -108.371223 
L 282.017014 -107.261964 
L 282.704126 -105.967047 
L 283.379182 -105.912376 
L 284.0426 -102.476877 
L 284.694772 -107.098149 
L 285.336074 -104.22595 
L 285.966863 -102.789372 
L 286.587477 -105.792911 
L 287.19824 -104.230935 
L 287.799459 -100.695864 
L 288.391428 -101.630509 
L 288.974428 -102.749265 
L 289.548726 -102.088866 
L 290.114578 -101.732344 
L 290.672229 -102.194168 
L 291.221914 -100.812375 
L 291.763856 -99.637592 
L 292.29827 -98.436846 
L 292.825364 -100.733467 
L 293.345335 -99.934674 
L 293.858373 -97.904278 
L 294.364659 -96.635291 
L 294.864371 -98.47252 
L 295.357676 -99.267489 
L 295.844736 -99.894125 
L 296.325708 -95.874443 
L 296.800742 -100.83544 
L 297.269982 -96.986111 
L 297.733569 -98.679914 
L 298.191637 -94.408943 
L 298.644316 -94.510505 
L 299.091731 -97.186847 
L 299.534003 -98.762544 
L 299.971249 -96.062788 
L 300.403582 -96.32069 
L 300.831111 -93.579886 
L 301.253943 -96.349883 
L 301.672178 -94.362559 
L 302.085915 -96.083473 
L 302.495252 -95.36388 
L 302.900279 -95.380315 
L 303.301087 -93.820639 
L 303.697764 -93.922772 
L 304.090392 -92.917882 
L 304.479054 -94.996485 
L 304.86383 -92.978429 
L 305.244796 -90.837645 
L 305.622027 -90.928863 
L 305.995595 -91.991958 
L 306.365572 -90.887892 
L 306.732024 -92.533944 
L 307.09502 -93.115937 
L 307.454623 -92.508042 
L 307.810896 -93.629896 
L 308.163901 -92.104471 
L 308.513697 -92.143808 
L 308.860341 -91.702156 
L 309.20389 -91.859245 
L 309.544399 -90.367014 
L 309.881921 -90.842039 
L 310.216508 -90.467267 
L 310.54821 -90.961455 
L 310.877078 -90.698761 
L 311.203158 -90.242025 
L 311.526498 -90.969749 
L 311.847144 -90.627113 
L 312.165139 -86.917371 
L 312.480528 -88.850059 
L 312.793353 -88.806711 
L 313.103655 -88.106249 
L 313.411475 -88.002025 
L 313.716851 -84.116375 
L 314.019823 -85.057122 
L 314.320428 -88.34345 
L 314.618703 -88.200992 
L 314.914683 -86.36926 
L 315.208404 -83.60131 
L 315.4999 -84.97304 
L 315.789204 -82.606993 
L 316.076349 -88.429854 
L 316.361367 -84.972831 
L 316.644289 -85.950704 
L 316.925146 -85.076432 
L 317.203968 -83.177833 
L 317.480784 -85.775222 
L 317.755623 -85.635791 
L 318.028512 -83.502415 
L 318.29948 -87.250293 
L 318.568552 -83.043653 
L 318.835757 -84.641755 
L 319.101118 -86.108346 
L 319.364662 -82.554755 
L 319.626413 -83.101602 
L 319.886395 -83.467677 
L 320.144633 -82.978077 
L 320.401149 -83.100526 
L 320.655966 -84.24769 
L 320.909107 -83.982722 
L 321.160593 -78.175974 
L 321.410446 -84.040293 
L 321.658687 -81.767388 
L 321.905337 -81.733268 
L 322.150416 -80.200596 
L 322.393943 -83.310941 
L 322.635939 -84.241832 
L 322.876423 -78.856101 
L 323.115413 -78.399565 
L 323.352928 -81.042716 
L 323.588985 -81.174097 
L 323.823603 -79.443226 
L 324.056799 -78.855557 
L 324.288591 -79.952403 
L 324.518994 -78.44247 
L 324.748026 -76.310519 
L 324.975703 -78.914962 
L 325.20204 -78.64681 
L 325.427054 -75.987451 
L 325.650759 -79.528091 
L 325.873172 -77.280068 
L 326.094306 -81.176828 
L 326.314177 -81.075846 
L 326.532798 -78.404883 
L 326.750184 -81.405966 
L 326.966349 -78.060642 
L 327.181306 -78.496785 
L 327.395069 -78.846963 
L 327.607651 -76.948781 
L 327.819065 -76.699577 
L 328.029324 -77.644889 
L 328.23844 -79.479365 
L 328.446426 -78.165346 
L 328.653293 -73.559713 
L 328.859054 -75.856693 
L 329.063721 -75.529565 
L 329.267305 -77.948931 
L 329.469817 -76.074118 
L 329.671269 -77.833264 
L 329.871672 -76.553494 
L 330.071036 -76.976057 
L 330.269373 -77.163047 
L 330.466693 -76.06997 
L 330.663006 -75.757947 
L 330.858322 -74.289171 
L 331.052652 -73.567186 
L 331.246005 -74.518883 
L 331.438392 -75.44634 
L 331.629821 -74.187735 
L 331.820303 -75.591458 
L 332.009847 -77.599967 
L 332.198461 -77.333885 
L 332.386155 -75.485888 
L 332.572938 -77.321634 
L 332.758819 -72.12648 
L 332.943806 -74.188018 
L 333.127908 -76.429332 
L 333.311134 -73.910204 
L 333.493491 -75.016735 
L 333.674987 -77.217751 
L 333.855632 -72.30477 
L 334.035433 -77.427841 
L 334.214397 -76.131158 
L 334.392533 -72.852106 
L 334.569847 -74.758139 
L 334.746349 -72.94512 
L 334.922044 -74.6787 
L 335.096941 -73.738814 
L 335.271047 -73.902362 
L 335.444368 -72.719403 
L 335.616912 -71.669036 
L 335.788686 -72.870506 
L 335.959696 -72.541353 
L 336.12995 -73.528827 
L 336.299453 -74.521433 
L 336.468213 -74.200296 
L 336.636236 -72.650955 
L 336.803529 -72.215934 
L 336.970098 -74.168137 
L 337.135948 -72.456572 
L 337.301087 -68.303445 
L 337.46552 -73.921087 
L 337.629253 -72.099614 
L 337.792292 -73.125005 
L 337.954644 -71.25144 
L 338.116313 -70.753834 
L 338.277306 -70.251076 
L 338.437628 -71.162893 
L 338.597285 -68.047675 
L 338.756282 -66.4487 
L 338.914625 -71.012146 
L 339.072319 -68.687824 
L 339.229369 -67.662531 
L 339.385781 -71.174862 
L 339.541559 -72.625264 
L 339.69671 -71.472265 
L 339.851237 -71.388616 
L 340.005146 -72.127767 
L 340.158442 -71.852941 
L 340.31113 -70.077329 
L 340.463214 -70.128023 
L 340.614699 -68.16379 
L 340.765591 -68.223021 
L 340.915893 -70.771968 
L 341.06561 -68.267368 
L 341.214747 -68.239888 
L 341.363308 -69.495106 
L 341.511297 -69.397127 
L 341.65872 -71.694567 
L 341.80558 -69.925072 
L 341.951881 -68.985083 
L 342.097629 -69.634704 
L 342.242826 -67.372168 
L 342.387477 -71.228083 
L 342.531587 -69.578148 
L 342.675159 -65.984226 
L 342.818197 -68.651504 
L 342.960706 -65.450257 
L 343.102688 -69.041894 
L 343.244149 -69.536737 
L 343.385092 -69.657903 
L 343.52552 -66.923698 
L 343.665437 -69.903615 
L 343.804847 -70.760379 
L 343.943755 -68.466337 
L 344.082162 -66.150888 
L 344.220074 -67.133227 
L 344.357493 -70.883472 
L 344.494422 -65.902747 
L 344.630867 -67.226976 
L 344.766829 -65.036174 
L 344.902312 -66.982476 
L 345.03732 -67.590657 
L 345.171856 -67.004987 
L 345.305923 -65.241361 
L 345.439525 -66.253479 
L 345.572664 -69.049904 
L 345.705345 -66.725609 
L 345.837569 -66.936186 
L 345.969341 -66.502301 
L 346.100662 -67.525345 
L 346.231538 -68.574196 
L 346.361969 -66.664639 
L 346.49196 -66.686486 
L 346.621513 -64.98387 
L 346.750631 -64.308544 
L 346.879318 -65.755691 
L 347.007576 -64.255462 
L 347.135407 -66.725163 
L 347.262815 -66.074591 
L 347.389803 -68.312246 
L 347.516373 -63.454528 
L 347.642528 -64.912767 
L 347.768271 -65.298447 
L 347.893604 -61.207195 
L 348.01853 -66.123892 
L 348.143052 -62.915046 
L 348.267172 -63.496085 
L 348.390894 -62.7158 
L 348.514218 -66.531022 
L 348.637149 -65.510933 
L 348.759688 -64.211523 
L 348.881838 -65.282084 
L 349.003602 -67.250823 
L 349.124981 -65.495381 
L 349.245979 -62.867215 
L 349.366597 -65.834092 
L 349.486839 -64.451123 
L 349.606706 -64.400067 
L 349.7262 -66.561007 
L 349.845325 -62.536982 
L 349.964082 -61.15105 
L 350.082474 -62.034123 
L 350.200502 -62.6723 
L 350.31817 -63.883953 
L 350.435478 -64.946737 
L 350.552431 -65.571517 
L 350.669028 -58.015944 
L 350.785274 -63.265948 
L 350.901169 -61.896795 
L 351.016717 -64.793442 
L 351.131918 -62.760807 
L 351.246776 -63.480458 
L 351.361291 -63.078856 
L 351.475467 -62.596761 
L 351.589305 -63.053754 
L 351.702808 -62.393445 
L 351.815976 -61.943634 
L 351.928813 -60.014146 
L 352.041319 -63.559486 
L 352.153498 -61.820547 
L 352.265351 -62.502292 
L 352.376879 -61.26669 
L 352.488085 -64.23176 
L 352.59897 -64.025666 
L 352.709537 -63.760423 
L 352.819787 -62.898117 
L 352.929722 -63.337953 
L 353.039344 -63.622496 
L 353.148655 -62.513701 
L 353.257655 -63.488309 
L 353.366348 -62.410888 
L 353.474735 -59.167082 
L 353.582817 -64.275823 
L 353.690597 -63.609011 
L 353.798075 -62.322153 
L 353.905254 -62.030818 
L 354.012135 -64.322939 
L 354.118721 -58.142821 
L 354.225011 -62.004116 
L 354.331009 -61.841792 
L 354.436716 -60.256401 
L 354.542133 -58.341202 
L 354.647263 -61.053094 
L 354.752105 -64.305447 
L 354.856663 -62.149504 
L 354.960938 -60.013841 
L 355.06493 -59.749968 
L 355.168643 -61.625428 
L 355.272076 -60.262823 
L 355.375232 -59.048736 
L 355.478113 -62.238941 
L 355.580719 -63.362159 
L 355.683052 -61.028307 
L 355.785114 -62.476724 
L 355.886905 -58.837831 
L 355.988428 -61.91345 
L 356.089684 -58.812569 
L 356.190675 -61.094804 
L 356.2914 -62.010362 
L 356.391863 -63.329686 
L 356.492065 -59.156284 
L 356.592006 -63.410651 
L 356.691688 -61.338856 
L 356.791112 -61.96518 
L 356.89028 -61.908182 
L 356.989194 -61.341698 
L 357.087853 -63.491075 
L 357.186261 -60.142693 
L 357.284417 -63.626412 
L 357.382323 -60.24431 
L 357.479981 -59.275431 
L 357.577392 -60.510945 
L 357.674557 -60.642528 
L 357.771477 -62.27969 
L 357.868154 -59.272644 
L 357.964588 -59.560088 
L 358.060781 -60.588438 
L 358.156734 -59.142107 
L 358.252449 -57.749129 
L 358.347926 -60.32454 
L 358.443167 -60.279143 
L 358.538172 -56.503888 
L 358.632944 -58.091671 
L 358.727483 -58.677814 
L 358.82179 -60.35964 
L 358.915866 -58.907934 
L 359.009713 -59.65902 
L 359.103332 -59.766375 
L 359.196723 -57.588064 
L 359.289889 -59.532479 
L 359.382829 -58.657691 
L 359.475545 -59.357616 
L 359.568039 -59.934063 
L 359.66031 -59.956334 
L 359.752361 -56.609361 
L 359.844192 -58.01133 
L 359.935805 -61.813483 
L 360.0272 -62.179528 
L 360.118378 -56.422118 
L 360.209341 -57.612293 
L 360.300089 -56.497168 
L 360.390624 -57.202188 
L 360.480946 -54.145029 
L 360.571057 -58.997388 
L 360.660957 -59.933305 
L 360.750648 -55.052837 
L 360.84013 -60.165287 
L 360.929404 -56.598004 
L 361.018472 -62.572587 
L 361.107334 -58.298329 
L 361.195991 -55.493135 
L 361.284445 -58.680592 
L 361.372695 -58.412292 
L 361.460744 -59.323851 
L 361.548591 -57.961272 
L 361.636239 -58.419977 
L 361.723687 -58.348436 
L 361.810937 -60.863888 
L 361.89799 -58.22536 
L 361.984846 -59.316695 
L 362.071507 -59.869455 
L 362.157972 -56.626028 
L 362.244244 -60.645781 
L 362.330323 -57.764561 
L 362.41621 -54.092197 
L 362.501905 -58.079115 
L 362.58741 -51.589023 
L 362.672726 -57.770967 
L 362.757852 -56.80076 
L 362.842791 -58.374945 
L 362.927543 -59.590028 
L 363.012108 -54.868482 
L 363.096488 -56.348792 
L 363.180684 -56.275399 
L 363.264695 -57.085861 
L 363.348524 -58.018508 
L 363.43217 -56.213298 
L 363.515635 -57.918381 
L 363.598919 -58.549588 
L 363.682023 -58.635577 
L 363.764948 -54.523531 
L 363.847695 -54.496685 
L 363.930264 -54.969827 
L 364.012657 -58.717854 
L 364.094873 -54.53624 
L 364.176914 -57.138408 
L 364.25878 -56.494112 
L 364.340473 -57.738587 
L 364.421993 -52.156463 
L 364.50334 -58.485841 
L 364.584516 -54.831921 
L 364.665521 -55.116852 
L 364.746355 -58.14254 
L 364.82702 -55.410176 
L 364.907517 -56.439998 
L 364.987845 -53.489058 
L 365.068006 -58.238728 
L 365.148 -52.919066 
L 365.227828 -55.583176 
L 365.307492 -56.471059 
L 365.38699 -54.851815 
L 365.466325 -55.296985 
L 365.545496 -56.188777 
L 365.624505 -57.115162 
L 365.703352 -59.589476 
L 365.782037 -52.318934 
L 365.860562 -52.984335 
L 365.938927 -55.833204 
L 366.017133 -56.164779 
L 366.09518 -56.190093 
L 366.173069 -56.163045 
L 366.250801 -52.920858 
L 366.328376 -55.730856 
L 366.405795 -52.948098 
L 366.483059 -52.627623 
L 366.560168 -52.067959 
L 366.637122 -54.51999 
L 366.713923 -53.612501 
L 366.790571 -56.311541 
L 366.867067 -50.29621 
L 366.94341 -54.04426 
L 367.019603 -56.897491 
L 367.095645 -55.122615 
L 367.171537 -54.366535 
L 367.24728 -54.205608 
L 367.322874 -53.993733 
L 367.398319 -53.819606 
L 367.473617 -55.165985 
L 367.548768 -53.152865 
L 367.623772 -53.345854 
L 367.698631 -54.567205 
L 367.773344 -54.623573 
L 367.847912 -55.772379 
L 367.922336 -51.482402 
L 367.996617 -52.37852 
L 368.070754 -50.185991 
L 368.144749 -55.565915 
L 368.218602 -48.660795 
L 368.292313 -55.208647 
L 368.365883 -53.967577 
L 368.439313 -54.143485 
L 368.512603 -52.822076 
L 368.585754 -55.340803 
L 368.658766 -53.182218 
L 368.731639 -53.613786 
L 368.804375 -51.533815 
L 368.876974 -49.492815 
L 368.949436 -54.035771 
L 369.021761 -54.161385 
L 369.093951 -53.99309 
L 369.166006 -52.451582 
L 369.237926 -50.68705 
L 369.309712 -52.170255 
L 369.381364 -55.053266 
L 369.452883 -51.48934 
L 369.52427 -52.35567 
L 369.595524 -55.157456 
L 369.666646 -50.301799 
L 369.737638 -54.183197 
L 369.808498 -53.172395 
L 369.879228 -52.590689 
L 369.949829 -55.563678 
L 370.0203 -54.164379 
L 370.090642 -49.921545 
L 370.160856 -51.903226 
L 370.230942 -51.222987 
L 370.300901 -52.414447 
L 370.370733 -49.0347 
L 370.440438 -51.523626 
L 370.510017 -52.681484 
L 370.579471 -52.40452 
L 370.648799 -51.263378 
L 370.718003 -49.938794 
L 370.787082 -53.547039 
L 370.856038 -54.230846 
L 370.92487 -50.639816 
L 370.993579 -51.964487 
L 371.062166 -49.706053 
L 371.130631 -49.011984 
L 371.198975 -49.948358 
L 371.267197 -51.895149 
L 371.335298 -51.468604 
L 371.403279 -51.90999 
L 371.47114 -52.365562 
L 371.538882 -49.507705 
L 371.606504 -50.313419 
L 371.674008 -50.461829 
L 371.741394 -49.936279 
L 371.808662 -51.136182 
L 371.875813 -50.607993 
L 371.942846 -50.441172 
L 372.009763 -54.131936 
L 372.076564 -51.757768 
L 372.143249 -51.651984 
L 372.209819 -54.370523 
L 372.276273 -50.683374 
L 372.342613 -51.308504 
L 372.408839 -50.952577 
L 372.474951 -48.55823 
L 372.54095 -50.80548 
L 372.606836 -49.132454 
L 372.672609 -52.409791 
L 372.73827 -51.052646 
L 372.803819 -50.906316 
L 372.869256 -46.659987 
L 372.934583 -50.864094 
L 372.999798 -49.560583 
L 373.064904 -49.758295 
L 373.129899 -51.863153 
L 373.194785 -45.883636 
L 373.259561 -48.043643 
L 373.324229 -51.60533 
L 373.388788 -50.857177 
L 373.453239 -47.253094 
L 373.517582 -52.049579 
L 373.581818 -47.636219 
L 373.581818 -52.662513 
L 373.581818 -52.662513 
L 373.517582 -57.258369 
L 373.453239 -54.721202 
L 373.388788 -55.066307 
L 373.324229 -56.278504 
L 373.259561 -53.876605 
L 373.194785 -53.874566 
L 373.129899 -56.120759 
L 373.064904 -55.980667 
L 372.999798 -54.712537 
L 372.934583 -56.673412 
L 372.869256 -53.969708 
L 372.803819 -55.252727 
L 372.73827 -55.513819 
L 372.672609 -57.643552 
L 372.606836 -55.022795 
L 372.54095 -56.257984 
L 372.474951 -54.627892 
L 372.408839 -54.822343 
L 372.342613 -55.698488 
L 372.276273 -56.960524 
L 372.209819 -59.637624 
L 372.143249 -58.270222 
L 372.076564 -56.937185 
L 372.009763 -58.731905 
L 371.942846 -55.417176 
L 371.875813 -55.354053 
L 371.808662 -57.161538 
L 371.741394 -55.278436 
L 371.674008 -54.13245 
L 371.606504 -56.212233 
L 371.538882 -56.487925 
L 371.47114 -56.277329 
L 371.403279 -57.032651 
L 371.335298 -56.497446 
L 371.267197 -57.102437 
L 371.198975 -55.901906 
L 371.130631 -55.662754 
L 371.062166 -58.327974 
L 370.993579 -56.668195 
L 370.92487 -56.892958 
L 370.856038 -58.142244 
L 370.787082 -58.44648 
L 370.718003 -54.911732 
L 370.648799 -56.357076 
L 370.579471 -56.870386 
L 370.510017 -60.521966 
L 370.440438 -57.338147 
L 370.370733 -56.076077 
L 370.300901 -55.84873 
L 370.230942 -57.54557 
L 370.160856 -55.975614 
L 370.090642 -57.468586 
L 370.0203 -58.905547 
L 369.949829 -60.17162 
L 369.879228 -57.51248 
L 369.808498 -57.745015 
L 369.737638 -59.492356 
L 369.666646 -55.10764 
L 369.595524 -59.368135 
L 369.52427 -56.924218 
L 369.452883 -57.52217 
L 369.381364 -59.759983 
L 369.309712 -60.064878 
L 369.237926 -56.501359 
L 369.166006 -56.913986 
L 369.093951 -59.275842 
L 369.021761 -58.343476 
L 368.949436 -57.981811 
L 368.876974 -55.973876 
L 368.804375 -57.391019 
L 368.731639 -58.027875 
L 368.658766 -58.876223 
L 368.585754 -58.787169 
L 368.512603 -59.269039 
L 368.439313 -58.826139 
L 368.365883 -60.097805 
L 368.292313 -59.093086 
L 368.218602 -54.635328 
L 368.144749 -59.647653 
L 368.070754 -58.499551 
L 367.996617 -57.912857 
L 367.922336 -58.530559 
L 367.847912 -60.447969 
L 367.773344 -62.09334 
L 367.698631 -59.590472 
L 367.623772 -57.631664 
L 367.548768 -59.473483 
L 367.473617 -58.363113 
L 367.398319 -58.664916 
L 367.322874 -60.434334 
L 367.24728 -59.374337 
L 367.171537 -60.097477 
L 367.095645 -60.134782 
L 367.019603 -62.886619 
L 366.94341 -60.090865 
L 366.867067 -57.544044 
L 366.790571 -61.018121 
L 366.713923 -58.431725 
L 366.637122 -58.243948 
L 366.560168 -58.788373 
L 366.483059 -57.601152 
L 366.405795 -59.323947 
L 366.328376 -59.943493 
L 366.250801 -60.192113 
L 366.173069 -61.126652 
L 366.09518 -61.30046 
L 366.017133 -60.377116 
L 365.938927 -60.225533 
L 365.860562 -60.929765 
L 365.782037 -57.430006 
L 365.703352 -64.367725 
L 365.624505 -62.305425 
L 365.545496 -61.064799 
L 365.466325 -60.646535 
L 365.38699 -60.405018 
L 365.307492 -60.443482 
L 365.227828 -60.985571 
L 365.148 -59.323674 
L 365.068006 -62.706927 
L 364.987845 -60.7724 
L 364.907517 -61.428689 
L 364.82702 -60.472474 
L 364.746355 -63.311968 
L 364.665521 -60.30329 
L 364.584516 -59.468833 
L 364.50334 -62.714518 
L 364.421993 -59.08174 
L 364.340473 -63.819037 
L 364.25878 -59.894403 
L 364.176914 -63.348479 
L 364.094873 -59.809249 
L 364.012657 -63.547095 
L 363.930264 -60.550795 
L 363.847695 -61.087974 
L 363.764948 -61.295821 
L 363.682023 -63.768669 
L 363.598919 -64.413063 
L 363.515635 -62.082018 
L 363.43217 -61.265121 
L 363.348524 -63.406119 
L 363.264695 -63.229011 
L 363.180684 -62.616451 
L 363.096488 -62.288073 
L 363.012108 -60.365284 
L 362.927543 -63.469464 
L 362.842791 -63.495105 
L 362.757852 -62.748017 
L 362.672726 -63.434625 
L 362.58741 -59.350593 
L 362.501905 -63.859983 
L 362.41621 -61.759367 
L 362.330323 -62.725954 
L 362.244244 -65.841433 
L 362.157972 -61.245508 
L 362.071507 -64.866159 
L 361.984846 -64.234471 
L 361.89799 -64.270472 
L 361.810937 -64.561937 
L 361.723687 -63.460135 
L 361.636239 -63.112441 
L 361.548591 -63.844962 
L 361.460744 -64.073418 
L 361.372695 -65.604949 
L 361.284445 -64.257546 
L 361.195991 -61.489692 
L 361.107334 -63.92936 
L 361.018472 -67.706468 
L 360.929404 -64.107369 
L 360.84013 -65.702454 
L 360.750648 -61.223909 
L 360.660957 -65.416844 
L 360.571057 -63.344347 
L 360.480946 -61.47721 
L 360.390624 -63.861842 
L 360.300089 -62.692897 
L 360.209341 -62.66455 
L 360.118378 -63.682647 
L 360.0272 -67.981883 
L 359.935805 -66.106667 
L 359.844192 -63.375382 
L 359.752361 -63.125853 
L 359.66031 -63.859918 
L 359.568039 -64.766581 
L 359.475545 -64.832951 
L 359.382829 -63.181608 
L 359.289889 -65.599199 
L 359.196723 -62.815183 
L 359.103332 -64.405287 
L 359.009713 -65.426307 
L 358.915866 -63.49643 
L 358.82179 -64.416035 
L 358.727483 -63.362762 
L 358.632944 -63.946137 
L 358.538172 -62.366474 
L 358.443167 -64.719484 
L 358.347926 -65.129085 
L 358.252449 -63.997384 
L 358.156734 -64.619646 
L 358.060781 -65.738902 
L 357.964588 -64.910605 
L 357.868154 -64.914679 
L 357.771477 -67.865036 
L 357.674557 -65.95833 
L 357.577392 -65.387584 
L 357.479981 -65.391844 
L 357.382323 -66.224495 
L 357.284417 -67.851738 
L 357.186261 -65.581972 
L 357.087853 -67.910088 
L 356.989194 -65.999622 
L 356.89028 -66.334808 
L 356.791112 -67.31987 
L 356.691688 -66.778172 
L 356.592006 -68.246471 
L 356.492065 -65.383868 
L 356.391863 -67.078927 
L 356.2914 -66.281233 
L 356.190675 -65.004382 
L 356.089684 -64.947782 
L 355.988428 -67.135908 
L 355.886905 -65.694455 
L 355.785114 -67.688426 
L 355.683052 -66.922295 
L 355.580719 -67.285803 
L 355.478113 -68.214816 
L 355.375232 -64.37758 
L 355.272076 -65.938163 
L 355.168643 -65.843124 
L 355.06493 -65.491164 
L 354.960938 -65.304637 
L 354.856663 -66.614563 
L 354.752105 -68.578954 
L 354.647263 -66.675713 
L 354.542133 -64.202203 
L 354.436716 -65.556229 
L 354.331009 -68.783355 
L 354.225011 -67.050888 
L 354.118721 -64.44466 
L 354.012135 -67.984343 
L 353.905254 -66.830191 
L 353.798075 -67.995211 
L 353.690597 -68.065591 
L 353.582817 -70.013987 
L 353.474735 -66.158194 
L 353.366348 -68.131108 
L 353.257655 -68.326741 
L 353.148655 -66.539573 
L 353.039344 -68.290418 
L 352.929722 -67.247874 
L 352.819787 -67.739316 
L 352.709537 -68.728354 
L 352.59897 -68.884379 
L 352.488085 -68.425157 
L 352.376879 -67.015868 
L 352.265351 -69.105542 
L 352.153498 -66.803894 
L 352.041319 -70.206098 
L 351.928813 -67.626918 
L 351.815976 -66.496054 
L 351.702808 -68.891499 
L 351.589305 -68.55074 
L 351.475467 -67.141359 
L 351.361291 -68.658222 
L 351.246776 -69.320634 
L 351.131918 -68.094221 
L 351.016717 -70.184841 
L 350.901169 -67.46213 
L 350.785274 -67.281202 
L 350.669028 -65.972877 
L 350.552431 -70.702627 
L 350.435478 -70.002491 
L 350.31817 -70.308809 
L 350.200502 -68.028389 
L 350.082474 -68.362009 
L 349.964082 -68.261374 
L 349.845325 -68.447423 
L 349.7262 -72.761717 
L 349.606706 -69.742224 
L 349.486839 -69.964907 
L 349.366597 -71.214218 
L 349.245979 -70.135359 
L 349.124981 -71.884616 
L 349.003602 -72.570336 
L 348.881838 -71.794805 
L 348.759688 -70.543561 
L 348.637149 -70.288185 
L 348.514218 -71.520023 
L 348.390894 -68.783935 
L 348.267172 -68.131124 
L 348.143052 -68.020627 
L 348.01853 -72.215531 
L 347.893604 -69.812413 
L 347.768271 -69.128837 
L 347.642528 -70.847161 
L 347.516373 -70.274922 
L 347.389803 -73.274474 
L 347.262815 -70.880075 
L 347.135407 -70.622686 
L 347.007576 -70.305621 
L 346.879318 -71.847088 
L 346.750631 -70.233731 
L 346.621513 -69.736067 
L 346.49196 -72.384847 
L 346.361969 -71.79995 
L 346.231538 -73.630366 
L 346.100662 -73.242414 
L 345.969341 -72.021726 
L 345.837569 -73.424993 
L 345.705345 -71.291208 
L 345.572664 -73.11066 
L 345.439525 -71.876016 
L 345.305923 -71.856218 
L 345.171856 -73.69685 
L 345.03732 -73.242644 
L 344.902312 -72.655004 
L 344.766829 -72.328846 
L 344.630867 -71.608848 
L 344.494422 -71.410754 
L 344.357493 -75.543625 
L 344.220074 -74.681877 
L 344.082162 -71.491809 
L 343.943755 -74.066436 
L 343.804847 -75.207426 
L 343.665437 -74.47862 
L 343.52552 -74.069292 
L 343.385092 -74.601506 
L 343.244149 -75.097867 
L 343.102688 -74.060644 
L 342.960706 -72.759147 
L 342.818197 -73.199772 
L 342.675159 -73.587773 
L 342.531587 -75.423489 
L 342.387477 -75.41253 
L 342.242826 -73.447703 
L 342.097629 -74.496872 
L 341.951881 -73.701749 
L 341.80558 -74.625974 
L 341.65872 -76.798439 
L 341.511297 -75.795976 
L 341.363308 -74.61262 
L 341.214747 -75.151986 
L 341.06561 -73.148539 
L 340.915893 -74.205547 
L 340.765591 -73.652353 
L 340.614699 -74.081766 
L 340.463214 -77.298239 
L 340.31113 -74.698633 
L 340.158442 -76.402995 
L 340.005146 -76.115123 
L 339.851237 -76.722713 
L 339.69671 -75.811139 
L 339.541559 -77.194716 
L 339.385781 -76.762472 
L 339.229369 -75.645645 
L 339.072319 -76.866776 
L 338.914625 -76.422986 
L 338.756282 -73.055279 
L 338.597285 -75.139077 
L 338.437628 -76.98556 
L 338.277306 -74.945807 
L 338.116313 -76.657796 
L 337.954644 -76.341978 
L 337.792292 -76.86401 
L 337.629253 -77.13575 
L 337.46552 -77.477742 
L 337.301087 -75.158722 
L 337.135948 -76.56933 
L 336.970098 -80.012469 
L 336.803529 -79.469295 
L 336.636236 -77.249342 
L 336.468213 -78.477484 
L 336.299453 -79.79751 
L 336.12995 -78.048065 
L 335.959696 -77.408421 
L 335.788686 -78.22182 
L 335.616912 -78.002731 
L 335.444368 -77.484028 
L 335.271047 -77.890386 
L 335.096941 -78.914591 
L 334.922044 -79.120006 
L 334.746349 -78.603313 
L 334.569847 -78.378824 
L 334.392533 -78.017133 
L 334.214397 -80.110441 
L 334.035433 -81.711186 
L 333.855632 -76.565361 
L 333.674987 -81.747328 
L 333.493491 -79.847691 
L 333.311134 -80.354455 
L 333.127908 -83.570458 
L 332.943806 -80.079217 
L 332.758819 -79.295339 
L 332.572938 -82.710058 
L 332.386155 -79.425666 
L 332.198461 -80.458325 
L 332.009847 -83.157694 
L 331.820303 -80.956584 
L 331.629821 -79.227688 
L 331.438392 -80.30439 
L 331.246005 -80.628321 
L 331.052652 -79.067239 
L 330.858322 -79.210927 
L 330.663006 -81.674332 
L 330.466693 -80.573435 
L 330.269373 -82.502826 
L 330.071036 -81.631544 
L 329.871672 -82.144155 
L 329.671269 -82.808682 
L 329.469817 -82.784332 
L 329.267305 -83.949212 
L 329.063721 -79.687444 
L 328.859054 -81.578099 
L 328.653293 -82.57748 
L 328.446426 -81.92894 
L 328.23844 -83.838544 
L 328.029324 -81.084876 
L 327.819065 -81.914216 
L 327.607651 -83.238192 
L 327.395069 -83.237482 
L 327.181306 -83.067737 
L 326.966349 -82.922564 
L 326.750184 -84.837065 
L 326.532798 -82.372998 
L 326.314177 -84.135043 
L 326.094306 -85.896482 
L 325.873172 -83.999605 
L 325.650759 -84.365817 
L 325.427054 -84.748387 
L 325.20204 -83.979655 
L 324.975703 -84.765483 
L 324.748026 -81.346723 
L 324.518994 -83.645595 
L 324.288591 -86.553191 
L 324.056799 -83.413824 
L 323.823603 -86.170083 
L 323.588985 -86.014116 
L 323.352928 -85.997666 
L 323.115413 -83.378014 
L 322.876423 -83.886918 
L 322.635939 -87.371235 
L 322.393943 -88.753029 
L 322.150416 -85.358681 
L 321.905337 -85.63006 
L 321.658687 -87.148144 
L 321.410446 -90.171727 
L 321.160593 -86.783613 
L 320.909107 -88.18801 
L 320.655966 -88.044525 
L 320.401149 -88.360681 
L 320.144633 -87.341789 
L 319.886395 -88.087554 
L 319.626413 -88.733019 
L 319.364662 -87.066298 
L 319.101118 -90.870483 
L 318.835757 -89.334721 
L 318.568552 -89.512266 
L 318.29948 -91.457298 
L 318.028512 -89.022499 
L 317.755623 -90.641683 
L 317.480784 -90.42471 
L 317.203968 -88.89464 
L 316.925146 -90.730016 
L 316.644289 -91.309737 
L 316.361367 -91.734533 
L 316.076349 -92.47767 
L 315.789204 -91.562245 
L 315.4999 -89.164833 
L 315.208404 -91.156715 
L 314.914683 -92.444064 
L 314.618703 -92.517632 
L 314.320428 -92.681768 
L 314.019823 -92.311838 
L 313.716851 -92.317008 
L 313.411475 -93.536205 
L 313.103655 -94.538445 
L 312.793353 -94.020331 
L 312.480528 -94.266782 
L 312.165139 -92.093594 
L 311.847144 -96.949337 
L 311.526498 -94.630856 
L 311.203158 -95.686824 
L 310.877078 -95.455558 
L 310.54821 -95.565502 
L 310.216508 -95.579209 
L 309.881921 -94.934746 
L 309.544399 -97.124524 
L 309.20389 -96.304868 
L 308.860341 -97.336215 
L 308.513697 -96.567236 
L 308.163901 -96.327071 
L 307.810896 -98.561409 
L 307.454623 -98.621529 
L 307.09502 -98.225731 
L 306.732024 -95.857915 
L 306.365572 -95.597112 
L 305.995595 -97.157188 
L 305.622027 -97.526486 
L 305.244796 -96.780928 
L 304.86383 -97.005022 
L 304.479054 -100.37407 
L 304.090392 -98.781663 
L 303.697764 -99.141641 
L 303.301087 -98.434113 
L 302.900279 -99.979263 
L 302.495252 -100.583096 
L 302.085915 -100.299116 
L 301.672178 -98.781587 
L 301.253943 -100.116352 
L 300.831111 -99.811327 
L 300.403582 -100.413836 
L 299.971249 -101.998474 
L 299.534003 -104.363281 
L 299.091731 -101.663167 
L 298.644316 -100.270794 
L 298.191637 -100.41228 
L 297.733569 -103.157315 
L 297.269982 -101.146888 
L 296.800742 -107.053768 
L 296.325708 -101.069369 
L 295.844736 -104.01439 
L 295.357676 -103.268702 
L 294.864371 -103.098174 
L 294.364659 -101.328762 
L 293.858373 -103.967098 
L 293.345335 -105.680035 
L 292.825364 -104.294684 
L 292.29827 -104.339984 
L 291.763856 -103.755945 
L 291.221914 -105.293323 
L 290.672229 -105.985764 
L 290.114578 -107.351272 
L 289.548726 -107.393616 
L 288.974428 -108.032282 
L 288.391428 -106.712307 
L 287.799459 -106.176191 
L 287.19824 -108.307399 
L 286.587477 -110.812129 
L 285.966863 -108.446427 
L 285.336074 -108.464417 
L 284.694772 -111.996877 
L 284.0426 -107.646828 
L 283.379182 -111.500063 
L 282.704126 -111.558992 
L 282.017014 -111.569763 
L 281.317408 -112.638753 
L 280.604846 -113.576495 
L 279.878839 -113.994893 
L 279.138869 -115.049797 
L 278.384389 -118.001414 
L 277.614818 -114.099512 
L 276.829541 -116.060785 
L 276.027903 -115.535343 
L 275.209207 -115.201506 
L 274.372712 -117.92386 
L 273.517627 -118.209364 
L 272.643106 -118.472902 
L 271.748246 -119.588889 
L 270.832078 -118.903854 
L 269.893562 -119.866923 
L 268.931581 -120.832878 
L 267.944931 -121.242613 
L 266.932313 -123.155137 
L 265.892324 -121.909091 
L 264.823443 -121.00377 
L 263.724018 -123.208619 
L 262.592253 -125.388338 
L 261.426186 -124.690009 
L 260.223675 -123.899511 
L 258.982365 -126.749025 
L 257.699672 -128.343004 
L 256.372739 -127.962164 
L 254.998405 -129.016963 
L 253.573159 -128.734998 
L 252.093082 -128.471764 
L 250.553787 -131.709372 
L 248.950336 -131.270264 
L 247.277149 -134.641467 
L 245.527882 -134.473527 
L 243.695286 -135.531789 
L 241.771022 -136.379573 
L 239.745437 -135.72675 
L 237.607262 -138.611597 
L 235.343241 -141.386164 
L 232.93763 -144.531441 
L 230.371529 -145.688024 
L 227.621985 -146.561074 
L 224.660736 -150.818995 
L 221.452441 -154.992569 
L 217.952098 -156.649119 
L 214.101162 -157.850207 
L 209.821505 -164.316096 
L 205.005572 -167.681361 
L 199.499445 -170.995995 
L 193.071664 -177.158311 
L 185.350408 -179.908259 
L 175.68052 -184.533371 
L 162.733995 -186.922465 
L 153.761336 -186.980141 
L 153.370701 -187.556684 
L 152.976059 -186.949849 
L 152.577327 -187.214712 
L 152.17442 -186.914256 
L 151.76725 -186.903724 
L 151.355725 -186.821387 
L 150.93975 -187.194133 
L 150.51923 -186.973044 
L 150.094063 -187.0618 
L 149.664145 -186.812361 
L 149.229369 -187.150261 
L 148.789624 -186.886572 
L 148.344796 -187.365616 
L 147.894764 -187.105209 
L 147.439407 -187.080362 
L 146.978596 -186.842531 
L 146.512199 -187.142598 
L 146.04008 -186.682457 
L 145.562096 -186.96818 
L 145.078099 -186.890053 
L 144.587936 -186.828902 
L 144.091448 -186.858921 
L 143.588471 -186.913067 
L 143.078831 -186.900796 
L 142.56235 -186.847672 
L 142.038842 -186.964493 
L 141.508113 -187.001838 
L 140.969961 -187.009747 
L 140.424175 -187.010784 
L 139.870536 -186.991382 
L 139.308814 -186.956449 
L 138.738771 -187.180548 
L 138.160155 -186.989494 
L 137.572704 -186.872068 
L 136.976146 -187.046815 
L 136.370192 -186.92584 
L 135.754543 -186.964154 
L 135.128883 -187.033557 
L 134.492881 -187.126569 
L 133.84619 -186.976562 
L 133.188443 -187.205435 
L 132.519256 -186.874364 
L 131.838225 -187.209696 
L 131.144923 -187.157078 
L 130.438899 -187.07767 
L 129.719677 -187.229878 
L 128.986755 -187.002005 
L 128.2396 -187.287525 
L 127.47765 -187.2902 
L 126.700305 -187.341256 
L 125.906932 -187.336991 
L 125.096854 -187.344652 
L 124.269355 -187.132607 
L 123.423667 -187.383146 
L 122.558973 -187.429431 
L 121.6744 -187.399562 
L 120.769011 -187.321843 
L 119.841804 -187.868224 
L 118.8917 -187.565092 
L 117.91754 -187.688924 
L 116.918075 -187.474481 
L 115.891954 -187.882024 
L 114.837717 -187.607995 
L 113.753779 -187.868273 
L 112.638419 -187.944498 
L 111.489759 -188.076004 
L 110.30575 -188.248273 
L 109.084148 -188.314156 
L 107.822486 -188.21888 
L 106.518047 -188.323513 
L 105.16783 -188.445623 
L 103.768503 -188.737575 
L 102.316359 -188.760513 
L 100.807254 -189.122963 
L 99.236536 -189.116841 
L 97.598959 -189.023163 
L 95.888578 -189.060302 
L 94.098615 -189.838305 
L 92.221304 -189.463496 
L 90.247679 -189.919306 
L 88.167321 -190.409101 
L 85.968023 -190.156683 
L 83.635354 -191.425809 
L 81.15209 -191.966483 
L 78.497434 -191.698848 
L 75.645963 -191.466937 
L 72.56614 -193.238231 
L 69.218182 -193.508577 
z
" style="stroke: #ff0000; stroke-opacity: 0.2"/>
    </defs>
    <g clip-path="url(#p278366f836)">
     <use xlink:href="#ma2c9b71cf2" x="0" y="288" style="fill: #ff0000; fill-opacity: 0.2; stroke: #ff0000; stroke-opacity: 0.2"/>
    </g>
   </g>
   <g id="matplotlib.axis_1">
    <g id="xtick_1">
     <g id="line2d_1">
      <defs>
       <path id="m0b1c4fc3da" d="M 0 0 
L 0 3.5 
" style="stroke: #000000; stroke-width: 0.8"/>
      </defs>
      <g>
       <use xlink:href="#m0b1c4fc3da" x="65.550908" y="252" style="stroke: #000000; stroke-width: 0.8"/>
      </g>
     </g>
     <g id="text_1">
      <!-- $\mathdefault{10^{1}}$ -->
      <g transform="translate(56.750908 266.598437)scale(0.1 -0.1)">
       <defs>
        <path id="DejaVuSans-31" d="M 794 531 
L 1825 531 
L 1825 4091 
L 703 3866 
L 703 4441 
L 1819 4666 
L 2450 4666 
L 2450 531 
L 3481 531 
L 3481 0 
L 794 0 
L 794 531 
z
" transform="scale(0.015625)"/>
        <path id="DejaVuSans-30" d="M 2034 4250 
Q 1547 4250 1301 3770 
Q 1056 3291 1056 2328 
Q 1056 1369 1301 889 
Q 1547 409 2034 409 
Q 2525 409 2770 889 
Q 3016 1369 3016 2328 
Q 3016 3291 2770 3770 
Q 2525 4250 2034 4250 
z
M 2034 4750 
Q 2819 4750 3233 4129 
Q 3647 3509 3647 2328 
Q 3647 1150 3233 529 
Q 2819 -91 2034 -91 
Q 1250 -91 836 529 
Q 422 1150 422 2328 
Q 422 3509 836 4129 
Q 1250 4750 2034 4750 
z
" transform="scale(0.015625)"/>
       </defs>
       <use xlink:href="#DejaVuSans-31" transform="translate(0 0.684375)"/>
       <use xlink:href="#DejaVuSans-30" transform="translate(63.623047 0.684375)"/>
       <use xlink:href="#DejaVuSans-31" transform="translate(128.203125 38.965625)scale(0.7)"/>
      </g>
     </g>
    </g>
    <g id="xtick_2">
     <g id="line2d_2">
      <g>
       <use xlink:href="#m0b1c4fc3da" x="154.148045" y="252" style="stroke: #000000; stroke-width: 0.8"/>
      </g>
     </g>
     <g id="text_2">
      <!-- $\mathdefault{10^{2}}$ -->
      <g transform="translate(145.348045 266.598437)scale(0.1 -0.1)">
       <defs>
        <path id="DejaVuSans-32" d="M 1228 531 
L 3431 531 
L 3431 0 
L 469 0 
L 469 531 
Q 828 903 1448 1529 
Q 2069 2156 2228 2338 
Q 2531 2678 2651 2914 
Q 2772 3150 2772 3378 
Q 2772 3750 2511 3984 
Q 2250 4219 1831 4219 
Q 1534 4219 1204 4116 
Q 875 4013 500 3803 
L 500 4441 
Q 881 4594 1212 4672 
Q 1544 4750 1819 4750 
Q 2544 4750 2975 4387 
Q 3406 4025 3406 3419 
Q 3406 3131 3298 2873 
Q 3191 2616 2906 2266 
Q 2828 2175 2409 1742 
Q 1991 1309 1228 531 
z
" transform="scale(0.015625)"/>
       </defs>
       <use xlink:href="#DejaVuSans-31" transform="translate(0 0.765625)"/>
       <use xlink:href="#DejaVuSans-30" transform="translate(63.623047 0.765625)"/>
       <use xlink:href="#DejaVuSans-32" transform="translate(128.203125 39.046875)scale(0.7)"/>
      </g>
     </g>
    </g>
    <g id="xtick_3">
     <g id="line2d_3">
      <g>
       <use xlink:href="#m0b1c4fc3da" x="242.745182" y="252" style="stroke: #000000; stroke-width: 0.8"/>
      </g>
     </g>
     <g id="text_3">
      <!-- $\mathdefault{10^{3}}$ -->
      <g transform="translate(233.945182 266.598437)scale(0.1 -0.1)">
       <defs>
        <path id="DejaVuSans-33" d="M 2597 2516 
Q 3050 2419 3304 2112 
Q 3559 1806 3559 1356 
Q 3559 666 3084 287 
Q 2609 -91 1734 -91 
Q 1441 -91 1130 -33 
Q 819 25 488 141 
L 488 750 
Q 750 597 1062 519 
Q 1375 441 1716 441 
Q 2309 441 2620 675 
Q 2931 909 2931 1356 
Q 2931 1769 2642 2001 
Q 2353 2234 1838 2234 
L 1294 2234 
L 1294 2753 
L 1863 2753 
Q 2328 2753 2575 2939 
Q 2822 3125 2822 3475 
Q 2822 3834 2567 4026 
Q 2313 4219 1838 4219 
Q 1578 4219 1281 4162 
Q 984 4106 628 3988 
L 628 4550 
Q 988 4650 1302 4700 
Q 1616 4750 1894 4750 
Q 2613 4750 3031 4423 
Q 3450 4097 3450 3541 
Q 3450 3153 3228 2886 
Q 3006 2619 2597 2516 
z
" transform="scale(0.015625)"/>
       </defs>
       <use xlink:href="#DejaVuSans-31" transform="translate(0 0.765625)"/>
       <use xlink:href="#DejaVuSans-30" transform="translate(63.623047 0.765625)"/>
       <use xlink:href="#DejaVuSans-33" transform="translate(128.203125 39.046875)scale(0.7)"/>
      </g>
     </g>
    </g>
    <g id="xtick_4">
     <g id="line2d_4">
      <g>
       <use xlink:href="#m0b1c4fc3da" x="331.342319" y="252" style="stroke: #000000; stroke-width: 0.8"/>
      </g>
     </g>
     <g id="text_4">
      <!-- $\mathdefault{10^{4}}$ -->
      <g transform="translate(322.542319 266.598437)scale(0.1 -0.1)">
       <defs>
        <path id="DejaVuSans-34" d="M 2419 4116 
L 825 1625 
L 2419 1625 
L 2419 4116 
z
M 2253 4666 
L 3047 4666 
L 3047 1625 
L 3713 1625 
L 3713 1100 
L 3047 1100 
L 3047 0 
L 2419 0 
L 2419 1100 
L 313 1100 
L 313 1709 
L 2253 4666 
z
" transform="scale(0.015625)"/>
       </defs>
       <use xlink:href="#DejaVuSans-31" transform="translate(0 0.684375)"/>
       <use xlink:href="#DejaVuSans-30" transform="translate(63.623047 0.684375)"/>
       <use xlink:href="#DejaVuSans-34" transform="translate(128.203125 38.965625)scale(0.7)"/>
      </g>
     </g>
    </g>
    <g id="xtick_5">
     <g id="line2d_5">
      <defs>
       <path id="mb6b8f9c237" d="M 0 0 
L 0 2 
" style="stroke: #000000; stroke-width: 0.6"/>
      </defs>
      <g>
       <use xlink:href="#mb6b8f9c237" x="56.964959" y="252" style="stroke: #000000; stroke-width: 0.6"/>
      </g>
     </g>
    </g>
    <g id="xtick_6">
     <g id="line2d_6">
      <g>
       <use xlink:href="#mb6b8f9c237" x="61.496926" y="252" style="stroke: #000000; stroke-width: 0.6"/>
      </g>
     </g>
    </g>
    <g id="xtick_7">
     <g id="line2d_7">
      <g>
       <use xlink:href="#mb6b8f9c237" x="92.221304" y="252" style="stroke: #000000; stroke-width: 0.6"/>
      </g>
     </g>
    </g>
    <g id="xtick_8">
     <g id="line2d_8">
      <g>
       <use xlink:href="#mb6b8f9c237" x="107.822486" y="252" style="stroke: #000000; stroke-width: 0.6"/>
      </g>
     </g>
    </g>
    <g id="xtick_9">
     <g id="line2d_9">
      <g>
       <use xlink:href="#mb6b8f9c237" x="118.8917" y="252" style="stroke: #000000; stroke-width: 0.6"/>
      </g>
     </g>
    </g>
    <g id="xtick_10">
     <g id="line2d_10">
      <g>
       <use xlink:href="#mb6b8f9c237" x="127.47765" y="252" style="stroke: #000000; stroke-width: 0.6"/>
      </g>
     </g>
    </g>
    <g id="xtick_11">
     <g id="line2d_11">
      <g>
       <use xlink:href="#mb6b8f9c237" x="134.492881" y="252" style="stroke: #000000; stroke-width: 0.6"/>
      </g>
     </g>
    </g>
    <g id="xtick_12">
     <g id="line2d_12">
      <g>
       <use xlink:href="#mb6b8f9c237" x="140.424175" y="252" style="stroke: #000000; stroke-width: 0.6"/>
      </g>
     </g>
    </g>
    <g id="xtick_13">
     <g id="line2d_13">
      <g>
       <use xlink:href="#mb6b8f9c237" x="145.562096" y="252" style="stroke: #000000; stroke-width: 0.6"/>
      </g>
     </g>
    </g>
    <g id="xtick_14">
     <g id="line2d_14">
      <g>
       <use xlink:href="#mb6b8f9c237" x="150.094063" y="252" style="stroke: #000000; stroke-width: 0.6"/>
      </g>
     </g>
    </g>
    <g id="xtick_15">
     <g id="line2d_15">
      <g>
       <use xlink:href="#mb6b8f9c237" x="180.818441" y="252" style="stroke: #000000; stroke-width: 0.6"/>
      </g>
     </g>
    </g>
    <g id="xtick_16">
     <g id="line2d_16">
      <g>
       <use xlink:href="#mb6b8f9c237" x="196.419622" y="252" style="stroke: #000000; stroke-width: 0.6"/>
      </g>
     </g>
    </g>
    <g id="xtick_17">
     <g id="line2d_17">
      <g>
       <use xlink:href="#mb6b8f9c237" x="207.488837" y="252" style="stroke: #000000; stroke-width: 0.6"/>
      </g>
     </g>
    </g>
    <g id="xtick_18">
     <g id="line2d_18">
      <g>
       <use xlink:href="#mb6b8f9c237" x="216.074786" y="252" style="stroke: #000000; stroke-width: 0.6"/>
      </g>
     </g>
    </g>
    <g id="xtick_19">
     <g id="line2d_19">
      <g>
       <use xlink:href="#mb6b8f9c237" x="223.090018" y="252" style="stroke: #000000; stroke-width: 0.6"/>
      </g>
     </g>
    </g>
    <g id="xtick_20">
     <g id="line2d_20">
      <g>
       <use xlink:href="#mb6b8f9c237" x="229.021312" y="252" style="stroke: #000000; stroke-width: 0.6"/>
      </g>
     </g>
    </g>
    <g id="xtick_21">
     <g id="line2d_21">
      <g>
       <use xlink:href="#mb6b8f9c237" x="234.159232" y="252" style="stroke: #000000; stroke-width: 0.6"/>
      </g>
     </g>
    </g>
    <g id="xtick_22">
     <g id="line2d_22">
      <g>
       <use xlink:href="#mb6b8f9c237" x="238.691199" y="252" style="stroke: #000000; stroke-width: 0.6"/>
      </g>
     </g>
    </g>
    <g id="xtick_23">
     <g id="line2d_23">
      <g>
       <use xlink:href="#mb6b8f9c237" x="269.415578" y="252" style="stroke: #000000; stroke-width: 0.6"/>
      </g>
     </g>
    </g>
    <g id="xtick_24">
     <g id="line2d_24">
      <g>
       <use xlink:href="#mb6b8f9c237" x="285.016759" y="252" style="stroke: #000000; stroke-width: 0.6"/>
      </g>
     </g>
    </g>
    <g id="xtick_25">
     <g id="line2d_25">
      <g>
       <use xlink:href="#mb6b8f9c237" x="296.085973" y="252" style="stroke: #000000; stroke-width: 0.6"/>
      </g>
     </g>
    </g>
    <g id="xtick_26">
     <g id="line2d_26">
      <g>
       <use xlink:href="#mb6b8f9c237" x="304.671923" y="252" style="stroke: #000000; stroke-width: 0.6"/>
      </g>
     </g>
    </g>
    <g id="xtick_27">
     <g id="line2d_27">
      <g>
       <use xlink:href="#mb6b8f9c237" x="311.687155" y="252" style="stroke: #000000; stroke-width: 0.6"/>
      </g>
     </g>
    </g>
    <g id="xtick_28">
     <g id="line2d_28">
      <g>
       <use xlink:href="#mb6b8f9c237" x="317.618449" y="252" style="stroke: #000000; stroke-width: 0.6"/>
      </g>
     </g>
    </g>
    <g id="xtick_29">
     <g id="line2d_29">
      <g>
       <use xlink:href="#mb6b8f9c237" x="322.756369" y="252" style="stroke: #000000; stroke-width: 0.6"/>
      </g>
     </g>
    </g>
    <g id="xtick_30">
     <g id="line2d_30">
      <g>
       <use xlink:href="#mb6b8f9c237" x="327.288336" y="252" style="stroke: #000000; stroke-width: 0.6"/>
      </g>
     </g>
    </g>
    <g id="xtick_31">
     <g id="line2d_31">
      <g>
       <use xlink:href="#mb6b8f9c237" x="358.012715" y="252" style="stroke: #000000; stroke-width: 0.6"/>
      </g>
     </g>
    </g>
    <g id="xtick_32">
     <g id="line2d_32">
      <g>
       <use xlink:href="#mb6b8f9c237" x="373.613896" y="252" style="stroke: #000000; stroke-width: 0.6"/>
      </g>
     </g>
    </g>
    <g id="xtick_33">
     <g id="line2d_33">
      <g>
       <use xlink:href="#mb6b8f9c237" x="384.68311" y="252" style="stroke: #000000; stroke-width: 0.6"/>
      </g>
     </g>
    </g>
    <g id="text_5">
     <!-- Resources -->
     <g transform="translate(195.867969 280.276563)scale(0.1 -0.1)">
      <defs>
       <path id="DejaVuSans-52" d="M 2841 2188 
Q 3044 2119 3236 1894 
Q 3428 1669 3622 1275 
L 4263 0 
L 3584 0 
L 2988 1197 
Q 2756 1666 2539 1819 
Q 2322 1972 1947 1972 
L 1259 1972 
L 1259 0 
L 628 0 
L 628 4666 
L 2053 4666 
Q 2853 4666 3247 4331 
Q 3641 3997 3641 3322 
Q 3641 2881 3436 2590 
Q 3231 2300 2841 2188 
z
M 1259 4147 
L 1259 2491 
L 2053 2491 
Q 2509 2491 2742 2702 
Q 2975 2913 2975 3322 
Q 2975 3731 2742 3939 
Q 2509 4147 2053 4147 
L 1259 4147 
z
" transform="scale(0.015625)"/>
       <path id="DejaVuSans-65" d="M 3597 1894 
L 3597 1613 
L 953 1613 
Q 991 1019 1311 708 
Q 1631 397 2203 397 
Q 2534 397 2845 478 
Q 3156 559 3463 722 
L 3463 178 
Q 3153 47 2828 -22 
Q 2503 -91 2169 -91 
Q 1331 -91 842 396 
Q 353 884 353 1716 
Q 353 2575 817 3079 
Q 1281 3584 2069 3584 
Q 2775 3584 3186 3129 
Q 3597 2675 3597 1894 
z
M 3022 2063 
Q 3016 2534 2758 2815 
Q 2500 3097 2075 3097 
Q 1594 3097 1305 2825 
Q 1016 2553 972 2059 
L 3022 2063 
z
" transform="scale(0.015625)"/>
       <path id="DejaVuSans-73" d="M 2834 3397 
L 2834 2853 
Q 2591 2978 2328 3040 
Q 2066 3103 1784 3103 
Q 1356 3103 1142 2972 
Q 928 2841 928 2578 
Q 928 2378 1081 2264 
Q 1234 2150 1697 2047 
L 1894 2003 
Q 2506 1872 2764 1633 
Q 3022 1394 3022 966 
Q 3022 478 2636 193 
Q 2250 -91 1575 -91 
Q 1294 -91 989 -36 
Q 684 19 347 128 
L 347 722 
Q 666 556 975 473 
Q 1284 391 1588 391 
Q 1994 391 2212 530 
Q 2431 669 2431 922 
Q 2431 1156 2273 1281 
Q 2116 1406 1581 1522 
L 1381 1569 
Q 847 1681 609 1914 
Q 372 2147 372 2553 
Q 372 3047 722 3315 
Q 1072 3584 1716 3584 
Q 2034 3584 2315 3537 
Q 2597 3491 2834 3397 
z
" transform="scale(0.015625)"/>
       <path id="DejaVuSans-6f" d="M 1959 3097 
Q 1497 3097 1228 2736 
Q 959 2375 959 1747 
Q 959 1119 1226 758 
Q 1494 397 1959 397 
Q 2419 397 2687 759 
Q 2956 1122 2956 1747 
Q 2956 2369 2687 2733 
Q 2419 3097 1959 3097 
z
M 1959 3584 
Q 2709 3584 3137 3096 
Q 3566 2609 3566 1747 
Q 3566 888 3137 398 
Q 2709 -91 1959 -91 
Q 1206 -91 779 398 
Q 353 888 353 1747 
Q 353 2609 779 3096 
Q 1206 3584 1959 3584 
z
" transform="scale(0.015625)"/>
       <path id="DejaVuSans-75" d="M 544 1381 
L 544 3500 
L 1119 3500 
L 1119 1403 
Q 1119 906 1312 657 
Q 1506 409 1894 409 
Q 2359 409 2629 706 
Q 2900 1003 2900 1516 
L 2900 3500 
L 3475 3500 
L 3475 0 
L 2900 0 
L 2900 538 
Q 2691 219 2414 64 
Q 2138 -91 1772 -91 
Q 1169 -91 856 284 
Q 544 659 544 1381 
z
M 1991 3584 
L 1991 3584 
z
" transform="scale(0.015625)"/>
       <path id="DejaVuSans-72" d="M 2631 2963 
Q 2534 3019 2420 3045 
Q 2306 3072 2169 3072 
Q 1681 3072 1420 2755 
Q 1159 2438 1159 1844 
L 1159 0 
L 581 0 
L 581 3500 
L 1159 3500 
L 1159 2956 
Q 1341 3275 1631 3429 
Q 1922 3584 2338 3584 
Q 2397 3584 2469 3576 
Q 2541 3569 2628 3553 
L 2631 2963 
z
" transform="scale(0.015625)"/>
       <path id="DejaVuSans-63" d="M 3122 3366 
L 3122 2828 
Q 2878 2963 2633 3030 
Q 2388 3097 2138 3097 
Q 1578 3097 1268 2742 
Q 959 2388 959 1747 
Q 959 1106 1268 751 
Q 1578 397 2138 397 
Q 2388 397 2633 464 
Q 2878 531 3122 666 
L 3122 134 
Q 2881 22 2623 -34 
Q 2366 -91 2075 -91 
Q 1284 -91 818 406 
Q 353 903 353 1747 
Q 353 2603 823 3093 
Q 1294 3584 2113 3584 
Q 2378 3584 2631 3529 
Q 2884 3475 3122 3366 
z
" transform="scale(0.015625)"/>
      </defs>
      <use xlink:href="#DejaVuSans-52"/>
      <use xlink:href="#DejaVuSans-65" x="64.982422"/>
      <use xlink:href="#DejaVuSans-73" x="126.505859"/>
      <use xlink:href="#DejaVuSans-6f" x="178.605469"/>
      <use xlink:href="#DejaVuSans-75" x="239.787109"/>
      <use xlink:href="#DejaVuSans-72" x="303.166016"/>
      <use xlink:href="#DejaVuSans-63" x="342.029297"/>
      <use xlink:href="#DejaVuSans-65" x="397.009766"/>
      <use xlink:href="#DejaVuSans-73" x="458.533203"/>
     </g>
    </g>
   </g>
   <g id="matplotlib.axis_2">
    <g id="ytick_1">
     <g id="line2d_34">
      <defs>
       <path id="mb348c57f6e" d="M 0 0 
L -3.5 0 
" style="stroke: #000000; stroke-width: 0.8"/>
      </defs>
      <g>
       <use xlink:href="#mb348c57f6e" x="54" y="209.438107" style="stroke: #000000; stroke-width: 0.8"/>
      </g>
     </g>
     <g id="text_6">
      <!-- $\mathdefault{10^{-3}}$ -->
      <g transform="translate(23.5 213.237326)scale(0.1 -0.1)">
       <defs>
        <path id="DejaVuSans-2212" d="M 678 2272 
L 4684 2272 
L 4684 1741 
L 678 1741 
L 678 2272 
z
" transform="scale(0.015625)"/>
       </defs>
       <use xlink:href="#DejaVuSans-31" transform="translate(0 0.765625)"/>
       <use xlink:href="#DejaVuSans-30" transform="translate(63.623047 0.765625)"/>
       <use xlink:href="#DejaVuSans-2212" transform="translate(128.203125 39.046875)scale(0.7)"/>
       <use xlink:href="#DejaVuSans-33" transform="translate(186.855469 39.046875)scale(0.7)"/>
      </g>
     </g>
    </g>
    <g id="ytick_2">
     <g id="line2d_35">
      <g>
       <use xlink:href="#mb348c57f6e" x="54" y="158.128875" style="stroke: #000000; stroke-width: 0.8"/>
      </g>
     </g>
     <g id="text_7">
      <!-- $\mathdefault{10^{-2}}$ -->
      <g transform="translate(23.5 161.928094)scale(0.1 -0.1)">
       <use xlink:href="#DejaVuSans-31" transform="translate(0 0.765625)"/>
       <use xlink:href="#DejaVuSans-30" transform="translate(63.623047 0.765625)"/>
       <use xlink:href="#DejaVuSans-2212" transform="translate(128.203125 39.046875)scale(0.7)"/>
       <use xlink:href="#DejaVuSans-32" transform="translate(186.855469 39.046875)scale(0.7)"/>
      </g>
     </g>
    </g>
    <g id="ytick_3">
     <g id="line2d_36">
      <g>
       <use xlink:href="#mb348c57f6e" x="54" y="106.819642" style="stroke: #000000; stroke-width: 0.8"/>
      </g>
     </g>
     <g id="text_8">
      <!-- $\mathdefault{10^{-1}}$ -->
      <g transform="translate(23.5 110.618861)scale(0.1 -0.1)">
       <use xlink:href="#DejaVuSans-31" transform="translate(0 0.684375)"/>
       <use xlink:href="#DejaVuSans-30" transform="translate(63.623047 0.684375)"/>
       <use xlink:href="#DejaVuSans-2212" transform="translate(128.203125 38.965625)scale(0.7)"/>
       <use xlink:href="#DejaVuSans-31" transform="translate(186.855469 38.965625)scale(0.7)"/>
      </g>
     </g>
    </g>
    <g id="ytick_4">
     <g id="line2d_37">
      <g>
       <use xlink:href="#mb348c57f6e" x="54" y="55.51041" style="stroke: #000000; stroke-width: 0.8"/>
      </g>
     </g>
     <g id="text_9">
      <!-- $\mathdefault{10^{0}}$ -->
      <g transform="translate(29.4 59.309628)scale(0.1 -0.1)">
       <use xlink:href="#DejaVuSans-31" transform="translate(0 0.765625)"/>
       <use xlink:href="#DejaVuSans-30" transform="translate(63.623047 0.765625)"/>
       <use xlink:href="#DejaVuSans-30" transform="translate(128.203125 39.046875)scale(0.7)"/>
      </g>
     </g>
    </g>
    <g id="ytick_5">
     <g id="line2d_38">
      <defs>
       <path id="m562d01bd85" d="M 0 0 
L -2 0 
" style="stroke: #000000; stroke-width: 0.6"/>
      </defs>
      <g>
       <use xlink:href="#m562d01bd85" x="54" y="245.301722" style="stroke: #000000; stroke-width: 0.6"/>
      </g>
     </g>
    </g>
    <g id="ytick_6">
     <g id="line2d_39">
      <g>
       <use xlink:href="#m562d01bd85" x="54" y="236.266614" style="stroke: #000000; stroke-width: 0.6"/>
      </g>
     </g>
    </g>
    <g id="ytick_7">
     <g id="line2d_40">
      <g>
       <use xlink:href="#m562d01bd85" x="54" y="229.856104" style="stroke: #000000; stroke-width: 0.6"/>
      </g>
     </g>
    </g>
    <g id="ytick_8">
     <g id="line2d_41">
      <g>
       <use xlink:href="#m562d01bd85" x="54" y="224.883725" style="stroke: #000000; stroke-width: 0.6"/>
      </g>
     </g>
    </g>
    <g id="ytick_9">
     <g id="line2d_42">
      <g>
       <use xlink:href="#m562d01bd85" x="54" y="220.820996" style="stroke: #000000; stroke-width: 0.6"/>
      </g>
     </g>
    </g>
    <g id="ytick_10">
     <g id="line2d_43">
      <g>
       <use xlink:href="#m562d01bd85" x="54" y="217.386008" style="stroke: #000000; stroke-width: 0.6"/>
      </g>
     </g>
    </g>
    <g id="ytick_11">
     <g id="line2d_44">
      <g>
       <use xlink:href="#m562d01bd85" x="54" y="214.410486" style="stroke: #000000; stroke-width: 0.6"/>
      </g>
     </g>
    </g>
    <g id="ytick_12">
     <g id="line2d_45">
      <g>
       <use xlink:href="#m562d01bd85" x="54" y="211.785889" style="stroke: #000000; stroke-width: 0.6"/>
      </g>
     </g>
    </g>
    <g id="ytick_13">
     <g id="line2d_46">
      <g>
       <use xlink:href="#m562d01bd85" x="54" y="193.992489" style="stroke: #000000; stroke-width: 0.6"/>
      </g>
     </g>
    </g>
    <g id="ytick_14">
     <g id="line2d_47">
      <g>
       <use xlink:href="#m562d01bd85" x="54" y="184.957382" style="stroke: #000000; stroke-width: 0.6"/>
      </g>
     </g>
    </g>
    <g id="ytick_15">
     <g id="line2d_48">
      <g>
       <use xlink:href="#m562d01bd85" x="54" y="178.546871" style="stroke: #000000; stroke-width: 0.6"/>
      </g>
     </g>
    </g>
    <g id="ytick_16">
     <g id="line2d_49">
      <g>
       <use xlink:href="#m562d01bd85" x="54" y="173.574493" style="stroke: #000000; stroke-width: 0.6"/>
      </g>
     </g>
    </g>
    <g id="ytick_17">
     <g id="line2d_50">
      <g>
       <use xlink:href="#m562d01bd85" x="54" y="169.511764" style="stroke: #000000; stroke-width: 0.6"/>
      </g>
     </g>
    </g>
    <g id="ytick_18">
     <g id="line2d_51">
      <g>
       <use xlink:href="#m562d01bd85" x="54" y="166.076775" style="stroke: #000000; stroke-width: 0.6"/>
      </g>
     </g>
    </g>
    <g id="ytick_19">
     <g id="line2d_52">
      <g>
       <use xlink:href="#m562d01bd85" x="54" y="163.101253" style="stroke: #000000; stroke-width: 0.6"/>
      </g>
     </g>
    </g>
    <g id="ytick_20">
     <g id="line2d_53">
      <g>
       <use xlink:href="#m562d01bd85" x="54" y="160.476656" style="stroke: #000000; stroke-width: 0.6"/>
      </g>
     </g>
    </g>
    <g id="ytick_21">
     <g id="line2d_54">
      <g>
       <use xlink:href="#m562d01bd85" x="54" y="142.683257" style="stroke: #000000; stroke-width: 0.6"/>
      </g>
     </g>
    </g>
    <g id="ytick_22">
     <g id="line2d_55">
      <g>
       <use xlink:href="#m562d01bd85" x="54" y="133.648149" style="stroke: #000000; stroke-width: 0.6"/>
      </g>
     </g>
    </g>
    <g id="ytick_23">
     <g id="line2d_56">
      <g>
       <use xlink:href="#m562d01bd85" x="54" y="127.237639" style="stroke: #000000; stroke-width: 0.6"/>
      </g>
     </g>
    </g>
    <g id="ytick_24">
     <g id="line2d_57">
      <g>
       <use xlink:href="#m562d01bd85" x="54" y="122.26526" style="stroke: #000000; stroke-width: 0.6"/>
      </g>
     </g>
    </g>
    <g id="ytick_25">
     <g id="line2d_58">
      <g>
       <use xlink:href="#m562d01bd85" x="54" y="118.202531" style="stroke: #000000; stroke-width: 0.6"/>
      </g>
     </g>
    </g>
    <g id="ytick_26">
     <g id="line2d_59">
      <g>
       <use xlink:href="#m562d01bd85" x="54" y="114.767543" style="stroke: #000000; stroke-width: 0.6"/>
      </g>
     </g>
    </g>
    <g id="ytick_27">
     <g id="line2d_60">
      <g>
       <use xlink:href="#m562d01bd85" x="54" y="111.792021" style="stroke: #000000; stroke-width: 0.6"/>
      </g>
     </g>
    </g>
    <g id="ytick_28">
     <g id="line2d_61">
      <g>
       <use xlink:href="#m562d01bd85" x="54" y="109.167424" style="stroke: #000000; stroke-width: 0.6"/>
      </g>
     </g>
    </g>
    <g id="ytick_29">
     <g id="line2d_62">
      <g>
       <use xlink:href="#m562d01bd85" x="54" y="91.374024" style="stroke: #000000; stroke-width: 0.6"/>
      </g>
     </g>
    </g>
    <g id="ytick_30">
     <g id="line2d_63">
      <g>
       <use xlink:href="#m562d01bd85" x="54" y="82.338917" style="stroke: #000000; stroke-width: 0.6"/>
      </g>
     </g>
    </g>
    <g id="ytick_31">
     <g id="line2d_64">
      <g>
       <use xlink:href="#m562d01bd85" x="54" y="75.928406" style="stroke: #000000; stroke-width: 0.6"/>
      </g>
     </g>
    </g>
    <g id="ytick_32">
     <g id="line2d_65">
      <g>
       <use xlink:href="#m562d01bd85" x="54" y="70.956028" style="stroke: #000000; stroke-width: 0.6"/>
      </g>
     </g>
    </g>
    <g id="ytick_33">
     <g id="line2d_66">
      <g>
       <use xlink:href="#m562d01bd85" x="54" y="66.893299" style="stroke: #000000; stroke-width: 0.6"/>
      </g>
     </g>
    </g>
    <g id="ytick_34">
     <g id="line2d_67">
      <g>
       <use xlink:href="#m562d01bd85" x="54" y="63.45831" style="stroke: #000000; stroke-width: 0.6"/>
      </g>
     </g>
    </g>
    <g id="ytick_35">
     <g id="line2d_68">
      <g>
       <use xlink:href="#m562d01bd85" x="54" y="60.482788" style="stroke: #000000; stroke-width: 0.6"/>
      </g>
     </g>
    </g>
    <g id="ytick_36">
     <g id="line2d_69">
      <g>
       <use xlink:href="#m562d01bd85" x="54" y="57.858191" style="stroke: #000000; stroke-width: 0.6"/>
      </g>
     </g>
    </g>
    <g id="ytick_37">
     <g id="line2d_70">
      <g>
       <use xlink:href="#m562d01bd85" x="54" y="40.064792" style="stroke: #000000; stroke-width: 0.6"/>
      </g>
     </g>
    </g>
    <g id="text_10">
     <!-- MSE -->
     <g transform="translate(17.420313 153.927656)rotate(-90)scale(0.1 -0.1)">
      <defs>
       <path id="DejaVuSans-4d" d="M 628 4666 
L 1569 4666 
L 2759 1491 
L 3956 4666 
L 4897 4666 
L 4897 0 
L 4281 0 
L 4281 4097 
L 3078 897 
L 2444 897 
L 1241 4097 
L 1241 0 
L 628 0 
L 628 4666 
z
" transform="scale(0.015625)"/>
       <path id="DejaVuSans-53" d="M 3425 4513 
L 3425 3897 
Q 3066 4069 2747 4153 
Q 2428 4238 2131 4238 
Q 1616 4238 1336 4038 
Q 1056 3838 1056 3469 
Q 1056 3159 1242 3001 
Q 1428 2844 1947 2747 
L 2328 2669 
Q 3034 2534 3370 2195 
Q 3706 1856 3706 1288 
Q 3706 609 3251 259 
Q 2797 -91 1919 -91 
Q 1588 -91 1214 -16 
Q 841 59 441 206 
L 441 856 
Q 825 641 1194 531 
Q 1563 422 1919 422 
Q 2459 422 2753 634 
Q 3047 847 3047 1241 
Q 3047 1584 2836 1778 
Q 2625 1972 2144 2069 
L 1759 2144 
Q 1053 2284 737 2584 
Q 422 2884 422 3419 
Q 422 4038 858 4394 
Q 1294 4750 2059 4750 
Q 2388 4750 2728 4690 
Q 3069 4631 3425 4513 
z
" transform="scale(0.015625)"/>
       <path id="DejaVuSans-45" d="M 628 4666 
L 3578 4666 
L 3578 4134 
L 1259 4134 
L 1259 2753 
L 3481 2753 
L 3481 2222 
L 1259 2222 
L 1259 531 
L 3634 531 
L 3634 0 
L 628 0 
L 628 4666 
z
" transform="scale(0.015625)"/>
      </defs>
      <use xlink:href="#DejaVuSans-4d"/>
      <use xlink:href="#DejaVuSans-53" x="86.279297"/>
      <use xlink:href="#DejaVuSans-45" x="149.755859"/>
     </g>
    </g>
   </g>
   <g id="line2d_71">
    <path d="M 69.218182 95.240742 
L 72.56614 95.47462 
L 75.645963 97.031867 
L 78.497434 96.98211 
L 81.15209 96.784767 
L 83.635354 97.246976 
L 85.968023 98.255233 
L 88.167321 98.175126 
L 92.221304 98.782124 
L 94.098615 98.679881 
L 95.888578 99.265792 
L 100.807254 99.278093 
L 102.316359 99.537301 
L 103.768503 99.594375 
L 105.16783 99.855693 
L 110.30575 99.950301 
L 111.489759 100.162083 
L 113.753779 100.419772 
L 114.837717 100.534102 
L 115.891954 100.321289 
L 116.918075 100.748447 
L 117.91754 100.585416 
L 118.8917 100.617648 
L 119.841804 100.521077 
L 120.769011 100.871845 
L 121.6744 100.73887 
L 122.558973 100.82028 
L 123.423667 100.750488 
L 124.269355 101.014727 
L 125.096854 100.795496 
L 125.906932 100.897006 
L 126.700305 100.842259 
L 127.47765 100.95491 
L 128.2396 100.922957 
L 128.986755 101.100475 
L 129.719677 100.913816 
L 130.438899 101.096732 
L 131.838225 100.981899 
L 132.519256 101.259034 
L 133.188443 101.086655 
L 136.370192 101.276869 
L 136.976146 101.101603 
L 137.572704 101.25737 
L 138.738771 101.037337 
L 139.308814 101.177993 
L 142.038842 101.260901 
L 144.587936 101.349919 
L 145.562096 101.223928 
L 146.04008 101.408556 
L 146.512199 101.043477 
L 146.978596 101.261369 
L 148.344796 100.85694 
L 148.789624 101.221509 
L 149.229369 101.048259 
L 149.664145 101.369712 
L 150.094063 101.110364 
L 150.51923 101.137892 
L 150.93975 101.022076 
L 151.355725 101.364766 
L 151.76725 101.218926 
L 152.17442 101.294242 
L 152.577327 100.970987 
L 152.976059 101.209629 
L 153.370701 100.853192 
L 153.761336 101.290727 
L 162.733995 101.295582 
L 175.68052 103.982899 
L 193.071664 112.866117 
L 199.499445 118.336997 
L 205.005572 122.088679 
L 209.821505 125.191916 
L 214.101162 131.581283 
L 221.452441 135.441264 
L 224.660736 139.164001 
L 227.621985 143.545002 
L 230.371529 144.942655 
L 232.93763 145.829257 
L 235.343241 148.288043 
L 237.607262 151.63121 
L 239.745437 153.674975 
L 241.771022 153.650252 
L 243.695286 154.659278 
L 245.527882 156.151088 
L 247.277149 155.545684 
L 248.950336 158.904557 
L 250.553787 159.213945 
L 252.093082 161.594317 
L 253.573159 161.374633 
L 254.998405 161.355975 
L 256.372739 161.823317 
L 257.699672 162.033132 
L 258.982365 162.987628 
L 260.223675 166.423799 
L 262.592253 166.070702 
L 263.724018 166.462754 
L 264.823443 169.200658 
L 265.892324 168.42248 
L 266.932313 168.339854 
L 267.944931 169.164654 
L 269.893562 169.941067 
L 270.832078 171.265949 
L 271.748246 170.962832 
L 272.643106 171.420498 
L 273.517627 172.59443 
L 274.372712 172.435376 
L 275.209207 175.082575 
L 276.027903 174.678012 
L 276.829541 175.310038 
L 277.614818 176.36188 
L 278.384389 172.557939 
L 279.138869 176.046901 
L 279.878839 176.341548 
L 282.017014 178.016187 
L 282.704126 179.058476 
L 283.379182 179.29025 
L 284.0426 182.00025 
L 284.694772 178.34883 
L 285.336074 181.296268 
L 285.966863 181.749212 
L 286.587477 179.86142 
L 287.799459 183.248885 
L 288.391428 183.638067 
L 288.974428 182.745237 
L 289.548726 182.756045 
L 290.672229 183.975034 
L 291.221914 184.187332 
L 291.763856 186.579285 
L 292.29827 186.320976 
L 292.825364 185.714799 
L 293.345335 185.804289 
L 294.364659 188.237783 
L 294.864371 186.966948 
L 295.844736 185.947676 
L 296.325708 189.361684 
L 296.800742 185.138397 
L 297.269982 188.623045 
L 297.733569 186.97132 
L 298.191637 190.058741 
L 298.644316 189.7595 
L 299.534003 186.886448 
L 299.971249 188.481085 
L 300.831111 190.894885 
L 301.253943 189.937504 
L 301.672178 191.411185 
L 302.085915 189.38435 
L 302.900279 191.226466 
L 303.301087 191.871254 
L 303.697764 191.207243 
L 304.090392 192.428662 
L 304.479054 190.843018 
L 304.86383 193.444761 
L 305.244796 193.901344 
L 305.622027 193.27125 
L 305.995595 193.553664 
L 306.365572 194.444908 
L 306.732024 193.767984 
L 307.09502 192.363532 
L 307.454623 193.107675 
L 307.810896 192.513162 
L 308.163901 193.975319 
L 308.513697 194.034893 
L 308.860341 193.843378 
L 309.20389 193.903503 
L 309.544399 193.77688 
L 309.881921 194.636691 
L 310.216508 194.749255 
L 310.54821 195.010152 
L 310.877078 195.010779 
L 311.203158 194.614199 
L 311.526498 195.719581 
L 311.847144 194.126007 
L 312.165139 197.234094 
L 312.480528 197.025281 
L 312.793353 196.578195 
L 313.103655 196.506733 
L 313.411475 197.525168 
L 313.716851 199.158069 
L 314.019823 198.456754 
L 314.320428 197.199026 
L 314.618703 197.802171 
L 314.914683 197.735432 
L 315.4999 200.523285 
L 315.789204 200.054052 
L 316.076349 197.573604 
L 316.644289 199.766971 
L 316.925146 199.657594 
L 317.203968 200.795918 
L 317.755623 200.364715 
L 318.028512 201.417309 
L 318.29948 199.056933 
L 318.568552 201.297472 
L 318.835757 201.114156 
L 319.101118 200.115769 
L 319.364662 203.030529 
L 319.626413 202.574553 
L 319.886395 201.64527 
L 320.144633 203.648676 
L 320.401149 202.266071 
L 320.909107 202.205118 
L 321.160593 203.851769 
L 321.410446 201.48942 
L 321.905337 204.838355 
L 322.150416 203.965576 
L 322.393943 202.388065 
L 322.635939 202.663325 
L 323.115413 207.340321 
L 323.352928 204.23639 
L 323.588985 204.299002 
L 324.056799 206.720994 
L 324.288591 204.347116 
L 324.748026 208.202985 
L 324.975703 205.444331 
L 325.20204 206.361295 
L 325.650759 205.659494 
L 325.873172 206.897097 
L 326.094306 204.692809 
L 326.314177 205.478613 
L 326.532798 207.618862 
L 326.750184 205.53782 
L 326.966349 207.369597 
L 327.181306 207.366511 
L 327.395069 207.175432 
L 327.607651 207.800723 
L 327.819065 207.715039 
L 328.029324 208.453964 
L 328.23844 206.922844 
L 328.446426 207.8277 
L 328.653293 207.998435 
L 328.859054 208.417769 
L 329.063721 210.265961 
L 329.267305 207.385634 
L 329.469817 208.294567 
L 329.671269 207.295556 
L 329.871672 208.568 
L 330.071036 208.583834 
L 330.269373 207.85041 
L 330.466693 210.375578 
L 330.663006 207.868636 
L 330.858322 210.862646 
L 331.052652 210.88019 
L 331.438392 209.64586 
L 331.629821 210.80065 
L 332.009847 207.193872 
L 332.386155 210.517519 
L 332.572938 209.08333 
L 332.758819 211.31933 
L 332.943806 210.250837 
L 333.127908 208.334768 
L 333.311134 210.755889 
L 333.493491 210.624238 
L 333.674987 209.364678 
L 333.855632 213.645396 
L 334.035433 208.842114 
L 334.214397 209.642472 
L 334.392533 212.19562 
L 334.569847 211.012197 
L 334.746349 212.08301 
L 334.922044 210.944662 
L 335.096941 211.50653 
L 335.271047 211.482139 
L 335.444368 213.024591 
L 335.616912 212.601242 
L 335.788686 212.71387 
L 335.959696 212.654709 
L 336.299453 211.409275 
L 336.468213 211.488531 
L 336.636236 212.871372 
L 336.803529 211.225027 
L 336.970098 210.785154 
L 337.301087 214.396014 
L 337.46552 212.162966 
L 337.629253 213.36004 
L 337.792292 212.950632 
L 337.954644 213.801143 
L 338.116313 213.749403 
L 338.277306 214.406172 
L 338.437628 213.866661 
L 338.756282 216.343588 
L 339.072319 213.730164 
L 339.229369 215.426874 
L 339.385781 214.064961 
L 339.541559 213.955404 
L 339.69671 213.987883 
L 339.851237 213.467124 
L 340.005146 214.13825 
L 340.158442 213.581973 
L 340.31113 215.610315 
L 340.463214 214.613848 
L 340.614699 216.937571 
L 340.915893 215.481582 
L 341.06561 216.605626 
L 341.214747 215.263128 
L 341.363308 215.927482 
L 341.511297 215.324219 
L 341.65872 214.220622 
L 341.951881 216.517529 
L 342.097629 216.204609 
L 342.242826 216.841253 
L 342.387477 215.037625 
L 342.531587 215.63889 
L 342.675159 217.559151 
L 342.818197 216.89933 
L 342.960706 217.978042 
L 343.102688 215.769405 
L 343.52552 216.784571 
L 343.804847 215.79157 
L 344.082162 218.360594 
L 344.357493 214.851306 
L 344.494422 219.190521 
L 344.766829 218.245933 
L 344.902312 217.98806 
L 345.171856 216.849794 
L 345.305923 219.178345 
L 345.439525 219.064906 
L 345.572664 216.776471 
L 345.705345 218.715402 
L 345.837569 217.786033 
L 345.969341 218.699474 
L 346.100662 217.186854 
L 346.231538 217.570825 
L 346.361969 218.594685 
L 346.49196 218.28275 
L 346.621513 219.759121 
L 346.750631 219.925055 
L 346.879318 218.115495 
L 347.007576 220.064584 
L 347.135407 219.353701 
L 347.262815 219.415317 
L 347.389803 217.850116 
L 347.516373 220.254506 
L 347.642528 220.193039 
L 347.893604 221.426629 
L 348.01853 218.739645 
L 348.143052 221.871028 
L 348.267172 221.806024 
L 348.390894 221.351937 
L 348.514218 219.906539 
L 348.637149 219.905871 
L 348.759688 220.034477 
L 349.003602 218.691542 
L 349.245979 221.095559 
L 349.366597 219.635092 
L 349.486839 220.967299 
L 349.606706 220.839183 
L 349.7262 218.706381 
L 349.964082 223.395255 
L 350.082474 221.750653 
L 350.200502 221.664231 
L 350.31817 220.7421 
L 350.435478 221.343613 
L 350.552431 220.17495 
L 350.669028 224.616279 
L 350.785274 222.657444 
L 350.901169 222.839915 
L 351.016717 221.329406 
L 351.246776 222.090965 
L 351.361291 221.152806 
L 351.475467 222.423069 
L 351.589305 221.584638 
L 351.702808 221.86664 
L 351.815976 222.822606 
L 351.928813 222.198197 
L 352.041319 220.384621 
L 352.153498 223.195622 
L 352.265351 221.632178 
L 352.376879 224.203922 
L 352.488085 221.28625 
L 352.59897 221.395359 
L 352.709537 221.306156 
L 352.929722 222.767011 
L 353.039344 221.636077 
L 353.148655 223.150109 
L 353.366348 222.271378 
L 353.474735 224.157073 
L 353.582817 221.017427 
L 353.905254 223.109264 
L 354.012135 222.205831 
L 354.118721 224.930047 
L 354.225011 224.049115 
L 354.331009 222.036796 
L 354.542133 225.806324 
L 354.752105 221.882429 
L 355.06493 224.934162 
L 355.272076 223.862138 
L 355.375232 225.498862 
L 355.580719 222.651552 
L 355.683052 224.288863 
L 355.785114 223.199027 
L 355.886905 224.02091 
L 355.988428 223.259855 
L 356.089684 225.437036 
L 356.190675 224.97069 
L 356.391863 223.192553 
L 356.492065 224.647708 
L 356.592006 222.590663 
L 356.791112 223.573886 
L 356.89028 223.489567 
L 356.989194 223.63299 
L 357.087853 222.233172 
L 357.186261 225.094827 
L 357.284417 222.741336 
L 357.479981 225.428573 
L 357.771477 223.245921 
L 357.868154 225.469158 
L 357.964588 225.222685 
L 358.060781 224.625846 
L 358.156734 224.994052 
L 358.252449 226.692895 
L 358.347926 224.896784 
L 358.443167 225.449454 
L 358.538172 228.166775 
L 358.632944 226.148887 
L 358.727483 226.877406 
L 358.82179 225.453633 
L 358.915866 226.582378 
L 359.009713 225.551695 
L 359.103332 225.736462 
L 359.196723 227.062764 
L 359.289889 225.14068 
L 359.382829 226.499009 
L 359.475545 225.609136 
L 359.568039 225.77112 
L 359.752361 226.723628 
L 359.844192 226.659572 
L 359.935805 224.192019 
L 360.0272 224.323318 
L 360.209341 227.168076 
L 360.300089 227.969019 
L 360.390624 225.843863 
L 360.480946 228.500781 
L 360.660957 226.17857 
L 360.750648 229.038134 
L 360.84013 225.453386 
L 360.929404 227.162216 
L 361.018472 223.991905 
L 361.195991 228.943698 
L 361.372695 225.938018 
L 361.548591 227.196275 
L 361.636239 227.142541 
L 361.810937 225.632764 
L 361.89799 226.630679 
L 361.984846 226.493288 
L 362.071507 225.989257 
L 362.157972 228.210777 
L 362.244244 225.490668 
L 362.41621 228.826405 
L 362.501905 226.729424 
L 362.58741 230.199111 
L 362.672726 227.018353 
L 362.757852 228.422618 
L 362.927543 226.463881 
L 363.012108 229.18893 
L 363.180684 227.590335 
L 363.264695 227.575779 
L 363.348524 226.769446 
L 363.43217 228.714751 
L 363.515635 228.505404 
L 363.598919 226.416369 
L 363.682023 226.60434 
L 363.847695 229.693738 
L 363.930264 229.612397 
L 364.012657 227.05504 
L 364.094873 229.835618 
L 364.176914 228.491888 
L 364.25878 229.746776 
L 364.340473 227.508007 
L 364.421993 230.253752 
L 364.50334 228.274496 
L 364.665521 230.318178 
L 364.746355 227.268141 
L 364.82702 229.160086 
L 364.907517 228.82368 
L 364.987845 230.249325 
L 365.068006 227.917329 
L 365.148 231.26903 
L 365.307492 229.391295 
L 365.38699 230.283717 
L 365.703352 227.003104 
L 365.782037 232.040517 
L 365.860562 230.026335 
L 365.938927 229.638246 
L 366.017133 230.152862 
L 366.09518 229.010075 
L 366.173069 229.159488 
L 366.250801 230.799543 
L 366.328376 230.679589 
L 366.483059 232.892282 
L 366.560168 230.569372 
L 366.637122 231.733754 
L 366.713923 231.253233 
L 366.790571 229.004706 
L 366.867067 232.534521 
L 367.019603 228.907711 
L 367.171537 230.953625 
L 367.24728 231.064991 
L 367.322874 230.2855 
L 367.398319 231.269772 
L 367.473617 230.83621 
L 367.548768 230.633803 
L 367.623772 232.280291 
L 367.847912 229.75805 
L 367.996617 232.351922 
L 368.070754 232.049091 
L 368.144749 230.648637 
L 368.218602 234.344312 
L 368.365883 231.260875 
L 368.512603 232.082179 
L 368.585754 231.186647 
L 368.804375 232.617136 
L 368.876974 234.629347 
L 369.021761 230.991678 
L 369.093951 231.000494 
L 369.237926 233.338004 
L 369.381364 230.798879 
L 369.452883 233.380007 
L 369.52427 232.787949 
L 369.595524 231.123083 
L 369.666646 234.46245 
L 369.737638 231.383953 
L 369.808498 232.407098 
L 369.879228 232.807167 
L 369.949829 230.315176 
L 370.160856 234.112766 
L 370.230942 232.517576 
L 370.370733 234.663392 
L 370.440438 234.085255 
L 370.510017 231.277798 
L 370.718003 234.60993 
L 370.787082 232.111218 
L 370.856038 232.519787 
L 370.92487 233.978852 
L 370.993579 233.589105 
L 371.062166 233.086717 
L 371.130631 235.322656 
L 371.198975 234.347996 
L 371.267197 233.477748 
L 371.335298 233.796839 
L 371.403279 233.27528 
L 371.47114 233.352762 
L 371.674008 235.947827 
L 371.808662 233.41045 
L 371.875813 235.442136 
L 371.942846 234.808654 
L 372.009763 232.259047 
L 372.076564 233.71375 
L 372.209819 231.333308 
L 372.408839 235.319415 
L 372.474951 235.861548 
L 372.54095 234.424834 
L 372.606836 235.541056 
L 372.672609 233.471903 
L 372.73827 234.441814 
L 372.803819 234.439531 
L 372.869256 236.151884 
L 372.934583 233.465334 
L 372.999798 235.776706 
L 373.064904 234.817717 
L 373.129899 234.582063 
L 373.194785 236.335833 
L 373.259561 235.646598 
L 373.324229 233.840701 
L 373.388788 234.312831 
L 373.453239 235.455516 
L 373.517582 232.952074 
L 373.581818 237.623571 
L 373.581818 237.623571 
" clip-path="url(#p278366f836)" style="fill: none; stroke: #0000ff; stroke-width: 1.5; stroke-linecap: square"/>
   </g>
   <g id="line2d_72">
    <path d="M 69.218182 44.443636 
L 373.581818 220.709655 
L 373.581818 220.709655 
" clip-path="url(#p278366f836)" style="fill: none; stroke: #000000; stroke-width: 1.5; stroke-linecap: square"/>
   </g>
   <g id="patch_3">
    <path d="M 54 252 
L 54 34.56 
" style="fill: none; stroke: #000000; stroke-width: 0.8; stroke-linejoin: miter; stroke-linecap: square"/>
   </g>
   <g id="patch_4">
    <path d="M 388.8 252 
L 388.8 34.56 
" style="fill: none; stroke: #000000; stroke-width: 0.8; stroke-linejoin: miter; stroke-linecap: square"/>
   </g>
   <g id="patch_5">
    <path d="M 54 252 
L 388.8 252 
" style="fill: none; stroke: #000000; stroke-width: 0.8; stroke-linejoin: miter; stroke-linecap: square"/>
   </g>
   <g id="patch_6">
    <path d="M 54 34.56 
L 388.8 34.56 
" style="fill: none; stroke: #000000; stroke-width: 0.8; stroke-linejoin: miter; stroke-linecap: square"/>
   </g>
  </g>
 </g>
 <defs>
  <clipPath id="p278366f836">
   <rect x="54" y="34.56" width="334.8" height="217.44"/>
  </clipPath>
 </defs>
</svg>
