<?xml version="1.0" encoding="utf-8" standalone="no"?>
<!DOCTYPE svg PUBLIC "-//W3C//DTD SVG 1.1//EN"
  "http://www.w3.org/Graphics/SVG/1.1/DTD/svg11.dtd">
<svg xmlns:xlink="http://www.w3.org/1999/xlink" width="432pt" height="288pt" viewBox="0 0 432 288" xmlns="http://www.w3.org/2000/svg" version="1.1">
 <metadata>
  <rdf:RDF xmlns:dc="http://purl.org/dc/elements/1.1/" xmlns:cc="http://creativecommons.org/ns#" xmlns:rdf="http://www.w3.org/1999/02/22-rdf-syntax-ns#">
   <cc:Work>
    <dc:type rdf:resource="http://purl.org/dc/dcmitype/StillImage"/>
    <dc:date>2022-01-10T15:41:32.326185</dc:date>
    <dc:format>image/svg+xml</dc:format>
    <dc:creator>
     <cc:Agent>
      <dc:title>Matplotlib v3.5.1, https://matplotlib.org/</dc:title>
     </cc:Agent>
    </dc:creator>
   </cc:Work>
  </rdf:RDF>
 </metadata>
 <defs>
  <style type="text/css">*{stroke-linejoin: round; stroke-linecap: butt}</style>
 </defs>
 <g id="figure_1">
  <g id="patch_1">
   <path d="M 0 288 
L 432 288 
L 432 0 
L 0 0 
L 0 288 
z
" style="fill: none"/>
  </g>
  <g id="axes_1">
   <g id="patch_2">
    <path d="M 54 252 
L 388.8 252 
L 388.8 34.56 
L 54 34.56 
z
" style="fill: #ffffff"/>
   </g>
   <g id="PolyCollection_1">
    <defs>
     <path id="m995aeb0a5e" d="M 69.218182 -152.635903 
L 69.218182 -152.00852 
L 72.56614 -152.099982 
L 75.645963 -151.73785 
L 78.497434 -151.510674 
L 81.15209 -150.926023 
L 83.635354 -150.965467 
L 85.968023 -150.863681 
L 88.167321 -150.342681 
L 90.247679 -150.490554 
L 92.221304 -149.8428 
L 94.098615 -149.833241 
L 95.888578 -149.734597 
L 97.598959 -149.59258 
L 99.236536 -149.432751 
L 100.807254 -148.945785 
L 102.316359 -148.672151 
L 103.768503 -149.010076 
L 105.16783 -149.079472 
L 106.518047 -148.81696 
L 107.822486 -148.610112 
L 109.084148 -148.058701 
L 110.30575 -148.183642 
L 111.489759 -148.197123 
L 112.638419 -147.852912 
L 113.753779 -147.345477 
L 114.837717 -147.149853 
L 115.891954 -147.171238 
L 116.918075 -146.893529 
L 117.91754 -146.537005 
L 118.8917 -146.446909 
L 119.841804 -146.253281 
L 120.769011 -146.080214 
L 121.6744 -145.293463 
L 122.558973 -145.325235 
L 123.423667 -145.447068 
L 124.269355 -145.294135 
L 125.096854 -144.907365 
L 125.906932 -145.02358 
L 126.700305 -144.885208 
L 127.47765 -144.34908 
L 128.2396 -144.022957 
L 128.986755 -144.190468 
L 129.719677 -144.696929 
L 130.438899 -143.481746 
L 131.144923 -143.623161 
L 131.838225 -143.394906 
L 132.519256 -143.70802 
L 133.188443 -142.95466 
L 133.84619 -143.052737 
L 134.492881 -143.047513 
L 135.128883 -142.461837 
L 135.754543 -142.713475 
L 136.370192 -142.118831 
L 136.976146 -142.189804 
L 137.572704 -142.20339 
L 138.160155 -142.271432 
L 138.738771 -142.309227 
L 139.308814 -141.649495 
L 139.870536 -141.236375 
L 140.424175 -141.264022 
L 140.969961 -141.712894 
L 141.508113 -141.074861 
L 142.038842 -141.726645 
L 142.56235 -140.859897 
L 143.078831 -141.302112 
L 143.588471 -141.252177 
L 144.091448 -141.203983 
L 144.587936 -141.329086 
L 145.078099 -140.80954 
L 145.562096 -140.915139 
L 146.04008 -140.662041 
L 146.512199 -140.720501 
L 146.978596 -140.650206 
L 147.439407 -140.55336 
L 147.894764 -141.461732 
L 148.344796 -140.936096 
L 148.789624 -140.624256 
L 149.229369 -140.700309 
L 149.664145 -141.320353 
L 150.094063 -140.946916 
L 150.51923 -141.174006 
L 150.93975 -140.459277 
L 151.355725 -140.825199 
L 151.76725 -140.668861 
L 152.17442 -140.788086 
L 152.577327 -140.599083 
L 152.976059 -141.132781 
L 153.370701 -140.333284 
L 153.761336 -140.922463 
L 162.733995 -139.443476 
L 175.68052 -136.675225 
L 185.350408 -133.025862 
L 193.071664 -129.866752 
L 199.499445 -128.149816 
L 205.005572 -124.906972 
L 209.821505 -124.6541 
L 214.101162 -123.311682 
L 217.952098 -122.912586 
L 221.452441 -122.100868 
L 224.660736 -121.941833 
L 227.621985 -121.123066 
L 230.371529 -121.293252 
L 232.93763 -120.904431 
L 235.343241 -121.616592 
L 237.607262 -121.49963 
L 239.745437 -120.667945 
L 241.771022 -120.571324 
L 243.695286 -119.830904 
L 245.527882 -119.470314 
L 247.277149 -118.830481 
L 248.950336 -118.858261 
L 250.553787 -118.301438 
L 252.093082 -117.244855 
L 253.573159 -116.901375 
L 254.998405 -116.737426 
L 256.372739 -116.260315 
L 257.699672 -115.655495 
L 258.982365 -115.990148 
L 260.223675 -112.480448 
L 261.426186 -112.870665 
L 262.592253 -111.672626 
L 263.724018 -112.240272 
L 264.823443 -112.997456 
L 265.892324 -111.877807 
L 266.932313 -109.819672 
L 267.944931 -109.752677 
L 268.931581 -108.432907 
L 269.893562 -106.725544 
L 270.832078 -108.790172 
L 271.748246 -106.851545 
L 272.643106 -106.128323 
L 273.517627 -107.136175 
L 274.372712 -106.301 
L 275.209207 -106.2325 
L 276.027903 -105.212864 
L 276.829541 -103.760436 
L 277.614818 -105.830023 
L 278.384389 -104.228629 
L 279.138869 -102.575757 
L 279.878839 -102.141524 
L 280.604846 -102.766025 
L 281.317408 -99.575189 
L 282.017014 -101.597945 
L 282.704126 -101.342225 
L 283.379182 -101.114516 
L 284.0426 -99.682928 
L 284.694772 -98.655514 
L 285.336074 -99.237818 
L 285.966863 -97.45552 
L 286.587477 -96.590281 
L 287.19824 -99.009867 
L 287.799459 -97.719699 
L 288.391428 -98.685322 
L 288.974428 -98.923022 
L 289.548726 -97.849312 
L 290.114578 -95.699042 
L 290.672229 -95.68189 
L 291.221914 -95.821447 
L 291.763856 -94.293279 
L 292.29827 -97.035863 
L 292.825364 -94.305927 
L 293.345335 -95.845088 
L 293.858373 -93.397043 
L 294.364659 -92.811219 
L 294.864371 -93.190318 
L 295.357676 -93.958776 
L 295.844736 -94.890582 
L 296.325708 -93.090173 
L 296.800742 -93.459319 
L 297.269982 -91.644533 
L 297.733569 -93.279675 
L 298.191637 -91.952128 
L 298.644316 -92.01244 
L 299.091731 -92.530659 
L 299.534003 -91.819652 
L 299.971249 -90.580768 
L 300.403582 -92.289131 
L 300.831111 -91.64483 
L 301.253943 -92.340503 
L 301.672178 -89.456097 
L 302.085915 -90.463205 
L 302.495252 -89.065661 
L 302.900279 -91.357739 
L 303.301087 -90.710489 
L 303.697764 -88.101645 
L 304.090392 -90.533498 
L 304.479054 -90.010516 
L 304.86383 -90.23569 
L 305.244796 -88.242371 
L 305.622027 -85.820105 
L 305.995595 -87.49592 
L 306.365572 -88.652804 
L 306.732024 -86.440028 
L 307.09502 -85.88894 
L 307.454623 -87.318498 
L 307.810896 -86.128286 
L 308.163901 -85.524699 
L 308.513697 -86.165758 
L 308.860341 -86.449231 
L 309.20389 -85.846729 
L 309.544399 -88.1027 
L 309.881921 -84.613954 
L 310.216508 -88.15456 
L 310.54821 -86.262538 
L 310.877078 -87.766689 
L 311.203158 -85.726572 
L 311.526498 -86.152883 
L 311.847144 -86.952054 
L 312.165139 -84.418704 
L 312.480528 -83.962249 
L 312.793353 -81.907751 
L 313.103655 -84.37011 
L 313.411475 -81.994266 
L 313.716851 -84.355305 
L 314.019823 -81.952027 
L 314.320428 -83.231242 
L 314.618703 -84.612575 
L 314.914683 -86.071077 
L 315.208404 -83.706721 
L 315.4999 -82.370362 
L 315.789204 -84.84605 
L 316.076349 -83.837567 
L 316.361367 -81.802458 
L 316.644289 -81.109032 
L 316.925146 -81.561113 
L 317.203968 -82.493957 
L 317.480784 -83.487388 
L 317.755623 -80.362336 
L 318.028512 -82.862782 
L 318.29948 -80.264198 
L 318.568552 -84.322153 
L 318.835757 -80.299063 
L 319.101118 -79.482558 
L 319.364662 -83.475354 
L 319.626413 -80.679405 
L 319.886395 -77.85558 
L 320.144633 -79.617059 
L 320.401149 -78.988657 
L 320.655966 -80.61881 
L 320.909107 -81.26749 
L 321.160593 -79.224032 
L 321.410446 -82.332019 
L 321.658687 -81.814105 
L 321.905337 -78.507257 
L 322.150416 -79.643085 
L 322.393943 -78.310811 
L 322.635939 -77.99078 
L 322.876423 -79.181827 
L 323.115413 -79.404736 
L 323.352928 -79.082989 
L 323.588985 -75.173741 
L 323.823603 -77.137071 
L 324.056799 -78.178322 
L 324.288591 -78.546247 
L 324.518994 -74.652044 
L 324.748026 -75.776467 
L 324.975703 -77.261541 
L 325.20204 -79.108591 
L 325.427054 -76.212793 
L 325.650759 -77.281056 
L 325.873172 -78.011029 
L 326.094306 -76.344638 
L 326.314177 -75.709796 
L 326.532798 -77.121784 
L 326.750184 -77.062959 
L 326.966349 -78.402789 
L 327.181306 -73.977042 
L 327.395069 -75.015983 
L 327.607651 -77.67297 
L 327.819065 -76.139712 
L 328.029324 -75.370863 
L 328.23844 -74.926457 
L 328.446426 -75.802073 
L 328.653293 -74.143084 
L 328.859054 -74.919609 
L 329.063721 -74.17467 
L 329.267305 -75.272621 
L 329.469817 -74.154628 
L 329.671269 -74.483407 
L 329.871672 -75.620699 
L 330.071036 -71.98578 
L 330.269373 -75.666738 
L 330.466693 -75.480864 
L 330.663006 -72.012808 
L 330.858322 -73.919169 
L 331.052652 -75.165318 
L 331.246005 -72.150495 
L 331.438392 -71.816646 
L 331.629821 -71.005847 
L 331.820303 -71.105939 
L 332.009847 -69.394344 
L 332.198461 -74.837598 
L 332.386155 -71.517273 
L 332.572938 -71.216241 
L 332.758819 -69.97777 
L 332.943806 -71.934728 
L 333.127908 -71.207394 
L 333.311134 -72.808435 
L 333.493491 -70.840599 
L 333.674987 -72.878051 
L 333.855632 -71.120687 
L 334.035433 -70.816477 
L 334.214397 -70.82958 
L 334.392533 -73.952406 
L 334.569847 -71.09405 
L 334.746349 -73.572608 
L 334.922044 -71.263202 
L 335.096941 -70.286466 
L 335.271047 -72.299838 
L 335.444368 -69.251337 
L 335.616912 -69.208335 
L 335.788686 -69.944379 
L 335.959696 -70.095494 
L 336.12995 -70.01565 
L 336.299453 -68.548198 
L 336.468213 -70.651725 
L 336.636236 -69.142795 
L 336.803529 -70.316647 
L 336.970098 -70.056318 
L 337.135948 -70.175419 
L 337.301087 -68.721423 
L 337.46552 -67.934886 
L 337.629253 -70.917336 
L 337.792292 -69.735973 
L 337.954644 -69.111033 
L 338.116313 -68.630413 
L 338.277306 -69.082838 
L 338.437628 -67.89988 
L 338.597285 -68.927243 
L 338.756282 -67.691766 
L 338.914625 -69.197222 
L 339.072319 -70.253019 
L 339.229369 -68.774359 
L 339.385781 -68.462497 
L 339.541559 -66.791374 
L 339.69671 -66.019812 
L 339.851237 -66.989178 
L 340.005146 -69.442098 
L 340.158442 -70.960168 
L 340.31113 -68.197482 
L 340.463214 -65.787481 
L 340.614699 -68.229404 
L 340.765591 -68.446786 
L 340.915893 -66.625407 
L 341.06561 -67.888301 
L 341.214747 -67.07763 
L 341.363308 -67.588156 
L 341.511297 -67.966801 
L 341.65872 -66.896863 
L 341.80558 -65.220179 
L 341.951881 -65.637745 
L 342.097629 -67.357292 
L 342.242826 -66.004665 
L 342.387477 -66.481199 
L 342.531587 -63.715442 
L 342.675159 -65.388852 
L 342.818197 -64.610217 
L 342.960706 -67.751532 
L 343.102688 -64.021864 
L 343.244149 -64.965862 
L 343.385092 -64.897005 
L 343.52552 -67.239063 
L 343.665437 -65.32958 
L 343.804847 -64.756437 
L 343.943755 -63.107326 
L 344.082162 -65.390851 
L 344.220074 -64.907634 
L 344.357493 -68.268886 
L 344.494422 -63.47032 
L 344.630867 -65.760508 
L 344.766829 -64.397611 
L 344.902312 -65.332728 
L 345.03732 -63.11875 
L 345.171856 -64.827259 
L 345.305923 -63.874868 
L 345.439525 -63.941437 
L 345.572664 -65.259705 
L 345.705345 -63.103748 
L 345.837569 -64.726933 
L 345.969341 -64.986651 
L 346.100662 -62.591391 
L 346.231538 -64.368567 
L 346.361969 -63.653179 
L 346.49196 -62.145376 
L 346.621513 -60.572356 
L 346.750631 -62.512953 
L 346.879318 -64.274986 
L 347.007576 -63.890767 
L 347.135407 -62.464059 
L 347.262815 -62.681674 
L 347.389803 -62.850374 
L 347.516373 -62.003401 
L 347.642528 -63.539704 
L 347.768271 -63.552204 
L 347.893604 -64.163359 
L 348.01853 -62.577774 
L 348.143052 -63.015361 
L 348.267172 -61.200933 
L 348.390894 -63.89228 
L 348.514218 -59.469598 
L 348.637149 -64.988676 
L 348.759688 -63.440484 
L 348.881838 -63.535515 
L 349.003602 -62.284433 
L 349.124981 -63.938236 
L 349.245979 -64.354574 
L 349.366597 -63.69878 
L 349.486839 -62.947744 
L 349.606706 -61.066158 
L 349.7262 -59.247128 
L 349.845325 -60.190924 
L 349.964082 -62.581215 
L 350.082474 -61.930051 
L 350.200502 -62.213265 
L 350.31817 -62.705075 
L 350.435478 -61.680836 
L 350.552431 -60.866325 
L 350.669028 -60.770593 
L 350.785274 -62.567733 
L 350.901169 -60.963512 
L 351.016717 -62.061109 
L 351.131918 -62.138035 
L 351.246776 -60.962567 
L 351.361291 -59.907585 
L 351.475467 -60.950016 
L 351.589305 -61.023977 
L 351.702808 -61.184675 
L 351.815976 -62.300831 
L 351.928813 -60.750355 
L 352.041319 -58.99466 
L 352.153498 -60.5751 
L 352.265351 -60.994789 
L 352.376879 -60.121755 
L 352.488085 -59.131974 
L 352.59897 -60.4081 
L 352.709537 -62.687657 
L 352.819787 -60.637452 
L 352.929722 -59.828632 
L 353.039344 -61.06844 
L 353.148655 -58.897051 
L 353.257655 -58.755589 
L 353.366348 -57.871856 
L 353.474735 -60.866622 
L 353.582817 -58.414609 
L 353.690597 -59.609642 
L 353.798075 -60.887829 
L 353.905254 -58.030159 
L 354.012135 -59.890498 
L 354.118721 -58.176805 
L 354.225011 -61.142505 
L 354.331009 -60.789618 
L 354.436716 -59.638602 
L 354.542133 -60.836863 
L 354.647263 -57.930725 
L 354.752105 -58.610069 
L 354.856663 -59.012506 
L 354.960938 -60.278039 
L 355.06493 -59.543607 
L 355.168643 -59.201906 
L 355.272076 -58.639153 
L 355.375232 -58.741748 
L 355.478113 -58.473126 
L 355.580719 -57.636699 
L 355.683052 -59.787863 
L 355.785114 -58.502127 
L 355.886905 -59.589968 
L 355.988428 -59.971999 
L 356.089684 -57.946596 
L 356.190675 -58.144409 
L 356.2914 -58.346709 
L 356.391863 -59.470592 
L 356.492065 -57.778451 
L 356.592006 -58.163014 
L 356.691688 -58.228134 
L 356.791112 -58.762862 
L 356.89028 -58.093494 
L 356.989194 -58.950556 
L 357.087853 -57.541782 
L 357.186261 -58.354748 
L 357.284417 -59.158071 
L 357.382323 -59.611838 
L 357.479981 -57.844292 
L 357.577392 -57.010316 
L 357.674557 -57.613349 
L 357.771477 -57.248866 
L 357.868154 -57.271377 
L 357.964588 -58.055747 
L 358.060781 -58.02117 
L 358.156734 -55.559051 
L 358.252449 -58.46607 
L 358.347926 -56.493147 
L 358.443167 -56.559332 
L 358.538172 -56.743756 
L 358.632944 -56.550818 
L 358.727483 -57.56956 
L 358.82179 -56.63442 
L 358.915866 -55.743622 
L 359.009713 -57.805807 
L 359.103332 -56.926454 
L 359.196723 -57.237229 
L 359.289889 -58.539025 
L 359.382829 -55.518012 
L 359.475545 -56.432982 
L 359.568039 -58.353714 
L 359.66031 -57.64242 
L 359.752361 -58.627418 
L 359.844192 -56.735962 
L 359.935805 -58.61814 
L 360.0272 -56.251644 
L 360.118378 -56.027816 
L 360.209341 -56.744944 
L 360.300089 -55.007456 
L 360.390624 -55.442647 
L 360.480946 -56.963555 
L 360.571057 -56.785569 
L 360.660957 -57.020468 
L 360.750648 -56.663392 
L 360.84013 -56.571558 
L 360.929404 -55.400864 
L 361.018472 -55.966999 
L 361.107334 -56.703141 
L 361.195991 -56.587795 
L 361.284445 -56.964804 
L 361.372695 -56.493867 
L 361.460744 -57.785603 
L 361.548591 -55.071047 
L 361.636239 -55.366218 
L 361.723687 -54.912063 
L 361.810937 -56.60345 
L 361.89799 -56.247643 
L 361.984846 -54.43814 
L 362.071507 -55.679847 
L 362.157972 -56.199774 
L 362.244244 -55.567177 
L 362.330323 -55.310007 
L 362.41621 -54.679034 
L 362.501905 -53.303108 
L 362.58741 -55.408407 
L 362.672726 -55.45768 
L 362.757852 -54.220037 
L 362.842791 -54.078861 
L 362.927543 -55.511453 
L 363.012108 -53.244157 
L 363.096488 -54.450196 
L 363.180684 -55.61603 
L 363.264695 -55.617475 
L 363.348524 -57.269585 
L 363.43217 -54.403505 
L 363.515635 -54.091344 
L 363.598919 -53.383394 
L 363.682023 -54.989967 
L 363.764948 -54.703985 
L 363.847695 -54.25788 
L 363.930264 -55.985257 
L 364.012657 -52.96477 
L 364.094873 -54.297398 
L 364.176914 -55.717577 
L 364.25878 -54.201981 
L 364.340473 -54.707707 
L 364.421993 -53.799253 
L 364.50334 -54.10845 
L 364.584516 -57.288758 
L 364.665521 -55.140214 
L 364.746355 -53.931453 
L 364.82702 -53.594879 
L 364.907517 -53.89669 
L 364.987845 -52.855517 
L 365.068006 -53.41949 
L 365.148 -55.294321 
L 365.227828 -52.447641 
L 365.307492 -54.140789 
L 365.38699 -52.450225 
L 365.466325 -54.741328 
L 365.545496 -53.284835 
L 365.624505 -52.559888 
L 365.703352 -52.59833 
L 365.782037 -52.99404 
L 365.860562 -51.701664 
L 365.938927 -52.44104 
L 366.017133 -53.128862 
L 366.09518 -51.365919 
L 366.173069 -53.193714 
L 366.250801 -52.111518 
L 366.328376 -52.950534 
L 366.405795 -54.027745 
L 366.483059 -51.940337 
L 366.560168 -55.153908 
L 366.637122 -55.796558 
L 366.713923 -53.921402 
L 366.790571 -53.777057 
L 366.867067 -52.231271 
L 366.94341 -53.352078 
L 367.019603 -54.182051 
L 367.095645 -55.540493 
L 367.171537 -54.031302 
L 367.24728 -52.613001 
L 367.322874 -53.462832 
L 367.398319 -55.095025 
L 367.473617 -53.763252 
L 367.548768 -52.371742 
L 367.623772 -54.526743 
L 367.698631 -53.142257 
L 367.773344 -51.878099 
L 367.847912 -52.471712 
L 367.922336 -53.653847 
L 367.996617 -52.973044 
L 368.070754 -50.608129 
L 368.144749 -51.257862 
L 368.218602 -51.062143 
L 368.292313 -52.557938 
L 368.365883 -51.445695 
L 368.439313 -50.863198 
L 368.512603 -51.252395 
L 368.585754 -51.93428 
L 368.658766 -52.822972 
L 368.731639 -51.654688 
L 368.804375 -49.983783 
L 368.876974 -51.388842 
L 368.949436 -52.807745 
L 369.021761 -52.102318 
L 369.093951 -52.498902 
L 369.166006 -50.519155 
L 369.237926 -48.819446 
L 369.309712 -50.979014 
L 369.381364 -49.844693 
L 369.452883 -52.29089 
L 369.52427 -50.941332 
L 369.595524 -49.192714 
L 369.666646 -49.829716 
L 369.737638 -53.079099 
L 369.808498 -52.798822 
L 369.879228 -52.538047 
L 369.949829 -51.993682 
L 370.0203 -51.646936 
L 370.090642 -48.79681 
L 370.160856 -49.396504 
L 370.230942 -50.522705 
L 370.300901 -50.005966 
L 370.370733 -50.580167 
L 370.440438 -50.89907 
L 370.510017 -49.401454 
L 370.579471 -50.455309 
L 370.648799 -51.582766 
L 370.718003 -49.727945 
L 370.787082 -50.527159 
L 370.856038 -49.510191 
L 370.92487 -50.131048 
L 370.993579 -51.415677 
L 371.062166 -50.504513 
L 371.130631 -49.187859 
L 371.198975 -49.894981 
L 371.267197 -49.244917 
L 371.335298 -49.726629 
L 371.403279 -51.436099 
L 371.47114 -49.996006 
L 371.538882 -51.301036 
L 371.606504 -50.592143 
L 371.674008 -50.696806 
L 371.741394 -51.188037 
L 371.808662 -49.463187 
L 371.875813 -51.013156 
L 371.942846 -51.982654 
L 372.009763 -51.000413 
L 372.076564 -51.159895 
L 372.143249 -51.216641 
L 372.209819 -50.462803 
L 372.276273 -50.641074 
L 372.342613 -51.244265 
L 372.408839 -49.400456 
L 372.474951 -49.760466 
L 372.54095 -47.954118 
L 372.606836 -50.291112 
L 372.672609 -49.102362 
L 372.73827 -49.710364 
L 372.803819 -49.073945 
L 372.869256 -50.586614 
L 372.934583 -46.854894 
L 372.999798 -45.883636 
L 373.064904 -49.108523 
L 373.129899 -51.044569 
L 373.194785 -49.405721 
L 373.259561 -50.065687 
L 373.324229 -49.390347 
L 373.388788 -51.269943 
L 373.453239 -49.599145 
L 373.517582 -49.64023 
L 373.581818 -49.658659 
L 373.581818 -52.002316 
L 373.581818 -52.002316 
L 373.517582 -52.470924 
L 373.453239 -53.906602 
L 373.388788 -54.664437 
L 373.324229 -53.218691 
L 373.259561 -53.534603 
L 373.194785 -51.826525 
L 373.129899 -54.060141 
L 373.064904 -52.063864 
L 372.999798 -50.289574 
L 372.934583 -52.692045 
L 372.869256 -53.462269 
L 372.803819 -53.555218 
L 372.73827 -53.588905 
L 372.672609 -52.030091 
L 372.606836 -53.174705 
L 372.54095 -52.177319 
L 372.474951 -52.78973 
L 372.408839 -52.228629 
L 372.342613 -53.172765 
L 372.276273 -53.098679 
L 372.209819 -54.439511 
L 372.143249 -56.854241 
L 372.076564 -54.6171 
L 372.009763 -53.605794 
L 371.942846 -54.22028 
L 371.875813 -53.794857 
L 371.808662 -52.251986 
L 371.741394 -54.443771 
L 371.674008 -53.672626 
L 371.606504 -54.059776 
L 371.538882 -53.88398 
L 371.47114 -53.251138 
L 371.403279 -54.365128 
L 371.335298 -53.19809 
L 371.267197 -52.657713 
L 371.198975 -52.308574 
L 371.130631 -52.107754 
L 371.062166 -53.111924 
L 370.993579 -54.706048 
L 370.92487 -53.372653 
L 370.856038 -53.399554 
L 370.787082 -53.80734 
L 370.718003 -54.018464 
L 370.648799 -54.031923 
L 370.579471 -53.622578 
L 370.510017 -51.752961 
L 370.440438 -54.009346 
L 370.370733 -53.353916 
L 370.300901 -53.347547 
L 370.230942 -53.372281 
L 370.160856 -52.575564 
L 370.090642 -51.764446 
L 370.0203 -55.179462 
L 369.949829 -55.519229 
L 369.879228 -55.67993 
L 369.808498 -55.693085 
L 369.737638 -56.754267 
L 369.666646 -54.714099 
L 369.595524 -54.450973 
L 369.52427 -54.485512 
L 369.452883 -54.43883 
L 369.381364 -52.794265 
L 369.309712 -53.697867 
L 369.237926 -53.309331 
L 369.166006 -52.853934 
L 369.093951 -55.405047 
L 369.021761 -55.510814 
L 368.949436 -54.85478 
L 368.876974 -53.790499 
L 368.804375 -53.852162 
L 368.731639 -53.675452 
L 368.658766 -55.967366 
L 368.585754 -55.376691 
L 368.512603 -54.829527 
L 368.439313 -54.138141 
L 368.365883 -55.230979 
L 368.292313 -55.277498 
L 368.218602 -54.529983 
L 368.144749 -54.699325 
L 368.070754 -53.771757 
L 367.996617 -56.749414 
L 367.922336 -56.230324 
L 367.847912 -56.186868 
L 367.773344 -56.710733 
L 367.698631 -55.786482 
L 367.623772 -57.799028 
L 367.548768 -55.878825 
L 367.473617 -56.956194 
L 367.398319 -57.746475 
L 367.322874 -55.909031 
L 367.24728 -54.985277 
L 367.171537 -57.840544 
L 367.095645 -58.217101 
L 367.019603 -56.516577 
L 366.94341 -55.627897 
L 366.867067 -56.314788 
L 366.790571 -56.381846 
L 366.713923 -56.474346 
L 366.637122 -58.269683 
L 366.560168 -58.616401 
L 366.483059 -55.20141 
L 366.405795 -56.285375 
L 366.328376 -55.609416 
L 366.250801 -56.135951 
L 366.173069 -55.263397 
L 366.09518 -55.419799 
L 366.017133 -55.486 
L 365.938927 -55.890778 
L 365.860562 -55.027217 
L 365.782037 -56.491426 
L 365.703352 -56.15896 
L 365.624505 -56.133978 
L 365.545496 -56.004063 
L 365.466325 -57.897085 
L 365.38699 -55.731529 
L 365.307492 -58.346423 
L 365.227828 -55.929385 
L 365.148 -58.283374 
L 365.068006 -56.958275 
L 364.987845 -55.610122 
L 364.907517 -57.129693 
L 364.82702 -55.946661 
L 364.746355 -57.337455 
L 364.665521 -58.856497 
L 364.584516 -59.797178 
L 364.50334 -56.541284 
L 364.421993 -56.556102 
L 364.340473 -58.877268 
L 364.25878 -57.028391 
L 364.176914 -58.038638 
L 364.094873 -57.245696 
L 364.012657 -57.024749 
L 363.930264 -58.853615 
L 363.847695 -56.327855 
L 363.764948 -56.907262 
L 363.682023 -58.547681 
L 363.598919 -56.909911 
L 363.515635 -57.449002 
L 363.43217 -56.96926 
L 363.348524 -60.177255 
L 363.264695 -58.385762 
L 363.180684 -58.156002 
L 363.096488 -57.680944 
L 363.012108 -57.079203 
L 362.927543 -59.146146 
L 362.842791 -57.613662 
L 362.757852 -58.148138 
L 362.672726 -58.227773 
L 362.58741 -59.048299 
L 362.501905 -56.810449 
L 362.41621 -56.788608 
L 362.330323 -59.384795 
L 362.244244 -59.029568 
L 362.157972 -58.548833 
L 362.071507 -58.528212 
L 361.984846 -58.33285 
L 361.89799 -59.873021 
L 361.810937 -58.989845 
L 361.723687 -58.663801 
L 361.636239 -58.743147 
L 361.548591 -59.722779 
L 361.460744 -61.450065 
L 361.372695 -59.760536 
L 361.284445 -60.339487 
L 361.195991 -59.409586 
L 361.107334 -60.590957 
L 361.018472 -59.181815 
L 360.929404 -58.949377 
L 360.84013 -58.986079 
L 360.750648 -59.162908 
L 360.660957 -59.289845 
L 360.571057 -60.265558 
L 360.480946 -60.156696 
L 360.390624 -58.370671 
L 360.300089 -58.561184 
L 360.209341 -60.905101 
L 360.118378 -59.555348 
L 360.0272 -58.629571 
L 359.935805 -61.216482 
L 359.844192 -59.591148 
L 359.752361 -61.684853 
L 359.66031 -60.97553 
L 359.568039 -62.741984 
L 359.475545 -60.015779 
L 359.382829 -58.942312 
L 359.289889 -61.284233 
L 359.196723 -59.821455 
L 359.103332 -59.322386 
L 359.009713 -60.667695 
L 358.915866 -59.473631 
L 358.82179 -58.431731 
L 358.727483 -60.764957 
L 358.632944 -60.668846 
L 358.538172 -60.385349 
L 358.443167 -60.192143 
L 358.347926 -60.949115 
L 358.252449 -61.056836 
L 358.156734 -58.815589 
L 358.060781 -59.701593 
L 357.964588 -61.649515 
L 357.868154 -59.791824 
L 357.771477 -60.273005 
L 357.674557 -60.400008 
L 357.577392 -59.329237 
L 357.479981 -60.224493 
L 357.382323 -62.260244 
L 357.284417 -61.556804 
L 357.186261 -60.57961 
L 357.087853 -59.781882 
L 356.989194 -62.608335 
L 356.89028 -62.025591 
L 356.791112 -60.856685 
L 356.691688 -60.368447 
L 356.592006 -60.809275 
L 356.492065 -60.493869 
L 356.391863 -62.358268 
L 356.2914 -61.182974 
L 356.190675 -61.643301 
L 356.089684 -61.097526 
L 355.988428 -62.271683 
L 355.886905 -62.206754 
L 355.785114 -61.016761 
L 355.683052 -62.464961 
L 355.580719 -61.336254 
L 355.478113 -61.866197 
L 355.375232 -61.359311 
L 355.272076 -61.124157 
L 355.168643 -63.179092 
L 355.06493 -62.256175 
L 354.960938 -63.405538 
L 354.856663 -62.313589 
L 354.752105 -61.147233 
L 354.647263 -61.68901 
L 354.542133 -64.244728 
L 354.436716 -62.953175 
L 354.331009 -63.636326 
L 354.225011 -65.404736 
L 354.118721 -61.921422 
L 354.012135 -62.141844 
L 353.905254 -61.456716 
L 353.798075 -63.599517 
L 353.690597 -62.691078 
L 353.582817 -62.235533 
L 353.474735 -64.040492 
L 353.366348 -63.333675 
L 353.257655 -62.067648 
L 353.148655 -62.505234 
L 353.039344 -64.071766 
L 352.929722 -62.278834 
L 352.819787 -63.505052 
L 352.709537 -65.794504 
L 352.59897 -65.238348 
L 352.488085 -62.06236 
L 352.376879 -63.238803 
L 352.265351 -64.100009 
L 352.153498 -64.30409 
L 352.041319 -62.387109 
L 351.928813 -63.796766 
L 351.815976 -66.956943 
L 351.702808 -64.362544 
L 351.589305 -63.898501 
L 351.475467 -65.4361 
L 351.361291 -63.883397 
L 351.246776 -64.270755 
L 351.131918 -66.005468 
L 351.016717 -65.431333 
L 350.901169 -64.404499 
L 350.785274 -66.843494 
L 350.669028 -65.556262 
L 350.552431 -65.024608 
L 350.435478 -64.992228 
L 350.31817 -67.44165 
L 350.200502 -65.540374 
L 350.082474 -66.698667 
L 349.964082 -66.301854 
L 349.845325 -63.665163 
L 349.7262 -64.456652 
L 349.606706 -65.124666 
L 349.486839 -66.49492 
L 349.366597 -67.870341 
L 349.245979 -67.267555 
L 349.124981 -67.804391 
L 349.003602 -65.073955 
L 348.881838 -66.169043 
L 348.759688 -67.540386 
L 348.637149 -69.042225 
L 348.514218 -64.85696 
L 348.390894 -66.748661 
L 348.267172 -65.599441 
L 348.143052 -65.578734 
L 348.01853 -65.964976 
L 347.893604 -67.745771 
L 347.768271 -68.487533 
L 347.642528 -66.77212 
L 347.516373 -66.362367 
L 347.389803 -66.412193 
L 347.262815 -65.364764 
L 347.135407 -66.237246 
L 347.007576 -66.340139 
L 346.879318 -67.539262 
L 346.750631 -65.728122 
L 346.621513 -65.920352 
L 346.49196 -66.073742 
L 346.361969 -66.983521 
L 346.231538 -68.686455 
L 346.100662 -66.550959 
L 345.969341 -67.975901 
L 345.837569 -66.871889 
L 345.705345 -66.724412 
L 345.572664 -68.087226 
L 345.439525 -67.659017 
L 345.305923 -67.717722 
L 345.171856 -69.214425 
L 345.03732 -67.282168 
L 344.902312 -68.521511 
L 344.766829 -68.437951 
L 344.630867 -68.979075 
L 344.494422 -68.75628 
L 344.357493 -71.112528 
L 344.220074 -68.356583 
L 344.082162 -68.724442 
L 343.943755 -67.120035 
L 343.804847 -68.363574 
L 343.665437 -68.743388 
L 343.52552 -70.452316 
L 343.385092 -68.903751 
L 343.244149 -68.824057 
L 343.102688 -67.730108 
L 342.960706 -70.773907 
L 342.818197 -69.315267 
L 342.675159 -68.736053 
L 342.531587 -69.249329 
L 342.387477 -69.313496 
L 342.242826 -68.568038 
L 342.097629 -72.292707 
L 341.951881 -68.72512 
L 341.80558 -69.186098 
L 341.65872 -70.09102 
L 341.511297 -70.789688 
L 341.363308 -70.560179 
L 341.214747 -71.418847 
L 341.06561 -71.576061 
L 340.915893 -70.585257 
L 340.765591 -71.369462 
L 340.614699 -71.687584 
L 340.463214 -71.5475 
L 340.31113 -71.62756 
L 340.158442 -73.036499 
L 340.005146 -73.949071 
L 339.851237 -71.732155 
L 339.69671 -68.711642 
L 339.541559 -69.983852 
L 339.385781 -71.526745 
L 339.229369 -71.991954 
L 339.072319 -73.941768 
L 338.914625 -72.155726 
L 338.756282 -71.190285 
L 338.597285 -72.572785 
L 338.437628 -70.806638 
L 338.277306 -72.617281 
L 338.116313 -73.490067 
L 337.954644 -72.743136 
L 337.792292 -73.998576 
L 337.629253 -75.27802 
L 337.46552 -71.612632 
L 337.301087 -71.846033 
L 337.135948 -73.518369 
L 336.970098 -72.762135 
L 336.803529 -73.274721 
L 336.636236 -73.405787 
L 336.468213 -75.356141 
L 336.299453 -73.649509 
L 336.12995 -72.198497 
L 335.959696 -73.597628 
L 335.788686 -72.910319 
L 335.616912 -73.45494 
L 335.444368 -73.619911 
L 335.271047 -76.456231 
L 335.096941 -72.636852 
L 334.922044 -74.356652 
L 334.746349 -75.983807 
L 334.569847 -75.042461 
L 334.392533 -78.225877 
L 334.214397 -77.1832 
L 334.035433 -75.436115 
L 333.855632 -74.79718 
L 333.674987 -75.786579 
L 333.493491 -76.258026 
L 333.311134 -76.724167 
L 333.127908 -74.966449 
L 332.943806 -74.917492 
L 332.758819 -73.973829 
L 332.572938 -74.807672 
L 332.386155 -74.895235 
L 332.198461 -79.152891 
L 332.009847 -73.048664 
L 331.820303 -74.277909 
L 331.629821 -77.348824 
L 331.438392 -75.759049 
L 331.246005 -75.387042 
L 331.052652 -78.483369 
L 330.858322 -76.831784 
L 330.663006 -76.718357 
L 330.466693 -77.477496 
L 330.269373 -79.724434 
L 330.071036 -77.05513 
L 329.871672 -78.380105 
L 329.671269 -78.084149 
L 329.469817 -79.602139 
L 329.267305 -78.670248 
L 329.063721 -79.375099 
L 328.859054 -78.532572 
L 328.653293 -76.956549 
L 328.446426 -78.621534 
L 328.23844 -77.746729 
L 328.029324 -79.247063 
L 327.819065 -78.800393 
L 327.607651 -82.167658 
L 327.395069 -79.283332 
L 327.181306 -78.628005 
L 326.966349 -81.914239 
L 326.750184 -80.725239 
L 326.532798 -80.301264 
L 326.314177 -79.369487 
L 326.094306 -80.304819 
L 325.873172 -82.724967 
L 325.650759 -81.194355 
L 325.427054 -79.425425 
L 325.20204 -83.45229 
L 324.975703 -81.252477 
L 324.748026 -82.580716 
L 324.518994 -79.669632 
L 324.288591 -81.772629 
L 324.056799 -82.270758 
L 323.823603 -83.124736 
L 323.588985 -78.691672 
L 323.352928 -83.052149 
L 323.115413 -83.022412 
L 322.876423 -81.44114 
L 322.635939 -82.513924 
L 322.393943 -82.883748 
L 322.150416 -83.065133 
L 321.905337 -83.177999 
L 321.658687 -85.328428 
L 321.410446 -86.496136 
L 321.160593 -83.883465 
L 320.909107 -84.718344 
L 320.655966 -85.221556 
L 320.401149 -82.472061 
L 320.144633 -83.513688 
L 319.886395 -81.690252 
L 319.626413 -85.585412 
L 319.364662 -86.090519 
L 319.101118 -82.780878 
L 318.835757 -83.768075 
L 318.568552 -88.319994 
L 318.29948 -85.363479 
L 318.028512 -87.017911 
L 317.755623 -84.15981 
L 317.480784 -87.626335 
L 317.203968 -86.596255 
L 316.925146 -86.498274 
L 316.644289 -86.074724 
L 316.361367 -84.91595 
L 316.076349 -88.837009 
L 315.789204 -88.009945 
L 315.4999 -85.722786 
L 315.208404 -86.620646 
L 314.914683 -89.396586 
L 314.618703 -87.669091 
L 314.320428 -86.08792 
L 314.019823 -85.634546 
L 313.716851 -87.75762 
L 313.411475 -85.880071 
L 313.103655 -87.672833 
L 312.793353 -85.914517 
L 312.480528 -87.098135 
L 312.165139 -88.145514 
L 311.847144 -90.046674 
L 311.526498 -89.25913 
L 311.203158 -87.747159 
L 310.877078 -91.541921 
L 310.54821 -88.901126 
L 310.216508 -91.023692 
L 309.881921 -87.931655 
L 309.544399 -92.088783 
L 309.20389 -90.254925 
L 308.860341 -90.996967 
L 308.513697 -89.066546 
L 308.163901 -88.771628 
L 307.810896 -89.954006 
L 307.454623 -90.599048 
L 307.09502 -90.433249 
L 306.732024 -91.108594 
L 306.365572 -90.999322 
L 305.995595 -91.679774 
L 305.622027 -89.626779 
L 305.244796 -90.643808 
L 304.86383 -92.189536 
L 304.479054 -92.210253 
L 304.090392 -93.39632 
L 303.697764 -91.439352 
L 303.301087 -92.654822 
L 302.900279 -94.641056 
L 302.495252 -92.181753 
L 302.085915 -93.316937 
L 301.672178 -93.740124 
L 301.253943 -94.553426 
L 300.831111 -94.861133 
L 300.403582 -95.8255 
L 299.971249 -94.529019 
L 299.534003 -95.456281 
L 299.091731 -96.21286 
L 298.644316 -95.177754 
L 298.191637 -94.360753 
L 297.733569 -95.914338 
L 297.269982 -95.839292 
L 296.800742 -95.988385 
L 296.325708 -97.805209 
L 295.844736 -98.658633 
L 295.357676 -97.185816 
L 294.864371 -96.169178 
L 294.364659 -95.627646 
L 293.858373 -96.898596 
L 293.345335 -98.644641 
L 292.825364 -96.684917 
L 292.29827 -99.791296 
L 291.763856 -98.64373 
L 291.221914 -98.611647 
L 290.672229 -98.900486 
L 290.114578 -98.268806 
L 289.548726 -101.296613 
L 288.974428 -101.642107 
L 288.391428 -101.384189 
L 287.799459 -100.95202 
L 287.19824 -102.432566 
L 286.587477 -100.434115 
L 285.966863 -101.767942 
L 285.336074 -102.857878 
L 284.694772 -101.59538 
L 284.0426 -102.24089 
L 283.379182 -103.452669 
L 282.704126 -103.855626 
L 282.017014 -104.044614 
L 281.317408 -102.807669 
L 280.604846 -105.785665 
L 279.878839 -105.77587 
L 279.138869 -105.332628 
L 278.384389 -107.666517 
L 277.614818 -108.069672 
L 276.829541 -106.248511 
L 276.027903 -108.664779 
L 275.209207 -109.434773 
L 274.372712 -110.022843 
L 273.517627 -109.591242 
L 272.643106 -108.59394 
L 271.748246 -110.147742 
L 270.832078 -111.710056 
L 269.893562 -109.090549 
L 268.931581 -111.309677 
L 267.944931 -112.199085 
L 266.932313 -112.447168 
L 265.892324 -114.108662 
L 264.823443 -114.704785 
L 263.724018 -115.372229 
L 262.592253 -113.696486 
L 261.426186 -114.957697 
L 260.223675 -114.89428 
L 258.982365 -117.735273 
L 257.699672 -117.097193 
L 256.372739 -117.560866 
L 254.998405 -118.525488 
L 253.573159 -119.011667 
L 252.093082 -119.02948 
L 250.553787 -119.841463 
L 248.950336 -120.302282 
L 247.277149 -120.534935 
L 245.527882 -121.063666 
L 243.695286 -121.255476 
L 241.771022 -122.433414 
L 239.745437 -122.298633 
L 237.607262 -123.101341 
L 235.343241 -122.548823 
L 232.93763 -122.321016 
L 230.371529 -123.111635 
L 227.621985 -122.491711 
L 224.660736 -123.36167 
L 221.452441 -123.530512 
L 217.952098 -124.315539 
L 214.101162 -124.889753 
L 209.821505 -126.127386 
L 205.005572 -126.657222 
L 199.499445 -129.316775 
L 193.071664 -131.489603 
L 185.350408 -134.392674 
L 175.68052 -137.809042 
L 162.733995 -140.441142 
L 153.761336 -141.818709 
L 153.370701 -141.122088 
L 152.976059 -141.922603 
L 152.577327 -141.390922 
L 152.17442 -141.542137 
L 151.76725 -141.753708 
L 151.355725 -141.648198 
L 150.93975 -141.378368 
L 150.51923 -142.129131 
L 150.094063 -141.588048 
L 149.664145 -142.367719 
L 149.229369 -141.559909 
L 148.789624 -142.006847 
L 148.344796 -141.941628 
L 147.894764 -142.293312 
L 147.439407 -141.433689 
L 146.978596 -141.816374 
L 146.512199 -141.665274 
L 146.04008 -141.492293 
L 145.562096 -141.847248 
L 145.078099 -141.801115 
L 144.587936 -142.175791 
L 144.091448 -142.091747 
L 143.588471 -142.522277 
L 143.078831 -142.073748 
L 142.56235 -141.910023 
L 142.038842 -142.630793 
L 141.508113 -142.374202 
L 140.969961 -142.745261 
L 140.424175 -142.37311 
L 139.870536 -142.466053 
L 139.308814 -142.910935 
L 138.738771 -143.303924 
L 138.160155 -143.077805 
L 137.572704 -143.244299 
L 136.976146 -143.199617 
L 136.370192 -143.359635 
L 135.754543 -143.741811 
L 135.128883 -143.56168 
L 134.492881 -144.50038 
L 133.84619 -144.348731 
L 133.188443 -144.058384 
L 132.519256 -144.427048 
L 131.838225 -144.356645 
L 131.144923 -145.111751 
L 130.438899 -144.619978 
L 129.719677 -145.665067 
L 128.986755 -145.027559 
L 128.2396 -145.200575 
L 127.47765 -145.308735 
L 126.700305 -145.579344 
L 125.906932 -145.838414 
L 125.096854 -145.58745 
L 124.269355 -146.150542 
L 123.423667 -146.374303 
L 122.558973 -146.398005 
L 121.6744 -146.266924 
L 120.769011 -146.989707 
L 119.841804 -147.091851 
L 118.8917 -147.452566 
L 117.91754 -147.32711 
L 116.918075 -147.830477 
L 115.891954 -148.107476 
L 114.837717 -148.016703 
L 113.753779 -148.223788 
L 112.638419 -148.539557 
L 111.489759 -149.281767 
L 110.30575 -149.023933 
L 109.084148 -148.912307 
L 107.822486 -149.244552 
L 106.518047 -149.472281 
L 105.16783 -149.664709 
L 103.768503 -149.889721 
L 102.316359 -149.510028 
L 100.807254 -149.744456 
L 99.236536 -150.187627 
L 97.598959 -150.410086 
L 95.888578 -150.494579 
L 94.098615 -150.490856 
L 92.221304 -150.727752 
L 90.247679 -151.222106 
L 88.167321 -151.053781 
L 85.968023 -151.489033 
L 83.635354 -152.026336 
L 81.15209 -151.939938 
L 78.497434 -152.243005 
L 75.645963 -152.48078 
L 72.56614 -152.94689 
L 69.218182 -152.635903 
z
" style="stroke: #ff0000; stroke-opacity: 0.2"/>
    </defs>
    <g clip-path="url(#p2f46a513a2)">
     <use xlink:href="#m995aeb0a5e" x="0" y="288" style="fill: #ff0000; fill-opacity: 0.2; stroke: #ff0000; stroke-opacity: 0.2"/>
    </g>
   </g>
   <g id="matplotlib.axis_1">
    <g id="xtick_1">
     <g id="line2d_1">
      <defs>
       <path id="mc927c885b8" d="M 0 0 
L 0 3.5 
" style="stroke: #000000; stroke-width: 0.8"/>
      </defs>
      <g>
       <use xlink:href="#mc927c885b8" x="65.550908" y="252" style="stroke: #000000; stroke-width: 0.8"/>
      </g>
     </g>
     <g id="text_1">
      <!-- $\mathdefault{10^{1}}$ -->
      <g transform="translate(56.750908 266.598437)scale(0.1 -0.1)">
       <defs>
        <path id="DejaVuSans-31" d="M 794 531 
L 1825 531 
L 1825 4091 
L 703 3866 
L 703 4441 
L 1819 4666 
L 2450 4666 
L 2450 531 
L 3481 531 
L 3481 0 
L 794 0 
L 794 531 
z
" transform="scale(0.015625)"/>
        <path id="DejaVuSans-30" d="M 2034 4250 
Q 1547 4250 1301 3770 
Q 1056 3291 1056 2328 
Q 1056 1369 1301 889 
Q 1547 409 2034 409 
Q 2525 409 2770 889 
Q 3016 1369 3016 2328 
Q 3016 3291 2770 3770 
Q 2525 4250 2034 4250 
z
M 2034 4750 
Q 2819 4750 3233 4129 
Q 3647 3509 3647 2328 
Q 3647 1150 3233 529 
Q 2819 -91 2034 -91 
Q 1250 -91 836 529 
Q 422 1150 422 2328 
Q 422 3509 836 4129 
Q 1250 4750 2034 4750 
z
" transform="scale(0.015625)"/>
       </defs>
       <use xlink:href="#DejaVuSans-31" transform="translate(0 0.684375)"/>
       <use xlink:href="#DejaVuSans-30" transform="translate(63.623047 0.684375)"/>
       <use xlink:href="#DejaVuSans-31" transform="translate(128.203125 38.965625)scale(0.7)"/>
      </g>
     </g>
    </g>
    <g id="xtick_2">
     <g id="line2d_2">
      <g>
       <use xlink:href="#mc927c885b8" x="154.148045" y="252" style="stroke: #000000; stroke-width: 0.8"/>
      </g>
     </g>
     <g id="text_2">
      <!-- $\mathdefault{10^{2}}$ -->
      <g transform="translate(145.348045 266.598437)scale(0.1 -0.1)">
       <defs>
        <path id="DejaVuSans-32" d="M 1228 531 
L 3431 531 
L 3431 0 
L 469 0 
L 469 531 
Q 828 903 1448 1529 
Q 2069 2156 2228 2338 
Q 2531 2678 2651 2914 
Q 2772 3150 2772 3378 
Q 2772 3750 2511 3984 
Q 2250 4219 1831 4219 
Q 1534 4219 1204 4116 
Q 875 4013 500 3803 
L 500 4441 
Q 881 4594 1212 4672 
Q 1544 4750 1819 4750 
Q 2544 4750 2975 4387 
Q 3406 4025 3406 3419 
Q 3406 3131 3298 2873 
Q 3191 2616 2906 2266 
Q 2828 2175 2409 1742 
Q 1991 1309 1228 531 
z
" transform="scale(0.015625)"/>
       </defs>
       <use xlink:href="#DejaVuSans-31" transform="translate(0 0.765625)"/>
       <use xlink:href="#DejaVuSans-30" transform="translate(63.623047 0.765625)"/>
       <use xlink:href="#DejaVuSans-32" transform="translate(128.203125 39.046875)scale(0.7)"/>
      </g>
     </g>
    </g>
    <g id="xtick_3">
     <g id="line2d_3">
      <g>
       <use xlink:href="#mc927c885b8" x="242.745182" y="252" style="stroke: #000000; stroke-width: 0.8"/>
      </g>
     </g>
     <g id="text_3">
      <!-- $\mathdefault{10^{3}}$ -->
      <g transform="translate(233.945182 266.598437)scale(0.1 -0.1)">
       <defs>
        <path id="DejaVuSans-33" d="M 2597 2516 
Q 3050 2419 3304 2112 
Q 3559 1806 3559 1356 
Q 3559 666 3084 287 
Q 2609 -91 1734 -91 
Q 1441 -91 1130 -33 
Q 819 25 488 141 
L 488 750 
Q 750 597 1062 519 
Q 1375 441 1716 441 
Q 2309 441 2620 675 
Q 2931 909 2931 1356 
Q 2931 1769 2642 2001 
Q 2353 2234 1838 2234 
L 1294 2234 
L 1294 2753 
L 1863 2753 
Q 2328 2753 2575 2939 
Q 2822 3125 2822 3475 
Q 2822 3834 2567 4026 
Q 2313 4219 1838 4219 
Q 1578 4219 1281 4162 
Q 984 4106 628 3988 
L 628 4550 
Q 988 4650 1302 4700 
Q 1616 4750 1894 4750 
Q 2613 4750 3031 4423 
Q 3450 4097 3450 3541 
Q 3450 3153 3228 2886 
Q 3006 2619 2597 2516 
z
" transform="scale(0.015625)"/>
       </defs>
       <use xlink:href="#DejaVuSans-31" transform="translate(0 0.765625)"/>
       <use xlink:href="#DejaVuSans-30" transform="translate(63.623047 0.765625)"/>
       <use xlink:href="#DejaVuSans-33" transform="translate(128.203125 39.046875)scale(0.7)"/>
      </g>
     </g>
    </g>
    <g id="xtick_4">
     <g id="line2d_4">
      <g>
       <use xlink:href="#mc927c885b8" x="331.342319" y="252" style="stroke: #000000; stroke-width: 0.8"/>
      </g>
     </g>
     <g id="text_4">
      <!-- $\mathdefault{10^{4}}$ -->
      <g transform="translate(322.542319 266.598437)scale(0.1 -0.1)">
       <defs>
        <path id="DejaVuSans-34" d="M 2419 4116 
L 825 1625 
L 2419 1625 
L 2419 4116 
z
M 2253 4666 
L 3047 4666 
L 3047 1625 
L 3713 1625 
L 3713 1100 
L 3047 1100 
L 3047 0 
L 2419 0 
L 2419 1100 
L 313 1100 
L 313 1709 
L 2253 4666 
z
" transform="scale(0.015625)"/>
       </defs>
       <use xlink:href="#DejaVuSans-31" transform="translate(0 0.684375)"/>
       <use xlink:href="#DejaVuSans-30" transform="translate(63.623047 0.684375)"/>
       <use xlink:href="#DejaVuSans-34" transform="translate(128.203125 38.965625)scale(0.7)"/>
      </g>
     </g>
    </g>
    <g id="xtick_5">
     <g id="line2d_5">
      <defs>
       <path id="mfab5861bb1" d="M 0 0 
L 0 2 
" style="stroke: #000000; stroke-width: 0.6"/>
      </defs>
      <g>
       <use xlink:href="#mfab5861bb1" x="56.964959" y="252" style="stroke: #000000; stroke-width: 0.6"/>
      </g>
     </g>
    </g>
    <g id="xtick_6">
     <g id="line2d_6">
      <g>
       <use xlink:href="#mfab5861bb1" x="61.496926" y="252" style="stroke: #000000; stroke-width: 0.6"/>
      </g>
     </g>
    </g>
    <g id="xtick_7">
     <g id="line2d_7">
      <g>
       <use xlink:href="#mfab5861bb1" x="92.221304" y="252" style="stroke: #000000; stroke-width: 0.6"/>
      </g>
     </g>
    </g>
    <g id="xtick_8">
     <g id="line2d_8">
      <g>
       <use xlink:href="#mfab5861bb1" x="107.822486" y="252" style="stroke: #000000; stroke-width: 0.6"/>
      </g>
     </g>
    </g>
    <g id="xtick_9">
     <g id="line2d_9">
      <g>
       <use xlink:href="#mfab5861bb1" x="118.8917" y="252" style="stroke: #000000; stroke-width: 0.6"/>
      </g>
     </g>
    </g>
    <g id="xtick_10">
     <g id="line2d_10">
      <g>
       <use xlink:href="#mfab5861bb1" x="127.47765" y="252" style="stroke: #000000; stroke-width: 0.6"/>
      </g>
     </g>
    </g>
    <g id="xtick_11">
     <g id="line2d_11">
      <g>
       <use xlink:href="#mfab5861bb1" x="134.492881" y="252" style="stroke: #000000; stroke-width: 0.6"/>
      </g>
     </g>
    </g>
    <g id="xtick_12">
     <g id="line2d_12">
      <g>
       <use xlink:href="#mfab5861bb1" x="140.424175" y="252" style="stroke: #000000; stroke-width: 0.6"/>
      </g>
     </g>
    </g>
    <g id="xtick_13">
     <g id="line2d_13">
      <g>
       <use xlink:href="#mfab5861bb1" x="145.562096" y="252" style="stroke: #000000; stroke-width: 0.6"/>
      </g>
     </g>
    </g>
    <g id="xtick_14">
     <g id="line2d_14">
      <g>
       <use xlink:href="#mfab5861bb1" x="150.094063" y="252" style="stroke: #000000; stroke-width: 0.6"/>
      </g>
     </g>
    </g>
    <g id="xtick_15">
     <g id="line2d_15">
      <g>
       <use xlink:href="#mfab5861bb1" x="180.818441" y="252" style="stroke: #000000; stroke-width: 0.6"/>
      </g>
     </g>
    </g>
    <g id="xtick_16">
     <g id="line2d_16">
      <g>
       <use xlink:href="#mfab5861bb1" x="196.419622" y="252" style="stroke: #000000; stroke-width: 0.6"/>
      </g>
     </g>
    </g>
    <g id="xtick_17">
     <g id="line2d_17">
      <g>
       <use xlink:href="#mfab5861bb1" x="207.488837" y="252" style="stroke: #000000; stroke-width: 0.6"/>
      </g>
     </g>
    </g>
    <g id="xtick_18">
     <g id="line2d_18">
      <g>
       <use xlink:href="#mfab5861bb1" x="216.074786" y="252" style="stroke: #000000; stroke-width: 0.6"/>
      </g>
     </g>
    </g>
    <g id="xtick_19">
     <g id="line2d_19">
      <g>
       <use xlink:href="#mfab5861bb1" x="223.090018" y="252" style="stroke: #000000; stroke-width: 0.6"/>
      </g>
     </g>
    </g>
    <g id="xtick_20">
     <g id="line2d_20">
      <g>
       <use xlink:href="#mfab5861bb1" x="229.021312" y="252" style="stroke: #000000; stroke-width: 0.6"/>
      </g>
     </g>
    </g>
    <g id="xtick_21">
     <g id="line2d_21">
      <g>
       <use xlink:href="#mfab5861bb1" x="234.159232" y="252" style="stroke: #000000; stroke-width: 0.6"/>
      </g>
     </g>
    </g>
    <g id="xtick_22">
     <g id="line2d_22">
      <g>
       <use xlink:href="#mfab5861bb1" x="238.691199" y="252" style="stroke: #000000; stroke-width: 0.6"/>
      </g>
     </g>
    </g>
    <g id="xtick_23">
     <g id="line2d_23">
      <g>
       <use xlink:href="#mfab5861bb1" x="269.415578" y="252" style="stroke: #000000; stroke-width: 0.6"/>
      </g>
     </g>
    </g>
    <g id="xtick_24">
     <g id="line2d_24">
      <g>
       <use xlink:href="#mfab5861bb1" x="285.016759" y="252" style="stroke: #000000; stroke-width: 0.6"/>
      </g>
     </g>
    </g>
    <g id="xtick_25">
     <g id="line2d_25">
      <g>
       <use xlink:href="#mfab5861bb1" x="296.085973" y="252" style="stroke: #000000; stroke-width: 0.6"/>
      </g>
     </g>
    </g>
    <g id="xtick_26">
     <g id="line2d_26">
      <g>
       <use xlink:href="#mfab5861bb1" x="304.671923" y="252" style="stroke: #000000; stroke-width: 0.6"/>
      </g>
     </g>
    </g>
    <g id="xtick_27">
     <g id="line2d_27">
      <g>
       <use xlink:href="#mfab5861bb1" x="311.687155" y="252" style="stroke: #000000; stroke-width: 0.6"/>
      </g>
     </g>
    </g>
    <g id="xtick_28">
     <g id="line2d_28">
      <g>
       <use xlink:href="#mfab5861bb1" x="317.618449" y="252" style="stroke: #000000; stroke-width: 0.6"/>
      </g>
     </g>
    </g>
    <g id="xtick_29">
     <g id="line2d_29">
      <g>
       <use xlink:href="#mfab5861bb1" x="322.756369" y="252" style="stroke: #000000; stroke-width: 0.6"/>
      </g>
     </g>
    </g>
    <g id="xtick_30">
     <g id="line2d_30">
      <g>
       <use xlink:href="#mfab5861bb1" x="327.288336" y="252" style="stroke: #000000; stroke-width: 0.6"/>
      </g>
     </g>
    </g>
    <g id="xtick_31">
     <g id="line2d_31">
      <g>
       <use xlink:href="#mfab5861bb1" x="358.012715" y="252" style="stroke: #000000; stroke-width: 0.6"/>
      </g>
     </g>
    </g>
    <g id="xtick_32">
     <g id="line2d_32">
      <g>
       <use xlink:href="#mfab5861bb1" x="373.613896" y="252" style="stroke: #000000; stroke-width: 0.6"/>
      </g>
     </g>
    </g>
    <g id="xtick_33">
     <g id="line2d_33">
      <g>
       <use xlink:href="#mfab5861bb1" x="384.68311" y="252" style="stroke: #000000; stroke-width: 0.6"/>
      </g>
     </g>
    </g>
    <g id="text_5">
     <!-- Resources -->
     <g transform="translate(195.867969 280.276563)scale(0.1 -0.1)">
      <defs>
       <path id="DejaVuSans-52" d="M 2841 2188 
Q 3044 2119 3236 1894 
Q 3428 1669 3622 1275 
L 4263 0 
L 3584 0 
L 2988 1197 
Q 2756 1666 2539 1819 
Q 2322 1972 1947 1972 
L 1259 1972 
L 1259 0 
L 628 0 
L 628 4666 
L 2053 4666 
Q 2853 4666 3247 4331 
Q 3641 3997 3641 3322 
Q 3641 2881 3436 2590 
Q 3231 2300 2841 2188 
z
M 1259 4147 
L 1259 2491 
L 2053 2491 
Q 2509 2491 2742 2702 
Q 2975 2913 2975 3322 
Q 2975 3731 2742 3939 
Q 2509 4147 2053 4147 
L 1259 4147 
z
" transform="scale(0.015625)"/>
       <path id="DejaVuSans-65" d="M 3597 1894 
L 3597 1613 
L 953 1613 
Q 991 1019 1311 708 
Q 1631 397 2203 397 
Q 2534 397 2845 478 
Q 3156 559 3463 722 
L 3463 178 
Q 3153 47 2828 -22 
Q 2503 -91 2169 -91 
Q 1331 -91 842 396 
Q 353 884 353 1716 
Q 353 2575 817 3079 
Q 1281 3584 2069 3584 
Q 2775 3584 3186 3129 
Q 3597 2675 3597 1894 
z
M 3022 2063 
Q 3016 2534 2758 2815 
Q 2500 3097 2075 3097 
Q 1594 3097 1305 2825 
Q 1016 2553 972 2059 
L 3022 2063 
z
" transform="scale(0.015625)"/>
       <path id="DejaVuSans-73" d="M 2834 3397 
L 2834 2853 
Q 2591 2978 2328 3040 
Q 2066 3103 1784 3103 
Q 1356 3103 1142 2972 
Q 928 2841 928 2578 
Q 928 2378 1081 2264 
Q 1234 2150 1697 2047 
L 1894 2003 
Q 2506 1872 2764 1633 
Q 3022 1394 3022 966 
Q 3022 478 2636 193 
Q 2250 -91 1575 -91 
Q 1294 -91 989 -36 
Q 684 19 347 128 
L 347 722 
Q 666 556 975 473 
Q 1284 391 1588 391 
Q 1994 391 2212 530 
Q 2431 669 2431 922 
Q 2431 1156 2273 1281 
Q 2116 1406 1581 1522 
L 1381 1569 
Q 847 1681 609 1914 
Q 372 2147 372 2553 
Q 372 3047 722 3315 
Q 1072 3584 1716 3584 
Q 2034 3584 2315 3537 
Q 2597 3491 2834 3397 
z
" transform="scale(0.015625)"/>
       <path id="DejaVuSans-6f" d="M 1959 3097 
Q 1497 3097 1228 2736 
Q 959 2375 959 1747 
Q 959 1119 1226 758 
Q 1494 397 1959 397 
Q 2419 397 2687 759 
Q 2956 1122 2956 1747 
Q 2956 2369 2687 2733 
Q 2419 3097 1959 3097 
z
M 1959 3584 
Q 2709 3584 3137 3096 
Q 3566 2609 3566 1747 
Q 3566 888 3137 398 
Q 2709 -91 1959 -91 
Q 1206 -91 779 398 
Q 353 888 353 1747 
Q 353 2609 779 3096 
Q 1206 3584 1959 3584 
z
" transform="scale(0.015625)"/>
       <path id="DejaVuSans-75" d="M 544 1381 
L 544 3500 
L 1119 3500 
L 1119 1403 
Q 1119 906 1312 657 
Q 1506 409 1894 409 
Q 2359 409 2629 706 
Q 2900 1003 2900 1516 
L 2900 3500 
L 3475 3500 
L 3475 0 
L 2900 0 
L 2900 538 
Q 2691 219 2414 64 
Q 2138 -91 1772 -91 
Q 1169 -91 856 284 
Q 544 659 544 1381 
z
M 1991 3584 
L 1991 3584 
z
" transform="scale(0.015625)"/>
       <path id="DejaVuSans-72" d="M 2631 2963 
Q 2534 3019 2420 3045 
Q 2306 3072 2169 3072 
Q 1681 3072 1420 2755 
Q 1159 2438 1159 1844 
L 1159 0 
L 581 0 
L 581 3500 
L 1159 3500 
L 1159 2956 
Q 1341 3275 1631 3429 
Q 1922 3584 2338 3584 
Q 2397 3584 2469 3576 
Q 2541 3569 2628 3553 
L 2631 2963 
z
" transform="scale(0.015625)"/>
       <path id="DejaVuSans-63" d="M 3122 3366 
L 3122 2828 
Q 2878 2963 2633 3030 
Q 2388 3097 2138 3097 
Q 1578 3097 1268 2742 
Q 959 2388 959 1747 
Q 959 1106 1268 751 
Q 1578 397 2138 397 
Q 2388 397 2633 464 
Q 2878 531 3122 666 
L 3122 134 
Q 2881 22 2623 -34 
Q 2366 -91 2075 -91 
Q 1284 -91 818 406 
Q 353 903 353 1747 
Q 353 2603 823 3093 
Q 1294 3584 2113 3584 
Q 2378 3584 2631 3529 
Q 2884 3475 3122 3366 
z
" transform="scale(0.015625)"/>
      </defs>
      <use xlink:href="#DejaVuSans-52"/>
      <use xlink:href="#DejaVuSans-65" x="64.982422"/>
      <use xlink:href="#DejaVuSans-73" x="126.505859"/>
      <use xlink:href="#DejaVuSans-6f" x="178.605469"/>
      <use xlink:href="#DejaVuSans-75" x="239.787109"/>
      <use xlink:href="#DejaVuSans-72" x="303.166016"/>
      <use xlink:href="#DejaVuSans-63" x="342.029297"/>
      <use xlink:href="#DejaVuSans-65" x="397.009766"/>
      <use xlink:href="#DejaVuSans-73" x="458.533203"/>
     </g>
    </g>
   </g>
   <g id="matplotlib.axis_2">
    <g id="ytick_1">
     <g id="line2d_34">
      <defs>
       <path id="m11af36e954" d="M 0 0 
L -3.5 0 
" style="stroke: #000000; stroke-width: 0.8"/>
      </defs>
      <g>
       <use xlink:href="#m11af36e954" x="54" y="224.018117" style="stroke: #000000; stroke-width: 0.8"/>
      </g>
     </g>
     <g id="text_6">
      <!-- $\mathdefault{10^{-2}}$ -->
      <g transform="translate(23.5 227.817336)scale(0.1 -0.1)">
       <defs>
        <path id="DejaVuSans-2212" d="M 678 2272 
L 4684 2272 
L 4684 1741 
L 678 1741 
L 678 2272 
z
" transform="scale(0.015625)"/>
       </defs>
       <use xlink:href="#DejaVuSans-31" transform="translate(0 0.765625)"/>
       <use xlink:href="#DejaVuSans-30" transform="translate(63.623047 0.765625)"/>
       <use xlink:href="#DejaVuSans-2212" transform="translate(128.203125 39.046875)scale(0.7)"/>
       <use xlink:href="#DejaVuSans-32" transform="translate(186.855469 39.046875)scale(0.7)"/>
      </g>
     </g>
    </g>
    <g id="ytick_2">
     <g id="line2d_35">
      <g>
       <use xlink:href="#m11af36e954" x="54" y="171.822334" style="stroke: #000000; stroke-width: 0.8"/>
      </g>
     </g>
     <g id="text_7">
      <!-- $\mathdefault{10^{-1}}$ -->
      <g transform="translate(23.5 175.621553)scale(0.1 -0.1)">
       <use xlink:href="#DejaVuSans-31" transform="translate(0 0.684375)"/>
       <use xlink:href="#DejaVuSans-30" transform="translate(63.623047 0.684375)"/>
       <use xlink:href="#DejaVuSans-2212" transform="translate(128.203125 38.965625)scale(0.7)"/>
       <use xlink:href="#DejaVuSans-31" transform="translate(186.855469 38.965625)scale(0.7)"/>
      </g>
     </g>
    </g>
    <g id="ytick_3">
     <g id="line2d_36">
      <g>
       <use xlink:href="#m11af36e954" x="54" y="119.626551" style="stroke: #000000; stroke-width: 0.8"/>
      </g>
     </g>
     <g id="text_8">
      <!-- $\mathdefault{10^{0}}$ -->
      <g transform="translate(29.4 123.42577)scale(0.1 -0.1)">
       <use xlink:href="#DejaVuSans-31" transform="translate(0 0.765625)"/>
       <use xlink:href="#DejaVuSans-30" transform="translate(63.623047 0.765625)"/>
       <use xlink:href="#DejaVuSans-30" transform="translate(128.203125 39.046875)scale(0.7)"/>
      </g>
     </g>
    </g>
    <g id="ytick_4">
     <g id="line2d_37">
      <g>
       <use xlink:href="#m11af36e954" x="54" y="67.430768" style="stroke: #000000; stroke-width: 0.8"/>
      </g>
     </g>
     <g id="text_9">
      <!-- $\mathdefault{10^{1}}$ -->
      <g transform="translate(29.4 71.229987)scale(0.1 -0.1)">
       <use xlink:href="#DejaVuSans-31" transform="translate(0 0.684375)"/>
       <use xlink:href="#DejaVuSans-30" transform="translate(63.623047 0.684375)"/>
       <use xlink:href="#DejaVuSans-31" transform="translate(128.203125 38.965625)scale(0.7)"/>
      </g>
     </g>
    </g>
    <g id="ytick_5">
     <g id="line2d_38">
      <defs>
       <path id="m4c2a5e715c" d="M 0 0 
L -2 0 
" style="stroke: #000000; stroke-width: 0.6"/>
      </defs>
      <g>
       <use xlink:href="#m4c2a5e715c" x="54" y="251.310182" style="stroke: #000000; stroke-width: 0.6"/>
      </g>
     </g>
    </g>
    <g id="ytick_6">
     <g id="line2d_39">
      <g>
       <use xlink:href="#m4c2a5e715c" x="54" y="244.788907" style="stroke: #000000; stroke-width: 0.6"/>
      </g>
     </g>
    </g>
    <g id="ytick_7">
     <g id="line2d_40">
      <g>
       <use xlink:href="#m4c2a5e715c" x="54" y="239.730613" style="stroke: #000000; stroke-width: 0.6"/>
      </g>
     </g>
    </g>
    <g id="ytick_8">
     <g id="line2d_41">
      <g>
       <use xlink:href="#m4c2a5e715c" x="54" y="235.597686" style="stroke: #000000; stroke-width: 0.6"/>
      </g>
     </g>
    </g>
    <g id="ytick_9">
     <g id="line2d_42">
      <g>
       <use xlink:href="#m4c2a5e715c" x="54" y="232.103346" style="stroke: #000000; stroke-width: 0.6"/>
      </g>
     </g>
    </g>
    <g id="ytick_10">
     <g id="line2d_43">
      <g>
       <use xlink:href="#m4c2a5e715c" x="54" y="229.076411" style="stroke: #000000; stroke-width: 0.6"/>
      </g>
     </g>
    </g>
    <g id="ytick_11">
     <g id="line2d_44">
      <g>
       <use xlink:href="#m4c2a5e715c" x="54" y="226.406465" style="stroke: #000000; stroke-width: 0.6"/>
      </g>
     </g>
    </g>
    <g id="ytick_12">
     <g id="line2d_45">
      <g>
       <use xlink:href="#m4c2a5e715c" x="54" y="208.305621" style="stroke: #000000; stroke-width: 0.6"/>
      </g>
     </g>
    </g>
    <g id="ytick_13">
     <g id="line2d_46">
      <g>
       <use xlink:href="#m4c2a5e715c" x="54" y="199.114399" style="stroke: #000000; stroke-width: 0.6"/>
      </g>
     </g>
    </g>
    <g id="ytick_14">
     <g id="line2d_47">
      <g>
       <use xlink:href="#m4c2a5e715c" x="54" y="192.593124" style="stroke: #000000; stroke-width: 0.6"/>
      </g>
     </g>
    </g>
    <g id="ytick_15">
     <g id="line2d_48">
      <g>
       <use xlink:href="#m4c2a5e715c" x="54" y="187.53483" style="stroke: #000000; stroke-width: 0.6"/>
      </g>
     </g>
    </g>
    <g id="ytick_16">
     <g id="line2d_49">
      <g>
       <use xlink:href="#m4c2a5e715c" x="54" y="183.401903" style="stroke: #000000; stroke-width: 0.6"/>
      </g>
     </g>
    </g>
    <g id="ytick_17">
     <g id="line2d_50">
      <g>
       <use xlink:href="#m4c2a5e715c" x="54" y="179.907563" style="stroke: #000000; stroke-width: 0.6"/>
      </g>
     </g>
    </g>
    <g id="ytick_18">
     <g id="line2d_51">
      <g>
       <use xlink:href="#m4c2a5e715c" x="54" y="176.880628" style="stroke: #000000; stroke-width: 0.6"/>
      </g>
     </g>
    </g>
    <g id="ytick_19">
     <g id="line2d_52">
      <g>
       <use xlink:href="#m4c2a5e715c" x="54" y="174.210682" style="stroke: #000000; stroke-width: 0.6"/>
      </g>
     </g>
    </g>
    <g id="ytick_20">
     <g id="line2d_53">
      <g>
       <use xlink:href="#m4c2a5e715c" x="54" y="156.109838" style="stroke: #000000; stroke-width: 0.6"/>
      </g>
     </g>
    </g>
    <g id="ytick_21">
     <g id="line2d_54">
      <g>
       <use xlink:href="#m4c2a5e715c" x="54" y="146.918617" style="stroke: #000000; stroke-width: 0.6"/>
      </g>
     </g>
    </g>
    <g id="ytick_22">
     <g id="line2d_55">
      <g>
       <use xlink:href="#m4c2a5e715c" x="54" y="140.397341" style="stroke: #000000; stroke-width: 0.6"/>
      </g>
     </g>
    </g>
    <g id="ytick_23">
     <g id="line2d_56">
      <g>
       <use xlink:href="#m4c2a5e715c" x="54" y="135.339047" style="stroke: #000000; stroke-width: 0.6"/>
      </g>
     </g>
    </g>
    <g id="ytick_24">
     <g id="line2d_57">
      <g>
       <use xlink:href="#m4c2a5e715c" x="54" y="131.20612" style="stroke: #000000; stroke-width: 0.6"/>
      </g>
     </g>
    </g>
    <g id="ytick_25">
     <g id="line2d_58">
      <g>
       <use xlink:href="#m4c2a5e715c" x="54" y="127.71178" style="stroke: #000000; stroke-width: 0.6"/>
      </g>
     </g>
    </g>
    <g id="ytick_26">
     <g id="line2d_59">
      <g>
       <use xlink:href="#m4c2a5e715c" x="54" y="124.684845" style="stroke: #000000; stroke-width: 0.6"/>
      </g>
     </g>
    </g>
    <g id="ytick_27">
     <g id="line2d_60">
      <g>
       <use xlink:href="#m4c2a5e715c" x="54" y="122.014899" style="stroke: #000000; stroke-width: 0.6"/>
      </g>
     </g>
    </g>
    <g id="ytick_28">
     <g id="line2d_61">
      <g>
       <use xlink:href="#m4c2a5e715c" x="54" y="103.914055" style="stroke: #000000; stroke-width: 0.6"/>
      </g>
     </g>
    </g>
    <g id="ytick_29">
     <g id="line2d_62">
      <g>
       <use xlink:href="#m4c2a5e715c" x="54" y="94.722834" style="stroke: #000000; stroke-width: 0.6"/>
      </g>
     </g>
    </g>
    <g id="ytick_30">
     <g id="line2d_63">
      <g>
       <use xlink:href="#m4c2a5e715c" x="54" y="88.201558" style="stroke: #000000; stroke-width: 0.6"/>
      </g>
     </g>
    </g>
    <g id="ytick_31">
     <g id="line2d_64">
      <g>
       <use xlink:href="#m4c2a5e715c" x="54" y="83.143264" style="stroke: #000000; stroke-width: 0.6"/>
      </g>
     </g>
    </g>
    <g id="ytick_32">
     <g id="line2d_65">
      <g>
       <use xlink:href="#m4c2a5e715c" x="54" y="79.010337" style="stroke: #000000; stroke-width: 0.6"/>
      </g>
     </g>
    </g>
    <g id="ytick_33">
     <g id="line2d_66">
      <g>
       <use xlink:href="#m4c2a5e715c" x="54" y="75.515997" style="stroke: #000000; stroke-width: 0.6"/>
      </g>
     </g>
    </g>
    <g id="ytick_34">
     <g id="line2d_67">
      <g>
       <use xlink:href="#m4c2a5e715c" x="54" y="72.489062" style="stroke: #000000; stroke-width: 0.6"/>
      </g>
     </g>
    </g>
    <g id="ytick_35">
     <g id="line2d_68">
      <g>
       <use xlink:href="#m4c2a5e715c" x="54" y="69.819116" style="stroke: #000000; stroke-width: 0.6"/>
      </g>
     </g>
    </g>
    <g id="ytick_36">
     <g id="line2d_69">
      <g>
       <use xlink:href="#m4c2a5e715c" x="54" y="51.718272" style="stroke: #000000; stroke-width: 0.6"/>
      </g>
     </g>
    </g>
    <g id="ytick_37">
     <g id="line2d_70">
      <g>
       <use xlink:href="#m4c2a5e715c" x="54" y="42.527051" style="stroke: #000000; stroke-width: 0.6"/>
      </g>
     </g>
    </g>
    <g id="ytick_38">
     <g id="line2d_71">
      <g>
       <use xlink:href="#m4c2a5e715c" x="54" y="36.005776" style="stroke: #000000; stroke-width: 0.6"/>
      </g>
     </g>
    </g>
    <g id="text_10">
     <!-- MSE -->
     <g transform="translate(17.420313 153.927656)rotate(-90)scale(0.1 -0.1)">
      <defs>
       <path id="DejaVuSans-4d" d="M 628 4666 
L 1569 4666 
L 2759 1491 
L 3956 4666 
L 4897 4666 
L 4897 0 
L 4281 0 
L 4281 4097 
L 3078 897 
L 2444 897 
L 1241 4097 
L 1241 0 
L 628 0 
L 628 4666 
z
" transform="scale(0.015625)"/>
       <path id="DejaVuSans-53" d="M 3425 4513 
L 3425 3897 
Q 3066 4069 2747 4153 
Q 2428 4238 2131 4238 
Q 1616 4238 1336 4038 
Q 1056 3838 1056 3469 
Q 1056 3159 1242 3001 
Q 1428 2844 1947 2747 
L 2328 2669 
Q 3034 2534 3370 2195 
Q 3706 1856 3706 1288 
Q 3706 609 3251 259 
Q 2797 -91 1919 -91 
Q 1588 -91 1214 -16 
Q 841 59 441 206 
L 441 856 
Q 825 641 1194 531 
Q 1563 422 1919 422 
Q 2459 422 2753 634 
Q 3047 847 3047 1241 
Q 3047 1584 2836 1778 
Q 2625 1972 2144 2069 
L 1759 2144 
Q 1053 2284 737 2584 
Q 422 2884 422 3419 
Q 422 4038 858 4394 
Q 1294 4750 2059 4750 
Q 2388 4750 2728 4690 
Q 3069 4631 3425 4513 
z
" transform="scale(0.015625)"/>
       <path id="DejaVuSans-45" d="M 628 4666 
L 3578 4666 
L 3578 4134 
L 1259 4134 
L 1259 2753 
L 3481 2753 
L 3481 2222 
L 1259 2222 
L 1259 531 
L 3634 531 
L 3634 0 
L 628 0 
L 628 4666 
z
" transform="scale(0.015625)"/>
      </defs>
      <use xlink:href="#DejaVuSans-4d"/>
      <use xlink:href="#DejaVuSans-53" x="86.279297"/>
      <use xlink:href="#DejaVuSans-45" x="149.755859"/>
     </g>
    </g>
   </g>
   <g id="line2d_72">
    <path d="M 69.218182 135.583676 
L 72.56614 135.424735 
L 75.645963 135.883497 
L 85.968023 136.803021 
L 88.167321 137.218088 
L 90.247679 137.137264 
L 92.221304 137.696437 
L 97.598959 137.940698 
L 102.316359 138.796184 
L 103.768503 138.574895 
L 105.16783 138.695561 
L 106.518047 138.979128 
L 107.822486 139.035286 
L 109.084148 139.601995 
L 111.489759 139.548299 
L 114.837717 140.317982 
L 115.891954 140.412233 
L 117.91754 140.958028 
L 118.8917 141.05208 
L 119.841804 141.313905 
L 120.769011 141.357134 
L 121.6744 142.035365 
L 122.558973 142.144949 
L 123.423667 142.093177 
L 124.269355 142.261835 
L 125.096854 142.740434 
L 125.906932 142.534565 
L 128.2396 143.395942 
L 128.986755 143.346724 
L 129.719677 142.869405 
L 130.438899 143.907138 
L 131.144923 143.661681 
L 131.838225 144.004047 
L 132.519256 143.96308 
L 133.188443 144.453984 
L 134.492881 144.481209 
L 135.128883 145.006227 
L 135.754543 144.974948 
L 136.370192 145.150167 
L 136.976146 145.450212 
L 137.572704 145.14568 
L 138.160155 145.415908 
L 138.738771 145.186969 
L 139.308814 145.813235 
L 139.870536 146.115265 
L 140.424175 146.213037 
L 140.969961 145.712851 
L 141.508113 146.196793 
L 142.038842 145.88827 
L 142.56235 146.708324 
L 143.078831 146.280521 
L 143.588471 146.158236 
L 144.091448 146.374157 
L 144.587936 146.263042 
L 145.078099 146.534047 
L 145.562096 146.607778 
L 146.04008 146.803115 
L 146.512199 146.872453 
L 146.978596 146.610134 
L 147.439407 146.904201 
L 147.894764 146.201587 
L 148.344796 146.590884 
L 148.789624 146.555104 
L 149.229369 146.985645 
L 149.664145 146.252854 
L 150.094063 146.744804 
L 150.51923 146.419504 
L 150.93975 147.045873 
L 151.355725 146.634575 
L 151.76725 146.784312 
L 152.17442 146.7656 
L 152.577327 147.028999 
L 152.976059 146.454674 
L 153.370701 147.077379 
L 153.761336 146.595611 
L 162.733995 148.075713 
L 175.68052 150.757729 
L 185.350408 154.191264 
L 193.071664 157.21764 
L 199.499445 159.347164 
L 205.005572 161.951697 
L 209.821505 162.801653 
L 214.101162 164.067919 
L 217.952098 164.432198 
L 221.452441 165.091692 
L 224.660736 165.403217 
L 227.621985 165.963571 
L 230.371529 165.656348 
L 232.93763 166.045402 
L 235.343241 165.878495 
L 237.607262 165.915064 
L 239.745437 166.37929 
L 241.771022 166.329123 
L 243.695286 167.261401 
L 245.527882 167.636814 
L 247.277149 168.229825 
L 248.950336 168.35122 
L 252.093082 169.42723 
L 253.573159 169.670692 
L 254.998405 170.233951 
L 257.699672 171.637614 
L 258.982365 171.447225 
L 260.223675 174.014519 
L 261.426186 174.308365 
L 262.592253 175.159745 
L 263.724018 173.803314 
L 264.823443 174.359605 
L 265.892324 175.220326 
L 266.932313 176.584047 
L 268.931581 178.143959 
L 269.893562 179.825193 
L 270.832078 178.152628 
L 271.748246 179.544481 
L 272.643106 180.521725 
L 273.517627 179.628045 
L 274.372712 179.52801 
L 276.027903 181.058204 
L 276.829541 182.759515 
L 277.614818 181.309852 
L 278.384389 182.2774 
L 279.138869 184.020588 
L 279.878839 183.429185 
L 280.604846 183.883715 
L 281.317408 186.165292 
L 282.017014 184.845288 
L 282.704126 184.88495 
L 283.379182 185.493082 
L 284.0426 187.012866 
L 284.694772 187.49228 
L 285.336074 187.286281 
L 285.966863 187.609411 
L 286.587477 188.812414 
L 287.19824 186.946653 
L 287.799459 188.522604 
L 288.391428 188.167697 
L 288.974428 187.677302 
L 289.548726 188.587035 
L 290.114578 190.80494 
L 290.672229 190.2977 
L 291.221914 190.931045 
L 291.763856 191.367528 
L 292.29827 190.157727 
L 292.825364 192.144343 
L 293.345335 190.772262 
L 293.858373 192.778251 
L 294.364659 193.472175 
L 294.864371 192.906256 
L 295.357676 192.603145 
L 295.844736 191.20055 
L 296.800742 193.319028 
L 297.733569 193.338683 
L 298.191637 194.648393 
L 298.644316 194.499957 
L 299.091731 193.42319 
L 299.534003 194.503584 
L 299.971249 194.894146 
L 300.403582 193.850157 
L 300.831111 194.569283 
L 301.253943 194.250292 
L 301.672178 195.834407 
L 302.085915 195.825007 
L 302.495252 196.800956 
L 302.900279 195.477311 
L 303.301087 196.197489 
L 303.697764 197.758946 
L 304.090392 196.235094 
L 304.479054 197.196247 
L 304.86383 197.028349 
L 305.244796 198.803634 
L 305.622027 199.644809 
L 305.995595 197.889842 
L 307.09502 199.259794 
L 307.454623 198.599555 
L 308.163901 200.309137 
L 308.513697 200.337586 
L 308.860341 199.401147 
L 309.20389 199.521235 
L 309.544399 198.40666 
L 309.881921 201.10461 
L 310.216508 198.392387 
L 310.54821 200.382109 
L 310.877078 199.152215 
L 311.203158 201.616257 
L 311.526498 200.112509 
L 311.847144 199.447 
L 312.165139 201.53071 
L 312.480528 202.392096 
L 312.793353 203.745604 
L 313.103655 201.599252 
L 313.411475 203.565249 
L 313.716851 201.976381 
L 314.019823 203.598572 
L 314.320428 203.383834 
L 314.914683 200.671136 
L 315.208404 202.948839 
L 315.4999 203.395323 
L 315.789204 201.895801 
L 316.076349 201.929134 
L 316.361367 204.026422 
L 317.203968 203.269814 
L 317.480784 202.772538 
L 317.755623 205.331615 
L 318.028512 202.973283 
L 318.29948 204.087114 
L 318.568552 201.900609 
L 318.835757 206.057721 
L 319.101118 206.714044 
L 319.364662 203.580477 
L 319.626413 204.71398 
L 319.886395 207.297024 
L 320.144633 206.162435 
L 320.401149 206.662995 
L 320.655966 204.650882 
L 320.909107 204.951937 
L 321.160593 205.952742 
L 321.410446 203.564238 
L 321.905337 206.318842 
L 322.150416 206.411854 
L 322.393943 207.166598 
L 322.876423 207.654601 
L 323.115413 206.818631 
L 323.352928 207.371161 
L 323.588985 210.633555 
L 323.823603 206.878819 
L 324.288591 208.002431 
L 324.518994 209.628703 
L 324.748026 207.459247 
L 324.975703 208.606524 
L 325.20204 207.088799 
L 325.427054 209.656839 
L 325.873172 207.753848 
L 326.094306 209.382668 
L 326.314177 209.841098 
L 326.532798 209.713828 
L 326.750184 209.370189 
L 326.966349 207.860411 
L 327.181306 211.09015 
L 327.395069 210.44739 
L 327.607651 208.615868 
L 327.819065 210.390465 
L 328.029324 210.129896 
L 328.23844 211.839848 
L 328.446426 210.847035 
L 328.653293 211.892017 
L 328.859054 210.878646 
L 329.063721 210.941421 
L 329.267305 210.816735 
L 329.469817 209.820621 
L 329.671269 211.426899 
L 329.871672 210.993537 
L 330.071036 212.578394 
L 330.269373 210.07745 
L 330.663006 212.993521 
L 330.858322 213.171303 
L 331.052652 212.035772 
L 331.246005 214.272522 
L 331.438392 213.688612 
L 331.629821 212.364533 
L 331.820303 215.197979 
L 332.009847 215.986499 
L 332.198461 211.382159 
L 332.386155 214.573523 
L 332.758819 215.665367 
L 332.943806 214.490983 
L 333.127908 214.680353 
L 333.311134 213.708601 
L 333.493491 214.057881 
L 333.674987 213.736575 
L 333.855632 214.685479 
L 334.035433 214.665013 
L 334.214397 212.452906 
L 334.392533 212.19199 
L 334.569847 215.62721 
L 334.746349 213.299155 
L 335.096941 216.428045 
L 335.271047 214.031214 
L 335.444368 216.040213 
L 335.616912 216.126825 
L 335.788686 216.796654 
L 335.959696 216.258138 
L 336.12995 217.131953 
L 336.468213 215.371448 
L 336.636236 216.367518 
L 336.803529 215.363748 
L 336.970098 216.39795 
L 337.135948 216.148542 
L 337.301087 217.377108 
L 337.46552 217.705446 
L 337.629253 214.053333 
L 337.954644 216.96269 
L 338.116313 216.404637 
L 338.277306 216.978275 
L 338.437628 218.604529 
L 338.597285 217.319793 
L 338.756282 217.990427 
L 339.072319 216.401105 
L 339.541559 219.526755 
L 339.69671 220.574283 
L 340.005146 216.439758 
L 340.158442 216.05464 
L 340.31113 217.829052 
L 340.463214 218.150288 
L 340.614699 218.108686 
L 340.765591 217.795348 
L 340.915893 219.077969 
L 341.06561 218.096104 
L 341.363308 219.069534 
L 341.511297 218.944274 
L 341.65872 219.49814 
L 341.80558 220.655988 
L 341.951881 220.578894 
L 342.097629 218.471328 
L 342.242826 220.576672 
L 342.531587 220.180006 
L 342.818197 220.677716 
L 342.960706 218.726992 
L 343.102688 222.017678 
L 343.244149 221.01377 
L 343.385092 221.021705 
L 343.52552 219.09093 
L 343.804847 221.15988 
L 343.943755 222.075543 
L 344.082162 220.97797 
L 344.220074 221.046966 
L 344.357493 218.562566 
L 344.630867 221.189412 
L 344.766829 221.772828 
L 344.902312 221.287931 
L 345.03732 222.094985 
L 345.171856 220.719981 
L 345.439525 221.703656 
L 345.572664 221.448873 
L 345.705345 222.910672 
L 345.969341 221.415905 
L 346.100662 222.902141 
L 346.231538 221.704909 
L 346.621513 223.533821 
L 346.750631 223.306312 
L 346.879318 221.920084 
L 347.007576 222.932223 
L 347.135407 222.871808 
L 347.262815 224.004299 
L 347.642528 222.732407 
L 347.768271 221.246335 
L 347.893604 221.654469 
L 348.01853 223.285712 
L 348.143052 223.413603 
L 348.267172 223.961673 
L 348.390894 222.976327 
L 348.514218 224.094106 
L 348.637149 221.515256 
L 348.759688 222.034884 
L 349.003602 224.026255 
L 349.124981 222.406742 
L 349.366597 222.390541 
L 349.486839 222.70896 
L 349.7262 224.62302 
L 349.845325 225.359722 
L 349.964082 223.612923 
L 350.082474 223.583357 
L 350.200502 223.711155 
L 350.31817 222.533253 
L 350.435478 224.690946 
L 350.552431 224.342775 
L 350.669028 223.47494 
L 350.785274 223.519587 
L 350.901169 225.015004 
L 351.131918 223.916305 
L 351.361291 224.992336 
L 351.475467 224.837344 
L 351.589305 225.30974 
L 351.815976 223.558916 
L 352.041319 226.728558 
L 352.265351 224.941688 
L 352.488085 226.953395 
L 352.709537 224.14046 
L 352.929722 226.85496 
L 353.039344 225.655119 
L 353.257655 227.068462 
L 353.474735 225.640164 
L 353.690597 227.094629 
L 353.798075 225.436919 
L 353.905254 227.759267 
L 354.012135 226.927737 
L 354.118721 227.678906 
L 354.225011 224.383414 
L 354.436716 226.393321 
L 354.542133 225.86564 
L 354.647263 227.915819 
L 354.752105 227.901191 
L 354.960938 226.656608 
L 355.06493 226.922915 
L 355.168643 226.165754 
L 355.272076 228.177686 
L 355.478113 227.866459 
L 355.580719 227.974159 
L 355.683052 226.811957 
L 355.785114 228.06198 
L 355.988428 226.969807 
L 356.089684 228.598582 
L 356.190675 227.709361 
L 356.2914 228.319383 
L 356.391863 226.994772 
L 356.592006 228.687241 
L 356.691688 228.929815 
L 356.89028 227.895559 
L 356.989194 227.213003 
L 357.087853 229.320945 
L 357.382323 227.304113 
L 357.577392 229.751597 
L 357.674557 228.618681 
L 357.868154 229.345534 
L 357.964588 228.468101 
L 358.060781 228.926333 
L 358.156734 230.368026 
L 358.252449 227.945441 
L 358.538172 229.433105 
L 358.632944 228.680112 
L 358.727483 228.864027 
L 358.82179 230.493895 
L 358.915866 230.021405 
L 359.009713 228.274226 
L 359.103332 229.701566 
L 359.196723 229.287667 
L 359.289889 228.302296 
L 359.382829 230.24164 
L 359.475545 229.884246 
L 359.568039 227.396161 
L 359.66031 228.235522 
L 359.752361 227.825076 
L 359.844192 229.515335 
L 359.935805 227.859382 
L 360.0272 230.379679 
L 360.118378 229.998312 
L 360.209341 229.417649 
L 360.390624 230.849018 
L 360.571057 229.319797 
L 360.750648 229.9133 
L 360.84013 229.829932 
L 360.929404 230.302677 
L 361.018472 230.271072 
L 361.107334 228.672745 
L 361.195991 229.657868 
L 361.284445 228.647131 
L 361.372695 229.418688 
L 361.460744 228.700191 
L 361.636239 230.462108 
L 361.723687 230.433614 
L 361.89799 229.752349 
L 361.984846 230.983013 
L 362.071507 230.471664 
L 362.157972 230.727872 
L 362.244244 230.61893 
L 362.330323 230.180351 
L 362.501905 232.54639 
L 362.58741 231.063944 
L 362.672726 231.240283 
L 362.757852 231.328733 
L 362.842791 231.903355 
L 362.927543 230.735435 
L 363.012108 232.181096 
L 363.180684 231.054558 
L 363.264695 230.995736 
L 363.348524 229.676276 
L 363.43217 232.232644 
L 363.515635 231.722417 
L 363.598919 233.052501 
L 363.682023 231.52856 
L 363.764948 231.887982 
L 363.847695 232.74662 
L 363.930264 230.903873 
L 364.012657 232.518792 
L 364.094873 232.09234 
L 364.176914 231.058849 
L 364.25878 232.366559 
L 364.340473 230.550228 
L 364.421993 232.944646 
L 364.50334 232.674299 
L 364.584516 230.08945 
L 364.665521 230.85954 
L 364.82702 233.307589 
L 364.907517 232.010484 
L 364.987845 233.504016 
L 365.068006 233.086352 
L 365.148 231.246931 
L 365.227828 233.232626 
L 365.307492 231.51998 
L 365.38699 233.242401 
L 365.466325 231.910106 
L 365.624505 233.237992 
L 365.703352 233.415909 
L 365.782037 232.821453 
L 365.860562 234.547704 
L 365.938927 233.618797 
L 366.017133 233.690969 
L 366.09518 233.857516 
L 366.173069 233.814425 
L 366.328376 233.478209 
L 366.405795 232.97536 
L 366.483059 234.00263 
L 366.560168 230.85004 
L 366.637122 231.141749 
L 366.790571 232.995539 
L 366.867067 233.405549 
L 366.94341 233.272393 
L 367.019603 232.92413 
L 367.095645 231.212391 
L 367.171537 231.521026 
L 367.24728 233.865477 
L 367.322874 233.763069 
L 367.398319 231.78805 
L 367.473617 232.532352 
L 367.548768 233.390918 
L 367.623772 231.978909 
L 367.698631 233.465276 
L 367.773344 233.272295 
L 367.847912 233.950077 
L 367.996617 233.393536 
L 368.070754 235.522111 
L 368.144749 234.671033 
L 368.218602 234.897459 
L 368.292313 233.893416 
L 368.439313 235.399596 
L 368.512603 234.812189 
L 368.658766 233.605889 
L 368.804375 235.59899 
L 369.093951 234.105741 
L 369.237926 236.42851 
L 369.309712 235.455417 
L 369.381364 236.285109 
L 369.452883 234.633415 
L 369.52427 234.871787 
L 369.666646 235.015409 
L 369.737638 233.049021 
L 369.808498 233.967256 
L 369.879228 233.684392 
L 369.949829 233.973356 
L 370.090642 237.018639 
L 370.230942 236.06839 
L 370.300901 236.453441 
L 370.440438 235.323453 
L 370.510017 237.0656 
L 370.648799 235.072122 
L 370.718003 236.009371 
L 370.787082 235.670044 
L 370.92487 235.864517 
L 370.993579 234.525374 
L 371.198975 236.834985 
L 371.267197 236.728026 
L 371.403279 235.25527 
L 371.47114 236.100911 
L 371.538882 235.808769 
L 371.606504 235.4925 
L 371.674008 235.772385 
L 371.741394 235.26263 
L 371.808662 236.469165 
L 371.875813 235.68843 
L 371.942846 234.889416 
L 372.009763 235.640919 
L 372.076564 234.98935 
L 372.143249 232.796485 
L 372.342613 235.807887 
L 372.408839 236.870323 
L 372.474951 236.712665 
L 372.54095 237.167502 
L 372.606836 236.557487 
L 372.672609 237.091636 
L 372.869256 235.648419 
L 372.999798 238.63152 
L 373.064904 237.437393 
L 373.129899 235.635945 
L 373.194785 237.145167 
L 373.259561 236.004969 
L 373.324229 236.958844 
L 373.388788 235.371291 
L 373.453239 236.151846 
L 373.581818 237.23934 
L 373.581818 237.23934 
" clip-path="url(#p2f46a513a2)" style="fill: none; stroke: #0000ff; stroke-width: 1.5; stroke-linecap: square"/>
   </g>
   <g id="line2d_73">
    <path d="M 69.218182 44.443636 
L 373.581818 223.75528 
L 373.581818 223.75528 
" clip-path="url(#p2f46a513a2)" style="fill: none; stroke: #000000; stroke-width: 1.5; stroke-linecap: square"/>
   </g>
   <g id="patch_3">
    <path d="M 54 252 
L 54 34.56 
" style="fill: none; stroke: #000000; stroke-width: 0.8; stroke-linejoin: miter; stroke-linecap: square"/>
   </g>
   <g id="patch_4">
    <path d="M 388.8 252 
L 388.8 34.56 
" style="fill: none; stroke: #000000; stroke-width: 0.8; stroke-linejoin: miter; stroke-linecap: square"/>
   </g>
   <g id="patch_5">
    <path d="M 54 252 
L 388.8 252 
" style="fill: none; stroke: #000000; stroke-width: 0.8; stroke-linejoin: miter; stroke-linecap: square"/>
   </g>
   <g id="patch_6">
    <path d="M 54 34.56 
L 388.8 34.56 
" style="fill: none; stroke: #000000; stroke-width: 0.8; stroke-linejoin: miter; stroke-linecap: square"/>
   </g>
  </g>
 </g>
 <defs>
  <clipPath id="p2f46a513a2">
   <rect x="54" y="34.56" width="334.8" height="217.44"/>
  </clipPath>
 </defs>
</svg>
