<?xml version="1.0" encoding="utf-8" standalone="no"?>
<!DOCTYPE svg PUBLIC "-//W3C//DTD SVG 1.1//EN"
  "http://www.w3.org/Graphics/SVG/1.1/DTD/svg11.dtd">
<svg xmlns:xlink="http://www.w3.org/1999/xlink" width="432pt" height="288pt" viewBox="0 0 432 288" xmlns="http://www.w3.org/2000/svg" version="1.1">
 <metadata>
  <rdf:RDF xmlns:dc="http://purl.org/dc/elements/1.1/" xmlns:cc="http://creativecommons.org/ns#" xmlns:rdf="http://www.w3.org/1999/02/22-rdf-syntax-ns#">
   <cc:Work>
    <dc:type rdf:resource="http://purl.org/dc/dcmitype/StillImage"/>
    <dc:date>2022-01-09T22:58:36.526377</dc:date>
    <dc:format>image/svg+xml</dc:format>
    <dc:creator>
     <cc:Agent>
      <dc:title>Matplotlib v3.5.1, https://matplotlib.org/</dc:title>
     </cc:Agent>
    </dc:creator>
   </cc:Work>
  </rdf:RDF>
 </metadata>
 <defs>
  <style type="text/css">*{stroke-linejoin: round; stroke-linecap: butt}</style>
 </defs>
 <g id="figure_1">
  <g id="patch_1">
   <path d="M 0 288 
L 432 288 
L 432 0 
L 0 0 
L 0 288 
z
" style="fill: none"/>
  </g>
  <g id="axes_1">
   <g id="patch_2">
    <path d="M 54 252 
L 388.8 252 
L 388.8 34.56 
L 54 34.56 
z
" style="fill: #ffffff"/>
   </g>
   <g id="PolyCollection_1">
    <defs>
     <path id="mdc8aaf9d06" d="M 69.218182 -243.556364 
L 69.218182 -243.236399 
L 72.56614 -242.781446 
L 75.645963 -242.480145 
L 78.497434 -242.088713 
L 81.15209 -241.913096 
L 83.635354 -241.887214 
L 85.968023 -241.566117 
L 88.167321 -241.37501 
L 90.247679 -241.19774 
L 92.221304 -241.180737 
L 94.098615 -240.958335 
L 95.888578 -240.871313 
L 97.598959 -240.838247 
L 99.236536 -240.698587 
L 100.807254 -240.617614 
L 102.316359 -240.574366 
L 103.768503 -240.430015 
L 105.16783 -240.310476 
L 106.518047 -240.293911 
L 107.822486 -240.230858 
L 109.084148 -240.171707 
L 110.30575 -240.104316 
L 111.489759 -240.073731 
L 112.638419 -240.047715 
L 113.753779 -239.976249 
L 114.837717 -239.933913 
L 115.891954 -239.920481 
L 116.918075 -239.901542 
L 117.91754 -239.827057 
L 118.8917 -239.775271 
L 119.841804 -239.776367 
L 120.769011 -239.736534 
L 121.6744 -239.682779 
L 122.558973 -239.656814 
L 123.423667 -239.590746 
L 124.269355 -239.60825 
L 125.096854 -239.576632 
L 125.906932 -239.544114 
L 126.700305 -239.549994 
L 127.47765 -239.480606 
L 128.2396 -239.480577 
L 128.986755 -239.495446 
L 129.719677 -239.463576 
L 130.438899 -239.425915 
L 131.144923 -239.41522 
L 131.838225 -239.379409 
L 132.519256 -239.415035 
L 133.188443 -239.339891 
L 133.84619 -239.326904 
L 134.492881 -239.325447 
L 135.128883 -239.279841 
L 135.754543 -239.312817 
L 136.370192 -239.250945 
L 136.976146 -239.284603 
L 137.572704 -239.236114 
L 138.160155 -239.294934 
L 138.738771 -239.2288 
L 139.308814 -239.23917 
L 139.870536 -239.247267 
L 140.424175 -239.194346 
L 140.969961 -239.207901 
L 141.508113 -239.164469 
L 142.038842 -239.180888 
L 142.56235 -239.145773 
L 143.078831 -239.156462 
L 143.588471 -239.153703 
L 144.091448 -239.104953 
L 144.587936 -239.101075 
L 145.078099 -239.095873 
L 145.562096 -239.126746 
L 146.04008 -239.11632 
L 146.512199 -239.109479 
L 146.978596 -239.108934 
L 147.439407 -239.088177 
L 147.894764 -239.104585 
L 148.344796 -239.069181 
L 148.789624 -239.111162 
L 149.229369 -239.089786 
L 149.664145 -239.072782 
L 150.094063 -239.082818 
L 150.51923 -239.078077 
L 150.93975 -239.015839 
L 151.355725 -239.054082 
L 151.76725 -239.00066 
L 152.17442 -239.052625 
L 152.577327 -239.022318 
L 152.976059 -238.995662 
L 153.370701 -239.00307 
L 153.761336 -238.975911 
L 162.733995 -238.919694 
L 175.68052 -238.809106 
L 185.350408 -238.702206 
L 193.071664 -238.645201 
L 199.499445 -238.65149 
L 205.005572 -238.68014 
L 209.821505 -238.671116 
L 214.101162 -238.697524 
L 217.952098 -238.725565 
L 221.452441 -238.670721 
L 224.660736 -238.67372 
L 227.621985 -238.527053 
L 230.371529 -238.365432 
L 232.93763 -238.270567 
L 235.343241 -238.050471 
L 237.607262 -237.824012 
L 239.745437 -237.593318 
L 241.771022 -237.151194 
L 243.695286 -236.884987 
L 245.527882 -236.612651 
L 247.277149 -236.261536 
L 248.950336 -235.823495 
L 250.553787 -235.521985 
L 252.093082 -235.154742 
L 253.573159 -234.733417 
L 254.998405 -234.500754 
L 256.372739 -234.099637 
L 257.699672 -233.682671 
L 258.982365 -233.169059 
L 260.223675 -233.00597 
L 261.426186 -232.698431 
L 262.592253 -232.484897 
L 263.724018 -232.029147 
L 264.823443 -231.717078 
L 265.892324 -231.348787 
L 266.932313 -230.819669 
L 267.944931 -230.567844 
L 268.931581 -230.028431 
L 269.893562 -229.816918 
L 270.832078 -229.287094 
L 271.748246 -228.868989 
L 272.643106 -228.407923 
L 273.517627 -228.491254 
L 274.372712 -228.016356 
L 275.209207 -227.620142 
L 276.027903 -227.236441 
L 276.829541 -227.197142 
L 277.614818 -226.653867 
L 278.384389 -226.306273 
L 279.138869 -226.420998 
L 279.878839 -226.086309 
L 280.604846 -225.559687 
L 281.317408 -225.495976 
L 282.017014 -225.228241 
L 282.704126 -224.497719 
L 283.379182 -224.735924 
L 284.0426 -224.018548 
L 284.694772 -223.586945 
L 285.336074 -223.358725 
L 285.966863 -222.847378 
L 286.587477 -222.615376 
L 287.19824 -222.219381 
L 287.799459 -221.805305 
L 288.391428 -221.542324 
L 288.974428 -221.59456 
L 289.548726 -221.442672 
L 290.114578 -220.974726 
L 290.672229 -220.360894 
L 291.221914 -220.398089 
L 291.763856 -220.506727 
L 292.29827 -219.589442 
L 292.825364 -219.545143 
L 293.345335 -219.0285 
L 293.858373 -218.933061 
L 294.364659 -218.344424 
L 294.864371 -218.222737 
L 295.357676 -217.897644 
L 295.844736 -218.054712 
L 296.325708 -217.651356 
L 296.800742 -217.074709 
L 297.269982 -217.276803 
L 297.733569 -216.949963 
L 298.191637 -216.654078 
L 298.644316 -216.559581 
L 299.091731 -216.059911 
L 299.534003 -215.61697 
L 299.971249 -215.750317 
L 300.403582 -215.401033 
L 300.831111 -214.793961 
L 301.253943 -215.152528 
L 301.672178 -215.345512 
L 302.085915 -214.818651 
L 302.495252 -214.5907 
L 302.900279 -214.260589 
L 303.301087 -213.782355 
L 303.697764 -214.295405 
L 304.090392 -213.905894 
L 304.479054 -213.614281 
L 304.86383 -213.784486 
L 305.244796 -213.166972 
L 305.622027 -213.232314 
L 305.995595 -213.050955 
L 306.365572 -212.729051 
L 306.732024 -212.58754 
L 307.09502 -212.491214 
L 307.454623 -212.298662 
L 307.810896 -212.397115 
L 308.163901 -212.16079 
L 308.513697 -212.166359 
L 308.860341 -212.14404 
L 309.20389 -211.852055 
L 309.544399 -211.709219 
L 309.881921 -211.602633 
L 310.216508 -211.721013 
L 310.54821 -211.438967 
L 310.877078 -210.977026 
L 311.203158 -211.301881 
L 311.526498 -211.405282 
L 311.847144 -211.027779 
L 312.165139 -211.074482 
L 312.480528 -210.882055 
L 312.793353 -210.542166 
L 313.103655 -211.01547 
L 313.411475 -210.390791 
L 313.716851 -210.407183 
L 314.019823 -210.20463 
L 314.320428 -210.117268 
L 314.618703 -210.474375 
L 314.914683 -210.007057 
L 315.208404 -210.138057 
L 315.4999 -209.916914 
L 315.789204 -209.720232 
L 316.076349 -209.969566 
L 316.361367 -209.627076 
L 316.644289 -209.712166 
L 316.925146 -209.572703 
L 317.203968 -209.088216 
L 317.480784 -209.270947 
L 317.755623 -209.205279 
L 318.028512 -209.223227 
L 318.29948 -208.711557 
L 318.568552 -209.208667 
L 318.835757 -209.161472 
L 319.101118 -208.99402 
L 319.364662 -208.794464 
L 319.626413 -208.799087 
L 319.886395 -208.72976 
L 320.144633 -208.564334 
L 320.401149 -208.440583 
L 320.655966 -208.582756 
L 320.909107 -207.78578 
L 321.160593 -208.293637 
L 321.410446 -208.223779 
L 321.658687 -207.998138 
L 321.905337 -207.992608 
L 322.150416 -207.783628 
L 322.393943 -207.796463 
L 322.635939 -207.693046 
L 322.876423 -207.588332 
L 323.115413 -207.490566 
L 323.352928 -207.560996 
L 323.588985 -207.7237 
L 323.823603 -207.33846 
L 324.056799 -207.462287 
L 324.288591 -207.556172 
L 324.518994 -207.247675 
L 324.748026 -207.183255 
L 324.975703 -207.237347 
L 325.20204 -207.102196 
L 325.427054 -206.761988 
L 325.650759 -207.026594 
L 325.873172 -206.993012 
L 326.094306 -206.83509 
L 326.314177 -206.94907 
L 326.532798 -206.831982 
L 326.750184 -206.797327 
L 326.966349 -206.606436 
L 327.181306 -206.732816 
L 327.395069 -206.634713 
L 327.607651 -206.605643 
L 327.819065 -206.29509 
L 328.029324 -206.190383 
L 328.23844 -206.411055 
L 328.446426 -206.101225 
L 328.653293 -206.348289 
L 328.859054 -206.347581 
L 329.063721 -206.1523 
L 329.267305 -206.490159 
L 329.469817 -206.148549 
L 329.671269 -206.261663 
L 329.871672 -205.944288 
L 330.071036 -206.141036 
L 330.269373 -205.928112 
L 330.466693 -206.034339 
L 330.663006 -205.648842 
L 330.858322 -205.426482 
L 331.052652 -205.600668 
L 331.246005 -205.591145 
L 331.438392 -205.620065 
L 331.629821 -205.804057 
L 331.820303 -205.782546 
L 332.009847 -205.771686 
L 332.198461 -205.799491 
L 332.386155 -205.205969 
L 332.572938 -205.007134 
L 332.758819 -205.416845 
L 332.943806 -205.228131 
L 333.127908 -205.474966 
L 333.311134 -205.428 
L 333.493491 -204.762213 
L 333.674987 -204.708886 
L 333.855632 -204.825669 
L 334.035433 -204.43593 
L 334.214397 -204.935358 
L 334.392533 -204.893388 
L 334.569847 -204.736593 
L 334.746349 -204.957199 
L 334.922044 -204.736861 
L 335.096941 -204.397712 
L 335.271047 -204.584703 
L 335.444368 -204.588917 
L 335.616912 -204.738406 
L 335.788686 -204.288862 
L 335.959696 -204.740479 
L 336.12995 -204.221439 
L 336.299453 -204.545271 
L 336.468213 -204.141839 
L 336.636236 -204.610935 
L 336.803529 -204.196024 
L 336.970098 -204.394744 
L 337.135948 -204.307353 
L 337.301087 -204.079614 
L 337.46552 -204.174506 
L 337.629253 -204.096836 
L 337.792292 -204.096757 
L 337.954644 -204.028603 
L 338.116313 -204.211382 
L 338.277306 -203.94519 
L 338.437628 -203.93681 
L 338.597285 -203.927656 
L 338.756282 -204.264973 
L 338.914625 -203.884768 
L 339.072319 -203.776551 
L 339.229369 -203.448744 
L 339.385781 -203.926927 
L 339.541559 -203.467263 
L 339.69671 -203.765426 
L 339.851237 -203.664576 
L 340.005146 -203.538288 
L 340.158442 -203.085022 
L 340.31113 -203.374636 
L 340.463214 -203.366637 
L 340.614699 -203.312459 
L 340.765591 -203.261838 
L 340.915893 -203.447777 
L 341.06561 -203.184649 
L 341.214747 -203.184991 
L 341.363308 -203.472997 
L 341.511297 -203.058741 
L 341.65872 -203.366896 
L 341.80558 -202.858851 
L 341.951881 -203.160457 
L 342.097629 -203.117861 
L 342.242826 -203.181072 
L 342.387477 -203.036751 
L 342.531587 -202.796939 
L 342.675159 -203.053505 
L 342.818197 -202.847105 
L 342.960706 -202.849414 
L 343.102688 -202.540292 
L 343.244149 -202.69091 
L 343.385092 -202.94526 
L 343.52552 -202.603959 
L 343.665437 -202.627519 
L 343.804847 -202.51276 
L 343.943755 -202.811962 
L 344.082162 -202.333415 
L 344.220074 -202.384263 
L 344.357493 -202.644506 
L 344.494422 -202.745485 
L 344.630867 -202.471358 
L 344.766829 -202.190529 
L 344.902312 -202.210823 
L 345.03732 -202.728487 
L 345.171856 -202.528251 
L 345.305923 -202.083153 
L 345.439525 -202.316263 
L 345.572664 -201.91327 
L 345.705345 -202.146178 
L 345.837569 -201.835126 
L 345.969341 -202.182849 
L 346.100662 -202.026937 
L 346.231538 -202.177724 
L 346.361969 -201.943928 
L 346.49196 -202.258745 
L 346.621513 -202.015072 
L 346.750631 -201.811991 
L 346.879318 -201.72374 
L 347.007576 -201.735846 
L 347.135407 -201.666746 
L 347.262815 -201.81052 
L 347.389803 -201.701999 
L 347.516373 -201.584156 
L 347.642528 -201.620135 
L 347.768271 -201.506438 
L 347.893604 -201.748709 
L 348.01853 -201.733681 
L 348.143052 -201.526891 
L 348.267172 -201.317694 
L 348.390894 -201.156293 
L 348.514218 -201.509557 
L 348.637149 -201.436912 
L 348.759688 -201.454948 
L 348.881838 -201.669805 
L 349.003602 -201.589966 
L 349.124981 -201.424935 
L 349.245979 -201.125147 
L 349.366597 -201.201948 
L 349.486839 -200.93039 
L 349.606706 -201.274335 
L 349.7262 -201.120451 
L 349.845325 -200.842236 
L 349.964082 -201.244527 
L 350.082474 -200.834417 
L 350.200502 -201.069022 
L 350.31817 -201.17058 
L 350.435478 -200.868509 
L 350.552431 -200.967218 
L 350.669028 -200.622653 
L 350.785274 -200.930459 
L 350.901169 -201.393923 
L 351.016717 -201.082286 
L 351.131918 -200.547588 
L 351.246776 -200.570754 
L 351.361291 -200.721778 
L 351.475467 -200.348108 
L 351.589305 -200.545078 
L 351.702808 -200.962967 
L 351.815976 -200.666317 
L 351.928813 -200.407552 
L 352.041319 -200.570566 
L 352.153498 -200.276889 
L 352.265351 -200.3706 
L 352.376879 -200.074253 
L 352.488085 -200.80275 
L 352.59897 -200.260921 
L 352.709537 -200.002329 
L 352.819787 -200.256197 
L 352.929722 -199.928361 
L 353.039344 -200.393468 
L 353.148655 -200.189807 
L 353.257655 -200.147979 
L 353.366348 -200.074677 
L 353.474735 -200.246589 
L 353.582817 -200.189003 
L 353.690597 -199.799956 
L 353.798075 -200.413138 
L 353.905254 -199.999917 
L 354.012135 -200.172632 
L 354.118721 -199.774999 
L 354.225011 -200.176282 
L 354.331009 -199.726851 
L 354.436716 -199.884094 
L 354.542133 -199.825907 
L 354.647263 -199.628179 
L 354.752105 -199.791237 
L 354.856663 -199.815739 
L 354.960938 -200.068162 
L 355.06493 -199.903166 
L 355.168643 -199.671056 
L 355.272076 -199.776941 
L 355.375232 -199.786538 
L 355.478113 -199.502573 
L 355.580719 -199.44919 
L 355.683052 -199.639752 
L 355.785114 -199.4468 
L 355.886905 -199.659758 
L 355.988428 -199.403934 
L 356.089684 -199.47939 
L 356.190675 -199.280631 
L 356.2914 -199.330983 
L 356.391863 -198.908729 
L 356.492065 -199.559545 
L 356.592006 -199.293808 
L 356.691688 -199.194793 
L 356.791112 -199.251233 
L 356.89028 -199.252542 
L 356.989194 -199.127488 
L 357.087853 -199.208193 
L 357.186261 -198.933293 
L 357.284417 -199.270053 
L 357.382323 -199.066805 
L 357.479981 -199.197078 
L 357.577392 -199.262364 
L 357.674557 -199.034552 
L 357.771477 -199.255403 
L 357.868154 -199.321162 
L 357.964588 -199.015589 
L 358.060781 -199.082706 
L 358.156734 -198.908139 
L 358.252449 -198.812434 
L 358.347926 -198.675243 
L 358.443167 -198.937343 
L 358.538172 -198.799527 
L 358.632944 -198.811849 
L 358.727483 -198.804617 
L 358.82179 -198.538762 
L 358.915866 -198.708993 
L 359.009713 -198.717303 
L 359.103332 -198.7826 
L 359.196723 -198.747152 
L 359.289889 -198.362033 
L 359.382829 -198.466297 
L 359.475545 -198.635042 
L 359.568039 -198.95568 
L 359.66031 -198.840541 
L 359.752361 -198.550056 
L 359.844192 -198.491959 
L 359.935805 -198.476633 
L 360.0272 -198.589852 
L 360.118378 -198.513549 
L 360.209341 -198.367991 
L 360.300089 -198.478008 
L 360.390624 -198.244385 
L 360.480946 -198.473822 
L 360.571057 -198.278929 
L 360.660957 -198.396397 
L 360.750648 -198.279378 
L 360.84013 -198.427236 
L 360.929404 -198.564082 
L 361.018472 -198.372897 
L 361.107334 -198.312192 
L 361.195991 -198.446704 
L 361.284445 -198.294566 
L 361.372695 -198.37918 
L 361.460744 -198.108147 
L 361.548591 -198.249192 
L 361.636239 -197.850538 
L 361.723687 -198.360099 
L 361.810937 -198.154675 
L 361.89799 -197.992717 
L 361.984846 -198.120374 
L 362.071507 -198.098693 
L 362.157972 -197.8666 
L 362.244244 -198.101174 
L 362.330323 -198.267405 
L 362.41621 -198.085823 
L 362.501905 -198.162259 
L 362.58741 -198.162957 
L 362.672726 -197.547269 
L 362.757852 -197.553961 
L 362.842791 -198.000465 
L 362.927543 -197.977347 
L 363.012108 -197.952597 
L 363.096488 -197.622919 
L 363.180684 -197.825957 
L 363.264695 -197.921163 
L 363.348524 -197.619067 
L 363.43217 -197.830175 
L 363.515635 -197.718745 
L 363.598919 -197.558605 
L 363.682023 -197.522551 
L 363.764948 -197.079687 
L 363.847695 -197.355521 
L 363.930264 -197.236493 
L 364.012657 -197.70868 
L 364.094873 -197.555967 
L 364.176914 -197.511386 
L 364.25878 -197.645042 
L 364.340473 -197.29512 
L 364.421993 -197.404559 
L 364.50334 -197.619124 
L 364.584516 -197.764917 
L 364.665521 -197.283095 
L 364.746355 -197.400965 
L 364.82702 -197.341549 
L 364.907517 -197.493126 
L 364.987845 -197.304002 
L 365.068006 -197.115198 
L 365.148 -197.343392 
L 365.227828 -197.44668 
L 365.307492 -197.105797 
L 365.38699 -197.195285 
L 365.466325 -197.086499 
L 365.545496 -197.140563 
L 365.624505 -197.248925 
L 365.703352 -197.3174 
L 365.782037 -196.985713 
L 365.860562 -196.708223 
L 365.938927 -197.35097 
L 366.017133 -196.810895 
L 366.09518 -197.121829 
L 366.173069 -197.020439 
L 366.250801 -196.958714 
L 366.328376 -196.90998 
L 366.405795 -196.909755 
L 366.483059 -197.035583 
L 366.560168 -197.014853 
L 366.637122 -196.966342 
L 366.713923 -196.900748 
L 366.790571 -196.649692 
L 366.867067 -196.44696 
L 366.94341 -196.672395 
L 367.019603 -196.99837 
L 367.095645 -196.652559 
L 367.171537 -196.902422 
L 367.24728 -197.043491 
L 367.322874 -196.579604 
L 367.398319 -196.277179 
L 367.473617 -196.729623 
L 367.548768 -196.618688 
L 367.623772 -196.486083 
L 367.698631 -196.944531 
L 367.773344 -196.619702 
L 367.847912 -196.565468 
L 367.922336 -196.533622 
L 367.996617 -196.539971 
L 368.070754 -196.489251 
L 368.144749 -196.515995 
L 368.218602 -196.662211 
L 368.292313 -196.397498 
L 368.365883 -196.484121 
L 368.439313 -196.414633 
L 368.512603 -196.662283 
L 368.585754 -196.449452 
L 368.658766 -196.222968 
L 368.731639 -196.41562 
L 368.804375 -196.682268 
L 368.876974 -196.518914 
L 368.949436 -196.035531 
L 369.021761 -196.396663 
L 369.093951 -196.528075 
L 369.166006 -196.352805 
L 369.237926 -196.167323 
L 369.309712 -196.277316 
L 369.381364 -195.966399 
L 369.452883 -196.323792 
L 369.52427 -195.981082 
L 369.595524 -196.346814 
L 369.666646 -196.023074 
L 369.737638 -196.130187 
L 369.808498 -196.403524 
L 369.879228 -196.135343 
L 369.949829 -196.225619 
L 370.0203 -196.145641 
L 370.090642 -196.287529 
L 370.160856 -195.916899 
L 370.230942 -196.000194 
L 370.300901 -196.094592 
L 370.370733 -195.863471 
L 370.440438 -196.032569 
L 370.510017 -196.023606 
L 370.579471 -195.862064 
L 370.648799 -195.992861 
L 370.718003 -196.108914 
L 370.787082 -195.834538 
L 370.856038 -195.820236 
L 370.92487 -195.86735 
L 370.993579 -195.59255 
L 371.062166 -195.555133 
L 371.130631 -195.983704 
L 371.198975 -196.024057 
L 371.267197 -195.922032 
L 371.335298 -195.927212 
L 371.403279 -195.824045 
L 371.47114 -195.50663 
L 371.538882 -195.462496 
L 371.606504 -195.773586 
L 371.674008 -195.591678 
L 371.741394 -195.64344 
L 371.808662 -195.758825 
L 371.875813 -195.540503 
L 371.942846 -195.33348 
L 372.009763 -195.585123 
L 372.076564 -195.806929 
L 372.143249 -195.842147 
L 372.209819 -195.88034 
L 372.276273 -195.727294 
L 372.342613 -195.406809 
L 372.408839 -195.44753 
L 372.474951 -195.604162 
L 372.54095 -195.125788 
L 372.606836 -195.274627 
L 372.672609 -195.533991 
L 372.73827 -195.657556 
L 372.803819 -195.318568 
L 372.869256 -195.434349 
L 372.934583 -194.873718 
L 372.999798 -195.277696 
L 373.064904 -195.36663 
L 373.129899 -194.993984 
L 373.194785 -195.265747 
L 373.259561 -195.560708 
L 373.324229 -195.394155 
L 373.388788 -194.944425 
L 373.453239 -195.566487 
L 373.517582 -195.198565 
L 373.581818 -195.2038 
L 373.581818 -195.839736 
L 373.581818 -195.839736 
L 373.517582 -195.965508 
L 373.453239 -196.058963 
L 373.388788 -195.629343 
L 373.324229 -196.219666 
L 373.259561 -196.341369 
L 373.194785 -196.051382 
L 373.129899 -195.797378 
L 373.064904 -196.025651 
L 372.999798 -195.941171 
L 372.934583 -195.613084 
L 372.869256 -196.055385 
L 372.803819 -195.850047 
L 372.73827 -196.450034 
L 372.672609 -196.316554 
L 372.606836 -196.063325 
L 372.54095 -195.90564 
L 372.474951 -196.327351 
L 372.408839 -196.270099 
L 372.342613 -196.152244 
L 372.276273 -196.333545 
L 372.209819 -196.627651 
L 372.143249 -196.416995 
L 372.076564 -196.565999 
L 372.009763 -196.278465 
L 371.942846 -196.043428 
L 371.875813 -196.227743 
L 371.808662 -196.418844 
L 371.741394 -196.346392 
L 371.674008 -196.473233 
L 371.606504 -196.495294 
L 371.538882 -196.181758 
L 371.47114 -196.159152 
L 371.403279 -196.445606 
L 371.335298 -196.635029 
L 371.267197 -196.722585 
L 371.198975 -196.737621 
L 371.130631 -196.550943 
L 371.062166 -196.221152 
L 370.993579 -196.415872 
L 370.92487 -196.639515 
L 370.856038 -196.497213 
L 370.787082 -196.44356 
L 370.718003 -196.673941 
L 370.648799 -196.732934 
L 370.579471 -196.583645 
L 370.510017 -196.643281 
L 370.440438 -196.801912 
L 370.370733 -196.706742 
L 370.300901 -196.667708 
L 370.230942 -196.688374 
L 370.160856 -196.60409 
L 370.090642 -196.943862 
L 370.0203 -196.868657 
L 369.949829 -196.85578 
L 369.879228 -196.872314 
L 369.808498 -197.126952 
L 369.737638 -196.883775 
L 369.666646 -196.73078 
L 369.595524 -197.089584 
L 369.52427 -196.812633 
L 369.452883 -197.093876 
L 369.381364 -196.722741 
L 369.309712 -196.912525 
L 369.237926 -196.951897 
L 369.166006 -197.039823 
L 369.093951 -197.31613 
L 369.021761 -197.012336 
L 368.949436 -196.761453 
L 368.876974 -197.281679 
L 368.804375 -197.276759 
L 368.731639 -197.062732 
L 368.658766 -197.084138 
L 368.585754 -197.128859 
L 368.512603 -197.336604 
L 368.439313 -197.113843 
L 368.365883 -197.292566 
L 368.292313 -197.27644 
L 368.218602 -197.462283 
L 368.144749 -197.200008 
L 368.070754 -197.330615 
L 367.996617 -197.479467 
L 367.922336 -197.317128 
L 367.847912 -197.449538 
L 367.773344 -197.365307 
L 367.698631 -197.720928 
L 367.623772 -197.368284 
L 367.548768 -197.356953 
L 367.473617 -197.489698 
L 367.398319 -197.080576 
L 367.322874 -197.408024 
L 367.24728 -197.797271 
L 367.171537 -197.626221 
L 367.095645 -197.345756 
L 367.019603 -197.730498 
L 366.94341 -197.497619 
L 366.867067 -197.247899 
L 366.790571 -197.465718 
L 366.713923 -197.562383 
L 366.637122 -197.785579 
L 366.560168 -197.671762 
L 366.483059 -197.816529 
L 366.405795 -197.683423 
L 366.328376 -197.682068 
L 366.250801 -197.690717 
L 366.173069 -197.826577 
L 366.09518 -197.882516 
L 366.017133 -197.583825 
L 365.938927 -198.091595 
L 365.860562 -197.554833 
L 365.782037 -197.638822 
L 365.703352 -198.008744 
L 365.624505 -198.01442 
L 365.545496 -197.864947 
L 365.466325 -197.904428 
L 365.38699 -197.96837 
L 365.307492 -197.892902 
L 365.227828 -198.107105 
L 365.148 -198.172368 
L 365.068006 -197.906605 
L 364.987845 -198.094721 
L 364.907517 -198.199015 
L 364.82702 -197.960702 
L 364.746355 -198.119959 
L 364.665521 -198.229101 
L 364.584516 -198.581452 
L 364.50334 -198.41182 
L 364.421993 -198.115887 
L 364.340473 -198.066284 
L 364.25878 -198.344064 
L 364.176914 -198.226611 
L 364.094873 -198.150609 
L 364.012657 -198.386657 
L 363.930264 -197.917843 
L 363.847695 -198.009515 
L 363.764948 -197.985553 
L 363.682023 -198.376025 
L 363.598919 -198.353559 
L 363.515635 -198.422041 
L 363.43217 -198.459389 
L 363.348524 -198.431372 
L 363.264695 -198.668353 
L 363.180684 -198.579299 
L 363.096488 -198.381253 
L 363.012108 -198.63299 
L 362.927543 -198.616028 
L 362.842791 -198.624867 
L 362.757852 -198.321273 
L 362.672726 -198.334832 
L 362.58741 -198.701221 
L 362.501905 -198.769186 
L 362.41621 -198.751077 
L 362.330323 -198.925878 
L 362.244244 -198.918157 
L 362.157972 -198.749369 
L 362.071507 -198.868938 
L 361.984846 -198.740862 
L 361.89799 -198.754568 
L 361.810937 -198.827915 
L 361.723687 -198.924296 
L 361.636239 -198.536003 
L 361.548591 -198.918426 
L 361.460744 -198.766172 
L 361.372695 -199.130042 
L 361.284445 -199.136179 
L 361.195991 -199.097588 
L 361.107334 -198.951215 
L 361.018472 -199.006793 
L 360.929404 -199.144473 
L 360.84013 -199.07637 
L 360.750648 -198.926178 
L 360.660957 -199.142389 
L 360.571057 -199.006252 
L 360.480946 -199.335366 
L 360.390624 -199.247569 
L 360.300089 -199.265792 
L 360.209341 -199.147011 
L 360.118378 -199.34033 
L 360.0272 -199.238339 
L 359.935805 -199.158511 
L 359.844192 -199.266243 
L 359.752361 -199.246744 
L 359.66031 -199.468005 
L 359.568039 -199.667869 
L 359.475545 -199.39053 
L 359.382829 -199.240877 
L 359.289889 -199.312387 
L 359.196723 -199.429711 
L 359.103332 -199.490067 
L 359.009713 -199.291689 
L 358.915866 -199.389434 
L 358.82179 -199.313364 
L 358.727483 -199.572161 
L 358.632944 -199.633195 
L 358.538172 -199.449225 
L 358.443167 -199.793035 
L 358.347926 -199.733842 
L 358.252449 -199.49694 
L 358.156734 -199.641397 
L 358.060781 -199.699795 
L 357.964588 -199.708107 
L 357.868154 -200.093398 
L 357.771477 -199.850504 
L 357.674557 -199.793307 
L 357.577392 -199.782314 
L 357.479981 -199.85576 
L 357.382323 -199.877949 
L 357.284417 -199.9395 
L 357.186261 -199.729475 
L 357.087853 -199.975868 
L 356.989194 -199.941483 
L 356.89028 -199.876903 
L 356.791112 -199.990115 
L 356.691688 -199.922126 
L 356.592006 -199.967021 
L 356.492065 -200.262972 
L 356.391863 -199.666027 
L 356.2914 -200.001581 
L 356.190675 -200.034416 
L 356.089684 -200.283814 
L 355.988428 -200.191469 
L 355.886905 -200.452617 
L 355.785114 -200.243328 
L 355.683052 -200.399747 
L 355.580719 -200.229549 
L 355.478113 -200.264109 
L 355.375232 -200.502781 
L 355.272076 -200.656035 
L 355.168643 -200.45871 
L 355.06493 -200.56034 
L 354.960938 -200.712753 
L 354.856663 -200.436063 
L 354.752105 -200.573681 
L 354.647263 -200.53977 
L 354.542133 -200.583394 
L 354.436716 -200.634804 
L 354.331009 -200.394497 
L 354.225011 -200.823512 
L 354.118721 -200.380187 
L 354.012135 -200.897707 
L 353.905254 -200.724664 
L 353.798075 -201.064584 
L 353.690597 -200.641679 
L 353.582817 -200.928534 
L 353.474735 -200.929856 
L 353.366348 -200.880557 
L 353.257655 -200.936621 
L 353.148655 -200.793225 
L 353.039344 -201.124882 
L 352.929722 -200.695572 
L 352.819787 -200.853842 
L 352.709537 -200.717475 
L 352.59897 -201.023749 
L 352.488085 -201.551672 
L 352.376879 -200.952086 
L 352.265351 -201.000794 
L 352.153498 -201.00441 
L 352.041319 -201.352383 
L 351.928813 -201.304433 
L 351.815976 -201.367542 
L 351.702808 -201.541359 
L 351.589305 -201.276201 
L 351.475467 -201.110527 
L 351.361291 -201.487667 
L 351.246776 -201.345133 
L 351.131918 -201.371184 
L 351.016717 -201.764664 
L 350.901169 -202.033362 
L 350.785274 -201.595092 
L 350.669028 -201.28766 
L 350.552431 -201.60309 
L 350.435478 -201.52523 
L 350.31817 -201.814531 
L 350.200502 -201.900332 
L 350.082474 -201.69454 
L 349.964082 -201.928 
L 349.845325 -201.676116 
L 349.7262 -201.713038 
L 349.606706 -201.900974 
L 349.486839 -201.668635 
L 349.366597 -201.888271 
L 349.245979 -201.941647 
L 349.124981 -202.118227 
L 349.003602 -202.214131 
L 348.881838 -202.380129 
L 348.759688 -202.248259 
L 348.637149 -202.255292 
L 348.514218 -202.191514 
L 348.390894 -201.927911 
L 348.267172 -202.149751 
L 348.143052 -202.326155 
L 348.01853 -202.259373 
L 347.893604 -202.488312 
L 347.768271 -202.223746 
L 347.642528 -202.361866 
L 347.516373 -202.283058 
L 347.389803 -202.473074 
L 347.262815 -202.586971 
L 347.135407 -202.348944 
L 347.007576 -202.359309 
L 346.879318 -202.357952 
L 346.750631 -202.726778 
L 346.621513 -202.647092 
L 346.49196 -203.069393 
L 346.361969 -202.769387 
L 346.231538 -202.810222 
L 346.100662 -202.79747 
L 345.969341 -202.942175 
L 345.837569 -202.514363 
L 345.705345 -202.726436 
L 345.572664 -202.707072 
L 345.439525 -203.044345 
L 345.305923 -202.863177 
L 345.171856 -203.256467 
L 345.03732 -203.317197 
L 344.902312 -203.030851 
L 344.766829 -202.91965 
L 344.630867 -203.25683 
L 344.494422 -203.412666 
L 344.357493 -203.342453 
L 344.220074 -203.18189 
L 344.082162 -202.965524 
L 343.943755 -203.662459 
L 343.804847 -203.286786 
L 343.665437 -203.26685 
L 343.52552 -203.23359 
L 343.385092 -203.67073 
L 343.244149 -203.539617 
L 343.102688 -203.300579 
L 342.960706 -203.519276 
L 342.818197 -203.557754 
L 342.675159 -203.647356 
L 342.531587 -203.441801 
L 342.387477 -203.694605 
L 342.242826 -203.869097 
L 342.097629 -203.869508 
L 341.951881 -203.859306 
L 341.80558 -203.622293 
L 341.65872 -204.143826 
L 341.511297 -203.756623 
L 341.363308 -204.220908 
L 341.214747 -204.061447 
L 341.06561 -203.953714 
L 340.915893 -204.183973 
L 340.765591 -204.05115 
L 340.614699 -204.038149 
L 340.463214 -204.208837 
L 340.31113 -204.155832 
L 340.158442 -204.023445 
L 340.005146 -204.220644 
L 339.851237 -204.258705 
L 339.69671 -204.436589 
L 339.541559 -204.203224 
L 339.385781 -204.564721 
L 339.229369 -204.399647 
L 339.072319 -204.565746 
L 338.914625 -204.605632 
L 338.756282 -204.876891 
L 338.597285 -204.524649 
L 338.437628 -204.567386 
L 338.277306 -204.667907 
L 338.116313 -204.913612 
L 337.954644 -204.755855 
L 337.792292 -204.787604 
L 337.629253 -204.897931 
L 337.46552 -204.952635 
L 337.301087 -204.828718 
L 337.135948 -204.917859 
L 336.970098 -205.063511 
L 336.803529 -204.862154 
L 336.636236 -205.326827 
L 336.468213 -204.894118 
L 336.299453 -205.147749 
L 336.12995 -205.045957 
L 335.959696 -205.575269 
L 335.788686 -205.049636 
L 335.616912 -205.465511 
L 335.444368 -205.411403 
L 335.271047 -205.295724 
L 335.096941 -205.246722 
L 334.922044 -205.409277 
L 334.746349 -205.660252 
L 334.569847 -205.475117 
L 334.392533 -205.62679 
L 334.214397 -205.750929 
L 334.035433 -205.2913 
L 333.855632 -205.548806 
L 333.674987 -205.506189 
L 333.493491 -205.51489 
L 333.311134 -206.1798 
L 333.127908 -206.290983 
L 332.943806 -206.199803 
L 332.758819 -206.161843 
L 332.572938 -205.780511 
L 332.386155 -206.01676 
L 332.198461 -206.573088 
L 332.009847 -206.482773 
L 331.820303 -206.440919 
L 331.629821 -206.458677 
L 331.438392 -206.340497 
L 331.246005 -206.29557 
L 331.052652 -206.346697 
L 330.858322 -206.065442 
L 330.663006 -206.312401 
L 330.466693 -206.72505 
L 330.269373 -206.661736 
L 330.071036 -206.842412 
L 329.871672 -206.629072 
L 329.671269 -206.97965 
L 329.469817 -206.93159 
L 329.267305 -207.205808 
L 329.063721 -206.920101 
L 328.859054 -207.13949 
L 328.653293 -207.171087 
L 328.446426 -206.865007 
L 328.23844 -207.124012 
L 328.029324 -207.06403 
L 327.819065 -206.987937 
L 327.607651 -207.41727 
L 327.395069 -207.334503 
L 327.181306 -207.570838 
L 326.966349 -207.358731 
L 326.750184 -207.500983 
L 326.532798 -207.614944 
L 326.314177 -207.650202 
L 326.094306 -207.64923 
L 325.873172 -207.899435 
L 325.650759 -207.790174 
L 325.427054 -207.632099 
L 325.20204 -207.800804 
L 324.975703 -208.026623 
L 324.748026 -207.913653 
L 324.518994 -208.023849 
L 324.288591 -208.369657 
L 324.056799 -208.184265 
L 323.823603 -208.266925 
L 323.588985 -208.326232 
L 323.352928 -208.262572 
L 323.115413 -208.203967 
L 322.876423 -208.431922 
L 322.635939 -208.336764 
L 322.393943 -208.659383 
L 322.150416 -208.456881 
L 321.905337 -208.737624 
L 321.658687 -208.579281 
L 321.410446 -208.951213 
L 321.160593 -209.101882 
L 320.909107 -208.508045 
L 320.655966 -209.405232 
L 320.401149 -209.273844 
L 320.144633 -209.524864 
L 319.886395 -209.329885 
L 319.626413 -209.681923 
L 319.364662 -209.541773 
L 319.101118 -209.81537 
L 318.835757 -209.988546 
L 318.568552 -210.038659 
L 318.29948 -209.442494 
L 318.028512 -210.087002 
L 317.755623 -210.037797 
L 317.480784 -209.964992 
L 317.203968 -210.00655 
L 316.925146 -210.448061 
L 316.644289 -210.472688 
L 316.361367 -210.425529 
L 316.076349 -210.76389 
L 315.789204 -210.579504 
L 315.4999 -210.786322 
L 315.208404 -211.012961 
L 314.914683 -210.975709 
L 314.618703 -211.171776 
L 314.320428 -211.030249 
L 314.019823 -211.082578 
L 313.716851 -211.133107 
L 313.411475 -211.366628 
L 313.103655 -212.10248 
L 312.793353 -211.540604 
L 312.480528 -211.689158 
L 312.165139 -211.908403 
L 311.847144 -211.926431 
L 311.526498 -212.200819 
L 311.203158 -212.110515 
L 310.877078 -211.900247 
L 310.54821 -212.318025 
L 310.216508 -212.529556 
L 309.881921 -212.574299 
L 309.544399 -212.678207 
L 309.20389 -212.622985 
L 308.860341 -213.030539 
L 308.513697 -213.213243 
L 308.163901 -213.103289 
L 307.810896 -213.265629 
L 307.454623 -213.218409 
L 307.09502 -213.421551 
L 306.732024 -213.509548 
L 306.365572 -213.599732 
L 305.995595 -214.137937 
L 305.622027 -214.01498 
L 305.244796 -214.559158 
L 304.86383 -214.907048 
L 304.479054 -214.735714 
L 304.090392 -215.193674 
L 303.697764 -215.132452 
L 303.301087 -214.958493 
L 302.900279 -215.259174 
L 302.495252 -215.763651 
L 302.085915 -215.763728 
L 301.672178 -216.312299 
L 301.253943 -216.067278 
L 300.831111 -215.881963 
L 300.403582 -216.330666 
L 299.971249 -216.695749 
L 299.534003 -216.71261 
L 299.091731 -217.014929 
L 298.644316 -217.82386 
L 298.191637 -217.94139 
L 297.733569 -217.995281 
L 297.269982 -218.570026 
L 296.800742 -218.083487 
L 296.325708 -219.128725 
L 295.844736 -218.907145 
L 295.357676 -219.22838 
L 294.864371 -219.138262 
L 294.364659 -219.419058 
L 293.858373 -219.855772 
L 293.345335 -220.030342 
L 292.825364 -220.472703 
L 292.29827 -220.598348 
L 291.763856 -221.342173 
L 291.221914 -221.65849 
L 290.672229 -221.224656 
L 290.114578 -221.961753 
L 289.548726 -222.311095 
L 288.974428 -222.623074 
L 288.391428 -222.462318 
L 287.799459 -222.614474 
L 287.19824 -223.239685 
L 286.587477 -223.694157 
L 285.966863 -223.78939 
L 285.336074 -224.289568 
L 284.694772 -224.586189 
L 284.0426 -225.01592 
L 283.379182 -225.479347 
L 282.704126 -225.37234 
L 282.017014 -226.023267 
L 281.317408 -226.340691 
L 280.604846 -226.289324 
L 279.878839 -226.832661 
L 279.138869 -226.99889 
L 278.384389 -227.296223 
L 277.614818 -227.455075 
L 276.829541 -227.997698 
L 276.027903 -228.019939 
L 275.209207 -228.28818 
L 274.372712 -228.769985 
L 273.517627 -229.211119 
L 272.643106 -229.111757 
L 271.748246 -229.65992 
L 270.832078 -229.838193 
L 269.893562 -230.54816 
L 268.931581 -230.529042 
L 267.944931 -231.323802 
L 266.932313 -231.389318 
L 265.892324 -231.915428 
L 264.823443 -232.274627 
L 263.724018 -232.479124 
L 262.592253 -233.04394 
L 261.426186 -233.125874 
L 260.223675 -233.521955 
L 258.982365 -233.663027 
L 257.699672 -234.124572 
L 256.372739 -234.584244 
L 254.998405 -235.00474 
L 253.573159 -235.303304 
L 252.093082 -235.564981 
L 250.553787 -236.014042 
L 248.950336 -236.199941 
L 247.277149 -236.587824 
L 245.527882 -236.9815 
L 243.695286 -237.163744 
L 241.771022 -237.4726 
L 239.745437 -237.887523 
L 237.607262 -238.046352 
L 235.343241 -238.308395 
L 232.93763 -238.511108 
L 230.371529 -238.592196 
L 227.621985 -238.714393 
L 224.660736 -238.813346 
L 221.452441 -238.812335 
L 217.952098 -238.83142 
L 214.101162 -238.818132 
L 209.821505 -238.781986 
L 205.005572 -238.794338 
L 199.499445 -238.769608 
L 193.071664 -238.741171 
L 185.350408 -238.78857 
L 175.68052 -238.884391 
L 162.733995 -239.008802 
L 153.761336 -239.061808 
L 153.370701 -239.073498 
L 152.976059 -239.081002 
L 152.577327 -239.096348 
L 152.17442 -239.12583 
L 151.76725 -239.091178 
L 151.355725 -239.123531 
L 150.93975 -239.098456 
L 150.51923 -239.146031 
L 150.094063 -239.141175 
L 149.664145 -239.159613 
L 149.229369 -239.171411 
L 148.789624 -239.174358 
L 148.344796 -239.143771 
L 147.894764 -239.1661 
L 147.439407 -239.184885 
L 146.978596 -239.198948 
L 146.512199 -239.175352 
L 146.04008 -239.203491 
L 145.562096 -239.189121 
L 145.078099 -239.180096 
L 144.587936 -239.184016 
L 144.091448 -239.186759 
L 143.588471 -239.223777 
L 143.078831 -239.239067 
L 142.56235 -239.226663 
L 142.038842 -239.262141 
L 141.508113 -239.234845 
L 140.969961 -239.29423 
L 140.424175 -239.276385 
L 139.870536 -239.332375 
L 139.308814 -239.329042 
L 138.738771 -239.308071 
L 138.160155 -239.387268 
L 137.572704 -239.308622 
L 136.976146 -239.38784 
L 136.370192 -239.331428 
L 135.754543 -239.39732 
L 135.128883 -239.366201 
L 134.492881 -239.420175 
L 133.84619 -239.418021 
L 133.188443 -239.418153 
L 132.519256 -239.493235 
L 131.838225 -239.452976 
L 131.144923 -239.496769 
L 130.438899 -239.502442 
L 129.719677 -239.544598 
L 128.986755 -239.593791 
L 128.2396 -239.566213 
L 127.47765 -239.580511 
L 126.700305 -239.625083 
L 125.906932 -239.637811 
L 125.096854 -239.678543 
L 124.269355 -239.701657 
L 123.423667 -239.682842 
L 122.558973 -239.758443 
L 121.6744 -239.775595 
L 120.769011 -239.861818 
L 119.841804 -239.905199 
L 118.8917 -239.882581 
L 117.91754 -239.909997 
L 116.918075 -240.036021 
L 115.891954 -240.041182 
L 114.837717 -240.054043 
L 113.753779 -240.126968 
L 112.638419 -240.178721 
L 111.489759 -240.210416 
L 110.30575 -240.229287 
L 109.084148 -240.295399 
L 107.822486 -240.336564 
L 106.518047 -240.422152 
L 105.16783 -240.469251 
L 103.768503 -240.584844 
L 102.316359 -240.734144 
L 100.807254 -240.768923 
L 99.236536 -240.871164 
L 97.598959 -241.014884 
L 95.888578 -241.054007 
L 94.098615 -241.185143 
L 92.221304 -241.356479 
L 90.247679 -241.468841 
L 88.167321 -241.657048 
L 85.968023 -241.826533 
L 83.635354 -242.139519 
L 81.15209 -242.16219 
L 78.497434 -242.388949 
L 75.645963 -242.819456 
L 72.56614 -243.095334 
L 69.218182 -243.556364 
z
" style="stroke: #ff0000; stroke-opacity: 0.2"/>
    </defs>
    <g clip-path="url(#p9a4924e18f)">
     <use xlink:href="#mdc8aaf9d06" x="0" y="288" style="fill: #ff0000; fill-opacity: 0.2; stroke: #ff0000; stroke-opacity: 0.2"/>
    </g>
   </g>
   <g id="matplotlib.axis_1">
    <g id="xtick_1">
     <g id="line2d_1">
      <defs>
       <path id="mde700a8c9f" d="M 0 0 
L 0 3.5 
" style="stroke: #000000; stroke-width: 0.8"/>
      </defs>
      <g>
       <use xlink:href="#mde700a8c9f" x="65.550908" y="252" style="stroke: #000000; stroke-width: 0.8"/>
      </g>
     </g>
     <g id="text_1">
      <!-- $\mathdefault{10^{1}}$ -->
      <g transform="translate(56.750908 266.598437)scale(0.1 -0.1)">
       <defs>
        <path id="DejaVuSans-31" d="M 794 531 
L 1825 531 
L 1825 4091 
L 703 3866 
L 703 4441 
L 1819 4666 
L 2450 4666 
L 2450 531 
L 3481 531 
L 3481 0 
L 794 0 
L 794 531 
z
" transform="scale(0.015625)"/>
        <path id="DejaVuSans-30" d="M 2034 4250 
Q 1547 4250 1301 3770 
Q 1056 3291 1056 2328 
Q 1056 1369 1301 889 
Q 1547 409 2034 409 
Q 2525 409 2770 889 
Q 3016 1369 3016 2328 
Q 3016 3291 2770 3770 
Q 2525 4250 2034 4250 
z
M 2034 4750 
Q 2819 4750 3233 4129 
Q 3647 3509 3647 2328 
Q 3647 1150 3233 529 
Q 2819 -91 2034 -91 
Q 1250 -91 836 529 
Q 422 1150 422 2328 
Q 422 3509 836 4129 
Q 1250 4750 2034 4750 
z
" transform="scale(0.015625)"/>
       </defs>
       <use xlink:href="#DejaVuSans-31" transform="translate(0 0.684375)"/>
       <use xlink:href="#DejaVuSans-30" transform="translate(63.623047 0.684375)"/>
       <use xlink:href="#DejaVuSans-31" transform="translate(128.203125 38.965625)scale(0.7)"/>
      </g>
     </g>
    </g>
    <g id="xtick_2">
     <g id="line2d_2">
      <g>
       <use xlink:href="#mde700a8c9f" x="154.148045" y="252" style="stroke: #000000; stroke-width: 0.8"/>
      </g>
     </g>
     <g id="text_2">
      <!-- $\mathdefault{10^{2}}$ -->
      <g transform="translate(145.348045 266.598437)scale(0.1 -0.1)">
       <defs>
        <path id="DejaVuSans-32" d="M 1228 531 
L 3431 531 
L 3431 0 
L 469 0 
L 469 531 
Q 828 903 1448 1529 
Q 2069 2156 2228 2338 
Q 2531 2678 2651 2914 
Q 2772 3150 2772 3378 
Q 2772 3750 2511 3984 
Q 2250 4219 1831 4219 
Q 1534 4219 1204 4116 
Q 875 4013 500 3803 
L 500 4441 
Q 881 4594 1212 4672 
Q 1544 4750 1819 4750 
Q 2544 4750 2975 4387 
Q 3406 4025 3406 3419 
Q 3406 3131 3298 2873 
Q 3191 2616 2906 2266 
Q 2828 2175 2409 1742 
Q 1991 1309 1228 531 
z
" transform="scale(0.015625)"/>
       </defs>
       <use xlink:href="#DejaVuSans-31" transform="translate(0 0.765625)"/>
       <use xlink:href="#DejaVuSans-30" transform="translate(63.623047 0.765625)"/>
       <use xlink:href="#DejaVuSans-32" transform="translate(128.203125 39.046875)scale(0.7)"/>
      </g>
     </g>
    </g>
    <g id="xtick_3">
     <g id="line2d_3">
      <g>
       <use xlink:href="#mde700a8c9f" x="242.745182" y="252" style="stroke: #000000; stroke-width: 0.8"/>
      </g>
     </g>
     <g id="text_3">
      <!-- $\mathdefault{10^{3}}$ -->
      <g transform="translate(233.945182 266.598437)scale(0.1 -0.1)">
       <defs>
        <path id="DejaVuSans-33" d="M 2597 2516 
Q 3050 2419 3304 2112 
Q 3559 1806 3559 1356 
Q 3559 666 3084 287 
Q 2609 -91 1734 -91 
Q 1441 -91 1130 -33 
Q 819 25 488 141 
L 488 750 
Q 750 597 1062 519 
Q 1375 441 1716 441 
Q 2309 441 2620 675 
Q 2931 909 2931 1356 
Q 2931 1769 2642 2001 
Q 2353 2234 1838 2234 
L 1294 2234 
L 1294 2753 
L 1863 2753 
Q 2328 2753 2575 2939 
Q 2822 3125 2822 3475 
Q 2822 3834 2567 4026 
Q 2313 4219 1838 4219 
Q 1578 4219 1281 4162 
Q 984 4106 628 3988 
L 628 4550 
Q 988 4650 1302 4700 
Q 1616 4750 1894 4750 
Q 2613 4750 3031 4423 
Q 3450 4097 3450 3541 
Q 3450 3153 3228 2886 
Q 3006 2619 2597 2516 
z
" transform="scale(0.015625)"/>
       </defs>
       <use xlink:href="#DejaVuSans-31" transform="translate(0 0.765625)"/>
       <use xlink:href="#DejaVuSans-30" transform="translate(63.623047 0.765625)"/>
       <use xlink:href="#DejaVuSans-33" transform="translate(128.203125 39.046875)scale(0.7)"/>
      </g>
     </g>
    </g>
    <g id="xtick_4">
     <g id="line2d_4">
      <g>
       <use xlink:href="#mde700a8c9f" x="331.342319" y="252" style="stroke: #000000; stroke-width: 0.8"/>
      </g>
     </g>
     <g id="text_4">
      <!-- $\mathdefault{10^{4}}$ -->
      <g transform="translate(322.542319 266.598437)scale(0.1 -0.1)">
       <defs>
        <path id="DejaVuSans-34" d="M 2419 4116 
L 825 1625 
L 2419 1625 
L 2419 4116 
z
M 2253 4666 
L 3047 4666 
L 3047 1625 
L 3713 1625 
L 3713 1100 
L 3047 1100 
L 3047 0 
L 2419 0 
L 2419 1100 
L 313 1100 
L 313 1709 
L 2253 4666 
z
" transform="scale(0.015625)"/>
       </defs>
       <use xlink:href="#DejaVuSans-31" transform="translate(0 0.684375)"/>
       <use xlink:href="#DejaVuSans-30" transform="translate(63.623047 0.684375)"/>
       <use xlink:href="#DejaVuSans-34" transform="translate(128.203125 38.965625)scale(0.7)"/>
      </g>
     </g>
    </g>
    <g id="xtick_5">
     <g id="line2d_5">
      <defs>
       <path id="mb3b06301f7" d="M 0 0 
L 0 2 
" style="stroke: #000000; stroke-width: 0.6"/>
      </defs>
      <g>
       <use xlink:href="#mb3b06301f7" x="56.964959" y="252" style="stroke: #000000; stroke-width: 0.6"/>
      </g>
     </g>
    </g>
    <g id="xtick_6">
     <g id="line2d_6">
      <g>
       <use xlink:href="#mb3b06301f7" x="61.496926" y="252" style="stroke: #000000; stroke-width: 0.6"/>
      </g>
     </g>
    </g>
    <g id="xtick_7">
     <g id="line2d_7">
      <g>
       <use xlink:href="#mb3b06301f7" x="92.221304" y="252" style="stroke: #000000; stroke-width: 0.6"/>
      </g>
     </g>
    </g>
    <g id="xtick_8">
     <g id="line2d_8">
      <g>
       <use xlink:href="#mb3b06301f7" x="107.822486" y="252" style="stroke: #000000; stroke-width: 0.6"/>
      </g>
     </g>
    </g>
    <g id="xtick_9">
     <g id="line2d_9">
      <g>
       <use xlink:href="#mb3b06301f7" x="118.8917" y="252" style="stroke: #000000; stroke-width: 0.6"/>
      </g>
     </g>
    </g>
    <g id="xtick_10">
     <g id="line2d_10">
      <g>
       <use xlink:href="#mb3b06301f7" x="127.47765" y="252" style="stroke: #000000; stroke-width: 0.6"/>
      </g>
     </g>
    </g>
    <g id="xtick_11">
     <g id="line2d_11">
      <g>
       <use xlink:href="#mb3b06301f7" x="134.492881" y="252" style="stroke: #000000; stroke-width: 0.6"/>
      </g>
     </g>
    </g>
    <g id="xtick_12">
     <g id="line2d_12">
      <g>
       <use xlink:href="#mb3b06301f7" x="140.424175" y="252" style="stroke: #000000; stroke-width: 0.6"/>
      </g>
     </g>
    </g>
    <g id="xtick_13">
     <g id="line2d_13">
      <g>
       <use xlink:href="#mb3b06301f7" x="145.562096" y="252" style="stroke: #000000; stroke-width: 0.6"/>
      </g>
     </g>
    </g>
    <g id="xtick_14">
     <g id="line2d_14">
      <g>
       <use xlink:href="#mb3b06301f7" x="150.094063" y="252" style="stroke: #000000; stroke-width: 0.6"/>
      </g>
     </g>
    </g>
    <g id="xtick_15">
     <g id="line2d_15">
      <g>
       <use xlink:href="#mb3b06301f7" x="180.818441" y="252" style="stroke: #000000; stroke-width: 0.6"/>
      </g>
     </g>
    </g>
    <g id="xtick_16">
     <g id="line2d_16">
      <g>
       <use xlink:href="#mb3b06301f7" x="196.419622" y="252" style="stroke: #000000; stroke-width: 0.6"/>
      </g>
     </g>
    </g>
    <g id="xtick_17">
     <g id="line2d_17">
      <g>
       <use xlink:href="#mb3b06301f7" x="207.488837" y="252" style="stroke: #000000; stroke-width: 0.6"/>
      </g>
     </g>
    </g>
    <g id="xtick_18">
     <g id="line2d_18">
      <g>
       <use xlink:href="#mb3b06301f7" x="216.074786" y="252" style="stroke: #000000; stroke-width: 0.6"/>
      </g>
     </g>
    </g>
    <g id="xtick_19">
     <g id="line2d_19">
      <g>
       <use xlink:href="#mb3b06301f7" x="223.090018" y="252" style="stroke: #000000; stroke-width: 0.6"/>
      </g>
     </g>
    </g>
    <g id="xtick_20">
     <g id="line2d_20">
      <g>
       <use xlink:href="#mb3b06301f7" x="229.021312" y="252" style="stroke: #000000; stroke-width: 0.6"/>
      </g>
     </g>
    </g>
    <g id="xtick_21">
     <g id="line2d_21">
      <g>
       <use xlink:href="#mb3b06301f7" x="234.159232" y="252" style="stroke: #000000; stroke-width: 0.6"/>
      </g>
     </g>
    </g>
    <g id="xtick_22">
     <g id="line2d_22">
      <g>
       <use xlink:href="#mb3b06301f7" x="238.691199" y="252" style="stroke: #000000; stroke-width: 0.6"/>
      </g>
     </g>
    </g>
    <g id="xtick_23">
     <g id="line2d_23">
      <g>
       <use xlink:href="#mb3b06301f7" x="269.415578" y="252" style="stroke: #000000; stroke-width: 0.6"/>
      </g>
     </g>
    </g>
    <g id="xtick_24">
     <g id="line2d_24">
      <g>
       <use xlink:href="#mb3b06301f7" x="285.016759" y="252" style="stroke: #000000; stroke-width: 0.6"/>
      </g>
     </g>
    </g>
    <g id="xtick_25">
     <g id="line2d_25">
      <g>
       <use xlink:href="#mb3b06301f7" x="296.085973" y="252" style="stroke: #000000; stroke-width: 0.6"/>
      </g>
     </g>
    </g>
    <g id="xtick_26">
     <g id="line2d_26">
      <g>
       <use xlink:href="#mb3b06301f7" x="304.671923" y="252" style="stroke: #000000; stroke-width: 0.6"/>
      </g>
     </g>
    </g>
    <g id="xtick_27">
     <g id="line2d_27">
      <g>
       <use xlink:href="#mb3b06301f7" x="311.687155" y="252" style="stroke: #000000; stroke-width: 0.6"/>
      </g>
     </g>
    </g>
    <g id="xtick_28">
     <g id="line2d_28">
      <g>
       <use xlink:href="#mb3b06301f7" x="317.618449" y="252" style="stroke: #000000; stroke-width: 0.6"/>
      </g>
     </g>
    </g>
    <g id="xtick_29">
     <g id="line2d_29">
      <g>
       <use xlink:href="#mb3b06301f7" x="322.756369" y="252" style="stroke: #000000; stroke-width: 0.6"/>
      </g>
     </g>
    </g>
    <g id="xtick_30">
     <g id="line2d_30">
      <g>
       <use xlink:href="#mb3b06301f7" x="327.288336" y="252" style="stroke: #000000; stroke-width: 0.6"/>
      </g>
     </g>
    </g>
    <g id="xtick_31">
     <g id="line2d_31">
      <g>
       <use xlink:href="#mb3b06301f7" x="358.012715" y="252" style="stroke: #000000; stroke-width: 0.6"/>
      </g>
     </g>
    </g>
    <g id="xtick_32">
     <g id="line2d_32">
      <g>
       <use xlink:href="#mb3b06301f7" x="373.613896" y="252" style="stroke: #000000; stroke-width: 0.6"/>
      </g>
     </g>
    </g>
    <g id="xtick_33">
     <g id="line2d_33">
      <g>
       <use xlink:href="#mb3b06301f7" x="384.68311" y="252" style="stroke: #000000; stroke-width: 0.6"/>
      </g>
     </g>
    </g>
    <g id="text_5">
     <!-- Resources -->
     <g transform="translate(195.867969 280.276563)scale(0.1 -0.1)">
      <defs>
       <path id="DejaVuSans-52" d="M 2841 2188 
Q 3044 2119 3236 1894 
Q 3428 1669 3622 1275 
L 4263 0 
L 3584 0 
L 2988 1197 
Q 2756 1666 2539 1819 
Q 2322 1972 1947 1972 
L 1259 1972 
L 1259 0 
L 628 0 
L 628 4666 
L 2053 4666 
Q 2853 4666 3247 4331 
Q 3641 3997 3641 3322 
Q 3641 2881 3436 2590 
Q 3231 2300 2841 2188 
z
M 1259 4147 
L 1259 2491 
L 2053 2491 
Q 2509 2491 2742 2702 
Q 2975 2913 2975 3322 
Q 2975 3731 2742 3939 
Q 2509 4147 2053 4147 
L 1259 4147 
z
" transform="scale(0.015625)"/>
       <path id="DejaVuSans-65" d="M 3597 1894 
L 3597 1613 
L 953 1613 
Q 991 1019 1311 708 
Q 1631 397 2203 397 
Q 2534 397 2845 478 
Q 3156 559 3463 722 
L 3463 178 
Q 3153 47 2828 -22 
Q 2503 -91 2169 -91 
Q 1331 -91 842 396 
Q 353 884 353 1716 
Q 353 2575 817 3079 
Q 1281 3584 2069 3584 
Q 2775 3584 3186 3129 
Q 3597 2675 3597 1894 
z
M 3022 2063 
Q 3016 2534 2758 2815 
Q 2500 3097 2075 3097 
Q 1594 3097 1305 2825 
Q 1016 2553 972 2059 
L 3022 2063 
z
" transform="scale(0.015625)"/>
       <path id="DejaVuSans-73" d="M 2834 3397 
L 2834 2853 
Q 2591 2978 2328 3040 
Q 2066 3103 1784 3103 
Q 1356 3103 1142 2972 
Q 928 2841 928 2578 
Q 928 2378 1081 2264 
Q 1234 2150 1697 2047 
L 1894 2003 
Q 2506 1872 2764 1633 
Q 3022 1394 3022 966 
Q 3022 478 2636 193 
Q 2250 -91 1575 -91 
Q 1294 -91 989 -36 
Q 684 19 347 128 
L 347 722 
Q 666 556 975 473 
Q 1284 391 1588 391 
Q 1994 391 2212 530 
Q 2431 669 2431 922 
Q 2431 1156 2273 1281 
Q 2116 1406 1581 1522 
L 1381 1569 
Q 847 1681 609 1914 
Q 372 2147 372 2553 
Q 372 3047 722 3315 
Q 1072 3584 1716 3584 
Q 2034 3584 2315 3537 
Q 2597 3491 2834 3397 
z
" transform="scale(0.015625)"/>
       <path id="DejaVuSans-6f" d="M 1959 3097 
Q 1497 3097 1228 2736 
Q 959 2375 959 1747 
Q 959 1119 1226 758 
Q 1494 397 1959 397 
Q 2419 397 2687 759 
Q 2956 1122 2956 1747 
Q 2956 2369 2687 2733 
Q 2419 3097 1959 3097 
z
M 1959 3584 
Q 2709 3584 3137 3096 
Q 3566 2609 3566 1747 
Q 3566 888 3137 398 
Q 2709 -91 1959 -91 
Q 1206 -91 779 398 
Q 353 888 353 1747 
Q 353 2609 779 3096 
Q 1206 3584 1959 3584 
z
" transform="scale(0.015625)"/>
       <path id="DejaVuSans-75" d="M 544 1381 
L 544 3500 
L 1119 3500 
L 1119 1403 
Q 1119 906 1312 657 
Q 1506 409 1894 409 
Q 2359 409 2629 706 
Q 2900 1003 2900 1516 
L 2900 3500 
L 3475 3500 
L 3475 0 
L 2900 0 
L 2900 538 
Q 2691 219 2414 64 
Q 2138 -91 1772 -91 
Q 1169 -91 856 284 
Q 544 659 544 1381 
z
M 1991 3584 
L 1991 3584 
z
" transform="scale(0.015625)"/>
       <path id="DejaVuSans-72" d="M 2631 2963 
Q 2534 3019 2420 3045 
Q 2306 3072 2169 3072 
Q 1681 3072 1420 2755 
Q 1159 2438 1159 1844 
L 1159 0 
L 581 0 
L 581 3500 
L 1159 3500 
L 1159 2956 
Q 1341 3275 1631 3429 
Q 1922 3584 2338 3584 
Q 2397 3584 2469 3576 
Q 2541 3569 2628 3553 
L 2631 2963 
z
" transform="scale(0.015625)"/>
       <path id="DejaVuSans-63" d="M 3122 3366 
L 3122 2828 
Q 2878 2963 2633 3030 
Q 2388 3097 2138 3097 
Q 1578 3097 1268 2742 
Q 959 2388 959 1747 
Q 959 1106 1268 751 
Q 1578 397 2138 397 
Q 2388 397 2633 464 
Q 2878 531 3122 666 
L 3122 134 
Q 2881 22 2623 -34 
Q 2366 -91 2075 -91 
Q 1284 -91 818 406 
Q 353 903 353 1747 
Q 353 2603 823 3093 
Q 1294 3584 2113 3584 
Q 2378 3584 2631 3529 
Q 2884 3475 3122 3366 
z
" transform="scale(0.015625)"/>
      </defs>
      <use xlink:href="#DejaVuSans-52"/>
      <use xlink:href="#DejaVuSans-65" x="64.982422"/>
      <use xlink:href="#DejaVuSans-73" x="126.505859"/>
      <use xlink:href="#DejaVuSans-6f" x="178.605469"/>
      <use xlink:href="#DejaVuSans-75" x="239.787109"/>
      <use xlink:href="#DejaVuSans-72" x="303.166016"/>
      <use xlink:href="#DejaVuSans-63" x="342.029297"/>
      <use xlink:href="#DejaVuSans-65" x="397.009766"/>
      <use xlink:href="#DejaVuSans-73" x="458.533203"/>
     </g>
    </g>
   </g>
   <g id="matplotlib.axis_2">
    <g id="ytick_1">
     <g id="line2d_34">
      <defs>
       <path id="m723b9fa208" d="M 0 0 
L -3.5 0 
" style="stroke: #000000; stroke-width: 0.8"/>
      </defs>
      <g>
       <use xlink:href="#m723b9fa208" x="54" y="218.57698" style="stroke: #000000; stroke-width: 0.8"/>
      </g>
     </g>
     <g id="text_6">
      <!-- $\mathdefault{10^{-8}}$ -->
      <g transform="translate(23.5 222.376198)scale(0.1 -0.1)">
       <defs>
        <path id="DejaVuSans-2212" d="M 678 2272 
L 4684 2272 
L 4684 1741 
L 678 1741 
L 678 2272 
z
" transform="scale(0.015625)"/>
        <path id="DejaVuSans-38" d="M 2034 2216 
Q 1584 2216 1326 1975 
Q 1069 1734 1069 1313 
Q 1069 891 1326 650 
Q 1584 409 2034 409 
Q 2484 409 2743 651 
Q 3003 894 3003 1313 
Q 3003 1734 2745 1975 
Q 2488 2216 2034 2216 
z
M 1403 2484 
Q 997 2584 770 2862 
Q 544 3141 544 3541 
Q 544 4100 942 4425 
Q 1341 4750 2034 4750 
Q 2731 4750 3128 4425 
Q 3525 4100 3525 3541 
Q 3525 3141 3298 2862 
Q 3072 2584 2669 2484 
Q 3125 2378 3379 2068 
Q 3634 1759 3634 1313 
Q 3634 634 3220 271 
Q 2806 -91 2034 -91 
Q 1263 -91 848 271 
Q 434 634 434 1313 
Q 434 1759 690 2068 
Q 947 2378 1403 2484 
z
M 1172 3481 
Q 1172 3119 1398 2916 
Q 1625 2713 2034 2713 
Q 2441 2713 2670 2916 
Q 2900 3119 2900 3481 
Q 2900 3844 2670 4047 
Q 2441 4250 2034 4250 
Q 1625 4250 1398 4047 
Q 1172 3844 1172 3481 
z
" transform="scale(0.015625)"/>
       </defs>
       <use xlink:href="#DejaVuSans-31" transform="translate(0 0.765625)"/>
       <use xlink:href="#DejaVuSans-30" transform="translate(63.623047 0.765625)"/>
       <use xlink:href="#DejaVuSans-2212" transform="translate(128.203125 39.046875)scale(0.7)"/>
       <use xlink:href="#DejaVuSans-38" transform="translate(186.855469 39.046875)scale(0.7)"/>
      </g>
     </g>
    </g>
    <g id="ytick_2">
     <g id="line2d_35">
      <g>
       <use xlink:href="#m723b9fa208" x="54" y="169.20324" style="stroke: #000000; stroke-width: 0.8"/>
      </g>
     </g>
     <g id="text_7">
      <!-- $\mathdefault{10^{-6}}$ -->
      <g transform="translate(23.5 173.002459)scale(0.1 -0.1)">
       <defs>
        <path id="DejaVuSans-36" d="M 2113 2584 
Q 1688 2584 1439 2293 
Q 1191 2003 1191 1497 
Q 1191 994 1439 701 
Q 1688 409 2113 409 
Q 2538 409 2786 701 
Q 3034 994 3034 1497 
Q 3034 2003 2786 2293 
Q 2538 2584 2113 2584 
z
M 3366 4563 
L 3366 3988 
Q 3128 4100 2886 4159 
Q 2644 4219 2406 4219 
Q 1781 4219 1451 3797 
Q 1122 3375 1075 2522 
Q 1259 2794 1537 2939 
Q 1816 3084 2150 3084 
Q 2853 3084 3261 2657 
Q 3669 2231 3669 1497 
Q 3669 778 3244 343 
Q 2819 -91 2113 -91 
Q 1303 -91 875 529 
Q 447 1150 447 2328 
Q 447 3434 972 4092 
Q 1497 4750 2381 4750 
Q 2619 4750 2861 4703 
Q 3103 4656 3366 4563 
z
" transform="scale(0.015625)"/>
       </defs>
       <use xlink:href="#DejaVuSans-31" transform="translate(0 0.765625)"/>
       <use xlink:href="#DejaVuSans-30" transform="translate(63.623047 0.765625)"/>
       <use xlink:href="#DejaVuSans-2212" transform="translate(128.203125 39.046875)scale(0.7)"/>
       <use xlink:href="#DejaVuSans-36" transform="translate(186.855469 39.046875)scale(0.7)"/>
      </g>
     </g>
    </g>
    <g id="ytick_3">
     <g id="line2d_36">
      <g>
       <use xlink:href="#m723b9fa208" x="54" y="119.829501" style="stroke: #000000; stroke-width: 0.8"/>
      </g>
     </g>
     <g id="text_8">
      <!-- $\mathdefault{10^{-4}}$ -->
      <g transform="translate(23.5 123.62872)scale(0.1 -0.1)">
       <use xlink:href="#DejaVuSans-31" transform="translate(0 0.684375)"/>
       <use xlink:href="#DejaVuSans-30" transform="translate(63.623047 0.684375)"/>
       <use xlink:href="#DejaVuSans-2212" transform="translate(128.203125 38.965625)scale(0.7)"/>
       <use xlink:href="#DejaVuSans-34" transform="translate(186.855469 38.965625)scale(0.7)"/>
      </g>
     </g>
    </g>
    <g id="ytick_4">
     <g id="line2d_37">
      <g>
       <use xlink:href="#m723b9fa208" x="54" y="70.455761" style="stroke: #000000; stroke-width: 0.8"/>
      </g>
     </g>
     <g id="text_9">
      <!-- $\mathdefault{10^{-2}}$ -->
      <g transform="translate(23.5 74.25498)scale(0.1 -0.1)">
       <use xlink:href="#DejaVuSans-31" transform="translate(0 0.765625)"/>
       <use xlink:href="#DejaVuSans-30" transform="translate(63.623047 0.765625)"/>
       <use xlink:href="#DejaVuSans-2212" transform="translate(128.203125 39.046875)scale(0.7)"/>
       <use xlink:href="#DejaVuSans-32" transform="translate(186.855469 39.046875)scale(0.7)"/>
      </g>
     </g>
    </g>
    <g id="text_10">
     <!-- MSE -->
     <g transform="translate(17.420313 153.927656)rotate(-90)scale(0.1 -0.1)">
      <defs>
       <path id="DejaVuSans-4d" d="M 628 4666 
L 1569 4666 
L 2759 1491 
L 3956 4666 
L 4897 4666 
L 4897 0 
L 4281 0 
L 4281 4097 
L 3078 897 
L 2444 897 
L 1241 4097 
L 1241 0 
L 628 0 
L 628 4666 
z
" transform="scale(0.015625)"/>
       <path id="DejaVuSans-53" d="M 3425 4513 
L 3425 3897 
Q 3066 4069 2747 4153 
Q 2428 4238 2131 4238 
Q 1616 4238 1336 4038 
Q 1056 3838 1056 3469 
Q 1056 3159 1242 3001 
Q 1428 2844 1947 2747 
L 2328 2669 
Q 3034 2534 3370 2195 
Q 3706 1856 3706 1288 
Q 3706 609 3251 259 
Q 2797 -91 1919 -91 
Q 1588 -91 1214 -16 
Q 841 59 441 206 
L 441 856 
Q 825 641 1194 531 
Q 1563 422 1919 422 
Q 2459 422 2753 634 
Q 3047 847 3047 1241 
Q 3047 1584 2836 1778 
Q 2625 1972 2144 2069 
L 1759 2144 
Q 1053 2284 737 2584 
Q 422 2884 422 3419 
Q 422 4038 858 4394 
Q 1294 4750 2059 4750 
Q 2388 4750 2728 4690 
Q 3069 4631 3425 4513 
z
" transform="scale(0.015625)"/>
       <path id="DejaVuSans-45" d="M 628 4666 
L 3578 4666 
L 3578 4134 
L 1259 4134 
L 1259 2753 
L 3481 2753 
L 3481 2222 
L 1259 2222 
L 1259 531 
L 3634 531 
L 3634 0 
L 628 0 
L 628 4666 
z
" transform="scale(0.015625)"/>
      </defs>
      <use xlink:href="#DejaVuSans-4d"/>
      <use xlink:href="#DejaVuSans-53" x="86.279297"/>
      <use xlink:href="#DejaVuSans-45" x="149.755859"/>
     </g>
    </g>
   </g>
   <g id="line2d_38">
    <path d="M 69.218182 44.590035 
L 72.56614 45.045351 
L 75.645963 45.311293 
L 78.497434 45.712296 
L 81.15209 45.962885 
L 83.635354 45.978921 
L 85.968023 46.305251 
L 95.888578 47.025233 
L 97.598959 47.056734 
L 100.807254 47.314169 
L 103.768503 47.487875 
L 107.822486 47.722947 
L 116.918075 48.031344 
L 118.8917 48.171665 
L 120.769011 48.212633 
L 123.423667 48.366018 
L 125.096854 48.381437 
L 146.512199 48.860933 
L 150.094063 48.889371 
L 199.499445 49.288867 
L 224.660736 49.254189 
L 232.93763 49.60521 
L 239.745437 50.227973 
L 243.695286 50.957924 
L 245.527882 51.196237 
L 254.998405 53.289096 
L 257.699672 54.071669 
L 258.982365 54.587535 
L 260.223675 54.729273 
L 262.592253 55.24806 
L 263.724018 55.754395 
L 264.823443 55.944615 
L 266.932313 56.866225 
L 267.944931 57.022689 
L 268.931581 57.730505 
L 269.893562 57.836077 
L 270.832078 58.439276 
L 271.748246 58.746292 
L 272.643106 59.219827 
L 273.517627 59.098698 
L 276.027903 60.405432 
L 276.829541 60.452485 
L 277.614818 60.961917 
L 279.878839 61.530512 
L 280.604846 62.083651 
L 281.317408 62.046948 
L 282.017014 62.350707 
L 282.704126 63.067611 
L 283.379182 62.88152 
L 284.694772 63.960475 
L 286.587477 64.804286 
L 288.391428 66.035678 
L 288.974428 65.927183 
L 289.548726 66.150117 
L 290.114578 66.507172 
L 290.672229 67.141263 
L 291.221914 67.037375 
L 291.763856 67.120318 
L 292.29827 67.886418 
L 292.825364 67.93977 
L 293.345335 68.42444 
L 293.858373 68.628825 
L 294.864371 69.281875 
L 295.357676 69.435282 
L 295.844736 69.427876 
L 296.325708 69.655538 
L 296.800742 70.340428 
L 297.269982 69.998305 
L 297.733569 70.484559 
L 298.191637 70.686858 
L 298.644316 70.669164 
L 299.091731 71.473218 
L 299.534003 71.822808 
L 299.971249 71.745286 
L 300.403582 72.052147 
L 300.831111 72.553913 
L 301.672178 72.261156 
L 302.085915 72.664315 
L 302.495252 72.809101 
L 303.301087 73.438701 
L 303.697764 73.315241 
L 304.090392 73.357666 
L 304.479054 73.884973 
L 304.86383 73.63983 
L 305.622027 74.326505 
L 305.995595 74.423004 
L 306.365572 74.777938 
L 308.163901 75.341085 
L 308.513697 75.225266 
L 308.860341 75.376386 
L 309.544399 75.828963 
L 309.881921 75.930709 
L 310.216508 75.822245 
L 310.54821 76.051895 
L 310.877078 76.563689 
L 311.203158 76.257869 
L 311.526498 76.247457 
L 311.847144 76.500507 
L 312.480528 76.644118 
L 312.793353 76.874483 
L 313.103655 76.433624 
L 313.411475 77.027257 
L 314.019823 77.287852 
L 314.320428 77.381979 
L 314.618703 77.143349 
L 314.914683 77.476017 
L 315.208404 77.350449 
L 315.789204 77.850095 
L 316.076349 77.6174 
L 316.361367 77.972105 
L 316.644289 77.896536 
L 316.925146 77.987358 
L 317.203968 78.407275 
L 318.028512 78.258758 
L 318.29948 78.873828 
L 318.568552 78.34888 
L 319.101118 78.596495 
L 319.364662 78.835161 
L 319.626413 78.759483 
L 319.886395 78.946296 
L 320.144633 78.960975 
L 320.401149 79.144978 
L 320.655966 79.061952 
L 320.909107 79.753504 
L 321.160593 79.336375 
L 321.410446 79.419338 
L 321.658687 79.69633 
L 321.905337 79.609812 
L 322.150416 79.778401 
L 322.393943 79.750834 
L 322.635939 79.929821 
L 322.876423 79.912269 
L 323.115413 80.099673 
L 323.352928 80.129508 
L 323.588985 79.956751 
L 323.823603 80.196058 
L 324.288591 80.074667 
L 324.748026 80.429218 
L 324.975703 80.333546 
L 325.20204 80.482012 
L 325.427054 80.771068 
L 325.650759 80.531896 
L 325.873172 80.518598 
L 326.094306 80.777711 
L 326.314177 80.642221 
L 326.532798 80.67053 
L 326.966349 80.993101 
L 327.181306 80.852177 
L 327.395069 80.99888 
L 327.607651 80.960365 
L 327.819065 81.384865 
L 328.029324 81.341626 
L 328.23844 81.182278 
L 328.446426 81.468049 
L 328.653293 81.218475 
L 328.859054 81.235846 
L 329.063721 81.40288 
L 329.267305 81.18677 
L 329.469817 81.476847 
L 329.671269 81.403083 
L 329.871672 81.688711 
L 330.071036 81.527993 
L 330.269373 81.75668 
L 330.466693 81.599358 
L 330.858322 82.217059 
L 331.052652 81.966585 
L 331.246005 82.070739 
L 332.198461 81.870437 
L 332.572938 82.630267 
L 332.758819 82.144675 
L 332.943806 82.326917 
L 333.127908 82.111923 
L 333.311134 82.23152 
L 333.493491 82.730617 
L 333.674987 82.847331 
L 333.855632 82.752516 
L 334.035433 83.016177 
L 334.214397 82.68366 
L 334.922044 82.945874 
L 335.096941 83.071689 
L 335.616912 82.956 
L 335.788686 83.330976 
L 335.959696 83.002131 
L 336.12995 83.328946 
L 336.299453 83.118973 
L 336.468213 83.437551 
L 336.636236 83.034253 
L 336.803529 83.47841 
L 336.970098 83.246772 
L 337.301087 83.574455 
L 337.46552 83.397027 
L 337.954644 83.531286 
L 338.116313 83.43369 
L 338.277306 83.718534 
L 338.597285 83.76633 
L 338.756282 83.514066 
L 339.229369 84.020034 
L 339.385781 83.740296 
L 339.541559 84.135877 
L 339.69671 83.843518 
L 339.851237 84.073008 
L 340.005146 84.087133 
L 340.158442 84.350267 
L 340.31113 84.153502 
L 340.463214 84.159893 
L 340.765591 84.37918 
L 340.915893 84.206977 
L 341.06561 84.432653 
L 341.363308 84.182257 
L 341.511297 84.595793 
L 341.65872 84.292795 
L 341.80558 84.669381 
L 342.242826 84.450621 
L 342.531587 84.826501 
L 342.675159 84.636071 
L 343.102688 85.023771 
L 343.385092 84.682858 
L 343.52552 85.138346 
L 343.665437 85.050496 
L 343.804847 85.095205 
L 343.943755 84.806957 
L 344.082162 85.364976 
L 344.357493 84.972335 
L 344.494422 85.010611 
L 344.902312 85.340706 
L 345.03732 84.993791 
L 345.305923 85.433793 
L 345.439525 85.266946 
L 345.572664 85.623172 
L 345.705345 85.54469 
L 345.837569 85.722261 
L 345.969341 85.424811 
L 346.100662 85.652146 
L 346.49196 85.333057 
L 346.621513 85.64998 
L 346.750631 85.64703 
L 347.007576 85.922537 
L 347.135407 85.958977 
L 347.262815 85.775631 
L 347.768271 86.174599 
L 347.893604 85.910397 
L 348.390894 86.337506 
L 348.514218 86.136872 
L 348.759688 86.127742 
L 349.003602 86.053442 
L 349.366597 86.48878 
L 349.486839 86.66758 
L 349.606706 86.474005 
L 349.845325 86.676934 
L 349.964082 86.537374 
L 350.082474 86.702572 
L 350.31817 86.526743 
L 350.435478 86.835813 
L 350.552431 86.737191 
L 350.669028 86.985341 
L 350.901169 86.376604 
L 351.246776 87.021228 
L 351.361291 86.939253 
L 351.475467 87.246592 
L 351.702808 86.760454 
L 351.928813 87.12551 
L 352.041319 87.011569 
L 352.153498 87.320376 
L 352.265351 87.229821 
L 352.376879 87.374866 
L 352.488085 86.845522 
L 352.709537 87.555495 
L 352.819787 87.428688 
L 352.929722 87.65769 
L 353.039344 87.248492 
L 353.148655 87.539055 
L 353.257655 87.394857 
L 353.366348 87.505529 
L 353.474735 87.383302 
L 353.582817 87.458665 
L 353.690597 87.673834 
L 353.798075 87.306528 
L 353.905254 87.628876 
L 354.012135 87.47757 
L 354.118721 87.903921 
L 354.225011 87.508775 
L 354.331009 87.919589 
L 354.436716 87.701604 
L 354.856663 87.921944 
L 354.960938 87.622111 
L 355.168643 87.8168 
L 355.272076 87.795102 
L 355.580719 88.116692 
L 355.683052 87.974094 
L 355.785114 88.135391 
L 355.886905 87.96301 
L 355.988428 88.20653 
L 356.089684 88.134523 
L 356.391863 88.635004 
L 356.492065 88.110153 
L 356.691688 88.465936 
L 356.89028 88.387401 
L 357.186261 88.6163 
L 357.284417 88.354733 
L 357.479981 88.511503 
L 357.577392 88.454217 
L 357.674557 88.550393 
L 357.868154 88.304645 
L 358.060781 88.590295 
L 358.347926 88.831088 
L 358.443167 88.656784 
L 358.538172 88.881989 
L 358.727483 88.809678 
L 358.82179 89.035371 
L 358.915866 88.894075 
L 359.009713 89.036877 
L 359.103332 88.813811 
L 359.289889 89.127891 
L 359.475545 89.018254 
L 359.568039 88.712531 
L 359.935805 89.140866 
L 360.118378 89.108621 
L 360.390624 89.262669 
L 360.480946 89.085915 
L 360.571057 89.400983 
L 360.660957 89.283194 
L 360.750648 89.428664 
L 360.929404 89.154345 
L 361.107334 89.379137 
L 361.195991 89.173215 
L 361.636239 89.77194 
L 361.723687 89.335654 
L 361.89799 89.625107 
L 362.071507 89.536418 
L 362.157972 89.715296 
L 362.330323 89.433167 
L 362.41621 89.621977 
L 362.501905 89.579174 
L 362.58741 89.525946 
L 362.757852 90.057588 
L 362.842791 89.682074 
L 362.927543 89.742653 
L 363.012108 89.765384 
L 363.096488 89.960965 
L 363.264695 89.754666 
L 363.348524 89.926321 
L 363.43217 89.841443 
L 363.764948 90.372913 
L 363.847695 90.201123 
L 363.930264 90.371679 
L 364.012657 89.970331 
L 364.176914 90.111646 
L 364.25878 90.126429 
L 364.421993 90.223402 
L 364.584516 89.924622 
L 364.665521 90.305669 
L 364.746355 90.216353 
L 364.82702 90.402927 
L 364.907517 90.17034 
L 364.987845 90.255557 
L 365.068006 90.413887 
L 365.227828 90.192444 
L 365.307492 90.44861 
L 365.38699 90.393507 
L 365.545496 90.504389 
L 365.703352 90.349019 
L 365.860562 90.728686 
L 365.938927 90.28109 
L 366.017133 90.741271 
L 366.09518 90.456337 
L 366.173069 90.583711 
L 366.328376 90.717926 
L 366.405795 90.725575 
L 366.483059 90.60409 
L 366.560168 90.699455 
L 366.637122 90.604498 
L 366.867067 91.154516 
L 367.019603 90.667972 
L 367.095645 90.913506 
L 367.24728 90.602483 
L 367.398319 91.252378 
L 367.473617 90.868022 
L 367.548768 90.990023 
L 367.623772 91.007185 
L 367.698631 90.694577 
L 367.773344 91.013078 
L 367.847912 90.908266 
L 367.922336 91.058776 
L 367.996617 90.988694 
L 368.070754 90.997472 
L 368.144749 91.153454 
L 368.218602 90.953336 
L 368.439313 91.197087 
L 368.512603 90.981232 
L 368.658766 91.273987 
L 368.731639 91.204614 
L 368.804375 91.013916 
L 368.949436 91.528732 
L 369.021761 91.297005 
L 369.093951 91.152207 
L 369.381364 91.630958 
L 369.452883 91.275537 
L 369.52427 91.577589 
L 369.595524 91.24091 
L 369.737638 91.611239 
L 369.808498 91.179805 
L 369.949829 91.53581 
L 370.090642 91.372612 
L 370.160856 91.6994 
L 370.230942 91.673904 
L 370.300901 91.638691 
L 370.370733 91.72838 
L 370.440438 91.646437 
L 370.510017 91.608661 
L 370.579471 91.716234 
L 370.648799 91.529814 
L 370.718003 91.638645 
L 370.787082 91.85791 
L 370.856038 91.791864 
L 370.92487 91.778569 
L 371.062166 92.028246 
L 371.198975 91.678596 
L 371.403279 91.818496 
L 371.538882 92.140266 
L 371.606504 91.857187 
L 371.674008 91.968742 
L 371.808662 91.991017 
L 371.942846 92.298532 
L 372.076564 91.864565 
L 372.143249 91.939331 
L 372.209819 91.801484 
L 372.342613 92.213179 
L 372.408839 92.137843 
L 372.474951 92.023633 
L 372.54095 92.508492 
L 372.606836 92.302752 
L 372.73827 91.916453 
L 372.934583 92.664093 
L 373.064904 92.320426 
L 373.129899 92.557558 
L 373.259561 92.152059 
L 373.324229 92.225949 
L 373.388788 92.681677 
L 373.453239 92.186979 
L 373.517582 92.432379 
L 373.581818 92.455549 
L 373.581818 92.455549 
" clip-path="url(#p9a4924e18f)" style="fill: none; stroke: #0000ff; stroke-width: 1.5; stroke-linecap: square"/>
   </g>
   <g id="line2d_39">
    <path d="M 69.218182 46.790747 
L 373.581818 131.599193 
L 373.581818 131.599193 
" clip-path="url(#p9a4924e18f)" style="fill: none; stroke: #008000; stroke-width: 1.5; stroke-linecap: square"/>
   </g>
   <g id="line2d_40">
    <path d="M 69.218182 72.499473 
L 373.581818 242.116364 
L 373.581818 242.116364 
" clip-path="url(#p9a4924e18f)" style="fill: none; stroke: #ff0000; stroke-width: 1.5; stroke-linecap: square"/>
   </g>
   <g id="patch_3">
    <path d="M 54 252 
L 54 34.56 
" style="fill: none; stroke: #000000; stroke-width: 0.8; stroke-linejoin: miter; stroke-linecap: square"/>
   </g>
   <g id="patch_4">
    <path d="M 388.8 252 
L 388.8 34.56 
" style="fill: none; stroke: #000000; stroke-width: 0.8; stroke-linejoin: miter; stroke-linecap: square"/>
   </g>
   <g id="patch_5">
    <path d="M 54 252 
L 388.8 252 
" style="fill: none; stroke: #000000; stroke-width: 0.8; stroke-linejoin: miter; stroke-linecap: square"/>
   </g>
   <g id="patch_6">
    <path d="M 54 34.56 
L 388.8 34.56 
" style="fill: none; stroke: #000000; stroke-width: 0.8; stroke-linejoin: miter; stroke-linecap: square"/>
   </g>
  </g>
 </g>
 <defs>
  <clipPath id="p9a4924e18f">
   <rect x="54" y="34.56" width="334.8" height="217.44"/>
  </clipPath>
 </defs>
</svg>
