<?xml version="1.0" encoding="utf-8" standalone="no"?>
<!DOCTYPE svg PUBLIC "-//W3C//DTD SVG 1.1//EN"
  "http://www.w3.org/Graphics/SVG/1.1/DTD/svg11.dtd">
<svg xmlns:xlink="http://www.w3.org/1999/xlink" width="432pt" height="288pt" viewBox="0 0 432 288" xmlns="http://www.w3.org/2000/svg" version="1.1">
 <metadata>
  <rdf:RDF xmlns:dc="http://purl.org/dc/elements/1.1/" xmlns:cc="http://creativecommons.org/ns#" xmlns:rdf="http://www.w3.org/1999/02/22-rdf-syntax-ns#">
   <cc:Work>
    <dc:type rdf:resource="http://purl.org/dc/dcmitype/StillImage"/>
    <dc:date>2022-01-09T18:27:59.772537</dc:date>
    <dc:format>image/svg+xml</dc:format>
    <dc:creator>
     <cc:Agent>
      <dc:title>Matplotlib v3.5.1, https://matplotlib.org/</dc:title>
     </cc:Agent>
    </dc:creator>
   </cc:Work>
  </rdf:RDF>
 </metadata>
 <defs>
  <style type="text/css">*{stroke-linejoin: round; stroke-linecap: butt}</style>
 </defs>
 <g id="figure_1">
  <g id="patch_1">
   <path d="M 0 288 
L 432 288 
L 432 0 
L 0 0 
L 0 288 
z
" style="fill: none"/>
  </g>
  <g id="axes_1">
   <g id="patch_2">
    <path d="M 54 252 
L 388.8 252 
L 388.8 34.56 
L 54 34.56 
z
" style="fill: #ffffff"/>
   </g>
   <g id="PolyCollection_1">
    <defs>
     <path id="mf9283a8c4d" d="M 69.218182 -235.712589 
L 69.218182 -234.836639 
L 72.56614 -233.365316 
L 75.645963 -232.236636 
L 78.497434 -231.091591 
L 81.15209 -230.488912 
L 83.635354 -229.743424 
L 85.968023 -228.656728 
L 88.167321 -228.298135 
L 90.247679 -227.355877 
L 92.221304 -227.040171 
L 94.098615 -226.302747 
L 95.888578 -226.118828 
L 97.598959 -225.369031 
L 99.236536 -224.739044 
L 100.807254 -224.349163 
L 102.316359 -223.645011 
L 103.768503 -223.403148 
L 105.16783 -222.765683 
L 106.518047 -222.99971 
L 107.822486 -222.353625 
L 109.084148 -221.548806 
L 110.30575 -221.457367 
L 111.489759 -220.966421 
L 112.638419 -220.800704 
L 113.753779 -220.595031 
L 114.837717 -219.900113 
L 115.891954 -219.866893 
L 116.918075 -219.460719 
L 117.91754 -219.00198 
L 118.8917 -218.481104 
L 119.841804 -218.439626 
L 120.769011 -217.981962 
L 121.6744 -217.67353 
L 122.558973 -217.500747 
L 123.423667 -217.215696 
L 124.269355 -216.643012 
L 125.096854 -216.366858 
L 125.906932 -216.239635 
L 126.700305 -216.132757 
L 127.47765 -215.500101 
L 128.2396 -215.473122 
L 128.986755 -215.502405 
L 129.719677 -215.278249 
L 130.438899 -214.580706 
L 131.144923 -214.519316 
L 131.838225 -214.084337 
L 132.519256 -213.67278 
L 133.188443 -213.824784 
L 133.84619 -213.496887 
L 134.492881 -213.390503 
L 135.128883 -213.59489 
L 135.754543 -212.97464 
L 136.370192 -212.686443 
L 136.976146 -213.209128 
L 137.572704 -212.698469 
L 138.160155 -212.518455 
L 138.738771 -212.11504 
L 139.308814 -211.843261 
L 139.870536 -212.069773 
L 140.424175 -211.449128 
L 140.969961 -211.621594 
L 141.508113 -211.17579 
L 142.038842 -211.223107 
L 142.56235 -210.908787 
L 143.078831 -211.098899 
L 143.588471 -210.911167 
L 144.091448 -210.71034 
L 144.587936 -210.692648 
L 145.078099 -210.771632 
L 145.562096 -210.294175 
L 146.04008 -210.174942 
L 146.512199 -210.08812 
L 146.978596 -209.77684 
L 147.439407 -209.575908 
L 147.894764 -209.916122 
L 148.344796 -209.352751 
L 148.789624 -209.513208 
L 149.229369 -209.056064 
L 149.664145 -209.150043 
L 150.094063 -208.881608 
L 150.51923 -209.183318 
L 150.93975 -208.571714 
L 151.355725 -208.907408 
L 151.76725 -208.684542 
L 152.17442 -208.949614 
L 152.577327 -208.531544 
L 152.976059 -208.731995 
L 153.370701 -208.563087 
L 153.761336 -208.431469 
L 162.733995 -206.173491 
L 175.68052 -201.507423 
L 185.350408 -196.842265 
L 193.071664 -192.92823 
L 199.499445 -189.840414 
L 205.005572 -186.707197 
L 209.821505 -184.521377 
L 214.101162 -182.180025 
L 217.952098 -181.277075 
L 221.452441 -178.929192 
L 224.660736 -178.26558 
L 227.621985 -176.909764 
L 230.371529 -176.018547 
L 232.93763 -175.58847 
L 235.343241 -175.21095 
L 237.607262 -173.833353 
L 239.745437 -173.208317 
L 241.771022 -172.402384 
L 243.695286 -171.682004 
L 245.527882 -171.261881 
L 247.277149 -170.856495 
L 248.950336 -169.314237 
L 250.553787 -169.374592 
L 252.093082 -168.850463 
L 253.573159 -168.253998 
L 254.998405 -167.772762 
L 256.372739 -167.272324 
L 257.699672 -166.65153 
L 258.982365 -166.24072 
L 260.223675 -165.489458 
L 261.426186 -164.713964 
L 262.592253 -164.658397 
L 263.724018 -163.902262 
L 264.823443 -163.660848 
L 265.892324 -163.047936 
L 266.932313 -163.060462 
L 267.944931 -162.434786 
L 268.931581 -161.562818 
L 269.893562 -159.97417 
L 270.832078 -159.871123 
L 271.748246 -159.325889 
L 272.643106 -157.909858 
L 273.517627 -157.705602 
L 274.372712 -157.760078 
L 275.209207 -157.367006 
L 276.027903 -156.511952 
L 276.829541 -155.752009 
L 277.614818 -156.306616 
L 278.384389 -154.308629 
L 279.138869 -153.879858 
L 279.878839 -152.922573 
L 280.604846 -153.02778 
L 281.317408 -151.730769 
L 282.017014 -151.372269 
L 282.704126 -150.488251 
L 283.379182 -150.451703 
L 284.0426 -150.071501 
L 284.694772 -150.151519 
L 285.336074 -149.571332 
L 285.966863 -149.727284 
L 286.587477 -148.421813 
L 287.19824 -148.676731 
L 287.799459 -147.845613 
L 288.391428 -147.808593 
L 288.974428 -146.919212 
L 289.548726 -146.599021 
L 290.114578 -146.223429 
L 290.672229 -145.761694 
L 291.221914 -145.594045 
L 291.763856 -145.217828 
L 292.29827 -144.937544 
L 292.825364 -144.817045 
L 293.345335 -144.077032 
L 293.858373 -143.92778 
L 294.364659 -143.325467 
L 294.864371 -143.029674 
L 295.357676 -143.086951 
L 295.844736 -142.918312 
L 296.325708 -142.320064 
L 296.800742 -142.273968 
L 297.269982 -142.30474 
L 297.733569 -141.454376 
L 298.191637 -141.821312 
L 298.644316 -141.554604 
L 299.091731 -141.060959 
L 299.534003 -140.826947 
L 299.971249 -140.456712 
L 300.403582 -140.150125 
L 300.831111 -139.930825 
L 301.253943 -140.026947 
L 301.672178 -139.397902 
L 302.085915 -139.350678 
L 302.495252 -139.216084 
L 302.900279 -138.690021 
L 303.301087 -138.468797 
L 303.697764 -138.506564 
L 304.090392 -138.38296 
L 304.479054 -138.296941 
L 304.86383 -137.860435 
L 305.244796 -137.721111 
L 305.622027 -137.35361 
L 305.995595 -137.243649 
L 306.365572 -137.057149 
L 306.732024 -136.886301 
L 307.09502 -136.642277 
L 307.454623 -136.510282 
L 307.810896 -136.496089 
L 308.163901 -136.308497 
L 308.513697 -135.85659 
L 308.860341 -135.995687 
L 309.20389 -135.820516 
L 309.544399 -135.420973 
L 309.881921 -135.231138 
L 310.216508 -135.426843 
L 310.54821 -135.482704 
L 310.877078 -134.750939 
L 311.203158 -134.347197 
L 311.526498 -134.402062 
L 311.847144 -134.368769 
L 312.165139 -134.082005 
L 312.480528 -134.04766 
L 312.793353 -133.651393 
L 313.103655 -133.846322 
L 313.411475 -133.753004 
L 313.716851 -134.047082 
L 314.019823 -133.317444 
L 314.320428 -133.323819 
L 314.618703 -133.073434 
L 314.914683 -133.20664 
L 315.208404 -132.788831 
L 315.4999 -132.999109 
L 315.789204 -132.575088 
L 316.076349 -132.602632 
L 316.361367 -132.336169 
L 316.644289 -132.594663 
L 316.925146 -132.470737 
L 317.203968 -131.431801 
L 317.480784 -131.543336 
L 317.755623 -131.488173 
L 318.028512 -131.358845 
L 318.29948 -131.217067 
L 318.568552 -131.349194 
L 318.835757 -131.214304 
L 319.101118 -130.689583 
L 319.364662 -130.701449 
L 319.626413 -130.923495 
L 319.886395 -130.441732 
L 320.144633 -130.801096 
L 320.401149 -130.333974 
L 320.655966 -130.61795 
L 320.909107 -130.257624 
L 321.160593 -130.102029 
L 321.410446 -130.096782 
L 321.658687 -129.965831 
L 321.905337 -129.799024 
L 322.150416 -129.653805 
L 322.393943 -129.603571 
L 322.635939 -129.870201 
L 322.876423 -129.606401 
L 323.115413 -129.006565 
L 323.352928 -128.945042 
L 323.588985 -128.755732 
L 323.823603 -128.630628 
L 324.056799 -128.705891 
L 324.288591 -128.580861 
L 324.518994 -128.488624 
L 324.748026 -128.36663 
L 324.975703 -128.446833 
L 325.20204 -128.760215 
L 325.427054 -128.455779 
L 325.650759 -128.237937 
L 325.873172 -128.14379 
L 326.094306 -127.976105 
L 326.314177 -127.775832 
L 326.532798 -127.646811 
L 326.750184 -127.740811 
L 326.966349 -127.116869 
L 327.181306 -127.210421 
L 327.395069 -127.718299 
L 327.607651 -127.540905 
L 327.819065 -127.022925 
L 328.029324 -127.243461 
L 328.23844 -126.760624 
L 328.446426 -127.082036 
L 328.653293 -126.746554 
L 328.859054 -126.949036 
L 329.063721 -126.44665 
L 329.267305 -126.614354 
L 329.469817 -126.801172 
L 329.671269 -126.264809 
L 329.871672 -126.25614 
L 330.071036 -126.570919 
L 330.269373 -126.440526 
L 330.466693 -125.949125 
L 330.663006 -126.083349 
L 330.858322 -126.076417 
L 331.052652 -125.912332 
L 331.246005 -126.004943 
L 331.438392 -125.930163 
L 331.629821 -125.875704 
L 331.820303 -125.573354 
L 332.009847 -125.801893 
L 332.198461 -125.310752 
L 332.386155 -125.345883 
L 332.572938 -125.574394 
L 332.758819 -125.682453 
L 332.943806 -125.218758 
L 333.127908 -125.228084 
L 333.311134 -125.07402 
L 333.493491 -124.994246 
L 333.674987 -124.86494 
L 333.855632 -125.124621 
L 334.035433 -125.094244 
L 334.214397 -124.919991 
L 334.392533 -124.879581 
L 334.569847 -124.451622 
L 334.746349 -124.540402 
L 334.922044 -124.544591 
L 335.096941 -124.667491 
L 335.271047 -124.214584 
L 335.444368 -124.331728 
L 335.616912 -124.333991 
L 335.788686 -124.112047 
L 335.959696 -124.199682 
L 336.12995 -124.01132 
L 336.299453 -123.910578 
L 336.468213 -123.859772 
L 336.636236 -123.852842 
L 336.803529 -123.784183 
L 336.970098 -123.486514 
L 337.135948 -123.446669 
L 337.301087 -123.462993 
L 337.46552 -123.615729 
L 337.629253 -123.690306 
L 337.792292 -123.393128 
L 337.954644 -123.209011 
L 338.116313 -123.087599 
L 338.277306 -123.041307 
L 338.437628 -123.246993 
L 338.597285 -123.384463 
L 338.756282 -123.06327 
L 338.914625 -123.140182 
L 339.072319 -122.816062 
L 339.229369 -123.089883 
L 339.385781 -122.672511 
L 339.541559 -122.634334 
L 339.69671 -122.75835 
L 339.851237 -122.72776 
L 340.005146 -122.696315 
L 340.158442 -122.744135 
L 340.31113 -122.468859 
L 340.463214 -122.422347 
L 340.614699 -122.624085 
L 340.765591 -122.094879 
L 340.915893 -122.321118 
L 341.06561 -122.450907 
L 341.214747 -122.092258 
L 341.363308 -121.977886 
L 341.511297 -122.27127 
L 341.65872 -121.872624 
L 341.80558 -121.805728 
L 341.951881 -121.983658 
L 342.097629 -121.66666 
L 342.242826 -121.838952 
L 342.387477 -121.598838 
L 342.531587 -121.735982 
L 342.675159 -121.668551 
L 342.818197 -121.558052 
L 342.960706 -121.622782 
L 343.102688 -121.392764 
L 343.244149 -121.068031 
L 343.385092 -121.278752 
L 343.52552 -121.249029 
L 343.665437 -121.224094 
L 343.804847 -121.153793 
L 343.943755 -121.328684 
L 344.082162 -120.714193 
L 344.220074 -120.70934 
L 344.357493 -121.212196 
L 344.494422 -120.78391 
L 344.630867 -121.029223 
L 344.766829 -120.574948 
L 344.902312 -120.727745 
L 345.03732 -120.697806 
L 345.171856 -120.674336 
L 345.305923 -120.464396 
L 345.439525 -120.542123 
L 345.572664 -120.341331 
L 345.705345 -120.246573 
L 345.837569 -119.971035 
L 345.969341 -120.042225 
L 346.100662 -119.837614 
L 346.231538 -120.154202 
L 346.361969 -119.948097 
L 346.49196 -119.906778 
L 346.621513 -120.200416 
L 346.750631 -119.984609 
L 346.879318 -119.91559 
L 347.007576 -119.903369 
L 347.135407 -119.902071 
L 347.262815 -120.062455 
L 347.389803 -119.765385 
L 347.516373 -119.459791 
L 347.642528 -119.264511 
L 347.768271 -119.443718 
L 347.893604 -119.839665 
L 348.01853 -119.585254 
L 348.143052 -119.23751 
L 348.267172 -119.479799 
L 348.390894 -119.255667 
L 348.514218 -119.495273 
L 348.637149 -119.521292 
L 348.759688 -119.155454 
L 348.881838 -118.895165 
L 349.003602 -118.958923 
L 349.124981 -119.077072 
L 349.245979 -118.917755 
L 349.366597 -119.142157 
L 349.486839 -119.305958 
L 349.606706 -118.793838 
L 349.7262 -118.766204 
L 349.845325 -119.08689 
L 349.964082 -118.621324 
L 350.082474 -118.737611 
L 350.200502 -118.423119 
L 350.31817 -118.355481 
L 350.435478 -118.389268 
L 350.552431 -118.569016 
L 350.669028 -118.4668 
L 350.785274 -118.543639 
L 350.901169 -118.633463 
L 351.016717 -118.496855 
L 351.131918 -118.058582 
L 351.246776 -118.276894 
L 351.361291 -118.227143 
L 351.475467 -118.143538 
L 351.589305 -118.192927 
L 351.702808 -118.199698 
L 351.815976 -118.004829 
L 351.928813 -118.245653 
L 352.041319 -118.144567 
L 352.153498 -117.764608 
L 352.265351 -117.929368 
L 352.376879 -118.127386 
L 352.488085 -118.172724 
L 352.59897 -117.621641 
L 352.709537 -117.839524 
L 352.819787 -117.641841 
L 352.929722 -117.490156 
L 353.039344 -117.852144 
L 353.148655 -117.36988 
L 353.257655 -118.125381 
L 353.366348 -117.641717 
L 353.474735 -117.580344 
L 353.582817 -117.240635 
L 353.690597 -117.632296 
L 353.798075 -117.550413 
L 353.905254 -117.512768 
L 354.012135 -117.362476 
L 354.118721 -117.247985 
L 354.225011 -117.469432 
L 354.331009 -117.349273 
L 354.436716 -116.9623 
L 354.542133 -117.115362 
L 354.647263 -117.131219 
L 354.752105 -116.932922 
L 354.856663 -117.342259 
L 354.960938 -117.219633 
L 355.06493 -116.923248 
L 355.168643 -116.810216 
L 355.272076 -116.860274 
L 355.375232 -117.215544 
L 355.478113 -117.000715 
L 355.580719 -116.684836 
L 355.683052 -116.614107 
L 355.785114 -116.546566 
L 355.886905 -116.522763 
L 355.988428 -116.371495 
L 356.089684 -116.505003 
L 356.190675 -116.514967 
L 356.2914 -116.247864 
L 356.391863 -116.180687 
L 356.492065 -116.334795 
L 356.592006 -116.265499 
L 356.691688 -116.221321 
L 356.791112 -116.320442 
L 356.89028 -115.986762 
L 356.989194 -115.930641 
L 357.087853 -115.813319 
L 357.186261 -116.371366 
L 357.284417 -116.101369 
L 357.382323 -115.928592 
L 357.479981 -115.990598 
L 357.577392 -116.147733 
L 357.674557 -115.52169 
L 357.771477 -115.879 
L 357.868154 -115.837053 
L 357.964588 -115.743158 
L 358.060781 -115.987843 
L 358.156734 -115.916221 
L 358.252449 -115.896337 
L 358.347926 -115.832767 
L 358.443167 -115.435063 
L 358.538172 -115.98219 
L 358.632944 -115.501754 
L 358.727483 -115.272228 
L 358.82179 -115.503977 
L 358.915866 -115.373577 
L 359.009713 -115.53017 
L 359.103332 -115.457599 
L 359.196723 -115.693092 
L 359.289889 -115.390023 
L 359.382829 -115.430064 
L 359.475545 -115.17047 
L 359.568039 -115.105624 
L 359.66031 -115.27355 
L 359.752361 -115.206296 
L 359.844192 -115.272447 
L 359.935805 -115.393574 
L 360.0272 -115.246104 
L 360.118378 -115.128786 
L 360.209341 -115.074577 
L 360.300089 -114.788754 
L 360.390624 -114.926484 
L 360.480946 -114.481143 
L 360.571057 -114.794735 
L 360.660957 -114.970945 
L 360.750648 -114.784528 
L 360.84013 -115.033528 
L 360.929404 -115.17537 
L 361.018472 -114.739077 
L 361.107334 -114.516037 
L 361.195991 -114.859288 
L 361.284445 -114.640856 
L 361.372695 -114.868245 
L 361.460744 -114.951098 
L 361.548591 -114.748761 
L 361.636239 -114.687648 
L 361.723687 -114.544979 
L 361.810937 -114.221958 
L 361.89799 -114.520194 
L 361.984846 -114.714606 
L 362.071507 -114.350664 
L 362.157972 -114.36455 
L 362.244244 -113.934332 
L 362.330323 -114.381403 
L 362.41621 -114.152903 
L 362.501905 -114.291923 
L 362.58741 -114.217854 
L 362.672726 -114.208619 
L 362.757852 -114.328508 
L 362.842791 -114.071074 
L 362.927543 -114.132593 
L 363.012108 -113.997408 
L 363.096488 -114.122601 
L 363.180684 -114.041847 
L 363.264695 -114.169807 
L 363.348524 -114.113362 
L 363.43217 -113.953602 
L 363.515635 -113.782568 
L 363.598919 -113.832229 
L 363.682023 -113.492046 
L 363.764948 -113.888345 
L 363.847695 -113.371162 
L 363.930264 -113.639785 
L 364.012657 -113.658726 
L 364.094873 -113.653586 
L 364.176914 -113.59145 
L 364.25878 -113.578321 
L 364.340473 -113.231704 
L 364.421993 -113.427837 
L 364.50334 -113.048082 
L 364.584516 -113.453645 
L 364.665521 -113.298484 
L 364.746355 -113.630039 
L 364.82702 -113.341193 
L 364.907517 -113.043457 
L 364.987845 -113.248329 
L 365.068006 -113.342364 
L 365.148 -112.945531 
L 365.227828 -113.250768 
L 365.307492 -113.159301 
L 365.38699 -113.013119 
L 365.466325 -112.889332 
L 365.545496 -113.107486 
L 365.624505 -113.000989 
L 365.703352 -112.773928 
L 365.782037 -112.914372 
L 365.860562 -112.872869 
L 365.938927 -112.719029 
L 366.017133 -112.873445 
L 366.09518 -113.066031 
L 366.173069 -112.628267 
L 366.250801 -112.588759 
L 366.328376 -112.640071 
L 366.405795 -112.587918 
L 366.483059 -112.415939 
L 366.560168 -112.804632 
L 366.637122 -112.564927 
L 366.713923 -112.433017 
L 366.790571 -112.597597 
L 366.867067 -112.843687 
L 366.94341 -112.796961 
L 367.019603 -112.523813 
L 367.095645 -112.323077 
L 367.171537 -112.438926 
L 367.24728 -112.245608 
L 367.322874 -112.632079 
L 367.398319 -112.390864 
L 367.473617 -112.533988 
L 367.548768 -112.152025 
L 367.623772 -112.49527 
L 367.698631 -112.291267 
L 367.773344 -111.86595 
L 367.847912 -111.820184 
L 367.922336 -112.408582 
L 367.996617 -111.786269 
L 368.070754 -112.225288 
L 368.144749 -112.067226 
L 368.218602 -112.074656 
L 368.292313 -111.985087 
L 368.365883 -111.886725 
L 368.439313 -111.611398 
L 368.512603 -111.653615 
L 368.585754 -112.022071 
L 368.658766 -111.94468 
L 368.731639 -111.725288 
L 368.804375 -111.885282 
L 368.876974 -111.193272 
L 368.949436 -111.476929 
L 369.021761 -111.785544 
L 369.093951 -111.551896 
L 369.166006 -111.619932 
L 369.237926 -111.820946 
L 369.309712 -111.671828 
L 369.381364 -111.302833 
L 369.452883 -111.64782 
L 369.52427 -111.370246 
L 369.595524 -111.700795 
L 369.666646 -111.549517 
L 369.737638 -111.636749 
L 369.808498 -111.804432 
L 369.879228 -111.139405 
L 369.949829 -111.283169 
L 370.0203 -111.492439 
L 370.090642 -111.198971 
L 370.160856 -111.348748 
L 370.230942 -111.527117 
L 370.300901 -111.171025 
L 370.370733 -110.935427 
L 370.440438 -111.449794 
L 370.510017 -111.220934 
L 370.579471 -110.990686 
L 370.648799 -111.172349 
L 370.718003 -110.807078 
L 370.787082 -111.284721 
L 370.856038 -111.173508 
L 370.92487 -111.034006 
L 370.993579 -111.259978 
L 371.062166 -110.991098 
L 371.130631 -110.759544 
L 371.198975 -110.941387 
L 371.267197 -110.895503 
L 371.335298 -110.82114 
L 371.403279 -110.927232 
L 371.47114 -111.023292 
L 371.538882 -110.763921 
L 371.606504 -110.551849 
L 371.674008 -110.437908 
L 371.741394 -110.604735 
L 371.808662 -110.764062 
L 371.875813 -110.759252 
L 371.942846 -110.495043 
L 372.009763 -110.738778 
L 372.076564 -110.431205 
L 372.143249 -110.629347 
L 372.209819 -110.378989 
L 372.276273 -110.412733 
L 372.342613 -110.712235 
L 372.408839 -110.321853 
L 372.474951 -110.19492 
L 372.54095 -110.312101 
L 372.606836 -110.034224 
L 372.672609 -110.235691 
L 372.73827 -110.624615 
L 372.803819 -110.46274 
L 372.869256 -110.089485 
L 372.934583 -110.187087 
L 372.999798 -110.231473 
L 373.064904 -110.325914 
L 373.129899 -110.250755 
L 373.194785 -109.855862 
L 373.259561 -110.118236 
L 373.324229 -110.183021 
L 373.388788 -109.797376 
L 373.453239 -110.046793 
L 373.517582 -109.851023 
L 373.581818 -109.742374 
L 373.581818 -110.63223 
L 373.581818 -110.63223 
L 373.517582 -110.642115 
L 373.453239 -110.74422 
L 373.388788 -110.678412 
L 373.324229 -110.928942 
L 373.259561 -110.884296 
L 373.194785 -110.804297 
L 373.129899 -111.043417 
L 373.064904 -111.108534 
L 372.999798 -111.037073 
L 372.934583 -110.777227 
L 372.869256 -110.784385 
L 372.803819 -111.229039 
L 372.73827 -111.476819 
L 372.672609 -111.051951 
L 372.606836 -110.868196 
L 372.54095 -111.110738 
L 372.474951 -110.973426 
L 372.408839 -111.238024 
L 372.342613 -111.394493 
L 372.276273 -111.229947 
L 372.209819 -111.054937 
L 372.143249 -111.320174 
L 372.076564 -111.228235 
L 372.009763 -111.576011 
L 371.942846 -111.35527 
L 371.875813 -111.47334 
L 371.808662 -111.460556 
L 371.741394 -111.473302 
L 371.674008 -111.155662 
L 371.606504 -111.541835 
L 371.538882 -111.508666 
L 371.47114 -111.862275 
L 371.403279 -111.66255 
L 371.335298 -111.618793 
L 371.267197 -111.635165 
L 371.198975 -111.797351 
L 371.130631 -111.653909 
L 371.062166 -111.870405 
L 370.993579 -112.061822 
L 370.92487 -111.815701 
L 370.856038 -111.824403 
L 370.787082 -112.109532 
L 370.718003 -111.538944 
L 370.648799 -111.854893 
L 370.579471 -111.760228 
L 370.510017 -111.995425 
L 370.440438 -112.174606 
L 370.370733 -111.857561 
L 370.300901 -112.004711 
L 370.230942 -112.100994 
L 370.160856 -112.02408 
L 370.090642 -112.072346 
L 370.0203 -112.174243 
L 369.949829 -111.953324 
L 369.879228 -112.200025 
L 369.808498 -112.480291 
L 369.737638 -112.2952 
L 369.666646 -112.323825 
L 369.595524 -112.427414 
L 369.52427 -112.085202 
L 369.452883 -112.397062 
L 369.381364 -112.241668 
L 369.309712 -112.308463 
L 369.237926 -112.653208 
L 369.166006 -112.391937 
L 369.093951 -112.302181 
L 369.021761 -112.622079 
L 368.949436 -112.260944 
L 368.876974 -112.16557 
L 368.804375 -112.830431 
L 368.731639 -112.493814 
L 368.658766 -112.570732 
L 368.585754 -112.80227 
L 368.512603 -112.395588 
L 368.439313 -112.398965 
L 368.365883 -112.616299 
L 368.292313 -112.724663 
L 368.218602 -112.847018 
L 368.144749 -112.898424 
L 368.070754 -113.141785 
L 367.996617 -112.439259 
L 367.922336 -113.165463 
L 367.847912 -112.713977 
L 367.773344 -112.682977 
L 367.698631 -113.020342 
L 367.623772 -113.2314 
L 367.548768 -112.931684 
L 367.473617 -113.279298 
L 367.398319 -113.164185 
L 367.322874 -113.325278 
L 367.24728 -113.109584 
L 367.171537 -113.17299 
L 367.095645 -113.120574 
L 367.019603 -113.466331 
L 366.94341 -113.525528 
L 366.867067 -113.575496 
L 366.790571 -113.287078 
L 366.713923 -113.445276 
L 366.637122 -113.43776 
L 366.560168 -113.682025 
L 366.483059 -113.357815 
L 366.405795 -113.468992 
L 366.328376 -113.371511 
L 366.250801 -113.396013 
L 366.173069 -113.364164 
L 366.09518 -113.82328 
L 366.017133 -113.682399 
L 365.938927 -113.609126 
L 365.860562 -113.68601 
L 365.782037 -113.723254 
L 365.703352 -113.659792 
L 365.624505 -113.743952 
L 365.545496 -113.87123 
L 365.466325 -113.940971 
L 365.38699 -113.972595 
L 365.307492 -113.902351 
L 365.227828 -114.032378 
L 365.148 -113.848592 
L 365.068006 -114.118017 
L 364.987845 -114.096681 
L 364.907517 -113.895824 
L 364.82702 -114.181342 
L 364.746355 -114.389182 
L 364.665521 -114.07103 
L 364.584516 -114.409523 
L 364.50334 -114.077991 
L 364.421993 -114.235254 
L 364.340473 -114.001086 
L 364.25878 -114.368044 
L 364.176914 -114.276286 
L 364.094873 -114.425602 
L 364.012657 -114.327286 
L 363.930264 -114.409313 
L 363.847695 -114.199148 
L 363.764948 -114.814436 
L 363.682023 -114.411783 
L 363.598919 -114.744523 
L 363.515635 -114.578761 
L 363.43217 -114.611663 
L 363.348524 -114.81353 
L 363.264695 -114.832418 
L 363.180684 -114.956951 
L 363.096488 -114.975436 
L 363.012108 -114.616951 
L 362.927543 -114.878406 
L 362.842791 -114.964456 
L 362.757852 -114.944933 
L 362.672726 -115.026006 
L 362.58741 -114.981163 
L 362.501905 -115.086261 
L 362.41621 -114.954854 
L 362.330323 -115.193191 
L 362.244244 -114.803821 
L 362.157972 -115.139825 
L 362.071507 -115.324418 
L 361.984846 -115.496167 
L 361.89799 -115.258286 
L 361.810937 -115.090906 
L 361.723687 -115.305875 
L 361.636239 -115.479709 
L 361.548591 -115.514148 
L 361.460744 -115.690245 
L 361.372695 -115.419927 
L 361.284445 -115.463002 
L 361.195991 -115.532818 
L 361.107334 -115.447104 
L 361.018472 -115.401721 
L 360.929404 -115.720212 
L 360.84013 -115.832296 
L 360.750648 -115.526939 
L 360.660957 -115.794164 
L 360.571057 -115.688124 
L 360.480946 -115.368921 
L 360.390624 -115.605464 
L 360.300089 -115.692749 
L 360.209341 -115.887343 
L 360.118378 -115.859722 
L 360.0272 -115.913924 
L 359.935805 -116.169323 
L 359.844192 -116.0162 
L 359.752361 -115.946634 
L 359.66031 -116.080694 
L 359.568039 -115.861869 
L 359.475545 -115.914593 
L 359.382829 -116.238987 
L 359.289889 -116.223394 
L 359.196723 -116.504952 
L 359.103332 -116.155578 
L 359.009713 -116.22069 
L 358.915866 -116.273366 
L 358.82179 -116.187732 
L 358.727483 -116.199515 
L 358.632944 -116.367326 
L 358.538172 -116.658196 
L 358.443167 -116.450906 
L 358.347926 -116.686895 
L 358.252449 -116.671349 
L 358.156734 -116.72728 
L 358.060781 -116.612245 
L 357.964588 -116.412274 
L 357.868154 -116.709692 
L 357.771477 -116.693891 
L 357.674557 -116.430538 
L 357.577392 -116.87037 
L 357.479981 -116.755991 
L 357.382323 -116.638733 
L 357.284417 -116.920367 
L 357.186261 -117.088191 
L 357.087853 -116.537686 
L 356.989194 -116.646101 
L 356.89028 -116.704163 
L 356.791112 -117.119028 
L 356.691688 -117.041355 
L 356.592006 -117.023074 
L 356.492065 -117.104561 
L 356.391863 -117.045619 
L 356.2914 -117.04696 
L 356.190675 -117.298278 
L 356.089684 -117.310523 
L 355.988428 -117.33011 
L 355.886905 -117.357186 
L 355.785114 -117.401514 
L 355.683052 -117.623671 
L 355.580719 -117.644568 
L 355.478113 -117.597364 
L 355.375232 -117.836059 
L 355.272076 -117.50575 
L 355.168643 -117.698474 
L 355.06493 -117.658708 
L 354.960938 -118.058194 
L 354.856663 -117.994855 
L 354.752105 -117.720823 
L 354.647263 -117.928412 
L 354.542133 -117.799443 
L 354.436716 -117.754611 
L 354.331009 -118.066201 
L 354.225011 -118.189905 
L 354.118721 -118.017377 
L 354.012135 -118.149769 
L 353.905254 -118.29191 
L 353.798075 -118.337732 
L 353.690597 -118.358371 
L 353.582817 -118.0103 
L 353.474735 -118.395818 
L 353.366348 -118.301108 
L 353.257655 -118.82354 
L 353.148655 -118.39403 
L 353.039344 -118.607901 
L 352.929722 -118.220522 
L 352.819787 -118.529288 
L 352.709537 -118.78438 
L 352.59897 -118.408316 
L 352.488085 -118.971809 
L 352.376879 -118.775256 
L 352.265351 -118.678087 
L 352.153498 -118.606301 
L 352.041319 -119.057976 
L 351.928813 -118.996177 
L 351.815976 -118.910759 
L 351.702808 -118.940882 
L 351.589305 -118.968854 
L 351.475467 -119.004394 
L 351.361291 -119.120002 
L 351.246776 -119.064397 
L 351.131918 -118.875739 
L 351.016717 -119.255586 
L 350.901169 -119.440686 
L 350.785274 -119.348274 
L 350.669028 -119.389932 
L 350.552431 -119.17753 
L 350.435478 -119.252333 
L 350.31817 -119.066872 
L 350.200502 -119.28692 
L 350.082474 -119.490444 
L 349.964082 -119.462521 
L 349.845325 -119.796997 
L 349.7262 -119.532152 
L 349.606706 -119.653651 
L 349.486839 -119.844714 
L 349.366597 -119.890377 
L 349.245979 -119.75641 
L 349.124981 -119.795819 
L 349.003602 -119.828716 
L 348.881838 -119.72334 
L 348.759688 -119.934977 
L 348.637149 -120.283556 
L 348.514218 -120.235988 
L 348.390894 -119.961079 
L 348.267172 -120.127059 
L 348.143052 -120.025742 
L 348.01853 -120.28023 
L 347.893604 -120.630908 
L 347.768271 -120.155288 
L 347.642528 -120.055845 
L 347.516373 -120.199805 
L 347.389803 -120.559608 
L 347.262815 -120.773237 
L 347.135407 -120.626598 
L 347.007576 -120.602764 
L 346.879318 -120.761794 
L 346.750631 -120.812919 
L 346.621513 -120.933905 
L 346.49196 -120.7909 
L 346.361969 -120.768704 
L 346.231538 -121.0305 
L 346.100662 -120.705637 
L 345.969341 -120.827584 
L 345.837569 -120.869442 
L 345.705345 -121.004897 
L 345.572664 -121.009136 
L 345.439525 -121.389699 
L 345.305923 -121.293983 
L 345.171856 -121.384174 
L 345.03732 -121.44105 
L 344.902312 -121.59703 
L 344.766829 -121.208864 
L 344.630867 -121.888633 
L 344.494422 -121.612348 
L 344.357493 -121.994017 
L 344.220074 -121.468349 
L 344.082162 -121.599775 
L 343.943755 -121.992475 
L 343.804847 -121.893415 
L 343.665437 -122.013258 
L 343.52552 -122.094844 
L 343.385092 -121.982606 
L 343.244149 -121.769583 
L 343.102688 -122.354721 
L 342.960706 -122.415433 
L 342.818197 -122.272055 
L 342.675159 -122.278985 
L 342.531587 -122.409626 
L 342.387477 -122.533629 
L 342.242826 -122.605391 
L 342.097629 -122.460941 
L 341.951881 -122.589024 
L 341.80558 -122.585998 
L 341.65872 -122.796972 
L 341.511297 -123.169618 
L 341.363308 -122.766318 
L 341.214747 -122.885094 
L 341.06561 -123.284674 
L 340.915893 -123.112038 
L 340.765591 -123.152993 
L 340.614699 -123.321897 
L 340.463214 -123.101496 
L 340.31113 -123.245233 
L 340.158442 -123.46878 
L 340.005146 -123.437584 
L 339.851237 -123.533479 
L 339.69671 -123.434922 
L 339.541559 -123.356807 
L 339.385781 -123.501349 
L 339.229369 -123.750482 
L 339.072319 -123.620183 
L 338.914625 -123.806306 
L 338.756282 -123.821394 
L 338.597285 -124.23816 
L 338.437628 -124.117472 
L 338.277306 -123.851817 
L 338.116313 -123.912905 
L 337.954644 -123.937406 
L 337.792292 -124.172021 
L 337.629253 -124.478524 
L 337.46552 -124.386641 
L 337.301087 -124.325705 
L 337.135948 -124.128425 
L 336.970098 -124.377127 
L 336.803529 -124.568611 
L 336.636236 -124.655059 
L 336.468213 -124.6374 
L 336.299453 -124.66324 
L 336.12995 -124.60948 
L 335.959696 -124.981805 
L 335.788686 -124.932791 
L 335.616912 -124.960242 
L 335.444368 -125.198684 
L 335.271047 -124.949497 
L 335.096941 -125.392409 
L 334.922044 -125.263256 
L 334.746349 -125.175271 
L 334.569847 -125.364041 
L 334.392533 -125.523751 
L 334.214397 -125.741579 
L 334.035433 -125.829037 
L 333.855632 -125.916801 
L 333.674987 -125.516643 
L 333.493491 -125.885191 
L 333.311134 -125.819405 
L 333.127908 -126.10494 
L 332.943806 -126.083899 
L 332.758819 -126.32907 
L 332.572938 -126.187943 
L 332.386155 -126.154048 
L 332.198461 -126.268107 
L 332.009847 -126.591166 
L 331.820303 -126.390558 
L 331.629821 -126.671923 
L 331.438392 -126.603713 
L 331.246005 -126.927877 
L 331.052652 -126.608058 
L 330.858322 -126.98942 
L 330.663006 -126.960575 
L 330.466693 -126.805486 
L 330.269373 -127.040852 
L 330.071036 -127.431419 
L 329.871672 -127.149387 
L 329.671269 -127.25029 
L 329.469817 -127.481875 
L 329.267305 -127.230583 
L 329.063721 -127.3546 
L 328.859054 -127.883031 
L 328.653293 -127.474805 
L 328.446426 -127.65439 
L 328.23844 -127.555369 
L 328.029324 -127.942411 
L 327.819065 -127.857001 
L 327.607651 -128.193496 
L 327.395069 -128.484836 
L 327.181306 -127.88249 
L 326.966349 -128.153719 
L 326.750184 -128.649946 
L 326.532798 -128.396488 
L 326.314177 -128.533326 
L 326.094306 -128.697627 
L 325.873172 -128.914666 
L 325.650759 -129.080927 
L 325.427054 -129.087977 
L 325.20204 -129.538725 
L 324.975703 -129.346989 
L 324.748026 -129.143696 
L 324.518994 -129.535824 
L 324.288591 -129.488953 
L 324.056799 -129.621229 
L 323.823603 -129.429376 
L 323.588985 -129.559722 
L 323.352928 -129.776241 
L 323.115413 -129.779114 
L 322.876423 -130.345453 
L 322.635939 -130.791826 
L 322.393943 -130.401538 
L 322.150416 -130.462849 
L 321.905337 -130.656737 
L 321.658687 -130.816132 
L 321.410446 -130.940897 
L 321.160593 -130.867288 
L 320.909107 -131.169169 
L 320.655966 -131.525538 
L 320.401149 -131.162285 
L 320.144633 -131.777042 
L 319.886395 -131.259559 
L 319.626413 -131.509729 
L 319.364662 -131.685251 
L 319.101118 -131.53281 
L 318.835757 -132.003361 
L 318.568552 -132.164652 
L 318.29948 -131.982007 
L 318.028512 -132.333914 
L 317.755623 -132.308192 
L 317.480784 -132.355465 
L 317.203968 -132.617957 
L 316.925146 -133.129069 
L 316.644289 -133.434887 
L 316.361367 -133.054203 
L 316.076349 -133.45814 
L 315.789204 -133.212049 
L 315.4999 -133.825812 
L 315.208404 -133.548513 
L 314.914683 -134.082749 
L 314.618703 -133.762747 
L 314.320428 -134.184462 
L 314.019823 -134.139912 
L 313.716851 -134.726693 
L 313.411475 -134.419648 
L 313.103655 -134.658711 
L 312.793353 -134.578974 
L 312.480528 -134.90581 
L 312.165139 -134.902001 
L 311.847144 -135.238135 
L 311.526498 -135.246969 
L 311.203158 -135.069402 
L 310.877078 -135.663931 
L 310.54821 -136.247969 
L 310.216508 -136.207424 
L 309.881921 -136.07148 
L 309.544399 -136.184316 
L 309.20389 -136.633029 
L 308.860341 -136.848073 
L 308.513697 -136.834728 
L 308.163901 -136.862184 
L 307.810896 -137.258569 
L 307.454623 -137.378141 
L 307.09502 -137.500132 
L 306.732024 -137.710716 
L 306.365572 -137.862143 
L 305.995595 -138.118785 
L 305.622027 -138.161596 
L 305.244796 -138.48629 
L 304.86383 -138.713933 
L 304.479054 -139.135115 
L 304.090392 -139.077537 
L 303.697764 -139.458394 
L 303.301087 -139.325858 
L 302.900279 -139.451757 
L 302.495252 -140.275726 
L 302.085915 -140.057352 
L 301.672178 -140.156751 
L 301.253943 -140.812102 
L 300.831111 -140.803107 
L 300.403582 -141.294236 
L 299.971249 -141.427702 
L 299.534003 -141.689159 
L 299.091731 -142.205963 
L 298.644316 -142.366903 
L 298.191637 -142.702797 
L 297.733569 -142.321435 
L 297.269982 -143.23499 
L 296.800742 -143.187959 
L 296.325708 -143.268447 
L 295.844736 -143.840723 
L 295.357676 -144.087831 
L 294.864371 -144.118237 
L 294.364659 -144.305895 
L 293.858373 -145.072519 
L 293.345335 -145.319017 
L 292.825364 -145.928413 
L 292.29827 -145.701817 
L 291.763856 -146.29712 
L 291.221914 -146.919459 
L 290.672229 -146.903883 
L 290.114578 -147.275081 
L 289.548726 -147.684249 
L 288.974428 -148.050296 
L 288.391428 -148.751902 
L 287.799459 -149.246743 
L 287.19824 -149.897794 
L 286.587477 -149.880219 
L 285.966863 -151.025727 
L 285.336074 -151.140694 
L 284.694772 -151.479413 
L 284.0426 -151.223872 
L 283.379182 -152.10085 
L 282.704126 -152.111417 
L 282.017014 -152.661494 
L 281.317408 -153.299097 
L 280.604846 -154.338837 
L 279.878839 -154.620698 
L 279.138869 -155.650526 
L 278.384389 -156.159972 
L 277.614818 -157.709554 
L 276.829541 -157.521141 
L 276.027903 -158.279227 
L 275.209207 -158.65755 
L 274.372712 -159.448311 
L 273.517627 -159.324255 
L 272.643106 -159.4106 
L 271.748246 -160.809415 
L 270.832078 -161.542497 
L 269.893562 -161.725876 
L 268.931581 -162.818758 
L 267.944931 -164.003011 
L 266.932313 -164.654521 
L 265.892324 -164.429859 
L 264.823443 -165.026504 
L 263.724018 -165.445427 
L 262.592253 -165.730711 
L 261.426186 -166.376574 
L 260.223675 -166.699286 
L 258.982365 -167.548444 
L 257.699672 -168.152216 
L 256.372739 -168.61787 
L 254.998405 -168.990082 
L 253.573159 -169.336697 
L 252.093082 -169.797515 
L 250.553787 -170.405902 
L 248.950336 -170.477202 
L 247.277149 -171.679274 
L 245.527882 -172.534556 
L 243.695286 -172.760965 
L 241.771022 -173.436545 
L 239.745437 -174.191362 
L 237.607262 -174.895173 
L 235.343241 -176.121912 
L 232.93763 -176.485791 
L 230.371529 -177.184018 
L 227.621985 -178.08834 
L 224.660736 -179.515204 
L 221.452441 -180.43767 
L 217.952098 -182.67633 
L 214.101162 -183.612355 
L 209.821505 -186.361451 
L 205.005572 -188.253548 
L 199.499445 -191.72868 
L 193.071664 -194.471041 
L 185.350408 -198.189003 
L 175.68052 -202.691251 
L 162.733995 -207.112392 
L 153.761336 -209.267271 
L 153.370701 -209.353293 
L 152.976059 -209.636775 
L 152.577327 -209.459163 
L 152.17442 -209.699447 
L 151.76725 -209.55019 
L 151.355725 -209.654272 
L 150.93975 -209.4386 
L 150.51923 -210.028581 
L 150.094063 -209.69239 
L 149.664145 -210.030568 
L 149.229369 -209.697888 
L 148.789624 -210.582029 
L 148.344796 -210.2414 
L 147.894764 -210.69434 
L 147.439407 -210.386291 
L 146.978596 -210.615936 
L 146.512199 -210.911177 
L 146.04008 -211.033213 
L 145.562096 -211.233755 
L 145.078099 -211.687137 
L 144.587936 -211.479548 
L 144.091448 -211.54601 
L 143.588471 -211.663791 
L 143.078831 -211.727677 
L 142.56235 -211.662318 
L 142.038842 -211.991768 
L 141.508113 -211.977958 
L 140.969961 -212.354971 
L 140.424175 -212.213202 
L 139.870536 -212.840254 
L 139.308814 -212.609341 
L 138.738771 -212.866764 
L 138.160155 -213.192537 
L 137.572704 -213.338486 
L 136.976146 -213.878117 
L 136.370192 -213.615102 
L 135.754543 -213.810281 
L 135.128883 -214.32203 
L 134.492881 -214.154512 
L 133.84619 -214.394893 
L 133.188443 -214.563092 
L 132.519256 -214.537395 
L 131.838225 -214.831473 
L 131.144923 -215.249243 
L 130.438899 -215.302783 
L 129.719677 -216.135151 
L 128.986755 -216.24538 
L 128.2396 -216.377044 
L 127.47765 -216.422182 
L 126.700305 -216.996026 
L 125.906932 -217.28968 
L 125.096854 -217.305776 
L 124.269355 -217.539762 
L 123.423667 -218.189321 
L 122.558973 -218.334708 
L 121.6744 -218.609938 
L 120.769011 -218.829906 
L 119.841804 -219.166442 
L 118.8917 -219.206458 
L 117.91754 -219.948688 
L 116.918075 -220.281526 
L 115.891954 -220.603554 
L 114.837717 -220.664811 
L 113.753779 -221.341418 
L 112.638419 -221.576137 
L 111.489759 -221.886318 
L 110.30575 -222.333952 
L 109.084148 -222.389187 
L 107.822486 -223.004356 
L 106.518047 -223.930411 
L 105.16783 -223.5037 
L 103.768503 -224.420619 
L 102.316359 -224.485241 
L 100.807254 -225.044272 
L 99.236536 -225.691054 
L 97.598959 -226.293987 
L 95.888578 -227.150822 
L 94.098615 -227.093509 
L 92.221304 -227.840564 
L 90.247679 -228.420393 
L 88.167321 -229.160915 
L 85.968023 -229.523591 
L 83.635354 -230.629104 
L 81.15209 -231.456407 
L 78.497434 -232.110495 
L 75.645963 -233.368401 
L 72.56614 -234.509831 
L 69.218182 -235.712589 
z
" style="stroke: #ff0000; stroke-opacity: 0.2"/>
    </defs>
    <g clip-path="url(#pc7776d09e3)">
     <use xlink:href="#mf9283a8c4d" x="0" y="288" style="fill: #ff0000; fill-opacity: 0.2; stroke: #ff0000; stroke-opacity: 0.2"/>
    </g>
   </g>
   <g id="matplotlib.axis_1">
    <g id="xtick_1">
     <g id="line2d_1">
      <defs>
       <path id="m8de0953b5d" d="M 0 0 
L 0 3.5 
" style="stroke: #000000; stroke-width: 0.8"/>
      </defs>
      <g>
       <use xlink:href="#m8de0953b5d" x="65.550908" y="252" style="stroke: #000000; stroke-width: 0.8"/>
      </g>
     </g>
     <g id="text_1">
      <!-- $\mathdefault{10^{1}}$ -->
      <g transform="translate(56.750908 266.598437)scale(0.1 -0.1)">
       <defs>
        <path id="DejaVuSans-31" d="M 794 531 
L 1825 531 
L 1825 4091 
L 703 3866 
L 703 4441 
L 1819 4666 
L 2450 4666 
L 2450 531 
L 3481 531 
L 3481 0 
L 794 0 
L 794 531 
z
" transform="scale(0.015625)"/>
        <path id="DejaVuSans-30" d="M 2034 4250 
Q 1547 4250 1301 3770 
Q 1056 3291 1056 2328 
Q 1056 1369 1301 889 
Q 1547 409 2034 409 
Q 2525 409 2770 889 
Q 3016 1369 3016 2328 
Q 3016 3291 2770 3770 
Q 2525 4250 2034 4250 
z
M 2034 4750 
Q 2819 4750 3233 4129 
Q 3647 3509 3647 2328 
Q 3647 1150 3233 529 
Q 2819 -91 2034 -91 
Q 1250 -91 836 529 
Q 422 1150 422 2328 
Q 422 3509 836 4129 
Q 1250 4750 2034 4750 
z
" transform="scale(0.015625)"/>
       </defs>
       <use xlink:href="#DejaVuSans-31" transform="translate(0 0.684375)"/>
       <use xlink:href="#DejaVuSans-30" transform="translate(63.623047 0.684375)"/>
       <use xlink:href="#DejaVuSans-31" transform="translate(128.203125 38.965625)scale(0.7)"/>
      </g>
     </g>
    </g>
    <g id="xtick_2">
     <g id="line2d_2">
      <g>
       <use xlink:href="#m8de0953b5d" x="154.148045" y="252" style="stroke: #000000; stroke-width: 0.8"/>
      </g>
     </g>
     <g id="text_2">
      <!-- $\mathdefault{10^{2}}$ -->
      <g transform="translate(145.348045 266.598437)scale(0.1 -0.1)">
       <defs>
        <path id="DejaVuSans-32" d="M 1228 531 
L 3431 531 
L 3431 0 
L 469 0 
L 469 531 
Q 828 903 1448 1529 
Q 2069 2156 2228 2338 
Q 2531 2678 2651 2914 
Q 2772 3150 2772 3378 
Q 2772 3750 2511 3984 
Q 2250 4219 1831 4219 
Q 1534 4219 1204 4116 
Q 875 4013 500 3803 
L 500 4441 
Q 881 4594 1212 4672 
Q 1544 4750 1819 4750 
Q 2544 4750 2975 4387 
Q 3406 4025 3406 3419 
Q 3406 3131 3298 2873 
Q 3191 2616 2906 2266 
Q 2828 2175 2409 1742 
Q 1991 1309 1228 531 
z
" transform="scale(0.015625)"/>
       </defs>
       <use xlink:href="#DejaVuSans-31" transform="translate(0 0.765625)"/>
       <use xlink:href="#DejaVuSans-30" transform="translate(63.623047 0.765625)"/>
       <use xlink:href="#DejaVuSans-32" transform="translate(128.203125 39.046875)scale(0.7)"/>
      </g>
     </g>
    </g>
    <g id="xtick_3">
     <g id="line2d_3">
      <g>
       <use xlink:href="#m8de0953b5d" x="242.745182" y="252" style="stroke: #000000; stroke-width: 0.8"/>
      </g>
     </g>
     <g id="text_3">
      <!-- $\mathdefault{10^{3}}$ -->
      <g transform="translate(233.945182 266.598437)scale(0.1 -0.1)">
       <defs>
        <path id="DejaVuSans-33" d="M 2597 2516 
Q 3050 2419 3304 2112 
Q 3559 1806 3559 1356 
Q 3559 666 3084 287 
Q 2609 -91 1734 -91 
Q 1441 -91 1130 -33 
Q 819 25 488 141 
L 488 750 
Q 750 597 1062 519 
Q 1375 441 1716 441 
Q 2309 441 2620 675 
Q 2931 909 2931 1356 
Q 2931 1769 2642 2001 
Q 2353 2234 1838 2234 
L 1294 2234 
L 1294 2753 
L 1863 2753 
Q 2328 2753 2575 2939 
Q 2822 3125 2822 3475 
Q 2822 3834 2567 4026 
Q 2313 4219 1838 4219 
Q 1578 4219 1281 4162 
Q 984 4106 628 3988 
L 628 4550 
Q 988 4650 1302 4700 
Q 1616 4750 1894 4750 
Q 2613 4750 3031 4423 
Q 3450 4097 3450 3541 
Q 3450 3153 3228 2886 
Q 3006 2619 2597 2516 
z
" transform="scale(0.015625)"/>
       </defs>
       <use xlink:href="#DejaVuSans-31" transform="translate(0 0.765625)"/>
       <use xlink:href="#DejaVuSans-30" transform="translate(63.623047 0.765625)"/>
       <use xlink:href="#DejaVuSans-33" transform="translate(128.203125 39.046875)scale(0.7)"/>
      </g>
     </g>
    </g>
    <g id="xtick_4">
     <g id="line2d_4">
      <g>
       <use xlink:href="#m8de0953b5d" x="331.342319" y="252" style="stroke: #000000; stroke-width: 0.8"/>
      </g>
     </g>
     <g id="text_4">
      <!-- $\mathdefault{10^{4}}$ -->
      <g transform="translate(322.542319 266.598437)scale(0.1 -0.1)">
       <defs>
        <path id="DejaVuSans-34" d="M 2419 4116 
L 825 1625 
L 2419 1625 
L 2419 4116 
z
M 2253 4666 
L 3047 4666 
L 3047 1625 
L 3713 1625 
L 3713 1100 
L 3047 1100 
L 3047 0 
L 2419 0 
L 2419 1100 
L 313 1100 
L 313 1709 
L 2253 4666 
z
" transform="scale(0.015625)"/>
       </defs>
       <use xlink:href="#DejaVuSans-31" transform="translate(0 0.684375)"/>
       <use xlink:href="#DejaVuSans-30" transform="translate(63.623047 0.684375)"/>
       <use xlink:href="#DejaVuSans-34" transform="translate(128.203125 38.965625)scale(0.7)"/>
      </g>
     </g>
    </g>
    <g id="xtick_5">
     <g id="line2d_5">
      <defs>
       <path id="mc51b1dbe9b" d="M 0 0 
L 0 2 
" style="stroke: #000000; stroke-width: 0.6"/>
      </defs>
      <g>
       <use xlink:href="#mc51b1dbe9b" x="56.964959" y="252" style="stroke: #000000; stroke-width: 0.6"/>
      </g>
     </g>
    </g>
    <g id="xtick_6">
     <g id="line2d_6">
      <g>
       <use xlink:href="#mc51b1dbe9b" x="61.496926" y="252" style="stroke: #000000; stroke-width: 0.6"/>
      </g>
     </g>
    </g>
    <g id="xtick_7">
     <g id="line2d_7">
      <g>
       <use xlink:href="#mc51b1dbe9b" x="92.221304" y="252" style="stroke: #000000; stroke-width: 0.6"/>
      </g>
     </g>
    </g>
    <g id="xtick_8">
     <g id="line2d_8">
      <g>
       <use xlink:href="#mc51b1dbe9b" x="107.822486" y="252" style="stroke: #000000; stroke-width: 0.6"/>
      </g>
     </g>
    </g>
    <g id="xtick_9">
     <g id="line2d_9">
      <g>
       <use xlink:href="#mc51b1dbe9b" x="118.8917" y="252" style="stroke: #000000; stroke-width: 0.6"/>
      </g>
     </g>
    </g>
    <g id="xtick_10">
     <g id="line2d_10">
      <g>
       <use xlink:href="#mc51b1dbe9b" x="127.47765" y="252" style="stroke: #000000; stroke-width: 0.6"/>
      </g>
     </g>
    </g>
    <g id="xtick_11">
     <g id="line2d_11">
      <g>
       <use xlink:href="#mc51b1dbe9b" x="134.492881" y="252" style="stroke: #000000; stroke-width: 0.6"/>
      </g>
     </g>
    </g>
    <g id="xtick_12">
     <g id="line2d_12">
      <g>
       <use xlink:href="#mc51b1dbe9b" x="140.424175" y="252" style="stroke: #000000; stroke-width: 0.6"/>
      </g>
     </g>
    </g>
    <g id="xtick_13">
     <g id="line2d_13">
      <g>
       <use xlink:href="#mc51b1dbe9b" x="145.562096" y="252" style="stroke: #000000; stroke-width: 0.6"/>
      </g>
     </g>
    </g>
    <g id="xtick_14">
     <g id="line2d_14">
      <g>
       <use xlink:href="#mc51b1dbe9b" x="150.094063" y="252" style="stroke: #000000; stroke-width: 0.6"/>
      </g>
     </g>
    </g>
    <g id="xtick_15">
     <g id="line2d_15">
      <g>
       <use xlink:href="#mc51b1dbe9b" x="180.818441" y="252" style="stroke: #000000; stroke-width: 0.6"/>
      </g>
     </g>
    </g>
    <g id="xtick_16">
     <g id="line2d_16">
      <g>
       <use xlink:href="#mc51b1dbe9b" x="196.419622" y="252" style="stroke: #000000; stroke-width: 0.6"/>
      </g>
     </g>
    </g>
    <g id="xtick_17">
     <g id="line2d_17">
      <g>
       <use xlink:href="#mc51b1dbe9b" x="207.488837" y="252" style="stroke: #000000; stroke-width: 0.6"/>
      </g>
     </g>
    </g>
    <g id="xtick_18">
     <g id="line2d_18">
      <g>
       <use xlink:href="#mc51b1dbe9b" x="216.074786" y="252" style="stroke: #000000; stroke-width: 0.6"/>
      </g>
     </g>
    </g>
    <g id="xtick_19">
     <g id="line2d_19">
      <g>
       <use xlink:href="#mc51b1dbe9b" x="223.090018" y="252" style="stroke: #000000; stroke-width: 0.6"/>
      </g>
     </g>
    </g>
    <g id="xtick_20">
     <g id="line2d_20">
      <g>
       <use xlink:href="#mc51b1dbe9b" x="229.021312" y="252" style="stroke: #000000; stroke-width: 0.6"/>
      </g>
     </g>
    </g>
    <g id="xtick_21">
     <g id="line2d_21">
      <g>
       <use xlink:href="#mc51b1dbe9b" x="234.159232" y="252" style="stroke: #000000; stroke-width: 0.6"/>
      </g>
     </g>
    </g>
    <g id="xtick_22">
     <g id="line2d_22">
      <g>
       <use xlink:href="#mc51b1dbe9b" x="238.691199" y="252" style="stroke: #000000; stroke-width: 0.6"/>
      </g>
     </g>
    </g>
    <g id="xtick_23">
     <g id="line2d_23">
      <g>
       <use xlink:href="#mc51b1dbe9b" x="269.415578" y="252" style="stroke: #000000; stroke-width: 0.6"/>
      </g>
     </g>
    </g>
    <g id="xtick_24">
     <g id="line2d_24">
      <g>
       <use xlink:href="#mc51b1dbe9b" x="285.016759" y="252" style="stroke: #000000; stroke-width: 0.6"/>
      </g>
     </g>
    </g>
    <g id="xtick_25">
     <g id="line2d_25">
      <g>
       <use xlink:href="#mc51b1dbe9b" x="296.085973" y="252" style="stroke: #000000; stroke-width: 0.6"/>
      </g>
     </g>
    </g>
    <g id="xtick_26">
     <g id="line2d_26">
      <g>
       <use xlink:href="#mc51b1dbe9b" x="304.671923" y="252" style="stroke: #000000; stroke-width: 0.6"/>
      </g>
     </g>
    </g>
    <g id="xtick_27">
     <g id="line2d_27">
      <g>
       <use xlink:href="#mc51b1dbe9b" x="311.687155" y="252" style="stroke: #000000; stroke-width: 0.6"/>
      </g>
     </g>
    </g>
    <g id="xtick_28">
     <g id="line2d_28">
      <g>
       <use xlink:href="#mc51b1dbe9b" x="317.618449" y="252" style="stroke: #000000; stroke-width: 0.6"/>
      </g>
     </g>
    </g>
    <g id="xtick_29">
     <g id="line2d_29">
      <g>
       <use xlink:href="#mc51b1dbe9b" x="322.756369" y="252" style="stroke: #000000; stroke-width: 0.6"/>
      </g>
     </g>
    </g>
    <g id="xtick_30">
     <g id="line2d_30">
      <g>
       <use xlink:href="#mc51b1dbe9b" x="327.288336" y="252" style="stroke: #000000; stroke-width: 0.6"/>
      </g>
     </g>
    </g>
    <g id="xtick_31">
     <g id="line2d_31">
      <g>
       <use xlink:href="#mc51b1dbe9b" x="358.012715" y="252" style="stroke: #000000; stroke-width: 0.6"/>
      </g>
     </g>
    </g>
    <g id="xtick_32">
     <g id="line2d_32">
      <g>
       <use xlink:href="#mc51b1dbe9b" x="373.613896" y="252" style="stroke: #000000; stroke-width: 0.6"/>
      </g>
     </g>
    </g>
    <g id="xtick_33">
     <g id="line2d_33">
      <g>
       <use xlink:href="#mc51b1dbe9b" x="384.68311" y="252" style="stroke: #000000; stroke-width: 0.6"/>
      </g>
     </g>
    </g>
    <g id="text_5">
     <!-- Resources -->
     <g transform="translate(195.867969 280.276563)scale(0.1 -0.1)">
      <defs>
       <path id="DejaVuSans-52" d="M 2841 2188 
Q 3044 2119 3236 1894 
Q 3428 1669 3622 1275 
L 4263 0 
L 3584 0 
L 2988 1197 
Q 2756 1666 2539 1819 
Q 2322 1972 1947 1972 
L 1259 1972 
L 1259 0 
L 628 0 
L 628 4666 
L 2053 4666 
Q 2853 4666 3247 4331 
Q 3641 3997 3641 3322 
Q 3641 2881 3436 2590 
Q 3231 2300 2841 2188 
z
M 1259 4147 
L 1259 2491 
L 2053 2491 
Q 2509 2491 2742 2702 
Q 2975 2913 2975 3322 
Q 2975 3731 2742 3939 
Q 2509 4147 2053 4147 
L 1259 4147 
z
" transform="scale(0.015625)"/>
       <path id="DejaVuSans-65" d="M 3597 1894 
L 3597 1613 
L 953 1613 
Q 991 1019 1311 708 
Q 1631 397 2203 397 
Q 2534 397 2845 478 
Q 3156 559 3463 722 
L 3463 178 
Q 3153 47 2828 -22 
Q 2503 -91 2169 -91 
Q 1331 -91 842 396 
Q 353 884 353 1716 
Q 353 2575 817 3079 
Q 1281 3584 2069 3584 
Q 2775 3584 3186 3129 
Q 3597 2675 3597 1894 
z
M 3022 2063 
Q 3016 2534 2758 2815 
Q 2500 3097 2075 3097 
Q 1594 3097 1305 2825 
Q 1016 2553 972 2059 
L 3022 2063 
z
" transform="scale(0.015625)"/>
       <path id="DejaVuSans-73" d="M 2834 3397 
L 2834 2853 
Q 2591 2978 2328 3040 
Q 2066 3103 1784 3103 
Q 1356 3103 1142 2972 
Q 928 2841 928 2578 
Q 928 2378 1081 2264 
Q 1234 2150 1697 2047 
L 1894 2003 
Q 2506 1872 2764 1633 
Q 3022 1394 3022 966 
Q 3022 478 2636 193 
Q 2250 -91 1575 -91 
Q 1294 -91 989 -36 
Q 684 19 347 128 
L 347 722 
Q 666 556 975 473 
Q 1284 391 1588 391 
Q 1994 391 2212 530 
Q 2431 669 2431 922 
Q 2431 1156 2273 1281 
Q 2116 1406 1581 1522 
L 1381 1569 
Q 847 1681 609 1914 
Q 372 2147 372 2553 
Q 372 3047 722 3315 
Q 1072 3584 1716 3584 
Q 2034 3584 2315 3537 
Q 2597 3491 2834 3397 
z
" transform="scale(0.015625)"/>
       <path id="DejaVuSans-6f" d="M 1959 3097 
Q 1497 3097 1228 2736 
Q 959 2375 959 1747 
Q 959 1119 1226 758 
Q 1494 397 1959 397 
Q 2419 397 2687 759 
Q 2956 1122 2956 1747 
Q 2956 2369 2687 2733 
Q 2419 3097 1959 3097 
z
M 1959 3584 
Q 2709 3584 3137 3096 
Q 3566 2609 3566 1747 
Q 3566 888 3137 398 
Q 2709 -91 1959 -91 
Q 1206 -91 779 398 
Q 353 888 353 1747 
Q 353 2609 779 3096 
Q 1206 3584 1959 3584 
z
" transform="scale(0.015625)"/>
       <path id="DejaVuSans-75" d="M 544 1381 
L 544 3500 
L 1119 3500 
L 1119 1403 
Q 1119 906 1312 657 
Q 1506 409 1894 409 
Q 2359 409 2629 706 
Q 2900 1003 2900 1516 
L 2900 3500 
L 3475 3500 
L 3475 0 
L 2900 0 
L 2900 538 
Q 2691 219 2414 64 
Q 2138 -91 1772 -91 
Q 1169 -91 856 284 
Q 544 659 544 1381 
z
M 1991 3584 
L 1991 3584 
z
" transform="scale(0.015625)"/>
       <path id="DejaVuSans-72" d="M 2631 2963 
Q 2534 3019 2420 3045 
Q 2306 3072 2169 3072 
Q 1681 3072 1420 2755 
Q 1159 2438 1159 1844 
L 1159 0 
L 581 0 
L 581 3500 
L 1159 3500 
L 1159 2956 
Q 1341 3275 1631 3429 
Q 1922 3584 2338 3584 
Q 2397 3584 2469 3576 
Q 2541 3569 2628 3553 
L 2631 2963 
z
" transform="scale(0.015625)"/>
       <path id="DejaVuSans-63" d="M 3122 3366 
L 3122 2828 
Q 2878 2963 2633 3030 
Q 2388 3097 2138 3097 
Q 1578 3097 1268 2742 
Q 959 2388 959 1747 
Q 959 1106 1268 751 
Q 1578 397 2138 397 
Q 2388 397 2633 464 
Q 2878 531 3122 666 
L 3122 134 
Q 2881 22 2623 -34 
Q 2366 -91 2075 -91 
Q 1284 -91 818 406 
Q 353 903 353 1747 
Q 353 2603 823 3093 
Q 1294 3584 2113 3584 
Q 2378 3584 2631 3529 
Q 2884 3475 3122 3366 
z
" transform="scale(0.015625)"/>
      </defs>
      <use xlink:href="#DejaVuSans-52"/>
      <use xlink:href="#DejaVuSans-65" x="64.982422"/>
      <use xlink:href="#DejaVuSans-73" x="126.505859"/>
      <use xlink:href="#DejaVuSans-6f" x="178.605469"/>
      <use xlink:href="#DejaVuSans-75" x="239.787109"/>
      <use xlink:href="#DejaVuSans-72" x="303.166016"/>
      <use xlink:href="#DejaVuSans-63" x="342.029297"/>
      <use xlink:href="#DejaVuSans-65" x="397.009766"/>
      <use xlink:href="#DejaVuSans-73" x="458.533203"/>
     </g>
    </g>
   </g>
   <g id="matplotlib.axis_2">
    <g id="ytick_1">
     <g id="line2d_34">
      <defs>
       <path id="m41437ac884" d="M 0 0 
L -3.5 0 
" style="stroke: #000000; stroke-width: 0.8"/>
      </defs>
      <g>
       <use xlink:href="#m41437ac884" x="54" y="218.294121" style="stroke: #000000; stroke-width: 0.8"/>
      </g>
     </g>
     <g id="text_6">
      <!-- $\mathdefault{10^{-8}}$ -->
      <g transform="translate(23.5 222.09334)scale(0.1 -0.1)">
       <defs>
        <path id="DejaVuSans-2212" d="M 678 2272 
L 4684 2272 
L 4684 1741 
L 678 1741 
L 678 2272 
z
" transform="scale(0.015625)"/>
        <path id="DejaVuSans-38" d="M 2034 2216 
Q 1584 2216 1326 1975 
Q 1069 1734 1069 1313 
Q 1069 891 1326 650 
Q 1584 409 2034 409 
Q 2484 409 2743 651 
Q 3003 894 3003 1313 
Q 3003 1734 2745 1975 
Q 2488 2216 2034 2216 
z
M 1403 2484 
Q 997 2584 770 2862 
Q 544 3141 544 3541 
Q 544 4100 942 4425 
Q 1341 4750 2034 4750 
Q 2731 4750 3128 4425 
Q 3525 4100 3525 3541 
Q 3525 3141 3298 2862 
Q 3072 2584 2669 2484 
Q 3125 2378 3379 2068 
Q 3634 1759 3634 1313 
Q 3634 634 3220 271 
Q 2806 -91 2034 -91 
Q 1263 -91 848 271 
Q 434 634 434 1313 
Q 434 1759 690 2068 
Q 947 2378 1403 2484 
z
M 1172 3481 
Q 1172 3119 1398 2916 
Q 1625 2713 2034 2713 
Q 2441 2713 2670 2916 
Q 2900 3119 2900 3481 
Q 2900 3844 2670 4047 
Q 2441 4250 2034 4250 
Q 1625 4250 1398 4047 
Q 1172 3844 1172 3481 
z
" transform="scale(0.015625)"/>
       </defs>
       <use xlink:href="#DejaVuSans-31" transform="translate(0 0.765625)"/>
       <use xlink:href="#DejaVuSans-30" transform="translate(63.623047 0.765625)"/>
       <use xlink:href="#DejaVuSans-2212" transform="translate(128.203125 39.046875)scale(0.7)"/>
       <use xlink:href="#DejaVuSans-38" transform="translate(186.855469 39.046875)scale(0.7)"/>
      </g>
     </g>
    </g>
    <g id="ytick_2">
     <g id="line2d_35">
      <g>
       <use xlink:href="#m41437ac884" x="54" y="168.327087" style="stroke: #000000; stroke-width: 0.8"/>
      </g>
     </g>
     <g id="text_7">
      <!-- $\mathdefault{10^{-6}}$ -->
      <g transform="translate(23.5 172.126306)scale(0.1 -0.1)">
       <defs>
        <path id="DejaVuSans-36" d="M 2113 2584 
Q 1688 2584 1439 2293 
Q 1191 2003 1191 1497 
Q 1191 994 1439 701 
Q 1688 409 2113 409 
Q 2538 409 2786 701 
Q 3034 994 3034 1497 
Q 3034 2003 2786 2293 
Q 2538 2584 2113 2584 
z
M 3366 4563 
L 3366 3988 
Q 3128 4100 2886 4159 
Q 2644 4219 2406 4219 
Q 1781 4219 1451 3797 
Q 1122 3375 1075 2522 
Q 1259 2794 1537 2939 
Q 1816 3084 2150 3084 
Q 2853 3084 3261 2657 
Q 3669 2231 3669 1497 
Q 3669 778 3244 343 
Q 2819 -91 2113 -91 
Q 1303 -91 875 529 
Q 447 1150 447 2328 
Q 447 3434 972 4092 
Q 1497 4750 2381 4750 
Q 2619 4750 2861 4703 
Q 3103 4656 3366 4563 
z
" transform="scale(0.015625)"/>
       </defs>
       <use xlink:href="#DejaVuSans-31" transform="translate(0 0.765625)"/>
       <use xlink:href="#DejaVuSans-30" transform="translate(63.623047 0.765625)"/>
       <use xlink:href="#DejaVuSans-2212" transform="translate(128.203125 39.046875)scale(0.7)"/>
       <use xlink:href="#DejaVuSans-36" transform="translate(186.855469 39.046875)scale(0.7)"/>
      </g>
     </g>
    </g>
    <g id="ytick_3">
     <g id="line2d_36">
      <g>
       <use xlink:href="#m41437ac884" x="54" y="118.360053" style="stroke: #000000; stroke-width: 0.8"/>
      </g>
     </g>
     <g id="text_8">
      <!-- $\mathdefault{10^{-4}}$ -->
      <g transform="translate(23.5 122.159272)scale(0.1 -0.1)">
       <use xlink:href="#DejaVuSans-31" transform="translate(0 0.684375)"/>
       <use xlink:href="#DejaVuSans-30" transform="translate(63.623047 0.684375)"/>
       <use xlink:href="#DejaVuSans-2212" transform="translate(128.203125 38.965625)scale(0.7)"/>
       <use xlink:href="#DejaVuSans-34" transform="translate(186.855469 38.965625)scale(0.7)"/>
      </g>
     </g>
    </g>
    <g id="ytick_4">
     <g id="line2d_37">
      <g>
       <use xlink:href="#m41437ac884" x="54" y="68.393019" style="stroke: #000000; stroke-width: 0.8"/>
      </g>
     </g>
     <g id="text_9">
      <!-- $\mathdefault{10^{-2}}$ -->
      <g transform="translate(23.5 72.192238)scale(0.1 -0.1)">
       <use xlink:href="#DejaVuSans-31" transform="translate(0 0.765625)"/>
       <use xlink:href="#DejaVuSans-30" transform="translate(63.623047 0.765625)"/>
       <use xlink:href="#DejaVuSans-2212" transform="translate(128.203125 39.046875)scale(0.7)"/>
       <use xlink:href="#DejaVuSans-32" transform="translate(186.855469 39.046875)scale(0.7)"/>
      </g>
     </g>
    </g>
    <g id="text_10">
     <!-- MSE -->
     <g transform="translate(17.420313 153.927656)rotate(-90)scale(0.1 -0.1)">
      <defs>
       <path id="DejaVuSans-4d" d="M 628 4666 
L 1569 4666 
L 2759 1491 
L 3956 4666 
L 4897 4666 
L 4897 0 
L 4281 0 
L 4281 4097 
L 3078 897 
L 2444 897 
L 1241 4097 
L 1241 0 
L 628 0 
L 628 4666 
z
" transform="scale(0.015625)"/>
       <path id="DejaVuSans-53" d="M 3425 4513 
L 3425 3897 
Q 3066 4069 2747 4153 
Q 2428 4238 2131 4238 
Q 1616 4238 1336 4038 
Q 1056 3838 1056 3469 
Q 1056 3159 1242 3001 
Q 1428 2844 1947 2747 
L 2328 2669 
Q 3034 2534 3370 2195 
Q 3706 1856 3706 1288 
Q 3706 609 3251 259 
Q 2797 -91 1919 -91 
Q 1588 -91 1214 -16 
Q 841 59 441 206 
L 441 856 
Q 825 641 1194 531 
Q 1563 422 1919 422 
Q 2459 422 2753 634 
Q 3047 847 3047 1241 
Q 3047 1584 2836 1778 
Q 2625 1972 2144 2069 
L 1759 2144 
Q 1053 2284 737 2584 
Q 422 2884 422 3419 
Q 422 4038 858 4394 
Q 1294 4750 2059 4750 
Q 2388 4750 2728 4690 
Q 3069 4631 3425 4513 
z
" transform="scale(0.015625)"/>
       <path id="DejaVuSans-45" d="M 628 4666 
L 3578 4666 
L 3578 4134 
L 1259 4134 
L 1259 2753 
L 3481 2753 
L 3481 2222 
L 1259 2222 
L 1259 531 
L 3634 531 
L 3634 0 
L 628 0 
L 628 4666 
z
" transform="scale(0.015625)"/>
      </defs>
      <use xlink:href="#DejaVuSans-4d"/>
      <use xlink:href="#DejaVuSans-53" x="86.279297"/>
      <use xlink:href="#DejaVuSans-45" x="149.755859"/>
     </g>
    </g>
   </g>
   <g id="line2d_38">
    <path d="M 69.218182 52.715118 
L 72.56614 54.025868 
L 75.645963 55.027437 
L 78.497434 56.333145 
L 83.635354 57.792485 
L 85.968023 58.873665 
L 88.167321 59.267699 
L 90.247679 60.142643 
L 92.221304 60.508227 
L 94.098615 61.318972 
L 95.888578 61.419063 
L 97.598959 62.179478 
L 100.807254 63.309071 
L 102.316359 63.867505 
L 103.768503 64.149918 
L 105.16783 64.893241 
L 106.518047 64.554586 
L 107.822486 65.404002 
L 109.084148 65.965734 
L 110.30575 66.120731 
L 112.638419 66.908459 
L 113.753779 67.092786 
L 114.837717 67.684289 
L 115.891954 67.813816 
L 117.91754 68.38354 
L 118.8917 69.051865 
L 119.841804 69.182263 
L 120.769011 69.527359 
L 121.6744 69.737777 
L 122.558973 70.115843 
L 123.423667 70.283074 
L 124.269355 70.883583 
L 125.906932 71.249905 
L 126.700305 71.343848 
L 127.47765 71.981939 
L 128.2396 72.131405 
L 128.986755 72.105173 
L 129.719677 72.289437 
L 130.438899 73.053452 
L 131.144923 73.104095 
L 132.519256 73.784576 
L 133.188443 73.717535 
L 133.84619 74.014407 
L 134.492881 74.177257 
L 135.128883 74.07809 
L 135.754543 74.622709 
L 136.370192 74.823828 
L 136.976146 74.525242 
L 137.572704 75.021584 
L 138.160155 75.127165 
L 139.308814 75.716623 
L 139.870536 75.534629 
L 140.424175 76.140569 
L 140.969961 75.944019 
L 141.508113 76.454823 
L 142.038842 76.415409 
L 142.56235 76.683382 
L 143.078831 76.578869 
L 144.091448 76.834773 
L 144.587936 76.874378 
L 145.078099 76.736646 
L 145.562096 77.179267 
L 147.439407 77.936312 
L 147.894764 77.652109 
L 148.344796 78.134392 
L 148.789624 77.888056 
L 149.229369 78.65258 
L 149.664145 78.302357 
L 150.094063 78.673879 
L 150.51923 78.368048 
L 150.93975 78.944835 
L 151.355725 78.650122 
L 151.76725 78.820157 
L 152.17442 78.658527 
L 152.577327 78.9857 
L 152.976059 78.787185 
L 153.370701 79.039223 
L 162.733995 81.306833 
L 175.68052 85.858326 
L 185.350408 90.388725 
L 193.071664 94.20918 
L 199.499445 97.178682 
L 205.005572 100.374848 
L 209.821505 102.588128 
L 214.101162 105.034021 
L 217.952098 106.053497 
L 221.452441 108.21189 
L 224.660736 109.213195 
L 227.621985 110.501055 
L 232.93763 112.003176 
L 235.343241 112.353955 
L 237.607262 113.643971 
L 239.745437 114.247241 
L 243.695286 115.80998 
L 245.527882 116.125891 
L 247.277149 116.771475 
L 248.950336 118.017581 
L 250.553787 118.050844 
L 253.573159 119.130126 
L 256.372739 119.949027 
L 258.982365 121.091763 
L 260.223675 121.905013 
L 262.592253 122.770377 
L 265.892324 124.289836 
L 266.932313 124.275818 
L 267.944931 124.694271 
L 269.893562 126.794891 
L 270.832078 127.13635 
L 271.748246 127.944622 
L 272.643106 129.341949 
L 273.517627 129.58275 
L 274.372712 129.307336 
L 275.209207 130.048557 
L 276.027903 130.372526 
L 276.829541 131.267972 
L 277.614818 131.024324 
L 278.384389 132.67186 
L 279.138869 133.085927 
L 279.878839 134.111629 
L 280.604846 134.226201 
L 281.317408 135.334364 
L 282.704126 136.564157 
L 283.379182 136.680124 
L 284.0426 137.414064 
L 284.694772 137.117407 
L 285.336074 137.492477 
L 285.966863 137.640444 
L 286.587477 138.726309 
L 287.19824 138.734159 
L 287.799459 139.392384 
L 288.391428 139.641989 
L 288.974428 140.512901 
L 289.548726 140.797153 
L 290.672229 141.698411 
L 291.221914 141.691586 
L 292.29827 142.702088 
L 292.825364 142.557174 
L 293.345335 143.274223 
L 293.858373 143.413193 
L 294.364659 144.093866 
L 294.864371 144.349526 
L 295.357676 144.353883 
L 295.844736 144.561107 
L 296.325708 145.194644 
L 297.269982 145.240774 
L 297.733569 145.955071 
L 298.191637 145.806555 
L 299.091731 146.356987 
L 300.831111 147.647354 
L 301.253943 147.565447 
L 301.672178 148.32506 
L 302.495252 148.271044 
L 302.900279 148.857454 
L 303.301087 148.993537 
L 303.697764 148.961973 
L 304.090392 149.289312 
L 304.479054 149.331882 
L 304.86383 149.762057 
L 305.244796 149.886331 
L 305.995595 150.32657 
L 308.513697 151.571255 
L 308.860341 151.607546 
L 309.881921 152.258468 
L 310.54821 152.167368 
L 311.203158 153.224989 
L 311.847144 153.206981 
L 312.165139 153.469181 
L 312.480528 153.501407 
L 312.793353 153.794122 
L 313.103655 153.74125 
L 313.411475 153.9578 
L 313.716851 153.64113 
L 314.019823 154.242375 
L 314.320428 154.21193 
L 314.618703 154.609492 
L 314.914683 154.325998 
L 315.208404 154.83268 
L 315.4999 154.617849 
L 315.789204 155.098711 
L 316.076349 154.943733 
L 316.361367 155.230535 
L 316.644289 155.095331 
L 316.925146 155.2533 
L 317.203968 155.805479 
L 317.480784 156.053197 
L 317.755623 156.141936 
L 318.028512 156.041443 
L 318.29948 156.362106 
L 318.568552 156.274549 
L 318.835757 156.398692 
L 319.101118 156.85535 
L 319.364662 156.713074 
L 319.626413 156.794914 
L 319.886395 157.120648 
L 320.144633 156.727241 
L 320.401149 157.126197 
L 320.655966 156.912309 
L 321.160593 157.550543 
L 321.410446 157.462805 
L 322.393943 158.000081 
L 322.635939 157.828151 
L 322.876423 157.995224 
L 323.115413 158.560859 
L 323.352928 158.570697 
L 323.823603 158.869592 
L 324.518994 158.928897 
L 324.748026 159.165133 
L 324.975703 159.185671 
L 325.20204 158.857609 
L 325.427054 159.272763 
L 326.314177 159.830906 
L 326.532798 159.950059 
L 326.750184 159.766196 
L 326.966349 160.280112 
L 327.181306 160.409898 
L 327.395069 159.90809 
L 327.607651 160.121666 
L 327.819065 160.543435 
L 328.029324 160.422806 
L 328.23844 160.815155 
L 328.446426 160.658697 
L 328.653293 160.829812 
L 328.859054 160.6049 
L 329.063721 161.04852 
L 329.267305 161.044216 
L 329.469817 160.891016 
L 329.671269 161.289583 
L 330.071036 161.032021 
L 330.466693 161.520778 
L 330.663006 161.389418 
L 330.858322 161.432913 
L 331.052652 161.676694 
L 331.246005 161.486628 
L 331.438392 161.771528 
L 331.629821 161.7799 
L 331.820303 162.045675 
L 332.009847 161.779239 
L 332.198461 162.158148 
L 332.386155 162.227442 
L 332.758819 162.029445 
L 333.127908 162.317293 
L 333.674987 162.824924 
L 333.855632 162.532785 
L 334.035433 162.52033 
L 334.746349 163.1859 
L 335.096941 162.98004 
L 335.271047 163.46365 
L 335.444368 163.167917 
L 335.788686 163.373726 
L 335.959696 163.285051 
L 336.299453 163.700309 
L 336.636236 163.806623 
L 336.970098 163.967047 
L 337.135948 164.203585 
L 337.629253 163.978871 
L 338.116313 164.512409 
L 338.277306 164.577347 
L 338.597285 164.210584 
L 338.756282 164.553725 
L 338.914625 164.537905 
L 339.072319 164.782401 
L 339.229369 164.587176 
L 339.541559 165.011349 
L 339.69671 164.884322 
L 340.31113 165.067193 
L 340.463214 165.207704 
L 340.614699 165.011649 
L 340.765591 165.293463 
L 341.06561 165.13992 
L 341.363308 165.629885 
L 341.511297 165.284862 
L 341.80558 165.736881 
L 341.951881 165.685246 
L 342.097629 165.904433 
L 342.387477 165.806913 
L 343.102688 166.11194 
L 343.244149 166.595179 
L 343.52552 166.257001 
L 343.943755 166.34632 
L 344.082162 166.794151 
L 344.220074 166.844302 
L 344.357493 166.429757 
L 344.494422 166.815019 
L 344.630867 166.557649 
L 344.766829 167.086227 
L 344.902312 166.864248 
L 345.439525 167.061159 
L 345.572664 167.367391 
L 345.705345 167.337251 
L 345.837569 167.625626 
L 345.969341 167.499615 
L 346.100662 167.728748 
L 346.231538 167.450291 
L 346.49196 167.623644 
L 346.621513 167.43637 
L 346.879318 167.721166 
L 347.262815 167.651582 
L 347.642528 168.269209 
L 347.768271 168.179688 
L 347.893604 167.76 
L 348.143052 168.275385 
L 348.267172 168.232262 
L 348.390894 168.397828 
L 348.514218 168.106511 
L 348.637149 168.144836 
L 348.881838 168.680167 
L 349.124981 168.572525 
L 349.245979 168.635514 
L 349.486839 168.383148 
L 349.7262 168.817832 
L 349.845325 168.586618 
L 349.964082 168.925807 
L 350.082474 168.912974 
L 350.31817 169.173412 
L 350.552431 169.126696 
L 350.669028 168.938152 
L 350.785274 169.055013 
L 350.901169 169.000251 
L 351.016717 169.149171 
L 351.131918 169.486096 
L 351.246776 169.286431 
L 351.928813 169.408422 
L 352.041319 169.412934 
L 352.153498 169.775918 
L 352.488085 169.457098 
L 352.59897 169.959477 
L 352.709537 169.670116 
L 352.929722 170.104819 
L 353.039344 169.760277 
L 353.148655 170.087044 
L 353.257655 169.520269 
L 353.366348 170.037649 
L 353.474735 170.003107 
L 353.582817 170.369184 
L 353.690597 170.043696 
L 354.118721 170.411809 
L 354.225011 170.251057 
L 354.331009 170.321705 
L 354.436716 170.575215 
L 354.647263 170.450701 
L 354.752105 170.707834 
L 354.960938 170.357557 
L 355.168643 170.791659 
L 355.272076 170.829115 
L 355.375232 170.462176 
L 355.580719 170.757134 
L 355.988428 171.155445 
L 356.190675 171.13626 
L 356.391863 171.478581 
L 356.492065 171.239445 
L 356.691688 171.317156 
L 356.791112 171.295395 
L 356.989194 171.659828 
L 357.087853 171.680656 
L 357.186261 171.401579 
L 357.382323 171.731951 
L 357.479981 171.623453 
L 357.577392 171.472912 
L 357.674557 171.9617 
L 357.868154 171.613641 
L 357.964588 171.886008 
L 358.156734 171.72006 
L 358.347926 171.834691 
L 358.443167 172.043106 
L 358.538172 171.691545 
L 358.727483 172.179944 
L 359.103332 172.251265 
L 359.196723 171.927764 
L 359.568039 172.539124 
L 359.66031 172.371694 
L 359.752361 172.437761 
L 359.935805 172.239205 
L 360.118378 172.484629 
L 360.209341 172.466472 
L 360.480946 172.925808 
L 360.660957 172.6532 
L 360.750648 172.850579 
L 360.929404 172.590111 
L 361.107334 172.935991 
L 361.460744 172.619086 
L 361.810937 173.229837 
L 361.984846 172.888717 
L 362.244244 173.597023 
L 362.330323 173.163626 
L 362.41621 173.424845 
L 362.58741 173.383478 
L 362.757852 173.3505 
L 363.012108 173.634452 
L 363.096488 173.426204 
L 363.264695 173.52753 
L 363.348524 173.541462 
L 363.515635 173.782704 
L 363.598919 173.718863 
L 363.682023 173.986454 
L 363.764948 173.650223 
L 363.847695 174.135138 
L 363.930264 173.931947 
L 364.012657 174.033963 
L 364.094873 173.923889 
L 364.176914 173.996272 
L 364.25878 173.999844 
L 364.340473 174.346447 
L 364.421993 174.111809 
L 364.50334 174.381797 
L 364.584516 174.03947 
L 364.665521 174.284517 
L 364.746355 174.0151 
L 364.907517 174.476995 
L 364.987845 174.329951 
L 365.068006 174.197898 
L 365.148 174.469256 
L 365.227828 174.410124 
L 365.624505 174.645053 
L 365.703352 174.754726 
L 365.782037 174.651303 
L 365.938927 174.7061 
L 366.09518 174.612279 
L 366.250801 174.949858 
L 366.405795 174.929583 
L 366.483059 175.070589 
L 366.560168 174.739272 
L 366.713923 175.046175 
L 366.790571 175.041912 
L 366.867067 174.793064 
L 366.94341 174.84211 
L 367.095645 175.228403 
L 367.171537 175.13807 
L 367.24728 175.188627 
L 367.322874 175.04235 
L 367.548768 175.483159 
L 367.623772 175.115151 
L 367.847912 175.649601 
L 367.922336 175.252418 
L 367.996617 175.808352 
L 368.070754 175.330595 
L 368.144749 175.513515 
L 368.218602 175.50736 
L 368.439313 176.002458 
L 368.512603 175.960983 
L 368.585754 175.536606 
L 368.731639 175.832683 
L 368.804375 175.703844 
L 368.876974 176.252362 
L 368.949436 176.15889 
L 369.021761 175.800449 
L 369.093951 176.072081 
L 369.166006 175.94655 
L 369.237926 175.883997 
L 369.381364 176.215095 
L 369.452883 175.978463 
L 369.52427 176.294346 
L 369.595524 175.996821 
L 369.666646 176.036229 
L 369.737638 176.116453 
L 369.808498 175.860999 
L 369.949829 176.289928 
L 370.0203 176.153014 
L 370.160856 176.304908 
L 370.230942 176.207927 
L 370.370733 176.513228 
L 370.440438 176.249413 
L 370.510017 176.416411 
L 370.579471 176.602359 
L 370.648799 176.464946 
L 370.718003 176.717074 
L 370.787082 176.267891 
L 370.856038 176.542835 
L 370.92487 176.530018 
L 370.993579 176.318975 
L 371.130631 176.782799 
L 371.198975 176.593164 
L 371.335298 176.823007 
L 371.47114 176.530278 
L 371.674008 177.15926 
L 371.875813 176.864469 
L 371.942846 177.079276 
L 372.009763 176.892589 
L 372.209819 177.254858 
L 372.342613 177.018761 
L 372.474951 177.353038 
L 372.54095 177.249289 
L 372.606836 177.488607 
L 372.73827 177.045314 
L 372.934583 177.45275 
L 373.064904 177.290903 
L 373.129899 177.364865 
L 373.194785 177.649824 
L 373.259561 177.448129 
L 373.324229 177.417695 
L 373.388788 177.80202 
L 373.453239 177.610769 
L 373.581818 177.786214 
L 373.581818 177.786214 
" clip-path="url(#pc7776d09e3)" style="fill: none; stroke: #0000ff; stroke-width: 1.5; stroke-linecap: square"/>
   </g>
   <g id="line2d_39">
    <path d="M 69.218182 44.443636 
L 373.581818 130.271174 
L 373.581818 130.271174 
" clip-path="url(#pc7776d09e3)" style="fill: none; stroke: #008000; stroke-width: 1.5; stroke-linecap: square"/>
   </g>
   <g id="line2d_40">
    <path d="M 69.218182 70.461289 
L 373.581818 242.116364 
L 373.581818 242.116364 
" clip-path="url(#pc7776d09e3)" style="fill: none; stroke: #ff0000; stroke-width: 1.5; stroke-linecap: square"/>
   </g>
   <g id="patch_3">
    <path d="M 54 252 
L 54 34.56 
" style="fill: none; stroke: #000000; stroke-width: 0.8; stroke-linejoin: miter; stroke-linecap: square"/>
   </g>
   <g id="patch_4">
    <path d="M 388.8 252 
L 388.8 34.56 
" style="fill: none; stroke: #000000; stroke-width: 0.8; stroke-linejoin: miter; stroke-linecap: square"/>
   </g>
   <g id="patch_5">
    <path d="M 54 252 
L 388.8 252 
" style="fill: none; stroke: #000000; stroke-width: 0.8; stroke-linejoin: miter; stroke-linecap: square"/>
   </g>
   <g id="patch_6">
    <path d="M 54 34.56 
L 388.8 34.56 
" style="fill: none; stroke: #000000; stroke-width: 0.8; stroke-linejoin: miter; stroke-linecap: square"/>
   </g>
  </g>
 </g>
 <defs>
  <clipPath id="pc7776d09e3">
   <rect x="54" y="34.56" width="334.8" height="217.44"/>
  </clipPath>
 </defs>
</svg>
