<?xml version="1.0" encoding="utf-8" standalone="no"?>
<!DOCTYPE svg PUBLIC "-//W3C//DTD SVG 1.1//EN"
  "http://www.w3.org/Graphics/SVG/1.1/DTD/svg11.dtd">
<svg xmlns:xlink="http://www.w3.org/1999/xlink" width="432pt" height="288pt" viewBox="0 0 432 288" xmlns="http://www.w3.org/2000/svg" version="1.1">
 <metadata>
  <rdf:RDF xmlns:dc="http://purl.org/dc/elements/1.1/" xmlns:cc="http://creativecommons.org/ns#" xmlns:rdf="http://www.w3.org/1999/02/22-rdf-syntax-ns#">
   <cc:Work>
    <dc:type rdf:resource="http://purl.org/dc/dcmitype/StillImage"/>
    <dc:date>2022-02-14T02:27:29.781139</dc:date>
    <dc:format>image/svg+xml</dc:format>
    <dc:creator>
     <cc:Agent>
      <dc:title>Matplotlib v3.5.1, https://matplotlib.org/</dc:title>
     </cc:Agent>
    </dc:creator>
   </cc:Work>
  </rdf:RDF>
 </metadata>
 <defs>
  <style type="text/css">*{stroke-linejoin: round; stroke-linecap: butt}</style>
 </defs>
 <g id="figure_1">
  <g id="patch_1">
   <path d="M 0 288 
L 432 288 
L 432 0 
L 0 0 
L 0 288 
z
" style="fill: none"/>
  </g>
  <g id="axes_1">
   <g id="patch_2">
    <path d="M 54 252 
L 388.8 252 
L 388.8 34.56 
L 54 34.56 
z
" style="fill: #ffffff"/>
   </g>
   <g id="PolyCollection_1">
    <defs>
     <path id="maea0694b49" d="M 69.218182 -165.758827 
L 69.218182 -164.167309 
L 72.56614 -164.093798 
L 75.645963 -163.454474 
L 78.497434 -163.04226 
L 81.15209 -162.04062 
L 83.635354 -161.278607 
L 85.968023 -160.658742 
L 88.167321 -160.068621 
L 90.247679 -160.199772 
L 92.221304 -159.507583 
L 94.098615 -159.863356 
L 95.888578 -159.47755 
L 97.598959 -159.661913 
L 99.236536 -158.94796 
L 100.807254 -158.719231 
L 102.316359 -158.36982 
L 103.768503 -158.303089 
L 105.16783 -158.290317 
L 106.518047 -157.798282 
L 107.822486 -157.560507 
L 109.084148 -157.692884 
L 110.30575 -157.616557 
L 111.489759 -157.574168 
L 112.638419 -157.516073 
L 113.753779 -157.236024 
L 114.837717 -157.602371 
L 115.891954 -157.069797 
L 116.918075 -157.003382 
L 117.91754 -156.870472 
L 118.8917 -156.941175 
L 119.841804 -156.781073 
L 120.769011 -156.703942 
L 121.6744 -156.705021 
L 122.558973 -156.511718 
L 123.423667 -156.748059 
L 124.269355 -156.594613 
L 125.096854 -156.616466 
L 125.906932 -156.408437 
L 126.700305 -156.264682 
L 127.47765 -156.161283 
L 128.2396 -156.230581 
L 128.986755 -156.113506 
L 129.719677 -156.197152 
L 130.438899 -156.157947 
L 131.144923 -156.022421 
L 131.838225 -156.22338 
L 132.519256 -155.960179 
L 133.188443 -156.274164 
L 133.84619 -155.824462 
L 134.492881 -156.116956 
L 135.128883 -155.796689 
L 135.754543 -155.744413 
L 136.370192 -155.747142 
L 136.976146 -155.876752 
L 137.572704 -155.896654 
L 138.160155 -155.957477 
L 138.738771 -155.607481 
L 139.308814 -155.863389 
L 139.870536 -155.493387 
L 140.424175 -155.721157 
L 140.969961 -155.309116 
L 141.508113 -155.487991 
L 142.038842 -155.480157 
L 142.56235 -155.568043 
L 143.078831 -155.337228 
L 143.588471 -155.575546 
L 144.091448 -155.581975 
L 144.587936 -155.335579 
L 145.078099 -155.094804 
L 145.562096 -155.59906 
L 146.04008 -155.47771 
L 146.512199 -155.294873 
L 146.978596 -155.430655 
L 147.439407 -155.485945 
L 147.894764 -155.382172 
L 148.344796 -155.452066 
L 148.789624 -155.148472 
L 149.229369 -154.972227 
L 149.664145 -155.346463 
L 150.094063 -155.159721 
L 150.51923 -155.541974 
L 150.93975 -155.102505 
L 151.355725 -155.093911 
L 151.76725 -155.424758 
L 152.17442 -155.212389 
L 152.577327 -155.410321 
L 152.976059 -155.256404 
L 153.370701 -155.246323 
L 153.761336 -155.171762 
L 162.733995 -155.008096 
L 175.68052 -154.682328 
L 185.350408 -154.157992 
L 193.071664 -154.26594 
L 199.499445 -153.95899 
L 205.005572 -154.248284 
L 209.821505 -154.320417 
L 214.101162 -154.659956 
L 217.952098 -154.198112 
L 221.452441 -154.384888 
L 224.660736 -154.521264 
L 227.621985 -153.973993 
L 230.371529 -154.14892 
L 232.93763 -153.361187 
L 235.343241 -152.511717 
L 237.607262 -152.12765 
L 239.745437 -151.618084 
L 241.771022 -150.914295 
L 243.695286 -151.05776 
L 245.527882 -150.516088 
L 247.277149 -150.213151 
L 248.950336 -148.28695 
L 250.553787 -148.299039 
L 252.093082 -146.625228 
L 253.573159 -145.07492 
L 254.998405 -145.710748 
L 256.372739 -144.802461 
L 257.699672 -143.929766 
L 258.982365 -143.141963 
L 260.223675 -143.393751 
L 261.426186 -141.040979 
L 262.592253 -140.459581 
L 263.724018 -141.169659 
L 264.823443 -138.346302 
L 265.892324 -137.390714 
L 266.932313 -137.93343 
L 267.944931 -136.755116 
L 268.931581 -136.224016 
L 269.893562 -134.484074 
L 270.832078 -132.557371 
L 271.748246 -132.164472 
L 272.643106 -130.385333 
L 273.517627 -130.264824 
L 274.372712 -130.642171 
L 275.209207 -128.336053 
L 276.027903 -128.92269 
L 276.829541 -128.662579 
L 277.614818 -126.551202 
L 278.384389 -125.806687 
L 279.138869 -125.833542 
L 279.878839 -124.696315 
L 280.604846 -124.203328 
L 281.317408 -123.803758 
L 282.017014 -125.163983 
L 282.704126 -122.832399 
L 283.379182 -121.763083 
L 284.0426 -120.776601 
L 284.694772 -120.445045 
L 285.336074 -120.679981 
L 285.966863 -119.460972 
L 286.587477 -118.513388 
L 287.19824 -118.483941 
L 287.799459 -116.248942 
L 288.391428 -115.317422 
L 288.974428 -112.736033 
L 289.548726 -115.208443 
L 290.114578 -115.291227 
L 290.672229 -112.452774 
L 291.221914 -111.371316 
L 291.763856 -111.861752 
L 292.29827 -112.355775 
L 292.825364 -110.847388 
L 293.345335 -112.206365 
L 293.858373 -108.266624 
L 294.364659 -106.917286 
L 294.864371 -111.535495 
L 295.357676 -108.490091 
L 295.844736 -110.027342 
L 296.325708 -108.952651 
L 296.800742 -106.130134 
L 297.269982 -105.575398 
L 297.733569 -106.625815 
L 298.191637 -104.476958 
L 298.644316 -105.437852 
L 299.091731 -104.516409 
L 299.534003 -104.520325 
L 299.971249 -101.803158 
L 300.403582 -103.738456 
L 300.831111 -102.687625 
L 301.253943 -102.285797 
L 301.672178 -100.383947 
L 302.085915 -98.945051 
L 302.495252 -101.50816 
L 302.900279 -101.889451 
L 303.301087 -96.885352 
L 303.697764 -99.342288 
L 304.090392 -98.215783 
L 304.479054 -96.541903 
L 304.86383 -96.547457 
L 305.244796 -98.475687 
L 305.622027 -95.290182 
L 305.995595 -97.908345 
L 306.365572 -96.267483 
L 306.732024 -95.927734 
L 307.09502 -93.741044 
L 307.454623 -95.404708 
L 307.810896 -94.98332 
L 308.163901 -94.223465 
L 308.513697 -93.26018 
L 308.860341 -95.399024 
L 309.20389 -93.758496 
L 309.544399 -93.562986 
L 309.881921 -94.616988 
L 310.216508 -94.548819 
L 310.54821 -90.43996 
L 310.877078 -89.849585 
L 311.203158 -90.453941 
L 311.526498 -90.890532 
L 311.847144 -88.433749 
L 312.165139 -89.630262 
L 312.480528 -90.840377 
L 312.793353 -90.553132 
L 313.103655 -92.278213 
L 313.411475 -88.203033 
L 313.716851 -89.519169 
L 314.019823 -89.074509 
L 314.320428 -89.912443 
L 314.618703 -88.446603 
L 314.914683 -89.13117 
L 315.208404 -88.389485 
L 315.4999 -88.858845 
L 315.789204 -88.21188 
L 316.076349 -87.256465 
L 316.361367 -88.546328 
L 316.644289 -88.565397 
L 316.925146 -88.58892 
L 317.203968 -89.99211 
L 317.480784 -86.539844 
L 317.755623 -88.024289 
L 318.028512 -85.841218 
L 318.29948 -88.210264 
L 318.568552 -85.04614 
L 318.835757 -86.840483 
L 319.101118 -87.558069 
L 319.364662 -87.844911 
L 319.626413 -86.813061 
L 319.886395 -85.140218 
L 320.144633 -82.631209 
L 320.401149 -85.517347 
L 320.655966 -86.25809 
L 320.909107 -82.373554 
L 321.160593 -85.302688 
L 321.410446 -85.253292 
L 321.658687 -82.315588 
L 321.905337 -86.12473 
L 322.150416 -83.17519 
L 322.393943 -81.697627 
L 322.635939 -81.539205 
L 322.876423 -84.562571 
L 323.115413 -79.538565 
L 323.352928 -83.699128 
L 323.588985 -83.316328 
L 323.823603 -83.116551 
L 324.056799 -82.866314 
L 324.288591 -81.863213 
L 324.518994 -83.769429 
L 324.748026 -81.349731 
L 324.975703 -81.241382 
L 325.20204 -82.167066 
L 325.427054 -81.379416 
L 325.650759 -81.389869 
L 325.873172 -81.70947 
L 326.094306 -81.629714 
L 326.314177 -79.816935 
L 326.532798 -79.82818 
L 326.750184 -79.350709 
L 326.966349 -78.363308 
L 327.181306 -79.11264 
L 327.395069 -81.106945 
L 327.607651 -76.798235 
L 327.819065 -80.249659 
L 328.029324 -79.104662 
L 328.23844 -78.641843 
L 328.446426 -81.328231 
L 328.653293 -76.114238 
L 328.859054 -79.996903 
L 329.063721 -78.510438 
L 329.267305 -80.045939 
L 329.469817 -79.701939 
L 329.671269 -79.027909 
L 329.871672 -78.220343 
L 330.071036 -79.155268 
L 330.269373 -77.805523 
L 330.466693 -75.418937 
L 330.663006 -77.956445 
L 330.858322 -77.137089 
L 331.052652 -75.527925 
L 331.246005 -76.407605 
L 331.438392 -76.526865 
L 331.629821 -76.786589 
L 331.820303 -75.650571 
L 332.009847 -77.168465 
L 332.198461 -76.745738 
L 332.386155 -74.960735 
L 332.572938 -75.62873 
L 332.758819 -75.94748 
L 332.943806 -78.351346 
L 333.127908 -76.266207 
L 333.311134 -76.324973 
L 333.493491 -73.526516 
L 333.674987 -72.612028 
L 333.855632 -75.840618 
L 334.035433 -76.162224 
L 334.214397 -73.643176 
L 334.392533 -76.260975 
L 334.569847 -74.15898 
L 334.746349 -75.696515 
L 334.922044 -75.243494 
L 335.096941 -76.561385 
L 335.271047 -75.221485 
L 335.444368 -74.801517 
L 335.616912 -76.771889 
L 335.788686 -75.625992 
L 335.959696 -72.692302 
L 336.12995 -74.790691 
L 336.299453 -74.014194 
L 336.468213 -73.57074 
L 336.636236 -71.854145 
L 336.803529 -73.278032 
L 336.970098 -71.801639 
L 337.135948 -73.711943 
L 337.301087 -72.424825 
L 337.46552 -72.216247 
L 337.629253 -71.753894 
L 337.792292 -71.48119 
L 337.954644 -70.931787 
L 338.116313 -70.600447 
L 338.277306 -72.869475 
L 338.437628 -72.149882 
L 338.597285 -73.614459 
L 338.756282 -71.372292 
L 338.914625 -73.223662 
L 339.072319 -71.007465 
L 339.229369 -73.485427 
L 339.385781 -69.878462 
L 339.541559 -71.114535 
L 339.69671 -71.129303 
L 339.851237 -70.040021 
L 340.005146 -71.126649 
L 340.158442 -73.269939 
L 340.31113 -73.545396 
L 340.463214 -70.635114 
L 340.614699 -71.899188 
L 340.765591 -71.903728 
L 340.915893 -70.605945 
L 341.06561 -68.509099 
L 341.214747 -68.207178 
L 341.363308 -70.776295 
L 341.511297 -70.41095 
L 341.65872 -70.337884 
L 341.80558 -71.695393 
L 341.951881 -69.87286 
L 342.097629 -69.224189 
L 342.242826 -70.397641 
L 342.387477 -70.696741 
L 342.531587 -68.487578 
L 342.675159 -69.221435 
L 342.818197 -70.089624 
L 342.960706 -68.898598 
L 343.102688 -68.149807 
L 343.244149 -69.06788 
L 343.385092 -69.486112 
L 343.52552 -67.819641 
L 343.665437 -69.824917 
L 343.804847 -69.555723 
L 343.943755 -68.494807 
L 344.082162 -68.217568 
L 344.220074 -69.639714 
L 344.357493 -66.639755 
L 344.494422 -68.34031 
L 344.630867 -68.466018 
L 344.766829 -69.064958 
L 344.902312 -69.419493 
L 345.03732 -69.240149 
L 345.171856 -68.906093 
L 345.305923 -69.724091 
L 345.439525 -65.599179 
L 345.572664 -67.131212 
L 345.705345 -66.788999 
L 345.837569 -67.909079 
L 345.969341 -65.100152 
L 346.100662 -66.309325 
L 346.231538 -68.286435 
L 346.361969 -64.069263 
L 346.49196 -65.966595 
L 346.621513 -66.427922 
L 346.750631 -64.558599 
L 346.879318 -68.398891 
L 347.007576 -66.394172 
L 347.135407 -66.534235 
L 347.262815 -66.640206 
L 347.389803 -66.158583 
L 347.516373 -67.846951 
L 347.642528 -65.859622 
L 347.768271 -65.383168 
L 347.893604 -66.143362 
L 348.01853 -66.152847 
L 348.143052 -66.131113 
L 348.267172 -64.81526 
L 348.390894 -64.663652 
L 348.514218 -67.146416 
L 348.637149 -65.12652 
L 348.759688 -63.633206 
L 348.881838 -65.4976 
L 349.003602 -65.505398 
L 349.124981 -65.992842 
L 349.245979 -64.976794 
L 349.366597 -64.903475 
L 349.486839 -64.759892 
L 349.606706 -64.851245 
L 349.7262 -65.148171 
L 349.845325 -65.09088 
L 349.964082 -65.515971 
L 350.082474 -64.911098 
L 350.200502 -62.849002 
L 350.31817 -65.840184 
L 350.435478 -64.691791 
L 350.552431 -62.95538 
L 350.669028 -63.868649 
L 350.785274 -64.536444 
L 350.901169 -64.63362 
L 351.016717 -63.657787 
L 351.131918 -62.995164 
L 351.246776 -64.1876 
L 351.361291 -61.925382 
L 351.475467 -62.962496 
L 351.589305 -63.337112 
L 351.702808 -62.22978 
L 351.815976 -62.146286 
L 351.928813 -64.592278 
L 352.041319 -61.924967 
L 352.153498 -60.615644 
L 352.265351 -63.78682 
L 352.376879 -63.182246 
L 352.488085 -62.423654 
L 352.59897 -63.235933 
L 352.709537 -62.543218 
L 352.819787 -63.936808 
L 352.929722 -62.722328 
L 353.039344 -63.705207 
L 353.148655 -62.706474 
L 353.257655 -64.288181 
L 353.366348 -63.782623 
L 353.474735 -62.238847 
L 353.582817 -63.944319 
L 353.690597 -62.510865 
L 353.798075 -63.612498 
L 353.905254 -60.316586 
L 354.012135 -62.742965 
L 354.118721 -61.862476 
L 354.225011 -62.914428 
L 354.331009 -61.344664 
L 354.436716 -62.72645 
L 354.542133 -63.522034 
L 354.647263 -61.191618 
L 354.752105 -62.117181 
L 354.856663 -63.242217 
L 354.960938 -61.929124 
L 355.06493 -62.524339 
L 355.168643 -61.855672 
L 355.272076 -62.491685 
L 355.375232 -60.823343 
L 355.478113 -61.826147 
L 355.580719 -61.77697 
L 355.683052 -60.386124 
L 355.785114 -61.469146 
L 355.886905 -61.712737 
L 355.988428 -62.921244 
L 356.089684 -63.133591 
L 356.190675 -61.877785 
L 356.2914 -60.097636 
L 356.391863 -60.477723 
L 356.492065 -59.77069 
L 356.592006 -61.215036 
L 356.691688 -61.038957 
L 356.791112 -61.014261 
L 356.89028 -60.100064 
L 356.989194 -60.572031 
L 357.087853 -60.066352 
L 357.186261 -62.123192 
L 357.284417 -61.133416 
L 357.382323 -60.582661 
L 357.479981 -58.089091 
L 357.577392 -58.340876 
L 357.674557 -60.734603 
L 357.771477 -61.362616 
L 357.868154 -58.432727 
L 357.964588 -59.827967 
L 358.060781 -59.540177 
L 358.156734 -59.028002 
L 358.252449 -58.89405 
L 358.347926 -58.689404 
L 358.443167 -59.539259 
L 358.538172 -58.749467 
L 358.632944 -61.096154 
L 358.727483 -59.959242 
L 358.82179 -59.093157 
L 358.915866 -58.216592 
L 359.009713 -59.83712 
L 359.103332 -58.810029 
L 359.196723 -59.733156 
L 359.289889 -58.668391 
L 359.382829 -58.865446 
L 359.475545 -55.003283 
L 359.568039 -57.867874 
L 359.66031 -58.797802 
L 359.752361 -58.504556 
L 359.844192 -56.315723 
L 359.935805 -57.233039 
L 360.0272 -57.997764 
L 360.118378 -59.558497 
L 360.209341 -58.660524 
L 360.300089 -59.013565 
L 360.390624 -58.519484 
L 360.480946 -56.897496 
L 360.571057 -55.952775 
L 360.660957 -56.728333 
L 360.750648 -57.737741 
L 360.84013 -58.385149 
L 360.929404 -59.277171 
L 361.018472 -56.020972 
L 361.107334 -58.096473 
L 361.195991 -58.214103 
L 361.284445 -56.242767 
L 361.372695 -57.459847 
L 361.460744 -57.332392 
L 361.548591 -57.864572 
L 361.636239 -58.509695 
L 361.723687 -56.984168 
L 361.810937 -55.538553 
L 361.89799 -55.332339 
L 361.984846 -56.161911 
L 362.071507 -57.355592 
L 362.157972 -57.325918 
L 362.244244 -56.194029 
L 362.330323 -56.367723 
L 362.41621 -57.972053 
L 362.501905 -54.550429 
L 362.58741 -56.049259 
L 362.672726 -56.278587 
L 362.757852 -55.977169 
L 362.842791 -56.360615 
L 362.927543 -56.758274 
L 363.012108 -56.463211 
L 363.096488 -53.991384 
L 363.180684 -57.13757 
L 363.264695 -56.10314 
L 363.348524 -54.758275 
L 363.43217 -54.131864 
L 363.515635 -55.813528 
L 363.598919 -54.913183 
L 363.682023 -54.514815 
L 363.764948 -52.502171 
L 363.847695 -56.368278 
L 363.930264 -56.705811 
L 364.012657 -53.159283 
L 364.094873 -56.62186 
L 364.176914 -56.277895 
L 364.25878 -55.055786 
L 364.340473 -55.521858 
L 364.421993 -55.518454 
L 364.50334 -54.191418 
L 364.584516 -56.154825 
L 364.665521 -55.871865 
L 364.746355 -55.217984 
L 364.82702 -57.955289 
L 364.907517 -55.384941 
L 364.987845 -54.46561 
L 365.068006 -57.438516 
L 365.148 -55.134497 
L 365.227828 -53.076164 
L 365.307492 -56.324225 
L 365.38699 -53.726514 
L 365.466325 -56.273177 
L 365.545496 -54.660286 
L 365.624505 -56.344852 
L 365.703352 -55.063217 
L 365.782037 -55.384192 
L 365.860562 -56.205909 
L 365.938927 -54.976012 
L 366.017133 -56.099227 
L 366.09518 -54.564272 
L 366.173069 -55.939526 
L 366.250801 -53.413233 
L 366.328376 -55.135247 
L 366.405795 -54.45672 
L 366.483059 -53.860333 
L 366.560168 -55.157336 
L 366.637122 -51.649662 
L 366.713923 -55.059098 
L 366.790571 -53.69798 
L 366.867067 -54.132586 
L 366.94341 -52.499452 
L 367.019603 -52.69914 
L 367.095645 -52.087423 
L 367.171537 -54.054618 
L 367.24728 -53.344821 
L 367.322874 -55.301714 
L 367.398319 -54.147549 
L 367.473617 -55.101171 
L 367.548768 -54.144673 
L 367.623772 -54.315204 
L 367.698631 -53.924961 
L 367.773344 -54.924591 
L 367.847912 -54.937494 
L 367.922336 -53.634465 
L 367.996617 -53.447205 
L 368.070754 -52.128462 
L 368.144749 -52.641468 
L 368.218602 -53.29013 
L 368.292313 -51.819562 
L 368.365883 -53.998488 
L 368.439313 -52.657637 
L 368.512603 -54.407136 
L 368.585754 -51.965379 
L 368.658766 -52.038331 
L 368.731639 -50.701844 
L 368.804375 -51.947861 
L 368.876974 -53.453748 
L 368.949436 -52.733233 
L 369.021761 -52.709493 
L 369.093951 -53.854246 
L 369.166006 -51.053271 
L 369.237926 -51.644072 
L 369.309712 -52.111631 
L 369.381364 -52.334719 
L 369.452883 -54.768095 
L 369.52427 -53.69599 
L 369.595524 -52.832784 
L 369.666646 -50.676602 
L 369.737638 -50.964453 
L 369.808498 -51.433478 
L 369.879228 -50.8367 
L 369.949829 -51.209264 
L 370.0203 -52.08065 
L 370.090642 -50.722644 
L 370.160856 -51.319329 
L 370.230942 -52.429861 
L 370.300901 -52.215169 
L 370.370733 -53.43317 
L 370.440438 -52.671764 
L 370.510017 -50.239226 
L 370.579471 -51.512043 
L 370.648799 -51.938005 
L 370.718003 -49.995635 
L 370.787082 -51.078036 
L 370.856038 -50.137184 
L 370.92487 -52.202634 
L 370.993579 -51.287936 
L 371.062166 -51.227497 
L 371.130631 -52.164192 
L 371.198975 -53.118715 
L 371.267197 -50.836359 
L 371.335298 -49.532887 
L 371.403279 -51.476329 
L 371.47114 -50.516173 
L 371.538882 -52.385401 
L 371.606504 -51.384374 
L 371.674008 -50.485833 
L 371.741394 -51.786704 
L 371.808662 -50.712806 
L 371.875813 -48.63254 
L 371.942846 -52.312096 
L 372.009763 -52.680289 
L 372.076564 -50.60386 
L 372.143249 -48.749306 
L 372.209819 -49.776929 
L 372.276273 -51.114833 
L 372.342613 -51.312556 
L 372.408839 -50.094763 
L 372.474951 -48.588856 
L 372.54095 -50.018757 
L 372.606836 -47.919195 
L 372.672609 -50.495312 
L 372.73827 -50.293772 
L 372.803819 -49.675505 
L 372.869256 -47.824541 
L 372.934583 -48.671235 
L 372.999798 -49.951597 
L 373.064904 -50.335959 
L 373.129899 -49.152087 
L 373.194785 -50.409921 
L 373.259561 -51.442025 
L 373.324229 -51.030968 
L 373.388788 -49.651227 
L 373.453239 -49.264584 
L 373.517582 -51.477301 
L 373.581818 -49.692255 
L 373.581818 -53.748076 
L 373.581818 -53.748076 
L 373.517582 -55.066409 
L 373.453239 -54.504962 
L 373.388788 -54.555055 
L 373.324229 -54.523479 
L 373.259561 -55.538756 
L 373.194785 -54.168448 
L 373.129899 -52.747785 
L 373.064904 -54.692012 
L 372.999798 -54.118862 
L 372.934583 -54.556484 
L 372.869256 -52.326981 
L 372.803819 -54.326213 
L 372.73827 -54.345427 
L 372.672609 -54.11594 
L 372.606836 -52.648325 
L 372.54095 -54.908112 
L 372.474951 -52.679421 
L 372.408839 -54.580829 
L 372.342613 -54.573186 
L 372.276273 -55.631303 
L 372.209819 -55.08691 
L 372.143249 -53.410431 
L 372.076564 -54.306082 
L 372.009763 -55.436667 
L 371.942846 -55.849325 
L 371.875813 -53.748952 
L 371.808662 -54.325074 
L 371.741394 -55.520762 
L 371.674008 -55.284598 
L 371.606504 -56.727304 
L 371.538882 -55.498447 
L 371.47114 -54.498548 
L 371.403279 -54.717822 
L 371.335298 -53.484095 
L 371.267197 -54.23992 
L 371.198975 -56.581974 
L 371.130631 -55.987307 
L 371.062166 -55.537301 
L 370.993579 -55.741726 
L 370.92487 -56.485169 
L 370.856038 -55.258514 
L 370.787082 -55.332556 
L 370.718003 -54.644638 
L 370.648799 -55.423462 
L 370.579471 -55.720256 
L 370.510017 -54.45171 
L 370.440438 -56.214713 
L 370.370733 -56.863618 
L 370.300901 -55.890251 
L 370.230942 -55.826738 
L 370.160856 -54.603772 
L 370.090642 -55.487179 
L 370.0203 -55.299557 
L 369.949829 -54.774053 
L 369.879228 -55.830838 
L 369.808498 -55.721183 
L 369.737638 -55.931621 
L 369.666646 -56.317428 
L 369.595524 -57.9882 
L 369.52427 -57.85705 
L 369.452883 -59.375567 
L 369.381364 -57.325847 
L 369.309712 -56.825854 
L 369.237926 -55.567384 
L 369.166006 -56.892189 
L 369.093951 -57.521979 
L 369.021761 -56.723605 
L 368.949436 -57.3976 
L 368.876974 -57.358724 
L 368.804375 -57.409527 
L 368.731639 -54.831783 
L 368.658766 -56.61197 
L 368.585754 -56.89858 
L 368.512603 -57.734956 
L 368.439313 -56.981519 
L 368.365883 -59.264143 
L 368.292313 -55.940177 
L 368.218602 -58.422445 
L 368.144749 -57.057182 
L 368.070754 -56.545642 
L 367.996617 -57.215623 
L 367.922336 -58.197126 
L 367.847912 -58.542697 
L 367.773344 -58.361642 
L 367.698631 -58.182253 
L 367.623772 -59.180903 
L 367.548768 -58.129139 
L 367.473617 -60.040093 
L 367.398319 -58.509215 
L 367.322874 -59.065279 
L 367.24728 -57.645081 
L 367.171537 -59.194441 
L 367.095645 -57.123504 
L 367.019603 -56.813587 
L 366.94341 -57.965299 
L 366.867067 -57.701172 
L 366.790571 -58.629871 
L 366.713923 -58.553773 
L 366.637122 -56.059453 
L 366.560168 -58.782323 
L 366.483059 -58.195985 
L 366.405795 -58.143091 
L 366.328376 -58.607807 
L 366.250801 -58.038855 
L 366.173069 -59.300982 
L 366.09518 -57.781236 
L 366.017133 -59.436815 
L 365.938927 -58.930772 
L 365.860562 -59.429088 
L 365.782037 -59.344857 
L 365.703352 -59.033976 
L 365.624505 -60.459459 
L 365.545496 -57.812702 
L 365.466325 -59.677646 
L 365.38699 -57.8134 
L 365.307492 -60.422197 
L 365.227828 -58.133798 
L 365.148 -59.164466 
L 365.068006 -60.928905 
L 364.987845 -58.409125 
L 364.907517 -58.665535 
L 364.82702 -62.693053 
L 364.746355 -59.032447 
L 364.665521 -58.720069 
L 364.584516 -60.131857 
L 364.50334 -57.82811 
L 364.421993 -59.422841 
L 364.340473 -59.180809 
L 364.25878 -59.349731 
L 364.176914 -59.952849 
L 364.094873 -59.871518 
L 364.012657 -57.564829 
L 363.930264 -60.084642 
L 363.847695 -61.129443 
L 363.764948 -57.720133 
L 363.682023 -58.908231 
L 363.598919 -59.892047 
L 363.515635 -60.115045 
L 363.43217 -58.588956 
L 363.348524 -58.541681 
L 363.264695 -60.209753 
L 363.180684 -60.670537 
L 363.096488 -58.634518 
L 363.012108 -62.072833 
L 362.927543 -60.197972 
L 362.842791 -60.529433 
L 362.757852 -59.309528 
L 362.672726 -60.177641 
L 362.58741 -60.686073 
L 362.501905 -59.37722 
L 362.41621 -61.378832 
L 362.330323 -60.384391 
L 362.244244 -60.353005 
L 362.157972 -61.43741 
L 362.071507 -60.640673 
L 361.984846 -60.952496 
L 361.89799 -60.458906 
L 361.810937 -60.572831 
L 361.723687 -61.250165 
L 361.636239 -62.917026 
L 361.548591 -61.978284 
L 361.460744 -61.606127 
L 361.372695 -61.034518 
L 361.284445 -59.962872 
L 361.195991 -60.850062 
L 361.107334 -63.519131 
L 361.018472 -62.559887 
L 360.929404 -61.988582 
L 360.84013 -63.345281 
L 360.750648 -62.180227 
L 360.660957 -61.660657 
L 360.571057 -61.306897 
L 360.480946 -61.321339 
L 360.390624 -61.771432 
L 360.300089 -62.62508 
L 360.209341 -61.978991 
L 360.118378 -64.154549 
L 360.0272 -61.984341 
L 359.935805 -62.50944 
L 359.844192 -60.402112 
L 359.752361 -62.473378 
L 359.66031 -63.01073 
L 359.568039 -62.263629 
L 359.475545 -60.274939 
L 359.382829 -62.500557 
L 359.289889 -63.220015 
L 359.196723 -63.961721 
L 359.103332 -62.747613 
L 359.009713 -63.338264 
L 358.915866 -62.133912 
L 358.82179 -64.319482 
L 358.727483 -64.19149 
L 358.632944 -65.765241 
L 358.538172 -63.106745 
L 358.443167 -63.824236 
L 358.347926 -63.231157 
L 358.252449 -63.503677 
L 358.156734 -63.138533 
L 358.060781 -64.366552 
L 357.964588 -64.209898 
L 357.868154 -62.378084 
L 357.771477 -65.725478 
L 357.674557 -64.262428 
L 357.577392 -63.767645 
L 357.479981 -62.905974 
L 357.382323 -64.367412 
L 357.284417 -65.714033 
L 357.186261 -65.516499 
L 357.087853 -63.845653 
L 356.989194 -64.551563 
L 356.89028 -65.301227 
L 356.791112 -65.529233 
L 356.691688 -65.652155 
L 356.592006 -66.577465 
L 356.492065 -65.007761 
L 356.391863 -64.224359 
L 356.2914 -64.349545 
L 356.190675 -66.4924 
L 356.089684 -66.789884 
L 355.988428 -66.469824 
L 355.886905 -66.118017 
L 355.785114 -65.385821 
L 355.683052 -63.884562 
L 355.580719 -66.051267 
L 355.478113 -65.357101 
L 355.375232 -65.839577 
L 355.272076 -67.281043 
L 355.168643 -65.454773 
L 355.06493 -67.542918 
L 354.960938 -67.847825 
L 354.856663 -67.229702 
L 354.752105 -66.142575 
L 354.647263 -65.360402 
L 354.542133 -67.219633 
L 354.436716 -66.097599 
L 354.331009 -66.328568 
L 354.225011 -66.016232 
L 354.118721 -65.990616 
L 354.012135 -67.133895 
L 353.905254 -66.239452 
L 353.798075 -67.847412 
L 353.690597 -66.066125 
L 353.582817 -66.937884 
L 353.474735 -66.573871 
L 353.366348 -68.350255 
L 353.257655 -67.98849 
L 353.148655 -67.017554 
L 353.039344 -66.808517 
L 352.929722 -66.51711 
L 352.819787 -67.105751 
L 352.709537 -66.642288 
L 352.59897 -67.811388 
L 352.488085 -66.658567 
L 352.376879 -66.542851 
L 352.265351 -68.348491 
L 352.153498 -65.614709 
L 352.041319 -66.651081 
L 351.928813 -69.132354 
L 351.815976 -67.120035 
L 351.702808 -67.169093 
L 351.589305 -67.311631 
L 351.475467 -67.081543 
L 351.361291 -66.132765 
L 351.246776 -67.688663 
L 351.131918 -66.826604 
L 351.016717 -68.155933 
L 350.901169 -67.984027 
L 350.785274 -68.97005 
L 350.669028 -66.764617 
L 350.552431 -67.898279 
L 350.435478 -68.675486 
L 350.31817 -69.815733 
L 350.200502 -67.320486 
L 350.082474 -68.444435 
L 349.964082 -70.045605 
L 349.845325 -68.843901 
L 349.7262 -69.15566 
L 349.606706 -68.416873 
L 349.486839 -68.466175 
L 349.366597 -69.409921 
L 349.245979 -68.926664 
L 349.124981 -70.195435 
L 349.003602 -69.139148 
L 348.881838 -69.273818 
L 348.759688 -69.342631 
L 348.637149 -69.711746 
L 348.514218 -71.080646 
L 348.390894 -68.724083 
L 348.267172 -67.95245 
L 348.143052 -71.308161 
L 348.01853 -69.531516 
L 347.893604 -69.63271 
L 347.768271 -69.126693 
L 347.642528 -70.404096 
L 347.516373 -70.608853 
L 347.389803 -69.396904 
L 347.262815 -71.224136 
L 347.135407 -69.408629 
L 347.007576 -71.088691 
L 346.879318 -72.573898 
L 346.750631 -69.562208 
L 346.621513 -69.396558 
L 346.49196 -69.672527 
L 346.361969 -69.681502 
L 346.231538 -71.376941 
L 346.100662 -69.838287 
L 345.969341 -69.1181 
L 345.837569 -70.92381 
L 345.705345 -70.341568 
L 345.572664 -70.748005 
L 345.439525 -69.911441 
L 345.305923 -73.534155 
L 345.171856 -72.938425 
L 345.03732 -73.558266 
L 344.902312 -72.723479 
L 344.766829 -73.217066 
L 344.630867 -72.503934 
L 344.494422 -72.222357 
L 344.357493 -71.610439 
L 344.220074 -73.037435 
L 344.082162 -72.955988 
L 343.943755 -71.357242 
L 343.804847 -74.117168 
L 343.665437 -73.261052 
L 343.52552 -71.669367 
L 343.385092 -72.724359 
L 343.244149 -73.078748 
L 343.102688 -72.986318 
L 342.960706 -72.83134 
L 342.818197 -74.48252 
L 342.675159 -73.174401 
L 342.531587 -72.152328 
L 342.387477 -75.050985 
L 342.242826 -75.198685 
L 342.097629 -72.656949 
L 341.951881 -73.408392 
L 341.80558 -77.035839 
L 341.65872 -74.099823 
L 341.511297 -74.292849 
L 341.363308 -75.582693 
L 341.214747 -73.25071 
L 341.06561 -73.049631 
L 340.915893 -75.096366 
L 340.765591 -75.570805 
L 340.614699 -77.035855 
L 340.463214 -74.204249 
L 340.31113 -77.108626 
L 340.158442 -77.089078 
L 340.005146 -75.672517 
L 339.851237 -73.901061 
L 339.69671 -75.842879 
L 339.541559 -74.926282 
L 339.385781 -74.931347 
L 339.229369 -76.859683 
L 339.072319 -74.607159 
L 338.914625 -76.320562 
L 338.756282 -74.408408 
L 338.597285 -78.083639 
L 338.437628 -77.002826 
L 338.277306 -76.325007 
L 338.116313 -74.142171 
L 337.954644 -74.963778 
L 337.792292 -76.323057 
L 337.629253 -76.335556 
L 337.46552 -75.683386 
L 337.301087 -75.674972 
L 337.135948 -77.6583 
L 336.970098 -75.924357 
L 336.803529 -77.740778 
L 336.636236 -77.013151 
L 336.468213 -77.310145 
L 336.299453 -78.30325 
L 336.12995 -77.448142 
L 335.959696 -76.808411 
L 335.788686 -79.094598 
L 335.616912 -80.712218 
L 335.444368 -80.031129 
L 335.271047 -79.626859 
L 335.096941 -80.2656 
L 334.922044 -78.77592 
L 334.746349 -79.235843 
L 334.569847 -77.783834 
L 334.392533 -80.596834 
L 334.214397 -78.71017 
L 334.035433 -81.167985 
L 333.855632 -79.827579 
L 333.674987 -78.554392 
L 333.493491 -78.375156 
L 333.311134 -80.319191 
L 333.127908 -80.112894 
L 332.943806 -82.044663 
L 332.758819 -81.087317 
L 332.572938 -80.144238 
L 332.386155 -78.923347 
L 332.198461 -79.974665 
L 332.009847 -80.928854 
L 331.820303 -79.531863 
L 331.629821 -80.735763 
L 331.438392 -80.256115 
L 331.246005 -81.522107 
L 331.052652 -80.809025 
L 330.858322 -81.310126 
L 330.663006 -83.000151 
L 330.466693 -80.729043 
L 330.269373 -81.222256 
L 330.071036 -82.826252 
L 329.871672 -81.464692 
L 329.671269 -83.733966 
L 329.469817 -83.680369 
L 329.267305 -83.399946 
L 329.063721 -83.504438 
L 328.859054 -83.843429 
L 328.653293 -81.869139 
L 328.446426 -85.022717 
L 328.23844 -83.87448 
L 328.029324 -84.519942 
L 327.819065 -84.237561 
L 327.607651 -81.759239 
L 327.395069 -84.765867 
L 327.181306 -83.983781 
L 326.966349 -82.357353 
L 326.750184 -83.698473 
L 326.532798 -84.116273 
L 326.314177 -83.546463 
L 326.094306 -85.389657 
L 325.873172 -85.733783 
L 325.650759 -86.013788 
L 325.427054 -85.725181 
L 325.20204 -86.293003 
L 324.975703 -86.543278 
L 324.748026 -85.729025 
L 324.518994 -88.248716 
L 324.288591 -86.266361 
L 324.056799 -86.520508 
L 323.823603 -86.836967 
L 323.588985 -87.236902 
L 323.352928 -88.363734 
L 323.115413 -84.553166 
L 322.876423 -87.695227 
L 322.635939 -87.19142 
L 322.393943 -87.711299 
L 322.150416 -87.778974 
L 321.905337 -89.329536 
L 321.658687 -86.27309 
L 321.410446 -89.567984 
L 321.160593 -89.689601 
L 320.909107 -88.054805 
L 320.655966 -90.122462 
L 320.401149 -89.853832 
L 320.144633 -88.935513 
L 319.886395 -90.432051 
L 319.626413 -91.304497 
L 319.364662 -91.878877 
L 319.101118 -92.372493 
L 318.835757 -92.379485 
L 318.568552 -90.000155 
L 318.29948 -91.985538 
L 318.028512 -89.818789 
L 317.755623 -92.190725 
L 317.480784 -90.966039 
L 317.203968 -93.646512 
L 316.925146 -93.003495 
L 316.644289 -93.314729 
L 316.361367 -93.217221 
L 316.076349 -91.842528 
L 315.789204 -92.670766 
L 315.4999 -93.210569 
L 315.208404 -92.9998 
L 314.914683 -93.628799 
L 314.618703 -93.393512 
L 314.320428 -96.012767 
L 314.019823 -94.409303 
L 313.716851 -96.540563 
L 313.411475 -95.383545 
L 313.103655 -96.574207 
L 312.793353 -94.913365 
L 312.480528 -96.380765 
L 312.165139 -95.208682 
L 311.847144 -93.912271 
L 311.526498 -96.412113 
L 311.203158 -94.57438 
L 310.877078 -95.536378 
L 310.54821 -97.162975 
L 310.216508 -98.832794 
L 309.881921 -99.371737 
L 309.544399 -97.917688 
L 309.20389 -98.388527 
L 308.860341 -99.59873 
L 308.513697 -98.261478 
L 308.163901 -99.221711 
L 307.810896 -99.284182 
L 307.454623 -101.882473 
L 307.09502 -99.47093 
L 306.732024 -100.887961 
L 306.365572 -102.925215 
L 305.995595 -102.309722 
L 305.622027 -101.137567 
L 305.244796 -103.212721 
L 304.86383 -101.301976 
L 304.479054 -102.826703 
L 304.090392 -102.366893 
L 303.697764 -104.139007 
L 303.301087 -102.375343 
L 302.900279 -106.337403 
L 302.495252 -105.653717 
L 302.085915 -103.810424 
L 301.672178 -106.52159 
L 301.253943 -107.358358 
L 300.831111 -107.305825 
L 300.403582 -108.716408 
L 299.971249 -108.254432 
L 299.534003 -109.064633 
L 299.091731 -109.291933 
L 298.644316 -111.495899 
L 298.191637 -110.956209 
L 297.733569 -110.977495 
L 297.269982 -111.712311 
L 296.800742 -112.390548 
L 296.325708 -114.060835 
L 295.844736 -113.729722 
L 295.357676 -114.961401 
L 294.864371 -117.612968 
L 294.364659 -112.831708 
L 293.858373 -114.403826 
L 293.345335 -118.625342 
L 292.825364 -116.378662 
L 292.29827 -117.470755 
L 291.763856 -119.361241 
L 291.221914 -117.360282 
L 290.672229 -118.088143 
L 290.114578 -121.280674 
L 289.548726 -120.952814 
L 288.974428 -119.503067 
L 288.391428 -121.0297 
L 287.799459 -122.503808 
L 287.19824 -122.55406 
L 286.587477 -122.879547 
L 285.966863 -123.895301 
L 285.336074 -124.899185 
L 284.694772 -124.895573 
L 284.0426 -125.858741 
L 283.379182 -126.768019 
L 282.704126 -126.170234 
L 282.017014 -129.663186 
L 281.317408 -128.850645 
L 280.604846 -128.907523 
L 279.878839 -128.020961 
L 279.138869 -130.931309 
L 278.384389 -129.118913 
L 277.614818 -130.00908 
L 276.829541 -132.120178 
L 276.027903 -133.850371 
L 275.209207 -132.547405 
L 274.372712 -133.561036 
L 273.517627 -133.739709 
L 272.643106 -133.581297 
L 271.748246 -135.921127 
L 270.832078 -136.801731 
L 269.893562 -138.760631 
L 268.931581 -139.066663 
L 267.944931 -139.944441 
L 266.932313 -141.293538 
L 265.892324 -140.10729 
L 264.823443 -141.337863 
L 263.724018 -143.25233 
L 262.592253 -143.192053 
L 261.426186 -144.084332 
L 260.223675 -145.827973 
L 258.982365 -146.077046 
L 257.699672 -146.203595 
L 256.372739 -148.060506 
L 254.998405 -147.728012 
L 253.573159 -147.512795 
L 252.093082 -148.603575 
L 250.553787 -150.375252 
L 248.950336 -150.382401 
L 247.277149 -152.165679 
L 245.527882 -152.180703 
L 243.695286 -152.711395 
L 241.771022 -152.456134 
L 239.745437 -153.103578 
L 237.607262 -153.863939 
L 235.343241 -154.02402 
L 232.93763 -154.59777 
L 230.371529 -155.219511 
L 227.621985 -154.927666 
L 224.660736 -155.441881 
L 221.452441 -155.118094 
L 217.952098 -155.097865 
L 214.101162 -155.36792 
L 209.821505 -154.850392 
L 205.005572 -154.871256 
L 199.499445 -154.634624 
L 193.071664 -154.828169 
L 185.350408 -154.697194 
L 175.68052 -155.269676 
L 162.733995 -155.572037 
L 153.761336 -155.600675 
L 153.370701 -155.633277 
L 152.976059 -155.725192 
L 152.577327 -155.955248 
L 152.17442 -155.558279 
L 151.76725 -155.945885 
L 151.355725 -155.549775 
L 150.93975 -155.478858 
L 150.51923 -155.95095 
L 150.094063 -155.684461 
L 149.664145 -155.698615 
L 149.229369 -155.452325 
L 148.789624 -155.668982 
L 148.344796 -155.847642 
L 147.894764 -155.750782 
L 147.439407 -155.958349 
L 146.978596 -155.822842 
L 146.512199 -155.940103 
L 146.04008 -155.977467 
L 145.562096 -156.079424 
L 145.078099 -155.667539 
L 144.587936 -155.846224 
L 144.091448 -156.01663 
L 143.588471 -156.038645 
L 143.078831 -155.779201 
L 142.56235 -155.945036 
L 142.038842 -155.857053 
L 141.508113 -156.101994 
L 140.969961 -155.972172 
L 140.424175 -156.172126 
L 139.870536 -155.989689 
L 139.308814 -156.289856 
L 138.738771 -156.15133 
L 138.160155 -156.375735 
L 137.572704 -156.310674 
L 136.976146 -156.350534 
L 136.370192 -156.175993 
L 135.754543 -156.306585 
L 135.128883 -156.211874 
L 134.492881 -156.552241 
L 133.84619 -156.386436 
L 133.188443 -156.558663 
L 132.519256 -156.404633 
L 131.838225 -156.63989 
L 131.144923 -156.397049 
L 130.438899 -156.638343 
L 129.719677 -156.61025 
L 128.986755 -156.712687 
L 128.2396 -156.612905 
L 127.47765 -156.695614 
L 126.700305 -156.802186 
L 125.906932 -156.979532 
L 125.096854 -157.063984 
L 124.269355 -157.041494 
L 123.423667 -157.309241 
L 122.558973 -156.992764 
L 121.6744 -157.199571 
L 120.769011 -157.25233 
L 119.841804 -157.182101 
L 118.8917 -157.448293 
L 117.91754 -157.570798 
L 116.918075 -157.476236 
L 115.891954 -157.684116 
L 114.837717 -158.180386 
L 113.753779 -157.858883 
L 112.638419 -157.98111 
L 111.489759 -158.270284 
L 110.30575 -158.365412 
L 109.084148 -158.479029 
L 107.822486 -158.230055 
L 106.518047 -158.54371 
L 105.16783 -158.983077 
L 103.768503 -158.869129 
L 102.316359 -159.257541 
L 100.807254 -159.56228 
L 99.236536 -159.63427 
L 97.598959 -160.564728 
L 95.888578 -160.463841 
L 94.098615 -160.485544 
L 92.221304 -160.672598 
L 90.247679 -161.427925 
L 88.167321 -161.224839 
L 85.968023 -161.677319 
L 83.635354 -162.365223 
L 81.15209 -162.945476 
L 78.497434 -164.141796 
L 75.645963 -165.178968 
L 72.56614 -166.326479 
L 69.218182 -165.758827 
z
" style="stroke: #ff0000; stroke-opacity: 0.2"/>
    </defs>
    <g clip-path="url(#pbd68060d01)">
     <use xlink:href="#maea0694b49" x="0" y="288" style="fill: #ff0000; fill-opacity: 0.2; stroke: #ff0000; stroke-opacity: 0.2"/>
    </g>
   </g>
   <g id="matplotlib.axis_1">
    <g id="xtick_1">
     <g id="line2d_1">
      <defs>
       <path id="m8eae288b87" d="M 0 0 
L 0 3.5 
" style="stroke: #000000; stroke-width: 0.8"/>
      </defs>
      <g>
       <use xlink:href="#m8eae288b87" x="65.550908" y="252" style="stroke: #000000; stroke-width: 0.8"/>
      </g>
     </g>
     <g id="text_1">
      <!-- $\mathdefault{10^{1}}$ -->
      <g transform="translate(56.750908 266.598437)scale(0.1 -0.1)">
       <defs>
        <path id="DejaVuSans-31" d="M 794 531 
L 1825 531 
L 1825 4091 
L 703 3866 
L 703 4441 
L 1819 4666 
L 2450 4666 
L 2450 531 
L 3481 531 
L 3481 0 
L 794 0 
L 794 531 
z
" transform="scale(0.015625)"/>
        <path id="DejaVuSans-30" d="M 2034 4250 
Q 1547 4250 1301 3770 
Q 1056 3291 1056 2328 
Q 1056 1369 1301 889 
Q 1547 409 2034 409 
Q 2525 409 2770 889 
Q 3016 1369 3016 2328 
Q 3016 3291 2770 3770 
Q 2525 4250 2034 4250 
z
M 2034 4750 
Q 2819 4750 3233 4129 
Q 3647 3509 3647 2328 
Q 3647 1150 3233 529 
Q 2819 -91 2034 -91 
Q 1250 -91 836 529 
Q 422 1150 422 2328 
Q 422 3509 836 4129 
Q 1250 4750 2034 4750 
z
" transform="scale(0.015625)"/>
       </defs>
       <use xlink:href="#DejaVuSans-31" transform="translate(0 0.684375)"/>
       <use xlink:href="#DejaVuSans-30" transform="translate(63.623047 0.684375)"/>
       <use xlink:href="#DejaVuSans-31" transform="translate(128.203125 38.965625)scale(0.7)"/>
      </g>
     </g>
    </g>
    <g id="xtick_2">
     <g id="line2d_2">
      <g>
       <use xlink:href="#m8eae288b87" x="154.148045" y="252" style="stroke: #000000; stroke-width: 0.8"/>
      </g>
     </g>
     <g id="text_2">
      <!-- $\mathdefault{10^{2}}$ -->
      <g transform="translate(145.348045 266.598437)scale(0.1 -0.1)">
       <defs>
        <path id="DejaVuSans-32" d="M 1228 531 
L 3431 531 
L 3431 0 
L 469 0 
L 469 531 
Q 828 903 1448 1529 
Q 2069 2156 2228 2338 
Q 2531 2678 2651 2914 
Q 2772 3150 2772 3378 
Q 2772 3750 2511 3984 
Q 2250 4219 1831 4219 
Q 1534 4219 1204 4116 
Q 875 4013 500 3803 
L 500 4441 
Q 881 4594 1212 4672 
Q 1544 4750 1819 4750 
Q 2544 4750 2975 4387 
Q 3406 4025 3406 3419 
Q 3406 3131 3298 2873 
Q 3191 2616 2906 2266 
Q 2828 2175 2409 1742 
Q 1991 1309 1228 531 
z
" transform="scale(0.015625)"/>
       </defs>
       <use xlink:href="#DejaVuSans-31" transform="translate(0 0.765625)"/>
       <use xlink:href="#DejaVuSans-30" transform="translate(63.623047 0.765625)"/>
       <use xlink:href="#DejaVuSans-32" transform="translate(128.203125 39.046875)scale(0.7)"/>
      </g>
     </g>
    </g>
    <g id="xtick_3">
     <g id="line2d_3">
      <g>
       <use xlink:href="#m8eae288b87" x="242.745182" y="252" style="stroke: #000000; stroke-width: 0.8"/>
      </g>
     </g>
     <g id="text_3">
      <!-- $\mathdefault{10^{3}}$ -->
      <g transform="translate(233.945182 266.598437)scale(0.1 -0.1)">
       <defs>
        <path id="DejaVuSans-33" d="M 2597 2516 
Q 3050 2419 3304 2112 
Q 3559 1806 3559 1356 
Q 3559 666 3084 287 
Q 2609 -91 1734 -91 
Q 1441 -91 1130 -33 
Q 819 25 488 141 
L 488 750 
Q 750 597 1062 519 
Q 1375 441 1716 441 
Q 2309 441 2620 675 
Q 2931 909 2931 1356 
Q 2931 1769 2642 2001 
Q 2353 2234 1838 2234 
L 1294 2234 
L 1294 2753 
L 1863 2753 
Q 2328 2753 2575 2939 
Q 2822 3125 2822 3475 
Q 2822 3834 2567 4026 
Q 2313 4219 1838 4219 
Q 1578 4219 1281 4162 
Q 984 4106 628 3988 
L 628 4550 
Q 988 4650 1302 4700 
Q 1616 4750 1894 4750 
Q 2613 4750 3031 4423 
Q 3450 4097 3450 3541 
Q 3450 3153 3228 2886 
Q 3006 2619 2597 2516 
z
" transform="scale(0.015625)"/>
       </defs>
       <use xlink:href="#DejaVuSans-31" transform="translate(0 0.765625)"/>
       <use xlink:href="#DejaVuSans-30" transform="translate(63.623047 0.765625)"/>
       <use xlink:href="#DejaVuSans-33" transform="translate(128.203125 39.046875)scale(0.7)"/>
      </g>
     </g>
    </g>
    <g id="xtick_4">
     <g id="line2d_4">
      <g>
       <use xlink:href="#m8eae288b87" x="331.342319" y="252" style="stroke: #000000; stroke-width: 0.8"/>
      </g>
     </g>
     <g id="text_4">
      <!-- $\mathdefault{10^{4}}$ -->
      <g transform="translate(322.542319 266.598437)scale(0.1 -0.1)">
       <defs>
        <path id="DejaVuSans-34" d="M 2419 4116 
L 825 1625 
L 2419 1625 
L 2419 4116 
z
M 2253 4666 
L 3047 4666 
L 3047 1625 
L 3713 1625 
L 3713 1100 
L 3047 1100 
L 3047 0 
L 2419 0 
L 2419 1100 
L 313 1100 
L 313 1709 
L 2253 4666 
z
" transform="scale(0.015625)"/>
       </defs>
       <use xlink:href="#DejaVuSans-31" transform="translate(0 0.684375)"/>
       <use xlink:href="#DejaVuSans-30" transform="translate(63.623047 0.684375)"/>
       <use xlink:href="#DejaVuSans-34" transform="translate(128.203125 38.965625)scale(0.7)"/>
      </g>
     </g>
    </g>
    <g id="xtick_5">
     <g id="line2d_5">
      <defs>
       <path id="m007a7f0fbe" d="M 0 0 
L 0 2 
" style="stroke: #000000; stroke-width: 0.6"/>
      </defs>
      <g>
       <use xlink:href="#m007a7f0fbe" x="56.964959" y="252" style="stroke: #000000; stroke-width: 0.6"/>
      </g>
     </g>
    </g>
    <g id="xtick_6">
     <g id="line2d_6">
      <g>
       <use xlink:href="#m007a7f0fbe" x="61.496926" y="252" style="stroke: #000000; stroke-width: 0.6"/>
      </g>
     </g>
    </g>
    <g id="xtick_7">
     <g id="line2d_7">
      <g>
       <use xlink:href="#m007a7f0fbe" x="92.221304" y="252" style="stroke: #000000; stroke-width: 0.6"/>
      </g>
     </g>
    </g>
    <g id="xtick_8">
     <g id="line2d_8">
      <g>
       <use xlink:href="#m007a7f0fbe" x="107.822486" y="252" style="stroke: #000000; stroke-width: 0.6"/>
      </g>
     </g>
    </g>
    <g id="xtick_9">
     <g id="line2d_9">
      <g>
       <use xlink:href="#m007a7f0fbe" x="118.8917" y="252" style="stroke: #000000; stroke-width: 0.6"/>
      </g>
     </g>
    </g>
    <g id="xtick_10">
     <g id="line2d_10">
      <g>
       <use xlink:href="#m007a7f0fbe" x="127.47765" y="252" style="stroke: #000000; stroke-width: 0.6"/>
      </g>
     </g>
    </g>
    <g id="xtick_11">
     <g id="line2d_11">
      <g>
       <use xlink:href="#m007a7f0fbe" x="134.492881" y="252" style="stroke: #000000; stroke-width: 0.6"/>
      </g>
     </g>
    </g>
    <g id="xtick_12">
     <g id="line2d_12">
      <g>
       <use xlink:href="#m007a7f0fbe" x="140.424175" y="252" style="stroke: #000000; stroke-width: 0.6"/>
      </g>
     </g>
    </g>
    <g id="xtick_13">
     <g id="line2d_13">
      <g>
       <use xlink:href="#m007a7f0fbe" x="145.562096" y="252" style="stroke: #000000; stroke-width: 0.6"/>
      </g>
     </g>
    </g>
    <g id="xtick_14">
     <g id="line2d_14">
      <g>
       <use xlink:href="#m007a7f0fbe" x="150.094063" y="252" style="stroke: #000000; stroke-width: 0.6"/>
      </g>
     </g>
    </g>
    <g id="xtick_15">
     <g id="line2d_15">
      <g>
       <use xlink:href="#m007a7f0fbe" x="180.818441" y="252" style="stroke: #000000; stroke-width: 0.6"/>
      </g>
     </g>
    </g>
    <g id="xtick_16">
     <g id="line2d_16">
      <g>
       <use xlink:href="#m007a7f0fbe" x="196.419622" y="252" style="stroke: #000000; stroke-width: 0.6"/>
      </g>
     </g>
    </g>
    <g id="xtick_17">
     <g id="line2d_17">
      <g>
       <use xlink:href="#m007a7f0fbe" x="207.488837" y="252" style="stroke: #000000; stroke-width: 0.6"/>
      </g>
     </g>
    </g>
    <g id="xtick_18">
     <g id="line2d_18">
      <g>
       <use xlink:href="#m007a7f0fbe" x="216.074786" y="252" style="stroke: #000000; stroke-width: 0.6"/>
      </g>
     </g>
    </g>
    <g id="xtick_19">
     <g id="line2d_19">
      <g>
       <use xlink:href="#m007a7f0fbe" x="223.090018" y="252" style="stroke: #000000; stroke-width: 0.6"/>
      </g>
     </g>
    </g>
    <g id="xtick_20">
     <g id="line2d_20">
      <g>
       <use xlink:href="#m007a7f0fbe" x="229.021312" y="252" style="stroke: #000000; stroke-width: 0.6"/>
      </g>
     </g>
    </g>
    <g id="xtick_21">
     <g id="line2d_21">
      <g>
       <use xlink:href="#m007a7f0fbe" x="234.159232" y="252" style="stroke: #000000; stroke-width: 0.6"/>
      </g>
     </g>
    </g>
    <g id="xtick_22">
     <g id="line2d_22">
      <g>
       <use xlink:href="#m007a7f0fbe" x="238.691199" y="252" style="stroke: #000000; stroke-width: 0.6"/>
      </g>
     </g>
    </g>
    <g id="xtick_23">
     <g id="line2d_23">
      <g>
       <use xlink:href="#m007a7f0fbe" x="269.415578" y="252" style="stroke: #000000; stroke-width: 0.6"/>
      </g>
     </g>
    </g>
    <g id="xtick_24">
     <g id="line2d_24">
      <g>
       <use xlink:href="#m007a7f0fbe" x="285.016759" y="252" style="stroke: #000000; stroke-width: 0.6"/>
      </g>
     </g>
    </g>
    <g id="xtick_25">
     <g id="line2d_25">
      <g>
       <use xlink:href="#m007a7f0fbe" x="296.085973" y="252" style="stroke: #000000; stroke-width: 0.6"/>
      </g>
     </g>
    </g>
    <g id="xtick_26">
     <g id="line2d_26">
      <g>
       <use xlink:href="#m007a7f0fbe" x="304.671923" y="252" style="stroke: #000000; stroke-width: 0.6"/>
      </g>
     </g>
    </g>
    <g id="xtick_27">
     <g id="line2d_27">
      <g>
       <use xlink:href="#m007a7f0fbe" x="311.687155" y="252" style="stroke: #000000; stroke-width: 0.6"/>
      </g>
     </g>
    </g>
    <g id="xtick_28">
     <g id="line2d_28">
      <g>
       <use xlink:href="#m007a7f0fbe" x="317.618449" y="252" style="stroke: #000000; stroke-width: 0.6"/>
      </g>
     </g>
    </g>
    <g id="xtick_29">
     <g id="line2d_29">
      <g>
       <use xlink:href="#m007a7f0fbe" x="322.756369" y="252" style="stroke: #000000; stroke-width: 0.6"/>
      </g>
     </g>
    </g>
    <g id="xtick_30">
     <g id="line2d_30">
      <g>
       <use xlink:href="#m007a7f0fbe" x="327.288336" y="252" style="stroke: #000000; stroke-width: 0.6"/>
      </g>
     </g>
    </g>
    <g id="xtick_31">
     <g id="line2d_31">
      <g>
       <use xlink:href="#m007a7f0fbe" x="358.012715" y="252" style="stroke: #000000; stroke-width: 0.6"/>
      </g>
     </g>
    </g>
    <g id="xtick_32">
     <g id="line2d_32">
      <g>
       <use xlink:href="#m007a7f0fbe" x="373.613896" y="252" style="stroke: #000000; stroke-width: 0.6"/>
      </g>
     </g>
    </g>
    <g id="xtick_33">
     <g id="line2d_33">
      <g>
       <use xlink:href="#m007a7f0fbe" x="384.68311" y="252" style="stroke: #000000; stroke-width: 0.6"/>
      </g>
     </g>
    </g>
    <g id="text_5">
     <!-- Resources -->
     <g transform="translate(195.867969 280.276563)scale(0.1 -0.1)">
      <defs>
       <path id="DejaVuSans-52" d="M 2841 2188 
Q 3044 2119 3236 1894 
Q 3428 1669 3622 1275 
L 4263 0 
L 3584 0 
L 2988 1197 
Q 2756 1666 2539 1819 
Q 2322 1972 1947 1972 
L 1259 1972 
L 1259 0 
L 628 0 
L 628 4666 
L 2053 4666 
Q 2853 4666 3247 4331 
Q 3641 3997 3641 3322 
Q 3641 2881 3436 2590 
Q 3231 2300 2841 2188 
z
M 1259 4147 
L 1259 2491 
L 2053 2491 
Q 2509 2491 2742 2702 
Q 2975 2913 2975 3322 
Q 2975 3731 2742 3939 
Q 2509 4147 2053 4147 
L 1259 4147 
z
" transform="scale(0.015625)"/>
       <path id="DejaVuSans-65" d="M 3597 1894 
L 3597 1613 
L 953 1613 
Q 991 1019 1311 708 
Q 1631 397 2203 397 
Q 2534 397 2845 478 
Q 3156 559 3463 722 
L 3463 178 
Q 3153 47 2828 -22 
Q 2503 -91 2169 -91 
Q 1331 -91 842 396 
Q 353 884 353 1716 
Q 353 2575 817 3079 
Q 1281 3584 2069 3584 
Q 2775 3584 3186 3129 
Q 3597 2675 3597 1894 
z
M 3022 2063 
Q 3016 2534 2758 2815 
Q 2500 3097 2075 3097 
Q 1594 3097 1305 2825 
Q 1016 2553 972 2059 
L 3022 2063 
z
" transform="scale(0.015625)"/>
       <path id="DejaVuSans-73" d="M 2834 3397 
L 2834 2853 
Q 2591 2978 2328 3040 
Q 2066 3103 1784 3103 
Q 1356 3103 1142 2972 
Q 928 2841 928 2578 
Q 928 2378 1081 2264 
Q 1234 2150 1697 2047 
L 1894 2003 
Q 2506 1872 2764 1633 
Q 3022 1394 3022 966 
Q 3022 478 2636 193 
Q 2250 -91 1575 -91 
Q 1294 -91 989 -36 
Q 684 19 347 128 
L 347 722 
Q 666 556 975 473 
Q 1284 391 1588 391 
Q 1994 391 2212 530 
Q 2431 669 2431 922 
Q 2431 1156 2273 1281 
Q 2116 1406 1581 1522 
L 1381 1569 
Q 847 1681 609 1914 
Q 372 2147 372 2553 
Q 372 3047 722 3315 
Q 1072 3584 1716 3584 
Q 2034 3584 2315 3537 
Q 2597 3491 2834 3397 
z
" transform="scale(0.015625)"/>
       <path id="DejaVuSans-6f" d="M 1959 3097 
Q 1497 3097 1228 2736 
Q 959 2375 959 1747 
Q 959 1119 1226 758 
Q 1494 397 1959 397 
Q 2419 397 2687 759 
Q 2956 1122 2956 1747 
Q 2956 2369 2687 2733 
Q 2419 3097 1959 3097 
z
M 1959 3584 
Q 2709 3584 3137 3096 
Q 3566 2609 3566 1747 
Q 3566 888 3137 398 
Q 2709 -91 1959 -91 
Q 1206 -91 779 398 
Q 353 888 353 1747 
Q 353 2609 779 3096 
Q 1206 3584 1959 3584 
z
" transform="scale(0.015625)"/>
       <path id="DejaVuSans-75" d="M 544 1381 
L 544 3500 
L 1119 3500 
L 1119 1403 
Q 1119 906 1312 657 
Q 1506 409 1894 409 
Q 2359 409 2629 706 
Q 2900 1003 2900 1516 
L 2900 3500 
L 3475 3500 
L 3475 0 
L 2900 0 
L 2900 538 
Q 2691 219 2414 64 
Q 2138 -91 1772 -91 
Q 1169 -91 856 284 
Q 544 659 544 1381 
z
M 1991 3584 
L 1991 3584 
z
" transform="scale(0.015625)"/>
       <path id="DejaVuSans-72" d="M 2631 2963 
Q 2534 3019 2420 3045 
Q 2306 3072 2169 3072 
Q 1681 3072 1420 2755 
Q 1159 2438 1159 1844 
L 1159 0 
L 581 0 
L 581 3500 
L 1159 3500 
L 1159 2956 
Q 1341 3275 1631 3429 
Q 1922 3584 2338 3584 
Q 2397 3584 2469 3576 
Q 2541 3569 2628 3553 
L 2631 2963 
z
" transform="scale(0.015625)"/>
       <path id="DejaVuSans-63" d="M 3122 3366 
L 3122 2828 
Q 2878 2963 2633 3030 
Q 2388 3097 2138 3097 
Q 1578 3097 1268 2742 
Q 959 2388 959 1747 
Q 959 1106 1268 751 
Q 1578 397 2138 397 
Q 2388 397 2633 464 
Q 2878 531 3122 666 
L 3122 134 
Q 2881 22 2623 -34 
Q 2366 -91 2075 -91 
Q 1284 -91 818 406 
Q 353 903 353 1747 
Q 353 2603 823 3093 
Q 1294 3584 2113 3584 
Q 2378 3584 2631 3529 
Q 2884 3475 3122 3366 
z
" transform="scale(0.015625)"/>
      </defs>
      <use xlink:href="#DejaVuSans-52"/>
      <use xlink:href="#DejaVuSans-65" x="64.982422"/>
      <use xlink:href="#DejaVuSans-73" x="126.505859"/>
      <use xlink:href="#DejaVuSans-6f" x="178.605469"/>
      <use xlink:href="#DejaVuSans-75" x="239.787109"/>
      <use xlink:href="#DejaVuSans-72" x="303.166016"/>
      <use xlink:href="#DejaVuSans-63" x="342.029297"/>
      <use xlink:href="#DejaVuSans-65" x="397.009766"/>
      <use xlink:href="#DejaVuSans-73" x="458.533203"/>
     </g>
    </g>
   </g>
   <g id="matplotlib.axis_2">
    <g id="ytick_1">
     <g id="line2d_34">
      <defs>
       <path id="mf55d4080f8" d="M 0 0 
L -3.5 0 
" style="stroke: #000000; stroke-width: 0.8"/>
      </defs>
      <g>
       <use xlink:href="#mf55d4080f8" x="54" y="237.236646" style="stroke: #000000; stroke-width: 0.8"/>
      </g>
     </g>
     <g id="text_6">
      <!-- $\mathdefault{10^{-3}}$ -->
      <g transform="translate(23.5 241.035865)scale(0.1 -0.1)">
       <defs>
        <path id="DejaVuSans-2212" d="M 678 2272 
L 4684 2272 
L 4684 1741 
L 678 1741 
L 678 2272 
z
" transform="scale(0.015625)"/>
       </defs>
       <use xlink:href="#DejaVuSans-31" transform="translate(0 0.765625)"/>
       <use xlink:href="#DejaVuSans-30" transform="translate(63.623047 0.765625)"/>
       <use xlink:href="#DejaVuSans-2212" transform="translate(128.203125 39.046875)scale(0.7)"/>
       <use xlink:href="#DejaVuSans-33" transform="translate(186.855469 39.046875)scale(0.7)"/>
      </g>
     </g>
    </g>
    <g id="ytick_2">
     <g id="line2d_35">
      <g>
       <use xlink:href="#mf55d4080f8" x="54" y="179.69614" style="stroke: #000000; stroke-width: 0.8"/>
      </g>
     </g>
     <g id="text_7">
      <!-- $\mathdefault{10^{-2}}$ -->
      <g transform="translate(23.5 183.495359)scale(0.1 -0.1)">
       <use xlink:href="#DejaVuSans-31" transform="translate(0 0.765625)"/>
       <use xlink:href="#DejaVuSans-30" transform="translate(63.623047 0.765625)"/>
       <use xlink:href="#DejaVuSans-2212" transform="translate(128.203125 39.046875)scale(0.7)"/>
       <use xlink:href="#DejaVuSans-32" transform="translate(186.855469 39.046875)scale(0.7)"/>
      </g>
     </g>
    </g>
    <g id="ytick_3">
     <g id="line2d_36">
      <g>
       <use xlink:href="#mf55d4080f8" x="54" y="122.155634" style="stroke: #000000; stroke-width: 0.8"/>
      </g>
     </g>
     <g id="text_8">
      <!-- $\mathdefault{10^{-1}}$ -->
      <g transform="translate(23.5 125.954852)scale(0.1 -0.1)">
       <use xlink:href="#DejaVuSans-31" transform="translate(0 0.684375)"/>
       <use xlink:href="#DejaVuSans-30" transform="translate(63.623047 0.684375)"/>
       <use xlink:href="#DejaVuSans-2212" transform="translate(128.203125 38.965625)scale(0.7)"/>
       <use xlink:href="#DejaVuSans-31" transform="translate(186.855469 38.965625)scale(0.7)"/>
      </g>
     </g>
    </g>
    <g id="ytick_4">
     <g id="line2d_37">
      <g>
       <use xlink:href="#mf55d4080f8" x="54" y="64.615128" style="stroke: #000000; stroke-width: 0.8"/>
      </g>
     </g>
     <g id="text_9">
      <!-- $\mathdefault{10^{0}}$ -->
      <g transform="translate(29.4 68.414346)scale(0.1 -0.1)">
       <use xlink:href="#DejaVuSans-31" transform="translate(0 0.765625)"/>
       <use xlink:href="#DejaVuSans-30" transform="translate(63.623047 0.765625)"/>
       <use xlink:href="#DejaVuSans-30" transform="translate(128.203125 39.046875)scale(0.7)"/>
      </g>
     </g>
    </g>
    <g id="ytick_5">
     <g id="line2d_38">
      <defs>
       <path id="mf2cd973ff6" d="M 0 0 
L -2 0 
" style="stroke: #000000; stroke-width: 0.6"/>
      </defs>
      <g>
       <use xlink:href="#mf2cd973ff6" x="54" y="250.001935" style="stroke: #000000; stroke-width: 0.6"/>
      </g>
     </g>
    </g>
    <g id="ytick_6">
     <g id="line2d_39">
      <g>
       <use xlink:href="#mf2cd973ff6" x="54" y="246.149783" style="stroke: #000000; stroke-width: 0.6"/>
      </g>
     </g>
    </g>
    <g id="ytick_7">
     <g id="line2d_40">
      <g>
       <use xlink:href="#mf2cd973ff6" x="54" y="242.812897" style="stroke: #000000; stroke-width: 0.6"/>
      </g>
     </g>
    </g>
    <g id="ytick_8">
     <g id="line2d_41">
      <g>
       <use xlink:href="#mf2cd973ff6" x="54" y="239.869555" style="stroke: #000000; stroke-width: 0.6"/>
      </g>
     </g>
    </g>
    <g id="ytick_9">
     <g id="line2d_42">
      <g>
       <use xlink:href="#mf2cd973ff6" x="54" y="219.915228" style="stroke: #000000; stroke-width: 0.6"/>
      </g>
     </g>
    </g>
    <g id="ytick_10">
     <g id="line2d_43">
      <g>
       <use xlink:href="#mf2cd973ff6" x="54" y="209.782847" style="stroke: #000000; stroke-width: 0.6"/>
      </g>
     </g>
    </g>
    <g id="ytick_11">
     <g id="line2d_44">
      <g>
       <use xlink:href="#mf2cd973ff6" x="54" y="202.593809" style="stroke: #000000; stroke-width: 0.6"/>
      </g>
     </g>
    </g>
    <g id="ytick_12">
     <g id="line2d_45">
      <g>
       <use xlink:href="#mf2cd973ff6" x="54" y="197.017558" style="stroke: #000000; stroke-width: 0.6"/>
      </g>
     </g>
    </g>
    <g id="ytick_13">
     <g id="line2d_46">
      <g>
       <use xlink:href="#mf2cd973ff6" x="54" y="192.461429" style="stroke: #000000; stroke-width: 0.6"/>
      </g>
     </g>
    </g>
    <g id="ytick_14">
     <g id="line2d_47">
      <g>
       <use xlink:href="#mf2cd973ff6" x="54" y="188.609277" style="stroke: #000000; stroke-width: 0.6"/>
      </g>
     </g>
    </g>
    <g id="ytick_15">
     <g id="line2d_48">
      <g>
       <use xlink:href="#mf2cd973ff6" x="54" y="185.272391" style="stroke: #000000; stroke-width: 0.6"/>
      </g>
     </g>
    </g>
    <g id="ytick_16">
     <g id="line2d_49">
      <g>
       <use xlink:href="#mf2cd973ff6" x="54" y="182.329049" style="stroke: #000000; stroke-width: 0.6"/>
      </g>
     </g>
    </g>
    <g id="ytick_17">
     <g id="line2d_50">
      <g>
       <use xlink:href="#mf2cd973ff6" x="54" y="162.374722" style="stroke: #000000; stroke-width: 0.6"/>
      </g>
     </g>
    </g>
    <g id="ytick_18">
     <g id="line2d_51">
      <g>
       <use xlink:href="#mf2cd973ff6" x="54" y="152.242341" style="stroke: #000000; stroke-width: 0.6"/>
      </g>
     </g>
    </g>
    <g id="ytick_19">
     <g id="line2d_52">
      <g>
       <use xlink:href="#mf2cd973ff6" x="54" y="145.053303" style="stroke: #000000; stroke-width: 0.6"/>
      </g>
     </g>
    </g>
    <g id="ytick_20">
     <g id="line2d_53">
      <g>
       <use xlink:href="#mf2cd973ff6" x="54" y="139.477052" style="stroke: #000000; stroke-width: 0.6"/>
      </g>
     </g>
    </g>
    <g id="ytick_21">
     <g id="line2d_54">
      <g>
       <use xlink:href="#mf2cd973ff6" x="54" y="134.920923" style="stroke: #000000; stroke-width: 0.6"/>
      </g>
     </g>
    </g>
    <g id="ytick_22">
     <g id="line2d_55">
      <g>
       <use xlink:href="#mf2cd973ff6" x="54" y="131.068771" style="stroke: #000000; stroke-width: 0.6"/>
      </g>
     </g>
    </g>
    <g id="ytick_23">
     <g id="line2d_56">
      <g>
       <use xlink:href="#mf2cd973ff6" x="54" y="127.731885" style="stroke: #000000; stroke-width: 0.6"/>
      </g>
     </g>
    </g>
    <g id="ytick_24">
     <g id="line2d_57">
      <g>
       <use xlink:href="#mf2cd973ff6" x="54" y="124.788543" style="stroke: #000000; stroke-width: 0.6"/>
      </g>
     </g>
    </g>
    <g id="ytick_25">
     <g id="line2d_58">
      <g>
       <use xlink:href="#mf2cd973ff6" x="54" y="104.834215" style="stroke: #000000; stroke-width: 0.6"/>
      </g>
     </g>
    </g>
    <g id="ytick_26">
     <g id="line2d_59">
      <g>
       <use xlink:href="#mf2cd973ff6" x="54" y="94.701835" style="stroke: #000000; stroke-width: 0.6"/>
      </g>
     </g>
    </g>
    <g id="ytick_27">
     <g id="line2d_60">
      <g>
       <use xlink:href="#mf2cd973ff6" x="54" y="87.512797" style="stroke: #000000; stroke-width: 0.6"/>
      </g>
     </g>
    </g>
    <g id="ytick_28">
     <g id="line2d_61">
      <g>
       <use xlink:href="#mf2cd973ff6" x="54" y="81.936546" style="stroke: #000000; stroke-width: 0.6"/>
      </g>
     </g>
    </g>
    <g id="ytick_29">
     <g id="line2d_62">
      <g>
       <use xlink:href="#mf2cd973ff6" x="54" y="77.380417" style="stroke: #000000; stroke-width: 0.6"/>
      </g>
     </g>
    </g>
    <g id="ytick_30">
     <g id="line2d_63">
      <g>
       <use xlink:href="#mf2cd973ff6" x="54" y="73.528265" style="stroke: #000000; stroke-width: 0.6"/>
      </g>
     </g>
    </g>
    <g id="ytick_31">
     <g id="line2d_64">
      <g>
       <use xlink:href="#mf2cd973ff6" x="54" y="70.191379" style="stroke: #000000; stroke-width: 0.6"/>
      </g>
     </g>
    </g>
    <g id="ytick_32">
     <g id="line2d_65">
      <g>
       <use xlink:href="#mf2cd973ff6" x="54" y="67.248037" style="stroke: #000000; stroke-width: 0.6"/>
      </g>
     </g>
    </g>
    <g id="ytick_33">
     <g id="line2d_66">
      <g>
       <use xlink:href="#mf2cd973ff6" x="54" y="47.293709" style="stroke: #000000; stroke-width: 0.6"/>
      </g>
     </g>
    </g>
    <g id="ytick_34">
     <g id="line2d_67">
      <g>
       <use xlink:href="#mf2cd973ff6" x="54" y="37.161329" style="stroke: #000000; stroke-width: 0.6"/>
      </g>
     </g>
    </g>
    <g id="text_10">
     <!-- MSE -->
     <g transform="translate(17.420313 153.927656)rotate(-90)scale(0.1 -0.1)">
      <defs>
       <path id="DejaVuSans-4d" d="M 628 4666 
L 1569 4666 
L 2759 1491 
L 3956 4666 
L 4897 4666 
L 4897 0 
L 4281 0 
L 4281 4097 
L 3078 897 
L 2444 897 
L 1241 4097 
L 1241 0 
L 628 0 
L 628 4666 
z
" transform="scale(0.015625)"/>
       <path id="DejaVuSans-53" d="M 3425 4513 
L 3425 3897 
Q 3066 4069 2747 4153 
Q 2428 4238 2131 4238 
Q 1616 4238 1336 4038 
Q 1056 3838 1056 3469 
Q 1056 3159 1242 3001 
Q 1428 2844 1947 2747 
L 2328 2669 
Q 3034 2534 3370 2195 
Q 3706 1856 3706 1288 
Q 3706 609 3251 259 
Q 2797 -91 1919 -91 
Q 1588 -91 1214 -16 
Q 841 59 441 206 
L 441 856 
Q 825 641 1194 531 
Q 1563 422 1919 422 
Q 2459 422 2753 634 
Q 3047 847 3047 1241 
Q 3047 1584 2836 1778 
Q 2625 1972 2144 2069 
L 1759 2144 
Q 1053 2284 737 2584 
Q 422 2884 422 3419 
Q 422 4038 858 4394 
Q 1294 4750 2059 4750 
Q 2388 4750 2728 4690 
Q 3069 4631 3425 4513 
z
" transform="scale(0.015625)"/>
       <path id="DejaVuSans-45" d="M 628 4666 
L 3578 4666 
L 3578 4134 
L 1259 4134 
L 1259 2753 
L 3481 2753 
L 3481 2222 
L 1259 2222 
L 1259 531 
L 3634 531 
L 3634 0 
L 628 0 
L 628 4666 
z
" transform="scale(0.015625)"/>
      </defs>
      <use xlink:href="#DejaVuSans-4d"/>
      <use xlink:href="#DejaVuSans-53" x="86.279297"/>
      <use xlink:href="#DejaVuSans-45" x="149.755859"/>
     </g>
    </g>
   </g>
   <g id="line2d_68">
    <path d="M 69.218182 123.01889 
L 72.56614 122.926516 
L 75.645963 123.64559 
L 78.497434 124.512824 
L 81.15209 125.457228 
L 85.968023 126.916866 
L 88.167321 127.291416 
L 90.247679 127.264801 
L 92.221304 127.790267 
L 94.098615 127.81213 
L 95.888578 128.197616 
L 97.598959 127.955527 
L 99.236536 128.703942 
L 103.768503 129.374689 
L 105.16783 129.36579 
L 106.518047 129.845371 
L 107.822486 130.0648 
L 109.084148 129.884833 
L 110.30575 130.058344 
L 111.489759 130.069939 
L 113.753779 130.367502 
L 114.837717 130.140639 
L 115.891954 130.650907 
L 120.769011 131.054061 
L 121.6744 130.995216 
L 122.558973 131.23005 
L 123.423667 130.972554 
L 124.269355 131.205391 
L 125.096854 131.16994 
L 128.2396 131.602412 
L 131.144923 131.736373 
L 131.838225 131.605476 
L 132.519256 131.816469 
L 133.188443 131.56639 
L 133.84619 131.903361 
L 134.492881 131.70324 
L 135.128883 132.010426 
L 135.754543 131.955773 
L 136.370192 132.084696 
L 136.976146 131.852751 
L 138.160155 131.831423 
L 138.738771 132.100284 
L 139.308814 131.949381 
L 139.870536 132.256172 
L 140.424175 132.07141 
L 140.969961 132.306294 
L 141.508113 132.160464 
L 142.038842 132.307735 
L 142.56235 132.226667 
L 143.078831 132.471723 
L 143.588471 132.260428 
L 144.587936 132.358758 
L 145.078099 132.559417 
L 145.562096 132.240937 
L 146.978596 132.350573 
L 147.439407 132.253062 
L 147.894764 132.426881 
L 148.344796 132.351808 
L 149.229369 132.703195 
L 149.664145 132.495816 
L 150.094063 132.569669 
L 150.51923 132.24344 
L 150.93975 132.720214 
L 151.76725 132.338381 
L 152.17442 132.580085 
L 152.577327 132.345296 
L 153.370701 132.587972 
L 153.761336 132.602256 
L 162.733995 132.709237 
L 175.68052 133.056623 
L 185.350408 133.583886 
L 193.071664 133.458726 
L 199.499445 133.712352 
L 205.005572 133.380027 
L 209.821505 133.515098 
L 214.101162 133.07143 
L 217.952098 133.354934 
L 224.660736 133.049266 
L 227.621985 133.51818 
L 230.371529 133.357266 
L 235.343241 134.663757 
L 237.607262 134.881601 
L 241.771022 136.225396 
L 243.695286 136.104963 
L 245.527882 136.782863 
L 247.277149 137.020074 
L 248.950336 138.520627 
L 250.553787 138.796982 
L 252.093082 140.314574 
L 253.573159 141.458874 
L 254.998405 141.33208 
L 256.372739 141.623904 
L 257.699672 143.004534 
L 258.982365 143.561595 
L 260.223675 143.187844 
L 261.426186 145.238998 
L 262.592253 146.317654 
L 263.724018 146.057753 
L 265.892324 149.339041 
L 266.932313 148.206536 
L 267.944931 149.671936 
L 268.931581 150.693603 
L 269.893562 151.224766 
L 270.832078 152.803594 
L 271.748246 153.568711 
L 272.643106 155.64441 
L 274.372712 155.58256 
L 275.209207 156.928148 
L 276.027903 156.847968 
L 276.829541 157.914578 
L 277.614818 159.694876 
L 278.384389 159.978385 
L 279.138869 159.067353 
L 279.878839 161.435997 
L 282.017014 160.315452 
L 282.704126 163.036663 
L 283.379182 163.600006 
L 284.0426 164.871725 
L 284.694772 165.058396 
L 285.336074 165.111783 
L 285.966863 165.584872 
L 286.587477 167.493965 
L 287.19824 167.669975 
L 287.799459 168.003082 
L 288.391428 169.768205 
L 288.974428 171.064504 
L 289.548726 169.504855 
L 290.114578 169.671531 
L 290.672229 172.734835 
L 291.221914 173.358718 
L 291.763856 171.837802 
L 292.825364 174.092898 
L 293.345335 172.950474 
L 293.858373 176.734039 
L 294.364659 177.640112 
L 294.864371 173.976411 
L 295.357676 175.687305 
L 295.844736 175.908899 
L 296.325708 176.808141 
L 296.800742 178.486333 
L 297.269982 178.31803 
L 297.733569 178.594164 
L 298.191637 180.404023 
L 298.644316 179.372668 
L 299.091731 181.119023 
L 299.534003 180.701863 
L 299.971249 182.332943 
L 300.403582 181.840346 
L 301.672178 184.117746 
L 302.085915 186.770976 
L 302.495252 184.027894 
L 302.900279 184.341315 
L 303.301087 188.185982 
L 303.697764 185.881885 
L 304.090392 187.486964 
L 304.479054 187.439225 
L 304.86383 188.505604 
L 305.244796 187.071979 
L 305.622027 188.793728 
L 305.995595 187.557273 
L 306.365572 187.924737 
L 306.732024 189.319177 
L 307.09502 190.2257 
L 307.454623 189.213742 
L 307.810896 190.448705 
L 308.163901 190.992805 
L 308.513697 191.936097 
L 308.860341 190.365225 
L 309.20389 191.722458 
L 309.544399 191.590812 
L 309.881921 191.197517 
L 310.216508 191.526182 
L 310.54821 193.047264 
L 310.877078 195.295989 
L 311.203158 195.301898 
L 311.526498 193.91472 
L 311.847144 195.780339 
L 312.480528 193.601093 
L 312.793353 195.097957 
L 313.103655 193.369751 
L 313.411475 195.459859 
L 313.716851 193.838203 
L 314.019823 195.679365 
L 314.320428 194.995516 
L 314.618703 196.46474 
L 314.914683 196.990715 
L 315.208404 197.04072 
L 315.4999 196.654111 
L 315.789204 197.290069 
L 316.076349 198.844834 
L 316.361367 196.963416 
L 316.925146 197.166927 
L 317.203968 196.322582 
L 317.480784 199.133866 
L 317.755623 197.649396 
L 318.028512 199.461295 
L 318.29948 197.892166 
L 318.568552 199.794938 
L 318.835757 197.461114 
L 319.364662 198.23726 
L 320.144633 201.058456 
L 320.401149 199.806766 
L 320.655966 199.600454 
L 320.909107 202.108082 
L 321.160593 200.133007 
L 321.410446 200.489654 
L 321.658687 203.21592 
L 321.905337 200.543511 
L 322.150416 202.351203 
L 322.635939 202.427762 
L 322.876423 201.531637 
L 323.115413 205.044044 
L 323.352928 202.263704 
L 323.588985 202.801715 
L 324.056799 202.829416 
L 324.288591 204.126187 
L 324.518994 201.998499 
L 324.748026 203.832423 
L 324.975703 203.73288 
L 325.427054 203.955755 
L 325.650759 203.92876 
L 325.873172 204.252281 
L 326.094306 204.18298 
L 326.314177 205.941115 
L 326.750184 206.108626 
L 326.966349 207.423066 
L 327.181306 205.701441 
L 327.395069 205.00755 
L 327.607651 207.4066 
L 327.819065 205.858996 
L 328.029324 205.929934 
L 328.23844 206.37782 
L 328.446426 205.340786 
L 328.653293 207.657674 
L 328.859054 206.260787 
L 329.063721 206.05848 
L 329.267305 206.586982 
L 329.469817 206.371412 
L 329.671269 206.55988 
L 329.871672 208.1396 
L 330.071036 207.094303 
L 330.466693 208.709874 
L 330.663006 207.345059 
L 331.052652 209.621435 
L 331.246005 208.736504 
L 331.438392 209.522932 
L 331.629821 208.939629 
L 331.820303 210.16998 
L 332.009847 208.705394 
L 332.198461 209.393429 
L 332.386155 210.62956 
L 332.758819 209.075194 
L 332.943806 208.07039 
L 333.127908 209.546078 
L 333.311134 209.970315 
L 333.674987 211.75493 
L 334.035433 209.314967 
L 334.214397 211.098681 
L 334.392533 209.923935 
L 334.569847 211.864124 
L 334.746349 210.64894 
L 334.922044 210.575174 
L 335.096941 209.628862 
L 335.271047 210.61051 
L 335.444368 210.888012 
L 335.616912 209.687353 
L 335.788686 210.813058 
L 335.959696 213.332897 
L 336.12995 211.926643 
L 336.299453 211.915961 
L 336.468213 212.347552 
L 336.636236 213.731958 
L 336.803529 212.553983 
L 336.970098 213.838468 
L 337.135948 212.429115 
L 337.301087 214.190175 
L 337.46552 214.077099 
L 337.629253 213.506384 
L 338.116313 214.74352 
L 338.437628 212.653144 
L 338.597285 212.356263 
L 338.756282 214.673787 
L 338.914625 213.23524 
L 339.072319 215.108989 
L 339.229369 212.885113 
L 339.385781 215.129362 
L 339.69671 214.528853 
L 339.851237 215.493297 
L 340.31113 212.814436 
L 340.463214 215.554063 
L 340.614699 213.268682 
L 341.06561 216.992315 
L 341.214747 216.398263 
L 341.363308 214.29931 
L 341.65872 215.850801 
L 341.80558 214.549267 
L 342.097629 217.009531 
L 342.242826 215.745345 
L 342.387477 215.965027 
L 342.531587 217.268205 
L 342.818197 215.791836 
L 343.102688 217.585592 
L 343.385092 216.489135 
L 343.52552 217.911651 
L 343.804847 216.166541 
L 343.943755 217.758966 
L 344.082162 217.460038 
L 344.220074 216.506859 
L 344.357493 218.568173 
L 344.494422 217.51438 
L 344.630867 217.515378 
L 345.03732 216.31821 
L 345.171856 217.105103 
L 345.305923 216.563178 
L 345.439525 219.176615 
L 345.572664 218.602992 
L 345.705345 219.330965 
L 345.837569 218.811642 
L 345.969341 220.279226 
L 346.100662 219.893062 
L 346.231538 218.382348 
L 346.361969 220.278784 
L 346.621513 220.141645 
L 346.750631 220.518096 
L 346.879318 217.525162 
L 347.135407 219.837192 
L 347.262815 218.880369 
L 347.389803 219.935902 
L 347.516373 218.925663 
L 347.642528 219.382736 
L 347.768271 220.292821 
L 347.893604 219.654642 
L 348.01853 220.198604 
L 348.143052 218.741328 
L 348.267172 221.175036 
L 348.390894 220.864724 
L 348.514218 219.262202 
L 348.759688 220.990507 
L 349.003602 220.274636 
L 349.124981 220.124019 
L 349.366597 221.24263 
L 349.486839 220.873606 
L 349.606706 221.428653 
L 349.7262 220.39793 
L 349.845325 221.079976 
L 349.964082 220.073506 
L 350.200502 222.899725 
L 350.31817 220.522948 
L 350.552431 221.820266 
L 350.669028 222.44437 
L 350.785274 220.785427 
L 350.901169 222.042713 
L 351.016717 222.062894 
L 351.131918 222.875448 
L 351.246776 221.748457 
L 351.361291 223.557052 
L 351.475467 222.775392 
L 351.589305 222.806883 
L 351.702808 223.150835 
L 351.815976 222.731458 
L 351.928813 221.687602 
L 352.153498 223.936062 
L 352.265351 222.106026 
L 352.488085 223.092021 
L 352.59897 222.138804 
L 352.709537 223.83641 
L 352.819787 222.187014 
L 352.929722 223.550714 
L 353.148655 222.960825 
L 353.257655 221.941935 
L 353.366348 222.285889 
L 353.474735 223.502245 
L 353.582817 222.29722 
L 353.690597 223.127868 
L 353.798075 222.098131 
L 353.905254 224.598247 
L 354.012135 223.140751 
L 354.118721 224.001426 
L 354.225011 223.595949 
L 354.331009 224.10595 
L 354.542133 222.706954 
L 354.647263 224.058177 
L 354.856663 222.819091 
L 354.960938 222.963372 
L 355.06493 222.763371 
L 355.168643 224.382109 
L 355.272076 222.969117 
L 355.375232 224.802893 
L 355.580719 223.781741 
L 355.683052 225.430735 
L 355.785114 224.025337 
L 355.886905 224.142849 
L 356.089684 223.349039 
L 356.190675 223.612176 
L 356.391863 225.418652 
L 356.592006 223.9012 
L 356.691688 225.041779 
L 356.89028 224.829147 
L 357.087853 225.467814 
L 357.284417 224.630784 
L 357.382323 224.709183 
L 357.479981 226.898772 
L 357.771477 224.318583 
L 357.868154 227.425449 
L 357.964588 225.753675 
L 358.156734 226.351441 
L 358.252449 226.315573 
L 358.347926 226.888781 
L 358.443167 226.869417 
L 358.632944 224.768563 
L 358.915866 228.213847 
L 359.009713 226.220775 
L 359.103332 227.408012 
L 359.196723 225.913778 
L 359.475545 229.60136 
L 359.66031 227.436966 
L 359.752361 227.539672 
L 359.844192 228.914576 
L 359.935805 227.654301 
L 360.0272 228.278756 
L 360.118378 226.127981 
L 360.300089 227.683527 
L 360.390624 228.085672 
L 360.480946 227.763271 
L 360.571057 228.785079 
L 360.84013 227.315354 
L 360.929404 227.441742 
L 361.018472 228.172599 
L 361.107334 227.317436 
L 361.284445 230.017481 
L 361.372695 228.46582 
L 361.460744 228.645533 
L 361.636239 227.542232 
L 361.810937 229.271694 
L 361.89799 229.267957 
L 361.984846 229.549889 
L 362.157972 228.426545 
L 362.244244 229.455145 
L 362.330323 229.21505 
L 362.41621 228.958884 
L 362.501905 230.725866 
L 362.672726 229.289859 
L 362.757852 230.675145 
L 362.842791 229.432038 
L 362.927543 229.842469 
L 363.012108 229.183547 
L 363.096488 231.231191 
L 363.180684 229.322994 
L 363.264695 229.501801 
L 363.43217 230.921581 
L 363.598919 229.90238 
L 363.764948 231.532291 
L 363.930264 229.204136 
L 364.012657 232.039901 
L 364.176914 229.386272 
L 364.25878 230.435701 
L 364.340473 230.298222 
L 364.421993 230.166707 
L 364.50334 231.872277 
L 364.584516 229.841322 
L 364.746355 230.684428 
L 364.82702 228.396591 
L 364.987845 231.385247 
L 365.068006 229.224906 
L 365.227828 231.546697 
L 365.307492 229.985529 
L 365.38699 231.767449 
L 365.466325 230.052592 
L 365.545496 231.288773 
L 365.624505 229.979587 
L 365.782037 230.923941 
L 365.860562 230.13788 
L 365.938927 230.867307 
L 366.017133 230.147798 
L 366.09518 231.484145 
L 366.173069 230.495102 
L 366.250801 231.965467 
L 366.328376 230.570269 
L 366.483059 232.036187 
L 366.560168 230.809384 
L 366.637122 233.494019 
L 366.790571 230.957859 
L 367.019603 232.772008 
L 367.171537 231.20777 
L 367.24728 232.334187 
L 367.322874 230.774717 
L 367.398319 231.452535 
L 367.473617 230.037296 
L 367.548768 231.918796 
L 367.623772 231.148337 
L 367.773344 232.041088 
L 367.847912 231.318208 
L 367.922336 231.64007 
L 368.070754 233.15146 
L 368.144749 232.8569 
L 368.218602 232.061413 
L 368.292313 233.955557 
L 368.365883 231.393076 
L 368.439313 232.749452 
L 368.512603 232.139558 
L 368.731639 234.250268 
L 368.876974 232.579684 
L 368.949436 232.646149 
L 369.021761 233.166516 
L 369.093951 232.197199 
L 369.237926 234.584716 
L 369.452883 231.364238 
L 369.737638 234.09428 
L 369.808498 234.005841 
L 369.879228 234.14307 
L 369.949829 235.041265 
L 370.0203 234.110729 
L 370.090642 235.014165 
L 370.230942 233.66552 
L 370.300901 234.43329 
L 370.370733 233.140633 
L 370.440438 233.617509 
L 370.510017 235.243995 
L 370.648799 233.917176 
L 370.718003 235.448228 
L 370.787082 234.943373 
L 370.856038 235.038354 
L 370.92487 233.999244 
L 370.993579 234.354916 
L 371.198975 233.553264 
L 371.335298 236.191481 
L 371.538882 233.960881 
L 371.606504 234.142397 
L 371.875813 236.315847 
L 372.009763 234.153174 
L 372.143249 236.358986 
L 372.276273 234.394058 
L 372.342613 234.910757 
L 372.408839 235.354188 
L 372.474951 236.813984 
L 372.54095 235.524557 
L 372.606836 237.383605 
L 372.672609 235.298888 
L 372.73827 235.523189 
L 372.803819 235.858963 
L 372.869256 237.273888 
L 372.934583 235.492959 
L 372.999798 236.014727 
L 373.064904 235.161556 
L 373.129899 236.802398 
L 373.259561 234.898156 
L 373.453239 236.287396 
L 373.517582 234.817183 
L 373.581818 236.026113 
L 373.581818 236.026113 
" clip-path="url(#pbd68060d01)" style="fill: none; stroke: #0000ff; stroke-width: 1.5; stroke-linecap: square"/>
   </g>
   <g id="line2d_69">
    <path d="M 69.218182 44.443636 
L 373.581818 242.116364 
L 373.581818 242.116364 
" clip-path="url(#pbd68060d01)" style="fill: none; stroke: #000000; stroke-width: 1.5; stroke-linecap: square"/>
   </g>
   <g id="patch_3">
    <path d="M 54 252 
L 54 34.56 
" style="fill: none; stroke: #000000; stroke-width: 0.8; stroke-linejoin: miter; stroke-linecap: square"/>
   </g>
   <g id="patch_4">
    <path d="M 388.8 252 
L 388.8 34.56 
" style="fill: none; stroke: #000000; stroke-width: 0.8; stroke-linejoin: miter; stroke-linecap: square"/>
   </g>
   <g id="patch_5">
    <path d="M 54 252 
L 388.8 252 
" style="fill: none; stroke: #000000; stroke-width: 0.8; stroke-linejoin: miter; stroke-linecap: square"/>
   </g>
   <g id="patch_6">
    <path d="M 54 34.56 
L 388.8 34.56 
" style="fill: none; stroke: #000000; stroke-width: 0.8; stroke-linejoin: miter; stroke-linecap: square"/>
   </g>
  </g>
 </g>
 <defs>
  <clipPath id="pbd68060d01">
   <rect x="54" y="34.56" width="334.8" height="217.44"/>
  </clipPath>
 </defs>
</svg>
