<?xml version="1.0" encoding="utf-8" standalone="no"?>
<!DOCTYPE svg PUBLIC "-//W3C//DTD SVG 1.1//EN"
  "http://www.w3.org/Graphics/SVG/1.1/DTD/svg11.dtd">
<svg xmlns:xlink="http://www.w3.org/1999/xlink" width="432pt" height="288pt" viewBox="0 0 432 288" xmlns="http://www.w3.org/2000/svg" version="1.1">
 <metadata>
  <rdf:RDF xmlns:dc="http://purl.org/dc/elements/1.1/" xmlns:cc="http://creativecommons.org/ns#" xmlns:rdf="http://www.w3.org/1999/02/22-rdf-syntax-ns#">
   <cc:Work>
    <dc:type rdf:resource="http://purl.org/dc/dcmitype/StillImage"/>
    <dc:date>2022-02-14T01:26:19.515602</dc:date>
    <dc:format>image/svg+xml</dc:format>
    <dc:creator>
     <cc:Agent>
      <dc:title>Matplotlib v3.5.1, https://matplotlib.org/</dc:title>
     </cc:Agent>
    </dc:creator>
   </cc:Work>
  </rdf:RDF>
 </metadata>
 <defs>
  <style type="text/css">*{stroke-linejoin: round; stroke-linecap: butt}</style>
 </defs>
 <g id="figure_1">
  <g id="patch_1">
   <path d="M 0 288 
L 432 288 
L 432 0 
L 0 0 
L 0 288 
z
" style="fill: none"/>
  </g>
  <g id="axes_1">
   <g id="patch_2">
    <path d="M 54 252 
L 388.8 252 
L 388.8 34.56 
L 54 34.56 
z
" style="fill: #ffffff"/>
   </g>
   <g id="PolyCollection_1">
    <defs>
     <path id="m4520bca630" d="M 69.218182 -243.556364 
L 69.218182 -242.774707 
L 72.56614 -242.06058 
L 75.645963 -242.06395 
L 78.497434 -241.960014 
L 81.15209 -241.891249 
L 83.635354 -241.656554 
L 85.968023 -241.517391 
L 88.167321 -241.279039 
L 90.247679 -241.28888 
L 92.221304 -240.824051 
L 94.098615 -240.826351 
L 95.888578 -240.394766 
L 97.598959 -240.412633 
L 99.236536 -240.418037 
L 100.807254 -240.278139 
L 102.316359 -239.761369 
L 103.768503 -240.173239 
L 105.16783 -239.878674 
L 106.518047 -239.437787 
L 107.822486 -239.156463 
L 109.084148 -238.913689 
L 110.30575 -238.679036 
L 111.489759 -238.191431 
L 112.638419 -237.69419 
L 113.753779 -237.443626 
L 114.837717 -237.214589 
L 115.891954 -236.24521 
L 116.918075 -236.039461 
L 117.91754 -236.092796 
L 118.8917 -235.86553 
L 119.841804 -234.752792 
L 120.769011 -235.108965 
L 121.6744 -233.971175 
L 122.558973 -233.734618 
L 123.423667 -232.807751 
L 124.269355 -232.767693 
L 125.096854 -231.957785 
L 125.906932 -231.628767 
L 126.700305 -231.303399 
L 127.47765 -230.197858 
L 128.2396 -229.371736 
L 128.986755 -230.016676 
L 129.719677 -228.350653 
L 130.438899 -228.042384 
L 131.144923 -226.729855 
L 131.838225 -226.800801 
L 132.519256 -226.601645 
L 133.188443 -226.032041 
L 133.84619 -223.66989 
L 134.492881 -225.475427 
L 135.128883 -223.347076 
L 135.754543 -224.645112 
L 136.370192 -222.780631 
L 136.976146 -223.47424 
L 137.572704 -222.795625 
L 138.160155 -220.369076 
L 138.738771 -222.139417 
L 139.308814 -220.329722 
L 139.870536 -222.126976 
L 140.424175 -220.725861 
L 140.969961 -221.889462 
L 141.508113 -219.952914 
L 142.038842 -220.206013 
L 142.56235 -220.264694 
L 143.078831 -219.912388 
L 143.588471 -218.096157 
L 144.091448 -219.857364 
L 144.587936 -218.700148 
L 145.078099 -217.125376 
L 145.562096 -218.264014 
L 146.04008 -217.985348 
L 146.512199 -217.896494 
L 146.978596 -217.110619 
L 147.439407 -216.264909 
L 147.894764 -215.847071 
L 148.344796 -215.848475 
L 148.789624 -216.366408 
L 149.229369 -215.311556 
L 149.664145 -214.763322 
L 150.094063 -214.461975 
L 150.51923 -214.793247 
L 150.93975 -213.391078 
L 151.355725 -213.94554 
L 151.76725 -213.807319 
L 152.17442 -213.306992 
L 152.577327 -212.022457 
L 152.976059 -212.762321 
L 153.370701 -211.909654 
L 153.761336 -211.546396 
L 162.733995 -207.089626 
L 175.68052 -195.437082 
L 185.350408 -191.492588 
L 193.071664 -187.036146 
L 199.499445 -180.738091 
L 205.005572 -178.287506 
L 209.821505 -178.812983 
L 214.101162 -175.672372 
L 217.952098 -174.674367 
L 221.452441 -173.213225 
L 224.660736 -171.856691 
L 227.621985 -169.158517 
L 230.371529 -167.536764 
L 232.93763 -167.285888 
L 235.343241 -167.318388 
L 237.607262 -164.844714 
L 239.745437 -165.011238 
L 241.771022 -163.579055 
L 243.695286 -161.780109 
L 245.527882 -159.570924 
L 247.277149 -160.130897 
L 248.950336 -158.167942 
L 250.553787 -157.541502 
L 252.093082 -157.433706 
L 253.573159 -155.809508 
L 254.998405 -154.879533 
L 256.372739 -154.798735 
L 257.699672 -152.826639 
L 258.982365 -151.77985 
L 260.223675 -149.608544 
L 261.426186 -152.143311 
L 262.592253 -148.29258 
L 263.724018 -149.318212 
L 264.823443 -146.655394 
L 265.892324 -146.318358 
L 266.932313 -144.707973 
L 267.944931 -146.865818 
L 268.931581 -146.930253 
L 269.893562 -145.155541 
L 270.832078 -146.607918 
L 271.748246 -144.414641 
L 272.643106 -142.031536 
L 273.517627 -143.333592 
L 274.372712 -142.844161 
L 275.209207 -141.889835 
L 276.027903 -144.147183 
L 276.829541 -139.696371 
L 277.614818 -139.962445 
L 278.384389 -142.477973 
L 279.138869 -139.086136 
L 279.878839 -140.683577 
L 280.604846 -141.418693 
L 281.317408 -138.358637 
L 282.017014 -138.723804 
L 282.704126 -137.566236 
L 283.379182 -138.317825 
L 284.0426 -136.897401 
L 284.694772 -135.562801 
L 285.336074 -135.307402 
L 285.966863 -135.171471 
L 286.587477 -135.182119 
L 287.19824 -134.047153 
L 287.799459 -132.246332 
L 288.391428 -132.899257 
L 288.974428 -132.680505 
L 289.548726 -132.452987 
L 290.114578 -130.413838 
L 290.672229 -129.783005 
L 291.221914 -132.111589 
L 291.763856 -131.035173 
L 292.29827 -132.235318 
L 292.825364 -129.323207 
L 293.345335 -128.708068 
L 293.858373 -128.448769 
L 294.364659 -126.951838 
L 294.864371 -129.868251 
L 295.357676 -128.235079 
L 295.844736 -128.854768 
L 296.325708 -125.257996 
L 296.800742 -125.146095 
L 297.269982 -125.0448 
L 297.733569 -124.64326 
L 298.191637 -124.15563 
L 298.644316 -126.804643 
L 299.091731 -124.642697 
L 299.534003 -124.839065 
L 299.971249 -124.211106 
L 300.403582 -124.887426 
L 300.831111 -123.774065 
L 301.253943 -124.132526 
L 301.672178 -123.547748 
L 302.085915 -120.96126 
L 302.495252 -119.10917 
L 302.900279 -120.822313 
L 303.301087 -121.018886 
L 303.697764 -122.787523 
L 304.090392 -123.089713 
L 304.479054 -123.04379 
L 304.86383 -119.029999 
L 305.244796 -122.085686 
L 305.622027 -120.404385 
L 305.995595 -122.117809 
L 306.365572 -121.84588 
L 306.732024 -119.501091 
L 307.09502 -118.130335 
L 307.454623 -118.662597 
L 307.810896 -120.677278 
L 308.163901 -117.076665 
L 308.513697 -116.925531 
L 308.860341 -119.3115 
L 309.20389 -118.472517 
L 309.544399 -118.009832 
L 309.881921 -117.182454 
L 310.216508 -114.64918 
L 310.54821 -116.933128 
L 310.877078 -117.297042 
L 311.203158 -116.600758 
L 311.526498 -116.44146 
L 311.847144 -117.557492 
L 312.165139 -114.272406 
L 312.480528 -117.328524 
L 312.793353 -114.434026 
L 313.103655 -115.00822 
L 313.411475 -114.59719 
L 313.716851 -113.600832 
L 314.019823 -113.670695 
L 314.320428 -115.837227 
L 314.618703 -113.785418 
L 314.914683 -113.106154 
L 315.208404 -115.814295 
L 315.4999 -113.625336 
L 315.789204 -110.454103 
L 316.076349 -113.455224 
L 316.361367 -110.827163 
L 316.644289 -110.74977 
L 316.925146 -111.46172 
L 317.203968 -116.42355 
L 317.480784 -111.144189 
L 317.755623 -111.288773 
L 318.028512 -112.13818 
L 318.29948 -111.752478 
L 318.568552 -109.5323 
L 318.835757 -112.839987 
L 319.101118 -109.29896 
L 319.364662 -111.246541 
L 319.626413 -109.535893 
L 319.886395 -110.392182 
L 320.144633 -109.644715 
L 320.401149 -111.910166 
L 320.655966 -110.245563 
L 320.909107 -109.379897 
L 321.160593 -108.653584 
L 321.410446 -110.030823 
L 321.658687 -111.215886 
L 321.905337 -110.620619 
L 322.150416 -110.471188 
L 322.393943 -110.164378 
L 322.635939 -109.388596 
L 322.876423 -107.796952 
L 323.115413 -107.382717 
L 323.352928 -107.801396 
L 323.588985 -107.287251 
L 323.823603 -110.447863 
L 324.056799 -107.119833 
L 324.288591 -108.791488 
L 324.518994 -107.682301 
L 324.748026 -108.30591 
L 324.975703 -107.477701 
L 325.20204 -105.333006 
L 325.427054 -107.398963 
L 325.650759 -105.66771 
L 325.873172 -105.387161 
L 326.094306 -107.394361 
L 326.314177 -104.816627 
L 326.532798 -105.550387 
L 326.750184 -106.350047 
L 326.966349 -105.584924 
L 327.181306 -105.133698 
L 327.395069 -106.999165 
L 327.607651 -105.814923 
L 327.819065 -105.478249 
L 328.029324 -103.068867 
L 328.23844 -106.674644 
L 328.446426 -103.752501 
L 328.653293 -100.888642 
L 328.859054 -103.990362 
L 329.063721 -101.952271 
L 329.267305 -104.106067 
L 329.469817 -103.844819 
L 329.671269 -102.601132 
L 329.871672 -104.352351 
L 330.071036 -107.335769 
L 330.269373 -103.667031 
L 330.466693 -104.576987 
L 330.663006 -100.95709 
L 330.858322 -104.172174 
L 331.052652 -102.976536 
L 331.246005 -101.014515 
L 331.438392 -102.679167 
L 331.629821 -103.570254 
L 331.820303 -101.70149 
L 332.009847 -102.015013 
L 332.198461 -102.235486 
L 332.386155 -103.866665 
L 332.572938 -102.040714 
L 332.758819 -100.766829 
L 332.943806 -98.931498 
L 333.127908 -98.695152 
L 333.311134 -100.122786 
L 333.493491 -99.350685 
L 333.674987 -99.361551 
L 333.855632 -101.147111 
L 334.035433 -99.311292 
L 334.214397 -102.15012 
L 334.392533 -99.2232 
L 334.569847 -99.866288 
L 334.746349 -98.458048 
L 334.922044 -99.560717 
L 335.096941 -98.239134 
L 335.271047 -99.692236 
L 335.444368 -98.451994 
L 335.616912 -98.693402 
L 335.788686 -100.323766 
L 335.959696 -98.146776 
L 336.12995 -98.948347 
L 336.299453 -97.962022 
L 336.468213 -99.225665 
L 336.636236 -99.503359 
L 336.803529 -97.318664 
L 336.970098 -98.990853 
L 337.135948 -96.967765 
L 337.301087 -97.226335 
L 337.46552 -100.327404 
L 337.629253 -97.636178 
L 337.792292 -97.067898 
L 337.954644 -96.254388 
L 338.116313 -97.862551 
L 338.277306 -96.699469 
L 338.437628 -96.023685 
L 338.597285 -100.160433 
L 338.756282 -97.932913 
L 338.914625 -95.474394 
L 339.072319 -98.17646 
L 339.229369 -96.878579 
L 339.385781 -94.938493 
L 339.541559 -95.467304 
L 339.69671 -96.899747 
L 339.851237 -93.524152 
L 340.005146 -95.398039 
L 340.158442 -96.0184 
L 340.31113 -93.819545 
L 340.463214 -95.457624 
L 340.614699 -94.865293 
L 340.765591 -95.609201 
L 340.915893 -96.970692 
L 341.06561 -93.961177 
L 341.214747 -95.849199 
L 341.363308 -95.91809 
L 341.511297 -95.338778 
L 341.65872 -95.634434 
L 341.80558 -94.868261 
L 341.951881 -95.309753 
L 342.097629 -93.662004 
L 342.242826 -93.230677 
L 342.387477 -94.436527 
L 342.531587 -92.309034 
L 342.675159 -93.556145 
L 342.818197 -94.65662 
L 342.960706 -90.884369 
L 343.102688 -93.71512 
L 343.244149 -93.914696 
L 343.385092 -94.302184 
L 343.52552 -92.420448 
L 343.665437 -93.658394 
L 343.804847 -91.528451 
L 343.943755 -92.409589 
L 344.082162 -94.3089 
L 344.220074 -94.863565 
L 344.357493 -94.971351 
L 344.494422 -95.42377 
L 344.630867 -92.350227 
L 344.766829 -93.860741 
L 344.902312 -92.971105 
L 345.03732 -90.773357 
L 345.171856 -92.125643 
L 345.305923 -92.763276 
L 345.439525 -93.739562 
L 345.572664 -92.599542 
L 345.705345 -90.356528 
L 345.837569 -91.598951 
L 345.969341 -91.797056 
L 346.100662 -93.192318 
L 346.231538 -92.167766 
L 346.361969 -90.991053 
L 346.49196 -90.292673 
L 346.621513 -91.719333 
L 346.750631 -90.908073 
L 346.879318 -89.774203 
L 347.007576 -91.94165 
L 347.135407 -90.42121 
L 347.262815 -89.755508 
L 347.389803 -92.191507 
L 347.516373 -89.230168 
L 347.642528 -91.999878 
L 347.768271 -91.767216 
L 347.893604 -91.493509 
L 348.01853 -90.357086 
L 348.143052 -90.549063 
L 348.267172 -89.897239 
L 348.390894 -88.667417 
L 348.514218 -88.96359 
L 348.637149 -90.773033 
L 348.759688 -87.23446 
L 348.881838 -88.426117 
L 349.003602 -89.308231 
L 349.124981 -90.194864 
L 349.245979 -90.279264 
L 349.366597 -88.713038 
L 349.486839 -90.293394 
L 349.606706 -90.383099 
L 349.7262 -88.602346 
L 349.845325 -90.844049 
L 349.964082 -88.926207 
L 350.082474 -88.935697 
L 350.200502 -92.100051 
L 350.31817 -89.064231 
L 350.435478 -88.122712 
L 350.552431 -89.044581 
L 350.669028 -91.00002 
L 350.785274 -90.856362 
L 350.901169 -88.669101 
L 351.016717 -89.237011 
L 351.131918 -87.487979 
L 351.246776 -89.120423 
L 351.361291 -87.270618 
L 351.475467 -89.276388 
L 351.589305 -88.23188 
L 351.702808 -87.657 
L 351.815976 -88.6155 
L 351.928813 -88.357762 
L 352.041319 -86.938386 
L 352.153498 -86.356366 
L 352.265351 -88.561829 
L 352.376879 -87.429606 
L 352.488085 -87.498561 
L 352.59897 -85.341168 
L 352.709537 -88.89239 
L 352.819787 -85.885759 
L 352.929722 -86.860206 
L 353.039344 -84.115842 
L 353.148655 -86.328571 
L 353.257655 -86.114325 
L 353.366348 -84.823277 
L 353.474735 -85.870028 
L 353.582817 -85.153285 
L 353.690597 -84.973193 
L 353.798075 -84.651493 
L 353.905254 -87.43685 
L 354.012135 -85.0766 
L 354.118721 -85.046882 
L 354.225011 -85.16603 
L 354.331009 -85.857592 
L 354.436716 -85.976955 
L 354.542133 -84.693492 
L 354.647263 -85.731192 
L 354.752105 -84.021958 
L 354.856663 -85.851618 
L 354.960938 -85.368946 
L 355.06493 -87.049607 
L 355.168643 -83.197276 
L 355.272076 -83.22777 
L 355.375232 -86.205753 
L 355.478113 -84.957301 
L 355.580719 -85.528633 
L 355.683052 -84.668061 
L 355.785114 -83.840768 
L 355.886905 -86.280715 
L 355.988428 -85.190128 
L 356.089684 -84.63712 
L 356.190675 -84.356184 
L 356.2914 -85.067409 
L 356.391863 -85.954714 
L 356.492065 -84.867947 
L 356.592006 -82.909214 
L 356.691688 -84.185019 
L 356.791112 -83.417194 
L 356.89028 -84.784843 
L 356.989194 -83.622299 
L 357.087853 -81.927568 
L 357.186261 -83.673425 
L 357.284417 -81.476594 
L 357.382323 -82.202249 
L 357.479981 -83.652223 
L 357.577392 -85.179003 
L 357.674557 -84.382904 
L 357.771477 -84.417268 
L 357.868154 -82.456594 
L 357.964588 -85.242138 
L 358.060781 -82.229753 
L 358.156734 -83.587738 
L 358.252449 -83.813131 
L 358.347926 -84.97924 
L 358.443167 -81.517054 
L 358.538172 -83.25833 
L 358.632944 -82.270611 
L 358.727483 -83.438305 
L 358.82179 -80.923874 
L 358.915866 -83.551039 
L 359.009713 -81.900081 
L 359.103332 -81.260352 
L 359.196723 -82.278736 
L 359.289889 -80.320667 
L 359.382829 -81.474426 
L 359.475545 -81.056172 
L 359.568039 -81.169623 
L 359.66031 -84.037793 
L 359.752361 -83.269074 
L 359.844192 -82.545813 
L 359.935805 -81.581827 
L 360.0272 -80.66771 
L 360.118378 -82.541997 
L 360.209341 -80.87796 
L 360.300089 -78.824202 
L 360.390624 -81.137045 
L 360.480946 -81.924456 
L 360.571057 -82.894619 
L 360.660957 -83.565869 
L 360.750648 -81.746332 
L 360.84013 -81.174569 
L 360.929404 -81.117806 
L 361.018472 -82.532468 
L 361.107334 -80.702569 
L 361.195991 -78.69184 
L 361.284445 -80.9868 
L 361.372695 -80.813775 
L 361.460744 -79.679963 
L 361.548591 -79.922612 
L 361.636239 -79.882091 
L 361.723687 -80.207747 
L 361.810937 -79.320255 
L 361.89799 -80.160008 
L 361.984846 -79.464487 
L 362.071507 -81.315936 
L 362.157972 -81.741518 
L 362.244244 -79.124281 
L 362.330323 -81.622631 
L 362.41621 -80.588756 
L 362.501905 -78.04097 
L 362.58741 -80.742272 
L 362.672726 -80.938279 
L 362.757852 -80.512724 
L 362.842791 -79.367763 
L 362.927543 -80.648875 
L 363.012108 -79.936591 
L 363.096488 -79.47347 
L 363.180684 -80.240007 
L 363.264695 -79.692392 
L 363.348524 -81.172364 
L 363.43217 -77.426515 
L 363.515635 -78.030232 
L 363.598919 -79.00754 
L 363.682023 -78.912213 
L 363.764948 -82.246358 
L 363.847695 -78.096444 
L 363.930264 -78.922838 
L 364.012657 -77.607882 
L 364.094873 -80.146053 
L 364.176914 -79.291769 
L 364.25878 -81.264485 
L 364.340473 -79.840624 
L 364.421993 -79.601685 
L 364.50334 -79.360307 
L 364.584516 -81.623654 
L 364.665521 -79.213479 
L 364.746355 -79.389461 
L 364.82702 -76.448723 
L 364.907517 -79.114142 
L 364.987845 -78.105443 
L 365.068006 -76.581519 
L 365.148 -77.952694 
L 365.227828 -78.803986 
L 365.307492 -79.248947 
L 365.38699 -79.174488 
L 365.466325 -78.18178 
L 365.545496 -79.965697 
L 365.624505 -78.75871 
L 365.703352 -78.693566 
L 365.782037 -80.496795 
L 365.860562 -77.402128 
L 365.938927 -78.740521 
L 366.017133 -75.6199 
L 366.09518 -78.837966 
L 366.173069 -76.871947 
L 366.250801 -77.202416 
L 366.328376 -75.74752 
L 366.405795 -76.889291 
L 366.483059 -78.198728 
L 366.560168 -76.991365 
L 366.637122 -77.539522 
L 366.713923 -75.326834 
L 366.790571 -76.777694 
L 366.867067 -76.970869 
L 366.94341 -78.370217 
L 367.019603 -78.404421 
L 367.095645 -77.039062 
L 367.171537 -77.815098 
L 367.24728 -76.919026 
L 367.322874 -77.88304 
L 367.398319 -77.921557 
L 367.473617 -74.110976 
L 367.548768 -75.74114 
L 367.623772 -78.389028 
L 367.698631 -75.633688 
L 367.773344 -76.261686 
L 367.847912 -76.619155 
L 367.922336 -76.712003 
L 367.996617 -76.091351 
L 368.070754 -76.972346 
L 368.144749 -77.238053 
L 368.218602 -76.259699 
L 368.292313 -76.848368 
L 368.365883 -74.983016 
L 368.439313 -74.779412 
L 368.512603 -74.437994 
L 368.585754 -75.648953 
L 368.658766 -74.60258 
L 368.731639 -75.160852 
L 368.804375 -74.228279 
L 368.876974 -75.975549 
L 368.949436 -74.718132 
L 369.021761 -76.610626 
L 369.093951 -75.125617 
L 369.166006 -74.936894 
L 369.237926 -75.531221 
L 369.309712 -74.50661 
L 369.381364 -75.765687 
L 369.452883 -76.272817 
L 369.52427 -74.677274 
L 369.595524 -74.890347 
L 369.666646 -73.865656 
L 369.737638 -76.157467 
L 369.808498 -73.284659 
L 369.879228 -74.589067 
L 369.949829 -75.822468 
L 370.0203 -73.185499 
L 370.090642 -74.504425 
L 370.160856 -73.757516 
L 370.230942 -73.728329 
L 370.300901 -74.102784 
L 370.370733 -75.192899 
L 370.440438 -74.12854 
L 370.510017 -73.616069 
L 370.579471 -73.605696 
L 370.648799 -74.12367 
L 370.718003 -77.153574 
L 370.787082 -75.895946 
L 370.856038 -73.999544 
L 370.92487 -73.375021 
L 370.993579 -74.082405 
L 371.062166 -74.066527 
L 371.130631 -74.47655 
L 371.198975 -76.393499 
L 371.267197 -74.636024 
L 371.335298 -76.342461 
L 371.403279 -74.935992 
L 371.47114 -74.185142 
L 371.538882 -71.740716 
L 371.606504 -73.492635 
L 371.674008 -74.381113 
L 371.741394 -74.935024 
L 371.808662 -72.720031 
L 371.875813 -73.056774 
L 371.942846 -74.2224 
L 372.009763 -71.138245 
L 372.076564 -72.452013 
L 372.143249 -74.026014 
L 372.209819 -74.212088 
L 372.276273 -73.270466 
L 372.342613 -72.939074 
L 372.408839 -72.975085 
L 372.474951 -71.38504 
L 372.54095 -74.448186 
L 372.606836 -74.160775 
L 372.672609 -74.410241 
L 372.73827 -76.167276 
L 372.803819 -73.407547 
L 372.869256 -72.48355 
L 372.934583 -73.651104 
L 372.999798 -72.7082 
L 373.064904 -73.334199 
L 373.129899 -73.753818 
L 373.194785 -74.335921 
L 373.259561 -74.357228 
L 373.324229 -74.476419 
L 373.388788 -75.578041 
L 373.453239 -73.593313 
L 373.517582 -73.528935 
L 373.581818 -74.303328 
L 373.581818 -77.30859 
L 373.581818 -77.30859 
L 373.517582 -77.075882 
L 373.453239 -77.383647 
L 373.388788 -79.409424 
L 373.324229 -77.691687 
L 373.259561 -77.486522 
L 373.194785 -78.564681 
L 373.129899 -76.616196 
L 373.064904 -77.351799 
L 372.999798 -77.462443 
L 372.934583 -76.911086 
L 372.869256 -76.152748 
L 372.803819 -77.525659 
L 372.73827 -79.437447 
L 372.672609 -77.186108 
L 372.606836 -77.090242 
L 372.54095 -78.458664 
L 372.474951 -75.649 
L 372.408839 -76.971077 
L 372.342613 -76.543086 
L 372.276273 -76.09614 
L 372.209819 -77.923996 
L 372.143249 -77.152824 
L 372.076564 -75.893001 
L 372.009763 -74.6677 
L 371.942846 -77.457354 
L 371.875813 -77.97349 
L 371.808662 -76.452189 
L 371.741394 -78.238144 
L 371.674008 -77.503071 
L 371.606504 -77.285759 
L 371.538882 -76.395977 
L 371.47114 -78.22246 
L 371.403279 -78.702034 
L 371.335298 -79.804314 
L 371.267197 -77.990872 
L 371.198975 -79.333983 
L 371.130631 -78.818122 
L 371.062166 -77.80416 
L 370.993579 -77.061585 
L 370.92487 -77.160968 
L 370.856038 -79.093962 
L 370.787082 -80.037236 
L 370.718003 -80.592404 
L 370.648799 -77.618239 
L 370.579471 -79.386724 
L 370.510017 -78.927983 
L 370.440438 -77.477149 
L 370.370733 -79.476772 
L 370.300901 -77.620976 
L 370.230942 -78.909877 
L 370.160856 -77.956214 
L 370.090642 -78.515892 
L 370.0203 -77.827518 
L 369.949829 -80.290684 
L 369.879228 -79.95028 
L 369.808498 -77.902986 
L 369.737638 -79.051343 
L 369.666646 -78.263571 
L 369.595524 -79.73944 
L 369.52427 -78.642952 
L 369.452883 -79.736122 
L 369.381364 -79.831828 
L 369.309712 -79.055581 
L 369.237926 -78.991778 
L 369.166006 -78.090475 
L 369.093951 -78.310631 
L 369.021761 -80.644995 
L 368.949436 -78.55357 
L 368.876974 -78.841634 
L 368.804375 -77.386075 
L 368.731639 -79.645683 
L 368.658766 -77.137722 
L 368.585754 -79.106381 
L 368.512603 -78.090752 
L 368.439313 -77.874723 
L 368.365883 -78.99891 
L 368.292313 -80.400734 
L 368.218602 -79.915604 
L 368.144749 -80.967074 
L 368.070754 -79.98101 
L 367.996617 -79.594119 
L 367.922336 -79.155929 
L 367.847912 -79.881066 
L 367.773344 -80.228469 
L 367.698631 -79.197367 
L 367.623772 -81.779721 
L 367.548768 -80.210879 
L 367.473617 -78.694138 
L 367.398319 -80.684369 
L 367.322874 -80.789032 
L 367.24728 -80.223788 
L 367.171537 -82.389416 
L 367.095645 -80.367897 
L 367.019603 -81.331054 
L 366.94341 -81.874449 
L 366.867067 -81.073497 
L 366.790571 -81.927545 
L 366.713923 -79.558453 
L 366.637122 -80.915443 
L 366.560168 -80.490257 
L 366.483059 -81.754601 
L 366.405795 -79.929066 
L 366.328376 -79.002827 
L 366.250801 -80.662575 
L 366.173069 -80.651052 
L 366.09518 -82.572402 
L 366.017133 -80.355565 
L 365.938927 -81.878536 
L 365.860562 -80.746004 
L 365.782037 -83.111865 
L 365.703352 -82.156809 
L 365.624505 -82.117457 
L 365.545496 -83.956539 
L 365.466325 -82.049639 
L 365.38699 -81.946096 
L 365.307492 -82.96021 
L 365.227828 -81.329399 
L 365.148 -81.36765 
L 365.068006 -79.842356 
L 364.987845 -81.671866 
L 364.907517 -82.787225 
L 364.82702 -80.828677 
L 364.746355 -83.059464 
L 364.665521 -82.685779 
L 364.584516 -84.533091 
L 364.50334 -82.583852 
L 364.421993 -83.082017 
L 364.340473 -83.16597 
L 364.25878 -83.696313 
L 364.176914 -83.421201 
L 364.094873 -83.157376 
L 364.012657 -81.153763 
L 363.930264 -82.419541 
L 363.847695 -81.297892 
L 363.764948 -84.868149 
L 363.682023 -83.92023 
L 363.598919 -81.733696 
L 363.515635 -82.462733 
L 363.43217 -81.534724 
L 363.348524 -84.805487 
L 363.264695 -83.209042 
L 363.180684 -83.52869 
L 363.096488 -83.601905 
L 363.012108 -83.332714 
L 362.927543 -83.486375 
L 362.842791 -82.819267 
L 362.757852 -84.189593 
L 362.672726 -83.833186 
L 362.58741 -84.050799 
L 362.501905 -81.552226 
L 362.41621 -83.554738 
L 362.330323 -85.722543 
L 362.244244 -82.182363 
L 362.157972 -85.076445 
L 362.071507 -84.442877 
L 361.984846 -83.002316 
L 361.89799 -83.164446 
L 361.810937 -82.638298 
L 361.723687 -83.475343 
L 361.636239 -83.004925 
L 361.548591 -84.094741 
L 361.460744 -82.913124 
L 361.372695 -83.649484 
L 361.284445 -85.088903 
L 361.195991 -83.585371 
L 361.107334 -83.691374 
L 361.018472 -86.414888 
L 360.929404 -84.847395 
L 360.84013 -84.400387 
L 360.750648 -85.368235 
L 360.660957 -86.858669 
L 360.571057 -85.849195 
L 360.480946 -85.521124 
L 360.390624 -84.165943 
L 360.300089 -82.420711 
L 360.209341 -83.920131 
L 360.118378 -85.497714 
L 360.0272 -84.219837 
L 359.935805 -84.84296 
L 359.844192 -86.603268 
L 359.752361 -86.067618 
L 359.66031 -86.832889 
L 359.568039 -85.289081 
L 359.475545 -83.722233 
L 359.382829 -84.556895 
L 359.289889 -83.159464 
L 359.196723 -85.272242 
L 359.103332 -84.670783 
L 359.009713 -85.005431 
L 358.915866 -86.194277 
L 358.82179 -84.36741 
L 358.727483 -87.11585 
L 358.632944 -85.349961 
L 358.538172 -86.881146 
L 358.443167 -85.113816 
L 358.347926 -88.652124 
L 358.252449 -87.21692 
L 358.156734 -86.683145 
L 358.060781 -85.911686 
L 357.964588 -88.177765 
L 357.868154 -86.853757 
L 357.771477 -88.045453 
L 357.674557 -88.222401 
L 357.577392 -88.674793 
L 357.479981 -86.440538 
L 357.382323 -86.280698 
L 357.284417 -85.316414 
L 357.186261 -87.16282 
L 357.087853 -85.785607 
L 356.989194 -87.5115 
L 356.89028 -88.59477 
L 356.791112 -87.100835 
L 356.691688 -88.300896 
L 356.592006 -87.124452 
L 356.492065 -88.068464 
L 356.391863 -89.496425 
L 356.2914 -88.356866 
L 356.190675 -87.619019 
L 356.089684 -88.722316 
L 355.988428 -88.682582 
L 355.886905 -89.55817 
L 355.785114 -88.372223 
L 355.683052 -87.87073 
L 355.580719 -88.506722 
L 355.478113 -88.479298 
L 355.375232 -89.925784 
L 355.272076 -88.10214 
L 355.168643 -86.923979 
L 355.06493 -91.20603 
L 354.960938 -88.474088 
L 354.856663 -89.820015 
L 354.752105 -87.249265 
L 354.647263 -89.30073 
L 354.542133 -88.984216 
L 354.436716 -89.953807 
L 354.331009 -89.181086 
L 354.225011 -89.534737 
L 354.118721 -88.66484 
L 354.012135 -89.013281 
L 353.905254 -91.48556 
L 353.798075 -88.486698 
L 353.690597 -88.679847 
L 353.582817 -88.911404 
L 353.474735 -90.145217 
L 353.366348 -89.068196 
L 353.257655 -89.029291 
L 353.148655 -89.299527 
L 353.039344 -88.884174 
L 352.929722 -89.85546 
L 352.819787 -89.212457 
L 352.709537 -93.495723 
L 352.59897 -89.281789 
L 352.488085 -91.921154 
L 352.376879 -91.203945 
L 352.265351 -91.497297 
L 352.153498 -90.756811 
L 352.041319 -90.379878 
L 351.928813 -92.821754 
L 351.815976 -92.517738 
L 351.702808 -90.731433 
L 351.589305 -91.341535 
L 351.475467 -92.10147 
L 351.361291 -91.715968 
L 351.246776 -92.448048 
L 351.131918 -91.912321 
L 351.016717 -93.007273 
L 350.901169 -92.36504 
L 350.785274 -94.386182 
L 350.669028 -93.810786 
L 350.552431 -93.048021 
L 350.435478 -91.800363 
L 350.31817 -93.180458 
L 350.200502 -95.567331 
L 350.082474 -93.316229 
L 349.964082 -92.555353 
L 349.845325 -94.684413 
L 349.7262 -92.282458 
L 349.606706 -93.838803 
L 349.486839 -94.499535 
L 349.366597 -93.658626 
L 349.245979 -94.380187 
L 349.124981 -95.129588 
L 349.003602 -92.42792 
L 348.881838 -91.466448 
L 348.759688 -91.599267 
L 348.637149 -94.171855 
L 348.514218 -92.137771 
L 348.390894 -91.084045 
L 348.267172 -93.683538 
L 348.143052 -93.38033 
L 348.01853 -94.494347 
L 347.893604 -95.743148 
L 347.768271 -94.941985 
L 347.642528 -95.510718 
L 347.516373 -92.671365 
L 347.389803 -95.35055 
L 347.262815 -93.6249 
L 347.135407 -95.173536 
L 347.007576 -94.811987 
L 346.879318 -93.286771 
L 346.750631 -94.057302 
L 346.621513 -95.011234 
L 346.49196 -94.802131 
L 346.361969 -94.697801 
L 346.231538 -95.599694 
L 346.100662 -96.060494 
L 345.969341 -96.248905 
L 345.837569 -94.59766 
L 345.705345 -94.933801 
L 345.572664 -96.108403 
L 345.439525 -97.246204 
L 345.305923 -96.614343 
L 345.171856 -95.563839 
L 345.03732 -93.939903 
L 344.902312 -96.110332 
L 344.766829 -97.219387 
L 344.630867 -95.109133 
L 344.494422 -99.309536 
L 344.357493 -98.318434 
L 344.220074 -97.614798 
L 344.082162 -98.132366 
L 343.943755 -95.900197 
L 343.804847 -95.072097 
L 343.665437 -97.716987 
L 343.52552 -96.162037 
L 343.385092 -97.922244 
L 343.244149 -97.387156 
L 343.102688 -96.794197 
L 342.960706 -94.99433 
L 342.818197 -98.590116 
L 342.675159 -96.615288 
L 342.531587 -97.383629 
L 342.387477 -98.235602 
L 342.242826 -97.185849 
L 342.097629 -97.79615 
L 341.951881 -98.473665 
L 341.80558 -98.73064 
L 341.65872 -99.7989 
L 341.511297 -98.870379 
L 341.363308 -99.910278 
L 341.214747 -99.258095 
L 341.06561 -98.579561 
L 340.915893 -100.235223 
L 340.765591 -99.180129 
L 340.614699 -99.447247 
L 340.463214 -99.852602 
L 340.31113 -97.719523 
L 340.158442 -100.972845 
L 340.005146 -99.309931 
L 339.851237 -97.208528 
L 339.69671 -100.755345 
L 339.541559 -99.405329 
L 339.385781 -98.630878 
L 339.229369 -100.216246 
L 339.072319 -101.322356 
L 338.914625 -99.83437 
L 338.756282 -101.898052 
L 338.597285 -103.865512 
L 338.437628 -100.640242 
L 338.277306 -100.529238 
L 338.116313 -101.068266 
L 337.954644 -100.383217 
L 337.792292 -101.056821 
L 337.629253 -101.849234 
L 337.46552 -105.678539 
L 337.301087 -100.88856 
L 337.135948 -99.953891 
L 336.970098 -102.424877 
L 336.803529 -101.224662 
L 336.636236 -103.121519 
L 336.468213 -103.185401 
L 336.299453 -101.790995 
L 336.12995 -103.474065 
L 335.959696 -101.941054 
L 335.788686 -103.614423 
L 335.616912 -101.76007 
L 335.444368 -101.903646 
L 335.271047 -103.907725 
L 335.096941 -104.237621 
L 334.922044 -103.268352 
L 334.746349 -101.610947 
L 334.569847 -104.698535 
L 334.392533 -102.659208 
L 334.214397 -105.865993 
L 334.035433 -102.926477 
L 333.855632 -104.51116 
L 333.674987 -102.800753 
L 333.493491 -102.794016 
L 333.311134 -103.957863 
L 333.127908 -103.188258 
L 332.943806 -102.343417 
L 332.758819 -104.485139 
L 332.572938 -104.681944 
L 332.386155 -106.709206 
L 332.198461 -107.097619 
L 332.009847 -105.588761 
L 331.820303 -105.73478 
L 331.629821 -106.757734 
L 331.438392 -106.760176 
L 331.246005 -104.681431 
L 331.052652 -106.54833 
L 330.858322 -107.961582 
L 330.663006 -106.271586 
L 330.466693 -107.235508 
L 330.269373 -107.587728 
L 330.071036 -110.38855 
L 329.871672 -108.201318 
L 329.671269 -105.997305 
L 329.469817 -108.414496 
L 329.267305 -108.519342 
L 329.063721 -105.656946 
L 328.859054 -107.685356 
L 328.653293 -106.346783 
L 328.446426 -107.248392 
L 328.23844 -109.906473 
L 328.029324 -107.724731 
L 327.819065 -109.028998 
L 327.607651 -108.806244 
L 327.395069 -109.869927 
L 327.181306 -108.770304 
L 326.966349 -109.113242 
L 326.750184 -109.938835 
L 326.532798 -109.38346 
L 326.314177 -108.543502 
L 326.094306 -110.428281 
L 325.873172 -108.373552 
L 325.650759 -109.560589 
L 325.427054 -110.429375 
L 325.20204 -109.113669 
L 324.975703 -111.806098 
L 324.748026 -111.858177 
L 324.518994 -111.136106 
L 324.288591 -112.040571 
L 324.056799 -111.896871 
L 323.823603 -113.882842 
L 323.588985 -111.460716 
L 323.352928 -111.237758 
L 323.115413 -110.868478 
L 322.876423 -111.385633 
L 322.635939 -113.736282 
L 322.393943 -113.553969 
L 322.150416 -113.870334 
L 321.905337 -113.547216 
L 321.658687 -114.702928 
L 321.410446 -113.480028 
L 321.160593 -112.802783 
L 320.909107 -113.810664 
L 320.655966 -114.303069 
L 320.401149 -115.274084 
L 320.144633 -112.724462 
L 319.886395 -114.168331 
L 319.626413 -113.435497 
L 319.364662 -115.687503 
L 319.101118 -113.302174 
L 318.835757 -116.298569 
L 318.568552 -112.689571 
L 318.29948 -115.919139 
L 318.028512 -115.782079 
L 317.755623 -114.849454 
L 317.480784 -116.078977 
L 317.203968 -119.554306 
L 316.925146 -116.297309 
L 316.644289 -114.868765 
L 316.361367 -114.441424 
L 316.076349 -117.151281 
L 315.789204 -115.178146 
L 315.4999 -116.726866 
L 315.208404 -119.361089 
L 314.914683 -117.236509 
L 314.618703 -118.093116 
L 314.320428 -119.488772 
L 314.019823 -117.427546 
L 313.716851 -117.285924 
L 313.411475 -119.091355 
L 313.103655 -118.624006 
L 312.793353 -117.240405 
L 312.480528 -121.434679 
L 312.165139 -117.995811 
L 311.847144 -120.976183 
L 311.526498 -120.875283 
L 311.203158 -120.619229 
L 310.877078 -121.550904 
L 310.54821 -119.837034 
L 310.216508 -118.700337 
L 309.881921 -121.65224 
L 309.544399 -121.328533 
L 309.20389 -122.198275 
L 308.860341 -123.249538 
L 308.513697 -119.976198 
L 308.163901 -121.433053 
L 307.810896 -124.191985 
L 307.454623 -122.80449 
L 307.09502 -121.255549 
L 306.732024 -122.652899 
L 306.365572 -124.707236 
L 305.995595 -125.354452 
L 305.622027 -123.5177 
L 305.244796 -125.259776 
L 304.86383 -123.341287 
L 304.479054 -126.043936 
L 304.090392 -126.586825 
L 303.697764 -125.747791 
L 303.301087 -123.803286 
L 302.900279 -124.655377 
L 302.495252 -123.440923 
L 302.085915 -124.826198 
L 301.672178 -126.147956 
L 301.253943 -127.388949 
L 300.831111 -127.412953 
L 300.403582 -128.811156 
L 299.971249 -127.826933 
L 299.534003 -128.517532 
L 299.091731 -129.305315 
L 298.644316 -130.100273 
L 298.191637 -128.571599 
L 297.733569 -129.085986 
L 297.269982 -128.217134 
L 296.800742 -128.500269 
L 296.325708 -128.862207 
L 295.844736 -132.741228 
L 295.357676 -132.418212 
L 294.864371 -133.635862 
L 294.364659 -131.209644 
L 293.858373 -131.37803 
L 293.345335 -132.139278 
L 292.825364 -133.315876 
L 292.29827 -135.341526 
L 291.763856 -135.175899 
L 291.221914 -135.060206 
L 290.672229 -132.985173 
L 290.114578 -133.094612 
L 289.548726 -136.327652 
L 288.974428 -136.190676 
L 288.391428 -137.101541 
L 287.799459 -135.793583 
L 287.19824 -137.714994 
L 286.587477 -139.23461 
L 285.966863 -138.163436 
L 285.336074 -138.858841 
L 284.694772 -138.904923 
L 284.0426 -140.675745 
L 283.379182 -140.284382 
L 282.704126 -140.873333 
L 282.017014 -143.017572 
L 281.317408 -142.153258 
L 280.604846 -145.209125 
L 279.878839 -144.075048 
L 279.138869 -142.76359 
L 278.384389 -145.80253 
L 277.614818 -143.578171 
L 276.829541 -143.938823 
L 276.027903 -147.084197 
L 275.209207 -145.214667 
L 274.372712 -145.723207 
L 273.517627 -146.603891 
L 272.643106 -146.422529 
L 271.748246 -148.54319 
L 270.832078 -148.953122 
L 269.893562 -147.520966 
L 268.931581 -151.360132 
L 267.944931 -150.678746 
L 266.932313 -148.992177 
L 265.892324 -149.161488 
L 264.823443 -150.318226 
L 263.724018 -152.482677 
L 262.592253 -152.550261 
L 261.426186 -156.059009 
L 260.223675 -153.146061 
L 258.982365 -154.954215 
L 257.699672 -156.15025 
L 256.372739 -158.839465 
L 254.998405 -158.797506 
L 253.573159 -159.919078 
L 252.093082 -161.22805 
L 250.553787 -161.128873 
L 248.950336 -162.226775 
L 247.277149 -164.404205 
L 245.527882 -162.938693 
L 243.695286 -164.462287 
L 241.771022 -166.028964 
L 239.745437 -167.471379 
L 237.607262 -167.309733 
L 235.343241 -170.443079 
L 232.93763 -170.407376 
L 230.371529 -171.08847 
L 227.621985 -173.041701 
L 224.660736 -175.917558 
L 221.452441 -176.414126 
L 217.952098 -177.464417 
L 214.101162 -178.612784 
L 209.821505 -180.965551 
L 205.005572 -181.441167 
L 199.499445 -185.253829 
L 193.071664 -189.390812 
L 185.350408 -194.098415 
L 175.68052 -198.64916 
L 162.733995 -209.277056 
L 153.761336 -213.804611 
L 153.370701 -214.564216 
L 152.976059 -215.505397 
L 152.577327 -214.610116 
L 152.17442 -216.847927 
L 151.76725 -216.097306 
L 151.355725 -216.104014 
L 150.93975 -215.642907 
L 150.51923 -216.826812 
L 150.094063 -217.119013 
L 149.664145 -217.45481 
L 149.229369 -218.927669 
L 148.789624 -218.679738 
L 148.344796 -219.088823 
L 147.894764 -218.262946 
L 147.439407 -218.321861 
L 146.978596 -219.412747 
L 146.512199 -220.142412 
L 146.04008 -220.37378 
L 145.562096 -220.333764 
L 145.078099 -220.17296 
L 144.587936 -220.465635 
L 144.091448 -222.536892 
L 143.588471 -220.514174 
L 143.078831 -222.217407 
L 142.56235 -222.500068 
L 142.038842 -222.76212 
L 141.508113 -222.734919 
L 140.969961 -224.15411 
L 140.424175 -222.728755 
L 139.870536 -224.011652 
L 139.308814 -223.320441 
L 138.738771 -224.528806 
L 138.160155 -223.125327 
L 137.572704 -224.896923 
L 136.976146 -225.947207 
L 136.370192 -225.542077 
L 135.754543 -226.733261 
L 135.128883 -225.802962 
L 134.492881 -227.461036 
L 133.84619 -226.25683 
L 133.188443 -228.2347 
L 132.519256 -229.077638 
L 131.838225 -229.312137 
L 131.144923 -228.421264 
L 130.438899 -229.793127 
L 129.719677 -230.760053 
L 128.986755 -232.045453 
L 128.2396 -231.693877 
L 127.47765 -231.916396 
L 126.700305 -233.074615 
L 125.906932 -233.307915 
L 125.096854 -233.291967 
L 124.269355 -234.241702 
L 123.423667 -234.378728 
L 122.558973 -234.881667 
L 121.6744 -235.17968 
L 120.769011 -236.479041 
L 119.841804 -236.086973 
L 118.8917 -236.778258 
L 117.91754 -237.22247 
L 116.918075 -237.079174 
L 115.891954 -237.360566 
L 114.837717 -238.112626 
L 113.753779 -238.338803 
L 112.638419 -238.429303 
L 111.489759 -238.994582 
L 110.30575 -239.577448 
L 109.084148 -239.99736 
L 107.822486 -239.788825 
L 106.518047 -240.259221 
L 105.16783 -240.437592 
L 103.768503 -240.734806 
L 102.316359 -240.4545 
L 100.807254 -240.805024 
L 99.236536 -241.115783 
L 97.598959 -240.907687 
L 95.888578 -240.899409 
L 94.098615 -241.450367 
L 92.221304 -241.293924 
L 90.247679 -241.822557 
L 88.167321 -241.816199 
L 85.968023 -241.880145 
L 83.635354 -242.031308 
L 81.15209 -242.429464 
L 78.497434 -242.334307 
L 75.645963 -242.640999 
L 72.56614 -242.878383 
L 69.218182 -243.556364 
z
" style="stroke: #ff0000; stroke-opacity: 0.2"/>
    </defs>
    <g clip-path="url(#p61aa318c94)">
     <use xlink:href="#m4520bca630" x="0" y="288" style="fill: #ff0000; fill-opacity: 0.2; stroke: #ff0000; stroke-opacity: 0.2"/>
    </g>
   </g>
   <g id="matplotlib.axis_1">
    <g id="xtick_1">
     <g id="line2d_1">
      <defs>
       <path id="mabd479babb" d="M 0 0 
L 0 3.5 
" style="stroke: #000000; stroke-width: 0.8"/>
      </defs>
      <g>
       <use xlink:href="#mabd479babb" x="65.550908" y="252" style="stroke: #000000; stroke-width: 0.8"/>
      </g>
     </g>
     <g id="text_1">
      <!-- $\mathdefault{10^{1}}$ -->
      <g transform="translate(56.750908 266.598437)scale(0.1 -0.1)">
       <defs>
        <path id="DejaVuSans-31" d="M 794 531 
L 1825 531 
L 1825 4091 
L 703 3866 
L 703 4441 
L 1819 4666 
L 2450 4666 
L 2450 531 
L 3481 531 
L 3481 0 
L 794 0 
L 794 531 
z
" transform="scale(0.015625)"/>
        <path id="DejaVuSans-30" d="M 2034 4250 
Q 1547 4250 1301 3770 
Q 1056 3291 1056 2328 
Q 1056 1369 1301 889 
Q 1547 409 2034 409 
Q 2525 409 2770 889 
Q 3016 1369 3016 2328 
Q 3016 3291 2770 3770 
Q 2525 4250 2034 4250 
z
M 2034 4750 
Q 2819 4750 3233 4129 
Q 3647 3509 3647 2328 
Q 3647 1150 3233 529 
Q 2819 -91 2034 -91 
Q 1250 -91 836 529 
Q 422 1150 422 2328 
Q 422 3509 836 4129 
Q 1250 4750 2034 4750 
z
" transform="scale(0.015625)"/>
       </defs>
       <use xlink:href="#DejaVuSans-31" transform="translate(0 0.684375)"/>
       <use xlink:href="#DejaVuSans-30" transform="translate(63.623047 0.684375)"/>
       <use xlink:href="#DejaVuSans-31" transform="translate(128.203125 38.965625)scale(0.7)"/>
      </g>
     </g>
    </g>
    <g id="xtick_2">
     <g id="line2d_2">
      <g>
       <use xlink:href="#mabd479babb" x="154.148045" y="252" style="stroke: #000000; stroke-width: 0.8"/>
      </g>
     </g>
     <g id="text_2">
      <!-- $\mathdefault{10^{2}}$ -->
      <g transform="translate(145.348045 266.598437)scale(0.1 -0.1)">
       <defs>
        <path id="DejaVuSans-32" d="M 1228 531 
L 3431 531 
L 3431 0 
L 469 0 
L 469 531 
Q 828 903 1448 1529 
Q 2069 2156 2228 2338 
Q 2531 2678 2651 2914 
Q 2772 3150 2772 3378 
Q 2772 3750 2511 3984 
Q 2250 4219 1831 4219 
Q 1534 4219 1204 4116 
Q 875 4013 500 3803 
L 500 4441 
Q 881 4594 1212 4672 
Q 1544 4750 1819 4750 
Q 2544 4750 2975 4387 
Q 3406 4025 3406 3419 
Q 3406 3131 3298 2873 
Q 3191 2616 2906 2266 
Q 2828 2175 2409 1742 
Q 1991 1309 1228 531 
z
" transform="scale(0.015625)"/>
       </defs>
       <use xlink:href="#DejaVuSans-31" transform="translate(0 0.765625)"/>
       <use xlink:href="#DejaVuSans-30" transform="translate(63.623047 0.765625)"/>
       <use xlink:href="#DejaVuSans-32" transform="translate(128.203125 39.046875)scale(0.7)"/>
      </g>
     </g>
    </g>
    <g id="xtick_3">
     <g id="line2d_3">
      <g>
       <use xlink:href="#mabd479babb" x="242.745182" y="252" style="stroke: #000000; stroke-width: 0.8"/>
      </g>
     </g>
     <g id="text_3">
      <!-- $\mathdefault{10^{3}}$ -->
      <g transform="translate(233.945182 266.598437)scale(0.1 -0.1)">
       <defs>
        <path id="DejaVuSans-33" d="M 2597 2516 
Q 3050 2419 3304 2112 
Q 3559 1806 3559 1356 
Q 3559 666 3084 287 
Q 2609 -91 1734 -91 
Q 1441 -91 1130 -33 
Q 819 25 488 141 
L 488 750 
Q 750 597 1062 519 
Q 1375 441 1716 441 
Q 2309 441 2620 675 
Q 2931 909 2931 1356 
Q 2931 1769 2642 2001 
Q 2353 2234 1838 2234 
L 1294 2234 
L 1294 2753 
L 1863 2753 
Q 2328 2753 2575 2939 
Q 2822 3125 2822 3475 
Q 2822 3834 2567 4026 
Q 2313 4219 1838 4219 
Q 1578 4219 1281 4162 
Q 984 4106 628 3988 
L 628 4550 
Q 988 4650 1302 4700 
Q 1616 4750 1894 4750 
Q 2613 4750 3031 4423 
Q 3450 4097 3450 3541 
Q 3450 3153 3228 2886 
Q 3006 2619 2597 2516 
z
" transform="scale(0.015625)"/>
       </defs>
       <use xlink:href="#DejaVuSans-31" transform="translate(0 0.765625)"/>
       <use xlink:href="#DejaVuSans-30" transform="translate(63.623047 0.765625)"/>
       <use xlink:href="#DejaVuSans-33" transform="translate(128.203125 39.046875)scale(0.7)"/>
      </g>
     </g>
    </g>
    <g id="xtick_4">
     <g id="line2d_4">
      <g>
       <use xlink:href="#mabd479babb" x="331.342319" y="252" style="stroke: #000000; stroke-width: 0.8"/>
      </g>
     </g>
     <g id="text_4">
      <!-- $\mathdefault{10^{4}}$ -->
      <g transform="translate(322.542319 266.598437)scale(0.1 -0.1)">
       <defs>
        <path id="DejaVuSans-34" d="M 2419 4116 
L 825 1625 
L 2419 1625 
L 2419 4116 
z
M 2253 4666 
L 3047 4666 
L 3047 1625 
L 3713 1625 
L 3713 1100 
L 3047 1100 
L 3047 0 
L 2419 0 
L 2419 1100 
L 313 1100 
L 313 1709 
L 2253 4666 
z
" transform="scale(0.015625)"/>
       </defs>
       <use xlink:href="#DejaVuSans-31" transform="translate(0 0.684375)"/>
       <use xlink:href="#DejaVuSans-30" transform="translate(63.623047 0.684375)"/>
       <use xlink:href="#DejaVuSans-34" transform="translate(128.203125 38.965625)scale(0.7)"/>
      </g>
     </g>
    </g>
    <g id="xtick_5">
     <g id="line2d_5">
      <defs>
       <path id="m8efe8f9f38" d="M 0 0 
L 0 2 
" style="stroke: #000000; stroke-width: 0.6"/>
      </defs>
      <g>
       <use xlink:href="#m8efe8f9f38" x="56.964959" y="252" style="stroke: #000000; stroke-width: 0.6"/>
      </g>
     </g>
    </g>
    <g id="xtick_6">
     <g id="line2d_6">
      <g>
       <use xlink:href="#m8efe8f9f38" x="61.496926" y="252" style="stroke: #000000; stroke-width: 0.6"/>
      </g>
     </g>
    </g>
    <g id="xtick_7">
     <g id="line2d_7">
      <g>
       <use xlink:href="#m8efe8f9f38" x="92.221304" y="252" style="stroke: #000000; stroke-width: 0.6"/>
      </g>
     </g>
    </g>
    <g id="xtick_8">
     <g id="line2d_8">
      <g>
       <use xlink:href="#m8efe8f9f38" x="107.822486" y="252" style="stroke: #000000; stroke-width: 0.6"/>
      </g>
     </g>
    </g>
    <g id="xtick_9">
     <g id="line2d_9">
      <g>
       <use xlink:href="#m8efe8f9f38" x="118.8917" y="252" style="stroke: #000000; stroke-width: 0.6"/>
      </g>
     </g>
    </g>
    <g id="xtick_10">
     <g id="line2d_10">
      <g>
       <use xlink:href="#m8efe8f9f38" x="127.47765" y="252" style="stroke: #000000; stroke-width: 0.6"/>
      </g>
     </g>
    </g>
    <g id="xtick_11">
     <g id="line2d_11">
      <g>
       <use xlink:href="#m8efe8f9f38" x="134.492881" y="252" style="stroke: #000000; stroke-width: 0.6"/>
      </g>
     </g>
    </g>
    <g id="xtick_12">
     <g id="line2d_12">
      <g>
       <use xlink:href="#m8efe8f9f38" x="140.424175" y="252" style="stroke: #000000; stroke-width: 0.6"/>
      </g>
     </g>
    </g>
    <g id="xtick_13">
     <g id="line2d_13">
      <g>
       <use xlink:href="#m8efe8f9f38" x="145.562096" y="252" style="stroke: #000000; stroke-width: 0.6"/>
      </g>
     </g>
    </g>
    <g id="xtick_14">
     <g id="line2d_14">
      <g>
       <use xlink:href="#m8efe8f9f38" x="150.094063" y="252" style="stroke: #000000; stroke-width: 0.6"/>
      </g>
     </g>
    </g>
    <g id="xtick_15">
     <g id="line2d_15">
      <g>
       <use xlink:href="#m8efe8f9f38" x="180.818441" y="252" style="stroke: #000000; stroke-width: 0.6"/>
      </g>
     </g>
    </g>
    <g id="xtick_16">
     <g id="line2d_16">
      <g>
       <use xlink:href="#m8efe8f9f38" x="196.419622" y="252" style="stroke: #000000; stroke-width: 0.6"/>
      </g>
     </g>
    </g>
    <g id="xtick_17">
     <g id="line2d_17">
      <g>
       <use xlink:href="#m8efe8f9f38" x="207.488837" y="252" style="stroke: #000000; stroke-width: 0.6"/>
      </g>
     </g>
    </g>
    <g id="xtick_18">
     <g id="line2d_18">
      <g>
       <use xlink:href="#m8efe8f9f38" x="216.074786" y="252" style="stroke: #000000; stroke-width: 0.6"/>
      </g>
     </g>
    </g>
    <g id="xtick_19">
     <g id="line2d_19">
      <g>
       <use xlink:href="#m8efe8f9f38" x="223.090018" y="252" style="stroke: #000000; stroke-width: 0.6"/>
      </g>
     </g>
    </g>
    <g id="xtick_20">
     <g id="line2d_20">
      <g>
       <use xlink:href="#m8efe8f9f38" x="229.021312" y="252" style="stroke: #000000; stroke-width: 0.6"/>
      </g>
     </g>
    </g>
    <g id="xtick_21">
     <g id="line2d_21">
      <g>
       <use xlink:href="#m8efe8f9f38" x="234.159232" y="252" style="stroke: #000000; stroke-width: 0.6"/>
      </g>
     </g>
    </g>
    <g id="xtick_22">
     <g id="line2d_22">
      <g>
       <use xlink:href="#m8efe8f9f38" x="238.691199" y="252" style="stroke: #000000; stroke-width: 0.6"/>
      </g>
     </g>
    </g>
    <g id="xtick_23">
     <g id="line2d_23">
      <g>
       <use xlink:href="#m8efe8f9f38" x="269.415578" y="252" style="stroke: #000000; stroke-width: 0.6"/>
      </g>
     </g>
    </g>
    <g id="xtick_24">
     <g id="line2d_24">
      <g>
       <use xlink:href="#m8efe8f9f38" x="285.016759" y="252" style="stroke: #000000; stroke-width: 0.6"/>
      </g>
     </g>
    </g>
    <g id="xtick_25">
     <g id="line2d_25">
      <g>
       <use xlink:href="#m8efe8f9f38" x="296.085973" y="252" style="stroke: #000000; stroke-width: 0.6"/>
      </g>
     </g>
    </g>
    <g id="xtick_26">
     <g id="line2d_26">
      <g>
       <use xlink:href="#m8efe8f9f38" x="304.671923" y="252" style="stroke: #000000; stroke-width: 0.6"/>
      </g>
     </g>
    </g>
    <g id="xtick_27">
     <g id="line2d_27">
      <g>
       <use xlink:href="#m8efe8f9f38" x="311.687155" y="252" style="stroke: #000000; stroke-width: 0.6"/>
      </g>
     </g>
    </g>
    <g id="xtick_28">
     <g id="line2d_28">
      <g>
       <use xlink:href="#m8efe8f9f38" x="317.618449" y="252" style="stroke: #000000; stroke-width: 0.6"/>
      </g>
     </g>
    </g>
    <g id="xtick_29">
     <g id="line2d_29">
      <g>
       <use xlink:href="#m8efe8f9f38" x="322.756369" y="252" style="stroke: #000000; stroke-width: 0.6"/>
      </g>
     </g>
    </g>
    <g id="xtick_30">
     <g id="line2d_30">
      <g>
       <use xlink:href="#m8efe8f9f38" x="327.288336" y="252" style="stroke: #000000; stroke-width: 0.6"/>
      </g>
     </g>
    </g>
    <g id="xtick_31">
     <g id="line2d_31">
      <g>
       <use xlink:href="#m8efe8f9f38" x="358.012715" y="252" style="stroke: #000000; stroke-width: 0.6"/>
      </g>
     </g>
    </g>
    <g id="xtick_32">
     <g id="line2d_32">
      <g>
       <use xlink:href="#m8efe8f9f38" x="373.613896" y="252" style="stroke: #000000; stroke-width: 0.6"/>
      </g>
     </g>
    </g>
    <g id="xtick_33">
     <g id="line2d_33">
      <g>
       <use xlink:href="#m8efe8f9f38" x="384.68311" y="252" style="stroke: #000000; stroke-width: 0.6"/>
      </g>
     </g>
    </g>
    <g id="text_5">
     <!-- Resources -->
     <g transform="translate(195.867969 280.276563)scale(0.1 -0.1)">
      <defs>
       <path id="DejaVuSans-52" d="M 2841 2188 
Q 3044 2119 3236 1894 
Q 3428 1669 3622 1275 
L 4263 0 
L 3584 0 
L 2988 1197 
Q 2756 1666 2539 1819 
Q 2322 1972 1947 1972 
L 1259 1972 
L 1259 0 
L 628 0 
L 628 4666 
L 2053 4666 
Q 2853 4666 3247 4331 
Q 3641 3997 3641 3322 
Q 3641 2881 3436 2590 
Q 3231 2300 2841 2188 
z
M 1259 4147 
L 1259 2491 
L 2053 2491 
Q 2509 2491 2742 2702 
Q 2975 2913 2975 3322 
Q 2975 3731 2742 3939 
Q 2509 4147 2053 4147 
L 1259 4147 
z
" transform="scale(0.015625)"/>
       <path id="DejaVuSans-65" d="M 3597 1894 
L 3597 1613 
L 953 1613 
Q 991 1019 1311 708 
Q 1631 397 2203 397 
Q 2534 397 2845 478 
Q 3156 559 3463 722 
L 3463 178 
Q 3153 47 2828 -22 
Q 2503 -91 2169 -91 
Q 1331 -91 842 396 
Q 353 884 353 1716 
Q 353 2575 817 3079 
Q 1281 3584 2069 3584 
Q 2775 3584 3186 3129 
Q 3597 2675 3597 1894 
z
M 3022 2063 
Q 3016 2534 2758 2815 
Q 2500 3097 2075 3097 
Q 1594 3097 1305 2825 
Q 1016 2553 972 2059 
L 3022 2063 
z
" transform="scale(0.015625)"/>
       <path id="DejaVuSans-73" d="M 2834 3397 
L 2834 2853 
Q 2591 2978 2328 3040 
Q 2066 3103 1784 3103 
Q 1356 3103 1142 2972 
Q 928 2841 928 2578 
Q 928 2378 1081 2264 
Q 1234 2150 1697 2047 
L 1894 2003 
Q 2506 1872 2764 1633 
Q 3022 1394 3022 966 
Q 3022 478 2636 193 
Q 2250 -91 1575 -91 
Q 1294 -91 989 -36 
Q 684 19 347 128 
L 347 722 
Q 666 556 975 473 
Q 1284 391 1588 391 
Q 1994 391 2212 530 
Q 2431 669 2431 922 
Q 2431 1156 2273 1281 
Q 2116 1406 1581 1522 
L 1381 1569 
Q 847 1681 609 1914 
Q 372 2147 372 2553 
Q 372 3047 722 3315 
Q 1072 3584 1716 3584 
Q 2034 3584 2315 3537 
Q 2597 3491 2834 3397 
z
" transform="scale(0.015625)"/>
       <path id="DejaVuSans-6f" d="M 1959 3097 
Q 1497 3097 1228 2736 
Q 959 2375 959 1747 
Q 959 1119 1226 758 
Q 1494 397 1959 397 
Q 2419 397 2687 759 
Q 2956 1122 2956 1747 
Q 2956 2369 2687 2733 
Q 2419 3097 1959 3097 
z
M 1959 3584 
Q 2709 3584 3137 3096 
Q 3566 2609 3566 1747 
Q 3566 888 3137 398 
Q 2709 -91 1959 -91 
Q 1206 -91 779 398 
Q 353 888 353 1747 
Q 353 2609 779 3096 
Q 1206 3584 1959 3584 
z
" transform="scale(0.015625)"/>
       <path id="DejaVuSans-75" d="M 544 1381 
L 544 3500 
L 1119 3500 
L 1119 1403 
Q 1119 906 1312 657 
Q 1506 409 1894 409 
Q 2359 409 2629 706 
Q 2900 1003 2900 1516 
L 2900 3500 
L 3475 3500 
L 3475 0 
L 2900 0 
L 2900 538 
Q 2691 219 2414 64 
Q 2138 -91 1772 -91 
Q 1169 -91 856 284 
Q 544 659 544 1381 
z
M 1991 3584 
L 1991 3584 
z
" transform="scale(0.015625)"/>
       <path id="DejaVuSans-72" d="M 2631 2963 
Q 2534 3019 2420 3045 
Q 2306 3072 2169 3072 
Q 1681 3072 1420 2755 
Q 1159 2438 1159 1844 
L 1159 0 
L 581 0 
L 581 3500 
L 1159 3500 
L 1159 2956 
Q 1341 3275 1631 3429 
Q 1922 3584 2338 3584 
Q 2397 3584 2469 3576 
Q 2541 3569 2628 3553 
L 2631 2963 
z
" transform="scale(0.015625)"/>
       <path id="DejaVuSans-63" d="M 3122 3366 
L 3122 2828 
Q 2878 2963 2633 3030 
Q 2388 3097 2138 3097 
Q 1578 3097 1268 2742 
Q 959 2388 959 1747 
Q 959 1106 1268 751 
Q 1578 397 2138 397 
Q 2388 397 2633 464 
Q 2878 531 3122 666 
L 3122 134 
Q 2881 22 2623 -34 
Q 2366 -91 2075 -91 
Q 1284 -91 818 406 
Q 353 903 353 1747 
Q 353 2603 823 3093 
Q 1294 3584 2113 3584 
Q 2378 3584 2631 3529 
Q 2884 3475 3122 3366 
z
" transform="scale(0.015625)"/>
      </defs>
      <use xlink:href="#DejaVuSans-52"/>
      <use xlink:href="#DejaVuSans-65" x="64.982422"/>
      <use xlink:href="#DejaVuSans-73" x="126.505859"/>
      <use xlink:href="#DejaVuSans-6f" x="178.605469"/>
      <use xlink:href="#DejaVuSans-75" x="239.787109"/>
      <use xlink:href="#DejaVuSans-72" x="303.166016"/>
      <use xlink:href="#DejaVuSans-63" x="342.029297"/>
      <use xlink:href="#DejaVuSans-65" x="397.009766"/>
      <use xlink:href="#DejaVuSans-73" x="458.533203"/>
     </g>
    </g>
   </g>
   <g id="matplotlib.axis_2">
    <g id="ytick_1">
     <g id="line2d_34">
      <defs>
       <path id="ma3f7842e6e" d="M 0 0 
L -3.5 0 
" style="stroke: #000000; stroke-width: 0.8"/>
      </defs>
      <g>
       <use xlink:href="#ma3f7842e6e" x="54" y="207.639116" style="stroke: #000000; stroke-width: 0.8"/>
      </g>
     </g>
     <g id="text_6">
      <!-- $\mathdefault{10^{-4}}$ -->
      <g transform="translate(23.5 211.438335)scale(0.1 -0.1)">
       <defs>
        <path id="DejaVuSans-2212" d="M 678 2272 
L 4684 2272 
L 4684 1741 
L 678 1741 
L 678 2272 
z
" transform="scale(0.015625)"/>
       </defs>
       <use xlink:href="#DejaVuSans-31" transform="translate(0 0.684375)"/>
       <use xlink:href="#DejaVuSans-30" transform="translate(63.623047 0.684375)"/>
       <use xlink:href="#DejaVuSans-2212" transform="translate(128.203125 38.965625)scale(0.7)"/>
       <use xlink:href="#DejaVuSans-34" transform="translate(186.855469 38.965625)scale(0.7)"/>
      </g>
     </g>
    </g>
    <g id="ytick_2">
     <g id="line2d_35">
      <g>
       <use xlink:href="#ma3f7842e6e" x="54" y="158.878052" style="stroke: #000000; stroke-width: 0.8"/>
      </g>
     </g>
     <g id="text_7">
      <!-- $\mathdefault{10^{-3}}$ -->
      <g transform="translate(23.5 162.677271)scale(0.1 -0.1)">
       <use xlink:href="#DejaVuSans-31" transform="translate(0 0.765625)"/>
       <use xlink:href="#DejaVuSans-30" transform="translate(63.623047 0.765625)"/>
       <use xlink:href="#DejaVuSans-2212" transform="translate(128.203125 39.046875)scale(0.7)"/>
       <use xlink:href="#DejaVuSans-33" transform="translate(186.855469 39.046875)scale(0.7)"/>
      </g>
     </g>
    </g>
    <g id="ytick_3">
     <g id="line2d_36">
      <g>
       <use xlink:href="#ma3f7842e6e" x="54" y="110.116988" style="stroke: #000000; stroke-width: 0.8"/>
      </g>
     </g>
     <g id="text_8">
      <!-- $\mathdefault{10^{-2}}$ -->
      <g transform="translate(23.5 113.916206)scale(0.1 -0.1)">
       <use xlink:href="#DejaVuSans-31" transform="translate(0 0.765625)"/>
       <use xlink:href="#DejaVuSans-30" transform="translate(63.623047 0.765625)"/>
       <use xlink:href="#DejaVuSans-2212" transform="translate(128.203125 39.046875)scale(0.7)"/>
       <use xlink:href="#DejaVuSans-32" transform="translate(186.855469 39.046875)scale(0.7)"/>
      </g>
     </g>
    </g>
    <g id="ytick_4">
     <g id="line2d_37">
      <g>
       <use xlink:href="#ma3f7842e6e" x="54" y="61.355923" style="stroke: #000000; stroke-width: 0.8"/>
      </g>
     </g>
     <g id="text_9">
      <!-- $\mathdefault{10^{-1}}$ -->
      <g transform="translate(23.5 65.155142)scale(0.1 -0.1)">
       <use xlink:href="#DejaVuSans-31" transform="translate(0 0.684375)"/>
       <use xlink:href="#DejaVuSans-30" transform="translate(63.623047 0.684375)"/>
       <use xlink:href="#DejaVuSans-2212" transform="translate(128.203125 38.965625)scale(0.7)"/>
       <use xlink:href="#DejaVuSans-31" transform="translate(186.855469 38.965625)scale(0.7)"/>
      </g>
     </g>
    </g>
    <g id="ytick_5">
     <g id="line2d_38">
      <defs>
       <path id="m497a3e3356" d="M 0 0 
L -2 0 
" style="stroke: #000000; stroke-width: 0.6"/>
      </defs>
      <g>
       <use xlink:href="#m497a3e3356" x="54" y="241.721637" style="stroke: #000000; stroke-width: 0.6"/>
      </g>
     </g>
    </g>
    <g id="ytick_6">
     <g id="line2d_39">
      <g>
       <use xlink:href="#m497a3e3356" x="54" y="233.13524" style="stroke: #000000; stroke-width: 0.6"/>
      </g>
     </g>
    </g>
    <g id="ytick_7">
     <g id="line2d_40">
      <g>
       <use xlink:href="#m497a3e3356" x="54" y="227.043094" style="stroke: #000000; stroke-width: 0.6"/>
      </g>
     </g>
    </g>
    <g id="ytick_8">
     <g id="line2d_41">
      <g>
       <use xlink:href="#m497a3e3356" x="54" y="222.317659" style="stroke: #000000; stroke-width: 0.6"/>
      </g>
     </g>
    </g>
    <g id="ytick_9">
     <g id="line2d_42">
      <g>
       <use xlink:href="#m497a3e3356" x="54" y="218.456697" style="stroke: #000000; stroke-width: 0.6"/>
      </g>
     </g>
    </g>
    <g id="ytick_10">
     <g id="line2d_43">
      <g>
       <use xlink:href="#m497a3e3356" x="54" y="215.1923" style="stroke: #000000; stroke-width: 0.6"/>
      </g>
     </g>
    </g>
    <g id="ytick_11">
     <g id="line2d_44">
      <g>
       <use xlink:href="#m497a3e3356" x="54" y="212.364551" style="stroke: #000000; stroke-width: 0.6"/>
      </g>
     </g>
    </g>
    <g id="ytick_12">
     <g id="line2d_45">
      <g>
       <use xlink:href="#m497a3e3356" x="54" y="209.8703" style="stroke: #000000; stroke-width: 0.6"/>
      </g>
     </g>
    </g>
    <g id="ytick_13">
     <g id="line2d_46">
      <g>
       <use xlink:href="#m497a3e3356" x="54" y="192.960573" style="stroke: #000000; stroke-width: 0.6"/>
      </g>
     </g>
    </g>
    <g id="ytick_14">
     <g id="line2d_47">
      <g>
       <use xlink:href="#m497a3e3356" x="54" y="184.374176" style="stroke: #000000; stroke-width: 0.6"/>
      </g>
     </g>
    </g>
    <g id="ytick_15">
     <g id="line2d_48">
      <g>
       <use xlink:href="#m497a3e3356" x="54" y="178.28203" style="stroke: #000000; stroke-width: 0.6"/>
      </g>
     </g>
    </g>
    <g id="ytick_16">
     <g id="line2d_49">
      <g>
       <use xlink:href="#m497a3e3356" x="54" y="173.556595" style="stroke: #000000; stroke-width: 0.6"/>
      </g>
     </g>
    </g>
    <g id="ytick_17">
     <g id="line2d_50">
      <g>
       <use xlink:href="#m497a3e3356" x="54" y="169.695633" style="stroke: #000000; stroke-width: 0.6"/>
      </g>
     </g>
    </g>
    <g id="ytick_18">
     <g id="line2d_51">
      <g>
       <use xlink:href="#m497a3e3356" x="54" y="166.431236" style="stroke: #000000; stroke-width: 0.6"/>
      </g>
     </g>
    </g>
    <g id="ytick_19">
     <g id="line2d_52">
      <g>
       <use xlink:href="#m497a3e3356" x="54" y="163.603487" style="stroke: #000000; stroke-width: 0.6"/>
      </g>
     </g>
    </g>
    <g id="ytick_20">
     <g id="line2d_53">
      <g>
       <use xlink:href="#m497a3e3356" x="54" y="161.109236" style="stroke: #000000; stroke-width: 0.6"/>
      </g>
     </g>
    </g>
    <g id="ytick_21">
     <g id="line2d_54">
      <g>
       <use xlink:href="#m497a3e3356" x="54" y="144.199509" style="stroke: #000000; stroke-width: 0.6"/>
      </g>
     </g>
    </g>
    <g id="ytick_22">
     <g id="line2d_55">
      <g>
       <use xlink:href="#m497a3e3356" x="54" y="135.613112" style="stroke: #000000; stroke-width: 0.6"/>
      </g>
     </g>
    </g>
    <g id="ytick_23">
     <g id="line2d_56">
      <g>
       <use xlink:href="#m497a3e3356" x="54" y="129.520966" style="stroke: #000000; stroke-width: 0.6"/>
      </g>
     </g>
    </g>
    <g id="ytick_24">
     <g id="line2d_57">
      <g>
       <use xlink:href="#m497a3e3356" x="54" y="124.795531" style="stroke: #000000; stroke-width: 0.6"/>
      </g>
     </g>
    </g>
    <g id="ytick_25">
     <g id="line2d_58">
      <g>
       <use xlink:href="#m497a3e3356" x="54" y="120.934569" style="stroke: #000000; stroke-width: 0.6"/>
      </g>
     </g>
    </g>
    <g id="ytick_26">
     <g id="line2d_59">
      <g>
       <use xlink:href="#m497a3e3356" x="54" y="117.670172" style="stroke: #000000; stroke-width: 0.6"/>
      </g>
     </g>
    </g>
    <g id="ytick_27">
     <g id="line2d_60">
      <g>
       <use xlink:href="#m497a3e3356" x="54" y="114.842423" style="stroke: #000000; stroke-width: 0.6"/>
      </g>
     </g>
    </g>
    <g id="ytick_28">
     <g id="line2d_61">
      <g>
       <use xlink:href="#m497a3e3356" x="54" y="112.348171" style="stroke: #000000; stroke-width: 0.6"/>
      </g>
     </g>
    </g>
    <g id="ytick_29">
     <g id="line2d_62">
      <g>
       <use xlink:href="#m497a3e3356" x="54" y="95.438445" style="stroke: #000000; stroke-width: 0.6"/>
      </g>
     </g>
    </g>
    <g id="ytick_30">
     <g id="line2d_63">
      <g>
       <use xlink:href="#m497a3e3356" x="54" y="86.852047" style="stroke: #000000; stroke-width: 0.6"/>
      </g>
     </g>
    </g>
    <g id="ytick_31">
     <g id="line2d_64">
      <g>
       <use xlink:href="#m497a3e3356" x="54" y="80.759902" style="stroke: #000000; stroke-width: 0.6"/>
      </g>
     </g>
    </g>
    <g id="ytick_32">
     <g id="line2d_65">
      <g>
       <use xlink:href="#m497a3e3356" x="54" y="76.034466" style="stroke: #000000; stroke-width: 0.6"/>
      </g>
     </g>
    </g>
    <g id="ytick_33">
     <g id="line2d_66">
      <g>
       <use xlink:href="#m497a3e3356" x="54" y="72.173504" style="stroke: #000000; stroke-width: 0.6"/>
      </g>
     </g>
    </g>
    <g id="ytick_34">
     <g id="line2d_67">
      <g>
       <use xlink:href="#m497a3e3356" x="54" y="68.909108" style="stroke: #000000; stroke-width: 0.6"/>
      </g>
     </g>
    </g>
    <g id="ytick_35">
     <g id="line2d_68">
      <g>
       <use xlink:href="#m497a3e3356" x="54" y="66.081359" style="stroke: #000000; stroke-width: 0.6"/>
      </g>
     </g>
    </g>
    <g id="ytick_36">
     <g id="line2d_69">
      <g>
       <use xlink:href="#m497a3e3356" x="54" y="63.587107" style="stroke: #000000; stroke-width: 0.6"/>
      </g>
     </g>
    </g>
    <g id="ytick_37">
     <g id="line2d_70">
      <g>
       <use xlink:href="#m497a3e3356" x="54" y="46.67738" style="stroke: #000000; stroke-width: 0.6"/>
      </g>
     </g>
    </g>
    <g id="ytick_38">
     <g id="line2d_71">
      <g>
       <use xlink:href="#m497a3e3356" x="54" y="38.090983" style="stroke: #000000; stroke-width: 0.6"/>
      </g>
     </g>
    </g>
    <g id="text_10">
     <!-- MSE -->
     <g transform="translate(17.420313 153.927656)rotate(-90)scale(0.1 -0.1)">
      <defs>
       <path id="DejaVuSans-4d" d="M 628 4666 
L 1569 4666 
L 2759 1491 
L 3956 4666 
L 4897 4666 
L 4897 0 
L 4281 0 
L 4281 4097 
L 3078 897 
L 2444 897 
L 1241 4097 
L 1241 0 
L 628 0 
L 628 4666 
z
" transform="scale(0.015625)"/>
       <path id="DejaVuSans-53" d="M 3425 4513 
L 3425 3897 
Q 3066 4069 2747 4153 
Q 2428 4238 2131 4238 
Q 1616 4238 1336 4038 
Q 1056 3838 1056 3469 
Q 1056 3159 1242 3001 
Q 1428 2844 1947 2747 
L 2328 2669 
Q 3034 2534 3370 2195 
Q 3706 1856 3706 1288 
Q 3706 609 3251 259 
Q 2797 -91 1919 -91 
Q 1588 -91 1214 -16 
Q 841 59 441 206 
L 441 856 
Q 825 641 1194 531 
Q 1563 422 1919 422 
Q 2459 422 2753 634 
Q 3047 847 3047 1241 
Q 3047 1584 2836 1778 
Q 2625 1972 2144 2069 
L 1759 2144 
Q 1053 2284 737 2584 
Q 422 2884 422 3419 
Q 422 4038 858 4394 
Q 1294 4750 2059 4750 
Q 2388 4750 2728 4690 
Q 3069 4631 3425 4513 
z
" transform="scale(0.015625)"/>
       <path id="DejaVuSans-45" d="M 628 4666 
L 3578 4666 
L 3578 4134 
L 1259 4134 
L 1259 2753 
L 3481 2753 
L 3481 2222 
L 1259 2222 
L 1259 531 
L 3634 531 
L 3634 0 
L 628 0 
L 628 4666 
z
" transform="scale(0.015625)"/>
      </defs>
      <use xlink:href="#DejaVuSans-4d"/>
      <use xlink:href="#DejaVuSans-53" x="86.279297"/>
      <use xlink:href="#DejaVuSans-45" x="149.755859"/>
     </g>
    </g>
   </g>
   <g id="line2d_72">
    <path d="M 69.218182 44.835516 
L 72.56614 45.483548 
L 78.497434 45.80788 
L 81.15209 45.810315 
L 83.635354 46.146898 
L 88.167321 46.423585 
L 90.247679 46.399651 
L 92.221304 46.911654 
L 94.098615 46.808704 
L 95.888578 47.347524 
L 99.236536 47.237545 
L 100.807254 47.461028 
L 102.316359 47.865687 
L 103.768503 47.546034 
L 110.30575 49.02408 
L 111.489759 49.351473 
L 112.638419 49.813398 
L 113.753779 49.92751 
L 114.837717 50.329354 
L 115.891954 51.098836 
L 116.918075 51.439035 
L 117.91754 51.509794 
L 118.8917 51.705971 
L 119.841804 52.428648 
L 120.769011 52.222116 
L 121.6744 53.349622 
L 123.423667 54.189665 
L 124.269355 54.288135 
L 125.096854 55.508716 
L 126.700305 55.847971 
L 128.2396 57.311792 
L 128.986755 57.187733 
L 129.719677 58.304086 
L 130.438899 58.892799 
L 131.144923 60.231476 
L 131.838225 59.759783 
L 132.519256 60.300763 
L 133.188443 60.617078 
L 133.84619 62.967543 
L 134.492881 61.401562 
L 135.128883 63.060199 
L 135.754543 62.155438 
L 136.370192 63.900327 
L 136.976146 63.017966 
L 137.572704 64.243955 
L 138.160155 66.12924 
L 138.738771 64.924777 
L 139.308814 66.103971 
L 139.870536 64.807091 
L 140.424175 66.250439 
L 140.969961 65.387303 
L 141.508113 66.703435 
L 142.56235 66.767553 
L 143.078831 66.926507 
L 143.588471 68.515211 
L 144.091448 67.005457 
L 144.587936 68.653855 
L 145.078099 69.166648 
L 145.562096 68.516313 
L 146.04008 68.827607 
L 146.512199 68.935263 
L 146.978596 69.558601 
L 147.439407 70.553063 
L 147.894764 70.872505 
L 148.344796 70.457927 
L 148.789624 70.373327 
L 149.229369 70.941054 
L 149.664145 71.809345 
L 150.094063 72.246612 
L 150.51923 72.320696 
L 150.93975 73.358026 
L 151.355725 73.010316 
L 151.76725 73.086919 
L 152.17442 72.817216 
L 152.577327 74.456173 
L 152.976059 73.637822 
L 153.370701 74.679887 
L 153.761336 75.078233 
L 162.733995 79.846853 
L 175.68052 91.108255 
L 185.350408 95.312692 
L 193.071664 99.570369 
L 199.499445 104.109804 
L 205.005572 107.709022 
L 209.821505 108.320801 
L 214.101162 110.697065 
L 217.952098 111.700466 
L 221.452441 113.239077 
L 224.660736 114.144051 
L 227.621985 116.448566 
L 230.371529 118.445778 
L 235.343241 119.402856 
L 237.607262 121.58005 
L 239.745437 121.555245 
L 241.771022 123.150159 
L 245.527882 126.435083 
L 247.277149 125.93056 
L 248.950336 127.522403 
L 250.553787 127.832294 
L 252.093082 128.623753 
L 254.998405 131.180251 
L 256.372739 130.846821 
L 257.699672 133.17685 
L 258.982365 134.080857 
L 260.223675 136.664212 
L 261.426186 134.164796 
L 262.592253 137.038044 
L 263.724018 137.153576 
L 264.823443 139.369874 
L 265.892324 140.404211 
L 266.932313 140.03614 
L 267.944931 139.11009 
L 268.931581 138.853185 
L 269.893562 141.73385 
L 270.832078 140.240609 
L 271.748246 141.166547 
L 272.643106 142.790975 
L 273.517627 142.953478 
L 274.372712 143.478103 
L 275.209207 144.133516 
L 276.027903 142.701942 
L 276.829541 145.750899 
L 277.614818 145.604672 
L 278.384389 143.751556 
L 279.138869 146.873264 
L 279.878839 145.318772 
L 280.604846 144.961443 
L 281.317408 148.01742 
L 282.017014 147.502612 
L 282.704126 148.746306 
L 284.0426 148.838691 
L 284.694772 150.800988 
L 285.336074 151.054323 
L 286.587477 151.005339 
L 287.19824 152.597943 
L 287.799459 153.617967 
L 288.391428 152.548013 
L 288.974428 154.191155 
L 289.548726 153.493561 
L 290.114578 156.531157 
L 290.672229 156.399161 
L 291.221914 154.630975 
L 291.763856 155.079977 
L 292.29827 153.774183 
L 292.825364 156.756488 
L 293.345335 156.992617 
L 293.858373 158.136987 
L 294.364659 158.534305 
L 294.864371 156.421636 
L 295.357676 157.823303 
L 295.844736 156.733833 
L 296.325708 160.675883 
L 296.800742 161.338962 
L 297.269982 161.369299 
L 297.733569 160.807607 
L 298.191637 161.48461 
L 298.644316 159.264085 
L 299.091731 160.780747 
L 299.534003 160.999659 
L 299.971249 162.117974 
L 300.403582 160.746501 
L 300.831111 162.242664 
L 301.253943 162.426489 
L 301.672178 163.263052 
L 302.495252 165.964993 
L 302.900279 164.591631 
L 303.301087 165.138784 
L 303.697764 164.072228 
L 304.479054 163.318505 
L 304.86383 166.13834 
L 305.244796 164.372736 
L 305.622027 166.027746 
L 305.995595 163.896685 
L 306.365572 164.797937 
L 306.732024 166.811466 
L 307.09502 167.706079 
L 307.454623 167.139246 
L 307.810896 166.127322 
L 308.513697 169.637573 
L 308.860341 166.781016 
L 309.20389 167.793113 
L 309.544399 167.856882 
L 309.881921 168.393457 
L 310.216508 171.256807 
L 310.54821 169.216717 
L 310.877078 168.433048 
L 311.203158 169.203106 
L 311.526498 169.234157 
L 311.847144 168.837594 
L 312.165139 171.221465 
L 312.480528 168.860475 
L 312.793353 172.72328 
L 313.103655 171.052385 
L 313.411475 171.316695 
L 313.716851 172.164496 
L 314.019823 171.948593 
L 314.320428 170.408262 
L 314.618703 171.779253 
L 314.914683 172.068057 
L 315.208404 170.67062 
L 315.4999 172.963951 
L 315.789204 174.165742 
L 316.076349 172.59918 
L 316.361367 174.87022 
L 316.644289 175.048892 
L 316.925146 173.832836 
L 317.203968 170.204635 
L 317.480784 173.585745 
L 317.755623 174.655065 
L 318.028512 173.318751 
L 318.29948 174.182062 
L 318.568552 176.726699 
L 318.835757 173.473854 
L 319.101118 176.600298 
L 319.364662 174.34851 
L 319.626413 176.549021 
L 319.886395 175.964031 
L 320.144633 176.569735 
L 320.401149 173.935803 
L 320.655966 175.64189 
L 320.909107 175.974612 
L 321.160593 176.985182 
L 321.410446 176.447234 
L 321.658687 175.05215 
L 321.905337 176.093003 
L 322.150416 175.714709 
L 322.635939 176.395139 
L 322.876423 177.818693 
L 323.115413 178.52785 
L 323.352928 177.971972 
L 323.588985 177.980964 
L 323.823603 176.537815 
L 324.056799 178.454438 
L 324.288591 178.052715 
L 324.518994 178.053884 
L 324.748026 177.787496 
L 324.975703 177.975513 
L 325.20204 180.71125 
L 325.427054 178.931661 
L 325.873172 181.262922 
L 326.094306 179.319651 
L 326.314177 180.812586 
L 326.532798 179.886456 
L 326.750184 179.551607 
L 327.181306 181.007577 
L 327.395069 179.420438 
L 327.607651 180.491185 
L 327.819065 180.767708 
L 328.029324 181.892108 
L 328.23844 179.746105 
L 328.446426 182.349805 
L 328.653293 183.108823 
L 328.859054 182.542633 
L 329.063721 183.627139 
L 329.267305 181.89077 
L 329.469817 181.730673 
L 329.671269 183.836022 
L 330.071036 179.601721 
L 330.269373 181.683065 
L 330.466693 182.322688 
L 330.663006 183.919662 
L 330.858322 181.748903 
L 331.052652 182.792442 
L 331.246005 185.019099 
L 331.438392 183.193804 
L 331.629821 182.543706 
L 331.820303 183.988443 
L 332.386155 183.022265 
L 332.572938 184.692385 
L 332.758819 184.956899 
L 332.943806 187.214396 
L 333.127908 186.868889 
L 333.311134 185.947326 
L 333.493491 186.988022 
L 333.674987 186.584254 
L 333.855632 184.941515 
L 334.035433 186.122135 
L 334.214397 183.607549 
L 334.392533 186.740306 
L 334.569847 185.368638 
L 334.746349 187.681753 
L 334.922044 186.380716 
L 335.271047 186.338559 
L 335.444368 187.943778 
L 335.616912 187.42479 
L 335.788686 186.302181 
L 335.959696 187.779747 
L 336.12995 186.607195 
L 336.299453 188.306307 
L 336.468213 186.403888 
L 336.803529 188.409877 
L 336.970098 187.732614 
L 337.135948 189.327783 
L 337.301087 188.545746 
L 337.46552 184.447344 
L 337.629253 187.81279 
L 337.954644 189.519029 
L 338.116313 188.339897 
L 338.437628 189.659538 
L 338.597285 186.239748 
L 338.914625 190.420026 
L 339.072319 187.910475 
L 339.385781 190.989603 
L 339.541559 190.535538 
L 339.69671 189.213487 
L 339.851237 192.204038 
L 340.158442 189.669478 
L 340.31113 191.659232 
L 340.463214 190.130736 
L 340.614699 190.506726 
L 340.765591 190.551652 
L 340.915893 189.325068 
L 341.06561 191.489241 
L 341.214747 189.909066 
L 341.511297 190.73087 
L 341.65872 189.802747 
L 341.80558 190.972776 
L 341.951881 190.794706 
L 342.242826 192.500775 
L 342.387477 191.397653 
L 342.675159 193.236945 
L 342.818197 191.274066 
L 342.960706 194.151429 
L 343.244149 192.27117 
L 343.385092 191.577508 
L 343.52552 193.196688 
L 343.665437 192.370686 
L 343.804847 194.524404 
L 344.220074 191.729301 
L 344.494422 190.849772 
L 344.630867 194.563059 
L 344.766829 192.566092 
L 344.902312 193.22088 
L 345.03732 195.65853 
L 345.439525 192.603782 
L 345.837569 194.793127 
L 346.100662 193.246004 
L 346.49196 195.131718 
L 346.621513 194.626766 
L 346.879318 196.11816 
L 347.007576 194.770496 
L 347.135407 194.852131 
L 347.262815 196.522913 
L 347.389803 194.329229 
L 347.516373 196.638015 
L 347.642528 194.704731 
L 347.768271 194.995908 
L 347.893604 194.412953 
L 348.01853 195.694084 
L 348.143052 195.523584 
L 348.390894 197.814511 
L 348.514218 197.342723 
L 348.637149 195.851975 
L 348.881838 198.117792 
L 349.124981 195.009966 
L 349.245979 195.381674 
L 349.366597 197.244901 
L 349.486839 195.710766 
L 349.606706 195.86433 
L 349.7262 197.237906 
L 349.845325 195.323393 
L 349.964082 197.222151 
L 350.082474 196.513744 
L 350.200502 193.990951 
L 350.435478 197.951255 
L 350.669028 195.787635 
L 350.785274 195.551903 
L 350.901169 197.057992 
L 351.016717 196.866849 
L 351.131918 197.781013 
L 351.246776 196.733896 
L 351.361291 198.060796 
L 351.475467 197.5115 
L 351.589305 197.832589 
L 351.702808 199.187278 
L 351.928813 197.013395 
L 352.153498 198.907229 
L 352.265351 198.097179 
L 352.376879 199.240868 
L 352.488085 197.801314 
L 352.59897 200.225687 
L 352.709537 196.968416 
L 352.819787 199.893161 
L 352.929722 199.614684 
L 353.039344 200.89521 
L 353.257655 199.950049 
L 353.366348 200.919629 
L 353.474735 199.215086 
L 353.582817 200.936493 
L 353.690597 200.816604 
L 353.798075 200.94251 
L 353.905254 198.475375 
L 354.012135 201.113243 
L 354.436716 200.171755 
L 354.542133 200.703828 
L 354.647263 200.471558 
L 354.752105 202.21383 
L 354.856663 200.444673 
L 354.960938 200.812813 
L 355.06493 199.373288 
L 355.168643 202.227957 
L 355.272076 201.696768 
L 355.375232 199.918219 
L 355.478113 201.523797 
L 355.580719 201.067987 
L 355.683052 202.022249 
L 355.785114 201.66946 
L 355.886905 200.235148 
L 356.089684 201.547856 
L 356.190675 201.846753 
L 356.391863 200.049819 
L 356.592006 203.047816 
L 356.691688 201.852966 
L 356.791112 202.898836 
L 356.89028 201.484238 
L 357.087853 203.841272 
L 357.186261 202.30806 
L 357.284417 204.213163 
L 357.479981 203.454879 
L 357.577392 201.522868 
L 357.674557 202.085719 
L 357.771477 201.709683 
L 357.868154 202.985233 
L 357.964588 200.926397 
L 358.060781 203.347061 
L 358.347926 201.390518 
L 358.443167 204.155159 
L 358.538172 203.055806 
L 358.632944 204.472372 
L 358.727483 202.647056 
L 358.82179 204.752503 
L 358.915866 203.151584 
L 359.103332 204.748678 
L 359.196723 203.849191 
L 359.289889 205.998616 
L 359.382829 204.995291 
L 359.475545 205.479757 
L 359.66031 202.716424 
L 360.0272 205.80518 
L 360.118378 204.031726 
L 360.300089 207.10279 
L 360.571057 203.796512 
L 360.660957 202.851226 
L 360.84013 205.111371 
L 361.018472 203.948726 
L 361.195991 206.482177 
L 361.284445 204.555988 
L 361.460744 206.512579 
L 361.548591 205.757173 
L 361.723687 205.860922 
L 361.810937 206.902109 
L 361.89799 206.36348 
L 361.984846 206.913151 
L 362.157972 204.526129 
L 362.244244 207.076489 
L 362.330323 204.99524 
L 362.501905 207.781082 
L 362.672726 205.258548 
L 362.757852 205.447941 
L 362.842791 206.66044 
L 362.927543 205.957121 
L 363.012108 206.484766 
L 363.180684 206.128052 
L 363.264695 206.635381 
L 363.348524 204.935595 
L 363.43217 207.960095 
L 363.515635 206.906933 
L 363.598919 207.693607 
L 363.764948 204.526046 
L 363.847695 208.127128 
L 363.930264 206.926185 
L 364.012657 208.503412 
L 364.094873 206.656304 
L 364.176914 206.675184 
L 364.25878 205.539322 
L 364.421993 207.133228 
L 364.50334 206.949551 
L 364.584516 205.244217 
L 364.82702 208.35471 
L 364.907517 206.859591 
L 365.068006 209.965742 
L 365.307492 206.764506 
L 365.466325 207.725221 
L 365.545496 206.152581 
L 365.624505 207.806538 
L 365.703352 207.392065 
L 365.782037 206.474631 
L 365.860562 208.785503 
L 365.938927 207.805453 
L 366.017133 209.34079 
L 366.09518 207.283737 
L 366.173069 209.107578 
L 366.250801 208.411266 
L 366.328376 210.1159 
L 366.483059 207.781923 
L 366.713923 210.350296 
L 366.790571 207.83626 
L 366.867067 209.007373 
L 366.94341 207.406319 
L 367.095645 209.115831 
L 367.171537 208.084161 
L 367.24728 208.99004 
L 367.322874 208.876615 
L 367.398319 208.74088 
L 367.473617 211.368485 
L 367.623772 207.998855 
L 367.698631 210.23668 
L 367.773344 209.466568 
L 367.996617 210.105508 
L 368.144749 209.078112 
L 368.218602 209.67779 
L 368.292313 209.347556 
L 368.439313 211.97058 
L 368.512603 211.606475 
L 368.585754 210.337325 
L 368.658766 212.071919 
L 368.731639 210.486881 
L 368.804375 212.246395 
L 369.021761 209.48508 
L 369.166006 211.406267 
L 369.237926 210.236597 
L 369.309712 211.846829 
L 369.452883 209.932062 
L 369.666646 211.921175 
L 369.737638 210.837015 
L 369.808498 211.590914 
L 369.949829 210.211197 
L 370.0203 211.909299 
L 370.090642 211.526994 
L 370.160856 211.434146 
L 370.230942 210.89238 
L 370.300901 212.032277 
L 370.370733 210.577319 
L 370.440438 212.010519 
L 370.510017 211.300824 
L 370.579471 210.698915 
L 370.648799 211.864377 
L 370.718003 209.324844 
L 370.787082 210.072913 
L 370.92487 212.736003 
L 370.993579 212.537281 
L 371.062166 212.226202 
L 371.198975 210.249806 
L 371.267197 212.022615 
L 371.335298 209.720873 
L 371.403279 211.075583 
L 371.47114 211.44369 
L 371.538882 213.426292 
L 371.606504 212.659161 
L 371.741394 211.492989 
L 371.808662 213.707046 
L 371.942846 212.061796 
L 372.009763 214.855232 
L 372.076564 213.047781 
L 372.209819 211.831157 
L 372.276273 213.437611 
L 372.342613 213.236372 
L 372.408839 213.197905 
L 372.474951 213.846093 
L 372.54095 211.525452 
L 372.606836 212.249196 
L 372.672609 211.882073 
L 372.73827 210.42586 
L 372.869256 213.469111 
L 372.999798 212.33572 
L 373.064904 212.208916 
L 373.129899 212.34183 
L 373.194785 211.636205 
L 373.259561 211.836761 
L 373.324229 211.886982 
L 373.388788 210.881305 
L 373.453239 212.451082 
L 373.517582 212.012569 
L 373.581818 211.969638 
L 373.581818 211.969638 
" clip-path="url(#p61aa318c94)" style="fill: none; stroke: #0000ff; stroke-width: 1.5; stroke-linecap: square"/>
   </g>
   <g id="line2d_73">
    <path d="M 69.218182 74.604236 
L 373.581818 242.116364 
L 373.581818 242.116364 
" clip-path="url(#p61aa318c94)" style="fill: none; stroke: #000000; stroke-width: 1.5; stroke-linecap: square"/>
   </g>
   <g id="patch_3">
    <path d="M 54 252 
L 54 34.56 
" style="fill: none; stroke: #000000; stroke-width: 0.8; stroke-linejoin: miter; stroke-linecap: square"/>
   </g>
   <g id="patch_4">
    <path d="M 388.8 252 
L 388.8 34.56 
" style="fill: none; stroke: #000000; stroke-width: 0.8; stroke-linejoin: miter; stroke-linecap: square"/>
   </g>
   <g id="patch_5">
    <path d="M 54 252 
L 388.8 252 
" style="fill: none; stroke: #000000; stroke-width: 0.8; stroke-linejoin: miter; stroke-linecap: square"/>
   </g>
   <g id="patch_6">
    <path d="M 54 34.56 
L 388.8 34.56 
" style="fill: none; stroke: #000000; stroke-width: 0.8; stroke-linejoin: miter; stroke-linecap: square"/>
   </g>
  </g>
 </g>
 <defs>
  <clipPath id="p61aa318c94">
   <rect x="54" y="34.56" width="334.8" height="217.44"/>
  </clipPath>
 </defs>
</svg>
