<?xml version="1.0" encoding="utf-8" standalone="no"?>
<!DOCTYPE svg PUBLIC "-//W3C//DTD SVG 1.1//EN"
  "http://www.w3.org/Graphics/SVG/1.1/DTD/svg11.dtd">
<svg xmlns:xlink="http://www.w3.org/1999/xlink" width="432pt" height="288pt" viewBox="0 0 432 288" xmlns="http://www.w3.org/2000/svg" version="1.1">
 <metadata>
  <rdf:RDF xmlns:dc="http://purl.org/dc/elements/1.1/" xmlns:cc="http://creativecommons.org/ns#" xmlns:rdf="http://www.w3.org/1999/02/22-rdf-syntax-ns#">
   <cc:Work>
    <dc:type rdf:resource="http://purl.org/dc/dcmitype/StillImage"/>
    <dc:date>2022-02-14T04:09:10.191981</dc:date>
    <dc:format>image/svg+xml</dc:format>
    <dc:creator>
     <cc:Agent>
      <dc:title>Matplotlib v3.5.1, https://matplotlib.org/</dc:title>
     </cc:Agent>
    </dc:creator>
   </cc:Work>
  </rdf:RDF>
 </metadata>
 <defs>
  <style type="text/css">*{stroke-linejoin: round; stroke-linecap: butt}</style>
 </defs>
 <g id="figure_1">
  <g id="patch_1">
   <path d="M 0 288 
L 432 288 
L 432 0 
L 0 0 
L 0 288 
z
" style="fill: none"/>
  </g>
  <g id="axes_1">
   <g id="patch_2">
    <path d="M 54 252 
L 388.8 252 
L 388.8 34.56 
L 54 34.56 
z
" style="fill: #ffffff"/>
   </g>
   <g id="PolyCollection_1">
    <defs>
     <path id="m973a99751f" d="M 69.218182 -233.484432 
L 69.218182 -231.195331 
L 72.56614 -230.572359 
L 75.645963 -227.723595 
L 78.497434 -228.044428 
L 81.15209 -227.271495 
L 83.635354 -226.574281 
L 85.968023 -225.269156 
L 88.167321 -223.992223 
L 90.247679 -223.051043 
L 92.221304 -223.498193 
L 94.098615 -221.243229 
L 95.888578 -222.102371 
L 97.598959 -220.767055 
L 99.236536 -220.736354 
L 100.807254 -219.805739 
L 102.316359 -218.375275 
L 103.768503 -217.763504 
L 105.16783 -217.682315 
L 106.518047 -216.937714 
L 107.822486 -217.168767 
L 109.084148 -215.356366 
L 110.30575 -216.437422 
L 111.489759 -216.479109 
L 112.638419 -216.706946 
L 113.753779 -214.441675 
L 114.837717 -215.111916 
L 115.891954 -213.798903 
L 116.918075 -215.719293 
L 117.91754 -213.436307 
L 118.8917 -214.613544 
L 119.841804 -212.72665 
L 120.769011 -212.991561 
L 121.6744 -212.024302 
L 122.558973 -212.015584 
L 123.423667 -212.824154 
L 124.269355 -211.1549 
L 125.096854 -211.412183 
L 125.906932 -210.810087 
L 126.700305 -209.929935 
L 127.47765 -210.643075 
L 128.2396 -209.890458 
L 128.986755 -210.249536 
L 129.719677 -209.920195 
L 130.438899 -209.022017 
L 131.144923 -208.6918 
L 131.838225 -208.958665 
L 132.519256 -208.192174 
L 133.188443 -208.026799 
L 133.84619 -207.930923 
L 134.492881 -208.213498 
L 135.128883 -206.814118 
L 135.754543 -207.144017 
L 136.370192 -206.30299 
L 136.976146 -206.789097 
L 137.572704 -206.697596 
L 138.160155 -206.491082 
L 138.738771 -206.394331 
L 139.308814 -206.505041 
L 139.870536 -204.989988 
L 140.424175 -205.26432 
L 140.969961 -205.791993 
L 141.508113 -203.959039 
L 142.038842 -204.03398 
L 142.56235 -204.718755 
L 143.078831 -203.192051 
L 143.588471 -203.464755 
L 144.091448 -205.096368 
L 144.587936 -203.135723 
L 145.078099 -203.756872 
L 145.562096 -203.819942 
L 146.04008 -203.768168 
L 146.512199 -202.61071 
L 146.978596 -203.820953 
L 147.439407 -203.717547 
L 147.894764 -203.621065 
L 148.344796 -203.425514 
L 148.789624 -202.924963 
L 149.229369 -202.671589 
L 149.664145 -203.480879 
L 150.094063 -202.921275 
L 150.51923 -203.762537 
L 150.93975 -202.696028 
L 151.355725 -202.498114 
L 151.76725 -200.703651 
L 152.17442 -202.655226 
L 152.577327 -200.980252 
L 152.976059 -201.417423 
L 153.370701 -201.47134 
L 153.761336 -202.798246 
L 162.733995 -199.440537 
L 175.68052 -194.598987 
L 185.350408 -189.631367 
L 193.071664 -184.006475 
L 199.499445 -180.082477 
L 205.005572 -177.076992 
L 209.821505 -173.357827 
L 214.101162 -172.926732 
L 217.952098 -170.261062 
L 221.452441 -168.92121 
L 224.660736 -167.28129 
L 227.621985 -167.83187 
L 230.371529 -166.584493 
L 232.93763 -165.270264 
L 235.343241 -164.509036 
L 237.607262 -163.989514 
L 239.745437 -163.685372 
L 241.771022 -162.807124 
L 243.695286 -162.898335 
L 245.527882 -160.673698 
L 247.277149 -160.245639 
L 248.950336 -159.567692 
L 250.553787 -159.307225 
L 252.093082 -157.744424 
L 253.573159 -156.919043 
L 254.998405 -157.176949 
L 256.372739 -157.076155 
L 257.699672 -155.795296 
L 258.982365 -155.474229 
L 260.223675 -155.204716 
L 261.426186 -154.318741 
L 262.592253 -154.106936 
L 263.724018 -151.052448 
L 264.823443 -150.529874 
L 265.892324 -150.703954 
L 266.932313 -152.820239 
L 267.944931 -147.658723 
L 268.931581 -149.257583 
L 269.893562 -148.962101 
L 270.832078 -149.702797 
L 271.748246 -145.415209 
L 272.643106 -146.030522 
L 273.517627 -146.073831 
L 274.372712 -146.207909 
L 275.209207 -144.722839 
L 276.027903 -149.396289 
L 276.829541 -147.094489 
L 277.614818 -144.777811 
L 278.384389 -144.685929 
L 279.138869 -145.427373 
L 279.878839 -142.87523 
L 280.604846 -142.004949 
L 281.317408 -140.951805 
L 282.017014 -140.289741 
L 282.704126 -141.017532 
L 283.379182 -139.054722 
L 284.0426 -136.22201 
L 284.694772 -136.055882 
L 285.336074 -134.945244 
L 285.966863 -138.271403 
L 286.587477 -136.900436 
L 287.19824 -133.274494 
L 287.799459 -137.011212 
L 288.391428 -132.181288 
L 288.974428 -134.648408 
L 289.548726 -134.257231 
L 290.114578 -134.069499 
L 290.672229 -133.012124 
L 291.221914 -133.018 
L 291.763856 -131.85197 
L 292.29827 -133.016954 
L 292.825364 -131.705906 
L 293.345335 -130.413722 
L 293.858373 -132.466245 
L 294.364659 -129.938684 
L 294.864371 -129.917758 
L 295.357676 -129.737426 
L 295.844736 -128.596298 
L 296.325708 -130.444617 
L 296.800742 -128.829776 
L 297.269982 -129.443871 
L 297.733569 -127.638921 
L 298.191637 -127.445995 
L 298.644316 -126.476966 
L 299.091731 -126.153855 
L 299.534003 -126.778692 
L 299.971249 -126.790322 
L 300.403582 -126.31207 
L 300.831111 -127.423139 
L 301.253943 -125.769043 
L 301.672178 -126.75225 
L 302.085915 -125.974677 
L 302.495252 -125.751222 
L 302.900279 -125.135695 
L 303.301087 -124.837237 
L 303.697764 -123.923681 
L 304.090392 -124.777669 
L 304.479054 -124.815848 
L 304.86383 -124.32826 
L 305.244796 -123.676087 
L 305.622027 -123.068189 
L 305.995595 -122.504036 
L 306.365572 -123.027326 
L 306.732024 -121.27596 
L 307.09502 -122.808976 
L 307.454623 -122.71547 
L 307.810896 -122.478547 
L 308.163901 -122.20869 
L 308.513697 -121.917523 
L 308.860341 -121.334038 
L 309.20389 -121.157828 
L 309.544399 -122.529435 
L 309.881921 -121.13258 
L 310.216508 -120.633967 
L 310.54821 -120.802361 
L 310.877078 -121.155469 
L 311.203158 -120.843269 
L 311.526498 -119.734722 
L 311.847144 -119.945735 
L 312.165139 -120.471612 
L 312.480528 -118.710464 
L 312.793353 -118.878467 
L 313.103655 -120.699827 
L 313.411475 -118.896482 
L 313.716851 -119.085529 
L 314.019823 -119.180013 
L 314.320428 -117.653472 
L 314.618703 -118.658925 
L 314.914683 -117.972474 
L 315.208404 -117.175606 
L 315.4999 -117.53645 
L 315.789204 -117.310903 
L 316.076349 -117.300381 
L 316.361367 -117.294963 
L 316.644289 -115.1905 
L 316.925146 -117.341747 
L 317.203968 -116.453125 
L 317.480784 -116.416239 
L 317.755623 -116.064492 
L 318.028512 -116.400595 
L 318.29948 -116.29341 
L 318.568552 -116.710239 
L 318.835757 -115.191727 
L 319.101118 -115.000442 
L 319.364662 -116.839774 
L 319.626413 -114.546788 
L 319.886395 -114.988463 
L 320.144633 -115.5653 
L 320.401149 -115.529138 
L 320.655966 -114.70157 
L 320.909107 -113.325981 
L 321.160593 -114.500021 
L 321.410446 -113.964539 
L 321.658687 -114.59532 
L 321.905337 -114.50375 
L 322.150416 -114.814637 
L 322.393943 -114.137642 
L 322.635939 -113.941502 
L 322.876423 -114.533791 
L 323.115413 -114.318592 
L 323.352928 -112.710616 
L 323.588985 -114.172724 
L 323.823603 -112.714615 
L 324.056799 -114.040468 
L 324.288591 -113.693045 
L 324.518994 -114.262863 
L 324.748026 -112.322578 
L 324.975703 -113.078965 
L 325.20204 -112.542032 
L 325.427054 -111.539247 
L 325.650759 -111.634539 
L 325.873172 -112.204556 
L 326.094306 -112.361452 
L 326.314177 -112.374348 
L 326.532798 -111.813148 
L 326.750184 -111.212638 
L 326.966349 -111.255068 
L 327.181306 -112.460693 
L 327.395069 -111.232527 
L 327.607651 -111.079175 
L 327.819065 -112.041848 
L 328.029324 -110.818409 
L 328.23844 -111.463805 
L 328.446426 -110.808984 
L 328.653293 -111.367835 
L 328.859054 -110.910985 
L 329.063721 -109.820393 
L 329.267305 -110.324409 
L 329.469817 -110.877011 
L 329.671269 -110.978528 
L 329.871672 -109.741503 
L 330.071036 -111.052253 
L 330.269373 -110.161052 
L 330.466693 -110.340474 
L 330.663006 -110.201049 
L 330.858322 -110.304226 
L 331.052652 -110.085251 
L 331.246005 -110.710219 
L 331.438392 -109.166334 
L 331.629821 -109.526026 
L 331.820303 -110.585702 
L 332.009847 -109.158841 
L 332.198461 -109.199334 
L 332.386155 -109.191571 
L 332.572938 -110.087739 
L 332.758819 -108.361978 
L 332.943806 -109.273949 
L 333.127908 -109.00278 
L 333.311134 -108.704748 
L 333.493491 -108.955441 
L 333.674987 -108.919485 
L 333.855632 -108.827212 
L 334.035433 -109.515632 
L 334.214397 -109.062658 
L 334.392533 -109.381506 
L 334.569847 -108.148295 
L 334.746349 -107.993807 
L 334.922044 -108.22408 
L 335.096941 -109.266315 
L 335.271047 -108.102857 
L 335.444368 -108.165218 
L 335.616912 -108.496681 
L 335.788686 -107.195046 
L 335.959696 -108.467886 
L 336.12995 -107.317036 
L 336.299453 -107.538535 
L 336.468213 -107.741012 
L 336.636236 -108.212463 
L 336.803529 -106.203536 
L 336.970098 -107.405703 
L 337.135948 -107.990415 
L 337.301087 -107.882094 
L 337.46552 -107.214775 
L 337.629253 -106.977532 
L 337.792292 -107.567341 
L 337.954644 -107.287012 
L 338.116313 -106.99858 
L 338.277306 -105.817972 
L 338.437628 -106.799379 
L 338.597285 -106.38761 
L 338.756282 -106.464851 
L 338.914625 -106.219357 
L 339.072319 -106.919337 
L 339.229369 -106.607368 
L 339.385781 -106.379092 
L 339.541559 -106.045627 
L 339.69671 -106.351727 
L 339.851237 -106.600921 
L 340.005146 -106.205274 
L 340.158442 -106.103483 
L 340.31113 -107.252441 
L 340.463214 -105.409169 
L 340.614699 -105.426007 
L 340.765591 -105.696691 
L 340.915893 -105.774164 
L 341.06561 -105.661276 
L 341.214747 -106.139734 
L 341.363308 -105.047399 
L 341.511297 -105.793102 
L 341.65872 -104.775245 
L 341.80558 -105.448971 
L 341.951881 -105.161798 
L 342.097629 -105.692462 
L 342.242826 -104.944325 
L 342.387477 -105.445081 
L 342.531587 -105.014974 
L 342.675159 -106.143523 
L 342.818197 -105.354281 
L 342.960706 -104.663361 
L 343.102688 -105.778623 
L 343.244149 -105.254754 
L 343.385092 -104.988138 
L 343.52552 -104.90044 
L 343.665437 -104.58194 
L 343.804847 -104.156107 
L 343.943755 -105.084988 
L 344.082162 -103.559588 
L 344.220074 -103.245197 
L 344.357493 -105.082969 
L 344.494422 -104.027882 
L 344.630867 -104.154439 
L 344.766829 -104.034704 
L 344.902312 -103.760275 
L 345.03732 -104.554142 
L 345.171856 -104.452289 
L 345.305923 -103.896584 
L 345.439525 -104.055861 
L 345.572664 -103.615909 
L 345.705345 -103.371017 
L 345.837569 -103.885166 
L 345.969341 -103.854563 
L 346.100662 -103.528074 
L 346.231538 -103.590902 
L 346.361969 -104.036708 
L 346.49196 -103.470727 
L 346.621513 -103.502498 
L 346.750631 -102.344595 
L 346.879318 -102.822455 
L 347.007576 -103.814812 
L 347.135407 -103.176572 
L 347.262815 -103.288359 
L 347.389803 -103.363714 
L 347.516373 -103.715788 
L 347.642528 -104.090457 
L 347.768271 -103.513644 
L 347.893604 -102.880233 
L 348.01853 -102.59305 
L 348.143052 -104.000794 
L 348.267172 -103.681867 
L 348.390894 -104.081492 
L 348.514218 -102.729002 
L 348.637149 -102.959582 
L 348.759688 -103.24219 
L 348.881838 -103.309004 
L 349.003602 -102.948997 
L 349.124981 -102.551854 
L 349.245979 -102.972887 
L 349.366597 -103.065469 
L 349.486839 -103.22614 
L 349.606706 -103.345746 
L 349.7262 -103.154484 
L 349.845325 -102.622544 
L 349.964082 -102.834982 
L 350.082474 -102.271306 
L 350.200502 -102.722421 
L 350.31817 -102.709776 
L 350.435478 -102.349993 
L 350.552431 -103.097815 
L 350.669028 -101.126056 
L 350.785274 -101.573984 
L 350.901169 -101.876046 
L 351.016717 -101.506768 
L 351.131918 -101.836841 
L 351.246776 -102.063108 
L 351.361291 -101.645544 
L 351.475467 -102.347421 
L 351.589305 -101.393223 
L 351.702808 -101.958162 
L 351.815976 -101.502649 
L 351.928813 -101.241797 
L 352.041319 -101.361465 
L 352.153498 -100.84665 
L 352.265351 -100.519088 
L 352.376879 -100.367069 
L 352.488085 -101.204153 
L 352.59897 -101.085614 
L 352.709537 -100.517889 
L 352.819787 -102.236123 
L 352.929722 -101.067861 
L 353.039344 -100.908622 
L 353.148655 -100.230154 
L 353.257655 -99.794889 
L 353.366348 -100.566395 
L 353.474735 -100.715372 
L 353.582817 -100.506846 
L 353.690597 -100.393317 
L 353.798075 -100.791583 
L 353.905254 -100.988065 
L 354.012135 -100.39105 
L 354.118721 -101.164399 
L 354.225011 -100.619461 
L 354.331009 -99.84311 
L 354.436716 -99.862413 
L 354.542133 -99.703594 
L 354.647263 -100.32742 
L 354.752105 -100.019604 
L 354.856663 -101.689764 
L 354.960938 -99.81894 
L 355.06493 -99.885371 
L 355.168643 -101.534948 
L 355.272076 -99.363486 
L 355.375232 -99.718169 
L 355.478113 -100.005214 
L 355.580719 -99.74441 
L 355.683052 -100.784467 
L 355.785114 -100.338321 
L 355.886905 -99.864518 
L 355.988428 -100.295962 
L 356.089684 -100.034724 
L 356.190675 -99.245536 
L 356.2914 -99.842141 
L 356.391863 -99.688988 
L 356.492065 -99.985016 
L 356.592006 -99.284705 
L 356.691688 -99.462875 
L 356.791112 -99.510595 
L 356.89028 -99.744107 
L 356.989194 -98.592605 
L 357.087853 -99.2447 
L 357.186261 -99.109259 
L 357.284417 -99.470603 
L 357.382323 -100.02534 
L 357.479981 -99.384495 
L 357.577392 -98.719064 
L 357.674557 -99.919453 
L 357.771477 -100.136179 
L 357.868154 -99.197973 
L 357.964588 -99.566016 
L 358.060781 -98.179484 
L 358.156734 -99.486682 
L 358.252449 -99.441181 
L 358.347926 -99.181415 
L 358.443167 -98.344647 
L 358.538172 -99.185146 
L 358.632944 -98.818774 
L 358.727483 -98.618539 
L 358.82179 -98.518584 
L 358.915866 -98.993479 
L 359.009713 -98.922017 
L 359.103332 -99.060545 
L 359.196723 -97.682497 
L 359.289889 -98.39 
L 359.382829 -98.426681 
L 359.475545 -98.401324 
L 359.568039 -97.921494 
L 359.66031 -97.875453 
L 359.752361 -98.672346 
L 359.844192 -98.065407 
L 359.935805 -98.503857 
L 360.0272 -98.044259 
L 360.118378 -97.583936 
L 360.209341 -98.196403 
L 360.300089 -97.509749 
L 360.390624 -97.875671 
L 360.480946 -98.906145 
L 360.571057 -97.066302 
L 360.660957 -97.190549 
L 360.750648 -97.944357 
L 360.84013 -98.603159 
L 360.929404 -98.089569 
L 361.018472 -97.73067 
L 361.107334 -98.44232 
L 361.195991 -97.495774 
L 361.284445 -97.676635 
L 361.372695 -98.216156 
L 361.460744 -97.333754 
L 361.548591 -97.319837 
L 361.636239 -96.304426 
L 361.723687 -97.174625 
L 361.810937 -97.18938 
L 361.89799 -97.469574 
L 361.984846 -97.396221 
L 362.071507 -96.615909 
L 362.157972 -97.287076 
L 362.244244 -96.989597 
L 362.330323 -97.069211 
L 362.41621 -97.018754 
L 362.501905 -96.713424 
L 362.58741 -97.857158 
L 362.672726 -96.552957 
L 362.757852 -97.513007 
L 362.842791 -96.557417 
L 362.927543 -97.161969 
L 363.012108 -96.862766 
L 363.096488 -97.636524 
L 363.180684 -96.619723 
L 363.264695 -97.104846 
L 363.348524 -96.847708 
L 363.43217 -96.961082 
L 363.515635 -96.422868 
L 363.598919 -96.876794 
L 363.682023 -96.904705 
L 363.764948 -96.024467 
L 363.847695 -96.28678 
L 363.930264 -96.176808 
L 364.012657 -96.091375 
L 364.094873 -97.188645 
L 364.176914 -96.61903 
L 364.25878 -96.174657 
L 364.340473 -96.594228 
L 364.421993 -95.957188 
L 364.50334 -97.164869 
L 364.584516 -96.12777 
L 364.665521 -96.603131 
L 364.746355 -96.530865 
L 364.82702 -97.335907 
L 364.907517 -94.501794 
L 364.987845 -96.075494 
L 365.068006 -95.437322 
L 365.148 -96.387003 
L 365.227828 -96.880165 
L 365.307492 -95.513775 
L 365.38699 -96.408673 
L 365.466325 -96.296548 
L 365.545496 -97.028091 
L 365.624505 -95.839259 
L 365.703352 -95.003371 
L 365.782037 -96.126769 
L 365.860562 -96.250944 
L 365.938927 -96.004345 
L 366.017133 -96.010056 
L 366.09518 -96.427292 
L 366.173069 -96.015923 
L 366.250801 -96.015625 
L 366.328376 -95.766968 
L 366.405795 -94.849647 
L 366.483059 -95.999985 
L 366.560168 -96.044165 
L 366.637122 -96.707358 
L 366.713923 -95.679868 
L 366.790571 -96.245659 
L 366.867067 -95.464216 
L 366.94341 -95.623023 
L 367.019603 -95.41828 
L 367.095645 -95.108739 
L 367.171537 -95.735334 
L 367.24728 -95.509428 
L 367.322874 -95.765286 
L 367.398319 -96.608397 
L 367.473617 -94.668212 
L 367.548768 -94.876232 
L 367.623772 -96.125006 
L 367.698631 -95.977571 
L 367.773344 -95.285514 
L 367.847912 -95.379682 
L 367.922336 -95.437443 
L 367.996617 -95.744349 
L 368.070754 -95.883862 
L 368.144749 -95.334072 
L 368.218602 -96.390101 
L 368.292313 -95.382674 
L 368.365883 -94.843104 
L 368.439313 -94.791807 
L 368.512603 -94.936959 
L 368.585754 -95.533755 
L 368.658766 -95.229744 
L 368.731639 -95.268547 
L 368.804375 -95.09579 
L 368.876974 -94.917781 
L 368.949436 -94.733408 
L 369.021761 -95.214143 
L 369.093951 -95.68036 
L 369.166006 -95.491295 
L 369.237926 -96.107362 
L 369.309712 -92.952601 
L 369.381364 -95.407815 
L 369.452883 -95.51164 
L 369.52427 -94.727202 
L 369.595524 -95.336357 
L 369.666646 -95.635092 
L 369.737638 -95.039366 
L 369.808498 -95.669516 
L 369.879228 -94.878488 
L 369.949829 -94.817342 
L 370.0203 -95.215428 
L 370.090642 -94.096627 
L 370.160856 -94.042254 
L 370.230942 -95.126827 
L 370.300901 -94.76216 
L 370.370733 -94.735963 
L 370.440438 -93.77345 
L 370.510017 -93.772282 
L 370.579471 -93.935405 
L 370.648799 -94.651548 
L 370.718003 -94.715477 
L 370.787082 -94.597178 
L 370.856038 -95.217181 
L 370.92487 -93.934577 
L 370.993579 -93.971038 
L 371.062166 -95.119378 
L 371.130631 -95.05778 
L 371.198975 -94.395114 
L 371.267197 -94.748516 
L 371.335298 -93.541889 
L 371.403279 -93.404597 
L 371.47114 -94.520868 
L 371.538882 -94.552135 
L 371.606504 -94.048665 
L 371.674008 -93.608327 
L 371.741394 -94.775907 
L 371.808662 -93.234643 
L 371.875813 -93.994993 
L 371.942846 -94.636546 
L 372.009763 -93.622991 
L 372.076564 -93.931286 
L 372.143249 -94.183527 
L 372.209819 -94.051066 
L 372.276273 -94.040267 
L 372.342613 -93.590161 
L 372.408839 -94.331424 
L 372.474951 -93.791405 
L 372.54095 -94.175333 
L 372.606836 -93.430526 
L 372.672609 -93.636356 
L 372.73827 -93.925187 
L 372.803819 -93.375019 
L 372.869256 -92.955063 
L 372.934583 -94.06478 
L 372.999798 -93.581818 
L 373.064904 -94.01493 
L 373.129899 -93.490109 
L 373.194785 -93.489805 
L 373.259561 -93.511308 
L 373.324229 -94.045564 
L 373.388788 -93.328824 
L 373.453239 -93.227019 
L 373.517582 -94.309225 
L 373.581818 -93.696769 
L 373.581818 -95.649138 
L 373.581818 -95.649138 
L 373.517582 -96.347283 
L 373.453239 -95.252182 
L 373.388788 -95.416949 
L 373.324229 -95.489923 
L 373.259561 -94.948969 
L 373.194785 -95.460606 
L 373.129899 -95.379203 
L 373.064904 -96.121581 
L 372.999798 -96.062901 
L 372.934583 -96.045706 
L 372.869256 -95.05746 
L 372.803819 -95.488918 
L 372.73827 -95.872607 
L 372.672609 -96.243062 
L 372.606836 -95.41027 
L 372.54095 -95.979062 
L 372.474951 -95.386744 
L 372.408839 -96.253586 
L 372.342613 -95.38161 
L 372.276273 -96.210984 
L 372.209819 -96.373122 
L 372.143249 -95.670462 
L 372.076564 -96.091778 
L 372.009763 -95.71756 
L 371.942846 -96.099192 
L 371.875813 -95.543014 
L 371.808662 -95.580562 
L 371.741394 -96.29385 
L 371.674008 -96.261539 
L 371.606504 -95.814667 
L 371.538882 -95.802843 
L 371.47114 -96.666251 
L 371.403279 -95.872641 
L 371.335298 -95.021263 
L 371.267197 -96.443346 
L 371.198975 -96.029886 
L 371.130631 -96.98596 
L 371.062166 -96.468625 
L 370.993579 -96.002491 
L 370.92487 -95.849591 
L 370.856038 -96.908457 
L 370.787082 -96.507131 
L 370.718003 -96.34216 
L 370.648799 -96.879853 
L 370.579471 -96.53774 
L 370.510017 -95.671746 
L 370.440438 -96.070671 
L 370.370733 -96.749864 
L 370.300901 -96.472594 
L 370.230942 -97.072576 
L 370.160856 -95.978516 
L 370.090642 -95.847309 
L 370.0203 -96.684763 
L 369.949829 -96.654431 
L 369.879228 -96.789898 
L 369.808498 -97.515916 
L 369.737638 -97.209628 
L 369.666646 -97.32703 
L 369.595524 -96.750324 
L 369.52427 -97.170788 
L 369.452883 -97.174729 
L 369.381364 -97.989539 
L 369.309712 -95.842643 
L 369.237926 -97.773918 
L 369.166006 -97.869957 
L 369.093951 -97.055894 
L 369.021761 -97.283018 
L 368.949436 -96.654092 
L 368.876974 -96.470372 
L 368.804375 -96.938906 
L 368.731639 -96.902697 
L 368.658766 -96.858371 
L 368.585754 -96.870042 
L 368.512603 -97.053919 
L 368.439313 -96.989983 
L 368.365883 -96.216413 
L 368.292313 -97.117396 
L 368.218602 -97.991299 
L 368.144749 -97.180958 
L 368.070754 -97.585855 
L 367.996617 -97.949742 
L 367.922336 -97.855392 
L 367.847912 -97.50232 
L 367.773344 -97.05059 
L 367.698631 -97.612573 
L 367.623772 -98.293444 
L 367.548768 -96.92977 
L 367.473617 -97.292423 
L 367.398319 -97.976334 
L 367.322874 -97.625379 
L 367.24728 -97.484659 
L 367.171537 -97.453466 
L 367.095645 -96.878981 
L 367.019603 -97.157301 
L 366.94341 -97.654855 
L 366.867067 -97.378304 
L 366.790571 -98.34688 
L 366.713923 -97.515024 
L 366.637122 -98.49888 
L 366.560168 -98.066376 
L 366.483059 -97.81126 
L 366.405795 -96.812041 
L 366.328376 -98.191191 
L 366.250801 -97.936556 
L 366.173069 -98.219806 
L 366.09518 -98.369527 
L 366.017133 -97.731921 
L 365.938927 -98.022137 
L 365.860562 -98.238815 
L 365.782037 -98.299408 
L 365.703352 -97.165792 
L 365.624505 -98.134454 
L 365.545496 -99.545501 
L 365.466325 -98.563252 
L 365.38699 -98.402559 
L 365.307492 -97.414289 
L 365.227828 -98.378257 
L 365.148 -98.084014 
L 365.068006 -97.672374 
L 364.987845 -97.961276 
L 364.907517 -97.276522 
L 364.82702 -99.126424 
L 364.746355 -98.574244 
L 364.665521 -98.618672 
L 364.584516 -98.538691 
L 364.50334 -98.936414 
L 364.421993 -98.093317 
L 364.340473 -99.281012 
L 364.25878 -97.818655 
L 364.176914 -98.710912 
L 364.094873 -98.853889 
L 364.012657 -97.813959 
L 363.930264 -98.22757 
L 363.847695 -98.229887 
L 363.764948 -98.131067 
L 363.682023 -99.260024 
L 363.598919 -98.546335 
L 363.515635 -98.588869 
L 363.43217 -98.792017 
L 363.348524 -98.952932 
L 363.264695 -98.658265 
L 363.180684 -98.831827 
L 363.096488 -100.222424 
L 363.012108 -98.229467 
L 362.927543 -99.431705 
L 362.842791 -98.742173 
L 362.757852 -99.363809 
L 362.672726 -98.997952 
L 362.58741 -99.203735 
L 362.501905 -98.733433 
L 362.41621 -98.82579 
L 362.330323 -99.113984 
L 362.244244 -98.915527 
L 362.157972 -99.346717 
L 362.071507 -98.963021 
L 361.984846 -99.42787 
L 361.89799 -99.813893 
L 361.810937 -98.815833 
L 361.723687 -99.338764 
L 361.636239 -98.833507 
L 361.548591 -99.22994 
L 361.460744 -99.465923 
L 361.372695 -100.028217 
L 361.284445 -99.433466 
L 361.195991 -98.99053 
L 361.107334 -99.926747 
L 361.018472 -99.687456 
L 360.929404 -100.224087 
L 360.84013 -100.459068 
L 360.750648 -99.535368 
L 360.660957 -99.423538 
L 360.571057 -99.489565 
L 360.480946 -100.293041 
L 360.390624 -100.036807 
L 360.300089 -99.757705 
L 360.209341 -100.216654 
L 360.118378 -99.482551 
L 360.0272 -100.382081 
L 359.935805 -100.38298 
L 359.844192 -100.021392 
L 359.752361 -100.608781 
L 359.66031 -100.066904 
L 359.568039 -100.445643 
L 359.475545 -100.711094 
L 359.382829 -100.280488 
L 359.289889 -100.313402 
L 359.196723 -100.001664 
L 359.103332 -100.804848 
L 359.009713 -100.67231 
L 358.915866 -100.540646 
L 358.82179 -100.697074 
L 358.727483 -101.196242 
L 358.632944 -100.521794 
L 358.538172 -101.169788 
L 358.443167 -100.687385 
L 358.347926 -100.682121 
L 358.252449 -101.199457 
L 358.156734 -101.081488 
L 358.060781 -100.198045 
L 357.964588 -101.060315 
L 357.868154 -101.035851 
L 357.771477 -101.503426 
L 357.674557 -101.500636 
L 357.577392 -100.66164 
L 357.479981 -101.694547 
L 357.382323 -101.569696 
L 357.284417 -101.376405 
L 357.186261 -100.687528 
L 357.087853 -101.408905 
L 356.989194 -100.946308 
L 356.89028 -101.142834 
L 356.791112 -101.297787 
L 356.691688 -101.163426 
L 356.592006 -101.065214 
L 356.492065 -101.885972 
L 356.391863 -102.127698 
L 356.2914 -101.829102 
L 356.190675 -101.592563 
L 356.089684 -101.233747 
L 355.988428 -102.155733 
L 355.886905 -101.680897 
L 355.785114 -101.76558 
L 355.683052 -102.209294 
L 355.580719 -101.950084 
L 355.478113 -101.764397 
L 355.375232 -101.581603 
L 355.272076 -101.980287 
L 355.168643 -103.188167 
L 355.06493 -101.89875 
L 354.960938 -101.879461 
L 354.856663 -103.620717 
L 354.752105 -102.167795 
L 354.647263 -102.248409 
L 354.542133 -101.71135 
L 354.436716 -102.057793 
L 354.331009 -102.099947 
L 354.225011 -102.552198 
L 354.118721 -102.984842 
L 354.012135 -102.397268 
L 353.905254 -102.958371 
L 353.798075 -103.156251 
L 353.690597 -102.475017 
L 353.582817 -102.30275 
L 353.474735 -102.995027 
L 353.366348 -102.70338 
L 353.257655 -102.047358 
L 353.148655 -102.55661 
L 353.039344 -103.193421 
L 352.929722 -102.869691 
L 352.819787 -103.771599 
L 352.709537 -102.567635 
L 352.59897 -102.864369 
L 352.488085 -103.468566 
L 352.376879 -103.245925 
L 352.265351 -103.391798 
L 352.153498 -102.918096 
L 352.041319 -103.092085 
L 351.928813 -103.707275 
L 351.815976 -103.083582 
L 351.702808 -103.943965 
L 351.589305 -103.572718 
L 351.475467 -104.247978 
L 351.361291 -103.169158 
L 351.246776 -103.9288 
L 351.131918 -103.646098 
L 351.016717 -103.992563 
L 350.901169 -103.522617 
L 350.785274 -103.718549 
L 350.669028 -103.245111 
L 350.552431 -104.804797 
L 350.435478 -104.584784 
L 350.31817 -104.3336 
L 350.200502 -105.080161 
L 350.082474 -104.090124 
L 349.964082 -105.041075 
L 349.845325 -103.873349 
L 349.7262 -104.983907 
L 349.606706 -105.299471 
L 349.486839 -104.829952 
L 349.366597 -104.931097 
L 349.245979 -104.809502 
L 349.124981 -105.024648 
L 349.003602 -104.487984 
L 348.881838 -105.188036 
L 348.759688 -105.046879 
L 348.637149 -104.33672 
L 348.514218 -104.796405 
L 348.390894 -105.651832 
L 348.267172 -105.386703 
L 348.143052 -105.562456 
L 348.01853 -104.561215 
L 347.893604 -105.26378 
L 347.768271 -105.436781 
L 347.642528 -105.390647 
L 347.516373 -105.313597 
L 347.389803 -105.574604 
L 347.262815 -104.874759 
L 347.135407 -104.91483 
L 347.007576 -105.636316 
L 346.879318 -105.47836 
L 346.750631 -104.041567 
L 346.621513 -105.587556 
L 346.49196 -105.67262 
L 346.361969 -105.674552 
L 346.231538 -106.211539 
L 346.100662 -105.656791 
L 345.969341 -105.773815 
L 345.837569 -105.818039 
L 345.705345 -105.772307 
L 345.572664 -105.965662 
L 345.439525 -106.017705 
L 345.305923 -105.943966 
L 345.171856 -106.499609 
L 345.03732 -106.103875 
L 344.902312 -105.41528 
L 344.766829 -105.405734 
L 344.630867 -106.220888 
L 344.494422 -106.185803 
L 344.357493 -107.098557 
L 344.220074 -105.84346 
L 344.082162 -106.118354 
L 343.943755 -107.354257 
L 343.804847 -106.757023 
L 343.665437 -107.111455 
L 343.52552 -107.170948 
L 343.385092 -106.714476 
L 343.244149 -107.020581 
L 343.102688 -107.117579 
L 342.960706 -106.910022 
L 342.818197 -107.294614 
L 342.675159 -107.604741 
L 342.531587 -107.122807 
L 342.387477 -107.411912 
L 342.242826 -106.9795 
L 342.097629 -107.749616 
L 341.951881 -106.695525 
L 341.80558 -107.267325 
L 341.65872 -106.896164 
L 341.511297 -107.459052 
L 341.363308 -106.892887 
L 341.214747 -108.14274 
L 341.06561 -107.676915 
L 340.915893 -107.516456 
L 340.765591 -107.619891 
L 340.614699 -108.260606 
L 340.463214 -107.759288 
L 340.31113 -109.199814 
L 340.158442 -108.242524 
L 340.005146 -107.966889 
L 339.851237 -108.443539 
L 339.69671 -108.196681 
L 339.541559 -107.566268 
L 339.385781 -108.553835 
L 339.229369 -108.422978 
L 339.072319 -108.419191 
L 338.914625 -108.744621 
L 338.756282 -108.406069 
L 338.597285 -108.522914 
L 338.437628 -108.790231 
L 338.277306 -108.707905 
L 338.116313 -108.652579 
L 337.954644 -109.443043 
L 337.792292 -109.977513 
L 337.629253 -109.153383 
L 337.46552 -109.609655 
L 337.301087 -109.472371 
L 337.135948 -109.730595 
L 336.970098 -110.070298 
L 336.803529 -108.364734 
L 336.636236 -109.834344 
L 336.468213 -109.600012 
L 336.299453 -110.359624 
L 336.12995 -109.86699 
L 335.959696 -110.353921 
L 335.788686 -110.089715 
L 335.616912 -110.478602 
L 335.444368 -110.021224 
L 335.271047 -110.165576 
L 335.096941 -111.185102 
L 334.922044 -110.657895 
L 334.746349 -110.433345 
L 334.569847 -110.831711 
L 334.392533 -111.399917 
L 334.214397 -111.44916 
L 334.035433 -111.914269 
L 333.855632 -110.390228 
L 333.674987 -111.261155 
L 333.493491 -111.858681 
L 333.311134 -110.596915 
L 333.127908 -111.337525 
L 332.943806 -110.945423 
L 332.758819 -110.779542 
L 332.572938 -112.284878 
L 332.386155 -111.296528 
L 332.198461 -111.514754 
L 332.009847 -111.507311 
L 331.820303 -112.716841 
L 331.629821 -111.890824 
L 331.438392 -111.430086 
L 331.246005 -112.9483 
L 331.052652 -112.017198 
L 330.858322 -113.388971 
L 330.663006 -112.299316 
L 330.466693 -112.514701 
L 330.269373 -112.42502 
L 330.071036 -113.110263 
L 329.871672 -112.298098 
L 329.671269 -113.096718 
L 329.469817 -112.929464 
L 329.267305 -112.983346 
L 329.063721 -113.003997 
L 328.859054 -113.494885 
L 328.653293 -113.420408 
L 328.446426 -113.451071 
L 328.23844 -114.133261 
L 328.029324 -113.410107 
L 327.819065 -114.046286 
L 327.607651 -113.405847 
L 327.395069 -113.486267 
L 327.181306 -114.289036 
L 326.966349 -113.447294 
L 326.750184 -113.613441 
L 326.532798 -113.797144 
L 326.314177 -114.51414 
L 326.094306 -114.935814 
L 325.873172 -114.36923 
L 325.650759 -113.807605 
L 325.427054 -114.250813 
L 325.20204 -114.827096 
L 324.975703 -115.098352 
L 324.748026 -114.908535 
L 324.518994 -116.221353 
L 324.288591 -116.020519 
L 324.056799 -115.633654 
L 323.823603 -115.471189 
L 323.588985 -116.413237 
L 323.352928 -115.366527 
L 323.115413 -116.252123 
L 322.876423 -116.576841 
L 322.635939 -116.4192 
L 322.393943 -116.380974 
L 322.150416 -116.749665 
L 321.905337 -116.159504 
L 321.658687 -116.043067 
L 321.410446 -115.69401 
L 321.160593 -117.034767 
L 320.909107 -116.319312 
L 320.655966 -117.115442 
L 320.401149 -117.547147 
L 320.144633 -117.598312 
L 319.886395 -117.380265 
L 319.626413 -116.55764 
L 319.364662 -119.221486 
L 319.101118 -116.706825 
L 318.835757 -117.954631 
L 318.568552 -118.847232 
L 318.29948 -118.1812 
L 318.028512 -118.859937 
L 317.755623 -118.82309 
L 317.480784 -118.566262 
L 317.203968 -118.568156 
L 316.925146 -119.58588 
L 316.644289 -118.129231 
L 316.361367 -119.571337 
L 316.076349 -119.204472 
L 315.789204 -119.716935 
L 315.4999 -119.957932 
L 315.208404 -119.828178 
L 314.914683 -120.242967 
L 314.618703 -120.653001 
L 314.320428 -119.871561 
L 314.019823 -121.556943 
L 313.716851 -121.005665 
L 313.411475 -120.953915 
L 313.103655 -123.222158 
L 312.793353 -121.046579 
L 312.480528 -121.200651 
L 312.165139 -122.763928 
L 311.847144 -122.892099 
L 311.526498 -122.412329 
L 311.203158 -122.968319 
L 310.877078 -123.058221 
L 310.54821 -122.825831 
L 310.216508 -122.896805 
L 309.881921 -122.973163 
L 309.544399 -124.032244 
L 309.20389 -123.057934 
L 308.860341 -123.227178 
L 308.513697 -123.714279 
L 308.163901 -124.115675 
L 307.810896 -124.859167 
L 307.454623 -124.468898 
L 307.09502 -124.758317 
L 306.732024 -123.391933 
L 306.365572 -124.866826 
L 305.995595 -124.674631 
L 305.622027 -125.412236 
L 305.244796 -125.955607 
L 304.86383 -126.587354 
L 304.479054 -126.900522 
L 304.090392 -127.280074 
L 303.697764 -126.270634 
L 303.301087 -127.032447 
L 302.900279 -127.439262 
L 302.495252 -127.496609 
L 302.085915 -127.956033 
L 301.672178 -128.960939 
L 301.253943 -128.299157 
L 300.831111 -129.709086 
L 300.403582 -128.993411 
L 299.971249 -129.247642 
L 299.534003 -128.676207 
L 299.091731 -128.140773 
L 298.644316 -127.994741 
L 298.191637 -129.791186 
L 297.733569 -130.181899 
L 297.269982 -131.755667 
L 296.800742 -132.026113 
L 296.325708 -132.515996 
L 295.844736 -131.760982 
L 295.357676 -133.119303 
L 294.864371 -132.116571 
L 294.364659 -134.143654 
L 293.858373 -135.919391 
L 293.345335 -133.846928 
L 292.825364 -134.800264 
L 292.29827 -136.640338 
L 291.763856 -134.905987 
L 291.221914 -135.645993 
L 290.672229 -136.749628 
L 290.114578 -136.745829 
L 289.548726 -137.903701 
L 288.974428 -137.813454 
L 288.391428 -139.865706 
L 287.799459 -140.870064 
L 287.19824 -139.414088 
L 286.587477 -140.999076 
L 285.966863 -141.405466 
L 285.336074 -138.947007 
L 284.694772 -140.133139 
L 284.0426 -140.645525 
L 283.379182 -144.157467 
L 282.704126 -145.712665 
L 282.017014 -144.314878 
L 281.317408 -146.834943 
L 280.604846 -147.748562 
L 279.878839 -147.087922 
L 279.138869 -148.569205 
L 278.384389 -148.962121 
L 277.614818 -149.557778 
L 276.829541 -150.58633 
L 276.027903 -153.559888 
L 275.209207 -149.383652 
L 274.372712 -149.868644 
L 273.517627 -150.3166 
L 272.643106 -151.868875 
L 271.748246 -151.637438 
L 270.832078 -153.397578 
L 269.893562 -152.487374 
L 268.931581 -152.975995 
L 267.944931 -152.098048 
L 266.932313 -155.590628 
L 265.892324 -154.025287 
L 264.823443 -153.98053 
L 263.724018 -154.030657 
L 262.592253 -157.710602 
L 261.426186 -156.851095 
L 260.223675 -158.831916 
L 258.982365 -157.973494 
L 257.699672 -159.22143 
L 256.372739 -160.435077 
L 254.998405 -159.873617 
L 253.573159 -159.105902 
L 252.093082 -160.79452 
L 250.553787 -162.287186 
L 248.950336 -161.723676 
L 247.277149 -163.484765 
L 245.527882 -163.632341 
L 243.695286 -166.495781 
L 241.771022 -165.283192 
L 239.745437 -166.211743 
L 237.607262 -167.874046 
L 235.343241 -167.611909 
L 232.93763 -167.768995 
L 230.371529 -169.220858 
L 227.621985 -170.536302 
L 224.660736 -170.236211 
L 221.452441 -171.008711 
L 217.952098 -173.009845 
L 214.101162 -175.498117 
L 209.821505 -176.880613 
L 205.005572 -180.47312 
L 199.499445 -183.987295 
L 193.071664 -186.973764 
L 185.350408 -192.129682 
L 175.68052 -196.695911 
L 162.733995 -201.733352 
L 153.761336 -205.494317 
L 153.370701 -204.324254 
L 152.976059 -203.902502 
L 152.577327 -202.915241 
L 152.17442 -204.810113 
L 151.76725 -202.96304 
L 151.355725 -204.554146 
L 150.93975 -204.759646 
L 150.51923 -205.285756 
L 150.094063 -204.587802 
L 149.664145 -205.533226 
L 149.229369 -205.369197 
L 148.789624 -205.722906 
L 148.344796 -205.955328 
L 147.894764 -204.985949 
L 147.439407 -205.414079 
L 146.978596 -206.396495 
L 146.512199 -204.881852 
L 146.04008 -205.369615 
L 145.562096 -205.714396 
L 145.078099 -205.725711 
L 144.587936 -205.52561 
L 144.091448 -206.653863 
L 143.588471 -205.72612 
L 143.078831 -206.193037 
L 142.56235 -206.965133 
L 142.038842 -205.970499 
L 141.508113 -205.835777 
L 140.969961 -207.505406 
L 140.424175 -207.678764 
L 139.870536 -207.136285 
L 139.308814 -208.508703 
L 138.738771 -208.937877 
L 138.160155 -208.869866 
L 137.572704 -208.881339 
L 136.976146 -208.894478 
L 136.370192 -209.429814 
L 135.754543 -209.550577 
L 135.128883 -208.513367 
L 134.492881 -210.042819 
L 133.84619 -209.989514 
L 133.188443 -209.871593 
L 132.519256 -210.013571 
L 131.838225 -210.888638 
L 131.144923 -210.479279 
L 130.438899 -211.314655 
L 129.719677 -211.944703 
L 128.986755 -212.043671 
L 128.2396 -211.788086 
L 127.47765 -212.537879 
L 126.700305 -212.207473 
L 125.906932 -213.284148 
L 125.096854 -213.109145 
L 124.269355 -213.724829 
L 123.423667 -214.894052 
L 122.558973 -214.241595 
L 121.6744 -214.210939 
L 120.769011 -214.928095 
L 119.841804 -215.171129 
L 118.8917 -216.367285 
L 117.91754 -215.772723 
L 116.918075 -217.338806 
L 115.891954 -215.974297 
L 114.837717 -216.92863 
L 113.753779 -216.815938 
L 112.638419 -219.052395 
L 111.489759 -218.337187 
L 110.30575 -218.702798 
L 109.084148 -218.484806 
L 107.822486 -219.181064 
L 106.518047 -218.991097 
L 105.16783 -219.758483 
L 103.768503 -219.724776 
L 102.316359 -220.305243 
L 100.807254 -221.781949 
L 99.236536 -222.649348 
L 97.598959 -222.649536 
L 95.888578 -224.551608 
L 94.098615 -223.725969 
L 92.221304 -225.568019 
L 90.247679 -225.411007 
L 88.167321 -225.947612 
L 85.968023 -228.170532 
L 83.635354 -229.923272 
L 81.15209 -229.176319 
L 78.497434 -230.49479 
L 75.645963 -231.249632 
L 72.56614 -232.857206 
L 69.218182 -233.484432 
z
" style="stroke: #ff0000; stroke-opacity: 0.2"/>
    </defs>
    <g clip-path="url(#pd43bc29e80)">
     <use xlink:href="#m973a99751f" x="0" y="288" style="fill: #ff0000; fill-opacity: 0.2; stroke: #ff0000; stroke-opacity: 0.2"/>
    </g>
   </g>
   <g id="matplotlib.axis_1">
    <g id="xtick_1">
     <g id="line2d_1">
      <defs>
       <path id="m50281d64f1" d="M 0 0 
L 0 3.5 
" style="stroke: #000000; stroke-width: 0.8"/>
      </defs>
      <g>
       <use xlink:href="#m50281d64f1" x="65.550908" y="252" style="stroke: #000000; stroke-width: 0.8"/>
      </g>
     </g>
     <g id="text_1">
      <!-- $\mathdefault{10^{1}}$ -->
      <g transform="translate(56.750908 266.598437)scale(0.1 -0.1)">
       <defs>
        <path id="DejaVuSans-31" d="M 794 531 
L 1825 531 
L 1825 4091 
L 703 3866 
L 703 4441 
L 1819 4666 
L 2450 4666 
L 2450 531 
L 3481 531 
L 3481 0 
L 794 0 
L 794 531 
z
" transform="scale(0.015625)"/>
        <path id="DejaVuSans-30" d="M 2034 4250 
Q 1547 4250 1301 3770 
Q 1056 3291 1056 2328 
Q 1056 1369 1301 889 
Q 1547 409 2034 409 
Q 2525 409 2770 889 
Q 3016 1369 3016 2328 
Q 3016 3291 2770 3770 
Q 2525 4250 2034 4250 
z
M 2034 4750 
Q 2819 4750 3233 4129 
Q 3647 3509 3647 2328 
Q 3647 1150 3233 529 
Q 2819 -91 2034 -91 
Q 1250 -91 836 529 
Q 422 1150 422 2328 
Q 422 3509 836 4129 
Q 1250 4750 2034 4750 
z
" transform="scale(0.015625)"/>
       </defs>
       <use xlink:href="#DejaVuSans-31" transform="translate(0 0.684375)"/>
       <use xlink:href="#DejaVuSans-30" transform="translate(63.623047 0.684375)"/>
       <use xlink:href="#DejaVuSans-31" transform="translate(128.203125 38.965625)scale(0.7)"/>
      </g>
     </g>
    </g>
    <g id="xtick_2">
     <g id="line2d_2">
      <g>
       <use xlink:href="#m50281d64f1" x="154.148045" y="252" style="stroke: #000000; stroke-width: 0.8"/>
      </g>
     </g>
     <g id="text_2">
      <!-- $\mathdefault{10^{2}}$ -->
      <g transform="translate(145.348045 266.598437)scale(0.1 -0.1)">
       <defs>
        <path id="DejaVuSans-32" d="M 1228 531 
L 3431 531 
L 3431 0 
L 469 0 
L 469 531 
Q 828 903 1448 1529 
Q 2069 2156 2228 2338 
Q 2531 2678 2651 2914 
Q 2772 3150 2772 3378 
Q 2772 3750 2511 3984 
Q 2250 4219 1831 4219 
Q 1534 4219 1204 4116 
Q 875 4013 500 3803 
L 500 4441 
Q 881 4594 1212 4672 
Q 1544 4750 1819 4750 
Q 2544 4750 2975 4387 
Q 3406 4025 3406 3419 
Q 3406 3131 3298 2873 
Q 3191 2616 2906 2266 
Q 2828 2175 2409 1742 
Q 1991 1309 1228 531 
z
" transform="scale(0.015625)"/>
       </defs>
       <use xlink:href="#DejaVuSans-31" transform="translate(0 0.765625)"/>
       <use xlink:href="#DejaVuSans-30" transform="translate(63.623047 0.765625)"/>
       <use xlink:href="#DejaVuSans-32" transform="translate(128.203125 39.046875)scale(0.7)"/>
      </g>
     </g>
    </g>
    <g id="xtick_3">
     <g id="line2d_3">
      <g>
       <use xlink:href="#m50281d64f1" x="242.745182" y="252" style="stroke: #000000; stroke-width: 0.8"/>
      </g>
     </g>
     <g id="text_3">
      <!-- $\mathdefault{10^{3}}$ -->
      <g transform="translate(233.945182 266.598437)scale(0.1 -0.1)">
       <defs>
        <path id="DejaVuSans-33" d="M 2597 2516 
Q 3050 2419 3304 2112 
Q 3559 1806 3559 1356 
Q 3559 666 3084 287 
Q 2609 -91 1734 -91 
Q 1441 -91 1130 -33 
Q 819 25 488 141 
L 488 750 
Q 750 597 1062 519 
Q 1375 441 1716 441 
Q 2309 441 2620 675 
Q 2931 909 2931 1356 
Q 2931 1769 2642 2001 
Q 2353 2234 1838 2234 
L 1294 2234 
L 1294 2753 
L 1863 2753 
Q 2328 2753 2575 2939 
Q 2822 3125 2822 3475 
Q 2822 3834 2567 4026 
Q 2313 4219 1838 4219 
Q 1578 4219 1281 4162 
Q 984 4106 628 3988 
L 628 4550 
Q 988 4650 1302 4700 
Q 1616 4750 1894 4750 
Q 2613 4750 3031 4423 
Q 3450 4097 3450 3541 
Q 3450 3153 3228 2886 
Q 3006 2619 2597 2516 
z
" transform="scale(0.015625)"/>
       </defs>
       <use xlink:href="#DejaVuSans-31" transform="translate(0 0.765625)"/>
       <use xlink:href="#DejaVuSans-30" transform="translate(63.623047 0.765625)"/>
       <use xlink:href="#DejaVuSans-33" transform="translate(128.203125 39.046875)scale(0.7)"/>
      </g>
     </g>
    </g>
    <g id="xtick_4">
     <g id="line2d_4">
      <g>
       <use xlink:href="#m50281d64f1" x="331.342319" y="252" style="stroke: #000000; stroke-width: 0.8"/>
      </g>
     </g>
     <g id="text_4">
      <!-- $\mathdefault{10^{4}}$ -->
      <g transform="translate(322.542319 266.598437)scale(0.1 -0.1)">
       <defs>
        <path id="DejaVuSans-34" d="M 2419 4116 
L 825 1625 
L 2419 1625 
L 2419 4116 
z
M 2253 4666 
L 3047 4666 
L 3047 1625 
L 3713 1625 
L 3713 1100 
L 3047 1100 
L 3047 0 
L 2419 0 
L 2419 1100 
L 313 1100 
L 313 1709 
L 2253 4666 
z
" transform="scale(0.015625)"/>
       </defs>
       <use xlink:href="#DejaVuSans-31" transform="translate(0 0.684375)"/>
       <use xlink:href="#DejaVuSans-30" transform="translate(63.623047 0.684375)"/>
       <use xlink:href="#DejaVuSans-34" transform="translate(128.203125 38.965625)scale(0.7)"/>
      </g>
     </g>
    </g>
    <g id="xtick_5">
     <g id="line2d_5">
      <defs>
       <path id="m39af09bda7" d="M 0 0 
L 0 2 
" style="stroke: #000000; stroke-width: 0.6"/>
      </defs>
      <g>
       <use xlink:href="#m39af09bda7" x="56.964959" y="252" style="stroke: #000000; stroke-width: 0.6"/>
      </g>
     </g>
    </g>
    <g id="xtick_6">
     <g id="line2d_6">
      <g>
       <use xlink:href="#m39af09bda7" x="61.496926" y="252" style="stroke: #000000; stroke-width: 0.6"/>
      </g>
     </g>
    </g>
    <g id="xtick_7">
     <g id="line2d_7">
      <g>
       <use xlink:href="#m39af09bda7" x="92.221304" y="252" style="stroke: #000000; stroke-width: 0.6"/>
      </g>
     </g>
    </g>
    <g id="xtick_8">
     <g id="line2d_8">
      <g>
       <use xlink:href="#m39af09bda7" x="107.822486" y="252" style="stroke: #000000; stroke-width: 0.6"/>
      </g>
     </g>
    </g>
    <g id="xtick_9">
     <g id="line2d_9">
      <g>
       <use xlink:href="#m39af09bda7" x="118.8917" y="252" style="stroke: #000000; stroke-width: 0.6"/>
      </g>
     </g>
    </g>
    <g id="xtick_10">
     <g id="line2d_10">
      <g>
       <use xlink:href="#m39af09bda7" x="127.47765" y="252" style="stroke: #000000; stroke-width: 0.6"/>
      </g>
     </g>
    </g>
    <g id="xtick_11">
     <g id="line2d_11">
      <g>
       <use xlink:href="#m39af09bda7" x="134.492881" y="252" style="stroke: #000000; stroke-width: 0.6"/>
      </g>
     </g>
    </g>
    <g id="xtick_12">
     <g id="line2d_12">
      <g>
       <use xlink:href="#m39af09bda7" x="140.424175" y="252" style="stroke: #000000; stroke-width: 0.6"/>
      </g>
     </g>
    </g>
    <g id="xtick_13">
     <g id="line2d_13">
      <g>
       <use xlink:href="#m39af09bda7" x="145.562096" y="252" style="stroke: #000000; stroke-width: 0.6"/>
      </g>
     </g>
    </g>
    <g id="xtick_14">
     <g id="line2d_14">
      <g>
       <use xlink:href="#m39af09bda7" x="150.094063" y="252" style="stroke: #000000; stroke-width: 0.6"/>
      </g>
     </g>
    </g>
    <g id="xtick_15">
     <g id="line2d_15">
      <g>
       <use xlink:href="#m39af09bda7" x="180.818441" y="252" style="stroke: #000000; stroke-width: 0.6"/>
      </g>
     </g>
    </g>
    <g id="xtick_16">
     <g id="line2d_16">
      <g>
       <use xlink:href="#m39af09bda7" x="196.419622" y="252" style="stroke: #000000; stroke-width: 0.6"/>
      </g>
     </g>
    </g>
    <g id="xtick_17">
     <g id="line2d_17">
      <g>
       <use xlink:href="#m39af09bda7" x="207.488837" y="252" style="stroke: #000000; stroke-width: 0.6"/>
      </g>
     </g>
    </g>
    <g id="xtick_18">
     <g id="line2d_18">
      <g>
       <use xlink:href="#m39af09bda7" x="216.074786" y="252" style="stroke: #000000; stroke-width: 0.6"/>
      </g>
     </g>
    </g>
    <g id="xtick_19">
     <g id="line2d_19">
      <g>
       <use xlink:href="#m39af09bda7" x="223.090018" y="252" style="stroke: #000000; stroke-width: 0.6"/>
      </g>
     </g>
    </g>
    <g id="xtick_20">
     <g id="line2d_20">
      <g>
       <use xlink:href="#m39af09bda7" x="229.021312" y="252" style="stroke: #000000; stroke-width: 0.6"/>
      </g>
     </g>
    </g>
    <g id="xtick_21">
     <g id="line2d_21">
      <g>
       <use xlink:href="#m39af09bda7" x="234.159232" y="252" style="stroke: #000000; stroke-width: 0.6"/>
      </g>
     </g>
    </g>
    <g id="xtick_22">
     <g id="line2d_22">
      <g>
       <use xlink:href="#m39af09bda7" x="238.691199" y="252" style="stroke: #000000; stroke-width: 0.6"/>
      </g>
     </g>
    </g>
    <g id="xtick_23">
     <g id="line2d_23">
      <g>
       <use xlink:href="#m39af09bda7" x="269.415578" y="252" style="stroke: #000000; stroke-width: 0.6"/>
      </g>
     </g>
    </g>
    <g id="xtick_24">
     <g id="line2d_24">
      <g>
       <use xlink:href="#m39af09bda7" x="285.016759" y="252" style="stroke: #000000; stroke-width: 0.6"/>
      </g>
     </g>
    </g>
    <g id="xtick_25">
     <g id="line2d_25">
      <g>
       <use xlink:href="#m39af09bda7" x="296.085973" y="252" style="stroke: #000000; stroke-width: 0.6"/>
      </g>
     </g>
    </g>
    <g id="xtick_26">
     <g id="line2d_26">
      <g>
       <use xlink:href="#m39af09bda7" x="304.671923" y="252" style="stroke: #000000; stroke-width: 0.6"/>
      </g>
     </g>
    </g>
    <g id="xtick_27">
     <g id="line2d_27">
      <g>
       <use xlink:href="#m39af09bda7" x="311.687155" y="252" style="stroke: #000000; stroke-width: 0.6"/>
      </g>
     </g>
    </g>
    <g id="xtick_28">
     <g id="line2d_28">
      <g>
       <use xlink:href="#m39af09bda7" x="317.618449" y="252" style="stroke: #000000; stroke-width: 0.6"/>
      </g>
     </g>
    </g>
    <g id="xtick_29">
     <g id="line2d_29">
      <g>
       <use xlink:href="#m39af09bda7" x="322.756369" y="252" style="stroke: #000000; stroke-width: 0.6"/>
      </g>
     </g>
    </g>
    <g id="xtick_30">
     <g id="line2d_30">
      <g>
       <use xlink:href="#m39af09bda7" x="327.288336" y="252" style="stroke: #000000; stroke-width: 0.6"/>
      </g>
     </g>
    </g>
    <g id="xtick_31">
     <g id="line2d_31">
      <g>
       <use xlink:href="#m39af09bda7" x="358.012715" y="252" style="stroke: #000000; stroke-width: 0.6"/>
      </g>
     </g>
    </g>
    <g id="xtick_32">
     <g id="line2d_32">
      <g>
       <use xlink:href="#m39af09bda7" x="373.613896" y="252" style="stroke: #000000; stroke-width: 0.6"/>
      </g>
     </g>
    </g>
    <g id="xtick_33">
     <g id="line2d_33">
      <g>
       <use xlink:href="#m39af09bda7" x="384.68311" y="252" style="stroke: #000000; stroke-width: 0.6"/>
      </g>
     </g>
    </g>
    <g id="text_5">
     <!-- Resources -->
     <g transform="translate(195.867969 280.276563)scale(0.1 -0.1)">
      <defs>
       <path id="DejaVuSans-52" d="M 2841 2188 
Q 3044 2119 3236 1894 
Q 3428 1669 3622 1275 
L 4263 0 
L 3584 0 
L 2988 1197 
Q 2756 1666 2539 1819 
Q 2322 1972 1947 1972 
L 1259 1972 
L 1259 0 
L 628 0 
L 628 4666 
L 2053 4666 
Q 2853 4666 3247 4331 
Q 3641 3997 3641 3322 
Q 3641 2881 3436 2590 
Q 3231 2300 2841 2188 
z
M 1259 4147 
L 1259 2491 
L 2053 2491 
Q 2509 2491 2742 2702 
Q 2975 2913 2975 3322 
Q 2975 3731 2742 3939 
Q 2509 4147 2053 4147 
L 1259 4147 
z
" transform="scale(0.015625)"/>
       <path id="DejaVuSans-65" d="M 3597 1894 
L 3597 1613 
L 953 1613 
Q 991 1019 1311 708 
Q 1631 397 2203 397 
Q 2534 397 2845 478 
Q 3156 559 3463 722 
L 3463 178 
Q 3153 47 2828 -22 
Q 2503 -91 2169 -91 
Q 1331 -91 842 396 
Q 353 884 353 1716 
Q 353 2575 817 3079 
Q 1281 3584 2069 3584 
Q 2775 3584 3186 3129 
Q 3597 2675 3597 1894 
z
M 3022 2063 
Q 3016 2534 2758 2815 
Q 2500 3097 2075 3097 
Q 1594 3097 1305 2825 
Q 1016 2553 972 2059 
L 3022 2063 
z
" transform="scale(0.015625)"/>
       <path id="DejaVuSans-73" d="M 2834 3397 
L 2834 2853 
Q 2591 2978 2328 3040 
Q 2066 3103 1784 3103 
Q 1356 3103 1142 2972 
Q 928 2841 928 2578 
Q 928 2378 1081 2264 
Q 1234 2150 1697 2047 
L 1894 2003 
Q 2506 1872 2764 1633 
Q 3022 1394 3022 966 
Q 3022 478 2636 193 
Q 2250 -91 1575 -91 
Q 1294 -91 989 -36 
Q 684 19 347 128 
L 347 722 
Q 666 556 975 473 
Q 1284 391 1588 391 
Q 1994 391 2212 530 
Q 2431 669 2431 922 
Q 2431 1156 2273 1281 
Q 2116 1406 1581 1522 
L 1381 1569 
Q 847 1681 609 1914 
Q 372 2147 372 2553 
Q 372 3047 722 3315 
Q 1072 3584 1716 3584 
Q 2034 3584 2315 3537 
Q 2597 3491 2834 3397 
z
" transform="scale(0.015625)"/>
       <path id="DejaVuSans-6f" d="M 1959 3097 
Q 1497 3097 1228 2736 
Q 959 2375 959 1747 
Q 959 1119 1226 758 
Q 1494 397 1959 397 
Q 2419 397 2687 759 
Q 2956 1122 2956 1747 
Q 2956 2369 2687 2733 
Q 2419 3097 1959 3097 
z
M 1959 3584 
Q 2709 3584 3137 3096 
Q 3566 2609 3566 1747 
Q 3566 888 3137 398 
Q 2709 -91 1959 -91 
Q 1206 -91 779 398 
Q 353 888 353 1747 
Q 353 2609 779 3096 
Q 1206 3584 1959 3584 
z
" transform="scale(0.015625)"/>
       <path id="DejaVuSans-75" d="M 544 1381 
L 544 3500 
L 1119 3500 
L 1119 1403 
Q 1119 906 1312 657 
Q 1506 409 1894 409 
Q 2359 409 2629 706 
Q 2900 1003 2900 1516 
L 2900 3500 
L 3475 3500 
L 3475 0 
L 2900 0 
L 2900 538 
Q 2691 219 2414 64 
Q 2138 -91 1772 -91 
Q 1169 -91 856 284 
Q 544 659 544 1381 
z
M 1991 3584 
L 1991 3584 
z
" transform="scale(0.015625)"/>
       <path id="DejaVuSans-72" d="M 2631 2963 
Q 2534 3019 2420 3045 
Q 2306 3072 2169 3072 
Q 1681 3072 1420 2755 
Q 1159 2438 1159 1844 
L 1159 0 
L 581 0 
L 581 3500 
L 1159 3500 
L 1159 2956 
Q 1341 3275 1631 3429 
Q 1922 3584 2338 3584 
Q 2397 3584 2469 3576 
Q 2541 3569 2628 3553 
L 2631 2963 
z
" transform="scale(0.015625)"/>
       <path id="DejaVuSans-63" d="M 3122 3366 
L 3122 2828 
Q 2878 2963 2633 3030 
Q 2388 3097 2138 3097 
Q 1578 3097 1268 2742 
Q 959 2388 959 1747 
Q 959 1106 1268 751 
Q 1578 397 2138 397 
Q 2388 397 2633 464 
Q 2878 531 3122 666 
L 3122 134 
Q 2881 22 2623 -34 
Q 2366 -91 2075 -91 
Q 1284 -91 818 406 
Q 353 903 353 1747 
Q 353 2603 823 3093 
Q 1294 3584 2113 3584 
Q 2378 3584 2631 3529 
Q 2884 3475 3122 3366 
z
" transform="scale(0.015625)"/>
      </defs>
      <use xlink:href="#DejaVuSans-52"/>
      <use xlink:href="#DejaVuSans-65" x="64.982422"/>
      <use xlink:href="#DejaVuSans-73" x="126.505859"/>
      <use xlink:href="#DejaVuSans-6f" x="178.605469"/>
      <use xlink:href="#DejaVuSans-75" x="239.787109"/>
      <use xlink:href="#DejaVuSans-72" x="303.166016"/>
      <use xlink:href="#DejaVuSans-63" x="342.029297"/>
      <use xlink:href="#DejaVuSans-65" x="397.009766"/>
      <use xlink:href="#DejaVuSans-73" x="458.533203"/>
     </g>
    </g>
   </g>
   <g id="matplotlib.axis_2">
    <g id="ytick_1">
     <g id="line2d_34">
      <defs>
       <path id="m647034d0ee" d="M 0 0 
L -3.5 0 
" style="stroke: #000000; stroke-width: 0.8"/>
      </defs>
      <g>
       <use xlink:href="#m647034d0ee" x="54" y="243.281667" style="stroke: #000000; stroke-width: 0.8"/>
      </g>
     </g>
     <g id="text_6">
      <!-- $\mathdefault{10^{-8}}$ -->
      <g transform="translate(23.5 247.080885)scale(0.1 -0.1)">
       <defs>
        <path id="DejaVuSans-2212" d="M 678 2272 
L 4684 2272 
L 4684 1741 
L 678 1741 
L 678 2272 
z
" transform="scale(0.015625)"/>
        <path id="DejaVuSans-38" d="M 2034 2216 
Q 1584 2216 1326 1975 
Q 1069 1734 1069 1313 
Q 1069 891 1326 650 
Q 1584 409 2034 409 
Q 2484 409 2743 651 
Q 3003 894 3003 1313 
Q 3003 1734 2745 1975 
Q 2488 2216 2034 2216 
z
M 1403 2484 
Q 997 2584 770 2862 
Q 544 3141 544 3541 
Q 544 4100 942 4425 
Q 1341 4750 2034 4750 
Q 2731 4750 3128 4425 
Q 3525 4100 3525 3541 
Q 3525 3141 3298 2862 
Q 3072 2584 2669 2484 
Q 3125 2378 3379 2068 
Q 3634 1759 3634 1313 
Q 3634 634 3220 271 
Q 2806 -91 2034 -91 
Q 1263 -91 848 271 
Q 434 634 434 1313 
Q 434 1759 690 2068 
Q 947 2378 1403 2484 
z
M 1172 3481 
Q 1172 3119 1398 2916 
Q 1625 2713 2034 2713 
Q 2441 2713 2670 2916 
Q 2900 3119 2900 3481 
Q 2900 3844 2670 4047 
Q 2441 4250 2034 4250 
Q 1625 4250 1398 4047 
Q 1172 3844 1172 3481 
z
" transform="scale(0.015625)"/>
       </defs>
       <use xlink:href="#DejaVuSans-31" transform="translate(0 0.765625)"/>
       <use xlink:href="#DejaVuSans-30" transform="translate(63.623047 0.765625)"/>
       <use xlink:href="#DejaVuSans-2212" transform="translate(128.203125 39.046875)scale(0.7)"/>
       <use xlink:href="#DejaVuSans-38" transform="translate(186.855469 39.046875)scale(0.7)"/>
      </g>
     </g>
    </g>
    <g id="ytick_2">
     <g id="line2d_35">
      <g>
       <use xlink:href="#m647034d0ee" x="54" y="214.707266" style="stroke: #000000; stroke-width: 0.8"/>
      </g>
     </g>
     <g id="text_7">
      <!-- $\mathdefault{10^{-7}}$ -->
      <g transform="translate(23.5 218.506485)scale(0.1 -0.1)">
       <defs>
        <path id="DejaVuSans-37" d="M 525 4666 
L 3525 4666 
L 3525 4397 
L 1831 0 
L 1172 0 
L 2766 4134 
L 525 4134 
L 525 4666 
z
" transform="scale(0.015625)"/>
       </defs>
       <use xlink:href="#DejaVuSans-31" transform="translate(0 0.684375)"/>
       <use xlink:href="#DejaVuSans-30" transform="translate(63.623047 0.684375)"/>
       <use xlink:href="#DejaVuSans-2212" transform="translate(128.203125 38.965625)scale(0.7)"/>
       <use xlink:href="#DejaVuSans-37" transform="translate(186.855469 38.965625)scale(0.7)"/>
      </g>
     </g>
    </g>
    <g id="ytick_3">
     <g id="line2d_36">
      <g>
       <use xlink:href="#m647034d0ee" x="54" y="186.132866" style="stroke: #000000; stroke-width: 0.8"/>
      </g>
     </g>
     <g id="text_8">
      <!-- $\mathdefault{10^{-6}}$ -->
      <g transform="translate(23.5 189.932085)scale(0.1 -0.1)">
       <defs>
        <path id="DejaVuSans-36" d="M 2113 2584 
Q 1688 2584 1439 2293 
Q 1191 2003 1191 1497 
Q 1191 994 1439 701 
Q 1688 409 2113 409 
Q 2538 409 2786 701 
Q 3034 994 3034 1497 
Q 3034 2003 2786 2293 
Q 2538 2584 2113 2584 
z
M 3366 4563 
L 3366 3988 
Q 3128 4100 2886 4159 
Q 2644 4219 2406 4219 
Q 1781 4219 1451 3797 
Q 1122 3375 1075 2522 
Q 1259 2794 1537 2939 
Q 1816 3084 2150 3084 
Q 2853 3084 3261 2657 
Q 3669 2231 3669 1497 
Q 3669 778 3244 343 
Q 2819 -91 2113 -91 
Q 1303 -91 875 529 
Q 447 1150 447 2328 
Q 447 3434 972 4092 
Q 1497 4750 2381 4750 
Q 2619 4750 2861 4703 
Q 3103 4656 3366 4563 
z
" transform="scale(0.015625)"/>
       </defs>
       <use xlink:href="#DejaVuSans-31" transform="translate(0 0.765625)"/>
       <use xlink:href="#DejaVuSans-30" transform="translate(63.623047 0.765625)"/>
       <use xlink:href="#DejaVuSans-2212" transform="translate(128.203125 39.046875)scale(0.7)"/>
       <use xlink:href="#DejaVuSans-36" transform="translate(186.855469 39.046875)scale(0.7)"/>
      </g>
     </g>
    </g>
    <g id="ytick_4">
     <g id="line2d_37">
      <g>
       <use xlink:href="#m647034d0ee" x="54" y="157.558466" style="stroke: #000000; stroke-width: 0.8"/>
      </g>
     </g>
     <g id="text_9">
      <!-- $\mathdefault{10^{-5}}$ -->
      <g transform="translate(23.5 161.357685)scale(0.1 -0.1)">
       <defs>
        <path id="DejaVuSans-35" d="M 691 4666 
L 3169 4666 
L 3169 4134 
L 1269 4134 
L 1269 2991 
Q 1406 3038 1543 3061 
Q 1681 3084 1819 3084 
Q 2600 3084 3056 2656 
Q 3513 2228 3513 1497 
Q 3513 744 3044 326 
Q 2575 -91 1722 -91 
Q 1428 -91 1123 -41 
Q 819 9 494 109 
L 494 744 
Q 775 591 1075 516 
Q 1375 441 1709 441 
Q 2250 441 2565 725 
Q 2881 1009 2881 1497 
Q 2881 1984 2565 2268 
Q 2250 2553 1709 2553 
Q 1456 2553 1204 2497 
Q 953 2441 691 2322 
L 691 4666 
z
" transform="scale(0.015625)"/>
       </defs>
       <use xlink:href="#DejaVuSans-31" transform="translate(0 0.684375)"/>
       <use xlink:href="#DejaVuSans-30" transform="translate(63.623047 0.684375)"/>
       <use xlink:href="#DejaVuSans-2212" transform="translate(128.203125 38.965625)scale(0.7)"/>
       <use xlink:href="#DejaVuSans-35" transform="translate(186.855469 38.965625)scale(0.7)"/>
      </g>
     </g>
    </g>
    <g id="ytick_5">
     <g id="line2d_38">
      <g>
       <use xlink:href="#m647034d0ee" x="54" y="128.984066" style="stroke: #000000; stroke-width: 0.8"/>
      </g>
     </g>
     <g id="text_10">
      <!-- $\mathdefault{10^{-4}}$ -->
      <g transform="translate(23.5 132.783285)scale(0.1 -0.1)">
       <use xlink:href="#DejaVuSans-31" transform="translate(0 0.684375)"/>
       <use xlink:href="#DejaVuSans-30" transform="translate(63.623047 0.684375)"/>
       <use xlink:href="#DejaVuSans-2212" transform="translate(128.203125 38.965625)scale(0.7)"/>
       <use xlink:href="#DejaVuSans-34" transform="translate(186.855469 38.965625)scale(0.7)"/>
      </g>
     </g>
    </g>
    <g id="ytick_6">
     <g id="line2d_39">
      <g>
       <use xlink:href="#m647034d0ee" x="54" y="100.409666" style="stroke: #000000; stroke-width: 0.8"/>
      </g>
     </g>
     <g id="text_11">
      <!-- $\mathdefault{10^{-3}}$ -->
      <g transform="translate(23.5 104.208885)scale(0.1 -0.1)">
       <use xlink:href="#DejaVuSans-31" transform="translate(0 0.765625)"/>
       <use xlink:href="#DejaVuSans-30" transform="translate(63.623047 0.765625)"/>
       <use xlink:href="#DejaVuSans-2212" transform="translate(128.203125 39.046875)scale(0.7)"/>
       <use xlink:href="#DejaVuSans-33" transform="translate(186.855469 39.046875)scale(0.7)"/>
      </g>
     </g>
    </g>
    <g id="ytick_7">
     <g id="line2d_40">
      <g>
       <use xlink:href="#m647034d0ee" x="54" y="71.835266" style="stroke: #000000; stroke-width: 0.8"/>
      </g>
     </g>
     <g id="text_12">
      <!-- $\mathdefault{10^{-2}}$ -->
      <g transform="translate(23.5 75.634484)scale(0.1 -0.1)">
       <use xlink:href="#DejaVuSans-31" transform="translate(0 0.765625)"/>
       <use xlink:href="#DejaVuSans-30" transform="translate(63.623047 0.765625)"/>
       <use xlink:href="#DejaVuSans-2212" transform="translate(128.203125 39.046875)scale(0.7)"/>
       <use xlink:href="#DejaVuSans-32" transform="translate(186.855469 39.046875)scale(0.7)"/>
      </g>
     </g>
    </g>
    <g id="ytick_8">
     <g id="line2d_41">
      <g>
       <use xlink:href="#m647034d0ee" x="54" y="43.260866" style="stroke: #000000; stroke-width: 0.8"/>
      </g>
     </g>
     <g id="text_13">
      <!-- $\mathdefault{10^{-1}}$ -->
      <g transform="translate(23.5 47.060084)scale(0.1 -0.1)">
       <use xlink:href="#DejaVuSans-31" transform="translate(0 0.684375)"/>
       <use xlink:href="#DejaVuSans-30" transform="translate(63.623047 0.684375)"/>
       <use xlink:href="#DejaVuSans-2212" transform="translate(128.203125 38.965625)scale(0.7)"/>
       <use xlink:href="#DejaVuSans-31" transform="translate(186.855469 38.965625)scale(0.7)"/>
      </g>
     </g>
    </g>
    <g id="ytick_9">
     <g id="line2d_42">
      <defs>
       <path id="m9d77a0c884" d="M 0 0 
L -2 0 
" style="stroke: #000000; stroke-width: 0.6"/>
      </defs>
      <g>
       <use xlink:href="#m9d77a0c884" x="54" y="251.883418" style="stroke: #000000; stroke-width: 0.6"/>
      </g>
     </g>
    </g>
    <g id="ytick_10">
     <g id="line2d_43">
      <g>
       <use xlink:href="#m9d77a0c884" x="54" y="249.620862" style="stroke: #000000; stroke-width: 0.6"/>
      </g>
     </g>
    </g>
    <g id="ytick_11">
     <g id="line2d_44">
      <g>
       <use xlink:href="#m9d77a0c884" x="54" y="247.707897" style="stroke: #000000; stroke-width: 0.6"/>
      </g>
     </g>
    </g>
    <g id="ytick_12">
     <g id="line2d_45">
      <g>
       <use xlink:href="#m9d77a0c884" x="54" y="246.050812" style="stroke: #000000; stroke-width: 0.6"/>
      </g>
     </g>
    </g>
    <g id="ytick_13">
     <g id="line2d_46">
      <g>
       <use xlink:href="#m9d77a0c884" x="54" y="244.589159" style="stroke: #000000; stroke-width: 0.6"/>
      </g>
     </g>
    </g>
    <g id="ytick_14">
     <g id="line2d_47">
      <g>
       <use xlink:href="#m9d77a0c884" x="54" y="234.679915" style="stroke: #000000; stroke-width: 0.6"/>
      </g>
     </g>
    </g>
    <g id="ytick_15">
     <g id="line2d_48">
      <g>
       <use xlink:href="#m9d77a0c884" x="54" y="229.648213" style="stroke: #000000; stroke-width: 0.6"/>
      </g>
     </g>
    </g>
    <g id="ytick_16">
     <g id="line2d_49">
      <g>
       <use xlink:href="#m9d77a0c884" x="54" y="226.078164" style="stroke: #000000; stroke-width: 0.6"/>
      </g>
     </g>
    </g>
    <g id="ytick_17">
     <g id="line2d_50">
      <g>
       <use xlink:href="#m9d77a0c884" x="54" y="223.309018" style="stroke: #000000; stroke-width: 0.6"/>
      </g>
     </g>
    </g>
    <g id="ytick_18">
     <g id="line2d_51">
      <g>
       <use xlink:href="#m9d77a0c884" x="54" y="221.046461" style="stroke: #000000; stroke-width: 0.6"/>
      </g>
     </g>
    </g>
    <g id="ytick_19">
     <g id="line2d_52">
      <g>
       <use xlink:href="#m9d77a0c884" x="54" y="219.133497" style="stroke: #000000; stroke-width: 0.6"/>
      </g>
     </g>
    </g>
    <g id="ytick_20">
     <g id="line2d_53">
      <g>
       <use xlink:href="#m9d77a0c884" x="54" y="217.476412" style="stroke: #000000; stroke-width: 0.6"/>
      </g>
     </g>
    </g>
    <g id="ytick_21">
     <g id="line2d_54">
      <g>
       <use xlink:href="#m9d77a0c884" x="54" y="216.014759" style="stroke: #000000; stroke-width: 0.6"/>
      </g>
     </g>
    </g>
    <g id="ytick_22">
     <g id="line2d_55">
      <g>
       <use xlink:href="#m9d77a0c884" x="54" y="206.105515" style="stroke: #000000; stroke-width: 0.6"/>
      </g>
     </g>
    </g>
    <g id="ytick_23">
     <g id="line2d_56">
      <g>
       <use xlink:href="#m9d77a0c884" x="54" y="201.073813" style="stroke: #000000; stroke-width: 0.6"/>
      </g>
     </g>
    </g>
    <g id="ytick_24">
     <g id="line2d_57">
      <g>
       <use xlink:href="#m9d77a0c884" x="54" y="197.503763" style="stroke: #000000; stroke-width: 0.6"/>
      </g>
     </g>
    </g>
    <g id="ytick_25">
     <g id="line2d_58">
      <g>
       <use xlink:href="#m9d77a0c884" x="54" y="194.734618" style="stroke: #000000; stroke-width: 0.6"/>
      </g>
     </g>
    </g>
    <g id="ytick_26">
     <g id="line2d_59">
      <g>
       <use xlink:href="#m9d77a0c884" x="54" y="192.472061" style="stroke: #000000; stroke-width: 0.6"/>
      </g>
     </g>
    </g>
    <g id="ytick_27">
     <g id="line2d_60">
      <g>
       <use xlink:href="#m9d77a0c884" x="54" y="190.559097" style="stroke: #000000; stroke-width: 0.6"/>
      </g>
     </g>
    </g>
    <g id="ytick_28">
     <g id="line2d_61">
      <g>
       <use xlink:href="#m9d77a0c884" x="54" y="188.902012" style="stroke: #000000; stroke-width: 0.6"/>
      </g>
     </g>
    </g>
    <g id="ytick_29">
     <g id="line2d_62">
      <g>
       <use xlink:href="#m9d77a0c884" x="54" y="187.440359" style="stroke: #000000; stroke-width: 0.6"/>
      </g>
     </g>
    </g>
    <g id="ytick_30">
     <g id="line2d_63">
      <g>
       <use xlink:href="#m9d77a0c884" x="54" y="177.531115" style="stroke: #000000; stroke-width: 0.6"/>
      </g>
     </g>
    </g>
    <g id="ytick_31">
     <g id="line2d_64">
      <g>
       <use xlink:href="#m9d77a0c884" x="54" y="172.499413" style="stroke: #000000; stroke-width: 0.6"/>
      </g>
     </g>
    </g>
    <g id="ytick_32">
     <g id="line2d_65">
      <g>
       <use xlink:href="#m9d77a0c884" x="54" y="168.929363" style="stroke: #000000; stroke-width: 0.6"/>
      </g>
     </g>
    </g>
    <g id="ytick_33">
     <g id="line2d_66">
      <g>
       <use xlink:href="#m9d77a0c884" x="54" y="166.160218" style="stroke: #000000; stroke-width: 0.6"/>
      </g>
     </g>
    </g>
    <g id="ytick_34">
     <g id="line2d_67">
      <g>
       <use xlink:href="#m9d77a0c884" x="54" y="163.897661" style="stroke: #000000; stroke-width: 0.6"/>
      </g>
     </g>
    </g>
    <g id="ytick_35">
     <g id="line2d_68">
      <g>
       <use xlink:href="#m9d77a0c884" x="54" y="161.984697" style="stroke: #000000; stroke-width: 0.6"/>
      </g>
     </g>
    </g>
    <g id="ytick_36">
     <g id="line2d_69">
      <g>
       <use xlink:href="#m9d77a0c884" x="54" y="160.327612" style="stroke: #000000; stroke-width: 0.6"/>
      </g>
     </g>
    </g>
    <g id="ytick_37">
     <g id="line2d_70">
      <g>
       <use xlink:href="#m9d77a0c884" x="54" y="158.865959" style="stroke: #000000; stroke-width: 0.6"/>
      </g>
     </g>
    </g>
    <g id="ytick_38">
     <g id="line2d_71">
      <g>
       <use xlink:href="#m9d77a0c884" x="54" y="148.956715" style="stroke: #000000; stroke-width: 0.6"/>
      </g>
     </g>
    </g>
    <g id="ytick_39">
     <g id="line2d_72">
      <g>
       <use xlink:href="#m9d77a0c884" x="54" y="143.925013" style="stroke: #000000; stroke-width: 0.6"/>
      </g>
     </g>
    </g>
    <g id="ytick_40">
     <g id="line2d_73">
      <g>
       <use xlink:href="#m9d77a0c884" x="54" y="140.354963" style="stroke: #000000; stroke-width: 0.6"/>
      </g>
     </g>
    </g>
    <g id="ytick_41">
     <g id="line2d_74">
      <g>
       <use xlink:href="#m9d77a0c884" x="54" y="137.585818" style="stroke: #000000; stroke-width: 0.6"/>
      </g>
     </g>
    </g>
    <g id="ytick_42">
     <g id="line2d_75">
      <g>
       <use xlink:href="#m9d77a0c884" x="54" y="135.323261" style="stroke: #000000; stroke-width: 0.6"/>
      </g>
     </g>
    </g>
    <g id="ytick_43">
     <g id="line2d_76">
      <g>
       <use xlink:href="#m9d77a0c884" x="54" y="133.410297" style="stroke: #000000; stroke-width: 0.6"/>
      </g>
     </g>
    </g>
    <g id="ytick_44">
     <g id="line2d_77">
      <g>
       <use xlink:href="#m9d77a0c884" x="54" y="131.753212" style="stroke: #000000; stroke-width: 0.6"/>
      </g>
     </g>
    </g>
    <g id="ytick_45">
     <g id="line2d_78">
      <g>
       <use xlink:href="#m9d77a0c884" x="54" y="130.291559" style="stroke: #000000; stroke-width: 0.6"/>
      </g>
     </g>
    </g>
    <g id="ytick_46">
     <g id="line2d_79">
      <g>
       <use xlink:href="#m9d77a0c884" x="54" y="120.382314" style="stroke: #000000; stroke-width: 0.6"/>
      </g>
     </g>
    </g>
    <g id="ytick_47">
     <g id="line2d_80">
      <g>
       <use xlink:href="#m9d77a0c884" x="54" y="115.350612" style="stroke: #000000; stroke-width: 0.6"/>
      </g>
     </g>
    </g>
    <g id="ytick_48">
     <g id="line2d_81">
      <g>
       <use xlink:href="#m9d77a0c884" x="54" y="111.780563" style="stroke: #000000; stroke-width: 0.6"/>
      </g>
     </g>
    </g>
    <g id="ytick_49">
     <g id="line2d_82">
      <g>
       <use xlink:href="#m9d77a0c884" x="54" y="109.011417" style="stroke: #000000; stroke-width: 0.6"/>
      </g>
     </g>
    </g>
    <g id="ytick_50">
     <g id="line2d_83">
      <g>
       <use xlink:href="#m9d77a0c884" x="54" y="106.748861" style="stroke: #000000; stroke-width: 0.6"/>
      </g>
     </g>
    </g>
    <g id="ytick_51">
     <g id="line2d_84">
      <g>
       <use xlink:href="#m9d77a0c884" x="54" y="104.835896" style="stroke: #000000; stroke-width: 0.6"/>
      </g>
     </g>
    </g>
    <g id="ytick_52">
     <g id="line2d_85">
      <g>
       <use xlink:href="#m9d77a0c884" x="54" y="103.178811" style="stroke: #000000; stroke-width: 0.6"/>
      </g>
     </g>
    </g>
    <g id="ytick_53">
     <g id="line2d_86">
      <g>
       <use xlink:href="#m9d77a0c884" x="54" y="101.717159" style="stroke: #000000; stroke-width: 0.6"/>
      </g>
     </g>
    </g>
    <g id="ytick_54">
     <g id="line2d_87">
      <g>
       <use xlink:href="#m9d77a0c884" x="54" y="91.807914" style="stroke: #000000; stroke-width: 0.6"/>
      </g>
     </g>
    </g>
    <g id="ytick_55">
     <g id="line2d_88">
      <g>
       <use xlink:href="#m9d77a0c884" x="54" y="86.776212" style="stroke: #000000; stroke-width: 0.6"/>
      </g>
     </g>
    </g>
    <g id="ytick_56">
     <g id="line2d_89">
      <g>
       <use xlink:href="#m9d77a0c884" x="54" y="83.206163" style="stroke: #000000; stroke-width: 0.6"/>
      </g>
     </g>
    </g>
    <g id="ytick_57">
     <g id="line2d_90">
      <g>
       <use xlink:href="#m9d77a0c884" x="54" y="80.437017" style="stroke: #000000; stroke-width: 0.6"/>
      </g>
     </g>
    </g>
    <g id="ytick_58">
     <g id="line2d_91">
      <g>
       <use xlink:href="#m9d77a0c884" x="54" y="78.174461" style="stroke: #000000; stroke-width: 0.6"/>
      </g>
     </g>
    </g>
    <g id="ytick_59">
     <g id="line2d_92">
      <g>
       <use xlink:href="#m9d77a0c884" x="54" y="76.261496" style="stroke: #000000; stroke-width: 0.6"/>
      </g>
     </g>
    </g>
    <g id="ytick_60">
     <g id="line2d_93">
      <g>
       <use xlink:href="#m9d77a0c884" x="54" y="74.604411" style="stroke: #000000; stroke-width: 0.6"/>
      </g>
     </g>
    </g>
    <g id="ytick_61">
     <g id="line2d_94">
      <g>
       <use xlink:href="#m9d77a0c884" x="54" y="73.142759" style="stroke: #000000; stroke-width: 0.6"/>
      </g>
     </g>
    </g>
    <g id="ytick_62">
     <g id="line2d_95">
      <g>
       <use xlink:href="#m9d77a0c884" x="54" y="63.233514" style="stroke: #000000; stroke-width: 0.6"/>
      </g>
     </g>
    </g>
    <g id="ytick_63">
     <g id="line2d_96">
      <g>
       <use xlink:href="#m9d77a0c884" x="54" y="58.201812" style="stroke: #000000; stroke-width: 0.6"/>
      </g>
     </g>
    </g>
    <g id="ytick_64">
     <g id="line2d_97">
      <g>
       <use xlink:href="#m9d77a0c884" x="54" y="54.631763" style="stroke: #000000; stroke-width: 0.6"/>
      </g>
     </g>
    </g>
    <g id="ytick_65">
     <g id="line2d_98">
      <g>
       <use xlink:href="#m9d77a0c884" x="54" y="51.862617" style="stroke: #000000; stroke-width: 0.6"/>
      </g>
     </g>
    </g>
    <g id="ytick_66">
     <g id="line2d_99">
      <g>
       <use xlink:href="#m9d77a0c884" x="54" y="49.600061" style="stroke: #000000; stroke-width: 0.6"/>
      </g>
     </g>
    </g>
    <g id="ytick_67">
     <g id="line2d_100">
      <g>
       <use xlink:href="#m9d77a0c884" x="54" y="47.687096" style="stroke: #000000; stroke-width: 0.6"/>
      </g>
     </g>
    </g>
    <g id="ytick_68">
     <g id="line2d_101">
      <g>
       <use xlink:href="#m9d77a0c884" x="54" y="46.030011" style="stroke: #000000; stroke-width: 0.6"/>
      </g>
     </g>
    </g>
    <g id="ytick_69">
     <g id="line2d_102">
      <g>
       <use xlink:href="#m9d77a0c884" x="54" y="44.568358" style="stroke: #000000; stroke-width: 0.6"/>
      </g>
     </g>
    </g>
    <g id="ytick_70">
     <g id="line2d_103">
      <g>
       <use xlink:href="#m9d77a0c884" x="54" y="34.659114" style="stroke: #000000; stroke-width: 0.6"/>
      </g>
     </g>
    </g>
    <g id="text_14">
     <!-- MSE -->
     <g transform="translate(17.420313 153.927656)rotate(-90)scale(0.1 -0.1)">
      <defs>
       <path id="DejaVuSans-4d" d="M 628 4666 
L 1569 4666 
L 2759 1491 
L 3956 4666 
L 4897 4666 
L 4897 0 
L 4281 0 
L 4281 4097 
L 3078 897 
L 2444 897 
L 1241 4097 
L 1241 0 
L 628 0 
L 628 4666 
z
" transform="scale(0.015625)"/>
       <path id="DejaVuSans-53" d="M 3425 4513 
L 3425 3897 
Q 3066 4069 2747 4153 
Q 2428 4238 2131 4238 
Q 1616 4238 1336 4038 
Q 1056 3838 1056 3469 
Q 1056 3159 1242 3001 
Q 1428 2844 1947 2747 
L 2328 2669 
Q 3034 2534 3370 2195 
Q 3706 1856 3706 1288 
Q 3706 609 3251 259 
Q 2797 -91 1919 -91 
Q 1588 -91 1214 -16 
Q 841 59 441 206 
L 441 856 
Q 825 641 1194 531 
Q 1563 422 1919 422 
Q 2459 422 2753 634 
Q 3047 847 3047 1241 
Q 3047 1584 2836 1778 
Q 2625 1972 2144 2069 
L 1759 2144 
Q 1053 2284 737 2584 
Q 422 2884 422 3419 
Q 422 4038 858 4394 
Q 1294 4750 2059 4750 
Q 2388 4750 2728 4690 
Q 3069 4631 3425 4513 
z
" transform="scale(0.015625)"/>
       <path id="DejaVuSans-45" d="M 628 4666 
L 3578 4666 
L 3578 4134 
L 1259 4134 
L 1259 2753 
L 3481 2753 
L 3481 2222 
L 1259 2222 
L 1259 531 
L 3634 531 
L 3634 0 
L 628 0 
L 628 4666 
z
" transform="scale(0.015625)"/>
      </defs>
      <use xlink:href="#DejaVuSans-4d"/>
      <use xlink:href="#DejaVuSans-53" x="86.279297"/>
      <use xlink:href="#DejaVuSans-45" x="149.755859"/>
     </g>
    </g>
   </g>
   <g id="line2d_104">
    <path d="M 69.218182 55.458671 
L 72.56614 56.264558 
L 75.645963 57.880165 
L 78.497434 58.693674 
L 81.15209 59.682446 
L 83.635354 59.901573 
L 88.167321 62.831813 
L 90.247679 63.289932 
L 92.221304 63.459626 
L 94.098615 65.32894 
L 95.888578 64.651072 
L 97.598959 65.986117 
L 99.236536 66.450105 
L 100.807254 67.133831 
L 102.316359 68.429578 
L 103.768503 68.962563 
L 105.16783 68.862299 
L 106.518047 69.933106 
L 107.822486 69.851998 
L 109.084148 70.884223 
L 110.30575 70.462575 
L 111.489759 70.827157 
L 112.638419 70.085982 
L 113.753779 72.2388 
L 114.837717 71.849694 
L 115.891954 72.945207 
L 116.918075 71.543658 
L 117.91754 73.366611 
L 118.8917 72.694496 
L 119.841804 74.037249 
L 120.769011 73.955168 
L 121.6744 74.995193 
L 122.558973 74.549118 
L 123.423667 74.541601 
L 124.269355 75.32398 
L 125.096854 75.901222 
L 125.906932 75.741989 
L 126.700305 76.745177 
L 127.47765 76.474805 
L 128.986755 77.103418 
L 129.719677 76.945774 
L 130.438899 77.47031 
L 131.144923 78.429788 
L 131.838225 78.014311 
L 132.519256 78.797888 
L 133.188443 78.787336 
L 133.84619 79.15496 
L 134.492881 78.754435 
L 135.128883 80.084547 
L 135.754543 79.770888 
L 136.370192 79.710353 
L 136.976146 80.150395 
L 137.572704 80.366502 
L 138.738771 80.331715 
L 139.308814 80.529225 
L 139.870536 81.760885 
L 140.424175 81.302056 
L 140.969961 81.522557 
L 141.508113 82.963792 
L 142.038842 82.748319 
L 142.56235 81.965869 
L 143.078831 82.976599 
L 143.588471 82.929317 
L 144.091448 82.192748 
L 144.587936 83.642527 
L 145.078099 83.558075 
L 145.562096 83.00003 
L 146.04008 83.295741 
L 146.512199 84.017528 
L 146.978596 83.151069 
L 147.439407 83.511443 
L 147.894764 83.609615 
L 148.344796 83.130157 
L 148.789624 83.581221 
L 149.229369 83.826361 
L 149.664145 83.453605 
L 150.094063 84.318894 
L 150.51923 83.437652 
L 150.93975 84.162788 
L 151.355725 84.344537 
L 151.76725 85.796491 
L 152.17442 84.206672 
L 152.577327 85.845482 
L 152.976059 85.007366 
L 153.370701 85.177335 
L 153.761336 83.906305 
L 162.733995 87.464556 
L 175.68052 92.404503 
L 185.350408 96.96045 
L 193.071664 102.743806 
L 199.499445 106.228884 
L 205.005572 109.070332 
L 209.821505 112.767439 
L 214.101162 113.892733 
L 217.952098 116.160978 
L 224.660736 119.291942 
L 227.621985 118.862282 
L 230.371529 119.647606 
L 232.93763 121.633862 
L 235.343241 122.104222 
L 237.607262 121.590633 
L 239.745437 122.866386 
L 241.771022 123.9179 
L 243.695286 122.819836 
L 245.527882 125.53424 
L 247.277149 125.712527 
L 248.950336 127.067759 
L 250.553787 127.122396 
L 253.573159 130.160391 
L 254.998405 129.276772 
L 256.372739 129.174057 
L 257.699672 130.560504 
L 258.982365 131.243299 
L 260.223675 130.670281 
L 261.426186 132.370095 
L 262.592253 131.809185 
L 263.724018 135.108836 
L 264.823443 135.265585 
L 265.892324 135.080516 
L 266.932313 134.177357 
L 267.944931 137.214216 
L 268.931581 136.556762 
L 269.893562 137.140561 
L 270.832078 136.666359 
L 271.748246 138.671721 
L 272.643106 137.781398 
L 273.517627 139.172758 
L 274.372712 139.47314 
L 275.209207 140.794961 
L 276.027903 136.849365 
L 277.614818 140.372642 
L 279.138869 141.392595 
L 279.878839 142.511278 
L 280.604846 142.213492 
L 282.017014 145.160394 
L 282.704126 144.375815 
L 283.379182 146.119913 
L 284.0426 148.9299 
L 284.694772 148.979622 
L 285.336074 150.607968 
L 285.966863 148.261377 
L 286.587477 148.807597 
L 287.19824 150.088285 
L 287.799459 149.320467 
L 288.391428 149.992293 
L 288.974428 152.083265 
L 289.548726 151.837545 
L 290.114578 152.532007 
L 290.672229 152.493333 
L 291.221914 153.634495 
L 291.763856 153.68848 
L 292.29827 153.428181 
L 292.825364 154.413848 
L 293.345335 155.720451 
L 293.858373 154.08067 
L 294.364659 155.655963 
L 294.864371 156.697283 
L 295.357676 156.471443 
L 295.844736 157.841711 
L 296.325708 156.590234 
L 296.800742 157.645798 
L 297.269982 157.822917 
L 297.733569 158.948913 
L 298.191637 159.285976 
L 298.644316 160.687079 
L 299.091731 160.771585 
L 299.971249 159.714965 
L 300.403582 160.035986 
L 300.831111 159.655015 
L 301.253943 160.773839 
L 301.672178 160.333035 
L 302.085915 161.10822 
L 302.900279 161.495767 
L 303.697764 162.774377 
L 304.090392 161.845906 
L 304.479054 162.040001 
L 305.244796 162.99434 
L 305.622027 163.778945 
L 306.365572 164.241258 
L 306.732024 165.418561 
L 307.09502 164.119233 
L 307.454623 164.390101 
L 307.810896 164.002994 
L 309.20389 165.871378 
L 309.544399 164.820635 
L 309.881921 165.884412 
L 310.54821 166.084008 
L 310.877078 166.003938 
L 311.203158 166.110058 
L 311.526498 166.500845 
L 311.847144 166.502156 
L 312.165139 166.177988 
L 312.480528 167.47584 
L 312.793353 167.785811 
L 313.103655 166.24311 
L 313.411475 168.132161 
L 313.716851 168.024384 
L 314.019823 167.708491 
L 314.320428 169.268954 
L 314.618703 168.165498 
L 314.914683 168.59497 
L 315.208404 169.291684 
L 315.4999 169.20296 
L 316.076349 169.602094 
L 316.361367 169.439364 
L 316.644289 170.676467 
L 316.925146 169.682318 
L 317.203968 170.484072 
L 317.480784 170.40027 
L 318.028512 170.011099 
L 318.29948 170.92393 
L 318.568552 170.380227 
L 318.835757 171.086201 
L 319.101118 172.157227 
L 319.364662 170.362376 
L 319.626413 172.169989 
L 320.144633 171.34893 
L 320.401149 171.289879 
L 320.909107 172.491186 
L 321.160593 171.840699 
L 321.410446 172.873545 
L 321.658687 172.603976 
L 321.905337 172.533862 
L 322.150416 172.213948 
L 322.393943 172.535711 
L 322.635939 173.105601 
L 322.876423 172.570308 
L 323.115413 172.811158 
L 323.352928 173.697021 
L 323.588985 172.749124 
L 323.823603 173.683702 
L 324.056799 173.204 
L 324.288591 173.08985 
L 324.518994 172.851065 
L 324.748026 174.234747 
L 324.975703 174.023608 
L 325.427054 174.939315 
L 325.650759 174.906965 
L 325.873172 174.648932 
L 326.094306 173.963982 
L 326.532798 175.177733 
L 326.750184 175.44422 
L 326.966349 175.380552 
L 327.181306 174.617902 
L 327.395069 175.356607 
L 327.607651 175.617344 
L 327.819065 175.102628 
L 328.029324 175.648712 
L 328.23844 175.270019 
L 328.446426 175.690832 
L 328.653293 175.660523 
L 328.859054 175.500704 
L 329.469817 176.317918 
L 329.671269 175.699492 
L 329.871672 176.859348 
L 330.071036 175.850863 
L 330.466693 176.612477 
L 330.663006 176.807663 
L 330.858322 176.024788 
L 331.052652 176.702873 
L 331.246005 176.324502 
L 331.438392 177.410466 
L 331.820303 176.466084 
L 332.009847 177.382293 
L 332.198461 177.379106 
L 332.386155 177.622705 
L 332.572938 176.969842 
L 332.758819 178.377517 
L 332.943806 177.569939 
L 333.127908 177.693706 
L 333.311134 178.152485 
L 333.493491 177.591924 
L 333.855632 178.257363 
L 334.035433 177.485129 
L 334.214397 177.887447 
L 334.392533 177.661186 
L 334.746349 178.568046 
L 334.922044 178.609517 
L 335.096941 177.950275 
L 335.271047 178.732368 
L 335.444368 178.852451 
L 335.616912 178.440056 
L 335.788686 179.147959 
L 335.959696 178.6069 
L 336.12995 179.087677 
L 336.299453 178.8801 
L 336.468213 179.358869 
L 336.636236 179.085111 
L 336.803529 180.130049 
L 336.970098 179.339184 
L 337.135948 179.367498 
L 337.301087 179.270082 
L 337.46552 179.576809 
L 337.629253 179.612742 
L 337.792292 179.265815 
L 337.954644 179.371292 
L 338.277306 180.387531 
L 338.437628 180.061921 
L 338.597285 180.544405 
L 339.072319 180.144293 
L 339.229369 180.504464 
L 339.385781 180.41992 
L 339.541559 181.000808 
L 339.851237 180.322282 
L 340.005146 180.769973 
L 340.158442 180.662122 
L 340.31113 179.839924 
L 340.463214 181.128349 
L 340.614699 181.043836 
L 340.765591 181.385331 
L 341.214747 181.142838 
L 341.363308 181.84657 
L 341.511297 181.088393 
L 341.65872 182.055297 
L 341.80558 181.677143 
L 341.951881 181.90846 
L 342.097629 180.98658 
L 342.242826 181.874165 
L 342.531587 181.744629 
L 342.675159 181.161086 
L 342.960706 181.879257 
L 343.102688 181.49401 
L 343.385092 182.210664 
L 343.52552 181.951071 
L 343.804847 182.355434 
L 343.943755 181.749955 
L 344.082162 182.66378 
L 344.220074 182.702251 
L 344.357493 182.039281 
L 344.494422 182.963444 
L 344.630867 182.752299 
L 344.902312 183.17651 
L 345.03732 182.518356 
L 345.439525 183.006812 
L 345.572664 183.018919 
L 345.705345 183.258255 
L 345.837569 182.981016 
L 346.100662 183.298986 
L 346.231538 182.982757 
L 346.361969 182.998367 
L 346.621513 183.291822 
L 346.750631 184.643714 
L 346.879318 183.165257 
L 347.007576 183.112825 
L 347.135407 184.014056 
L 347.516373 183.514888 
L 347.642528 183.118857 
L 348.01853 184.264175 
L 348.143052 183.199668 
L 348.267172 183.526156 
L 348.390894 183.347655 
L 348.637149 184.443215 
L 348.881838 183.83301 
L 349.003602 184.179843 
L 349.124981 184.055013 
L 349.245979 184.278109 
L 349.606706 183.785419 
L 349.7262 183.973631 
L 349.845325 184.807832 
L 349.964082 184.185206 
L 350.082474 184.487565 
L 350.200502 183.954113 
L 350.435478 184.615721 
L 350.552431 183.995086 
L 350.669028 185.391088 
L 350.785274 185.163909 
L 350.901169 185.397782 
L 351.016717 185.042863 
L 351.131918 185.148732 
L 351.246776 184.987294 
L 351.361291 185.589343 
L 351.475467 185.077708 
L 351.589305 185.395268 
L 351.702808 185.042455 
L 351.815976 185.603766 
L 351.928813 185.405075 
L 352.265351 185.912738 
L 352.376879 185.952857 
L 352.488085 185.306606 
L 352.709537 186.473344 
L 352.819787 185.335048 
L 352.929722 186.001172 
L 353.039344 185.799314 
L 353.257655 186.606309 
L 353.474735 185.949218 
L 353.690597 186.520078 
L 353.798075 185.741405 
L 354.012135 186.188677 
L 354.118721 185.990984 
L 354.331009 186.839964 
L 354.436716 186.784161 
L 354.542133 187.116246 
L 354.647263 186.604301 
L 354.752105 186.814568 
L 354.856663 185.475378 
L 354.960938 187.150797 
L 355.06493 187.061873 
L 355.168643 185.728521 
L 355.375232 187.265861 
L 355.580719 187.086813 
L 355.683052 186.523743 
L 355.886905 187.218584 
L 355.988428 186.96169 
L 356.190675 187.422896 
L 356.391863 187.061658 
L 356.492065 187.094887 
L 356.592006 187.615995 
L 356.89028 187.378861 
L 356.989194 187.995049 
L 357.087853 187.656376 
L 357.186261 188.079302 
L 357.382323 187.213078 
L 357.577392 188.060648 
L 357.771477 187.129742 
L 358.060781 188.653958 
L 358.156734 187.756815 
L 358.443167 188.302472 
L 358.538172 187.841747 
L 358.632944 188.216821 
L 358.727483 188.019976 
L 358.82179 188.320359 
L 358.915866 188.03649 
L 359.009713 188.178545 
L 359.103332 188.074771 
L 359.196723 188.92221 
L 359.289889 188.568331 
L 359.382829 188.837639 
L 359.475545 188.336352 
L 359.66031 188.98147 
L 359.752361 188.548505 
L 359.844192 188.844122 
L 359.935805 188.517646 
L 360.0272 188.5902 
L 360.118378 189.254407 
L 360.209341 188.828148 
L 360.300089 189.337364 
L 360.480946 188.334766 
L 360.571057 189.607988 
L 360.660957 189.524099 
L 360.750648 189.361707 
L 360.84013 188.529257 
L 361.284445 189.55239 
L 361.372695 188.854557 
L 361.636239 190.110739 
L 361.723687 189.414534 
L 361.810937 189.630433 
L 361.89799 189.270499 
L 362.071507 189.830697 
L 362.244244 189.869298 
L 362.41621 189.767 
L 362.501905 189.941572 
L 362.58741 189.574675 
L 362.672726 189.971482 
L 362.757852 189.502077 
L 362.842791 190.199126 
L 362.927543 189.842132 
L 363.012108 190.289151 
L 363.096488 189.1437 
L 363.180684 190.319995 
L 363.264695 189.882566 
L 363.515635 190.467445 
L 363.682023 189.610319 
L 363.764948 190.706308 
L 363.847695 190.380499 
L 364.012657 190.861339 
L 364.094873 190.094915 
L 364.176914 190.28615 
L 364.25878 190.832692 
L 364.340473 189.894016 
L 364.421993 191.163482 
L 364.50334 190.040669 
L 364.584516 190.451295 
L 364.665521 190.350959 
L 364.746355 190.451029 
L 364.82702 190.019819 
L 364.907517 191.79535 
L 364.987845 191.126717 
L 365.068006 191.122195 
L 365.227828 190.338071 
L 365.307492 191.259801 
L 365.545496 189.999272 
L 365.703352 191.52058 
L 365.782037 190.728149 
L 365.860562 190.829599 
L 366.017133 190.944082 
L 366.09518 190.537808 
L 366.173069 190.686967 
L 366.405795 191.972354 
L 366.637122 190.578526 
L 366.713923 191.592753 
L 366.790571 190.844527 
L 366.867067 191.584072 
L 366.94341 191.215216 
L 367.095645 191.795279 
L 367.24728 191.42698 
L 367.322874 191.380425 
L 367.398319 190.806881 
L 367.548768 191.948901 
L 367.623772 190.808494 
L 367.698631 191.218261 
L 367.773344 191.574776 
L 367.922336 191.274083 
L 368.070754 191.290866 
L 368.144749 191.932316 
L 368.218602 191.001274 
L 368.365883 192.246123 
L 368.439313 191.77 
L 368.512603 191.945614 
L 368.585754 191.696277 
L 368.658766 191.932264 
L 368.731639 191.758946 
L 368.804375 191.908837 
L 368.876974 192.458279 
L 369.166006 191.339398 
L 369.237926 191.328263 
L 369.309712 193.138745 
L 369.381364 191.344686 
L 369.452883 191.629249 
L 369.595524 192.07718 
L 369.666646 191.437922 
L 369.737638 191.697971 
L 369.808498 191.509901 
L 369.879228 192.19189 
L 369.949829 192.13163 
L 370.0203 192.086961 
L 370.090642 192.852317 
L 370.160856 192.830992 
L 370.230942 191.838834 
L 370.300901 192.145754 
L 370.370733 192.119122 
L 370.510017 193.103357 
L 370.648799 192.492168 
L 370.718003 192.571582 
L 370.787082 192.480314 
L 370.856038 192.002539 
L 370.993579 192.963286 
L 371.130631 191.985937 
L 371.198975 192.635876 
L 371.267197 192.198383 
L 371.335298 193.648968 
L 371.403279 193.058448 
L 371.47114 192.43304 
L 371.538882 192.655708 
L 371.606504 193.139424 
L 371.674008 193.113495 
L 371.741394 192.638659 
L 371.808662 193.473108 
L 371.875813 193.086098 
L 371.942846 192.668108 
L 372.143249 193.228768 
L 372.209819 192.84775 
L 372.276273 193.035062 
L 372.342613 193.334569 
L 372.408839 192.940662 
L 372.474951 193.223369 
L 372.54095 192.99947 
L 372.606836 193.499786 
L 372.73827 192.980743 
L 372.869256 193.692437 
L 372.934583 193.039351 
L 372.999798 193.071946 
L 373.064904 192.884923 
L 373.129899 193.770706 
L 373.194785 193.712093 
L 373.259561 193.637345 
L 373.324229 193.060809 
L 373.453239 193.611539 
L 373.517582 192.78468 
L 373.581818 193.278616 
" clip-path="url(#pd43bc29e80)" style="fill: none; stroke: #0000ff; stroke-width: 1.5; stroke-linecap: square"/>
   </g>
   <g id="line2d_105">
    <path d="M 69.218182 44.443636 
L 373.581818 142.607174 
L 373.581818 142.607174 
" clip-path="url(#pd43bc29e80)" style="fill: none; stroke: #008000; stroke-width: 1.5; stroke-linecap: square"/>
   </g>
   <g id="line2d_106">
    <path d="M 69.218182 45.78929 
L 373.581818 242.116364 
L 373.581818 242.116364 
" clip-path="url(#pd43bc29e80)" style="fill: none; stroke: #ff0000; stroke-width: 1.5; stroke-linecap: square"/>
   </g>
   <g id="patch_3">
    <path d="M 54 252 
L 54 34.56 
" style="fill: none; stroke: #000000; stroke-width: 0.8; stroke-linejoin: miter; stroke-linecap: square"/>
   </g>
   <g id="patch_4">
    <path d="M 388.8 252 
L 388.8 34.56 
" style="fill: none; stroke: #000000; stroke-width: 0.8; stroke-linejoin: miter; stroke-linecap: square"/>
   </g>
   <g id="patch_5">
    <path d="M 54 252 
L 388.8 252 
" style="fill: none; stroke: #000000; stroke-width: 0.8; stroke-linejoin: miter; stroke-linecap: square"/>
   </g>
   <g id="patch_6">
    <path d="M 54 34.56 
L 388.8 34.56 
" style="fill: none; stroke: #000000; stroke-width: 0.8; stroke-linejoin: miter; stroke-linecap: square"/>
   </g>
  </g>
 </g>
 <defs>
  <clipPath id="pd43bc29e80">
   <rect x="54" y="34.56" width="334.8" height="217.44"/>
  </clipPath>
 </defs>
</svg>
