<?xml version="1.0" encoding="utf-8" standalone="no"?>
<!DOCTYPE svg PUBLIC "-//W3C//DTD SVG 1.1//EN"
  "http://www.w3.org/Graphics/SVG/1.1/DTD/svg11.dtd">
<svg xmlns:xlink="http://www.w3.org/1999/xlink" width="432pt" height="288pt" viewBox="0 0 432 288" xmlns="http://www.w3.org/2000/svg" version="1.1">
 <metadata>
  <rdf:RDF xmlns:dc="http://purl.org/dc/elements/1.1/" xmlns:cc="http://creativecommons.org/ns#" xmlns:rdf="http://www.w3.org/1999/02/22-rdf-syntax-ns#">
   <cc:Work>
    <dc:type rdf:resource="http://purl.org/dc/dcmitype/StillImage"/>
    <dc:date>2022-02-14T00:23:21.463163</dc:date>
    <dc:format>image/svg+xml</dc:format>
    <dc:creator>
     <cc:Agent>
      <dc:title>Matplotlib v3.5.1, https://matplotlib.org/</dc:title>
     </cc:Agent>
    </dc:creator>
   </cc:Work>
  </rdf:RDF>
 </metadata>
 <defs>
  <style type="text/css">*{stroke-linejoin: round; stroke-linecap: butt}</style>
 </defs>
 <g id="figure_1">
  <g id="patch_1">
   <path d="M 0 288 
L 432 288 
L 432 0 
L 0 0 
L 0 288 
z
" style="fill: none"/>
  </g>
  <g id="axes_1">
   <g id="patch_2">
    <path d="M 54 252 
L 388.8 252 
L 388.8 34.56 
L 54 34.56 
z
" style="fill: #ffffff"/>
   </g>
   <g id="PolyCollection_1">
    <defs>
     <path id="m643eb1e484" d="M 69.218182 -243.556364 
L 69.218182 -242.278686 
L 72.56614 -241.812996 
L 75.645963 -240.09664 
L 78.497434 -239.543077 
L 81.15209 -238.842855 
L 83.635354 -238.078707 
L 85.968023 -236.722501 
L 88.167321 -235.16309 
L 90.247679 -233.539289 
L 92.221304 -233.486891 
L 94.098615 -232.943281 
L 95.888578 -231.926501 
L 97.598959 -231.012897 
L 99.236536 -230.736841 
L 100.807254 -229.889283 
L 102.316359 -228.88343 
L 103.768503 -228.498986 
L 105.16783 -227.580693 
L 106.518047 -227.167565 
L 107.822486 -226.056362 
L 109.084148 -225.959931 
L 110.30575 -224.175621 
L 111.489759 -224.661031 
L 112.638419 -224.840076 
L 113.753779 -222.327004 
L 114.837717 -224.163251 
L 115.891954 -222.317669 
L 116.918075 -223.099562 
L 117.91754 -220.793598 
L 118.8917 -221.572186 
L 119.841804 -221.090311 
L 120.769011 -219.567737 
L 121.6744 -219.525151 
L 122.558973 -219.2225 
L 123.423667 -218.81359 
L 124.269355 -219.228941 
L 125.096854 -219.05068 
L 125.906932 -217.015423 
L 126.700305 -216.193749 
L 127.47765 -216.887498 
L 128.2396 -214.811036 
L 128.986755 -215.854348 
L 129.719677 -215.66847 
L 130.438899 -216.103798 
L 131.144923 -214.349449 
L 131.838225 -214.377498 
L 132.519256 -214.79088 
L 133.188443 -214.044391 
L 133.84619 -214.96086 
L 134.492881 -213.530671 
L 135.128883 -213.867202 
L 135.754543 -214.430371 
L 136.370192 -213.959143 
L 136.976146 -212.871696 
L 137.572704 -212.128895 
L 138.160155 -214.53593 
L 138.738771 -214.227203 
L 139.308814 -212.508837 
L 139.870536 -214.035508 
L 140.424175 -213.883012 
L 140.969961 -212.05144 
L 141.508113 -212.377962 
L 142.038842 -212.76536 
L 142.56235 -213.067244 
L 143.078831 -209.354048 
L 143.588471 -213.693068 
L 144.091448 -211.899065 
L 144.587936 -213.232207 
L 145.078099 -211.755577 
L 145.562096 -213.308834 
L 146.04008 -212.121035 
L 146.512199 -212.605948 
L 146.978596 -211.722204 
L 147.439407 -211.697495 
L 147.894764 -212.225921 
L 148.344796 -210.81195 
L 148.789624 -211.80446 
L 149.229369 -210.126367 
L 149.664145 -211.187064 
L 150.094063 -208.322542 
L 150.51923 -211.619331 
L 150.93975 -209.766717 
L 151.355725 -210.228087 
L 151.76725 -212.155126 
L 152.17442 -211.545697 
L 152.577327 -210.782309 
L 152.976059 -210.192896 
L 153.370701 -210.760329 
L 153.761336 -211.608933 
L 162.733995 -205.312106 
L 175.68052 -197.200231 
L 185.350408 -193.198567 
L 193.071664 -187.841627 
L 199.499445 -184.67635 
L 205.005572 -180.635179 
L 209.821505 -177.982463 
L 214.101162 -175.965043 
L 217.952098 -174.819886 
L 221.452441 -173.331701 
L 224.660736 -171.236569 
L 227.621985 -167.414267 
L 230.371529 -166.846863 
L 232.93763 -165.980118 
L 235.343241 -165.098292 
L 237.607262 -161.228985 
L 239.745437 -160.537176 
L 241.771022 -159.813276 
L 243.695286 -159.163869 
L 245.527882 -156.897265 
L 247.277149 -154.634199 
L 248.950336 -157.11658 
L 250.553787 -153.812948 
L 252.093082 -154.520111 
L 253.573159 -155.900178 
L 254.998405 -153.921207 
L 256.372739 -152.022586 
L 257.699672 -151.100885 
L 258.982365 -154.141303 
L 260.223675 -152.428336 
L 261.426186 -151.39465 
L 262.592253 -150.351009 
L 263.724018 -148.762218 
L 264.823443 -146.128649 
L 265.892324 -149.455426 
L 266.932313 -147.897577 
L 267.944931 -144.224374 
L 268.931581 -146.708879 
L 269.893562 -141.03361 
L 270.832078 -145.462516 
L 271.748246 -143.262589 
L 272.643106 -141.782421 
L 273.517627 -143.906366 
L 274.372712 -141.540921 
L 275.209207 -141.03852 
L 276.027903 -142.958035 
L 276.829541 -140.463706 
L 277.614818 -139.437444 
L 278.384389 -140.067172 
L 279.138869 -139.909738 
L 279.878839 -139.837004 
L 280.604846 -139.755832 
L 281.317408 -139.381822 
L 282.017014 -135.513338 
L 282.704126 -136.2643 
L 283.379182 -136.941815 
L 284.0426 -133.732431 
L 284.694772 -137.574609 
L 285.336074 -136.613148 
L 285.966863 -136.344395 
L 286.587477 -135.476473 
L 287.19824 -134.066566 
L 287.799459 -128.452186 
L 288.391428 -131.254869 
L 288.974428 -131.738699 
L 289.548726 -130.111563 
L 290.114578 -130.720689 
L 290.672229 -129.348862 
L 291.221914 -130.856856 
L 291.763856 -128.128215 
L 292.29827 -128.82108 
L 292.825364 -129.532288 
L 293.345335 -130.373355 
L 293.858373 -128.276754 
L 294.364659 -127.074066 
L 294.864371 -126.635988 
L 295.357676 -129.26418 
L 295.844736 -129.464742 
L 296.325708 -126.427013 
L 296.800742 -125.775544 
L 297.269982 -122.495645 
L 297.733569 -126.976003 
L 298.191637 -126.054284 
L 298.644316 -125.104285 
L 299.091731 -126.254523 
L 299.534003 -127.237671 
L 299.971249 -128.39789 
L 300.403582 -124.898722 
L 300.831111 -124.121309 
L 301.253943 -126.887281 
L 301.672178 -126.022347 
L 302.085915 -123.956161 
L 302.495252 -125.156836 
L 302.900279 -124.528525 
L 303.301087 -122.945036 
L 303.697764 -123.880521 
L 304.090392 -121.703816 
L 304.479054 -122.124125 
L 304.86383 -120.693823 
L 305.244796 -120.293597 
L 305.622027 -120.466872 
L 305.995595 -118.6209 
L 306.365572 -121.913316 
L 306.732024 -121.291867 
L 307.09502 -122.974639 
L 307.454623 -122.526839 
L 307.810896 -118.90695 
L 308.163901 -121.312224 
L 308.513697 -120.979532 
L 308.860341 -118.368836 
L 309.20389 -118.791907 
L 309.544399 -120.814046 
L 309.881921 -119.008646 
L 310.216508 -120.212747 
L 310.54821 -118.715459 
L 310.877078 -117.351013 
L 311.203158 -117.821958 
L 311.526498 -116.987815 
L 311.847144 -117.612027 
L 312.165139 -115.165406 
L 312.480528 -117.315124 
L 312.793353 -115.826923 
L 313.103655 -117.404176 
L 313.411475 -115.961483 
L 313.716851 -116.123978 
L 314.019823 -117.000608 
L 314.320428 -117.593352 
L 314.618703 -117.999428 
L 314.914683 -114.895267 
L 315.208404 -114.269395 
L 315.4999 -119.493853 
L 315.789204 -116.616557 
L 316.076349 -116.608712 
L 316.361367 -118.557182 
L 316.644289 -114.039892 
L 316.925146 -118.705696 
L 317.203968 -116.765682 
L 317.480784 -116.746549 
L 317.755623 -115.62012 
L 318.028512 -114.194659 
L 318.29948 -114.47011 
L 318.568552 -112.905592 
L 318.835757 -111.074291 
L 319.101118 -111.468849 
L 319.364662 -113.043122 
L 319.626413 -111.052348 
L 319.886395 -111.161181 
L 320.144633 -112.21089 
L 320.401149 -111.77272 
L 320.655966 -109.935818 
L 320.909107 -112.320364 
L 321.160593 -108.516989 
L 321.410446 -110.793426 
L 321.658687 -109.447031 
L 321.905337 -110.473721 
L 322.150416 -112.103706 
L 322.393943 -110.151466 
L 322.635939 -113.626885 
L 322.876423 -114.857417 
L 323.115413 -111.211784 
L 323.352928 -108.880643 
L 323.588985 -110.574289 
L 323.823603 -111.449747 
L 324.056799 -111.67735 
L 324.288591 -110.230952 
L 324.518994 -111.114444 
L 324.748026 -110.247585 
L 324.975703 -110.767107 
L 325.20204 -109.667207 
L 325.427054 -108.762809 
L 325.650759 -107.865375 
L 325.873172 -108.551108 
L 326.094306 -107.558273 
L 326.314177 -107.244593 
L 326.532798 -109.761183 
L 326.750184 -107.414249 
L 326.966349 -108.203465 
L 327.181306 -106.634489 
L 327.395069 -107.760764 
L 327.607651 -107.018197 
L 327.819065 -108.713206 
L 328.029324 -103.440553 
L 328.23844 -104.088146 
L 328.446426 -105.659349 
L 328.653293 -105.798965 
L 328.859054 -104.768261 
L 329.063721 -106.967115 
L 329.267305 -104.761859 
L 329.469817 -106.321762 
L 329.671269 -102.283143 
L 329.871672 -103.857548 
L 330.071036 -102.177307 
L 330.269373 -105.191123 
L 330.466693 -104.607341 
L 330.663006 -106.334439 
L 330.858322 -105.732381 
L 331.052652 -103.286462 
L 331.246005 -103.823799 
L 331.438392 -104.244132 
L 331.629821 -102.84544 
L 331.820303 -103.464174 
L 332.009847 -105.218728 
L 332.198461 -103.230948 
L 332.386155 -105.948036 
L 332.572938 -105.291166 
L 332.758819 -104.68158 
L 332.943806 -102.340804 
L 333.127908 -103.465832 
L 333.311134 -104.701149 
L 333.493491 -103.707749 
L 333.674987 -104.197915 
L 333.855632 -106.787587 
L 334.035433 -102.792938 
L 334.214397 -105.251342 
L 334.392533 -104.190159 
L 334.569847 -103.024981 
L 334.746349 -101.69547 
L 334.922044 -104.240008 
L 335.096941 -102.991267 
L 335.271047 -104.9671 
L 335.444368 -104.353211 
L 335.616912 -100.534153 
L 335.788686 -103.124615 
L 335.959696 -101.207426 
L 336.12995 -103.760786 
L 336.299453 -105.853395 
L 336.468213 -103.857084 
L 336.636236 -99.940424 
L 336.803529 -101.157719 
L 336.970098 -99.763677 
L 337.135948 -99.419509 
L 337.301087 -101.480831 
L 337.46552 -101.090696 
L 337.629253 -100.068883 
L 337.792292 -101.451125 
L 337.954644 -99.267918 
L 338.116313 -102.072172 
L 338.277306 -100.346558 
L 338.437628 -101.649652 
L 338.597285 -96.421475 
L 338.756282 -98.886606 
L 338.914625 -101.796424 
L 339.072319 -99.231128 
L 339.229369 -101.009334 
L 339.385781 -100.638579 
L 339.541559 -98.516233 
L 339.69671 -99.57769 
L 339.851237 -100.471932 
L 340.005146 -97.784565 
L 340.158442 -98.286252 
L 340.31113 -98.918104 
L 340.463214 -99.310299 
L 340.614699 -101.912572 
L 340.765591 -99.835761 
L 340.915893 -100.668445 
L 341.06561 -97.741962 
L 341.214747 -97.378501 
L 341.363308 -97.722661 
L 341.511297 -97.518734 
L 341.65872 -98.102728 
L 341.80558 -98.663005 
L 341.951881 -95.711475 
L 342.097629 -100.236783 
L 342.242826 -97.005198 
L 342.387477 -96.288746 
L 342.531587 -97.040998 
L 342.675159 -95.219575 
L 342.818197 -97.975774 
L 342.960706 -97.18222 
L 343.102688 -95.698109 
L 343.244149 -94.883389 
L 343.385092 -96.270404 
L 343.52552 -95.940269 
L 343.665437 -95.252682 
L 343.804847 -96.176697 
L 343.943755 -93.999276 
L 344.082162 -94.744231 
L 344.220074 -96.996184 
L 344.357493 -95.815367 
L 344.494422 -97.073291 
L 344.630867 -96.554973 
L 344.766829 -97.365321 
L 344.902312 -96.390173 
L 345.03732 -98.540079 
L 345.171856 -96.06122 
L 345.305923 -95.537014 
L 345.439525 -96.264641 
L 345.572664 -97.731184 
L 345.705345 -97.673609 
L 345.837569 -96.240323 
L 345.969341 -94.191615 
L 346.100662 -94.570827 
L 346.231538 -96.508534 
L 346.361969 -95.891176 
L 346.49196 -97.150035 
L 346.621513 -94.450457 
L 346.750631 -95.607908 
L 346.879318 -96.013098 
L 347.007576 -92.167391 
L 347.135407 -96.24134 
L 347.262815 -92.473022 
L 347.389803 -93.42585 
L 347.516373 -94.03368 
L 347.642528 -91.603788 
L 347.768271 -92.666182 
L 347.893604 -93.699422 
L 348.01853 -97.322372 
L 348.143052 -95.659316 
L 348.267172 -93.447186 
L 348.390894 -94.803412 
L 348.514218 -91.839275 
L 348.637149 -92.840994 
L 348.759688 -93.29182 
L 348.881838 -95.434862 
L 349.003602 -94.005149 
L 349.124981 -90.803737 
L 349.245979 -92.804697 
L 349.366597 -95.14963 
L 349.486839 -94.328908 
L 349.606706 -91.723739 
L 349.7262 -90.576004 
L 349.845325 -92.1906 
L 349.964082 -92.585137 
L 350.082474 -94.455131 
L 350.200502 -92.93257 
L 350.31817 -92.096221 
L 350.435478 -91.224006 
L 350.552431 -91.378216 
L 350.669028 -91.910625 
L 350.785274 -96.374994 
L 350.901169 -91.700457 
L 351.016717 -91.933078 
L 351.131918 -92.578098 
L 351.246776 -94.517092 
L 351.361291 -94.563934 
L 351.475467 -91.074689 
L 351.589305 -93.854285 
L 351.702808 -92.256368 
L 351.815976 -94.335757 
L 351.928813 -92.482781 
L 352.041319 -94.170803 
L 352.153498 -95.824058 
L 352.265351 -91.705386 
L 352.376879 -92.716362 
L 352.488085 -92.992262 
L 352.59897 -91.869456 
L 352.709537 -92.045433 
L 352.819787 -91.99594 
L 352.929722 -93.398214 
L 353.039344 -92.657502 
L 353.148655 -92.659241 
L 353.257655 -93.49214 
L 353.366348 -92.033439 
L 353.474735 -90.806527 
L 353.582817 -92.507766 
L 353.690597 -91.776726 
L 353.798075 -89.43155 
L 353.905254 -91.144326 
L 354.012135 -90.629781 
L 354.118721 -89.571276 
L 354.225011 -92.907832 
L 354.331009 -91.09678 
L 354.436716 -91.809812 
L 354.542133 -93.12407 
L 354.647263 -89.046563 
L 354.752105 -91.410957 
L 354.856663 -94.649954 
L 354.960938 -91.692968 
L 355.06493 -90.694863 
L 355.168643 -89.460732 
L 355.272076 -91.312617 
L 355.375232 -91.122961 
L 355.478113 -91.451884 
L 355.580719 -91.420478 
L 355.683052 -89.270575 
L 355.785114 -91.822927 
L 355.886905 -90.457688 
L 355.988428 -89.376669 
L 356.089684 -92.634493 
L 356.190675 -93.895464 
L 356.2914 -91.82018 
L 356.391863 -91.31286 
L 356.492065 -89.839022 
L 356.592006 -90.805121 
L 356.691688 -89.826888 
L 356.791112 -89.195472 
L 356.89028 -89.21398 
L 356.989194 -90.233653 
L 357.087853 -89.288932 
L 357.186261 -92.033852 
L 357.284417 -90.306146 
L 357.382323 -88.66363 
L 357.479981 -91.087196 
L 357.577392 -88.775205 
L 357.674557 -88.038441 
L 357.771477 -90.237283 
L 357.868154 -88.741818 
L 357.964588 -88.953152 
L 358.060781 -89.719958 
L 358.156734 -86.378854 
L 358.252449 -89.264446 
L 358.347926 -86.290867 
L 358.443167 -88.342442 
L 358.538172 -88.555441 
L 358.632944 -89.367416 
L 358.727483 -91.43716 
L 358.82179 -89.688296 
L 358.915866 -88.374609 
L 359.009713 -89.994987 
L 359.103332 -88.048889 
L 359.196723 -89.533095 
L 359.289889 -87.555435 
L 359.382829 -88.245021 
L 359.475545 -86.429884 
L 359.568039 -86.224016 
L 359.66031 -86.908912 
L 359.752361 -87.623694 
L 359.844192 -86.158904 
L 359.935805 -87.755834 
L 360.0272 -87.825985 
L 360.118378 -86.578212 
L 360.209341 -88.731845 
L 360.300089 -88.489974 
L 360.390624 -89.777044 
L 360.480946 -87.588551 
L 360.571057 -87.297588 
L 360.660957 -87.50381 
L 360.750648 -87.344381 
L 360.84013 -86.421492 
L 360.929404 -86.12084 
L 361.018472 -86.004095 
L 361.107334 -85.046549 
L 361.195991 -86.448032 
L 361.284445 -87.003147 
L 361.372695 -85.261017 
L 361.460744 -87.915168 
L 361.548591 -86.505819 
L 361.636239 -88.553245 
L 361.723687 -86.41324 
L 361.810937 -84.520274 
L 361.89799 -87.545237 
L 361.984846 -85.469492 
L 362.071507 -87.178751 
L 362.157972 -87.85868 
L 362.244244 -86.664141 
L 362.330323 -85.545736 
L 362.41621 -85.473097 
L 362.501905 -84.812063 
L 362.58741 -85.860472 
L 362.672726 -84.000154 
L 362.757852 -88.618028 
L 362.842791 -86.921211 
L 362.927543 -85.596348 
L 363.012108 -85.988194 
L 363.096488 -87.244168 
L 363.180684 -86.400631 
L 363.264695 -86.855434 
L 363.348524 -86.747294 
L 363.43217 -86.721458 
L 363.515635 -86.454799 
L 363.598919 -83.364277 
L 363.682023 -86.799404 
L 363.764948 -85.033888 
L 363.847695 -84.345607 
L 363.930264 -84.68294 
L 364.012657 -86.177248 
L 364.094873 -84.341184 
L 364.176914 -84.823814 
L 364.25878 -87.143436 
L 364.340473 -85.391317 
L 364.421993 -83.972954 
L 364.50334 -85.971497 
L 364.584516 -84.546607 
L 364.665521 -84.46498 
L 364.746355 -86.35604 
L 364.82702 -85.790956 
L 364.907517 -84.893549 
L 364.987845 -87.085539 
L 365.068006 -84.139512 
L 365.148 -82.272954 
L 365.227828 -87.07328 
L 365.307492 -84.198884 
L 365.38699 -83.291815 
L 365.466325 -85.987254 
L 365.545496 -84.889987 
L 365.624505 -88.231534 
L 365.703352 -83.759551 
L 365.782037 -84.368607 
L 365.860562 -84.818516 
L 365.938927 -85.263146 
L 366.017133 -83.928209 
L 366.09518 -83.070832 
L 366.173069 -85.632887 
L 366.250801 -85.029162 
L 366.328376 -84.138312 
L 366.405795 -86.744657 
L 366.483059 -84.37565 
L 366.560168 -80.430879 
L 366.637122 -84.23958 
L 366.713923 -82.877606 
L 366.790571 -85.922299 
L 366.867067 -83.268379 
L 366.94341 -83.724508 
L 367.019603 -84.571523 
L 367.095645 -81.238403 
L 367.171537 -83.052862 
L 367.24728 -83.331489 
L 367.322874 -84.087246 
L 367.398319 -80.380286 
L 367.473617 -81.449562 
L 367.548768 -82.22359 
L 367.623772 -83.607636 
L 367.698631 -84.222471 
L 367.773344 -83.86153 
L 367.847912 -81.311305 
L 367.922336 -84.55067 
L 367.996617 -80.411209 
L 368.070754 -85.093021 
L 368.144749 -82.975466 
L 368.218602 -81.68965 
L 368.292313 -83.47507 
L 368.365883 -82.401262 
L 368.439313 -83.671644 
L 368.512603 -83.832529 
L 368.585754 -83.358262 
L 368.658766 -82.60688 
L 368.731639 -83.812003 
L 368.804375 -83.310958 
L 368.876974 -83.213563 
L 368.949436 -83.880794 
L 369.021761 -83.220848 
L 369.093951 -83.645366 
L 369.166006 -83.055584 
L 369.237926 -81.399674 
L 369.309712 -81.963116 
L 369.381364 -84.128498 
L 369.452883 -81.163435 
L 369.52427 -83.309436 
L 369.595524 -81.15515 
L 369.666646 -82.554903 
L 369.737638 -83.549251 
L 369.808498 -82.29476 
L 369.879228 -83.232514 
L 369.949829 -80.841416 
L 370.0203 -84.753029 
L 370.090642 -80.75327 
L 370.160856 -82.229939 
L 370.230942 -84.29406 
L 370.300901 -81.868536 
L 370.370733 -84.085976 
L 370.440438 -81.957317 
L 370.510017 -80.778164 
L 370.579471 -79.64502 
L 370.648799 -81.674396 
L 370.718003 -82.221593 
L 370.787082 -80.221721 
L 370.856038 -81.448075 
L 370.92487 -78.517102 
L 370.993579 -81.124908 
L 371.062166 -81.466211 
L 371.130631 -79.142787 
L 371.198975 -82.194183 
L 371.267197 -79.285849 
L 371.335298 -79.80864 
L 371.403279 -81.408919 
L 371.47114 -82.731974 
L 371.538882 -80.958686 
L 371.606504 -80.971564 
L 371.674008 -79.47212 
L 371.741394 -81.136813 
L 371.808662 -81.488555 
L 371.875813 -80.910443 
L 371.942846 -82.807608 
L 372.009763 -80.187842 
L 372.076564 -79.42877 
L 372.143249 -79.276831 
L 372.209819 -80.160606 
L 372.276273 -80.639278 
L 372.342613 -81.389956 
L 372.408839 -81.208663 
L 372.474951 -80.182588 
L 372.54095 -78.771436 
L 372.606836 -75.929983 
L 372.672609 -80.398266 
L 372.73827 -80.889349 
L 372.803819 -81.233243 
L 372.869256 -77.904695 
L 372.934583 -78.648157 
L 372.999798 -81.552012 
L 373.064904 -79.51604 
L 373.129899 -78.416509 
L 373.194785 -80.279136 
L 373.259561 -79.560995 
L 373.324229 -77.95938 
L 373.388788 -79.808746 
L 373.453239 -78.736482 
L 373.517582 -79.739025 
L 373.581818 -78.606818 
L 373.581818 -81.989508 
L 373.581818 -81.989508 
L 373.517582 -83.04787 
L 373.453239 -82.295394 
L 373.388788 -82.871838 
L 373.324229 -81.825972 
L 373.259561 -83.139466 
L 373.194785 -83.73583 
L 373.129899 -82.714872 
L 373.064904 -82.700282 
L 372.999798 -85.213186 
L 372.934583 -82.23346 
L 372.869256 -82.10658 
L 372.803819 -86.034698 
L 372.73827 -85.916761 
L 372.672609 -83.881547 
L 372.606836 -81.066923 
L 372.54095 -83.015273 
L 372.474951 -84.00833 
L 372.408839 -83.982924 
L 372.342613 -84.652422 
L 372.276273 -83.650473 
L 372.209819 -83.352717 
L 372.143249 -84.104766 
L 372.076564 -82.781976 
L 372.009763 -83.739312 
L 371.942846 -85.514861 
L 371.875813 -84.67893 
L 371.808662 -85.023765 
L 371.741394 -85.492683 
L 371.674008 -83.295484 
L 371.606504 -84.481511 
L 371.538882 -83.855704 
L 371.47114 -86.165131 
L 371.403279 -84.889421 
L 371.335298 -83.756541 
L 371.267197 -82.655644 
L 371.198975 -86.507796 
L 371.130631 -82.718865 
L 371.062166 -84.671274 
L 370.993579 -85.051374 
L 370.92487 -83.080469 
L 370.856038 -85.759443 
L 370.787082 -83.357821 
L 370.718003 -85.066809 
L 370.648799 -85.837741 
L 370.579471 -83.672533 
L 370.510017 -83.634295 
L 370.440438 -85.469067 
L 370.370733 -87.804519 
L 370.300901 -84.662356 
L 370.230942 -88.382578 
L 370.160856 -86.088629 
L 370.090642 -84.321223 
L 370.0203 -87.943399 
L 369.949829 -84.260483 
L 369.879228 -85.983823 
L 369.808498 -85.809543 
L 369.737638 -86.960354 
L 369.666646 -86.615279 
L 369.595524 -84.696888 
L 369.52427 -85.997575 
L 369.452883 -84.458033 
L 369.381364 -87.226139 
L 369.309712 -85.108821 
L 369.237926 -84.681082 
L 369.166006 -86.254824 
L 369.093951 -87.122278 
L 369.021761 -87.41338 
L 368.949436 -87.701568 
L 368.876974 -87.57373 
L 368.804375 -86.36117 
L 368.731639 -86.938479 
L 368.658766 -86.248127 
L 368.585754 -87.671571 
L 368.512603 -87.413508 
L 368.439313 -86.977924 
L 368.365883 -87.05652 
L 368.292313 -86.616289 
L 368.218602 -86.093286 
L 368.144749 -85.852156 
L 368.070754 -88.407595 
L 367.996617 -85.481232 
L 367.922336 -87.616663 
L 367.847912 -85.958891 
L 367.773344 -87.954073 
L 367.698631 -87.410903 
L 367.623772 -87.574314 
L 367.548768 -85.664156 
L 367.473617 -86.235124 
L 367.398319 -84.90314 
L 367.322874 -86.527431 
L 367.24728 -86.330487 
L 367.171537 -87.60337 
L 367.095645 -85.533624 
L 367.019603 -88.502338 
L 366.94341 -86.55796 
L 366.867067 -87.288305 
L 366.790571 -89.231722 
L 366.713923 -86.2105 
L 366.637122 -87.423204 
L 366.560168 -84.529414 
L 366.483059 -87.164436 
L 366.405795 -89.150391 
L 366.328376 -88.40232 
L 366.250801 -89.779718 
L 366.173069 -88.909515 
L 366.09518 -86.21379 
L 366.017133 -87.438961 
L 365.938927 -88.882444 
L 365.860562 -88.449135 
L 365.782037 -87.41436 
L 365.703352 -86.858811 
L 365.624505 -91.713548 
L 365.545496 -87.789126 
L 365.466325 -88.98193 
L 365.38699 -86.887788 
L 365.307492 -86.460363 
L 365.227828 -90.46391 
L 365.148 -85.646813 
L 365.068006 -87.669142 
L 364.987845 -90.256969 
L 364.907517 -88.204178 
L 364.82702 -88.983437 
L 364.746355 -89.506319 
L 364.665521 -87.040013 
L 364.584516 -87.63604 
L 364.50334 -88.861059 
L 364.421993 -87.402944 
L 364.340473 -88.058166 
L 364.25878 -90.83681 
L 364.176914 -88.359703 
L 364.094873 -87.918331 
L 364.012657 -89.59561 
L 363.930264 -87.974199 
L 363.847695 -88.587462 
L 363.764948 -88.763795 
L 363.682023 -90.215551 
L 363.598919 -87.700651 
L 363.515635 -89.206334 
L 363.43217 -90.302224 
L 363.348524 -89.956199 
L 363.264695 -90.572311 
L 363.180684 -89.488747 
L 363.096488 -90.813375 
L 363.012108 -90.420922 
L 362.927543 -89.280888 
L 362.842791 -89.145716 
L 362.757852 -91.302343 
L 362.672726 -87.284053 
L 362.58741 -89.823727 
L 362.501905 -90.638882 
L 362.41621 -89.349824 
L 362.330323 -88.956535 
L 362.244244 -90.180408 
L 362.157972 -91.770945 
L 362.071507 -90.942237 
L 361.984846 -88.778906 
L 361.89799 -91.151715 
L 361.810937 -89.189411 
L 361.723687 -89.25497 
L 361.636239 -92.037086 
L 361.548591 -89.882096 
L 361.460744 -92.691707 
L 361.372695 -88.334817 
L 361.284445 -91.036324 
L 361.195991 -89.226078 
L 361.107334 -88.818222 
L 361.018472 -90.057715 
L 360.929404 -89.805733 
L 360.84013 -89.875879 
L 360.750648 -90.856063 
L 360.660957 -90.284159 
L 360.571057 -90.742471 
L 360.480946 -91.114294 
L 360.390624 -93.042195 
L 360.300089 -92.010199 
L 360.209341 -91.431808 
L 360.118378 -90.03271 
L 360.0272 -91.362754 
L 359.935805 -91.06457 
L 359.844192 -90.520546 
L 359.752361 -91.169917 
L 359.66031 -91.079523 
L 359.568039 -90.196686 
L 359.475545 -89.607555 
L 359.382829 -91.254814 
L 359.289889 -90.846178 
L 359.196723 -92.159014 
L 359.103332 -91.147924 
L 359.009713 -92.307828 
L 358.915866 -91.64301 
L 358.82179 -93.382615 
L 358.727483 -95.208131 
L 358.632944 -92.225318 
L 358.538172 -92.682992 
L 358.443167 -91.618097 
L 358.347926 -90.563496 
L 358.252449 -91.640088 
L 358.156734 -90.052756 
L 358.060781 -92.898967 
L 357.964588 -92.23101 
L 357.868154 -92.19092 
L 357.771477 -93.923778 
L 357.674557 -91.478316 
L 357.577392 -91.832748 
L 357.479981 -93.579667 
L 357.382323 -92.767702 
L 357.284417 -92.999741 
L 357.186261 -95.201402 
L 357.087853 -92.689904 
L 356.989194 -93.867198 
L 356.89028 -92.255297 
L 356.791112 -92.401 
L 356.691688 -92.967449 
L 356.592006 -94.984229 
L 356.492065 -92.826241 
L 356.391863 -95.271762 
L 356.2914 -95.228334 
L 356.190675 -97.81433 
L 356.089684 -95.605481 
L 355.988428 -92.530021 
L 355.886905 -93.298892 
L 355.785114 -95.301577 
L 355.683052 -92.896873 
L 355.580719 -93.606065 
L 355.478113 -95.098342 
L 355.375232 -95.652971 
L 355.272076 -94.461335 
L 355.168643 -93.50019 
L 355.06493 -94.102642 
L 354.960938 -94.801935 
L 354.856663 -98.23034 
L 354.752105 -94.564807 
L 354.647263 -92.382989 
L 354.542133 -96.134251 
L 354.436716 -95.412602 
L 354.331009 -94.589299 
L 354.225011 -95.708098 
L 354.118721 -93.273043 
L 354.012135 -94.057127 
L 353.905254 -94.776957 
L 353.798075 -93.722382 
L 353.690597 -95.57063 
L 353.582817 -96.283121 
L 353.474735 -94.644191 
L 353.366348 -95.870123 
L 353.257655 -96.850145 
L 353.148655 -96.050648 
L 353.039344 -95.509736 
L 352.929722 -96.448123 
L 352.819787 -94.760002 
L 352.709537 -95.995362 
L 352.59897 -94.507683 
L 352.488085 -96.61179 
L 352.376879 -96.068146 
L 352.265351 -95.103157 
L 352.153498 -99.405736 
L 352.041319 -96.935521 
L 351.928813 -95.672043 
L 351.815976 -97.187747 
L 351.702808 -95.489941 
L 351.589305 -96.276172 
L 351.475467 -95.452006 
L 351.361291 -98.023399 
L 351.246776 -97.237794 
L 351.131918 -95.448727 
L 351.016717 -95.590306 
L 350.901169 -94.890241 
L 350.785274 -99.818647 
L 350.669028 -96.013913 
L 350.552431 -95.074976 
L 350.435478 -94.352258 
L 350.31817 -95.255211 
L 350.200502 -96.453841 
L 350.082474 -97.277538 
L 349.964082 -96.418996 
L 349.845325 -95.839538 
L 349.7262 -94.695689 
L 349.606706 -94.981804 
L 349.486839 -97.830859 
L 349.366597 -97.800694 
L 349.245979 -95.858084 
L 349.124981 -94.734965 
L 349.003602 -97.595644 
L 348.881838 -98.621325 
L 348.759688 -97.069335 
L 348.637149 -95.918151 
L 348.514218 -96.276418 
L 348.390894 -97.151146 
L 348.267172 -96.700493 
L 348.143052 -98.497622 
L 348.01853 -99.499542 
L 347.893604 -97.153616 
L 347.768271 -96.956124 
L 347.642528 -95.249158 
L 347.516373 -97.496942 
L 347.389803 -96.82158 
L 347.262815 -96.532208 
L 347.135407 -99.437928 
L 347.007576 -95.766314 
L 346.879318 -99.210111 
L 346.750631 -99.449055 
L 346.621513 -98.179861 
L 346.49196 -100.209017 
L 346.361969 -98.712514 
L 346.231538 -99.859598 
L 346.100662 -97.93934 
L 345.969341 -98.104165 
L 345.837569 -98.965211 
L 345.705345 -101.033254 
L 345.572664 -100.999672 
L 345.439525 -99.695014 
L 345.305923 -98.926668 
L 345.171856 -99.741362 
L 345.03732 -101.266006 
L 344.902312 -99.171731 
L 344.766829 -100.406522 
L 344.630867 -101.501382 
L 344.494422 -100.289437 
L 344.357493 -98.717331 
L 344.220074 -100.140266 
L 344.082162 -98.989143 
L 343.943755 -97.779128 
L 343.804847 -98.934435 
L 343.665437 -98.750235 
L 343.52552 -98.786016 
L 343.385092 -99.560822 
L 343.244149 -99.185438 
L 343.102688 -98.502992 
L 342.960706 -100.084847 
L 342.818197 -101.315406 
L 342.675159 -99.289451 
L 342.531587 -100.561637 
L 342.387477 -100.715513 
L 342.242826 -100.276581 
L 342.097629 -103.255475 
L 341.951881 -98.431599 
L 341.80558 -102.223449 
L 341.65872 -101.512659 
L 341.511297 -101.243083 
L 341.363308 -101.267838 
L 341.214747 -101.272156 
L 341.06561 -102.0067 
L 340.915893 -105.004765 
L 340.765591 -102.979786 
L 340.614699 -104.901969 
L 340.463214 -102.276107 
L 340.31113 -102.382746 
L 340.158442 -102.073848 
L 340.005146 -101.674684 
L 339.851237 -103.098854 
L 339.69671 -102.967326 
L 339.541559 -102.775571 
L 339.385781 -103.437236 
L 339.229369 -105.921436 
L 339.072319 -102.060163 
L 338.914625 -105.536209 
L 338.756282 -102.419585 
L 338.597285 -101.57655 
L 338.437628 -105.928029 
L 338.277306 -104.738062 
L 338.116313 -105.285636 
L 337.954644 -102.736826 
L 337.792292 -104.755104 
L 337.629253 -103.947108 
L 337.46552 -103.928066 
L 337.301087 -104.900248 
L 337.135948 -102.350635 
L 336.970098 -104.088816 
L 336.803529 -104.590495 
L 336.636236 -103.862344 
L 336.468213 -107.41238 
L 336.299453 -109.813406 
L 336.12995 -107.647486 
L 335.959696 -105.550294 
L 335.788686 -106.638854 
L 335.616912 -103.712129 
L 335.444368 -108.494798 
L 335.271047 -107.687843 
L 335.096941 -105.654952 
L 334.922044 -107.492494 
L 334.746349 -106.235114 
L 334.569847 -107.443491 
L 334.392533 -107.855082 
L 334.214397 -108.833538 
L 334.035433 -105.962337 
L 333.855632 -110.768184 
L 333.674987 -106.860873 
L 333.493491 -109.052904 
L 333.311134 -109.188527 
L 333.127908 -106.973205 
L 332.943806 -107.205869 
L 332.758819 -107.848972 
L 332.572938 -109.222154 
L 332.386155 -109.259786 
L 332.198461 -107.57867 
L 332.009847 -111.514675 
L 331.820303 -108.498281 
L 331.629821 -107.094873 
L 331.438392 -107.815544 
L 331.246005 -107.73402 
L 331.052652 -108.300923 
L 330.858322 -109.613263 
L 330.663006 -108.980997 
L 330.466693 -108.122612 
L 330.269373 -108.663889 
L 330.071036 -106.280053 
L 329.871672 -109.630419 
L 329.671269 -106.26451 
L 329.469817 -110.796744 
L 329.267305 -108.64247 
L 329.063721 -110.171724 
L 328.859054 -108.866874 
L 328.653293 -109.369414 
L 328.446426 -108.375882 
L 328.23844 -108.647787 
L 328.029324 -107.696362 
L 327.819065 -112.754097 
L 327.607651 -111.593974 
L 327.395069 -111.579853 
L 327.181306 -110.353529 
L 326.966349 -111.640366 
L 326.750184 -111.167262 
L 326.532798 -112.050191 
L 326.314177 -110.115578 
L 326.094306 -110.937582 
L 325.873172 -111.484454 
L 325.650759 -111.89457 
L 325.427054 -111.727779 
L 325.20204 -113.302015 
L 324.975703 -113.906008 
L 324.748026 -114.046211 
L 324.518994 -114.803724 
L 324.288591 -112.772469 
L 324.056799 -115.446562 
L 323.823603 -114.159208 
L 323.588985 -113.600865 
L 323.352928 -112.317596 
L 323.115413 -114.231416 
L 322.876423 -117.819581 
L 322.635939 -117.590489 
L 322.393943 -113.06148 
L 322.150416 -115.653429 
L 321.905337 -113.898318 
L 321.658687 -113.424437 
L 321.410446 -114.216029 
L 321.160593 -112.333009 
L 320.909107 -115.516992 
L 320.655966 -113.714582 
L 320.401149 -115.867864 
L 320.144633 -116.009742 
L 319.886395 -115.726596 
L 319.626413 -115.416952 
L 319.364662 -116.330313 
L 319.101118 -114.736858 
L 318.835757 -115.215147 
L 318.568552 -116.165252 
L 318.29948 -117.710476 
L 318.028512 -116.883214 
L 317.755623 -119.419335 
L 317.480784 -120.416505 
L 317.203968 -120.373507 
L 316.925146 -121.312783 
L 316.644289 -118.773064 
L 316.361367 -121.754527 
L 316.076349 -120.235564 
L 315.789204 -119.636196 
L 315.4999 -123.65842 
L 315.208404 -118.758013 
L 314.914683 -118.335478 
L 314.618703 -120.752942 
L 314.320428 -120.885889 
L 314.019823 -119.08886 
L 313.716851 -119.437442 
L 313.411475 -119.121398 
L 313.103655 -121.176349 
L 312.793353 -120.047818 
L 312.480528 -121.444639 
L 312.165139 -118.388207 
L 311.847144 -120.515052 
L 311.526498 -120.339311 
L 311.203158 -120.784448 
L 310.877078 -120.786143 
L 310.54821 -122.530885 
L 310.216508 -123.999159 
L 309.881921 -122.547754 
L 309.544399 -124.268459 
L 309.20389 -122.677254 
L 308.860341 -122.07283 
L 308.513697 -124.530888 
L 308.163901 -124.847774 
L 307.810896 -121.887017 
L 307.454623 -125.670409 
L 307.09502 -125.511708 
L 306.732024 -125.171689 
L 306.365572 -125.971378 
L 305.995595 -123.366892 
L 305.622027 -124.172752 
L 305.244796 -124.36144 
L 304.86383 -125.318107 
L 304.479054 -125.42847 
L 304.090392 -124.689049 
L 303.697764 -127.304754 
L 303.301087 -125.63801 
L 302.900279 -127.723762 
L 302.495252 -128.106732 
L 302.085915 -126.901182 
L 301.672178 -128.107175 
L 301.253943 -130.461675 
L 300.831111 -127.295803 
L 300.403582 -128.1555 
L 299.971249 -131.499134 
L 299.534003 -130.598716 
L 299.091731 -130.643701 
L 298.644316 -128.006556 
L 298.191637 -130.826218 
L 297.733569 -131.158783 
L 297.269982 -126.290511 
L 296.800742 -129.252633 
L 296.325708 -129.45201 
L 295.844736 -132.944854 
L 295.357676 -132.209817 
L 294.864371 -129.573613 
L 294.364659 -130.225971 
L 293.858373 -131.759184 
L 293.345335 -133.255276 
L 292.825364 -133.442946 
L 292.29827 -132.010607 
L 291.763856 -131.629171 
L 291.221914 -134.329252 
L 290.672229 -133.141855 
L 290.114578 -135.188859 
L 289.548726 -132.914791 
L 288.974428 -134.359443 
L 288.391428 -134.903714 
L 287.799459 -133.384864 
L 287.19824 -137.011474 
L 286.587477 -138.785561 
L 285.966863 -140.993284 
L 285.336074 -138.890405 
L 284.694772 -141.279266 
L 284.0426 -137.782806 
L 283.379182 -139.298709 
L 282.704126 -139.987986 
L 282.017014 -138.909529 
L 281.317408 -142.09701 
L 280.604846 -143.048728 
L 279.878839 -142.900014 
L 279.138869 -143.536488 
L 278.384389 -143.747351 
L 277.614818 -143.284306 
L 276.829541 -143.855718 
L 276.027903 -145.625681 
L 275.209207 -144.232099 
L 274.372712 -145.759213 
L 273.517627 -147.007064 
L 272.643106 -145.898687 
L 271.748246 -145.330341 
L 270.832078 -148.510859 
L 269.893562 -144.824752 
L 268.931581 -150.78541 
L 267.944931 -147.770028 
L 266.932313 -151.239543 
L 265.892324 -151.976012 
L 264.823443 -150.312466 
L 263.724018 -151.815967 
L 262.592253 -153.826793 
L 261.426186 -154.632224 
L 260.223675 -155.815263 
L 258.982365 -157.635846 
L 257.699672 -154.327847 
L 256.372739 -155.896081 
L 254.998405 -157.817736 
L 253.573159 -158.546164 
L 252.093082 -157.720431 
L 250.553787 -158.037851 
L 248.950336 -160.573534 
L 247.277149 -157.652401 
L 245.527882 -160.876387 
L 243.695286 -162.93782 
L 241.771022 -162.46675 
L 239.745437 -163.596379 
L 237.607262 -163.880559 
L 235.343241 -168.486554 
L 232.93763 -168.403262 
L 230.371529 -170.254884 
L 227.621985 -170.721536 
L 224.660736 -173.726979 
L 221.452441 -176.046065 
L 217.952098 -177.176024 
L 214.101162 -179.343466 
L 209.821505 -180.944865 
L 205.005572 -184.254443 
L 199.499445 -188.293548 
L 193.071664 -190.463143 
L 185.350408 -196.135247 
L 175.68052 -198.994359 
L 162.733995 -207.886622 
L 153.761336 -214.337445 
L 153.370701 -212.641911 
L 152.976059 -213.111965 
L 152.577327 -213.505036 
L 152.17442 -213.90922 
L 151.76725 -214.493765 
L 151.355725 -212.554618 
L 150.93975 -212.291128 
L 150.51923 -213.841114 
L 150.094063 -211.189253 
L 149.664145 -213.823653 
L 149.229369 -213.658978 
L 148.789624 -214.25152 
L 148.344796 -213.492786 
L 147.894764 -214.427317 
L 147.439407 -214.329069 
L 146.978596 -213.493695 
L 146.512199 -214.449585 
L 146.04008 -213.755726 
L 145.562096 -215.460894 
L 145.078099 -214.159033 
L 144.587936 -215.617691 
L 144.091448 -214.080727 
L 143.588471 -215.483407 
L 143.078831 -212.197264 
L 142.56235 -216.642385 
L 142.038842 -214.770682 
L 141.508113 -215.690474 
L 140.969961 -214.518453 
L 140.424175 -215.721225 
L 139.870536 -216.551088 
L 139.308814 -215.212538 
L 138.738771 -216.77976 
L 138.160155 -217.358987 
L 137.572704 -214.991561 
L 136.976146 -214.968261 
L 136.370192 -216.241204 
L 135.754543 -216.359193 
L 135.128883 -215.953403 
L 134.492881 -216.177663 
L 133.84619 -217.658662 
L 133.188443 -216.41875 
L 132.519256 -217.134296 
L 131.838225 -216.983935 
L 131.144923 -216.847966 
L 130.438899 -218.583012 
L 129.719677 -218.468349 
L 128.986755 -218.281035 
L 128.2396 -217.35102 
L 127.47765 -219.428089 
L 126.700305 -218.533342 
L 125.906932 -219.050123 
L 125.096854 -221.436992 
L 124.269355 -221.487902 
L 123.423667 -220.542738 
L 122.558973 -221.937914 
L 121.6744 -221.505826 
L 120.769011 -222.367672 
L 119.841804 -223.322427 
L 118.8917 -223.726812 
L 117.91754 -223.017915 
L 116.918075 -225.143373 
L 115.891954 -225.426461 
L 114.837717 -225.915338 
L 113.753779 -224.6188 
L 112.638419 -226.584814 
L 111.489759 -227.192823 
L 110.30575 -225.930622 
L 109.084148 -227.749393 
L 107.822486 -227.777149 
L 106.518047 -228.932404 
L 105.16783 -229.89076 
L 103.768503 -230.562109 
L 102.316359 -230.614463 
L 100.807254 -231.794074 
L 99.236536 -233.044552 
L 97.598959 -232.695087 
L 95.888578 -233.66414 
L 94.098615 -235.319736 
L 92.221304 -235.595423 
L 90.247679 -235.367046 
L 88.167321 -236.947774 
L 85.968023 -238.815916 
L 83.635354 -239.552236 
L 81.15209 -240.240575 
L 78.497434 -241.089095 
L 75.645963 -241.389686 
L 72.56614 -243.398179 
L 69.218182 -243.556364 
z
" style="stroke: #ff0000; stroke-opacity: 0.2"/>
    </defs>
    <g clip-path="url(#p639e4cd74b)">
     <use xlink:href="#m643eb1e484" x="0" y="288" style="fill: #ff0000; fill-opacity: 0.2; stroke: #ff0000; stroke-opacity: 0.2"/>
    </g>
   </g>
   <g id="matplotlib.axis_1">
    <g id="xtick_1">
     <g id="line2d_1">
      <defs>
       <path id="md98d5fe85d" d="M 0 0 
L 0 3.5 
" style="stroke: #000000; stroke-width: 0.8"/>
      </defs>
      <g>
       <use xlink:href="#md98d5fe85d" x="65.550908" y="252" style="stroke: #000000; stroke-width: 0.8"/>
      </g>
     </g>
     <g id="text_1">
      <!-- $\mathdefault{10^{1}}$ -->
      <g transform="translate(56.750908 266.598437)scale(0.1 -0.1)">
       <defs>
        <path id="DejaVuSans-31" d="M 794 531 
L 1825 531 
L 1825 4091 
L 703 3866 
L 703 4441 
L 1819 4666 
L 2450 4666 
L 2450 531 
L 3481 531 
L 3481 0 
L 794 0 
L 794 531 
z
" transform="scale(0.015625)"/>
        <path id="DejaVuSans-30" d="M 2034 4250 
Q 1547 4250 1301 3770 
Q 1056 3291 1056 2328 
Q 1056 1369 1301 889 
Q 1547 409 2034 409 
Q 2525 409 2770 889 
Q 3016 1369 3016 2328 
Q 3016 3291 2770 3770 
Q 2525 4250 2034 4250 
z
M 2034 4750 
Q 2819 4750 3233 4129 
Q 3647 3509 3647 2328 
Q 3647 1150 3233 529 
Q 2819 -91 2034 -91 
Q 1250 -91 836 529 
Q 422 1150 422 2328 
Q 422 3509 836 4129 
Q 1250 4750 2034 4750 
z
" transform="scale(0.015625)"/>
       </defs>
       <use xlink:href="#DejaVuSans-31" transform="translate(0 0.684375)"/>
       <use xlink:href="#DejaVuSans-30" transform="translate(63.623047 0.684375)"/>
       <use xlink:href="#DejaVuSans-31" transform="translate(128.203125 38.965625)scale(0.7)"/>
      </g>
     </g>
    </g>
    <g id="xtick_2">
     <g id="line2d_2">
      <g>
       <use xlink:href="#md98d5fe85d" x="154.148045" y="252" style="stroke: #000000; stroke-width: 0.8"/>
      </g>
     </g>
     <g id="text_2">
      <!-- $\mathdefault{10^{2}}$ -->
      <g transform="translate(145.348045 266.598437)scale(0.1 -0.1)">
       <defs>
        <path id="DejaVuSans-32" d="M 1228 531 
L 3431 531 
L 3431 0 
L 469 0 
L 469 531 
Q 828 903 1448 1529 
Q 2069 2156 2228 2338 
Q 2531 2678 2651 2914 
Q 2772 3150 2772 3378 
Q 2772 3750 2511 3984 
Q 2250 4219 1831 4219 
Q 1534 4219 1204 4116 
Q 875 4013 500 3803 
L 500 4441 
Q 881 4594 1212 4672 
Q 1544 4750 1819 4750 
Q 2544 4750 2975 4387 
Q 3406 4025 3406 3419 
Q 3406 3131 3298 2873 
Q 3191 2616 2906 2266 
Q 2828 2175 2409 1742 
Q 1991 1309 1228 531 
z
" transform="scale(0.015625)"/>
       </defs>
       <use xlink:href="#DejaVuSans-31" transform="translate(0 0.765625)"/>
       <use xlink:href="#DejaVuSans-30" transform="translate(63.623047 0.765625)"/>
       <use xlink:href="#DejaVuSans-32" transform="translate(128.203125 39.046875)scale(0.7)"/>
      </g>
     </g>
    </g>
    <g id="xtick_3">
     <g id="line2d_3">
      <g>
       <use xlink:href="#md98d5fe85d" x="242.745182" y="252" style="stroke: #000000; stroke-width: 0.8"/>
      </g>
     </g>
     <g id="text_3">
      <!-- $\mathdefault{10^{3}}$ -->
      <g transform="translate(233.945182 266.598437)scale(0.1 -0.1)">
       <defs>
        <path id="DejaVuSans-33" d="M 2597 2516 
Q 3050 2419 3304 2112 
Q 3559 1806 3559 1356 
Q 3559 666 3084 287 
Q 2609 -91 1734 -91 
Q 1441 -91 1130 -33 
Q 819 25 488 141 
L 488 750 
Q 750 597 1062 519 
Q 1375 441 1716 441 
Q 2309 441 2620 675 
Q 2931 909 2931 1356 
Q 2931 1769 2642 2001 
Q 2353 2234 1838 2234 
L 1294 2234 
L 1294 2753 
L 1863 2753 
Q 2328 2753 2575 2939 
Q 2822 3125 2822 3475 
Q 2822 3834 2567 4026 
Q 2313 4219 1838 4219 
Q 1578 4219 1281 4162 
Q 984 4106 628 3988 
L 628 4550 
Q 988 4650 1302 4700 
Q 1616 4750 1894 4750 
Q 2613 4750 3031 4423 
Q 3450 4097 3450 3541 
Q 3450 3153 3228 2886 
Q 3006 2619 2597 2516 
z
" transform="scale(0.015625)"/>
       </defs>
       <use xlink:href="#DejaVuSans-31" transform="translate(0 0.765625)"/>
       <use xlink:href="#DejaVuSans-30" transform="translate(63.623047 0.765625)"/>
       <use xlink:href="#DejaVuSans-33" transform="translate(128.203125 39.046875)scale(0.7)"/>
      </g>
     </g>
    </g>
    <g id="xtick_4">
     <g id="line2d_4">
      <g>
       <use xlink:href="#md98d5fe85d" x="331.342319" y="252" style="stroke: #000000; stroke-width: 0.8"/>
      </g>
     </g>
     <g id="text_4">
      <!-- $\mathdefault{10^{4}}$ -->
      <g transform="translate(322.542319 266.598437)scale(0.1 -0.1)">
       <defs>
        <path id="DejaVuSans-34" d="M 2419 4116 
L 825 1625 
L 2419 1625 
L 2419 4116 
z
M 2253 4666 
L 3047 4666 
L 3047 1625 
L 3713 1625 
L 3713 1100 
L 3047 1100 
L 3047 0 
L 2419 0 
L 2419 1100 
L 313 1100 
L 313 1709 
L 2253 4666 
z
" transform="scale(0.015625)"/>
       </defs>
       <use xlink:href="#DejaVuSans-31" transform="translate(0 0.684375)"/>
       <use xlink:href="#DejaVuSans-30" transform="translate(63.623047 0.684375)"/>
       <use xlink:href="#DejaVuSans-34" transform="translate(128.203125 38.965625)scale(0.7)"/>
      </g>
     </g>
    </g>
    <g id="xtick_5">
     <g id="line2d_5">
      <defs>
       <path id="mefe102b832" d="M 0 0 
L 0 2 
" style="stroke: #000000; stroke-width: 0.6"/>
      </defs>
      <g>
       <use xlink:href="#mefe102b832" x="56.964959" y="252" style="stroke: #000000; stroke-width: 0.6"/>
      </g>
     </g>
    </g>
    <g id="xtick_6">
     <g id="line2d_6">
      <g>
       <use xlink:href="#mefe102b832" x="61.496926" y="252" style="stroke: #000000; stroke-width: 0.6"/>
      </g>
     </g>
    </g>
    <g id="xtick_7">
     <g id="line2d_7">
      <g>
       <use xlink:href="#mefe102b832" x="92.221304" y="252" style="stroke: #000000; stroke-width: 0.6"/>
      </g>
     </g>
    </g>
    <g id="xtick_8">
     <g id="line2d_8">
      <g>
       <use xlink:href="#mefe102b832" x="107.822486" y="252" style="stroke: #000000; stroke-width: 0.6"/>
      </g>
     </g>
    </g>
    <g id="xtick_9">
     <g id="line2d_9">
      <g>
       <use xlink:href="#mefe102b832" x="118.8917" y="252" style="stroke: #000000; stroke-width: 0.6"/>
      </g>
     </g>
    </g>
    <g id="xtick_10">
     <g id="line2d_10">
      <g>
       <use xlink:href="#mefe102b832" x="127.47765" y="252" style="stroke: #000000; stroke-width: 0.6"/>
      </g>
     </g>
    </g>
    <g id="xtick_11">
     <g id="line2d_11">
      <g>
       <use xlink:href="#mefe102b832" x="134.492881" y="252" style="stroke: #000000; stroke-width: 0.6"/>
      </g>
     </g>
    </g>
    <g id="xtick_12">
     <g id="line2d_12">
      <g>
       <use xlink:href="#mefe102b832" x="140.424175" y="252" style="stroke: #000000; stroke-width: 0.6"/>
      </g>
     </g>
    </g>
    <g id="xtick_13">
     <g id="line2d_13">
      <g>
       <use xlink:href="#mefe102b832" x="145.562096" y="252" style="stroke: #000000; stroke-width: 0.6"/>
      </g>
     </g>
    </g>
    <g id="xtick_14">
     <g id="line2d_14">
      <g>
       <use xlink:href="#mefe102b832" x="150.094063" y="252" style="stroke: #000000; stroke-width: 0.6"/>
      </g>
     </g>
    </g>
    <g id="xtick_15">
     <g id="line2d_15">
      <g>
       <use xlink:href="#mefe102b832" x="180.818441" y="252" style="stroke: #000000; stroke-width: 0.6"/>
      </g>
     </g>
    </g>
    <g id="xtick_16">
     <g id="line2d_16">
      <g>
       <use xlink:href="#mefe102b832" x="196.419622" y="252" style="stroke: #000000; stroke-width: 0.6"/>
      </g>
     </g>
    </g>
    <g id="xtick_17">
     <g id="line2d_17">
      <g>
       <use xlink:href="#mefe102b832" x="207.488837" y="252" style="stroke: #000000; stroke-width: 0.6"/>
      </g>
     </g>
    </g>
    <g id="xtick_18">
     <g id="line2d_18">
      <g>
       <use xlink:href="#mefe102b832" x="216.074786" y="252" style="stroke: #000000; stroke-width: 0.6"/>
      </g>
     </g>
    </g>
    <g id="xtick_19">
     <g id="line2d_19">
      <g>
       <use xlink:href="#mefe102b832" x="223.090018" y="252" style="stroke: #000000; stroke-width: 0.6"/>
      </g>
     </g>
    </g>
    <g id="xtick_20">
     <g id="line2d_20">
      <g>
       <use xlink:href="#mefe102b832" x="229.021312" y="252" style="stroke: #000000; stroke-width: 0.6"/>
      </g>
     </g>
    </g>
    <g id="xtick_21">
     <g id="line2d_21">
      <g>
       <use xlink:href="#mefe102b832" x="234.159232" y="252" style="stroke: #000000; stroke-width: 0.6"/>
      </g>
     </g>
    </g>
    <g id="xtick_22">
     <g id="line2d_22">
      <g>
       <use xlink:href="#mefe102b832" x="238.691199" y="252" style="stroke: #000000; stroke-width: 0.6"/>
      </g>
     </g>
    </g>
    <g id="xtick_23">
     <g id="line2d_23">
      <g>
       <use xlink:href="#mefe102b832" x="269.415578" y="252" style="stroke: #000000; stroke-width: 0.6"/>
      </g>
     </g>
    </g>
    <g id="xtick_24">
     <g id="line2d_24">
      <g>
       <use xlink:href="#mefe102b832" x="285.016759" y="252" style="stroke: #000000; stroke-width: 0.6"/>
      </g>
     </g>
    </g>
    <g id="xtick_25">
     <g id="line2d_25">
      <g>
       <use xlink:href="#mefe102b832" x="296.085973" y="252" style="stroke: #000000; stroke-width: 0.6"/>
      </g>
     </g>
    </g>
    <g id="xtick_26">
     <g id="line2d_26">
      <g>
       <use xlink:href="#mefe102b832" x="304.671923" y="252" style="stroke: #000000; stroke-width: 0.6"/>
      </g>
     </g>
    </g>
    <g id="xtick_27">
     <g id="line2d_27">
      <g>
       <use xlink:href="#mefe102b832" x="311.687155" y="252" style="stroke: #000000; stroke-width: 0.6"/>
      </g>
     </g>
    </g>
    <g id="xtick_28">
     <g id="line2d_28">
      <g>
       <use xlink:href="#mefe102b832" x="317.618449" y="252" style="stroke: #000000; stroke-width: 0.6"/>
      </g>
     </g>
    </g>
    <g id="xtick_29">
     <g id="line2d_29">
      <g>
       <use xlink:href="#mefe102b832" x="322.756369" y="252" style="stroke: #000000; stroke-width: 0.6"/>
      </g>
     </g>
    </g>
    <g id="xtick_30">
     <g id="line2d_30">
      <g>
       <use xlink:href="#mefe102b832" x="327.288336" y="252" style="stroke: #000000; stroke-width: 0.6"/>
      </g>
     </g>
    </g>
    <g id="xtick_31">
     <g id="line2d_31">
      <g>
       <use xlink:href="#mefe102b832" x="358.012715" y="252" style="stroke: #000000; stroke-width: 0.6"/>
      </g>
     </g>
    </g>
    <g id="xtick_32">
     <g id="line2d_32">
      <g>
       <use xlink:href="#mefe102b832" x="373.613896" y="252" style="stroke: #000000; stroke-width: 0.6"/>
      </g>
     </g>
    </g>
    <g id="xtick_33">
     <g id="line2d_33">
      <g>
       <use xlink:href="#mefe102b832" x="384.68311" y="252" style="stroke: #000000; stroke-width: 0.6"/>
      </g>
     </g>
    </g>
    <g id="text_5">
     <!-- Resources -->
     <g transform="translate(195.867969 280.276563)scale(0.1 -0.1)">
      <defs>
       <path id="DejaVuSans-52" d="M 2841 2188 
Q 3044 2119 3236 1894 
Q 3428 1669 3622 1275 
L 4263 0 
L 3584 0 
L 2988 1197 
Q 2756 1666 2539 1819 
Q 2322 1972 1947 1972 
L 1259 1972 
L 1259 0 
L 628 0 
L 628 4666 
L 2053 4666 
Q 2853 4666 3247 4331 
Q 3641 3997 3641 3322 
Q 3641 2881 3436 2590 
Q 3231 2300 2841 2188 
z
M 1259 4147 
L 1259 2491 
L 2053 2491 
Q 2509 2491 2742 2702 
Q 2975 2913 2975 3322 
Q 2975 3731 2742 3939 
Q 2509 4147 2053 4147 
L 1259 4147 
z
" transform="scale(0.015625)"/>
       <path id="DejaVuSans-65" d="M 3597 1894 
L 3597 1613 
L 953 1613 
Q 991 1019 1311 708 
Q 1631 397 2203 397 
Q 2534 397 2845 478 
Q 3156 559 3463 722 
L 3463 178 
Q 3153 47 2828 -22 
Q 2503 -91 2169 -91 
Q 1331 -91 842 396 
Q 353 884 353 1716 
Q 353 2575 817 3079 
Q 1281 3584 2069 3584 
Q 2775 3584 3186 3129 
Q 3597 2675 3597 1894 
z
M 3022 2063 
Q 3016 2534 2758 2815 
Q 2500 3097 2075 3097 
Q 1594 3097 1305 2825 
Q 1016 2553 972 2059 
L 3022 2063 
z
" transform="scale(0.015625)"/>
       <path id="DejaVuSans-73" d="M 2834 3397 
L 2834 2853 
Q 2591 2978 2328 3040 
Q 2066 3103 1784 3103 
Q 1356 3103 1142 2972 
Q 928 2841 928 2578 
Q 928 2378 1081 2264 
Q 1234 2150 1697 2047 
L 1894 2003 
Q 2506 1872 2764 1633 
Q 3022 1394 3022 966 
Q 3022 478 2636 193 
Q 2250 -91 1575 -91 
Q 1294 -91 989 -36 
Q 684 19 347 128 
L 347 722 
Q 666 556 975 473 
Q 1284 391 1588 391 
Q 1994 391 2212 530 
Q 2431 669 2431 922 
Q 2431 1156 2273 1281 
Q 2116 1406 1581 1522 
L 1381 1569 
Q 847 1681 609 1914 
Q 372 2147 372 2553 
Q 372 3047 722 3315 
Q 1072 3584 1716 3584 
Q 2034 3584 2315 3537 
Q 2597 3491 2834 3397 
z
" transform="scale(0.015625)"/>
       <path id="DejaVuSans-6f" d="M 1959 3097 
Q 1497 3097 1228 2736 
Q 959 2375 959 1747 
Q 959 1119 1226 758 
Q 1494 397 1959 397 
Q 2419 397 2687 759 
Q 2956 1122 2956 1747 
Q 2956 2369 2687 2733 
Q 2419 3097 1959 3097 
z
M 1959 3584 
Q 2709 3584 3137 3096 
Q 3566 2609 3566 1747 
Q 3566 888 3137 398 
Q 2709 -91 1959 -91 
Q 1206 -91 779 398 
Q 353 888 353 1747 
Q 353 2609 779 3096 
Q 1206 3584 1959 3584 
z
" transform="scale(0.015625)"/>
       <path id="DejaVuSans-75" d="M 544 1381 
L 544 3500 
L 1119 3500 
L 1119 1403 
Q 1119 906 1312 657 
Q 1506 409 1894 409 
Q 2359 409 2629 706 
Q 2900 1003 2900 1516 
L 2900 3500 
L 3475 3500 
L 3475 0 
L 2900 0 
L 2900 538 
Q 2691 219 2414 64 
Q 2138 -91 1772 -91 
Q 1169 -91 856 284 
Q 544 659 544 1381 
z
M 1991 3584 
L 1991 3584 
z
" transform="scale(0.015625)"/>
       <path id="DejaVuSans-72" d="M 2631 2963 
Q 2534 3019 2420 3045 
Q 2306 3072 2169 3072 
Q 1681 3072 1420 2755 
Q 1159 2438 1159 1844 
L 1159 0 
L 581 0 
L 581 3500 
L 1159 3500 
L 1159 2956 
Q 1341 3275 1631 3429 
Q 1922 3584 2338 3584 
Q 2397 3584 2469 3576 
Q 2541 3569 2628 3553 
L 2631 2963 
z
" transform="scale(0.015625)"/>
       <path id="DejaVuSans-63" d="M 3122 3366 
L 3122 2828 
Q 2878 2963 2633 3030 
Q 2388 3097 2138 3097 
Q 1578 3097 1268 2742 
Q 959 2388 959 1747 
Q 959 1106 1268 751 
Q 1578 397 2138 397 
Q 2388 397 2633 464 
Q 2878 531 3122 666 
L 3122 134 
Q 2881 22 2623 -34 
Q 2366 -91 2075 -91 
Q 1284 -91 818 406 
Q 353 903 353 1747 
Q 353 2603 823 3093 
Q 1294 3584 2113 3584 
Q 2378 3584 2631 3529 
Q 2884 3475 3122 3366 
z
" transform="scale(0.015625)"/>
      </defs>
      <use xlink:href="#DejaVuSans-52"/>
      <use xlink:href="#DejaVuSans-65" x="64.982422"/>
      <use xlink:href="#DejaVuSans-73" x="126.505859"/>
      <use xlink:href="#DejaVuSans-6f" x="178.605469"/>
      <use xlink:href="#DejaVuSans-75" x="239.787109"/>
      <use xlink:href="#DejaVuSans-72" x="303.166016"/>
      <use xlink:href="#DejaVuSans-63" x="342.029297"/>
      <use xlink:href="#DejaVuSans-65" x="397.009766"/>
      <use xlink:href="#DejaVuSans-73" x="458.533203"/>
     </g>
    </g>
   </g>
   <g id="matplotlib.axis_2">
    <g id="ytick_1">
     <g id="line2d_34">
      <defs>
       <path id="m7a74e33eed" d="M 0 0 
L -3.5 0 
" style="stroke: #000000; stroke-width: 0.8"/>
      </defs>
      <g>
       <use xlink:href="#m7a74e33eed" x="54" y="244.47887" style="stroke: #000000; stroke-width: 0.8"/>
      </g>
     </g>
     <g id="text_6">
      <!-- $\mathdefault{10^{-5}}$ -->
      <g transform="translate(23.5 248.278089)scale(0.1 -0.1)">
       <defs>
        <path id="DejaVuSans-2212" d="M 678 2272 
L 4684 2272 
L 4684 1741 
L 678 1741 
L 678 2272 
z
" transform="scale(0.015625)"/>
        <path id="DejaVuSans-35" d="M 691 4666 
L 3169 4666 
L 3169 4134 
L 1269 4134 
L 1269 2991 
Q 1406 3038 1543 3061 
Q 1681 3084 1819 3084 
Q 2600 3084 3056 2656 
Q 3513 2228 3513 1497 
Q 3513 744 3044 326 
Q 2575 -91 1722 -91 
Q 1428 -91 1123 -41 
Q 819 9 494 109 
L 494 744 
Q 775 591 1075 516 
Q 1375 441 1709 441 
Q 2250 441 2565 725 
Q 2881 1009 2881 1497 
Q 2881 1984 2565 2268 
Q 2250 2553 1709 2553 
Q 1456 2553 1204 2497 
Q 953 2441 691 2322 
L 691 4666 
z
" transform="scale(0.015625)"/>
       </defs>
       <use xlink:href="#DejaVuSans-31" transform="translate(0 0.684375)"/>
       <use xlink:href="#DejaVuSans-30" transform="translate(63.623047 0.684375)"/>
       <use xlink:href="#DejaVuSans-2212" transform="translate(128.203125 38.965625)scale(0.7)"/>
       <use xlink:href="#DejaVuSans-35" transform="translate(186.855469 38.965625)scale(0.7)"/>
      </g>
     </g>
    </g>
    <g id="ytick_2">
     <g id="line2d_35">
      <g>
       <use xlink:href="#m7a74e33eed" x="54" y="197.386682" style="stroke: #000000; stroke-width: 0.8"/>
      </g>
     </g>
     <g id="text_7">
      <!-- $\mathdefault{10^{-4}}$ -->
      <g transform="translate(23.5 201.185901)scale(0.1 -0.1)">
       <use xlink:href="#DejaVuSans-31" transform="translate(0 0.684375)"/>
       <use xlink:href="#DejaVuSans-30" transform="translate(63.623047 0.684375)"/>
       <use xlink:href="#DejaVuSans-2212" transform="translate(128.203125 38.965625)scale(0.7)"/>
       <use xlink:href="#DejaVuSans-34" transform="translate(186.855469 38.965625)scale(0.7)"/>
      </g>
     </g>
    </g>
    <g id="ytick_3">
     <g id="line2d_36">
      <g>
       <use xlink:href="#m7a74e33eed" x="54" y="150.294495" style="stroke: #000000; stroke-width: 0.8"/>
      </g>
     </g>
     <g id="text_8">
      <!-- $\mathdefault{10^{-3}}$ -->
      <g transform="translate(23.5 154.093713)scale(0.1 -0.1)">
       <use xlink:href="#DejaVuSans-31" transform="translate(0 0.765625)"/>
       <use xlink:href="#DejaVuSans-30" transform="translate(63.623047 0.765625)"/>
       <use xlink:href="#DejaVuSans-2212" transform="translate(128.203125 39.046875)scale(0.7)"/>
       <use xlink:href="#DejaVuSans-33" transform="translate(186.855469 39.046875)scale(0.7)"/>
      </g>
     </g>
    </g>
    <g id="ytick_4">
     <g id="line2d_37">
      <g>
       <use xlink:href="#m7a74e33eed" x="54" y="103.202307" style="stroke: #000000; stroke-width: 0.8"/>
      </g>
     </g>
     <g id="text_9">
      <!-- $\mathdefault{10^{-2}}$ -->
      <g transform="translate(23.5 107.001526)scale(0.1 -0.1)">
       <use xlink:href="#DejaVuSans-31" transform="translate(0 0.765625)"/>
       <use xlink:href="#DejaVuSans-30" transform="translate(63.623047 0.765625)"/>
       <use xlink:href="#DejaVuSans-2212" transform="translate(128.203125 39.046875)scale(0.7)"/>
       <use xlink:href="#DejaVuSans-32" transform="translate(186.855469 39.046875)scale(0.7)"/>
      </g>
     </g>
    </g>
    <g id="ytick_5">
     <g id="line2d_38">
      <g>
       <use xlink:href="#m7a74e33eed" x="54" y="56.110119" style="stroke: #000000; stroke-width: 0.8"/>
      </g>
     </g>
     <g id="text_10">
      <!-- $\mathdefault{10^{-1}}$ -->
      <g transform="translate(23.5 59.909338)scale(0.1 -0.1)">
       <use xlink:href="#DejaVuSans-31" transform="translate(0 0.684375)"/>
       <use xlink:href="#DejaVuSans-30" transform="translate(63.623047 0.684375)"/>
       <use xlink:href="#DejaVuSans-2212" transform="translate(128.203125 38.965625)scale(0.7)"/>
       <use xlink:href="#DejaVuSans-31" transform="translate(186.855469 38.965625)scale(0.7)"/>
      </g>
     </g>
    </g>
    <g id="ytick_6">
     <g id="line2d_39">
      <defs>
       <path id="me62903bb07" d="M 0 0 
L -2 0 
" style="stroke: #000000; stroke-width: 0.6"/>
      </defs>
      <g>
       <use xlink:href="#me62903bb07" x="54" y="251.773543" style="stroke: #000000; stroke-width: 0.6"/>
      </g>
     </g>
    </g>
    <g id="ytick_7">
     <g id="line2d_40">
      <g>
       <use xlink:href="#me62903bb07" x="54" y="249.042575" style="stroke: #000000; stroke-width: 0.6"/>
      </g>
     </g>
    </g>
    <g id="ytick_8">
     <g id="line2d_41">
      <g>
       <use xlink:href="#me62903bb07" x="54" y="246.633691" style="stroke: #000000; stroke-width: 0.6"/>
      </g>
     </g>
    </g>
    <g id="ytick_9">
     <g id="line2d_42">
      <g>
       <use xlink:href="#me62903bb07" x="54" y="230.302709" style="stroke: #000000; stroke-width: 0.6"/>
      </g>
     </g>
    </g>
    <g id="ytick_10">
     <g id="line2d_43">
      <g>
       <use xlink:href="#me62903bb07" x="54" y="222.010187" style="stroke: #000000; stroke-width: 0.6"/>
      </g>
     </g>
    </g>
    <g id="ytick_11">
     <g id="line2d_44">
      <g>
       <use xlink:href="#me62903bb07" x="54" y="216.126548" style="stroke: #000000; stroke-width: 0.6"/>
      </g>
     </g>
    </g>
    <g id="ytick_12">
     <g id="line2d_45">
      <g>
       <use xlink:href="#me62903bb07" x="54" y="211.562844" style="stroke: #000000; stroke-width: 0.6"/>
      </g>
     </g>
    </g>
    <g id="ytick_13">
     <g id="line2d_46">
      <g>
       <use xlink:href="#me62903bb07" x="54" y="207.834025" style="stroke: #000000; stroke-width: 0.6"/>
      </g>
     </g>
    </g>
    <g id="ytick_14">
     <g id="line2d_47">
      <g>
       <use xlink:href="#me62903bb07" x="54" y="204.681355" style="stroke: #000000; stroke-width: 0.6"/>
      </g>
     </g>
    </g>
    <g id="ytick_15">
     <g id="line2d_48">
      <g>
       <use xlink:href="#me62903bb07" x="54" y="201.950387" style="stroke: #000000; stroke-width: 0.6"/>
      </g>
     </g>
    </g>
    <g id="ytick_16">
     <g id="line2d_49">
      <g>
       <use xlink:href="#me62903bb07" x="54" y="199.541503" style="stroke: #000000; stroke-width: 0.6"/>
      </g>
     </g>
    </g>
    <g id="ytick_17">
     <g id="line2d_50">
      <g>
       <use xlink:href="#me62903bb07" x="54" y="183.210521" style="stroke: #000000; stroke-width: 0.6"/>
      </g>
     </g>
    </g>
    <g id="ytick_18">
     <g id="line2d_51">
      <g>
       <use xlink:href="#me62903bb07" x="54" y="174.917999" style="stroke: #000000; stroke-width: 0.6"/>
      </g>
     </g>
    </g>
    <g id="ytick_19">
     <g id="line2d_52">
      <g>
       <use xlink:href="#me62903bb07" x="54" y="169.03436" style="stroke: #000000; stroke-width: 0.6"/>
      </g>
     </g>
    </g>
    <g id="ytick_20">
     <g id="line2d_53">
      <g>
       <use xlink:href="#me62903bb07" x="54" y="164.470656" style="stroke: #000000; stroke-width: 0.6"/>
      </g>
     </g>
    </g>
    <g id="ytick_21">
     <g id="line2d_54">
      <g>
       <use xlink:href="#me62903bb07" x="54" y="160.741838" style="stroke: #000000; stroke-width: 0.6"/>
      </g>
     </g>
    </g>
    <g id="ytick_22">
     <g id="line2d_55">
      <g>
       <use xlink:href="#me62903bb07" x="54" y="157.589167" style="stroke: #000000; stroke-width: 0.6"/>
      </g>
     </g>
    </g>
    <g id="ytick_23">
     <g id="line2d_56">
      <g>
       <use xlink:href="#me62903bb07" x="54" y="154.858199" style="stroke: #000000; stroke-width: 0.6"/>
      </g>
     </g>
    </g>
    <g id="ytick_24">
     <g id="line2d_57">
      <g>
       <use xlink:href="#me62903bb07" x="54" y="152.449315" style="stroke: #000000; stroke-width: 0.6"/>
      </g>
     </g>
    </g>
    <g id="ytick_25">
     <g id="line2d_58">
      <g>
       <use xlink:href="#me62903bb07" x="54" y="136.118334" style="stroke: #000000; stroke-width: 0.6"/>
      </g>
     </g>
    </g>
    <g id="ytick_26">
     <g id="line2d_59">
      <g>
       <use xlink:href="#me62903bb07" x="54" y="127.825811" style="stroke: #000000; stroke-width: 0.6"/>
      </g>
     </g>
    </g>
    <g id="ytick_27">
     <g id="line2d_60">
      <g>
       <use xlink:href="#me62903bb07" x="54" y="121.942172" style="stroke: #000000; stroke-width: 0.6"/>
      </g>
     </g>
    </g>
    <g id="ytick_28">
     <g id="line2d_61">
      <g>
       <use xlink:href="#me62903bb07" x="54" y="117.378468" style="stroke: #000000; stroke-width: 0.6"/>
      </g>
     </g>
    </g>
    <g id="ytick_29">
     <g id="line2d_62">
      <g>
       <use xlink:href="#me62903bb07" x="54" y="113.64965" style="stroke: #000000; stroke-width: 0.6"/>
      </g>
     </g>
    </g>
    <g id="ytick_30">
     <g id="line2d_63">
      <g>
       <use xlink:href="#me62903bb07" x="54" y="110.496979" style="stroke: #000000; stroke-width: 0.6"/>
      </g>
     </g>
    </g>
    <g id="ytick_31">
     <g id="line2d_64">
      <g>
       <use xlink:href="#me62903bb07" x="54" y="107.766011" style="stroke: #000000; stroke-width: 0.6"/>
      </g>
     </g>
    </g>
    <g id="ytick_32">
     <g id="line2d_65">
      <g>
       <use xlink:href="#me62903bb07" x="54" y="105.357127" style="stroke: #000000; stroke-width: 0.6"/>
      </g>
     </g>
    </g>
    <g id="ytick_33">
     <g id="line2d_66">
      <g>
       <use xlink:href="#me62903bb07" x="54" y="89.026146" style="stroke: #000000; stroke-width: 0.6"/>
      </g>
     </g>
    </g>
    <g id="ytick_34">
     <g id="line2d_67">
      <g>
       <use xlink:href="#me62903bb07" x="54" y="80.733623" style="stroke: #000000; stroke-width: 0.6"/>
      </g>
     </g>
    </g>
    <g id="ytick_35">
     <g id="line2d_68">
      <g>
       <use xlink:href="#me62903bb07" x="54" y="74.849985" style="stroke: #000000; stroke-width: 0.6"/>
      </g>
     </g>
    </g>
    <g id="ytick_36">
     <g id="line2d_69">
      <g>
       <use xlink:href="#me62903bb07" x="54" y="70.28628" style="stroke: #000000; stroke-width: 0.6"/>
      </g>
     </g>
    </g>
    <g id="ytick_37">
     <g id="line2d_70">
      <g>
       <use xlink:href="#me62903bb07" x="54" y="66.557462" style="stroke: #000000; stroke-width: 0.6"/>
      </g>
     </g>
    </g>
    <g id="ytick_38">
     <g id="line2d_71">
      <g>
       <use xlink:href="#me62903bb07" x="54" y="63.404791" style="stroke: #000000; stroke-width: 0.6"/>
      </g>
     </g>
    </g>
    <g id="ytick_39">
     <g id="line2d_72">
      <g>
       <use xlink:href="#me62903bb07" x="54" y="60.673823" style="stroke: #000000; stroke-width: 0.6"/>
      </g>
     </g>
    </g>
    <g id="ytick_40">
     <g id="line2d_73">
      <g>
       <use xlink:href="#me62903bb07" x="54" y="58.264939" style="stroke: #000000; stroke-width: 0.6"/>
      </g>
     </g>
    </g>
    <g id="ytick_41">
     <g id="line2d_74">
      <g>
       <use xlink:href="#me62903bb07" x="54" y="41.933958" style="stroke: #000000; stroke-width: 0.6"/>
      </g>
     </g>
    </g>
    <g id="text_11">
     <!-- MSE -->
     <g transform="translate(17.420313 153.927656)rotate(-90)scale(0.1 -0.1)">
      <defs>
       <path id="DejaVuSans-4d" d="M 628 4666 
L 1569 4666 
L 2759 1491 
L 3956 4666 
L 4897 4666 
L 4897 0 
L 4281 0 
L 4281 4097 
L 3078 897 
L 2444 897 
L 1241 4097 
L 1241 0 
L 628 0 
L 628 4666 
z
" transform="scale(0.015625)"/>
       <path id="DejaVuSans-53" d="M 3425 4513 
L 3425 3897 
Q 3066 4069 2747 4153 
Q 2428 4238 2131 4238 
Q 1616 4238 1336 4038 
Q 1056 3838 1056 3469 
Q 1056 3159 1242 3001 
Q 1428 2844 1947 2747 
L 2328 2669 
Q 3034 2534 3370 2195 
Q 3706 1856 3706 1288 
Q 3706 609 3251 259 
Q 2797 -91 1919 -91 
Q 1588 -91 1214 -16 
Q 841 59 441 206 
L 441 856 
Q 825 641 1194 531 
Q 1563 422 1919 422 
Q 2459 422 2753 634 
Q 3047 847 3047 1241 
Q 3047 1584 2836 1778 
Q 2625 1972 2144 2069 
L 1759 2144 
Q 1053 2284 737 2584 
Q 422 2884 422 3419 
Q 422 4038 858 4394 
Q 1294 4750 2059 4750 
Q 2388 4750 2728 4690 
Q 3069 4631 3425 4513 
z
" transform="scale(0.015625)"/>
       <path id="DejaVuSans-45" d="M 628 4666 
L 3578 4666 
L 3578 4134 
L 1259 4134 
L 1259 2753 
L 3481 2753 
L 3481 2222 
L 1259 2222 
L 1259 531 
L 3634 531 
L 3634 0 
L 628 0 
L 628 4666 
z
" transform="scale(0.015625)"/>
      </defs>
      <use xlink:href="#DejaVuSans-4d"/>
      <use xlink:href="#DejaVuSans-53" x="86.279297"/>
      <use xlink:href="#DejaVuSans-45" x="149.755859"/>
     </g>
    </g>
   </g>
   <g id="line2d_75">
    <path d="M 69.218182 45.164524 
L 72.56614 45.382346 
L 75.645963 47.177156 
L 78.497434 47.446651 
L 81.15209 48.445863 
L 83.635354 49.065559 
L 85.968023 50.26184 
L 88.167321 52.079087 
L 90.247679 53.297616 
L 92.221304 53.565531 
L 94.098615 53.934895 
L 95.888578 55.229478 
L 97.598959 56.035279 
L 99.236536 56.422549 
L 100.807254 57.201591 
L 102.316359 58.315619 
L 103.768503 58.45906 
L 105.16783 59.011297 
L 106.518047 60.067262 
L 107.822486 60.896125 
L 109.084148 61.092996 
L 110.30575 62.64115 
L 111.489759 61.921035 
L 112.638419 62.36329 
L 113.753779 64.25129 
L 114.837717 63.055837 
L 115.891954 64.079743 
L 116.918075 63.903384 
L 117.91754 65.938321 
L 118.8917 65.389766 
L 119.841804 65.942775 
L 120.769011 66.99701 
L 121.6744 67.2257 
L 122.558973 67.317893 
L 123.423667 68.468759 
L 124.269355 67.580675 
L 125.096854 67.71882 
L 125.906932 69.810447 
L 126.700305 70.192249 
L 127.47765 69.581423 
L 128.2396 71.634355 
L 128.986755 70.705426 
L 129.719677 71.18934 
L 130.438899 70.679915 
L 131.144923 72.298026 
L 131.838225 72.315741 
L 132.519256 71.855505 
L 133.188443 72.761091 
L 133.84619 71.856294 
L 134.492881 73.215321 
L 135.128883 73.157652 
L 135.754543 72.583068 
L 136.370192 73.264957 
L 136.976146 74.174409 
L 137.572704 74.299945 
L 138.160155 72.467012 
L 138.738771 72.728815 
L 139.308814 74.128157 
L 139.870536 72.940363 
L 140.424175 73.508942 
L 140.969961 74.770146 
L 141.508113 73.68909 
L 142.038842 74.325915 
L 142.56235 73.460347 
L 143.078831 76.747505 
L 143.588471 73.326826 
L 144.091448 74.930709 
L 144.587936 73.722023 
L 145.078099 74.842282 
L 145.562096 73.775782 
L 146.04008 75.075908 
L 146.512199 74.385978 
L 146.978596 75.273313 
L 147.439407 75.085826 
L 147.894764 74.726529 
L 148.344796 75.243278 
L 148.789624 75.047662 
L 149.229369 75.695768 
L 149.664145 75.130994 
L 150.094063 77.816947 
L 150.51923 75.499798 
L 150.93975 76.759706 
L 151.355725 76.382264 
L 151.76725 74.907699 
L 152.17442 75.716811 
L 153.370701 76.105796 
L 153.761336 74.998788 
L 162.733995 81.294533 
L 175.68052 89.90391 
L 185.350408 93.713873 
L 193.071664 98.2973 
L 199.499445 101.451368 
L 205.005572 105.46088 
L 209.821505 108.316356 
L 214.101162 109.783816 
L 217.952098 111.881832 
L 221.452441 112.776712 
L 224.660736 115.46291 
L 227.621985 119.055376 
L 230.371529 119.371189 
L 232.93763 120.665009 
L 235.343241 121.349823 
L 237.607262 125.268061 
L 239.745437 125.435307 
L 241.771022 127.015283 
L 243.695286 126.8109 
L 245.527882 128.681104 
L 247.277149 131.542627 
L 248.950336 128.728053 
L 250.553787 131.787096 
L 252.093082 131.755244 
L 253.573159 130.708825 
L 254.998405 131.88783 
L 256.372739 133.679288 
L 257.699672 134.948912 
L 258.982365 132.559224 
L 260.223675 133.947977 
L 261.426186 135.467241 
L 262.592253 135.830713 
L 263.724018 137.56051 
L 264.823443 139.673619 
L 265.892324 137.660231 
L 266.932313 138.400913 
L 267.944931 141.552878 
L 268.931581 139.177029 
L 269.893562 144.74872 
L 270.832078 140.752425 
L 271.748246 143.66147 
L 272.643106 144.207109 
L 273.517627 142.540411 
L 275.209207 145.29626 
L 276.027903 143.90762 
L 276.829541 145.574868 
L 277.614818 146.512341 
L 278.384389 145.686652 
L 279.878839 146.657845 
L 281.317408 146.913128 
L 282.017014 150.487792 
L 282.704126 149.739533 
L 283.379182 150.123271 
L 284.0426 151.536442 
L 284.694772 148.856279 
L 285.336074 150.274217 
L 285.966863 149.174162 
L 287.19824 152.072659 
L 287.799459 156.158848 
L 288.391428 154.588989 
L 288.974428 154.551599 
L 289.548726 156.540187 
L 290.114578 155.014355 
L 290.672229 156.387693 
L 291.221914 154.976003 
L 291.763856 158.238561 
L 292.825364 156.254171 
L 293.345335 156.122524 
L 293.858373 158.196706 
L 294.364659 159.319782 
L 294.864371 159.663896 
L 295.357676 157.581678 
L 295.844736 156.796352 
L 296.325708 159.8907 
L 296.800742 160.258575 
L 297.269982 163.210665 
L 297.733569 158.811203 
L 298.191637 159.50909 
L 298.644316 161.542947 
L 299.091731 159.611025 
L 299.534003 159.572045 
L 299.971249 157.809668 
L 300.403582 161.108883 
L 300.831111 161.628014 
L 301.253943 159.556561 
L 301.672178 160.790875 
L 302.085915 162.513543 
L 302.495252 161.341602 
L 302.900279 161.664968 
L 303.301087 163.61032 
L 303.697764 162.899363 
L 304.090392 164.752218 
L 304.479054 164.079875 
L 305.622027 165.701858 
L 305.995595 165.946976 
L 306.365572 163.614029 
L 306.732024 164.756471 
L 307.09502 163.755737 
L 307.454623 163.945718 
L 307.810896 167.337161 
L 308.163901 164.990497 
L 308.513697 165.572659 
L 308.860341 167.420632 
L 309.20389 166.848333 
L 309.544399 165.23818 
L 309.881921 167.192408 
L 310.216508 166.606352 
L 310.54821 167.054052 
L 310.877078 168.756345 
L 311.203158 169.061611 
L 311.526498 169.21093 
L 311.847144 169.104258 
L 312.165139 171.086666 
L 312.480528 167.937488 
L 312.793353 170.253393 
L 313.103655 168.729041 
L 313.411475 170.286422 
L 313.716851 170.041611 
L 314.019823 170.213554 
L 314.320428 169.110046 
L 314.618703 168.717741 
L 314.914683 171.450852 
L 315.208404 170.535361 
L 315.4999 166.718199 
L 315.789204 169.743937 
L 316.076349 169.782598 
L 316.361367 167.814791 
L 316.644289 170.711694 
L 316.925146 168.200887 
L 317.480784 169.346819 
L 318.028512 172.445765 
L 318.29948 171.759975 
L 318.568552 173.620309 
L 319.101118 174.781834 
L 319.364662 173.135413 
L 319.626413 174.595034 
L 319.886395 174.812463 
L 320.144633 173.861594 
L 320.655966 175.609769 
L 320.909107 174.191844 
L 321.160593 176.925816 
L 321.410446 175.431668 
L 321.658687 175.935466 
L 321.905337 175.893549 
L 322.150416 174.006651 
L 322.393943 176.186503 
L 322.635939 172.208589 
L 322.876423 172.006806 
L 323.115413 175.148939 
L 323.352928 176.602679 
L 323.823603 175.274529 
L 324.056799 174.562021 
L 324.288591 176.445773 
L 324.518994 174.908935 
L 324.748026 175.728111 
L 324.975703 175.64771 
L 325.427054 177.757008 
L 325.873172 177.788601 
L 326.094306 178.785443 
L 326.314177 179.052571 
L 326.532798 176.849435 
L 326.750184 178.679942 
L 326.966349 178.00632 
L 327.181306 179.410501 
L 327.395069 178.008439 
L 327.607651 178.810009 
L 327.819065 177.237527 
L 328.029324 181.628089 
L 328.446426 180.745874 
L 328.653293 180.02704 
L 328.859054 180.081579 
L 329.063721 179.499396 
L 329.267305 180.780694 
L 329.469817 179.5276 
L 329.671269 183.305667 
L 329.871672 180.617385 
L 330.071036 183.256167 
L 330.269373 181.203454 
L 330.466693 181.344853 
L 330.858322 180.195944 
L 331.246005 181.818483 
L 331.438392 181.83223 
L 331.629821 181.992609 
L 331.820303 181.868031 
L 332.009847 179.226936 
L 332.198461 182.084643 
L 332.386155 179.873973 
L 332.758819 181.565224 
L 332.943806 182.548374 
L 333.127908 182.835837 
L 333.311134 180.739771 
L 333.493491 181.136557 
L 333.674987 182.642647 
L 333.855632 178.808215 
L 334.035433 183.080716 
L 334.214397 180.968375 
L 334.392533 182.246196 
L 334.569847 181.866337 
L 334.746349 183.179133 
L 334.922044 182.17121 
L 335.096941 183.61276 
L 335.271047 181.690499 
L 335.444368 181.774458 
L 335.616912 185.414347 
L 335.788686 182.793187 
L 335.959696 184.019933 
L 336.12995 182.648245 
L 336.299453 180.275045 
L 336.636236 185.359837 
L 336.803529 184.926841 
L 336.970098 185.437855 
L 337.135948 186.985508 
L 337.301087 185.280948 
L 337.46552 185.79128 
L 337.792292 185.327375 
L 337.954644 186.528252 
L 338.116313 184.447382 
L 338.277306 186.291757 
L 338.437628 184.301438 
L 338.597285 187.915295 
L 338.756282 187.487201 
L 338.914625 184.155644 
L 339.072319 187.30471 
L 339.229369 184.822111 
L 339.541559 187.135081 
L 339.69671 186.142847 
L 339.851237 186.455376 
L 340.005146 187.826698 
L 340.158442 187.930583 
L 340.31113 186.918739 
L 340.463214 187.216395 
L 340.614699 184.655564 
L 340.765591 186.607439 
L 340.915893 185.278675 
L 341.214747 188.215353 
L 341.363308 187.715805 
L 341.511297 189.032612 
L 341.80558 187.198169 
L 341.951881 190.601626 
L 342.097629 186.002881 
L 342.242826 188.997357 
L 342.531587 189.342537 
L 342.675159 190.513688 
L 342.818197 187.905886 
L 343.102688 190.945847 
L 343.385092 189.926019 
L 343.665437 191.073357 
L 343.804847 190.391556 
L 343.943755 191.805013 
L 344.220074 189.221133 
L 344.357493 190.268345 
L 344.494422 188.920056 
L 344.630867 188.727251 
L 344.766829 189.250999 
L 344.902312 190.248111 
L 345.03732 188.261375 
L 345.171856 190.342839 
L 345.305923 190.555789 
L 345.572664 188.540388 
L 345.837569 190.24806 
L 345.969341 191.581479 
L 346.100662 191.728642 
L 346.231538 189.300577 
L 346.361969 190.832821 
L 346.49196 189.094618 
L 346.621513 191.495724 
L 346.750631 190.112543 
L 346.879318 190.493627 
L 347.007576 193.88069 
L 347.135407 190.365854 
L 347.262815 193.408681 
L 347.389803 193.054915 
L 347.516373 192.138583 
L 347.642528 194.257806 
L 347.768271 192.494381 
L 347.893604 192.584383 
L 348.01853 189.763505 
L 348.267172 192.649192 
L 348.390894 191.983022 
L 348.637149 194.104556 
L 348.881838 191.101841 
L 349.003602 191.793594 
L 349.124981 194.320191 
L 349.245979 193.510522 
L 349.366597 191.592903 
L 349.486839 191.76741 
L 349.7262 195.077061 
L 349.964082 193.123462 
L 350.082474 192.491819 
L 350.435478 195.090363 
L 350.669028 193.791494 
L 350.785274 190.069955 
L 350.901169 194.330464 
L 351.016717 194.467799 
L 351.131918 193.788317 
L 351.361291 191.697717 
L 351.475467 194.265139 
L 351.589305 193.131358 
L 351.702808 193.838719 
L 351.815976 192.339434 
L 351.928813 193.692854 
L 352.041319 192.680419 
L 352.153498 190.278386 
L 352.265351 194.05764 
L 352.488085 192.849081 
L 352.59897 194.804571 
L 352.709537 193.61248 
L 352.819787 194.471097 
L 352.929722 192.913102 
L 353.148655 193.64769 
L 353.257655 192.686016 
L 353.474735 194.565981 
L 353.582817 193.602485 
L 353.690597 193.996016 
L 353.798075 196.402318 
L 353.905254 195.098321 
L 354.012135 195.219947 
L 354.118721 196.205447 
L 354.225011 193.702732 
L 354.331009 195.222824 
L 354.542133 193.521326 
L 354.647263 197.109435 
L 354.856663 191.614839 
L 355.06493 195.506035 
L 355.168643 196.038283 
L 355.375232 194.898119 
L 355.478113 194.197985 
L 355.683052 197.018673 
L 355.785114 194.824289 
L 355.988428 196.667368 
L 356.190675 192.424041 
L 356.492065 196.402884 
L 356.592006 195.118696 
L 356.791112 196.921178 
L 356.89028 197.338288 
L 356.989194 196.274949 
L 357.087853 196.712624 
L 357.186261 194.231741 
L 357.382323 197.033207 
L 357.479981 195.611265 
L 357.674557 198.157556 
L 357.771477 195.341634 
L 357.868154 197.200075 
L 357.964588 197.14132 
L 358.060781 196.639471 
L 358.156734 199.067935 
L 358.252449 197.564098 
L 358.347926 198.865999 
L 358.727483 195.263227 
L 358.915866 197.763015 
L 359.009713 196.859279 
L 359.103332 198.589267 
L 359.196723 197.192214 
L 359.289889 198.785723 
L 359.382829 197.821732 
L 359.568039 199.634735 
L 359.66031 198.555888 
L 359.844192 199.381385 
L 360.0272 198.246172 
L 360.118378 198.973043 
L 360.390624 196.431062 
L 360.571057 199.278631 
L 360.660957 199.392166 
L 360.750648 198.827473 
L 360.929404 200.034021 
L 361.018472 199.765506 
L 361.107334 200.870451 
L 361.195991 200.328133 
L 361.284445 198.637471 
L 361.372695 201.023611 
L 361.460744 197.926196 
L 361.548591 199.881131 
L 361.636239 197.862755 
L 361.810937 201.018597 
L 361.89799 198.71269 
L 361.984846 200.570667 
L 362.157972 197.865386 
L 362.330323 200.929863 
L 362.41621 200.442419 
L 362.501905 199.489984 
L 362.58741 200.141462 
L 362.672726 201.969312 
L 362.757852 198.281369 
L 362.927543 199.902325 
L 363.012108 199.726526 
L 363.096488 198.598233 
L 363.180684 200.055455 
L 363.264695 199.147491 
L 363.515635 199.875519 
L 363.598919 202.476894 
L 363.682023 199.390042 
L 363.764948 200.283566 
L 363.847695 201.848515 
L 363.930264 201.783577 
L 364.012657 199.764867 
L 364.176914 201.742158 
L 364.25878 199.293877 
L 364.421993 202.191039 
L 364.50334 200.746178 
L 364.584516 202.12267 
L 364.665521 201.870845 
L 364.746355 199.83719 
L 364.907517 201.104734 
L 364.987845 199.554525 
L 365.148 203.699044 
L 365.227828 198.434471 
L 365.307492 202.611348 
L 365.38699 202.253097 
L 365.466325 199.902832 
L 365.545496 201.715259 
L 365.624505 198.169589 
L 365.703352 202.469623 
L 365.782037 201.781116 
L 365.938927 200.731793 
L 366.09518 202.529322 
L 366.250801 200.042721 
L 366.328376 200.686219 
L 366.405795 200.014373 
L 366.560168 205.210333 
L 366.637122 201.773319 
L 366.713923 203.451321 
L 366.790571 200.575418 
L 366.94341 202.851572 
L 367.019603 201.351828 
L 367.095645 203.876785 
L 367.171537 202.212171 
L 367.24728 203.002044 
L 367.322874 202.550024 
L 367.398319 204.918961 
L 367.473617 204.129487 
L 367.548768 204.483359 
L 367.698631 201.981923 
L 367.773344 202.401279 
L 367.847912 203.771006 
L 367.922336 201.98144 
L 367.996617 204.383356 
L 368.070754 200.812588 
L 368.218602 203.585765 
L 368.365883 202.747701 
L 368.439313 203.188671 
L 368.585754 201.956257 
L 368.658766 203.278243 
L 368.731639 202.43698 
L 368.804375 203.072052 
L 368.876974 201.949424 
L 368.949436 202.265975 
L 369.093951 202.624744 
L 369.237926 204.6841 
L 369.309712 204.498155 
L 369.381364 202.132398 
L 369.452883 205.032531 
L 369.52427 203.227483 
L 369.595524 204.841173 
L 369.737638 202.786426 
L 369.879228 203.556218 
L 369.949829 205.437509 
L 370.0203 201.973028 
L 370.090642 205.16298 
L 370.160856 203.44995 
L 370.230942 201.739885 
L 370.300901 204.739662 
L 370.370733 202.156047 
L 370.579471 205.940046 
L 370.648799 203.986082 
L 370.718003 204.389885 
L 370.787082 206.084859 
L 370.856038 204.511325 
L 370.92487 206.518487 
L 370.993579 204.410417 
L 371.062166 204.882583 
L 371.130631 206.952516 
L 371.198975 203.588002 
L 371.267197 206.995838 
L 371.335298 206.239571 
L 371.47114 203.799248 
L 371.674008 206.281898 
L 371.741394 204.51067 
L 371.808662 204.906159 
L 371.875813 204.964017 
L 371.942846 204.062098 
L 372.076564 206.77202 
L 372.143249 205.697452 
L 372.209819 206.036387 
L 372.342613 204.865825 
L 372.408839 205.176557 
L 372.54095 206.396099 
L 372.606836 208.055605 
L 372.803819 204.146637 
L 372.869256 207.905234 
L 372.934583 206.824577 
L 372.999798 204.668801 
L 373.129899 206.840526 
L 373.194785 205.787962 
L 373.259561 206.201886 
L 373.324229 207.569463 
L 373.388788 206.205866 
L 373.581818 207.533775 
L 373.581818 207.533775 
" clip-path="url(#p639e4cd74b)" style="fill: none; stroke: #0000ff; stroke-width: 1.5; stroke-linecap: square"/>
   </g>
   <g id="line2d_76">
    <path d="M 69.218182 80.337439 
L 373.581818 242.116364 
L 373.581818 242.116364 
" clip-path="url(#p639e4cd74b)" style="fill: none; stroke: #000000; stroke-width: 1.5; stroke-linecap: square"/>
   </g>
   <g id="patch_3">
    <path d="M 54 252 
L 54 34.56 
" style="fill: none; stroke: #000000; stroke-width: 0.8; stroke-linejoin: miter; stroke-linecap: square"/>
   </g>
   <g id="patch_4">
    <path d="M 388.8 252 
L 388.8 34.56 
" style="fill: none; stroke: #000000; stroke-width: 0.8; stroke-linejoin: miter; stroke-linecap: square"/>
   </g>
   <g id="patch_5">
    <path d="M 54 252 
L 388.8 252 
" style="fill: none; stroke: #000000; stroke-width: 0.8; stroke-linejoin: miter; stroke-linecap: square"/>
   </g>
   <g id="patch_6">
    <path d="M 54 34.56 
L 388.8 34.56 
" style="fill: none; stroke: #000000; stroke-width: 0.8; stroke-linejoin: miter; stroke-linecap: square"/>
   </g>
  </g>
 </g>
 <defs>
  <clipPath id="p639e4cd74b">
   <rect x="54" y="34.56" width="334.8" height="217.44"/>
  </clipPath>
 </defs>
</svg>
