<?xml version="1.0" encoding="utf-8" standalone="no"?>
<!DOCTYPE svg PUBLIC "-//W3C//DTD SVG 1.1//EN"
  "http://www.w3.org/Graphics/SVG/1.1/DTD/svg11.dtd">
<svg xmlns:xlink="http://www.w3.org/1999/xlink" width="432pt" height="288pt" viewBox="0 0 432 288" xmlns="http://www.w3.org/2000/svg" version="1.1">
 <metadata>
  <rdf:RDF xmlns:dc="http://purl.org/dc/elements/1.1/" xmlns:cc="http://creativecommons.org/ns#" xmlns:rdf="http://www.w3.org/1999/02/22-rdf-syntax-ns#">
   <cc:Work>
    <dc:type rdf:resource="http://purl.org/dc/dcmitype/StillImage"/>
    <dc:date>2022-02-14T02:09:05.293097</dc:date>
    <dc:format>image/svg+xml</dc:format>
    <dc:creator>
     <cc:Agent>
      <dc:title>Matplotlib v3.5.1, https://matplotlib.org/</dc:title>
     </cc:Agent>
    </dc:creator>
   </cc:Work>
  </rdf:RDF>
 </metadata>
 <defs>
  <style type="text/css">*{stroke-linejoin: round; stroke-linecap: butt}</style>
 </defs>
 <g id="figure_1">
  <g id="patch_1">
   <path d="M 0 288 
L 432 288 
L 432 0 
L 0 0 
L 0 288 
z
" style="fill: none"/>
  </g>
  <g id="axes_1">
   <g id="patch_2">
    <path d="M 54 252 
L 388.8 252 
L 388.8 34.56 
L 54 34.56 
z
" style="fill: #ffffff"/>
   </g>
   <g id="PolyCollection_1">
    <defs>
     <path id="m942f15a717" d="M 69.218182 -220.190638 
L 69.218182 -218.671491 
L 72.56614 -217.562065 
L 75.645963 -216.815035 
L 78.497434 -217.094015 
L 81.15209 -216.329442 
L 83.635354 -216.226181 
L 85.968023 -215.748896 
L 88.167321 -215.542486 
L 90.247679 -214.993946 
L 92.221304 -214.871259 
L 94.098615 -214.915653 
L 95.888578 -214.583479 
L 97.598959 -214.406701 
L 99.236536 -214.309557 
L 100.807254 -214.168607 
L 102.316359 -214.392136 
L 103.768503 -214.318496 
L 105.16783 -214.108465 
L 106.518047 -214.099539 
L 107.822486 -213.863539 
L 109.084148 -213.718986 
L 110.30575 -213.900731 
L 111.489759 -213.379352 
L 112.638419 -213.54332 
L 113.753779 -213.456945 
L 114.837717 -213.247761 
L 115.891954 -213.443474 
L 116.918075 -213.219177 
L 117.91754 -213.307234 
L 118.8917 -213.10055 
L 119.841804 -213.10896 
L 120.769011 -212.945902 
L 121.6744 -213.122198 
L 122.558973 -213.16981 
L 123.423667 -212.902251 
L 124.269355 -212.793584 
L 125.096854 -212.716704 
L 125.906932 -212.780073 
L 126.700305 -212.727165 
L 127.47765 -212.686406 
L 128.2396 -212.594239 
L 128.986755 -212.67747 
L 129.719677 -212.556742 
L 130.438899 -212.768473 
L 131.144923 -212.54504 
L 131.838225 -212.656194 
L 132.519256 -212.515506 
L 133.188443 -212.636568 
L 133.84619 -212.759413 
L 134.492881 -212.54619 
L 135.128883 -212.605061 
L 135.754543 -212.538365 
L 136.370192 -212.49026 
L 136.976146 -212.773753 
L 137.572704 -212.601396 
L 138.160155 -212.458198 
L 138.738771 -212.588352 
L 139.308814 -212.448453 
L 139.870536 -212.63713 
L 140.424175 -212.549441 
L 140.969961 -212.482833 
L 141.508113 -212.533849 
L 142.038842 -212.526773 
L 142.56235 -212.525269 
L 143.078831 -212.49341 
L 143.588471 -212.565817 
L 144.091448 -212.516268 
L 144.587936 -212.546562 
L 145.078099 -212.610112 
L 145.562096 -212.41566 
L 146.04008 -212.59306 
L 146.512199 -212.19799 
L 146.978596 -212.324393 
L 147.439407 -212.458836 
L 147.894764 -212.442537 
L 148.344796 -212.677697 
L 148.789624 -212.45131 
L 149.229369 -212.942399 
L 149.664145 -212.680491 
L 150.094063 -212.971318 
L 150.51923 -212.644436 
L 150.93975 -213.028695 
L 151.355725 -212.730676 
L 151.76725 -212.933049 
L 152.17442 -212.333249 
L 152.577327 -212.862475 
L 152.976059 -212.406628 
L 153.370701 -212.571037 
L 153.761336 -212.328927 
L 162.733995 -211.875779 
L 175.68052 -207.885887 
L 185.350408 -205.086617 
L 193.071664 -197.804103 
L 199.499445 -191.441832 
L 205.005572 -188.486462 
L 209.821505 -182.979159 
L 214.101162 -178.590868 
L 217.952098 -176.897894 
L 221.452441 -171.902874 
L 224.660736 -170.618621 
L 227.621985 -167.239541 
L 230.371529 -163.417906 
L 232.93763 -162.899977 
L 235.343241 -158.392882 
L 237.607262 -158.072653 
L 239.745437 -158.312348 
L 241.771022 -156.084596 
L 243.695286 -153.573921 
L 245.527882 -151.525315 
L 247.277149 -149.610253 
L 248.950336 -149.228789 
L 250.553787 -147.974491 
L 252.093082 -147.314619 
L 253.573159 -144.432056 
L 254.998405 -141.881566 
L 256.372739 -144.464334 
L 257.699672 -141.063093 
L 258.982365 -140.977723 
L 260.223675 -141.12318 
L 261.426186 -140.651968 
L 262.592253 -136.415655 
L 263.724018 -137.27629 
L 264.823443 -138.499819 
L 265.892324 -135.186071 
L 266.932313 -137.72379 
L 267.944931 -136.921261 
L 268.931581 -132.784162 
L 269.893562 -134.436546 
L 270.832078 -133.75425 
L 271.748246 -133.432043 
L 272.643106 -131.178964 
L 273.517627 -130.974857 
L 274.372712 -129.601789 
L 275.209207 -131.568366 
L 276.027903 -131.459027 
L 276.829541 -130.131755 
L 277.614818 -130.355104 
L 278.384389 -127.949201 
L 279.138869 -127.096891 
L 279.878839 -127.693119 
L 280.604846 -127.371945 
L 281.317408 -125.799991 
L 282.017014 -126.803897 
L 282.704126 -124.953785 
L 283.379182 -124.41636 
L 284.0426 -126.060744 
L 284.694772 -122.492203 
L 285.336074 -124.865017 
L 285.966863 -120.862415 
L 286.587477 -120.913296 
L 287.19824 -122.199108 
L 287.799459 -123.630006 
L 288.391428 -120.375742 
L 288.974428 -122.840007 
L 289.548726 -121.491091 
L 290.114578 -121.858102 
L 290.672229 -118.598359 
L 291.221914 -120.382482 
L 291.763856 -120.327446 
L 292.29827 -116.682228 
L 292.825364 -119.450522 
L 293.345335 -119.994539 
L 293.858373 -119.837547 
L 294.364659 -120.847188 
L 294.864371 -118.53557 
L 295.357676 -117.963854 
L 295.844736 -118.671435 
L 296.325708 -116.113013 
L 296.800742 -115.033594 
L 297.269982 -114.981863 
L 297.733569 -116.67584 
L 298.191637 -115.698407 
L 298.644316 -115.998735 
L 299.091731 -115.625541 
L 299.534003 -113.654636 
L 299.971249 -114.497506 
L 300.403582 -114.411575 
L 300.831111 -112.147041 
L 301.253943 -113.36206 
L 301.672178 -114.461103 
L 302.085915 -113.371848 
L 302.495252 -113.247736 
L 302.900279 -113.63312 
L 303.301087 -112.15381 
L 303.697764 -112.376299 
L 304.090392 -111.051253 
L 304.479054 -109.946763 
L 304.86383 -111.555854 
L 305.244796 -112.688126 
L 305.622027 -111.272252 
L 305.995595 -108.753912 
L 306.365572 -110.995277 
L 306.732024 -111.657887 
L 307.09502 -106.730694 
L 307.454623 -110.986152 
L 307.810896 -111.240719 
L 308.163901 -108.314668 
L 308.513697 -110.588479 
L 308.860341 -107.856282 
L 309.20389 -108.971079 
L 309.544399 -109.957305 
L 309.881921 -108.840059 
L 310.216508 -108.78638 
L 310.54821 -109.338905 
L 310.877078 -107.025685 
L 311.203158 -107.940982 
L 311.526498 -106.497786 
L 311.847144 -105.312408 
L 312.165139 -104.517954 
L 312.480528 -105.805547 
L 312.793353 -106.680916 
L 313.103655 -106.30054 
L 313.411475 -107.250996 
L 313.716851 -107.041693 
L 314.019823 -103.037571 
L 314.320428 -105.798217 
L 314.618703 -106.99185 
L 314.914683 -103.283881 
L 315.208404 -104.03139 
L 315.4999 -101.974117 
L 315.789204 -105.325434 
L 316.076349 -105.907776 
L 316.361367 -106.837664 
L 316.644289 -102.259115 
L 316.925146 -102.043226 
L 317.203968 -102.533002 
L 317.480784 -100.981945 
L 317.755623 -101.868653 
L 318.028512 -103.343851 
L 318.29948 -100.469395 
L 318.568552 -101.670625 
L 318.835757 -100.226483 
L 319.101118 -103.057787 
L 319.364662 -99.927755 
L 319.626413 -101.321166 
L 319.886395 -99.775404 
L 320.144633 -100.445617 
L 320.401149 -100.534926 
L 320.655966 -100.240679 
L 320.909107 -100.541832 
L 321.160593 -101.277117 
L 321.410446 -101.40084 
L 321.658687 -101.474373 
L 321.905337 -101.662899 
L 322.150416 -96.732693 
L 322.393943 -99.425942 
L 322.635939 -100.096081 
L 322.876423 -100.310573 
L 323.115413 -101.631362 
L 323.352928 -100.199331 
L 323.588985 -98.093393 
L 323.823603 -99.653616 
L 324.056799 -100.234489 
L 324.288591 -99.974341 
L 324.518994 -97.731129 
L 324.748026 -100.226974 
L 324.975703 -99.73982 
L 325.20204 -99.817126 
L 325.427054 -98.244275 
L 325.650759 -98.396146 
L 325.873172 -98.163038 
L 326.094306 -98.459601 
L 326.314177 -97.863037 
L 326.532798 -95.182785 
L 326.750184 -97.803265 
L 326.966349 -93.465847 
L 327.181306 -99.965044 
L 327.395069 -95.811822 
L 327.607651 -98.571957 
L 327.819065 -98.267371 
L 328.029324 -96.867536 
L 328.23844 -98.466 
L 328.446426 -96.869035 
L 328.653293 -97.3274 
L 328.859054 -95.373021 
L 329.063721 -95.464515 
L 329.267305 -96.881612 
L 329.469817 -98.630479 
L 329.671269 -94.385731 
L 329.871672 -94.774873 
L 330.071036 -92.510506 
L 330.269373 -96.019443 
L 330.466693 -95.204865 
L 330.663006 -94.644084 
L 330.858322 -95.063172 
L 331.052652 -95.254614 
L 331.246005 -96.037067 
L 331.438392 -92.811089 
L 331.629821 -93.048431 
L 331.820303 -92.721209 
L 332.009847 -94.522986 
L 332.198461 -93.1338 
L 332.386155 -94.254838 
L 332.572938 -90.795527 
L 332.758819 -92.85669 
L 332.943806 -93.152513 
L 333.127908 -91.911605 
L 333.311134 -90.209317 
L 333.493491 -94.329646 
L 333.674987 -92.870675 
L 333.855632 -93.109034 
L 334.035433 -92.759937 
L 334.214397 -91.291082 
L 334.392533 -90.078431 
L 334.569847 -89.231492 
L 334.746349 -91.665093 
L 334.922044 -92.782436 
L 335.096941 -92.663108 
L 335.271047 -90.798461 
L 335.444368 -91.63715 
L 335.616912 -91.468986 
L 335.788686 -91.220015 
L 335.959696 -90.556899 
L 336.12995 -92.651673 
L 336.299453 -92.402248 
L 336.468213 -92.052558 
L 336.636236 -91.414512 
L 336.803529 -89.516455 
L 336.970098 -91.202803 
L 337.135948 -89.475707 
L 337.301087 -92.276394 
L 337.46552 -91.046071 
L 337.629253 -91.399886 
L 337.792292 -89.061003 
L 337.954644 -89.78681 
L 338.116313 -91.295701 
L 338.277306 -89.085843 
L 338.437628 -90.746178 
L 338.597285 -90.285662 
L 338.756282 -89.62999 
L 338.914625 -89.2797 
L 339.072319 -89.933871 
L 339.229369 -88.242691 
L 339.385781 -86.400527 
L 339.541559 -88.958625 
L 339.69671 -87.974176 
L 339.851237 -89.425955 
L 340.005146 -89.496174 
L 340.158442 -86.271452 
L 340.31113 -89.56829 
L 340.463214 -87.638784 
L 340.614699 -85.812947 
L 340.765591 -89.288367 
L 340.915893 -87.632102 
L 341.06561 -88.130644 
L 341.214747 -88.678892 
L 341.363308 -87.387338 
L 341.511297 -88.084447 
L 341.65872 -87.626903 
L 341.80558 -87.838001 
L 341.951881 -88.704284 
L 342.097629 -86.965855 
L 342.242826 -87.726001 
L 342.387477 -85.384801 
L 342.531587 -88.662175 
L 342.675159 -88.03011 
L 342.818197 -85.367088 
L 342.960706 -85.600234 
L 343.102688 -85.305319 
L 343.244149 -86.278216 
L 343.385092 -86.15713 
L 343.52552 -85.898545 
L 343.665437 -84.835639 
L 343.804847 -85.19383 
L 343.943755 -86.64109 
L 344.082162 -88.017269 
L 344.220074 -86.007531 
L 344.357493 -86.705814 
L 344.494422 -85.506644 
L 344.630867 -88.065045 
L 344.766829 -84.753328 
L 344.902312 -86.184236 
L 345.03732 -85.619338 
L 345.171856 -85.372349 
L 345.305923 -84.47926 
L 345.439525 -86.192853 
L 345.572664 -85.789102 
L 345.705345 -86.026388 
L 345.837569 -85.236228 
L 345.969341 -85.513015 
L 346.100662 -85.866083 
L 346.231538 -86.531366 
L 346.361969 -84.153449 
L 346.49196 -84.967075 
L 346.621513 -84.828924 
L 346.750631 -82.393421 
L 346.879318 -83.321915 
L 347.007576 -85.51647 
L 347.135407 -85.257777 
L 347.262815 -86.724924 
L 347.389803 -85.175754 
L 347.516373 -86.805698 
L 347.642528 -85.457527 
L 347.768271 -82.941867 
L 347.893604 -84.505097 
L 348.01853 -84.786262 
L 348.143052 -84.614388 
L 348.267172 -84.640099 
L 348.390894 -83.008172 
L 348.514218 -84.541014 
L 348.637149 -83.613892 
L 348.759688 -81.37244 
L 348.881838 -83.304437 
L 349.003602 -84.464038 
L 349.124981 -85.576651 
L 349.245979 -82.930581 
L 349.366597 -81.324246 
L 349.486839 -83.662847 
L 349.606706 -83.353154 
L 349.7262 -81.700168 
L 349.845325 -82.104317 
L 349.964082 -81.694579 
L 350.082474 -82.136921 
L 350.200502 -83.172336 
L 350.31817 -82.610411 
L 350.435478 -82.560095 
L 350.552431 -84.41867 
L 350.669028 -82.594139 
L 350.785274 -83.036317 
L 350.901169 -80.597634 
L 351.016717 -81.7878 
L 351.131918 -80.717507 
L 351.246776 -81.098565 
L 351.361291 -80.835857 
L 351.475467 -81.018874 
L 351.589305 -81.489442 
L 351.702808 -82.756749 
L 351.815976 -80.188244 
L 351.928813 -81.592643 
L 352.041319 -81.335436 
L 352.153498 -82.057034 
L 352.265351 -82.859952 
L 352.376879 -82.585844 
L 352.488085 -80.793802 
L 352.59897 -81.751279 
L 352.709537 -80.40224 
L 352.819787 -80.430272 
L 352.929722 -79.653872 
L 353.039344 -81.650027 
L 353.148655 -77.663957 
L 353.257655 -80.833799 
L 353.366348 -80.758714 
L 353.474735 -80.084169 
L 353.582817 -82.265934 
L 353.690597 -80.832396 
L 353.798075 -81.506366 
L 353.905254 -83.228787 
L 354.012135 -81.225221 
L 354.118721 -77.740733 
L 354.225011 -81.298961 
L 354.331009 -80.428457 
L 354.436716 -78.76861 
L 354.542133 -80.073328 
L 354.647263 -78.761232 
L 354.752105 -80.261907 
L 354.856663 -78.851248 
L 354.960938 -80.187149 
L 355.06493 -81.052967 
L 355.168643 -78.000308 
L 355.272076 -77.963919 
L 355.375232 -80.133088 
L 355.478113 -78.038682 
L 355.580719 -79.131379 
L 355.683052 -81.6155 
L 355.785114 -79.898686 
L 355.886905 -80.277666 
L 355.988428 -81.04684 
L 356.089684 -80.381869 
L 356.190675 -79.93218 
L 356.2914 -80.243868 
L 356.391863 -79.212273 
L 356.492065 -81.438083 
L 356.592006 -79.120775 
L 356.691688 -77.135187 
L 356.791112 -77.353077 
L 356.89028 -78.830043 
L 356.989194 -79.133522 
L 357.087853 -79.160965 
L 357.186261 -78.988254 
L 357.284417 -78.826824 
L 357.382323 -77.893872 
L 357.479981 -79.562492 
L 357.577392 -78.801887 
L 357.674557 -78.796468 
L 357.771477 -80.850848 
L 357.868154 -80.285719 
L 357.964588 -77.216113 
L 358.060781 -77.110557 
L 358.156734 -79.773989 
L 358.252449 -76.992824 
L 358.347926 -75.872409 
L 358.443167 -77.473079 
L 358.538172 -76.336698 
L 358.632944 -77.582529 
L 358.727483 -76.161768 
L 358.82179 -78.534314 
L 358.915866 -78.845623 
L 359.009713 -78.584188 
L 359.103332 -78.62287 
L 359.196723 -76.32065 
L 359.289889 -76.064526 
L 359.382829 -78.152797 
L 359.475545 -74.720336 
L 359.568039 -79.163191 
L 359.66031 -79.377444 
L 359.752361 -74.598049 
L 359.844192 -77.722794 
L 359.935805 -74.707201 
L 360.0272 -77.849264 
L 360.118378 -76.343622 
L 360.209341 -77.281668 
L 360.300089 -76.151824 
L 360.390624 -76.958782 
L 360.480946 -74.511997 
L 360.571057 -77.049331 
L 360.660957 -77.579596 
L 360.750648 -77.401697 
L 360.84013 -75.415864 
L 360.929404 -78.144575 
L 361.018472 -78.026659 
L 361.107334 -76.109698 
L 361.195991 -76.724115 
L 361.284445 -76.804973 
L 361.372695 -76.284297 
L 361.460744 -75.464718 
L 361.548591 -75.390524 
L 361.636239 -74.7027 
L 361.723687 -73.432522 
L 361.810937 -74.39567 
L 361.89799 -75.858663 
L 361.984846 -75.919376 
L 362.071507 -75.038272 
L 362.157972 -74.225525 
L 362.244244 -76.064138 
L 362.330323 -74.909978 
L 362.41621 -73.194217 
L 362.501905 -74.385332 
L 362.58741 -75.009176 
L 362.672726 -74.910828 
L 362.757852 -75.70874 
L 362.842791 -75.318242 
L 362.927543 -74.315705 
L 363.012108 -74.034928 
L 363.096488 -76.791 
L 363.180684 -73.638606 
L 363.264695 -74.539783 
L 363.348524 -75.231306 
L 363.43217 -75.186583 
L 363.515635 -77.355451 
L 363.598919 -73.958816 
L 363.682023 -75.473377 
L 363.764948 -75.787194 
L 363.847695 -74.318132 
L 363.930264 -74.672752 
L 364.012657 -73.917458 
L 364.094873 -72.932647 
L 364.176914 -74.353773 
L 364.25878 -74.912742 
L 364.340473 -74.279966 
L 364.421993 -72.861368 
L 364.50334 -71.861891 
L 364.584516 -73.788449 
L 364.665521 -75.979017 
L 364.746355 -72.780572 
L 364.82702 -71.431542 
L 364.907517 -72.583396 
L 364.987845 -75.081472 
L 365.068006 -76.023278 
L 365.148 -72.882564 
L 365.227828 -73.307387 
L 365.307492 -76.373476 
L 365.38699 -73.672872 
L 365.466325 -74.60265 
L 365.545496 -73.429474 
L 365.624505 -72.110158 
L 365.703352 -74.094333 
L 365.782037 -71.906748 
L 365.860562 -74.447558 
L 365.938927 -73.773688 
L 366.017133 -75.371163 
L 366.09518 -72.52251 
L 366.173069 -69.515848 
L 366.250801 -73.981813 
L 366.328376 -72.155104 
L 366.405795 -75.085757 
L 366.483059 -75.347573 
L 366.560168 -73.859233 
L 366.637122 -74.40038 
L 366.713923 -72.962106 
L 366.790571 -68.714567 
L 366.867067 -73.842503 
L 366.94341 -73.136016 
L 367.019603 -73.748085 
L 367.095645 -71.635099 
L 367.171537 -73.157617 
L 367.24728 -73.461029 
L 367.322874 -72.688556 
L 367.398319 -69.014119 
L 367.473617 -70.464631 
L 367.548768 -74.237944 
L 367.623772 -71.569555 
L 367.698631 -73.843961 
L 367.773344 -70.4022 
L 367.847912 -72.524348 
L 367.922336 -71.678637 
L 367.996617 -72.229193 
L 368.070754 -70.047685 
L 368.144749 -72.328942 
L 368.218602 -70.541765 
L 368.292313 -70.895118 
L 368.365883 -72.752319 
L 368.439313 -72.48113 
L 368.512603 -71.195082 
L 368.585754 -69.57099 
L 368.658766 -73.109239 
L 368.731639 -72.724248 
L 368.804375 -69.455164 
L 368.876974 -70.693378 
L 368.949436 -70.334459 
L 369.021761 -73.108937 
L 369.093951 -69.604801 
L 369.166006 -68.581279 
L 369.237926 -71.340197 
L 369.309712 -70.552225 
L 369.381364 -71.110182 
L 369.452883 -72.320968 
L 369.52427 -69.515359 
L 369.595524 -70.990202 
L 369.666646 -69.176797 
L 369.737638 -72.609537 
L 369.808498 -69.018165 
L 369.879228 -70.01032 
L 369.949829 -69.844816 
L 370.0203 -70.618509 
L 370.090642 -69.377101 
L 370.160856 -68.733915 
L 370.230942 -68.438652 
L 370.300901 -69.054747 
L 370.370733 -68.157402 
L 370.440438 -71.944623 
L 370.510017 -70.347622 
L 370.579471 -69.773627 
L 370.648799 -69.464474 
L 370.718003 -69.606626 
L 370.787082 -68.433229 
L 370.856038 -68.229094 
L 370.92487 -71.110778 
L 370.993579 -69.27852 
L 371.062166 -71.940588 
L 371.130631 -71.407283 
L 371.198975 -71.506847 
L 371.267197 -69.837322 
L 371.335298 -70.036912 
L 371.403279 -72.253085 
L 371.47114 -69.046768 
L 371.538882 -71.39209 
L 371.606504 -69.858713 
L 371.674008 -69.652156 
L 371.741394 -70.360685 
L 371.808662 -72.156902 
L 371.875813 -70.615197 
L 371.942846 -69.263536 
L 372.009763 -70.87877 
L 372.076564 -71.600355 
L 372.143249 -67.164843 
L 372.209819 -71.55806 
L 372.276273 -67.778459 
L 372.342613 -68.06867 
L 372.408839 -69.023911 
L 372.474951 -70.404612 
L 372.54095 -68.801183 
L 372.606836 -69.293368 
L 372.672609 -67.993792 
L 372.73827 -66.863423 
L 372.803819 -71.952099 
L 372.869256 -68.743838 
L 372.934583 -68.432915 
L 372.999798 -69.121956 
L 373.064904 -69.609264 
L 373.129899 -68.241584 
L 373.194785 -69.663395 
L 373.259561 -70.155753 
L 373.324229 -72.222441 
L 373.388788 -66.545738 
L 373.453239 -69.745003 
L 373.517582 -66.838077 
L 373.581818 -69.350935 
L 373.581818 -72.58991 
L 373.581818 -72.58991 
L 373.517582 -72.854561 
L 373.453239 -74.861195 
L 373.388788 -71.158004 
L 373.324229 -76.665162 
L 373.259561 -74.970194 
L 373.194785 -74.929163 
L 373.129899 -73.375053 
L 373.064904 -74.141297 
L 372.999798 -73.658682 
L 372.934583 -73.993677 
L 372.869256 -73.80662 
L 372.803819 -75.622991 
L 372.73827 -72.118905 
L 372.672609 -72.760328 
L 372.606836 -74.440085 
L 372.54095 -74.388236 
L 372.474951 -76.089014 
L 372.408839 -74.241363 
L 372.342613 -73.296423 
L 372.276273 -72.226622 
L 372.209819 -75.707944 
L 372.143249 -72.068102 
L 372.076564 -75.725892 
L 372.009763 -75.403212 
L 371.942846 -72.895089 
L 371.875813 -75.288544 
L 371.808662 -76.124662 
L 371.741394 -74.82187 
L 371.674008 -74.295637 
L 371.606504 -74.655575 
L 371.538882 -76.745541 
L 371.47114 -73.562125 
L 371.403279 -77.38191 
L 371.335298 -73.940987 
L 371.267197 -74.545623 
L 371.198975 -75.083479 
L 371.130631 -75.329716 
L 371.062166 -76.415853 
L 370.993579 -73.850285 
L 370.92487 -74.860568 
L 370.856038 -72.024575 
L 370.787082 -74.249398 
L 370.718003 -73.708178 
L 370.648799 -73.082421 
L 370.579471 -75.78641 
L 370.510017 -74.829204 
L 370.440438 -75.20406 
L 370.370733 -72.565661 
L 370.300901 -74.431774 
L 370.230942 -73.092161 
L 370.160856 -73.570617 
L 370.090642 -73.810762 
L 370.0203 -74.233338 
L 369.949829 -75.221289 
L 369.879228 -74.741746 
L 369.808498 -73.132906 
L 369.737638 -77.08486 
L 369.666646 -73.994754 
L 369.595524 -76.15376 
L 369.52427 -74.710549 
L 369.452883 -75.601553 
L 369.381364 -76.04799 
L 369.309712 -75.006884 
L 369.237926 -76.455533 
L 369.166006 -73.899892 
L 369.093951 -74.762528 
L 369.021761 -77.138166 
L 368.949436 -75.467032 
L 368.876974 -75.345832 
L 368.804375 -74.846202 
L 368.731639 -78.144092 
L 368.658766 -77.462368 
L 368.585754 -76.361606 
L 368.512603 -76.882643 
L 368.439313 -76.766043 
L 368.365883 -77.039487 
L 368.292313 -75.143441 
L 368.218602 -75.794969 
L 368.144749 -76.829395 
L 368.070754 -75.474546 
L 367.996617 -75.988521 
L 367.922336 -76.133217 
L 367.847912 -79.011499 
L 367.773344 -75.617268 
L 367.698631 -78.288346 
L 367.623772 -75.942006 
L 367.548768 -79.406968 
L 367.473617 -75.637236 
L 367.398319 -74.62798 
L 367.322874 -76.849283 
L 367.24728 -77.485996 
L 367.171537 -77.224609 
L 367.095645 -77.185737 
L 367.019603 -76.990126 
L 366.94341 -78.141482 
L 366.867067 -77.887084 
L 366.790571 -73.974109 
L 366.713923 -78.411682 
L 366.637122 -79.044254 
L 366.560168 -78.511826 
L 366.483059 -79.404017 
L 366.405795 -78.022219 
L 366.328376 -77.535425 
L 366.250801 -78.500343 
L 366.173069 -75.400727 
L 366.09518 -76.015811 
L 366.017133 -79.88753 
L 365.938927 -77.051549 
L 365.860562 -79.188093 
L 365.782037 -78.357243 
L 365.703352 -79.476856 
L 365.624505 -76.610764 
L 365.545496 -78.650769 
L 365.466325 -78.923805 
L 365.38699 -77.965505 
L 365.307492 -80.888623 
L 365.227828 -77.412125 
L 365.148 -77.852882 
L 365.068006 -81.618598 
L 364.987845 -78.513947 
L 364.907517 -76.819652 
L 364.82702 -76.590398 
L 364.746355 -76.381552 
L 364.665521 -79.410142 
L 364.584516 -78.618553 
L 364.50334 -77.653629 
L 364.421993 -77.994508 
L 364.340473 -79.308093 
L 364.25878 -79.729504 
L 364.176914 -78.196085 
L 364.094873 -76.658659 
L 364.012657 -79.171055 
L 363.930264 -80.293752 
L 363.847695 -78.111354 
L 363.764948 -81.493837 
L 363.682023 -79.605844 
L 363.598919 -79.519113 
L 363.515635 -80.573075 
L 363.43217 -79.798418 
L 363.348524 -80.065257 
L 363.264695 -78.44484 
L 363.180684 -78.029432 
L 363.096488 -81.612293 
L 363.012108 -78.191834 
L 362.927543 -78.839604 
L 362.842791 -79.255321 
L 362.757852 -82.040832 
L 362.672726 -79.022109 
L 362.58741 -79.919998 
L 362.501905 -80.458949 
L 362.41621 -78.792568 
L 362.330323 -79.131798 
L 362.244244 -80.449598 
L 362.157972 -78.406785 
L 362.071507 -80.582193 
L 361.984846 -80.247683 
L 361.89799 -80.375557 
L 361.810937 -81.491609 
L 361.723687 -79.325049 
L 361.636239 -79.198259 
L 361.548591 -79.133755 
L 361.460744 -79.884328 
L 361.372695 -81.188491 
L 361.284445 -81.153187 
L 361.195991 -80.02532 
L 361.107334 -81.123525 
L 361.018472 -81.623836 
L 360.929404 -83.016206 
L 360.84013 -80.270588 
L 360.750648 -82.252284 
L 360.660957 -81.549394 
L 360.571057 -81.431344 
L 360.480946 -78.94116 
L 360.390624 -80.825759 
L 360.300089 -79.171237 
L 360.209341 -82.859569 
L 360.118378 -81.155279 
L 360.0272 -81.991771 
L 359.935805 -80.936631 
L 359.844192 -83.317536 
L 359.752361 -80.148449 
L 359.66031 -83.325412 
L 359.568039 -83.721703 
L 359.475545 -81.495693 
L 359.382829 -82.968162 
L 359.289889 -81.212564 
L 359.196723 -83.039852 
L 359.103332 -84.474011 
L 359.009713 -83.591917 
L 358.915866 -83.748672 
L 358.82179 -82.404062 
L 358.727483 -81.322311 
L 358.632944 -81.514401 
L 358.538172 -81.574598 
L 358.443167 -81.644881 
L 358.347926 -81.514667 
L 358.252449 -82.054198 
L 358.156734 -83.753589 
L 358.060781 -82.108965 
L 357.964588 -80.74768 
L 357.868154 -83.726067 
L 357.771477 -85.732779 
L 357.674557 -83.928846 
L 357.577392 -83.471847 
L 357.479981 -83.270652 
L 357.382323 -82.302464 
L 357.284417 -82.461869 
L 357.186261 -83.797114 
L 357.087853 -83.694739 
L 356.989194 -83.76025 
L 356.89028 -83.916343 
L 356.791112 -83.284031 
L 356.691688 -83.110179 
L 356.592006 -84.161014 
L 356.492065 -85.668296 
L 356.391863 -84.51547 
L 356.2914 -83.515897 
L 356.190675 -84.863239 
L 356.089684 -84.619059 
L 355.988428 -83.81527 
L 355.886905 -85.610223 
L 355.785114 -84.566467 
L 355.683052 -84.95109 
L 355.580719 -83.491135 
L 355.478113 -82.832498 
L 355.375232 -83.745461 
L 355.272076 -82.690255 
L 355.168643 -84.827641 
L 355.06493 -85.54569 
L 354.960938 -85.152118 
L 354.856663 -82.848643 
L 354.752105 -84.404435 
L 354.647263 -83.919116 
L 354.542133 -84.075251 
L 354.436716 -84.452206 
L 354.331009 -85.131728 
L 354.225011 -85.398758 
L 354.118721 -84.668398 
L 354.012135 -85.915753 
L 353.905254 -86.31134 
L 353.798075 -87.311414 
L 353.690597 -85.107528 
L 353.582817 -86.180597 
L 353.474735 -85.751052 
L 353.366348 -84.387927 
L 353.257655 -84.187416 
L 353.148655 -83.682958 
L 353.039344 -86.962592 
L 352.929722 -86.246686 
L 352.819787 -85.946742 
L 352.709537 -84.471174 
L 352.59897 -86.287988 
L 352.488085 -84.909633 
L 352.376879 -87.472509 
L 352.265351 -88.015765 
L 352.153498 -86.549208 
L 352.041319 -87.466127 
L 351.928813 -86.372537 
L 351.815976 -84.856041 
L 351.702808 -87.03367 
L 351.589305 -85.591322 
L 351.475467 -85.355082 
L 351.361291 -85.451286 
L 351.246776 -86.159432 
L 351.131918 -85.946821 
L 351.016717 -86.230786 
L 350.901169 -84.972684 
L 350.785274 -87.59778 
L 350.669028 -87.073205 
L 350.552431 -88.336767 
L 350.435478 -86.37911 
L 350.31817 -87.081678 
L 350.200502 -88.120569 
L 350.082474 -87.145336 
L 349.964082 -85.745555 
L 349.845325 -86.848045 
L 349.7262 -86.581809 
L 349.606706 -87.271482 
L 349.486839 -88.574942 
L 349.366597 -86.946729 
L 349.245979 -88.090355 
L 349.124981 -89.52798 
L 349.003602 -89.300757 
L 348.881838 -88.415016 
L 348.759688 -87.228791 
L 348.637149 -88.452276 
L 348.514218 -88.428305 
L 348.390894 -89.181403 
L 348.267172 -91.053881 
L 348.143052 -89.363714 
L 348.01853 -88.935301 
L 347.893604 -89.259353 
L 347.768271 -87.556586 
L 347.642528 -90.603499 
L 347.516373 -91.306622 
L 347.389803 -91.316083 
L 347.262815 -91.207513 
L 347.135407 -89.745591 
L 347.007576 -89.88264 
L 346.879318 -87.860087 
L 346.750631 -87.082987 
L 346.621513 -90.084298 
L 346.49196 -89.780825 
L 346.361969 -88.973221 
L 346.231538 -91.835809 
L 346.100662 -90.143285 
L 345.969341 -90.199032 
L 345.837569 -90.417183 
L 345.705345 -91.688722 
L 345.572664 -89.531755 
L 345.439525 -90.404051 
L 345.305923 -89.365547 
L 345.171856 -91.083934 
L 345.03732 -89.532621 
L 344.902312 -90.578306 
L 344.766829 -89.623022 
L 344.630867 -93.518759 
L 344.494422 -91.087005 
L 344.357493 -91.019388 
L 344.220074 -90.758429 
L 344.082162 -92.3586 
L 343.943755 -91.869786 
L 343.804847 -90.690972 
L 343.665437 -90.129814 
L 343.52552 -90.744288 
L 343.385092 -91.410091 
L 343.244149 -90.702044 
L 343.102688 -91.247949 
L 342.960706 -90.265518 
L 342.818197 -90.658952 
L 342.675159 -93.719636 
L 342.531587 -93.423994 
L 342.387477 -90.111266 
L 342.242826 -91.811069 
L 342.097629 -92.196023 
L 341.951881 -92.946921 
L 341.80558 -91.621817 
L 341.65872 -92.32245 
L 341.511297 -92.306209 
L 341.363308 -91.906998 
L 341.214747 -92.487027 
L 341.06561 -93.130689 
L 340.915893 -92.042049 
L 340.765591 -93.361662 
L 340.614699 -91.37103 
L 340.463214 -92.009571 
L 340.31113 -94.524453 
L 340.158442 -91.84407 
L 340.005146 -94.591884 
L 339.851237 -93.094335 
L 339.69671 -93.85463 
L 339.541559 -93.154898 
L 339.385781 -92.222154 
L 339.229369 -92.760141 
L 339.072319 -93.2587 
L 338.914625 -94.127417 
L 338.756282 -94.694556 
L 338.597285 -93.845687 
L 338.437628 -96.232108 
L 338.277306 -94.762607 
L 338.116313 -95.983687 
L 337.954644 -93.235275 
L 337.792292 -94.294615 
L 337.629253 -96.224403 
L 337.46552 -94.985659 
L 337.301087 -95.803019 
L 337.135948 -94.77344 
L 336.970098 -95.489888 
L 336.803529 -96.847452 
L 336.636236 -95.297393 
L 336.468213 -96.028118 
L 336.299453 -95.767382 
L 336.12995 -97.859416 
L 335.959696 -94.925972 
L 335.788686 -96.916675 
L 335.616912 -95.837706 
L 335.444368 -96.093201 
L 335.271047 -96.012041 
L 335.096941 -96.19032 
L 334.922044 -98.859314 
L 334.746349 -96.257392 
L 334.569847 -94.752666 
L 334.392533 -95.39382 
L 334.214397 -96.738298 
L 334.035433 -96.34259 
L 333.855632 -97.134945 
L 333.674987 -98.053804 
L 333.493491 -98.078212 
L 333.311134 -96.234322 
L 333.127908 -97.251491 
L 332.943806 -97.090072 
L 332.758819 -97.974722 
L 332.572938 -95.267386 
L 332.386155 -98.37664 
L 332.198461 -98.154771 
L 332.009847 -99.139429 
L 331.820303 -96.659247 
L 331.629821 -98.694568 
L 331.438392 -97.408859 
L 331.246005 -100.823369 
L 331.052652 -100.465885 
L 330.858322 -100.287443 
L 330.663006 -99.072318 
L 330.466693 -99.558429 
L 330.269373 -99.780326 
L 330.071036 -98.383846 
L 329.871672 -99.948976 
L 329.671269 -99.06446 
L 329.469817 -102.416307 
L 329.267305 -100.27902 
L 329.063721 -100.974922 
L 328.859054 -100.025795 
L 328.653293 -102.070728 
L 328.446426 -102.256518 
L 328.23844 -102.822786 
L 328.029324 -100.974317 
L 327.819065 -102.612122 
L 327.607651 -102.653264 
L 327.395069 -100.623305 
L 327.181306 -103.500611 
L 326.966349 -99.638916 
L 326.750184 -102.079139 
L 326.532798 -99.782193 
L 326.314177 -102.717633 
L 326.094306 -102.788273 
L 325.873172 -103.003423 
L 325.650759 -103.037272 
L 325.427054 -103.684529 
L 325.20204 -105.227431 
L 324.975703 -102.801343 
L 324.748026 -103.722102 
L 324.518994 -103.275313 
L 324.288591 -104.501024 
L 324.056799 -105.153911 
L 323.823603 -103.997217 
L 323.588985 -103.484954 
L 323.352928 -105.098078 
L 323.115413 -105.620688 
L 322.876423 -105.240986 
L 322.635939 -104.522665 
L 322.393943 -104.235491 
L 322.150416 -101.514647 
L 321.905337 -106.087605 
L 321.658687 -105.085099 
L 321.410446 -106.93765 
L 321.160593 -106.176929 
L 320.909107 -105.230273 
L 320.655966 -105.588283 
L 320.401149 -105.048658 
L 320.144633 -106.008887 
L 319.886395 -105.485258 
L 319.626413 -106.991676 
L 319.364662 -106.124934 
L 319.101118 -107.757089 
L 318.835757 -105.849942 
L 318.568552 -106.841967 
L 318.29948 -105.451843 
L 318.028512 -107.507623 
L 317.755623 -105.071222 
L 317.480784 -105.712774 
L 317.203968 -107.749613 
L 316.925146 -107.045202 
L 316.644289 -107.021002 
L 316.361367 -111.170724 
L 316.076349 -110.484565 
L 315.789204 -109.676177 
L 315.4999 -107.120303 
L 315.208404 -108.881269 
L 314.914683 -107.235104 
L 314.618703 -111.273694 
L 314.320428 -110.015021 
L 314.019823 -108.556127 
L 313.716851 -110.740586 
L 313.411475 -110.343657 
L 313.103655 -111.073709 
L 312.793353 -111.612472 
L 312.480528 -110.646013 
L 312.165139 -110.365215 
L 311.847144 -110.739722 
L 311.526498 -111.766332 
L 311.203158 -111.613807 
L 310.877078 -112.145106 
L 310.54821 -113.743878 
L 310.216508 -113.167165 
L 309.881921 -114.553651 
L 309.544399 -113.724858 
L 309.20389 -113.115799 
L 308.860341 -111.674022 
L 308.513697 -115.608962 
L 308.163901 -113.449561 
L 307.810896 -115.240568 
L 307.454623 -114.573638 
L 307.09502 -110.956189 
L 306.732024 -116.439689 
L 306.365572 -115.354877 
L 305.995595 -114.882213 
L 305.622027 -116.211851 
L 305.244796 -117.021127 
L 304.86383 -115.821107 
L 304.479054 -114.945505 
L 304.090392 -116.422692 
L 303.697764 -117.978814 
L 303.301087 -117.380037 
L 302.900279 -118.113727 
L 302.495252 -117.322134 
L 302.085915 -117.402028 
L 301.672178 -117.400015 
L 301.253943 -118.132558 
L 300.831111 -117.39104 
L 300.403582 -117.722454 
L 299.971249 -119.409043 
L 299.534003 -118.829196 
L 299.091731 -120.039576 
L 298.644316 -121.32651 
L 298.191637 -121.436967 
L 297.733569 -121.223827 
L 297.269982 -119.969534 
L 296.800742 -120.203782 
L 296.325708 -121.428326 
L 295.844736 -123.627368 
L 295.357676 -122.55101 
L 294.864371 -124.688252 
L 294.364659 -124.568908 
L 293.858373 -123.753356 
L 293.345335 -124.830822 
L 292.825364 -125.011371 
L 292.29827 -122.103868 
L 291.763856 -124.436922 
L 291.221914 -125.016957 
L 290.672229 -122.494409 
L 290.114578 -126.679188 
L 289.548726 -125.968675 
L 288.974428 -126.620996 
L 288.391428 -125.168404 
L 287.799459 -127.575146 
L 287.19824 -126.268023 
L 286.587477 -125.387252 
L 285.966863 -125.905379 
L 285.336074 -129.524476 
L 284.694772 -127.177335 
L 284.0426 -130.480729 
L 283.379182 -130.370749 
L 282.704126 -129.284362 
L 282.017014 -130.632383 
L 281.317408 -130.283627 
L 280.604846 -132.468896 
L 279.878839 -131.165315 
L 279.138869 -129.926083 
L 278.384389 -132.130037 
L 277.614818 -134.945282 
L 276.829541 -133.598725 
L 276.027903 -135.54282 
L 275.209207 -135.690373 
L 274.372712 -133.952823 
L 273.517627 -134.626839 
L 272.643106 -135.834877 
L 271.748246 -137.563177 
L 270.832078 -137.595081 
L 269.893562 -138.198949 
L 268.931581 -136.293738 
L 267.944931 -141.161657 
L 266.932313 -141.164182 
L 265.892324 -138.979995 
L 264.823443 -143.021384 
L 263.724018 -142.219106 
L 262.592253 -141.691319 
L 261.426186 -144.859226 
L 260.223675 -145.516939 
L 258.982365 -146.202047 
L 257.699672 -145.124973 
L 256.372739 -148.596673 
L 254.998405 -146.006682 
L 253.573159 -148.534189 
L 252.093082 -150.846239 
L 250.553787 -153.002743 
L 248.950336 -152.698793 
L 247.277149 -154.412939 
L 245.527882 -155.026867 
L 243.695286 -157.822325 
L 241.771022 -159.563254 
L 239.745437 -162.015588 
L 237.607262 -163.17541 
L 235.343241 -163.996355 
L 232.93763 -167.026727 
L 230.371529 -168.170639 
L 227.621985 -170.596057 
L 224.660736 -175.441 
L 221.452441 -177.726648 
L 217.952098 -180.091728 
L 214.101162 -181.660621 
L 209.821505 -186.187829 
L 205.005572 -191.618082 
L 199.499445 -195.009861 
L 193.071664 -200.517545 
L 185.350408 -207.146624 
L 175.68052 -209.103544 
L 162.733995 -212.732495 
L 153.761336 -212.637101 
L 153.370701 -212.89013 
L 152.976059 -212.818608 
L 152.577327 -213.247205 
L 152.17442 -212.656334 
L 151.76725 -213.23889 
L 151.355725 -213.052235 
L 150.93975 -213.392493 
L 150.51923 -213.046899 
L 150.094063 -213.243309 
L 149.664145 -212.971206 
L 149.229369 -213.234346 
L 148.789624 -212.77923 
L 148.344796 -212.936211 
L 147.894764 -212.82846 
L 147.439407 -212.835578 
L 146.978596 -212.709259 
L 146.512199 -212.610349 
L 146.04008 -212.907972 
L 145.562096 -212.752749 
L 145.078099 -212.884739 
L 144.587936 -212.788612 
L 144.091448 -212.83815 
L 143.588471 -212.847562 
L 143.078831 -212.831341 
L 142.56235 -212.820153 
L 142.038842 -212.896728 
L 141.508113 -212.780589 
L 140.969961 -212.745614 
L 140.424175 -212.840104 
L 139.870536 -212.911073 
L 139.308814 -212.808478 
L 138.738771 -212.823459 
L 138.160155 -212.969415 
L 137.572704 -212.977773 
L 136.976146 -213.079918 
L 136.370192 -212.794425 
L 135.754543 -212.857615 
L 135.128883 -212.8695 
L 134.492881 -212.902488 
L 133.84619 -213.092069 
L 133.188443 -212.978633 
L 132.519256 -212.912796 
L 131.838225 -212.997417 
L 131.144923 -212.920603 
L 130.438899 -213.11086 
L 129.719677 -212.888869 
L 128.986755 -213.022595 
L 128.2396 -212.887329 
L 127.47765 -213.05384 
L 126.700305 -213.021862 
L 125.906932 -213.197095 
L 125.096854 -213.154868 
L 124.269355 -213.06547 
L 123.423667 -213.258681 
L 122.558973 -213.403514 
L 121.6744 -213.391981 
L 120.769011 -213.352595 
L 119.841804 -213.475619 
L 118.8917 -213.509135 
L 117.91754 -213.720526 
L 116.918075 -213.596159 
L 115.891954 -213.833972 
L 114.837717 -213.714041 
L 113.753779 -213.781775 
L 112.638419 -214.11438 
L 111.489759 -213.954331 
L 110.30575 -214.23591 
L 109.084148 -214.229143 
L 107.822486 -214.305926 
L 106.518047 -214.449686 
L 105.16783 -214.777477 
L 103.768503 -214.740493 
L 102.316359 -214.909038 
L 100.807254 -214.6352 
L 99.236536 -214.750465 
L 97.598959 -214.905536 
L 95.888578 -215.368444 
L 94.098615 -215.492872 
L 92.221304 -215.467128 
L 90.247679 -215.882366 
L 88.167321 -216.512657 
L 85.968023 -216.370909 
L 83.635354 -217.031494 
L 81.15209 -217.224889 
L 78.497434 -218.271072 
L 75.645963 -217.751697 
L 72.56614 -218.751047 
L 69.218182 -220.190638 
z
" style="stroke: #ff0000; stroke-opacity: 0.2"/>
    </defs>
    <g clip-path="url(#p719f180fcd)">
     <use xlink:href="#m942f15a717" x="0" y="288" style="fill: #ff0000; fill-opacity: 0.2; stroke: #ff0000; stroke-opacity: 0.2"/>
    </g>
   </g>
   <g id="matplotlib.axis_1">
    <g id="xtick_1">
     <g id="line2d_1">
      <defs>
       <path id="m0986f9c637" d="M 0 0 
L 0 3.5 
" style="stroke: #000000; stroke-width: 0.8"/>
      </defs>
      <g>
       <use xlink:href="#m0986f9c637" x="65.550908" y="252" style="stroke: #000000; stroke-width: 0.8"/>
      </g>
     </g>
     <g id="text_1">
      <!-- $\mathdefault{10^{1}}$ -->
      <g transform="translate(56.750908 266.598437)scale(0.1 -0.1)">
       <defs>
        <path id="DejaVuSans-31" d="M 794 531 
L 1825 531 
L 1825 4091 
L 703 3866 
L 703 4441 
L 1819 4666 
L 2450 4666 
L 2450 531 
L 3481 531 
L 3481 0 
L 794 0 
L 794 531 
z
" transform="scale(0.015625)"/>
        <path id="DejaVuSans-30" d="M 2034 4250 
Q 1547 4250 1301 3770 
Q 1056 3291 1056 2328 
Q 1056 1369 1301 889 
Q 1547 409 2034 409 
Q 2525 409 2770 889 
Q 3016 1369 3016 2328 
Q 3016 3291 2770 3770 
Q 2525 4250 2034 4250 
z
M 2034 4750 
Q 2819 4750 3233 4129 
Q 3647 3509 3647 2328 
Q 3647 1150 3233 529 
Q 2819 -91 2034 -91 
Q 1250 -91 836 529 
Q 422 1150 422 2328 
Q 422 3509 836 4129 
Q 1250 4750 2034 4750 
z
" transform="scale(0.015625)"/>
       </defs>
       <use xlink:href="#DejaVuSans-31" transform="translate(0 0.684375)"/>
       <use xlink:href="#DejaVuSans-30" transform="translate(63.623047 0.684375)"/>
       <use xlink:href="#DejaVuSans-31" transform="translate(128.203125 38.965625)scale(0.7)"/>
      </g>
     </g>
    </g>
    <g id="xtick_2">
     <g id="line2d_2">
      <g>
       <use xlink:href="#m0986f9c637" x="154.148045" y="252" style="stroke: #000000; stroke-width: 0.8"/>
      </g>
     </g>
     <g id="text_2">
      <!-- $\mathdefault{10^{2}}$ -->
      <g transform="translate(145.348045 266.598437)scale(0.1 -0.1)">
       <defs>
        <path id="DejaVuSans-32" d="M 1228 531 
L 3431 531 
L 3431 0 
L 469 0 
L 469 531 
Q 828 903 1448 1529 
Q 2069 2156 2228 2338 
Q 2531 2678 2651 2914 
Q 2772 3150 2772 3378 
Q 2772 3750 2511 3984 
Q 2250 4219 1831 4219 
Q 1534 4219 1204 4116 
Q 875 4013 500 3803 
L 500 4441 
Q 881 4594 1212 4672 
Q 1544 4750 1819 4750 
Q 2544 4750 2975 4387 
Q 3406 4025 3406 3419 
Q 3406 3131 3298 2873 
Q 3191 2616 2906 2266 
Q 2828 2175 2409 1742 
Q 1991 1309 1228 531 
z
" transform="scale(0.015625)"/>
       </defs>
       <use xlink:href="#DejaVuSans-31" transform="translate(0 0.765625)"/>
       <use xlink:href="#DejaVuSans-30" transform="translate(63.623047 0.765625)"/>
       <use xlink:href="#DejaVuSans-32" transform="translate(128.203125 39.046875)scale(0.7)"/>
      </g>
     </g>
    </g>
    <g id="xtick_3">
     <g id="line2d_3">
      <g>
       <use xlink:href="#m0986f9c637" x="242.745182" y="252" style="stroke: #000000; stroke-width: 0.8"/>
      </g>
     </g>
     <g id="text_3">
      <!-- $\mathdefault{10^{3}}$ -->
      <g transform="translate(233.945182 266.598437)scale(0.1 -0.1)">
       <defs>
        <path id="DejaVuSans-33" d="M 2597 2516 
Q 3050 2419 3304 2112 
Q 3559 1806 3559 1356 
Q 3559 666 3084 287 
Q 2609 -91 1734 -91 
Q 1441 -91 1130 -33 
Q 819 25 488 141 
L 488 750 
Q 750 597 1062 519 
Q 1375 441 1716 441 
Q 2309 441 2620 675 
Q 2931 909 2931 1356 
Q 2931 1769 2642 2001 
Q 2353 2234 1838 2234 
L 1294 2234 
L 1294 2753 
L 1863 2753 
Q 2328 2753 2575 2939 
Q 2822 3125 2822 3475 
Q 2822 3834 2567 4026 
Q 2313 4219 1838 4219 
Q 1578 4219 1281 4162 
Q 984 4106 628 3988 
L 628 4550 
Q 988 4650 1302 4700 
Q 1616 4750 1894 4750 
Q 2613 4750 3031 4423 
Q 3450 4097 3450 3541 
Q 3450 3153 3228 2886 
Q 3006 2619 2597 2516 
z
" transform="scale(0.015625)"/>
       </defs>
       <use xlink:href="#DejaVuSans-31" transform="translate(0 0.765625)"/>
       <use xlink:href="#DejaVuSans-30" transform="translate(63.623047 0.765625)"/>
       <use xlink:href="#DejaVuSans-33" transform="translate(128.203125 39.046875)scale(0.7)"/>
      </g>
     </g>
    </g>
    <g id="xtick_4">
     <g id="line2d_4">
      <g>
       <use xlink:href="#m0986f9c637" x="331.342319" y="252" style="stroke: #000000; stroke-width: 0.8"/>
      </g>
     </g>
     <g id="text_4">
      <!-- $\mathdefault{10^{4}}$ -->
      <g transform="translate(322.542319 266.598437)scale(0.1 -0.1)">
       <defs>
        <path id="DejaVuSans-34" d="M 2419 4116 
L 825 1625 
L 2419 1625 
L 2419 4116 
z
M 2253 4666 
L 3047 4666 
L 3047 1625 
L 3713 1625 
L 3713 1100 
L 3047 1100 
L 3047 0 
L 2419 0 
L 2419 1100 
L 313 1100 
L 313 1709 
L 2253 4666 
z
" transform="scale(0.015625)"/>
       </defs>
       <use xlink:href="#DejaVuSans-31" transform="translate(0 0.684375)"/>
       <use xlink:href="#DejaVuSans-30" transform="translate(63.623047 0.684375)"/>
       <use xlink:href="#DejaVuSans-34" transform="translate(128.203125 38.965625)scale(0.7)"/>
      </g>
     </g>
    </g>
    <g id="xtick_5">
     <g id="line2d_5">
      <defs>
       <path id="med4c500662" d="M 0 0 
L 0 2 
" style="stroke: #000000; stroke-width: 0.6"/>
      </defs>
      <g>
       <use xlink:href="#med4c500662" x="56.964959" y="252" style="stroke: #000000; stroke-width: 0.6"/>
      </g>
     </g>
    </g>
    <g id="xtick_6">
     <g id="line2d_6">
      <g>
       <use xlink:href="#med4c500662" x="61.496926" y="252" style="stroke: #000000; stroke-width: 0.6"/>
      </g>
     </g>
    </g>
    <g id="xtick_7">
     <g id="line2d_7">
      <g>
       <use xlink:href="#med4c500662" x="92.221304" y="252" style="stroke: #000000; stroke-width: 0.6"/>
      </g>
     </g>
    </g>
    <g id="xtick_8">
     <g id="line2d_8">
      <g>
       <use xlink:href="#med4c500662" x="107.822486" y="252" style="stroke: #000000; stroke-width: 0.6"/>
      </g>
     </g>
    </g>
    <g id="xtick_9">
     <g id="line2d_9">
      <g>
       <use xlink:href="#med4c500662" x="118.8917" y="252" style="stroke: #000000; stroke-width: 0.6"/>
      </g>
     </g>
    </g>
    <g id="xtick_10">
     <g id="line2d_10">
      <g>
       <use xlink:href="#med4c500662" x="127.47765" y="252" style="stroke: #000000; stroke-width: 0.6"/>
      </g>
     </g>
    </g>
    <g id="xtick_11">
     <g id="line2d_11">
      <g>
       <use xlink:href="#med4c500662" x="134.492881" y="252" style="stroke: #000000; stroke-width: 0.6"/>
      </g>
     </g>
    </g>
    <g id="xtick_12">
     <g id="line2d_12">
      <g>
       <use xlink:href="#med4c500662" x="140.424175" y="252" style="stroke: #000000; stroke-width: 0.6"/>
      </g>
     </g>
    </g>
    <g id="xtick_13">
     <g id="line2d_13">
      <g>
       <use xlink:href="#med4c500662" x="145.562096" y="252" style="stroke: #000000; stroke-width: 0.6"/>
      </g>
     </g>
    </g>
    <g id="xtick_14">
     <g id="line2d_14">
      <g>
       <use xlink:href="#med4c500662" x="150.094063" y="252" style="stroke: #000000; stroke-width: 0.6"/>
      </g>
     </g>
    </g>
    <g id="xtick_15">
     <g id="line2d_15">
      <g>
       <use xlink:href="#med4c500662" x="180.818441" y="252" style="stroke: #000000; stroke-width: 0.6"/>
      </g>
     </g>
    </g>
    <g id="xtick_16">
     <g id="line2d_16">
      <g>
       <use xlink:href="#med4c500662" x="196.419622" y="252" style="stroke: #000000; stroke-width: 0.6"/>
      </g>
     </g>
    </g>
    <g id="xtick_17">
     <g id="line2d_17">
      <g>
       <use xlink:href="#med4c500662" x="207.488837" y="252" style="stroke: #000000; stroke-width: 0.6"/>
      </g>
     </g>
    </g>
    <g id="xtick_18">
     <g id="line2d_18">
      <g>
       <use xlink:href="#med4c500662" x="216.074786" y="252" style="stroke: #000000; stroke-width: 0.6"/>
      </g>
     </g>
    </g>
    <g id="xtick_19">
     <g id="line2d_19">
      <g>
       <use xlink:href="#med4c500662" x="223.090018" y="252" style="stroke: #000000; stroke-width: 0.6"/>
      </g>
     </g>
    </g>
    <g id="xtick_20">
     <g id="line2d_20">
      <g>
       <use xlink:href="#med4c500662" x="229.021312" y="252" style="stroke: #000000; stroke-width: 0.6"/>
      </g>
     </g>
    </g>
    <g id="xtick_21">
     <g id="line2d_21">
      <g>
       <use xlink:href="#med4c500662" x="234.159232" y="252" style="stroke: #000000; stroke-width: 0.6"/>
      </g>
     </g>
    </g>
    <g id="xtick_22">
     <g id="line2d_22">
      <g>
       <use xlink:href="#med4c500662" x="238.691199" y="252" style="stroke: #000000; stroke-width: 0.6"/>
      </g>
     </g>
    </g>
    <g id="xtick_23">
     <g id="line2d_23">
      <g>
       <use xlink:href="#med4c500662" x="269.415578" y="252" style="stroke: #000000; stroke-width: 0.6"/>
      </g>
     </g>
    </g>
    <g id="xtick_24">
     <g id="line2d_24">
      <g>
       <use xlink:href="#med4c500662" x="285.016759" y="252" style="stroke: #000000; stroke-width: 0.6"/>
      </g>
     </g>
    </g>
    <g id="xtick_25">
     <g id="line2d_25">
      <g>
       <use xlink:href="#med4c500662" x="296.085973" y="252" style="stroke: #000000; stroke-width: 0.6"/>
      </g>
     </g>
    </g>
    <g id="xtick_26">
     <g id="line2d_26">
      <g>
       <use xlink:href="#med4c500662" x="304.671923" y="252" style="stroke: #000000; stroke-width: 0.6"/>
      </g>
     </g>
    </g>
    <g id="xtick_27">
     <g id="line2d_27">
      <g>
       <use xlink:href="#med4c500662" x="311.687155" y="252" style="stroke: #000000; stroke-width: 0.6"/>
      </g>
     </g>
    </g>
    <g id="xtick_28">
     <g id="line2d_28">
      <g>
       <use xlink:href="#med4c500662" x="317.618449" y="252" style="stroke: #000000; stroke-width: 0.6"/>
      </g>
     </g>
    </g>
    <g id="xtick_29">
     <g id="line2d_29">
      <g>
       <use xlink:href="#med4c500662" x="322.756369" y="252" style="stroke: #000000; stroke-width: 0.6"/>
      </g>
     </g>
    </g>
    <g id="xtick_30">
     <g id="line2d_30">
      <g>
       <use xlink:href="#med4c500662" x="327.288336" y="252" style="stroke: #000000; stroke-width: 0.6"/>
      </g>
     </g>
    </g>
    <g id="xtick_31">
     <g id="line2d_31">
      <g>
       <use xlink:href="#med4c500662" x="358.012715" y="252" style="stroke: #000000; stroke-width: 0.6"/>
      </g>
     </g>
    </g>
    <g id="xtick_32">
     <g id="line2d_32">
      <g>
       <use xlink:href="#med4c500662" x="373.613896" y="252" style="stroke: #000000; stroke-width: 0.6"/>
      </g>
     </g>
    </g>
    <g id="xtick_33">
     <g id="line2d_33">
      <g>
       <use xlink:href="#med4c500662" x="384.68311" y="252" style="stroke: #000000; stroke-width: 0.6"/>
      </g>
     </g>
    </g>
    <g id="text_5">
     <!-- Resources -->
     <g transform="translate(195.867969 280.276563)scale(0.1 -0.1)">
      <defs>
       <path id="DejaVuSans-52" d="M 2841 2188 
Q 3044 2119 3236 1894 
Q 3428 1669 3622 1275 
L 4263 0 
L 3584 0 
L 2988 1197 
Q 2756 1666 2539 1819 
Q 2322 1972 1947 1972 
L 1259 1972 
L 1259 0 
L 628 0 
L 628 4666 
L 2053 4666 
Q 2853 4666 3247 4331 
Q 3641 3997 3641 3322 
Q 3641 2881 3436 2590 
Q 3231 2300 2841 2188 
z
M 1259 4147 
L 1259 2491 
L 2053 2491 
Q 2509 2491 2742 2702 
Q 2975 2913 2975 3322 
Q 2975 3731 2742 3939 
Q 2509 4147 2053 4147 
L 1259 4147 
z
" transform="scale(0.015625)"/>
       <path id="DejaVuSans-65" d="M 3597 1894 
L 3597 1613 
L 953 1613 
Q 991 1019 1311 708 
Q 1631 397 2203 397 
Q 2534 397 2845 478 
Q 3156 559 3463 722 
L 3463 178 
Q 3153 47 2828 -22 
Q 2503 -91 2169 -91 
Q 1331 -91 842 396 
Q 353 884 353 1716 
Q 353 2575 817 3079 
Q 1281 3584 2069 3584 
Q 2775 3584 3186 3129 
Q 3597 2675 3597 1894 
z
M 3022 2063 
Q 3016 2534 2758 2815 
Q 2500 3097 2075 3097 
Q 1594 3097 1305 2825 
Q 1016 2553 972 2059 
L 3022 2063 
z
" transform="scale(0.015625)"/>
       <path id="DejaVuSans-73" d="M 2834 3397 
L 2834 2853 
Q 2591 2978 2328 3040 
Q 2066 3103 1784 3103 
Q 1356 3103 1142 2972 
Q 928 2841 928 2578 
Q 928 2378 1081 2264 
Q 1234 2150 1697 2047 
L 1894 2003 
Q 2506 1872 2764 1633 
Q 3022 1394 3022 966 
Q 3022 478 2636 193 
Q 2250 -91 1575 -91 
Q 1294 -91 989 -36 
Q 684 19 347 128 
L 347 722 
Q 666 556 975 473 
Q 1284 391 1588 391 
Q 1994 391 2212 530 
Q 2431 669 2431 922 
Q 2431 1156 2273 1281 
Q 2116 1406 1581 1522 
L 1381 1569 
Q 847 1681 609 1914 
Q 372 2147 372 2553 
Q 372 3047 722 3315 
Q 1072 3584 1716 3584 
Q 2034 3584 2315 3537 
Q 2597 3491 2834 3397 
z
" transform="scale(0.015625)"/>
       <path id="DejaVuSans-6f" d="M 1959 3097 
Q 1497 3097 1228 2736 
Q 959 2375 959 1747 
Q 959 1119 1226 758 
Q 1494 397 1959 397 
Q 2419 397 2687 759 
Q 2956 1122 2956 1747 
Q 2956 2369 2687 2733 
Q 2419 3097 1959 3097 
z
M 1959 3584 
Q 2709 3584 3137 3096 
Q 3566 2609 3566 1747 
Q 3566 888 3137 398 
Q 2709 -91 1959 -91 
Q 1206 -91 779 398 
Q 353 888 353 1747 
Q 353 2609 779 3096 
Q 1206 3584 1959 3584 
z
" transform="scale(0.015625)"/>
       <path id="DejaVuSans-75" d="M 544 1381 
L 544 3500 
L 1119 3500 
L 1119 1403 
Q 1119 906 1312 657 
Q 1506 409 1894 409 
Q 2359 409 2629 706 
Q 2900 1003 2900 1516 
L 2900 3500 
L 3475 3500 
L 3475 0 
L 2900 0 
L 2900 538 
Q 2691 219 2414 64 
Q 2138 -91 1772 -91 
Q 1169 -91 856 284 
Q 544 659 544 1381 
z
M 1991 3584 
L 1991 3584 
z
" transform="scale(0.015625)"/>
       <path id="DejaVuSans-72" d="M 2631 2963 
Q 2534 3019 2420 3045 
Q 2306 3072 2169 3072 
Q 1681 3072 1420 2755 
Q 1159 2438 1159 1844 
L 1159 0 
L 581 0 
L 581 3500 
L 1159 3500 
L 1159 2956 
Q 1341 3275 1631 3429 
Q 1922 3584 2338 3584 
Q 2397 3584 2469 3576 
Q 2541 3569 2628 3553 
L 2631 2963 
z
" transform="scale(0.015625)"/>
       <path id="DejaVuSans-63" d="M 3122 3366 
L 3122 2828 
Q 2878 2963 2633 3030 
Q 2388 3097 2138 3097 
Q 1578 3097 1268 2742 
Q 959 2388 959 1747 
Q 959 1106 1268 751 
Q 1578 397 2138 397 
Q 2388 397 2633 464 
Q 2878 531 3122 666 
L 3122 134 
Q 2881 22 2623 -34 
Q 2366 -91 2075 -91 
Q 1284 -91 818 406 
Q 353 903 353 1747 
Q 353 2603 823 3093 
Q 1294 3584 2113 3584 
Q 2378 3584 2631 3529 
Q 2884 3475 3122 3366 
z
" transform="scale(0.015625)"/>
      </defs>
      <use xlink:href="#DejaVuSans-52"/>
      <use xlink:href="#DejaVuSans-65" x="64.982422"/>
      <use xlink:href="#DejaVuSans-73" x="126.505859"/>
      <use xlink:href="#DejaVuSans-6f" x="178.605469"/>
      <use xlink:href="#DejaVuSans-75" x="239.787109"/>
      <use xlink:href="#DejaVuSans-72" x="303.166016"/>
      <use xlink:href="#DejaVuSans-63" x="342.029297"/>
      <use xlink:href="#DejaVuSans-65" x="397.009766"/>
      <use xlink:href="#DejaVuSans-73" x="458.533203"/>
     </g>
    </g>
   </g>
   <g id="matplotlib.axis_2">
    <g id="ytick_1">
     <g id="line2d_34">
      <defs>
       <path id="mc6b3ec0b5c" d="M 0 0 
L -3.5 0 
" style="stroke: #000000; stroke-width: 0.8"/>
      </defs>
      <g>
       <use xlink:href="#mc6b3ec0b5c" x="54" y="251.73455" style="stroke: #000000; stroke-width: 0.8"/>
      </g>
     </g>
     <g id="text_6">
      <!-- $\mathdefault{10^{-4}}$ -->
      <g transform="translate(23.5 255.533769)scale(0.1 -0.1)">
       <defs>
        <path id="DejaVuSans-2212" d="M 678 2272 
L 4684 2272 
L 4684 1741 
L 678 1741 
L 678 2272 
z
" transform="scale(0.015625)"/>
       </defs>
       <use xlink:href="#DejaVuSans-31" transform="translate(0 0.684375)"/>
       <use xlink:href="#DejaVuSans-30" transform="translate(63.623047 0.684375)"/>
       <use xlink:href="#DejaVuSans-2212" transform="translate(128.203125 38.965625)scale(0.7)"/>
       <use xlink:href="#DejaVuSans-34" transform="translate(186.855469 38.965625)scale(0.7)"/>
      </g>
     </g>
    </g>
    <g id="ytick_2">
     <g id="line2d_35">
      <g>
       <use xlink:href="#mc6b3ec0b5c" x="54" y="194.194044" style="stroke: #000000; stroke-width: 0.8"/>
      </g>
     </g>
     <g id="text_7">
      <!-- $\mathdefault{10^{-3}}$ -->
      <g transform="translate(23.5 197.993262)scale(0.1 -0.1)">
       <use xlink:href="#DejaVuSans-31" transform="translate(0 0.765625)"/>
       <use xlink:href="#DejaVuSans-30" transform="translate(63.623047 0.765625)"/>
       <use xlink:href="#DejaVuSans-2212" transform="translate(128.203125 39.046875)scale(0.7)"/>
       <use xlink:href="#DejaVuSans-33" transform="translate(186.855469 39.046875)scale(0.7)"/>
      </g>
     </g>
    </g>
    <g id="ytick_3">
     <g id="line2d_36">
      <g>
       <use xlink:href="#mc6b3ec0b5c" x="54" y="136.653538" style="stroke: #000000; stroke-width: 0.8"/>
      </g>
     </g>
     <g id="text_8">
      <!-- $\mathdefault{10^{-2}}$ -->
      <g transform="translate(23.5 140.452756)scale(0.1 -0.1)">
       <use xlink:href="#DejaVuSans-31" transform="translate(0 0.765625)"/>
       <use xlink:href="#DejaVuSans-30" transform="translate(63.623047 0.765625)"/>
       <use xlink:href="#DejaVuSans-2212" transform="translate(128.203125 39.046875)scale(0.7)"/>
       <use xlink:href="#DejaVuSans-32" transform="translate(186.855469 39.046875)scale(0.7)"/>
      </g>
     </g>
    </g>
    <g id="ytick_4">
     <g id="line2d_37">
      <g>
       <use xlink:href="#mc6b3ec0b5c" x="54" y="79.113032" style="stroke: #000000; stroke-width: 0.8"/>
      </g>
     </g>
     <g id="text_9">
      <!-- $\mathdefault{10^{-1}}$ -->
      <g transform="translate(23.5 82.91225)scale(0.1 -0.1)">
       <use xlink:href="#DejaVuSans-31" transform="translate(0 0.684375)"/>
       <use xlink:href="#DejaVuSans-30" transform="translate(63.623047 0.684375)"/>
       <use xlink:href="#DejaVuSans-2212" transform="translate(128.203125 38.965625)scale(0.7)"/>
       <use xlink:href="#DejaVuSans-31" transform="translate(186.855469 38.965625)scale(0.7)"/>
      </g>
     </g>
    </g>
    <g id="ytick_5">
     <g id="line2d_38">
      <defs>
       <path id="ma9b08fd180" d="M 0 0 
L -2 0 
" style="stroke: #000000; stroke-width: 0.6"/>
      </defs>
      <g>
       <use xlink:href="#ma9b08fd180" x="54" y="234.413131" style="stroke: #000000; stroke-width: 0.6"/>
      </g>
     </g>
    </g>
    <g id="ytick_6">
     <g id="line2d_39">
      <g>
       <use xlink:href="#ma9b08fd180" x="54" y="224.280751" style="stroke: #000000; stroke-width: 0.6"/>
      </g>
     </g>
    </g>
    <g id="ytick_7">
     <g id="line2d_40">
      <g>
       <use xlink:href="#ma9b08fd180" x="54" y="217.091713" style="stroke: #000000; stroke-width: 0.6"/>
      </g>
     </g>
    </g>
    <g id="ytick_8">
     <g id="line2d_41">
      <g>
       <use xlink:href="#ma9b08fd180" x="54" y="211.515462" style="stroke: #000000; stroke-width: 0.6"/>
      </g>
     </g>
    </g>
    <g id="ytick_9">
     <g id="line2d_42">
      <g>
       <use xlink:href="#ma9b08fd180" x="54" y="206.959333" style="stroke: #000000; stroke-width: 0.6"/>
      </g>
     </g>
    </g>
    <g id="ytick_10">
     <g id="line2d_43">
      <g>
       <use xlink:href="#ma9b08fd180" x="54" y="203.107181" style="stroke: #000000; stroke-width: 0.6"/>
      </g>
     </g>
    </g>
    <g id="ytick_11">
     <g id="line2d_44">
      <g>
       <use xlink:href="#ma9b08fd180" x="54" y="199.770295" style="stroke: #000000; stroke-width: 0.6"/>
      </g>
     </g>
    </g>
    <g id="ytick_12">
     <g id="line2d_45">
      <g>
       <use xlink:href="#ma9b08fd180" x="54" y="196.826953" style="stroke: #000000; stroke-width: 0.6"/>
      </g>
     </g>
    </g>
    <g id="ytick_13">
     <g id="line2d_46">
      <g>
       <use xlink:href="#ma9b08fd180" x="54" y="176.872625" style="stroke: #000000; stroke-width: 0.6"/>
      </g>
     </g>
    </g>
    <g id="ytick_14">
     <g id="line2d_47">
      <g>
       <use xlink:href="#ma9b08fd180" x="54" y="166.740245" style="stroke: #000000; stroke-width: 0.6"/>
      </g>
     </g>
    </g>
    <g id="ytick_15">
     <g id="line2d_48">
      <g>
       <use xlink:href="#ma9b08fd180" x="54" y="159.551207" style="stroke: #000000; stroke-width: 0.6"/>
      </g>
     </g>
    </g>
    <g id="ytick_16">
     <g id="line2d_49">
      <g>
       <use xlink:href="#ma9b08fd180" x="54" y="153.974956" style="stroke: #000000; stroke-width: 0.6"/>
      </g>
     </g>
    </g>
    <g id="ytick_17">
     <g id="line2d_50">
      <g>
       <use xlink:href="#ma9b08fd180" x="54" y="149.418827" style="stroke: #000000; stroke-width: 0.6"/>
      </g>
     </g>
    </g>
    <g id="ytick_18">
     <g id="line2d_51">
      <g>
       <use xlink:href="#ma9b08fd180" x="54" y="145.566675" style="stroke: #000000; stroke-width: 0.6"/>
      </g>
     </g>
    </g>
    <g id="ytick_19">
     <g id="line2d_52">
      <g>
       <use xlink:href="#ma9b08fd180" x="54" y="142.229789" style="stroke: #000000; stroke-width: 0.6"/>
      </g>
     </g>
    </g>
    <g id="ytick_20">
     <g id="line2d_53">
      <g>
       <use xlink:href="#ma9b08fd180" x="54" y="139.286447" style="stroke: #000000; stroke-width: 0.6"/>
      </g>
     </g>
    </g>
    <g id="ytick_21">
     <g id="line2d_54">
      <g>
       <use xlink:href="#ma9b08fd180" x="54" y="119.332119" style="stroke: #000000; stroke-width: 0.6"/>
      </g>
     </g>
    </g>
    <g id="ytick_22">
     <g id="line2d_55">
      <g>
       <use xlink:href="#ma9b08fd180" x="54" y="109.199739" style="stroke: #000000; stroke-width: 0.6"/>
      </g>
     </g>
    </g>
    <g id="ytick_23">
     <g id="line2d_56">
      <g>
       <use xlink:href="#ma9b08fd180" x="54" y="102.010701" style="stroke: #000000; stroke-width: 0.6"/>
      </g>
     </g>
    </g>
    <g id="ytick_24">
     <g id="line2d_57">
      <g>
       <use xlink:href="#ma9b08fd180" x="54" y="96.43445" style="stroke: #000000; stroke-width: 0.6"/>
      </g>
     </g>
    </g>
    <g id="ytick_25">
     <g id="line2d_58">
      <g>
       <use xlink:href="#ma9b08fd180" x="54" y="91.878321" style="stroke: #000000; stroke-width: 0.6"/>
      </g>
     </g>
    </g>
    <g id="ytick_26">
     <g id="line2d_59">
      <g>
       <use xlink:href="#ma9b08fd180" x="54" y="88.026169" style="stroke: #000000; stroke-width: 0.6"/>
      </g>
     </g>
    </g>
    <g id="ytick_27">
     <g id="line2d_60">
      <g>
       <use xlink:href="#ma9b08fd180" x="54" y="84.689283" style="stroke: #000000; stroke-width: 0.6"/>
      </g>
     </g>
    </g>
    <g id="ytick_28">
     <g id="line2d_61">
      <g>
       <use xlink:href="#ma9b08fd180" x="54" y="81.745941" style="stroke: #000000; stroke-width: 0.6"/>
      </g>
     </g>
    </g>
    <g id="ytick_29">
     <g id="line2d_62">
      <g>
       <use xlink:href="#ma9b08fd180" x="54" y="61.791613" style="stroke: #000000; stroke-width: 0.6"/>
      </g>
     </g>
    </g>
    <g id="ytick_30">
     <g id="line2d_63">
      <g>
       <use xlink:href="#ma9b08fd180" x="54" y="51.659233" style="stroke: #000000; stroke-width: 0.6"/>
      </g>
     </g>
    </g>
    <g id="ytick_31">
     <g id="line2d_64">
      <g>
       <use xlink:href="#ma9b08fd180" x="54" y="44.470195" style="stroke: #000000; stroke-width: 0.6"/>
      </g>
     </g>
    </g>
    <g id="ytick_32">
     <g id="line2d_65">
      <g>
       <use xlink:href="#ma9b08fd180" x="54" y="38.893944" style="stroke: #000000; stroke-width: 0.6"/>
      </g>
     </g>
    </g>
    <g id="text_10">
     <!-- MSE -->
     <g transform="translate(17.420313 153.927656)rotate(-90)scale(0.1 -0.1)">
      <defs>
       <path id="DejaVuSans-4d" d="M 628 4666 
L 1569 4666 
L 2759 1491 
L 3956 4666 
L 4897 4666 
L 4897 0 
L 4281 0 
L 4281 4097 
L 3078 897 
L 2444 897 
L 1241 4097 
L 1241 0 
L 628 0 
L 628 4666 
z
" transform="scale(0.015625)"/>
       <path id="DejaVuSans-53" d="M 3425 4513 
L 3425 3897 
Q 3066 4069 2747 4153 
Q 2428 4238 2131 4238 
Q 1616 4238 1336 4038 
Q 1056 3838 1056 3469 
Q 1056 3159 1242 3001 
Q 1428 2844 1947 2747 
L 2328 2669 
Q 3034 2534 3370 2195 
Q 3706 1856 3706 1288 
Q 3706 609 3251 259 
Q 2797 -91 1919 -91 
Q 1588 -91 1214 -16 
Q 841 59 441 206 
L 441 856 
Q 825 641 1194 531 
Q 1563 422 1919 422 
Q 2459 422 2753 634 
Q 3047 847 3047 1241 
Q 3047 1584 2836 1778 
Q 2625 1972 2144 2069 
L 1759 2144 
Q 1053 2284 737 2584 
Q 422 2884 422 3419 
Q 422 4038 858 4394 
Q 1294 4750 2059 4750 
Q 2388 4750 2728 4690 
Q 3069 4631 3425 4513 
z
" transform="scale(0.015625)"/>
       <path id="DejaVuSans-45" d="M 628 4666 
L 3578 4666 
L 3578 4134 
L 1259 4134 
L 1259 2753 
L 3481 2753 
L 3481 2222 
L 1259 2222 
L 1259 531 
L 3634 531 
L 3634 0 
L 628 0 
L 628 4666 
z
" transform="scale(0.015625)"/>
      </defs>
      <use xlink:href="#DejaVuSans-4d"/>
      <use xlink:href="#DejaVuSans-53" x="86.279297"/>
      <use xlink:href="#DejaVuSans-45" x="149.755859"/>
     </g>
    </g>
   </g>
   <g id="line2d_66">
    <path d="M 69.218182 68.529684 
L 72.56614 69.909571 
L 75.645963 70.648308 
L 78.497434 70.359375 
L 81.15209 71.204252 
L 83.635354 71.433081 
L 85.968023 71.954029 
L 88.167321 71.976441 
L 90.247679 72.692612 
L 92.221304 72.872438 
L 94.098615 72.778463 
L 95.888578 72.968008 
L 97.598959 73.345241 
L 100.807254 73.599496 
L 102.316359 73.341312 
L 109.084148 74.012797 
L 110.30575 73.924292 
L 111.489759 74.248797 
L 112.638419 74.203413 
L 114.837717 74.476015 
L 115.891954 74.394855 
L 116.918075 74.6041 
L 117.91754 74.550573 
L 119.841804 74.705088 
L 121.6744 74.757223 
L 122.558973 74.73875 
L 124.269355 75.071741 
L 125.096854 75.10514 
L 125.906932 75.012887 
L 128.2396 75.22872 
L 128.986755 75.16921 
L 129.719677 75.268828 
L 130.438899 75.082345 
L 131.144923 75.229268 
L 133.84619 75.123572 
L 134.492881 75.26455 
L 136.370192 75.336074 
L 136.976146 75.12305 
L 138.738771 75.318388 
L 139.308814 75.351813 
L 139.870536 75.247684 
L 141.508113 75.359252 
L 142.038842 75.275507 
L 143.078831 75.328057 
L 145.078099 75.237278 
L 145.562096 75.396234 
L 146.04008 75.260052 
L 146.512199 75.50601 
L 146.978596 75.462742 
L 147.439407 75.305011 
L 147.894764 75.424998 
L 148.344796 75.1995 
L 148.789624 75.364821 
L 149.229369 74.958994 
L 149.664145 75.16825 
L 150.094063 74.901997 
L 150.51923 75.181823 
L 150.93975 74.759391 
L 151.355725 75.141017 
L 151.76725 74.897321 
L 152.17442 75.475804 
L 152.577327 74.922178 
L 152.976059 75.365475 
L 153.370701 75.234394 
L 153.761336 75.492386 
L 162.733995 75.704144 
L 175.68052 79.454026 
L 185.350408 81.82807 
L 193.071664 88.634414 
L 199.499445 94.547097 
L 205.005572 98.097457 
L 214.101162 107.64733 
L 217.952098 109.46048 
L 224.660736 115.127739 
L 227.621985 119.285229 
L 230.371529 121.60292 
L 235.343241 125.300237 
L 237.607262 127.425524 
L 239.745437 127.891408 
L 241.771022 130.306707 
L 243.695286 132.309172 
L 245.527882 134.410608 
L 247.277149 135.487195 
L 248.950336 136.754021 
L 250.553787 137.290891 
L 252.093082 138.970492 
L 253.573159 141.205915 
L 254.998405 143.568 
L 256.372739 141.406082 
L 257.699672 144.539785 
L 258.982365 144.567354 
L 260.223675 144.11093 
L 261.426186 144.85387 
L 262.592253 148.259087 
L 263.724018 148.191034 
L 264.823443 147.38066 
L 265.892324 150.112449 
L 266.932313 148.380155 
L 267.944931 149.382116 
L 268.931581 153.178291 
L 269.893562 151.557937 
L 270.832078 152.552075 
L 271.748246 152.990974 
L 272.643106 154.062875 
L 273.517627 154.815383 
L 274.372712 156.345421 
L 275.209207 154.16494 
L 276.027903 154.808189 
L 276.829541 155.845264 
L 277.614818 155.403027 
L 278.384389 157.895009 
L 279.138869 159.61413 
L 279.878839 158.576783 
L 280.604846 157.881291 
L 281.317408 159.886399 
L 282.017014 159.490431 
L 282.704126 160.88209 
L 283.379182 160.533845 
L 284.0426 159.519161 
L 284.694772 162.686407 
L 285.336074 160.933875 
L 285.966863 164.329459 
L 286.587477 164.605783 
L 287.19824 163.960861 
L 287.799459 162.259914 
L 288.391428 164.719691 
L 288.974428 163.287453 
L 289.548726 164.344817 
L 290.114578 163.595776 
L 290.672229 167.298363 
L 291.221914 165.483938 
L 291.763856 165.526241 
L 292.29827 167.557797 
L 292.825364 165.873706 
L 293.345335 165.776676 
L 293.858373 166.493073 
L 294.364659 165.381041 
L 294.864371 166.107412 
L 295.357676 167.049622 
L 295.844736 166.647431 
L 296.800742 170.326919 
L 297.269982 170.297948 
L 297.733569 168.869254 
L 298.191637 169.228464 
L 298.644316 169.848022 
L 299.091731 170.10339 
L 299.534003 170.809594 
L 299.971249 170.824123 
L 300.831111 172.475836 
L 301.253943 171.633491 
L 301.672178 172.211764 
L 302.085915 172.329363 
L 302.495252 173.027909 
L 302.900279 172.049073 
L 303.301087 173.401818 
L 303.697764 172.886502 
L 304.479054 175.013509 
L 304.86383 173.807602 
L 305.244796 173.382236 
L 305.995595 176.046446 
L 306.365572 174.936956 
L 306.732024 174.45728 
L 307.09502 178.346161 
L 307.454623 175.045023 
L 307.810896 174.900727 
L 308.163901 176.695807 
L 308.513697 174.792387 
L 308.860341 177.675486 
L 309.20389 177.504302 
L 309.544399 176.186976 
L 309.881921 175.940393 
L 310.216508 176.796719 
L 310.54821 176.874215 
L 310.877078 178.212148 
L 311.203158 177.533256 
L 311.526498 178.746541 
L 311.847144 179.139068 
L 312.165139 179.885344 
L 312.480528 179.656182 
L 312.793353 178.467619 
L 313.103655 179.101149 
L 313.411475 179.113415 
L 313.716851 178.911543 
L 314.019823 181.853318 
L 314.320428 180.215683 
L 314.618703 179.599717 
L 314.914683 181.974289 
L 315.208404 181.80763 
L 315.4999 183.601683 
L 315.789204 180.374336 
L 316.076349 179.715763 
L 316.361367 179.356132 
L 316.644289 182.755699 
L 316.925146 182.573461 
L 317.203968 182.570525 
L 317.480784 183.983595 
L 317.755623 184.544248 
L 318.028512 182.638985 
L 318.29948 184.739503 
L 318.568552 183.367364 
L 318.835757 183.97921 
L 319.101118 182.585379 
L 319.364662 183.679019 
L 319.626413 183.685219 
L 319.886395 184.918796 
L 320.144633 183.73003 
L 320.401149 184.959571 
L 320.655966 184.8212 
L 320.909107 185.060651 
L 321.160593 183.711398 
L 321.410446 183.106639 
L 321.658687 184.608361 
L 321.905337 183.963649 
L 322.150416 187.686499 
L 322.393943 185.739298 
L 322.635939 185.503571 
L 323.115413 184.387741 
L 323.352928 184.992802 
L 323.588985 186.83856 
L 323.823603 186.21969 
L 324.056799 184.502896 
L 324.288591 185.447309 
L 324.518994 187.533076 
L 324.748026 185.911652 
L 324.975703 186.7331 
L 325.20204 185.84361 
L 325.650759 187.177038 
L 326.094306 187.27746 
L 326.314177 187.856768 
L 326.532798 189.41932 
L 326.750184 187.971023 
L 326.966349 190.229395 
L 327.181306 186.377664 
L 327.395069 189.248523 
L 327.607651 187.283107 
L 327.819065 187.613123 
L 328.029324 188.585612 
L 328.23844 187.061991 
L 328.446426 188.286866 
L 328.653293 187.942111 
L 328.859054 189.446547 
L 329.063721 189.069543 
L 329.267305 189.432072 
L 329.469817 187.602091 
L 329.671269 190.971804 
L 329.871672 189.994464 
L 330.071036 191.174545 
L 330.269373 190.214224 
L 330.663006 191.197476 
L 330.858322 190.20659 
L 331.052652 190.063479 
L 331.246005 189.200363 
L 331.438392 192.281568 
L 331.629821 191.786995 
L 331.820303 192.958751 
L 332.009847 190.666411 
L 332.198461 192.137258 
L 332.386155 191.327106 
L 332.572938 194.168257 
L 332.758819 191.953837 
L 332.943806 193.039494 
L 333.127908 193.060636 
L 333.311134 193.875347 
L 333.493491 192.085904 
L 333.674987 192.126643 
L 333.855632 192.637615 
L 334.392533 194.887266 
L 334.569847 195.05091 
L 334.746349 194.399381 
L 334.922044 192.440809 
L 335.096941 193.77568 
L 335.271047 194.20815 
L 335.444368 194.025727 
L 335.616912 194.040005 
L 335.788686 193.218359 
L 335.959696 195.294026 
L 336.12995 192.984983 
L 336.299453 194.401924 
L 336.468213 194.004539 
L 336.636236 194.864712 
L 336.803529 194.002131 
L 337.135948 194.94518 
L 337.301087 194.251264 
L 337.46552 194.86092 
L 337.629253 194.267861 
L 337.792292 196.204072 
L 337.954644 195.924349 
L 338.116313 194.508167 
L 338.277306 195.288696 
L 338.437628 194.603456 
L 338.597285 195.833996 
L 338.756282 195.113904 
L 339.229369 196.992769 
L 339.385781 198.284361 
L 339.541559 196.823966 
L 339.69671 197.05768 
L 339.851237 196.828309 
L 340.005146 195.694766 
L 340.158442 198.712655 
L 340.31113 195.242298 
L 340.614699 198.668958 
L 340.765591 196.705254 
L 340.915893 198.298266 
L 341.06561 196.689632 
L 341.363308 198.157299 
L 341.511297 198.072871 
L 341.65872 197.753973 
L 341.80558 198.252123 
L 342.097629 197.646506 
L 342.242826 197.864639 
L 342.387477 199.546455 
L 342.531587 196.684315 
L 342.675159 196.944972 
L 342.818197 198.998024 
L 342.960706 199.42484 
L 343.102688 199.126104 
L 343.244149 199.791854 
L 343.385092 199.535344 
L 343.665437 200.0147 
L 343.804847 199.510558 
L 344.082162 197.854687 
L 344.220074 199.07737 
L 344.357493 198.47876 
L 344.494422 199.631142 
L 344.630867 196.982091 
L 344.766829 199.934932 
L 344.902312 199.769915 
L 345.03732 200.673139 
L 345.171856 199.325311 
L 345.305923 200.415892 
L 345.439525 199.522833 
L 345.572664 200.356826 
L 345.705345 198.556226 
L 345.969341 200.253834 
L 346.231538 198.889331 
L 346.361969 201.413277 
L 346.621513 199.745637 
L 346.750631 202.768062 
L 347.007576 200.334806 
L 347.135407 199.923351 
L 347.262815 200.092604 
L 347.516373 199.23731 
L 347.768271 201.866866 
L 347.893604 200.710281 
L 348.01853 201.015601 
L 348.143052 200.961882 
L 348.267172 200.527975 
L 348.637149 201.728865 
L 348.759688 203.258432 
L 349.003602 201.0381 
L 349.124981 200.803756 
L 349.366597 203.214075 
L 349.486839 201.594931 
L 349.7262 203.890628 
L 349.845325 203.641026 
L 349.964082 203.863867 
L 350.200502 202.381339 
L 350.435478 203.385245 
L 350.552431 201.785895 
L 350.901169 204.878925 
L 351.131918 203.780358 
L 351.246776 203.802144 
L 351.361291 203.999786 
L 351.475467 204.68692 
L 351.589305 204.428512 
L 351.702808 203.030752 
L 351.815976 204.98571 
L 352.041319 203.510223 
L 352.153498 203.439155 
L 352.265351 202.725639 
L 352.488085 204.730425 
L 352.59897 203.712551 
L 352.709537 205.643251 
L 353.039344 203.976889 
L 353.148655 205.821818 
L 353.366348 204.970215 
L 353.474735 204.542376 
L 353.582817 203.299974 
L 353.690597 205.017702 
L 353.905254 203.473601 
L 354.012135 203.82056 
L 354.118721 206.106227 
L 354.225011 204.403738 
L 354.331009 204.450184 
L 354.542133 205.961496 
L 354.647263 205.903441 
L 354.752105 205.263428 
L 354.856663 206.897395 
L 354.960938 204.79568 
L 355.06493 204.809616 
L 355.168643 205.709916 
L 355.272076 207.633308 
L 355.375232 206.372349 
L 355.478113 207.188165 
L 355.580719 206.473837 
L 355.683052 204.975254 
L 355.785114 205.444898 
L 355.886905 205.286476 
L 355.988428 205.542134 
L 356.190675 205.427095 
L 356.2914 206.115897 
L 356.391863 206.016431 
L 356.492065 204.357051 
L 356.791112 207.737337 
L 356.89028 206.004537 
L 357.087853 206.53978 
L 357.186261 206.395491 
L 357.284417 207.703728 
L 357.382323 207.526932 
L 357.479981 206.280451 
L 357.577392 207.310679 
L 357.771477 204.775016 
L 357.964588 208.837115 
L 358.060781 207.716644 
L 358.156734 206.31492 
L 358.347926 208.136681 
L 358.443167 208.168232 
L 358.538172 209.019003 
L 358.632944 207.752141 
L 358.727483 208.84145 
L 358.915866 206.620766 
L 359.103332 206.718088 
L 359.289889 208.561655 
L 359.382829 207.43578 
L 359.475545 209.596206 
L 359.568039 206.492955 
L 359.66031 206.703949 
L 359.752361 209.592313 
L 359.844192 207.932341 
L 359.935805 209.184201 
L 360.0272 207.872411 
L 360.118378 208.92816 
L 360.209341 207.68949 
L 360.300089 210.13399 
L 360.390624 208.957134 
L 360.480946 210.867319 
L 360.571057 208.199089 
L 360.660957 208.730909 
L 360.750648 208.331964 
L 360.84013 209.345639 
L 360.929404 207.856506 
L 361.195991 209.618564 
L 361.284445 208.759049 
L 361.548591 210.230157 
L 361.636239 210.733721 
L 361.723687 210.624826 
L 361.810937 209.354502 
L 361.89799 209.645103 
L 361.984846 209.311966 
L 362.071507 209.532481 
L 362.157972 211.642601 
L 362.244244 209.506367 
L 362.41621 210.934249 
L 362.58741 210.058423 
L 362.672726 211.105537 
L 362.757852 209.005402 
L 363.012108 211.526963 
L 363.096488 208.822889 
L 363.180684 211.520399 
L 363.264695 211.135189 
L 363.515635 208.770948 
L 363.598919 210.804683 
L 363.682023 210.451448 
L 363.764948 209.634928 
L 363.847695 211.369756 
L 363.930264 210.691813 
L 364.012657 211.181905 
L 364.094873 212.606417 
L 364.25878 210.421625 
L 364.421993 212.46707 
L 364.50334 212.078407 
L 364.665521 210.443065 
L 364.82702 213.746312 
L 364.987845 211.399574 
L 365.068006 209.405626 
L 365.148 212.253384 
L 365.227828 212.244257 
L 365.307492 209.869111 
L 365.38699 212.37305 
L 365.466325 211.347901 
L 365.545496 211.566507 
L 365.624505 213.554509 
L 365.703352 211.388771 
L 365.782037 212.534165 
L 365.860562 211.485771 
L 365.938927 212.697659 
L 366.017133 210.552852 
L 366.173069 214.225026 
L 366.250801 211.367716 
L 366.328376 212.896915 
L 366.483059 210.754788 
L 366.560168 212.106882 
L 366.637122 211.527987 
L 366.713923 212.469096 
L 366.790571 215.411755 
L 366.94341 211.74429 
L 367.095645 213.512879 
L 367.24728 212.173279 
L 367.322874 213.006704 
L 367.398319 215.424893 
L 367.473617 214.283725 
L 367.548768 211.521758 
L 367.623772 213.606335 
L 367.698631 212.403289 
L 367.773344 214.361152 
L 367.847912 211.833755 
L 368.070754 214.344511 
L 368.144749 213.220514 
L 368.218602 215.14043 
L 368.292313 214.736265 
L 368.365883 213.26498 
L 368.439313 213.42479 
L 368.512603 213.594805 
L 368.585754 214.233783 
L 368.731639 212.010779 
L 368.804375 214.749478 
L 368.876974 214.539658 
L 368.949436 214.975623 
L 369.021761 213.182278 
L 369.166006 216.242229 
L 369.237926 213.999515 
L 369.309712 215.304882 
L 369.381364 214.071085 
L 369.452883 214.146267 
L 369.52427 214.930954 
L 369.595524 214.308506 
L 369.666646 216.128326 
L 369.737638 213.564472 
L 369.808498 216.703779 
L 369.879228 215.014567 
L 370.090642 215.830813 
L 370.230942 217.030543 
L 370.300901 216.240729 
L 370.370733 216.755726 
L 370.440438 214.794336 
L 370.510017 214.981256 
L 370.579471 215.092911 
L 370.718003 216.480127 
L 370.787082 216.026874 
L 370.856038 217.246364 
L 371.062166 213.87934 
L 371.335298 215.678991 
L 371.403279 213.780043 
L 371.47114 216.181568 
L 371.538882 213.922035 
L 371.606504 215.726348 
L 371.674008 215.40405 
L 371.741394 214.959009 
L 371.808662 213.739707 
L 371.942846 216.5701 
L 372.076564 214.73875 
L 372.143249 217.844189 
L 372.209819 214.852 
L 372.276273 217.299274 
L 372.342613 216.981224 
L 372.474951 214.716386 
L 372.54095 216.081134 
L 372.606836 215.846188 
L 372.73827 217.825086 
L 372.803819 214.345556 
L 372.869256 216.583344 
L 372.934583 215.98628 
L 372.999798 216.679969 
L 373.064904 216.002121 
L 373.129899 216.764306 
L 373.324229 214.641922 
L 373.388788 218.645808 
L 373.453239 215.543596 
L 373.517582 217.666082 
L 373.581818 217.311209 
L 373.581818 217.311209 
" clip-path="url(#p719f180fcd)" style="fill: none; stroke: #0000ff; stroke-width: 1.5; stroke-linecap: square"/>
   </g>
   <g id="line2d_67">
    <path d="M 69.218182 44.443636 
L 373.581818 242.116364 
L 373.581818 242.116364 
" clip-path="url(#p719f180fcd)" style="fill: none; stroke: #000000; stroke-width: 1.5; stroke-linecap: square"/>
   </g>
   <g id="patch_3">
    <path d="M 54 252 
L 54 34.56 
" style="fill: none; stroke: #000000; stroke-width: 0.8; stroke-linejoin: miter; stroke-linecap: square"/>
   </g>
   <g id="patch_4">
    <path d="M 388.8 252 
L 388.8 34.56 
" style="fill: none; stroke: #000000; stroke-width: 0.8; stroke-linejoin: miter; stroke-linecap: square"/>
   </g>
   <g id="patch_5">
    <path d="M 54 252 
L 388.8 252 
" style="fill: none; stroke: #000000; stroke-width: 0.8; stroke-linejoin: miter; stroke-linecap: square"/>
   </g>
   <g id="patch_6">
    <path d="M 54 34.56 
L 388.8 34.56 
" style="fill: none; stroke: #000000; stroke-width: 0.8; stroke-linejoin: miter; stroke-linecap: square"/>
   </g>
  </g>
 </g>
 <defs>
  <clipPath id="p719f180fcd">
   <rect x="54" y="34.56" width="334.8" height="217.44"/>
  </clipPath>
 </defs>
</svg>
