<?xml version="1.0" encoding="utf-8" standalone="no"?>
<!DOCTYPE svg PUBLIC "-//W3C//DTD SVG 1.1//EN"
  "http://www.w3.org/Graphics/SVG/1.1/DTD/svg11.dtd">
<svg xmlns:xlink="http://www.w3.org/1999/xlink" width="432pt" height="288pt" viewBox="0 0 432 288" xmlns="http://www.w3.org/2000/svg" version="1.1">
 <metadata>
  <rdf:RDF xmlns:dc="http://purl.org/dc/elements/1.1/" xmlns:cc="http://creativecommons.org/ns#" xmlns:rdf="http://www.w3.org/1999/02/22-rdf-syntax-ns#">
   <cc:Work>
    <dc:type rdf:resource="http://purl.org/dc/dcmitype/StillImage"/>
    <dc:date>2022-02-14T03:09:03.449398</dc:date>
    <dc:format>image/svg+xml</dc:format>
    <dc:creator>
     <cc:Agent>
      <dc:title>Matplotlib v3.5.1, https://matplotlib.org/</dc:title>
     </cc:Agent>
    </dc:creator>
   </cc:Work>
  </rdf:RDF>
 </metadata>
 <defs>
  <style type="text/css">*{stroke-linejoin: round; stroke-linecap: butt}</style>
 </defs>
 <g id="figure_1">
  <g id="patch_1">
   <path d="M 0 288 
L 432 288 
L 432 0 
L 0 0 
L 0 288 
z
" style="fill: none"/>
  </g>
  <g id="axes_1">
   <g id="patch_2">
    <path d="M 54 252 
L 388.8 252 
L 388.8 34.56 
L 54 34.56 
z
" style="fill: #ffffff"/>
   </g>
   <g id="PolyCollection_1">
    <defs>
     <path id="maf2daaa2c3" d="M 69.218182 -179.774283 
L 69.218182 -179.127518 
L 72.56614 -179.284014 
L 75.645963 -178.421515 
L 78.497434 -178.607002 
L 81.15209 -178.086659 
L 83.635354 -177.887118 
L 85.968023 -177.487958 
L 88.167321 -177.327691 
L 90.247679 -177.097721 
L 92.221304 -176.655508 
L 94.098615 -176.39611 
L 95.888578 -176.155625 
L 97.598959 -175.769819 
L 99.236536 -175.609135 
L 100.807254 -175.752082 
L 102.316359 -175.298202 
L 103.768503 -174.990502 
L 105.16783 -174.866229 
L 106.518047 -174.327799 
L 107.822486 -174.404106 
L 109.084148 -174.214976 
L 110.30575 -173.959323 
L 111.489759 -173.662062 
L 112.638419 -173.453786 
L 113.753779 -172.88933 
L 114.837717 -173.209724 
L 115.891954 -172.452902 
L 116.918075 -172.209645 
L 117.91754 -171.967661 
L 118.8917 -171.696732 
L 119.841804 -171.343182 
L 120.769011 -170.574224 
L 121.6744 -170.425888 
L 122.558973 -170.366036 
L 123.423667 -169.87035 
L 124.269355 -169.941132 
L 125.096854 -169.543409 
L 125.906932 -168.931628 
L 126.700305 -168.715401 
L 127.47765 -168.162518 
L 128.2396 -168.780063 
L 128.986755 -168.500793 
L 129.719677 -167.776622 
L 130.438899 -167.313526 
L 131.144923 -167.034673 
L 131.838225 -167.599651 
L 132.519256 -166.860332 
L 133.188443 -166.963893 
L 133.84619 -166.269491 
L 134.492881 -166.092132 
L 135.128883 -166.453978 
L 135.754543 -165.761083 
L 136.370192 -165.496455 
L 136.976146 -165.321469 
L 137.572704 -165.443136 
L 138.160155 -164.940396 
L 138.738771 -164.832112 
L 139.308814 -164.628187 
L 139.870536 -165.128188 
L 140.424175 -164.753285 
L 140.969961 -164.655681 
L 141.508113 -163.838748 
L 142.038842 -164.386062 
L 142.56235 -164.166358 
L 143.078831 -164.416077 
L 143.588471 -163.808592 
L 144.091448 -163.942688 
L 144.587936 -164.272152 
L 145.078099 -164.195892 
L 145.562096 -164.757123 
L 146.04008 -163.694091 
L 146.512199 -164.212266 
L 146.978596 -163.560266 
L 147.439407 -164.339883 
L 147.894764 -163.378199 
L 148.344796 -163.760802 
L 148.789624 -162.835277 
L 149.229369 -164.297422 
L 149.664145 -163.614875 
L 150.094063 -163.668273 
L 150.51923 -163.271346 
L 150.93975 -164.08488 
L 151.355725 -163.253893 
L 151.76725 -164.028397 
L 152.17442 -162.921526 
L 152.577327 -163.767018 
L 152.976059 -163.249503 
L 153.370701 -163.578123 
L 153.761336 -163.116213 
L 162.733995 -161.764208 
L 175.68052 -158.161224 
L 185.350408 -155.467595 
L 193.071664 -151.764375 
L 199.499445 -149.001005 
L 205.005572 -146.632442 
L 209.821505 -145.715233 
L 214.101162 -143.961282 
L 217.952098 -143.267163 
L 221.452441 -142.40979 
L 224.660736 -141.939281 
L 227.621985 -142.10461 
L 230.371529 -141.973049 
L 232.93763 -141.722553 
L 235.343241 -141.796788 
L 237.607262 -140.976585 
L 239.745437 -141.565807 
L 241.771022 -140.841736 
L 243.695286 -140.629503 
L 245.527882 -140.088852 
L 247.277149 -139.849334 
L 248.950336 -139.677249 
L 250.553787 -138.773645 
L 252.093082 -138.180193 
L 253.573159 -137.409799 
L 254.998405 -137.525867 
L 256.372739 -137.809632 
L 257.699672 -136.053057 
L 258.982365 -136.687318 
L 260.223675 -136.501726 
L 261.426186 -134.098456 
L 262.592253 -132.256442 
L 263.724018 -132.513475 
L 264.823443 -131.727209 
L 265.892324 -131.244963 
L 266.932313 -130.33277 
L 267.944931 -131.434238 
L 268.931581 -130.104243 
L 269.893562 -129.093569 
L 270.832078 -127.72395 
L 271.748246 -128.267115 
L 272.643106 -127.003661 
L 273.517627 -126.371962 
L 274.372712 -124.525038 
L 275.209207 -126.986836 
L 276.027903 -125.089773 
L 276.829541 -124.283432 
L 277.614818 -122.002028 
L 278.384389 -123.024486 
L 279.138869 -120.814651 
L 279.878839 -123.585263 
L 280.604846 -123.689391 
L 281.317408 -121.689313 
L 282.017014 -120.027145 
L 282.704126 -122.077757 
L 283.379182 -121.797313 
L 284.0426 -120.550502 
L 284.694772 -119.803649 
L 285.336074 -118.795751 
L 285.966863 -119.050792 
L 286.587477 -118.576353 
L 287.19824 -118.909376 
L 287.799459 -115.665155 
L 288.391428 -116.450353 
L 288.974428 -116.433664 
L 289.548726 -114.593224 
L 290.114578 -116.092129 
L 290.672229 -115.304428 
L 291.221914 -116.055814 
L 291.763856 -115.25737 
L 292.29827 -113.734365 
L 292.825364 -115.164773 
L 293.345335 -113.419211 
L 293.858373 -115.242794 
L 294.364659 -112.096468 
L 294.864371 -114.233827 
L 295.357676 -112.31859 
L 295.844736 -112.364904 
L 296.325708 -110.34916 
L 296.800742 -110.369072 
L 297.269982 -110.460211 
L 297.733569 -110.598993 
L 298.191637 -109.753479 
L 298.644316 -110.715334 
L 299.091731 -111.556599 
L 299.534003 -111.0225 
L 299.971249 -110.994361 
L 300.403582 -108.952565 
L 300.831111 -107.831744 
L 301.253943 -109.09306 
L 301.672178 -109.641222 
L 302.085915 -109.004955 
L 302.495252 -107.70652 
L 302.900279 -107.543841 
L 303.301087 -108.164302 
L 303.697764 -106.605238 
L 304.090392 -108.227047 
L 304.479054 -107.821476 
L 304.86383 -108.389159 
L 305.244796 -106.229778 
L 305.622027 -107.11492 
L 305.995595 -106.553253 
L 306.365572 -104.180072 
L 306.732024 -106.721029 
L 307.09502 -104.702576 
L 307.454623 -103.539368 
L 307.810896 -104.067566 
L 308.163901 -104.833183 
L 308.513697 -102.779484 
L 308.860341 -104.009818 
L 309.20389 -103.682574 
L 309.544399 -103.1991 
L 309.881921 -103.496361 
L 310.216508 -101.308217 
L 310.54821 -102.696378 
L 310.877078 -103.556878 
L 311.203158 -103.24013 
L 311.526498 -101.802403 
L 311.847144 -100.747977 
L 312.165139 -101.616833 
L 312.480528 -102.553372 
L 312.793353 -99.747951 
L 313.103655 -101.768429 
L 313.411475 -100.61505 
L 313.716851 -99.901811 
L 314.019823 -100.117377 
L 314.320428 -99.819738 
L 314.618703 -100.143237 
L 314.914683 -98.620964 
L 315.208404 -99.68077 
L 315.4999 -98.37706 
L 315.789204 -99.55864 
L 316.076349 -99.364386 
L 316.361367 -100.092643 
L 316.644289 -98.295104 
L 316.925146 -99.197495 
L 317.203968 -98.31836 
L 317.480784 -98.323252 
L 317.755623 -98.835839 
L 318.028512 -98.198036 
L 318.29948 -97.731418 
L 318.568552 -97.962693 
L 318.835757 -96.924014 
L 319.101118 -97.084863 
L 319.364662 -97.205146 
L 319.626413 -96.125337 
L 319.886395 -98.145347 
L 320.144633 -96.646705 
L 320.401149 -95.527635 
L 320.655966 -96.181489 
L 320.909107 -97.217322 
L 321.160593 -95.574248 
L 321.410446 -96.429673 
L 321.658687 -96.949306 
L 321.905337 -95.0378 
L 322.150416 -96.164867 
L 322.393943 -95.400179 
L 322.635939 -95.829726 
L 322.876423 -94.667094 
L 323.115413 -93.515331 
L 323.352928 -93.307803 
L 323.588985 -94.679662 
L 323.823603 -93.931565 
L 324.056799 -94.257884 
L 324.288591 -92.257919 
L 324.518994 -94.332986 
L 324.748026 -93.578154 
L 324.975703 -93.615272 
L 325.20204 -92.775212 
L 325.427054 -92.547296 
L 325.650759 -92.115427 
L 325.873172 -91.280106 
L 326.094306 -91.989562 
L 326.314177 -92.692317 
L 326.532798 -92.347278 
L 326.750184 -91.509318 
L 326.966349 -90.457561 
L 327.181306 -92.931415 
L 327.395069 -90.86115 
L 327.607651 -91.56966 
L 327.819065 -92.25014 
L 328.029324 -92.586313 
L 328.23844 -91.228874 
L 328.446426 -90.778961 
L 328.653293 -90.543069 
L 328.859054 -89.754749 
L 329.063721 -89.334877 
L 329.267305 -91.137414 
L 329.469817 -90.431476 
L 329.671269 -90.885744 
L 329.871672 -89.325571 
L 330.071036 -88.421182 
L 330.269373 -89.394332 
L 330.466693 -88.446616 
L 330.663006 -88.526544 
L 330.858322 -88.709947 
L 331.052652 -88.521127 
L 331.246005 -87.446379 
L 331.438392 -88.61195 
L 331.629821 -89.696494 
L 331.820303 -86.940475 
L 332.009847 -87.279971 
L 332.198461 -90.077994 
L 332.386155 -90.219662 
L 332.572938 -89.691357 
L 332.758819 -89.682643 
L 332.943806 -88.479247 
L 333.127908 -88.927474 
L 333.311134 -88.679249 
L 333.493491 -87.619477 
L 333.674987 -86.964923 
L 333.855632 -86.305941 
L 334.035433 -86.698016 
L 334.214397 -87.267835 
L 334.392533 -87.476354 
L 334.569847 -86.283895 
L 334.746349 -86.609749 
L 334.922044 -86.296187 
L 335.096941 -85.644157 
L 335.271047 -84.525208 
L 335.444368 -85.874695 
L 335.616912 -86.36363 
L 335.788686 -85.061063 
L 335.959696 -86.354462 
L 336.12995 -84.653814 
L 336.299453 -86.177732 
L 336.468213 -87.21375 
L 336.636236 -85.247654 
L 336.803529 -84.281274 
L 336.970098 -84.317927 
L 337.135948 -85.421782 
L 337.301087 -83.961852 
L 337.46552 -84.028748 
L 337.629253 -84.511206 
L 337.792292 -84.813625 
L 337.954644 -82.989099 
L 338.116313 -83.576178 
L 338.277306 -84.170062 
L 338.437628 -84.462861 
L 338.597285 -82.525882 
L 338.756282 -83.925116 
L 338.914625 -83.854476 
L 339.072319 -84.932988 
L 339.229369 -82.696471 
L 339.385781 -82.045446 
L 339.541559 -82.265902 
L 339.69671 -82.999151 
L 339.851237 -82.948713 
L 340.005146 -81.794412 
L 340.158442 -84.691844 
L 340.31113 -82.308595 
L 340.463214 -83.344529 
L 340.614699 -81.862178 
L 340.765591 -84.02032 
L 340.915893 -81.230962 
L 341.06561 -80.348434 
L 341.214747 -81.626598 
L 341.363308 -80.276528 
L 341.511297 -81.353616 
L 341.65872 -83.759905 
L 341.80558 -82.570682 
L 341.951881 -81.744565 
L 342.097629 -80.322386 
L 342.242826 -79.947553 
L 342.387477 -79.323104 
L 342.531587 -81.246271 
L 342.675159 -80.187945 
L 342.818197 -81.500547 
L 342.960706 -79.813609 
L 343.102688 -79.457852 
L 343.244149 -79.588071 
L 343.385092 -80.318596 
L 343.52552 -81.513801 
L 343.665437 -80.433502 
L 343.804847 -80.316698 
L 343.943755 -80.988322 
L 344.082162 -79.376147 
L 344.220074 -79.897272 
L 344.357493 -80.683786 
L 344.494422 -81.986574 
L 344.630867 -78.104397 
L 344.766829 -79.215706 
L 344.902312 -80.059377 
L 345.03732 -80.173444 
L 345.171856 -79.290175 
L 345.305923 -79.699704 
L 345.439525 -78.305377 
L 345.572664 -78.498828 
L 345.705345 -78.106485 
L 345.837569 -77.797833 
L 345.969341 -78.222256 
L 346.100662 -78.172002 
L 346.231538 -78.136353 
L 346.361969 -78.534799 
L 346.49196 -79.79229 
L 346.621513 -78.973851 
L 346.750631 -78.086546 
L 346.879318 -78.496416 
L 347.007576 -77.263625 
L 347.135407 -76.716355 
L 347.262815 -78.030834 
L 347.389803 -79.533343 
L 347.516373 -77.484664 
L 347.642528 -76.302589 
L 347.768271 -76.624404 
L 347.893604 -77.045577 
L 348.01853 -77.6474 
L 348.143052 -78.293832 
L 348.267172 -77.729981 
L 348.390894 -77.29893 
L 348.514218 -76.730966 
L 348.637149 -77.102092 
L 348.759688 -77.655945 
L 348.881838 -78.026824 
L 349.003602 -76.201998 
L 349.124981 -76.578257 
L 349.245979 -76.272341 
L 349.366597 -78.678342 
L 349.486839 -76.850055 
L 349.606706 -75.542516 
L 349.7262 -75.827653 
L 349.845325 -77.90978 
L 349.964082 -77.46025 
L 350.082474 -77.678947 
L 350.200502 -74.42855 
L 350.31817 -76.508362 
L 350.435478 -76.554142 
L 350.552431 -74.446624 
L 350.669028 -75.533592 
L 350.785274 -75.351952 
L 350.901169 -75.574758 
L 351.016717 -75.744682 
L 351.131918 -74.035938 
L 351.246776 -75.697193 
L 351.361291 -74.782028 
L 351.475467 -74.814303 
L 351.589305 -75.423365 
L 351.702808 -75.254941 
L 351.815976 -74.137819 
L 351.928813 -74.225359 
L 352.041319 -73.440857 
L 352.153498 -73.102369 
L 352.265351 -74.372412 
L 352.376879 -74.426241 
L 352.488085 -74.947153 
L 352.59897 -74.195938 
L 352.709537 -73.942717 
L 352.819787 -74.225217 
L 352.929722 -73.467101 
L 353.039344 -74.008048 
L 353.148655 -73.783053 
L 353.257655 -74.264212 
L 353.366348 -72.220437 
L 353.474735 -73.81861 
L 353.582817 -73.071356 
L 353.690597 -72.392181 
L 353.798075 -72.805399 
L 353.905254 -73.473878 
L 354.012135 -73.396109 
L 354.118721 -72.727493 
L 354.225011 -73.005216 
L 354.331009 -72.635595 
L 354.436716 -72.467962 
L 354.542133 -70.437406 
L 354.647263 -73.513371 
L 354.752105 -72.129547 
L 354.856663 -73.820384 
L 354.960938 -72.992301 
L 355.06493 -73.504239 
L 355.168643 -74.841315 
L 355.272076 -73.134869 
L 355.375232 -73.337525 
L 355.478113 -73.767365 
L 355.580719 -72.059496 
L 355.683052 -71.433726 
L 355.785114 -73.638974 
L 355.886905 -72.912013 
L 355.988428 -73.094673 
L 356.089684 -72.290828 
L 356.190675 -73.422562 
L 356.2914 -70.745451 
L 356.391863 -71.594963 
L 356.492065 -72.376231 
L 356.592006 -69.537155 
L 356.691688 -71.252268 
L 356.791112 -72.077789 
L 356.89028 -73.260265 
L 356.989194 -72.233935 
L 357.087853 -70.915563 
L 357.186261 -71.868138 
L 357.284417 -71.045423 
L 357.382323 -70.493765 
L 357.479981 -71.772733 
L 357.577392 -71.444962 
L 357.674557 -72.327026 
L 357.771477 -71.893968 
L 357.868154 -70.255841 
L 357.964588 -69.499289 
L 358.060781 -70.944998 
L 358.156734 -70.702083 
L 358.252449 -70.069631 
L 358.347926 -71.752687 
L 358.443167 -69.845348 
L 358.538172 -69.350322 
L 358.632944 -69.378769 
L 358.727483 -71.218715 
L 358.82179 -70.886604 
L 358.915866 -69.865499 
L 359.009713 -70.849278 
L 359.103332 -69.770532 
L 359.196723 -68.052999 
L 359.289889 -69.418738 
L 359.382829 -70.723199 
L 359.475545 -69.130899 
L 359.568039 -71.67229 
L 359.66031 -71.355289 
L 359.752361 -70.737325 
L 359.844192 -70.526959 
L 359.935805 -70.432968 
L 360.0272 -70.942329 
L 360.118378 -69.657992 
L 360.209341 -69.828076 
L 360.300089 -69.554299 
L 360.390624 -69.072099 
L 360.480946 -71.240487 
L 360.571057 -69.459714 
L 360.660957 -68.842467 
L 360.750648 -69.810479 
L 360.84013 -69.425978 
L 360.929404 -70.268065 
L 361.018472 -68.974088 
L 361.107334 -68.777163 
L 361.195991 -68.604491 
L 361.284445 -68.545942 
L 361.372695 -67.383796 
L 361.460744 -67.362354 
L 361.548591 -68.563921 
L 361.636239 -67.795633 
L 361.723687 -69.542889 
L 361.810937 -68.851807 
L 361.89799 -66.574718 
L 361.984846 -69.174089 
L 362.071507 -66.315665 
L 362.157972 -69.011965 
L 362.244244 -68.368499 
L 362.330323 -68.700454 
L 362.41621 -66.725226 
L 362.501905 -69.705942 
L 362.58741 -67.270686 
L 362.672726 -67.299332 
L 362.757852 -67.827683 
L 362.842791 -66.654718 
L 362.927543 -68.892346 
L 363.012108 -69.298339 
L 363.096488 -67.082314 
L 363.180684 -69.052915 
L 363.264695 -67.599711 
L 363.348524 -66.346671 
L 363.43217 -68.461789 
L 363.515635 -68.846394 
L 363.598919 -67.398106 
L 363.682023 -70.083982 
L 363.764948 -68.185174 
L 363.847695 -68.63712 
L 363.930264 -66.374593 
L 364.012657 -67.665929 
L 364.094873 -67.032636 
L 364.176914 -68.131037 
L 364.25878 -67.890909 
L 364.340473 -68.653109 
L 364.421993 -67.447159 
L 364.50334 -67.796661 
L 364.584516 -66.706405 
L 364.665521 -66.81389 
L 364.746355 -66.84734 
L 364.82702 -67.273538 
L 364.907517 -66.963091 
L 364.987845 -67.951603 
L 365.068006 -65.639044 
L 365.148 -67.005811 
L 365.227828 -68.365754 
L 365.307492 -67.170842 
L 365.38699 -64.207127 
L 365.466325 -67.380817 
L 365.545496 -65.158985 
L 365.624505 -66.110285 
L 365.703352 -66.839377 
L 365.782037 -66.137715 
L 365.860562 -66.755119 
L 365.938927 -66.082117 
L 366.017133 -65.861438 
L 366.09518 -65.888493 
L 366.173069 -66.113226 
L 366.250801 -65.300191 
L 366.328376 -65.965389 
L 366.405795 -65.893825 
L 366.483059 -66.812679 
L 366.560168 -66.075214 
L 366.637122 -65.105132 
L 366.713923 -66.440932 
L 366.790571 -66.39802 
L 366.867067 -66.456841 
L 366.94341 -66.138511 
L 367.019603 -65.259149 
L 367.095645 -65.078549 
L 367.171537 -65.718902 
L 367.24728 -64.409987 
L 367.322874 -65.397702 
L 367.398319 -64.881511 
L 367.473617 -63.432813 
L 367.548768 -65.419364 
L 367.623772 -65.23484 
L 367.698631 -65.881262 
L 367.773344 -65.636879 
L 367.847912 -66.358411 
L 367.922336 -65.49107 
L 367.996617 -66.475918 
L 368.070754 -64.156205 
L 368.144749 -64.588561 
L 368.218602 -64.184881 
L 368.292313 -66.884365 
L 368.365883 -65.676506 
L 368.439313 -64.999778 
L 368.512603 -65.638207 
L 368.585754 -66.353163 
L 368.658766 -65.954842 
L 368.731639 -66.69469 
L 368.804375 -65.768955 
L 368.876974 -65.63438 
L 368.949436 -64.903959 
L 369.021761 -63.827861 
L 369.093951 -63.13895 
L 369.166006 -63.600264 
L 369.237926 -65.90511 
L 369.309712 -64.445681 
L 369.381364 -63.070291 
L 369.452883 -63.541903 
L 369.52427 -63.454908 
L 369.595524 -63.556524 
L 369.666646 -64.243746 
L 369.737638 -63.417857 
L 369.808498 -63.903057 
L 369.879228 -63.730126 
L 369.949829 -66.085211 
L 370.0203 -62.884122 
L 370.090642 -62.899729 
L 370.160856 -63.012063 
L 370.230942 -62.433877 
L 370.300901 -62.096856 
L 370.370733 -63.417521 
L 370.440438 -62.812405 
L 370.510017 -63.552064 
L 370.579471 -64.163893 
L 370.648799 -64.429355 
L 370.718003 -62.801404 
L 370.787082 -62.740427 
L 370.856038 -62.723593 
L 370.92487 -63.189947 
L 370.993579 -62.47253 
L 371.062166 -64.664867 
L 371.130631 -63.85164 
L 371.198975 -63.146547 
L 371.267197 -63.717776 
L 371.335298 -63.591478 
L 371.403279 -63.00343 
L 371.47114 -63.671897 
L 371.538882 -63.64007 
L 371.606504 -65.092337 
L 371.674008 -63.979394 
L 371.741394 -63.533406 
L 371.808662 -62.223115 
L 371.875813 -61.946863 
L 371.942846 -62.262542 
L 372.009763 -62.200048 
L 372.076564 -63.760153 
L 372.143249 -64.044868 
L 372.209819 -62.174154 
L 372.276273 -63.040097 
L 372.342613 -64.068473 
L 372.408839 -62.572984 
L 372.474951 -61.964798 
L 372.54095 -62.741871 
L 372.606836 -62.08228 
L 372.672609 -62.80283 
L 372.73827 -62.009201 
L 372.803819 -63.188683 
L 372.869256 -61.734129 
L 372.934583 -62.85736 
L 372.999798 -62.619022 
L 373.064904 -61.058759 
L 373.129899 -61.269566 
L 373.194785 -60.975829 
L 373.259561 -63.509091 
L 373.324229 -62.68459 
L 373.388788 -61.250792 
L 373.453239 -63.29137 
L 373.517582 -62.037951 
L 373.581818 -62.859461 
L 373.581818 -65.573017 
L 373.581818 -65.573017 
L 373.517582 -64.920758 
L 373.453239 -66.024728 
L 373.388788 -64.042609 
L 373.324229 -65.320665 
L 373.259561 -66.228148 
L 373.194785 -64.276068 
L 373.129899 -63.430036 
L 373.064904 -63.959539 
L 372.999798 -65.064198 
L 372.934583 -65.502394 
L 372.869256 -64.231317 
L 372.803819 -65.705656 
L 372.73827 -64.801552 
L 372.672609 -65.369527 
L 372.606836 -64.318988 
L 372.54095 -64.716379 
L 372.474951 -65.095476 
L 372.408839 -65.002419 
L 372.342613 -66.736081 
L 372.276273 -65.716343 
L 372.209819 -65.659265 
L 372.143249 -66.848168 
L 372.076564 -66.082925 
L 372.009763 -64.94526 
L 371.942846 -64.791921 
L 371.875813 -64.815551 
L 371.808662 -65.127023 
L 371.741394 -66.781296 
L 371.674008 -66.87241 
L 371.606504 -67.160673 
L 371.538882 -66.2129 
L 371.47114 -66.222551 
L 371.403279 -66.766091 
L 371.335298 -65.893377 
L 371.267197 -66.453075 
L 371.198975 -65.873981 
L 371.130631 -66.994203 
L 371.062166 -67.936806 
L 370.993579 -65.764856 
L 370.92487 -66.446858 
L 370.856038 -65.167717 
L 370.787082 -64.750159 
L 370.718003 -65.634918 
L 370.648799 -66.639877 
L 370.579471 -66.188847 
L 370.510017 -66.382105 
L 370.440438 -65.948528 
L 370.370733 -66.093554 
L 370.300901 -65.181671 
L 370.230942 -65.28718 
L 370.160856 -65.386725 
L 370.090642 -65.281316 
L 370.0203 -65.760951 
L 369.949829 -68.255451 
L 369.879228 -66.380742 
L 369.808498 -66.635046 
L 369.737638 -66.493231 
L 369.666646 -66.604457 
L 369.595524 -66.088667 
L 369.52427 -65.92847 
L 369.452883 -65.940544 
L 369.381364 -66.601044 
L 369.309712 -67.810627 
L 369.237926 -69.091951 
L 369.166006 -66.509042 
L 369.093951 -65.459501 
L 369.021761 -66.113353 
L 368.949436 -67.235338 
L 368.876974 -69.013833 
L 368.804375 -68.549939 
L 368.731639 -70.394053 
L 368.658766 -68.544916 
L 368.585754 -68.494923 
L 368.512603 -70.09344 
L 368.439313 -67.526144 
L 368.365883 -68.407609 
L 368.292313 -68.801215 
L 368.218602 -66.791259 
L 368.144749 -67.175952 
L 368.070754 -67.448795 
L 367.996617 -69.614872 
L 367.922336 -68.099712 
L 367.847912 -68.895741 
L 367.773344 -68.43136 
L 367.698631 -68.847412 
L 367.623772 -68.280667 
L 367.548768 -67.69247 
L 367.473617 -66.768754 
L 367.398319 -68.103408 
L 367.322874 -67.281935 
L 367.24728 -67.30301 
L 367.171537 -67.86794 
L 367.095645 -68.077106 
L 367.019603 -67.75267 
L 366.94341 -69.975746 
L 366.867067 -69.474841 
L 366.790571 -68.78713 
L 366.713923 -69.252847 
L 366.637122 -67.676042 
L 366.560168 -69.041072 
L 366.483059 -69.744034 
L 366.405795 -69.504103 
L 366.328376 -68.298321 
L 366.250801 -68.30763 
L 366.173069 -68.708537 
L 366.09518 -70.597667 
L 366.017133 -68.650465 
L 365.938927 -69.159001 
L 365.860562 -69.617694 
L 365.782037 -69.035315 
L 365.703352 -69.887061 
L 365.624505 -69.541465 
L 365.545496 -67.738244 
L 365.466325 -70.573587 
L 365.38699 -67.616507 
L 365.307492 -69.545731 
L 365.227828 -71.554425 
L 365.148 -70.334372 
L 365.068006 -68.6473 
L 364.987845 -70.846891 
L 364.907517 -69.343696 
L 364.82702 -69.687194 
L 364.746355 -69.920912 
L 364.665521 -69.778851 
L 364.584516 -69.747938 
L 364.50334 -71.085912 
L 364.421993 -70.703088 
L 364.340473 -71.21233 
L 364.25878 -71.258451 
L 364.176914 -71.113732 
L 364.094873 -69.885009 
L 364.012657 -70.465806 
L 363.930264 -68.877234 
L 363.847695 -71.503462 
L 363.764948 -70.395837 
L 363.682023 -72.836802 
L 363.598919 -70.797344 
L 363.515635 -71.432877 
L 363.43217 -71.884846 
L 363.348524 -69.907625 
L 363.264695 -70.027757 
L 363.180684 -71.190366 
L 363.096488 -70.717889 
L 363.012108 -72.450989 
L 362.927543 -71.986261 
L 362.842791 -70.842496 
L 362.757852 -71.128331 
L 362.672726 -69.413987 
L 362.58741 -70.124924 
L 362.501905 -72.451719 
L 362.41621 -70.239999 
L 362.330323 -71.267972 
L 362.244244 -71.288866 
L 362.157972 -71.773849 
L 362.071507 -69.907128 
L 361.984846 -71.514329 
L 361.89799 -70.53866 
L 361.810937 -71.207609 
L 361.723687 -72.278583 
L 361.636239 -70.531076 
L 361.548591 -71.392462 
L 361.460744 -70.647266 
L 361.372695 -70.564913 
L 361.284445 -71.567403 
L 361.195991 -71.34899 
L 361.107334 -71.348045 
L 361.018472 -71.156066 
L 360.929404 -73.746856 
L 360.84013 -72.68532 
L 360.750648 -72.88781 
L 360.660957 -72.325435 
L 360.571057 -72.010354 
L 360.480946 -73.791442 
L 360.390624 -72.204191 
L 360.300089 -72.181573 
L 360.209341 -72.404906 
L 360.118378 -72.377371 
L 360.0272 -73.449878 
L 359.935805 -72.891809 
L 359.844192 -73.322611 
L 359.752361 -74.124168 
L 359.66031 -73.357741 
L 359.568039 -74.849588 
L 359.475545 -71.440947 
L 359.382829 -75.232534 
L 359.289889 -71.86501 
L 359.196723 -71.773153 
L 359.103332 -72.953811 
L 359.009713 -73.534632 
L 358.915866 -72.040793 
L 358.82179 -73.520303 
L 358.727483 -75.556628 
L 358.632944 -71.841789 
L 358.538172 -72.434057 
L 358.443167 -73.174962 
L 358.347926 -74.245996 
L 358.252449 -74.163481 
L 358.156734 -73.166293 
L 358.060781 -73.462443 
L 357.964588 -73.473484 
L 357.868154 -73.29648 
L 357.771477 -74.775902 
L 357.674557 -74.460175 
L 357.577392 -74.167772 
L 357.479981 -75.566095 
L 357.382323 -72.764007 
L 357.284417 -73.79661 
L 357.186261 -73.991448 
L 357.087853 -74.022385 
L 356.989194 -74.454291 
L 356.89028 -75.588138 
L 356.791112 -74.727159 
L 356.691688 -74.088683 
L 356.592006 -71.815377 
L 356.492065 -75.322456 
L 356.391863 -74.023965 
L 356.2914 -73.548468 
L 356.190675 -76.548434 
L 356.089684 -75.678937 
L 355.988428 -75.284862 
L 355.886905 -77.275243 
L 355.785114 -77.230838 
L 355.683052 -74.250575 
L 355.580719 -75.702202 
L 355.478113 -76.386528 
L 355.375232 -75.718883 
L 355.272076 -76.95514 
L 355.168643 -77.996861 
L 355.06493 -77.196793 
L 354.960938 -75.995621 
L 354.856663 -76.809048 
L 354.752105 -75.164539 
L 354.647263 -75.608771 
L 354.542133 -74.213057 
L 354.436716 -74.997393 
L 354.331009 -74.916035 
L 354.225011 -75.586827 
L 354.118721 -75.234571 
L 354.012135 -76.358515 
L 353.905254 -76.68805 
L 353.798075 -76.118773 
L 353.690597 -75.359598 
L 353.582817 -76.385531 
L 353.474735 -77.762923 
L 353.366348 -75.246685 
L 353.257655 -76.615568 
L 353.148655 -76.292861 
L 353.039344 -75.778933 
L 352.929722 -77.458838 
L 352.819787 -77.526229 
L 352.709537 -76.582896 
L 352.59897 -77.697294 
L 352.488085 -78.066691 
L 352.376879 -77.083588 
L 352.265351 -76.812139 
L 352.153498 -76.168892 
L 352.041319 -75.809903 
L 351.928813 -77.322413 
L 351.815976 -77.436054 
L 351.702808 -78.624741 
L 351.589305 -78.945857 
L 351.475467 -78.006119 
L 351.361291 -77.958265 
L 351.246776 -78.439804 
L 351.131918 -77.334992 
L 351.016717 -78.068518 
L 350.901169 -79.440654 
L 350.785274 -78.411655 
L 350.669028 -78.456358 
L 350.552431 -77.819854 
L 350.435478 -78.821624 
L 350.31817 -79.500832 
L 350.200502 -78.208967 
L 350.082474 -80.85691 
L 349.964082 -80.157907 
L 349.845325 -80.802646 
L 349.7262 -78.788382 
L 349.606706 -78.686736 
L 349.486839 -79.704295 
L 349.366597 -82.072966 
L 349.245979 -79.331842 
L 349.124981 -80.076422 
L 349.003602 -78.416735 
L 348.881838 -81.217863 
L 348.759688 -80.011953 
L 348.637149 -80.130507 
L 348.514218 -79.351788 
L 348.390894 -80.24763 
L 348.267172 -81.702495 
L 348.143052 -80.65 
L 348.01853 -80.344057 
L 347.893604 -79.768198 
L 347.768271 -78.955935 
L 347.642528 -79.907669 
L 347.516373 -80.970628 
L 347.389803 -82.454873 
L 347.262815 -81.084355 
L 347.135407 -79.063579 
L 347.007576 -80.528428 
L 346.879318 -81.358345 
L 346.750631 -80.48049 
L 346.621513 -81.329795 
L 346.49196 -82.797317 
L 346.361969 -81.463653 
L 346.231538 -80.742166 
L 346.100662 -80.211032 
L 345.969341 -81.36647 
L 345.837569 -80.419712 
L 345.705345 -81.068052 
L 345.572664 -82.171668 
L 345.439525 -80.501031 
L 345.305923 -82.104223 
L 345.171856 -82.341139 
L 345.03732 -82.575232 
L 344.902312 -82.526021 
L 344.766829 -82.49362 
L 344.630867 -81.016523 
L 344.494422 -85.034596 
L 344.357493 -84.335173 
L 344.220074 -82.92838 
L 344.082162 -82.570264 
L 343.943755 -84.261584 
L 343.804847 -84.360115 
L 343.665437 -84.004154 
L 343.52552 -84.21847 
L 343.385092 -82.546707 
L 343.244149 -82.693071 
L 343.102688 -82.076674 
L 342.960706 -83.304936 
L 342.818197 -84.341961 
L 342.675159 -82.911675 
L 342.531587 -84.388134 
L 342.387477 -83.014191 
L 342.242826 -82.655418 
L 342.097629 -82.783683 
L 341.951881 -83.898546 
L 341.80558 -85.080252 
L 341.65872 -87.06378 
L 341.511297 -84.000399 
L 341.363308 -83.09108 
L 341.214747 -84.560506 
L 341.06561 -82.798755 
L 340.915893 -84.105345 
L 340.765591 -86.329796 
L 340.614699 -84.880051 
L 340.463214 -86.233782 
L 340.31113 -85.050818 
L 340.158442 -88.303022 
L 340.005146 -85.194331 
L 339.851237 -86.286268 
L 339.69671 -86.394543 
L 339.541559 -84.685483 
L 339.385781 -86.092386 
L 339.229369 -86.437706 
L 339.072319 -87.514765 
L 338.914625 -86.55821 
L 338.756282 -87.887289 
L 338.597285 -85.178083 
L 338.437628 -87.616982 
L 338.277306 -86.554559 
L 338.116313 -86.637999 
L 337.954644 -86.098004 
L 337.792292 -87.640289 
L 337.629253 -87.159331 
L 337.46552 -87.902737 
L 337.301087 -86.595726 
L 337.135948 -89.352371 
L 336.970098 -86.708504 
L 336.803529 -87.632058 
L 336.636236 -87.577742 
L 336.468213 -88.921127 
L 336.299453 -89.864154 
L 336.12995 -87.128269 
L 335.959696 -89.590142 
L 335.788686 -87.844483 
L 335.616912 -89.777791 
L 335.444368 -88.322843 
L 335.271047 -88.165685 
L 335.096941 -88.317254 
L 334.922044 -90.314174 
L 334.746349 -90.085076 
L 334.569847 -89.140802 
L 334.392533 -90.941935 
L 334.214397 -90.351997 
L 334.035433 -89.310129 
L 333.855632 -89.320702 
L 333.674987 -90.953139 
L 333.493491 -90.84478 
L 333.311134 -91.501598 
L 333.127908 -91.031895 
L 332.943806 -91.674032 
L 332.758819 -92.293177 
L 332.572938 -93.057254 
L 332.386155 -93.781741 
L 332.198461 -93.422681 
L 332.009847 -90.343566 
L 331.820303 -90.253464 
L 331.629821 -92.266199 
L 331.438392 -91.313704 
L 331.246005 -90.557605 
L 331.052652 -91.793102 
L 330.858322 -92.115566 
L 330.663006 -91.289035 
L 330.466693 -91.454763 
L 330.269373 -93.057338 
L 330.071036 -90.948511 
L 329.871672 -91.537714 
L 329.671269 -93.03391 
L 329.469817 -93.025983 
L 329.267305 -94.265032 
L 329.063721 -91.694898 
L 328.859054 -91.89192 
L 328.653293 -93.25222 
L 328.446426 -93.599694 
L 328.23844 -93.726605 
L 328.029324 -95.198537 
L 327.819065 -95.70106 
L 327.607651 -94.58377 
L 327.395069 -93.709217 
L 327.181306 -95.135244 
L 326.966349 -92.976326 
L 326.750184 -94.562259 
L 326.532798 -95.136403 
L 326.314177 -95.067147 
L 326.094306 -94.311007 
L 325.873172 -93.734546 
L 325.650759 -95.343982 
L 325.427054 -95.353459 
L 325.20204 -95.512463 
L 324.975703 -96.423592 
L 324.748026 -96.079337 
L 324.518994 -96.945828 
L 324.288591 -95.300033 
L 324.056799 -96.701473 
L 323.823603 -97.153583 
L 323.588985 -97.033199 
L 323.352928 -95.880592 
L 323.115413 -96.29111 
L 322.876423 -97.586993 
L 322.635939 -98.733064 
L 322.393943 -98.974313 
L 322.150416 -99.180584 
L 321.905337 -98.202915 
L 321.658687 -100.182587 
L 321.410446 -99.549469 
L 321.160593 -99.001211 
L 320.909107 -99.793528 
L 320.655966 -98.81633 
L 320.401149 -98.044164 
L 320.144633 -98.69199 
L 319.886395 -100.576064 
L 319.626413 -98.510811 
L 319.364662 -100.352414 
L 319.101118 -99.207036 
L 318.835757 -99.763128 
L 318.568552 -100.76948 
L 318.29948 -100.355289 
L 318.028512 -101.142894 
L 317.755623 -101.675051 
L 317.480784 -100.646961 
L 317.203968 -100.961753 
L 316.925146 -101.456511 
L 316.644289 -101.479063 
L 316.361367 -102.24796 
L 316.076349 -101.939997 
L 315.789204 -102.204143 
L 315.4999 -101.336228 
L 315.208404 -102.510928 
L 314.914683 -101.63837 
L 314.618703 -102.414103 
L 314.320428 -103.073876 
L 314.019823 -102.749264 
L 313.716851 -102.599991 
L 313.411475 -103.854663 
L 313.103655 -104.211669 
L 312.793353 -102.911334 
L 312.480528 -105.36434 
L 312.165139 -104.187187 
L 311.847144 -104.139897 
L 311.526498 -104.836009 
L 311.203158 -106.419508 
L 310.877078 -107.25524 
L 310.54821 -105.774893 
L 310.216508 -104.417258 
L 309.881921 -106.033442 
L 309.544399 -106.802955 
L 309.20389 -106.377796 
L 308.860341 -106.608732 
L 308.513697 -105.930285 
L 308.163901 -107.568666 
L 307.810896 -106.926508 
L 307.454623 -105.654736 
L 307.09502 -106.97683 
L 306.732024 -109.003597 
L 306.365572 -107.044791 
L 305.995595 -108.703681 
L 305.622027 -110.351653 
L 305.244796 -108.011875 
L 304.86383 -110.949833 
L 304.479054 -110.332836 
L 304.090392 -110.308851 
L 303.697764 -109.330018 
L 303.301087 -110.27223 
L 302.900279 -109.422444 
L 302.495252 -109.934663 
L 302.085915 -111.78807 
L 301.672178 -112.210346 
L 301.253943 -111.487921 
L 300.831111 -109.958529 
L 300.403582 -111.477547 
L 299.971249 -113.019461 
L 299.534003 -113.174287 
L 299.091731 -114.163017 
L 298.644316 -112.933079 
L 298.191637 -111.999204 
L 297.733569 -114.090401 
L 297.269982 -113.607886 
L 296.800742 -113.594163 
L 296.325708 -113.105991 
L 295.844736 -115.031286 
L 295.357676 -114.600921 
L 294.864371 -117.374624 
L 294.364659 -114.929375 
L 293.858373 -118.165303 
L 293.345335 -116.893886 
L 292.825364 -118.8863 
L 292.29827 -116.210827 
L 291.763856 -117.580136 
L 291.221914 -118.89134 
L 290.672229 -118.230662 
L 290.114578 -118.858818 
L 289.548726 -117.362592 
L 288.974428 -119.144242 
L 288.391428 -119.692243 
L 287.799459 -118.206147 
L 287.19824 -122.06255 
L 286.587477 -121.574307 
L 285.966863 -121.276377 
L 285.336074 -121.632206 
L 284.694772 -122.16277 
L 284.0426 -123.248763 
L 283.379182 -124.534477 
L 282.704126 -124.565737 
L 282.017014 -122.666003 
L 281.317408 -123.986387 
L 280.604846 -126.295154 
L 279.878839 -126.144536 
L 279.138869 -123.431695 
L 278.384389 -125.722203 
L 277.614818 -124.323026 
L 276.829541 -126.996975 
L 276.027903 -127.371708 
L 275.209207 -129.274406 
L 274.372712 -126.902971 
L 273.517627 -128.807253 
L 272.643106 -129.507802 
L 271.748246 -130.702998 
L 270.832078 -130.915891 
L 269.893562 -131.714898 
L 268.931581 -132.133921 
L 267.944931 -133.429983 
L 266.932313 -132.120093 
L 265.892324 -133.386102 
L 264.823443 -133.908353 
L 263.724018 -134.227259 
L 262.592253 -134.840428 
L 261.426186 -135.947342 
L 260.223675 -138.538265 
L 258.982365 -138.64042 
L 257.699672 -137.534844 
L 256.372739 -138.798875 
L 254.998405 -139.316111 
L 253.573159 -138.901703 
L 252.093082 -139.831245 
L 250.553787 -139.986419 
L 248.950336 -140.878821 
L 247.277149 -140.834551 
L 245.527882 -141.375714 
L 243.695286 -141.954131 
L 241.771022 -141.924601 
L 239.745437 -142.674422 
L 237.607262 -142.036418 
L 235.343241 -143.127179 
L 232.93763 -142.897502 
L 230.371529 -142.95612 
L 227.621985 -143.227917 
L 224.660736 -143.179819 
L 221.452441 -143.602607 
L 217.952098 -144.292523 
L 214.101162 -144.860245 
L 209.821505 -147.113446 
L 205.005572 -147.475339 
L 199.499445 -150.063537 
L 193.071664 -152.812304 
L 185.350408 -156.634446 
L 175.68052 -159.157691 
L 162.733995 -162.660663 
L 153.761336 -164.222887 
L 153.370701 -164.396957 
L 152.976059 -164.254911 
L 152.577327 -164.607701 
L 152.17442 -163.945103 
L 151.76725 -164.715842 
L 151.355725 -164.254738 
L 150.93975 -164.729749 
L 150.51923 -164.139633 
L 150.094063 -164.633567 
L 149.664145 -164.493241 
L 149.229369 -165.042359 
L 148.789624 -163.804639 
L 148.344796 -164.616945 
L 147.894764 -164.288596 
L 147.439407 -165.22096 
L 146.978596 -164.516743 
L 146.512199 -165.199263 
L 146.04008 -164.491007 
L 145.562096 -165.739981 
L 145.078099 -165.181209 
L 144.587936 -164.877199 
L 144.091448 -164.828402 
L 143.588471 -164.886471 
L 143.078831 -165.241265 
L 142.56235 -165.350416 
L 142.038842 -165.359542 
L 141.508113 -165.123034 
L 140.969961 -165.678774 
L 140.424175 -165.492672 
L 139.870536 -165.93291 
L 139.308814 -165.47301 
L 138.738771 -165.72614 
L 138.160155 -166.078979 
L 137.572704 -166.386685 
L 136.976146 -166.090595 
L 136.370192 -166.522081 
L 135.754543 -166.584798 
L 135.128883 -167.393854 
L 134.492881 -166.840936 
L 133.84619 -167.701327 
L 133.188443 -167.833731 
L 132.519256 -167.995849 
L 131.838225 -168.323341 
L 131.144923 -168.172079 
L 130.438899 -168.31296 
L 129.719677 -168.682124 
L 128.986755 -169.47629 
L 128.2396 -169.656516 
L 127.47765 -169.247558 
L 126.700305 -169.881646 
L 125.906932 -169.990662 
L 125.096854 -170.482398 
L 124.269355 -170.783583 
L 123.423667 -170.725651 
L 122.558973 -171.567136 
L 121.6744 -171.540516 
L 120.769011 -171.453192 
L 119.841804 -172.144092 
L 118.8917 -172.466144 
L 117.91754 -172.860703 
L 116.918075 -172.892777 
L 115.891954 -173.067383 
L 114.837717 -173.977284 
L 113.753779 -173.638769 
L 112.638419 -174.087485 
L 111.489759 -174.463809 
L 110.30575 -174.666105 
L 109.084148 -174.775867 
L 107.822486 -175.03791 
L 106.518047 -175.19814 
L 105.16783 -175.434793 
L 103.768503 -175.593194 
L 102.316359 -176.122814 
L 100.807254 -176.220249 
L 99.236536 -176.246868 
L 97.598959 -176.418877 
L 95.888578 -176.781934 
L 94.098615 -176.975867 
L 92.221304 -176.987097 
L 90.247679 -177.590948 
L 88.167321 -177.897453 
L 85.968023 -178.087541 
L 83.635354 -178.353696 
L 81.15209 -178.697573 
L 78.497434 -179.102972 
L 75.645963 -179.117411 
L 72.56614 -179.932834 
L 69.218182 -179.774283 
z
" style="stroke: #ff0000; stroke-opacity: 0.2"/>
    </defs>
    <g clip-path="url(#pf4441d9799)">
     <use xlink:href="#maf2daaa2c3" x="0" y="288" style="fill: #ff0000; fill-opacity: 0.2; stroke: #ff0000; stroke-opacity: 0.2"/>
    </g>
   </g>
   <g id="matplotlib.axis_1">
    <g id="xtick_1">
     <g id="line2d_1">
      <defs>
       <path id="m8231e57f07" d="M 0 0 
L 0 3.5 
" style="stroke: #000000; stroke-width: 0.8"/>
      </defs>
      <g>
       <use xlink:href="#m8231e57f07" x="65.550908" y="252" style="stroke: #000000; stroke-width: 0.8"/>
      </g>
     </g>
     <g id="text_1">
      <!-- $\mathdefault{10^{1}}$ -->
      <g transform="translate(56.750908 266.598437)scale(0.1 -0.1)">
       <defs>
        <path id="DejaVuSans-31" d="M 794 531 
L 1825 531 
L 1825 4091 
L 703 3866 
L 703 4441 
L 1819 4666 
L 2450 4666 
L 2450 531 
L 3481 531 
L 3481 0 
L 794 0 
L 794 531 
z
" transform="scale(0.015625)"/>
        <path id="DejaVuSans-30" d="M 2034 4250 
Q 1547 4250 1301 3770 
Q 1056 3291 1056 2328 
Q 1056 1369 1301 889 
Q 1547 409 2034 409 
Q 2525 409 2770 889 
Q 3016 1369 3016 2328 
Q 3016 3291 2770 3770 
Q 2525 4250 2034 4250 
z
M 2034 4750 
Q 2819 4750 3233 4129 
Q 3647 3509 3647 2328 
Q 3647 1150 3233 529 
Q 2819 -91 2034 -91 
Q 1250 -91 836 529 
Q 422 1150 422 2328 
Q 422 3509 836 4129 
Q 1250 4750 2034 4750 
z
" transform="scale(0.015625)"/>
       </defs>
       <use xlink:href="#DejaVuSans-31" transform="translate(0 0.684375)"/>
       <use xlink:href="#DejaVuSans-30" transform="translate(63.623047 0.684375)"/>
       <use xlink:href="#DejaVuSans-31" transform="translate(128.203125 38.965625)scale(0.7)"/>
      </g>
     </g>
    </g>
    <g id="xtick_2">
     <g id="line2d_2">
      <g>
       <use xlink:href="#m8231e57f07" x="154.148045" y="252" style="stroke: #000000; stroke-width: 0.8"/>
      </g>
     </g>
     <g id="text_2">
      <!-- $\mathdefault{10^{2}}$ -->
      <g transform="translate(145.348045 266.598437)scale(0.1 -0.1)">
       <defs>
        <path id="DejaVuSans-32" d="M 1228 531 
L 3431 531 
L 3431 0 
L 469 0 
L 469 531 
Q 828 903 1448 1529 
Q 2069 2156 2228 2338 
Q 2531 2678 2651 2914 
Q 2772 3150 2772 3378 
Q 2772 3750 2511 3984 
Q 2250 4219 1831 4219 
Q 1534 4219 1204 4116 
Q 875 4013 500 3803 
L 500 4441 
Q 881 4594 1212 4672 
Q 1544 4750 1819 4750 
Q 2544 4750 2975 4387 
Q 3406 4025 3406 3419 
Q 3406 3131 3298 2873 
Q 3191 2616 2906 2266 
Q 2828 2175 2409 1742 
Q 1991 1309 1228 531 
z
" transform="scale(0.015625)"/>
       </defs>
       <use xlink:href="#DejaVuSans-31" transform="translate(0 0.765625)"/>
       <use xlink:href="#DejaVuSans-30" transform="translate(63.623047 0.765625)"/>
       <use xlink:href="#DejaVuSans-32" transform="translate(128.203125 39.046875)scale(0.7)"/>
      </g>
     </g>
    </g>
    <g id="xtick_3">
     <g id="line2d_3">
      <g>
       <use xlink:href="#m8231e57f07" x="242.745182" y="252" style="stroke: #000000; stroke-width: 0.8"/>
      </g>
     </g>
     <g id="text_3">
      <!-- $\mathdefault{10^{3}}$ -->
      <g transform="translate(233.945182 266.598437)scale(0.1 -0.1)">
       <defs>
        <path id="DejaVuSans-33" d="M 2597 2516 
Q 3050 2419 3304 2112 
Q 3559 1806 3559 1356 
Q 3559 666 3084 287 
Q 2609 -91 1734 -91 
Q 1441 -91 1130 -33 
Q 819 25 488 141 
L 488 750 
Q 750 597 1062 519 
Q 1375 441 1716 441 
Q 2309 441 2620 675 
Q 2931 909 2931 1356 
Q 2931 1769 2642 2001 
Q 2353 2234 1838 2234 
L 1294 2234 
L 1294 2753 
L 1863 2753 
Q 2328 2753 2575 2939 
Q 2822 3125 2822 3475 
Q 2822 3834 2567 4026 
Q 2313 4219 1838 4219 
Q 1578 4219 1281 4162 
Q 984 4106 628 3988 
L 628 4550 
Q 988 4650 1302 4700 
Q 1616 4750 1894 4750 
Q 2613 4750 3031 4423 
Q 3450 4097 3450 3541 
Q 3450 3153 3228 2886 
Q 3006 2619 2597 2516 
z
" transform="scale(0.015625)"/>
       </defs>
       <use xlink:href="#DejaVuSans-31" transform="translate(0 0.765625)"/>
       <use xlink:href="#DejaVuSans-30" transform="translate(63.623047 0.765625)"/>
       <use xlink:href="#DejaVuSans-33" transform="translate(128.203125 39.046875)scale(0.7)"/>
      </g>
     </g>
    </g>
    <g id="xtick_4">
     <g id="line2d_4">
      <g>
       <use xlink:href="#m8231e57f07" x="331.342319" y="252" style="stroke: #000000; stroke-width: 0.8"/>
      </g>
     </g>
     <g id="text_4">
      <!-- $\mathdefault{10^{4}}$ -->
      <g transform="translate(322.542319 266.598437)scale(0.1 -0.1)">
       <defs>
        <path id="DejaVuSans-34" d="M 2419 4116 
L 825 1625 
L 2419 1625 
L 2419 4116 
z
M 2253 4666 
L 3047 4666 
L 3047 1625 
L 3713 1625 
L 3713 1100 
L 3047 1100 
L 3047 0 
L 2419 0 
L 2419 1100 
L 313 1100 
L 313 1709 
L 2253 4666 
z
" transform="scale(0.015625)"/>
       </defs>
       <use xlink:href="#DejaVuSans-31" transform="translate(0 0.684375)"/>
       <use xlink:href="#DejaVuSans-30" transform="translate(63.623047 0.684375)"/>
       <use xlink:href="#DejaVuSans-34" transform="translate(128.203125 38.965625)scale(0.7)"/>
      </g>
     </g>
    </g>
    <g id="xtick_5">
     <g id="line2d_5">
      <defs>
       <path id="m4ff990d7d7" d="M 0 0 
L 0 2 
" style="stroke: #000000; stroke-width: 0.6"/>
      </defs>
      <g>
       <use xlink:href="#m4ff990d7d7" x="56.964959" y="252" style="stroke: #000000; stroke-width: 0.6"/>
      </g>
     </g>
    </g>
    <g id="xtick_6">
     <g id="line2d_6">
      <g>
       <use xlink:href="#m4ff990d7d7" x="61.496926" y="252" style="stroke: #000000; stroke-width: 0.6"/>
      </g>
     </g>
    </g>
    <g id="xtick_7">
     <g id="line2d_7">
      <g>
       <use xlink:href="#m4ff990d7d7" x="92.221304" y="252" style="stroke: #000000; stroke-width: 0.6"/>
      </g>
     </g>
    </g>
    <g id="xtick_8">
     <g id="line2d_8">
      <g>
       <use xlink:href="#m4ff990d7d7" x="107.822486" y="252" style="stroke: #000000; stroke-width: 0.6"/>
      </g>
     </g>
    </g>
    <g id="xtick_9">
     <g id="line2d_9">
      <g>
       <use xlink:href="#m4ff990d7d7" x="118.8917" y="252" style="stroke: #000000; stroke-width: 0.6"/>
      </g>
     </g>
    </g>
    <g id="xtick_10">
     <g id="line2d_10">
      <g>
       <use xlink:href="#m4ff990d7d7" x="127.47765" y="252" style="stroke: #000000; stroke-width: 0.6"/>
      </g>
     </g>
    </g>
    <g id="xtick_11">
     <g id="line2d_11">
      <g>
       <use xlink:href="#m4ff990d7d7" x="134.492881" y="252" style="stroke: #000000; stroke-width: 0.6"/>
      </g>
     </g>
    </g>
    <g id="xtick_12">
     <g id="line2d_12">
      <g>
       <use xlink:href="#m4ff990d7d7" x="140.424175" y="252" style="stroke: #000000; stroke-width: 0.6"/>
      </g>
     </g>
    </g>
    <g id="xtick_13">
     <g id="line2d_13">
      <g>
       <use xlink:href="#m4ff990d7d7" x="145.562096" y="252" style="stroke: #000000; stroke-width: 0.6"/>
      </g>
     </g>
    </g>
    <g id="xtick_14">
     <g id="line2d_14">
      <g>
       <use xlink:href="#m4ff990d7d7" x="150.094063" y="252" style="stroke: #000000; stroke-width: 0.6"/>
      </g>
     </g>
    </g>
    <g id="xtick_15">
     <g id="line2d_15">
      <g>
       <use xlink:href="#m4ff990d7d7" x="180.818441" y="252" style="stroke: #000000; stroke-width: 0.6"/>
      </g>
     </g>
    </g>
    <g id="xtick_16">
     <g id="line2d_16">
      <g>
       <use xlink:href="#m4ff990d7d7" x="196.419622" y="252" style="stroke: #000000; stroke-width: 0.6"/>
      </g>
     </g>
    </g>
    <g id="xtick_17">
     <g id="line2d_17">
      <g>
       <use xlink:href="#m4ff990d7d7" x="207.488837" y="252" style="stroke: #000000; stroke-width: 0.6"/>
      </g>
     </g>
    </g>
    <g id="xtick_18">
     <g id="line2d_18">
      <g>
       <use xlink:href="#m4ff990d7d7" x="216.074786" y="252" style="stroke: #000000; stroke-width: 0.6"/>
      </g>
     </g>
    </g>
    <g id="xtick_19">
     <g id="line2d_19">
      <g>
       <use xlink:href="#m4ff990d7d7" x="223.090018" y="252" style="stroke: #000000; stroke-width: 0.6"/>
      </g>
     </g>
    </g>
    <g id="xtick_20">
     <g id="line2d_20">
      <g>
       <use xlink:href="#m4ff990d7d7" x="229.021312" y="252" style="stroke: #000000; stroke-width: 0.6"/>
      </g>
     </g>
    </g>
    <g id="xtick_21">
     <g id="line2d_21">
      <g>
       <use xlink:href="#m4ff990d7d7" x="234.159232" y="252" style="stroke: #000000; stroke-width: 0.6"/>
      </g>
     </g>
    </g>
    <g id="xtick_22">
     <g id="line2d_22">
      <g>
       <use xlink:href="#m4ff990d7d7" x="238.691199" y="252" style="stroke: #000000; stroke-width: 0.6"/>
      </g>
     </g>
    </g>
    <g id="xtick_23">
     <g id="line2d_23">
      <g>
       <use xlink:href="#m4ff990d7d7" x="269.415578" y="252" style="stroke: #000000; stroke-width: 0.6"/>
      </g>
     </g>
    </g>
    <g id="xtick_24">
     <g id="line2d_24">
      <g>
       <use xlink:href="#m4ff990d7d7" x="285.016759" y="252" style="stroke: #000000; stroke-width: 0.6"/>
      </g>
     </g>
    </g>
    <g id="xtick_25">
     <g id="line2d_25">
      <g>
       <use xlink:href="#m4ff990d7d7" x="296.085973" y="252" style="stroke: #000000; stroke-width: 0.6"/>
      </g>
     </g>
    </g>
    <g id="xtick_26">
     <g id="line2d_26">
      <g>
       <use xlink:href="#m4ff990d7d7" x="304.671923" y="252" style="stroke: #000000; stroke-width: 0.6"/>
      </g>
     </g>
    </g>
    <g id="xtick_27">
     <g id="line2d_27">
      <g>
       <use xlink:href="#m4ff990d7d7" x="311.687155" y="252" style="stroke: #000000; stroke-width: 0.6"/>
      </g>
     </g>
    </g>
    <g id="xtick_28">
     <g id="line2d_28">
      <g>
       <use xlink:href="#m4ff990d7d7" x="317.618449" y="252" style="stroke: #000000; stroke-width: 0.6"/>
      </g>
     </g>
    </g>
    <g id="xtick_29">
     <g id="line2d_29">
      <g>
       <use xlink:href="#m4ff990d7d7" x="322.756369" y="252" style="stroke: #000000; stroke-width: 0.6"/>
      </g>
     </g>
    </g>
    <g id="xtick_30">
     <g id="line2d_30">
      <g>
       <use xlink:href="#m4ff990d7d7" x="327.288336" y="252" style="stroke: #000000; stroke-width: 0.6"/>
      </g>
     </g>
    </g>
    <g id="xtick_31">
     <g id="line2d_31">
      <g>
       <use xlink:href="#m4ff990d7d7" x="358.012715" y="252" style="stroke: #000000; stroke-width: 0.6"/>
      </g>
     </g>
    </g>
    <g id="xtick_32">
     <g id="line2d_32">
      <g>
       <use xlink:href="#m4ff990d7d7" x="373.613896" y="252" style="stroke: #000000; stroke-width: 0.6"/>
      </g>
     </g>
    </g>
    <g id="xtick_33">
     <g id="line2d_33">
      <g>
       <use xlink:href="#m4ff990d7d7" x="384.68311" y="252" style="stroke: #000000; stroke-width: 0.6"/>
      </g>
     </g>
    </g>
    <g id="text_5">
     <!-- Resources -->
     <g transform="translate(195.867969 280.276563)scale(0.1 -0.1)">
      <defs>
       <path id="DejaVuSans-52" d="M 2841 2188 
Q 3044 2119 3236 1894 
Q 3428 1669 3622 1275 
L 4263 0 
L 3584 0 
L 2988 1197 
Q 2756 1666 2539 1819 
Q 2322 1972 1947 1972 
L 1259 1972 
L 1259 0 
L 628 0 
L 628 4666 
L 2053 4666 
Q 2853 4666 3247 4331 
Q 3641 3997 3641 3322 
Q 3641 2881 3436 2590 
Q 3231 2300 2841 2188 
z
M 1259 4147 
L 1259 2491 
L 2053 2491 
Q 2509 2491 2742 2702 
Q 2975 2913 2975 3322 
Q 2975 3731 2742 3939 
Q 2509 4147 2053 4147 
L 1259 4147 
z
" transform="scale(0.015625)"/>
       <path id="DejaVuSans-65" d="M 3597 1894 
L 3597 1613 
L 953 1613 
Q 991 1019 1311 708 
Q 1631 397 2203 397 
Q 2534 397 2845 478 
Q 3156 559 3463 722 
L 3463 178 
Q 3153 47 2828 -22 
Q 2503 -91 2169 -91 
Q 1331 -91 842 396 
Q 353 884 353 1716 
Q 353 2575 817 3079 
Q 1281 3584 2069 3584 
Q 2775 3584 3186 3129 
Q 3597 2675 3597 1894 
z
M 3022 2063 
Q 3016 2534 2758 2815 
Q 2500 3097 2075 3097 
Q 1594 3097 1305 2825 
Q 1016 2553 972 2059 
L 3022 2063 
z
" transform="scale(0.015625)"/>
       <path id="DejaVuSans-73" d="M 2834 3397 
L 2834 2853 
Q 2591 2978 2328 3040 
Q 2066 3103 1784 3103 
Q 1356 3103 1142 2972 
Q 928 2841 928 2578 
Q 928 2378 1081 2264 
Q 1234 2150 1697 2047 
L 1894 2003 
Q 2506 1872 2764 1633 
Q 3022 1394 3022 966 
Q 3022 478 2636 193 
Q 2250 -91 1575 -91 
Q 1294 -91 989 -36 
Q 684 19 347 128 
L 347 722 
Q 666 556 975 473 
Q 1284 391 1588 391 
Q 1994 391 2212 530 
Q 2431 669 2431 922 
Q 2431 1156 2273 1281 
Q 2116 1406 1581 1522 
L 1381 1569 
Q 847 1681 609 1914 
Q 372 2147 372 2553 
Q 372 3047 722 3315 
Q 1072 3584 1716 3584 
Q 2034 3584 2315 3537 
Q 2597 3491 2834 3397 
z
" transform="scale(0.015625)"/>
       <path id="DejaVuSans-6f" d="M 1959 3097 
Q 1497 3097 1228 2736 
Q 959 2375 959 1747 
Q 959 1119 1226 758 
Q 1494 397 1959 397 
Q 2419 397 2687 759 
Q 2956 1122 2956 1747 
Q 2956 2369 2687 2733 
Q 2419 3097 1959 3097 
z
M 1959 3584 
Q 2709 3584 3137 3096 
Q 3566 2609 3566 1747 
Q 3566 888 3137 398 
Q 2709 -91 1959 -91 
Q 1206 -91 779 398 
Q 353 888 353 1747 
Q 353 2609 779 3096 
Q 1206 3584 1959 3584 
z
" transform="scale(0.015625)"/>
       <path id="DejaVuSans-75" d="M 544 1381 
L 544 3500 
L 1119 3500 
L 1119 1403 
Q 1119 906 1312 657 
Q 1506 409 1894 409 
Q 2359 409 2629 706 
Q 2900 1003 2900 1516 
L 2900 3500 
L 3475 3500 
L 3475 0 
L 2900 0 
L 2900 538 
Q 2691 219 2414 64 
Q 2138 -91 1772 -91 
Q 1169 -91 856 284 
Q 544 659 544 1381 
z
M 1991 3584 
L 1991 3584 
z
" transform="scale(0.015625)"/>
       <path id="DejaVuSans-72" d="M 2631 2963 
Q 2534 3019 2420 3045 
Q 2306 3072 2169 3072 
Q 1681 3072 1420 2755 
Q 1159 2438 1159 1844 
L 1159 0 
L 581 0 
L 581 3500 
L 1159 3500 
L 1159 2956 
Q 1341 3275 1631 3429 
Q 1922 3584 2338 3584 
Q 2397 3584 2469 3576 
Q 2541 3569 2628 3553 
L 2631 2963 
z
" transform="scale(0.015625)"/>
       <path id="DejaVuSans-63" d="M 3122 3366 
L 3122 2828 
Q 2878 2963 2633 3030 
Q 2388 3097 2138 3097 
Q 1578 3097 1268 2742 
Q 959 2388 959 1747 
Q 959 1106 1268 751 
Q 1578 397 2138 397 
Q 2388 397 2633 464 
Q 2878 531 3122 666 
L 3122 134 
Q 2881 22 2623 -34 
Q 2366 -91 2075 -91 
Q 1284 -91 818 406 
Q 353 903 353 1747 
Q 353 2603 823 3093 
Q 1294 3584 2113 3584 
Q 2378 3584 2631 3529 
Q 2884 3475 3122 3366 
z
" transform="scale(0.015625)"/>
      </defs>
      <use xlink:href="#DejaVuSans-52"/>
      <use xlink:href="#DejaVuSans-65" x="64.982422"/>
      <use xlink:href="#DejaVuSans-73" x="126.505859"/>
      <use xlink:href="#DejaVuSans-6f" x="178.605469"/>
      <use xlink:href="#DejaVuSans-75" x="239.787109"/>
      <use xlink:href="#DejaVuSans-72" x="303.166016"/>
      <use xlink:href="#DejaVuSans-63" x="342.029297"/>
      <use xlink:href="#DejaVuSans-65" x="397.009766"/>
      <use xlink:href="#DejaVuSans-73" x="458.533203"/>
     </g>
    </g>
   </g>
   <g id="matplotlib.axis_2">
    <g id="ytick_1">
     <g id="line2d_34">
      <defs>
       <path id="m6ef92dbdf0" d="M 0 0 
L -3.5 0 
" style="stroke: #000000; stroke-width: 0.8"/>
      </defs>
      <g>
       <use xlink:href="#m6ef92dbdf0" x="54" y="205.146684" style="stroke: #000000; stroke-width: 0.8"/>
      </g>
     </g>
     <g id="text_6">
      <!-- $\mathdefault{10^{-2}}$ -->
      <g transform="translate(23.5 208.945903)scale(0.1 -0.1)">
       <defs>
        <path id="DejaVuSans-2212" d="M 678 2272 
L 4684 2272 
L 4684 1741 
L 678 1741 
L 678 2272 
z
" transform="scale(0.015625)"/>
       </defs>
       <use xlink:href="#DejaVuSans-31" transform="translate(0 0.765625)"/>
       <use xlink:href="#DejaVuSans-30" transform="translate(63.623047 0.765625)"/>
       <use xlink:href="#DejaVuSans-2212" transform="translate(128.203125 39.046875)scale(0.7)"/>
       <use xlink:href="#DejaVuSans-32" transform="translate(186.855469 39.046875)scale(0.7)"/>
      </g>
     </g>
    </g>
    <g id="ytick_2">
     <g id="line2d_35">
      <g>
       <use xlink:href="#m6ef92dbdf0" x="54" y="147.606178" style="stroke: #000000; stroke-width: 0.8"/>
      </g>
     </g>
     <g id="text_7">
      <!-- $\mathdefault{10^{-1}}$ -->
      <g transform="translate(23.5 151.405397)scale(0.1 -0.1)">
       <use xlink:href="#DejaVuSans-31" transform="translate(0 0.684375)"/>
       <use xlink:href="#DejaVuSans-30" transform="translate(63.623047 0.684375)"/>
       <use xlink:href="#DejaVuSans-2212" transform="translate(128.203125 38.965625)scale(0.7)"/>
       <use xlink:href="#DejaVuSans-31" transform="translate(186.855469 38.965625)scale(0.7)"/>
      </g>
     </g>
    </g>
    <g id="ytick_3">
     <g id="line2d_36">
      <g>
       <use xlink:href="#m6ef92dbdf0" x="54" y="90.065671" style="stroke: #000000; stroke-width: 0.8"/>
      </g>
     </g>
     <g id="text_8">
      <!-- $\mathdefault{10^{0}}$ -->
      <g transform="translate(29.4 93.86489)scale(0.1 -0.1)">
       <use xlink:href="#DejaVuSans-31" transform="translate(0 0.765625)"/>
       <use xlink:href="#DejaVuSans-30" transform="translate(63.623047 0.765625)"/>
       <use xlink:href="#DejaVuSans-30" transform="translate(128.203125 39.046875)scale(0.7)"/>
      </g>
     </g>
    </g>
    <g id="ytick_4">
     <g id="line2d_37">
      <defs>
       <path id="m100961173c" d="M 0 0 
L -2 0 
" style="stroke: #000000; stroke-width: 0.6"/>
      </defs>
      <g>
       <use xlink:href="#m100961173c" x="54" y="245.365772" style="stroke: #000000; stroke-width: 0.6"/>
      </g>
     </g>
    </g>
    <g id="ytick_5">
     <g id="line2d_38">
      <g>
       <use xlink:href="#m100961173c" x="54" y="235.233392" style="stroke: #000000; stroke-width: 0.6"/>
      </g>
     </g>
    </g>
    <g id="ytick_6">
     <g id="line2d_39">
      <g>
       <use xlink:href="#m100961173c" x="54" y="228.044354" style="stroke: #000000; stroke-width: 0.6"/>
      </g>
     </g>
    </g>
    <g id="ytick_7">
     <g id="line2d_40">
      <g>
       <use xlink:href="#m100961173c" x="54" y="222.468103" style="stroke: #000000; stroke-width: 0.6"/>
      </g>
     </g>
    </g>
    <g id="ytick_8">
     <g id="line2d_41">
      <g>
       <use xlink:href="#m100961173c" x="54" y="217.911974" style="stroke: #000000; stroke-width: 0.6"/>
      </g>
     </g>
    </g>
    <g id="ytick_9">
     <g id="line2d_42">
      <g>
       <use xlink:href="#m100961173c" x="54" y="214.059822" style="stroke: #000000; stroke-width: 0.6"/>
      </g>
     </g>
    </g>
    <g id="ytick_10">
     <g id="line2d_43">
      <g>
       <use xlink:href="#m100961173c" x="54" y="210.722936" style="stroke: #000000; stroke-width: 0.6"/>
      </g>
     </g>
    </g>
    <g id="ytick_11">
     <g id="line2d_44">
      <g>
       <use xlink:href="#m100961173c" x="54" y="207.779594" style="stroke: #000000; stroke-width: 0.6"/>
      </g>
     </g>
    </g>
    <g id="ytick_12">
     <g id="line2d_45">
      <g>
       <use xlink:href="#m100961173c" x="54" y="187.825266" style="stroke: #000000; stroke-width: 0.6"/>
      </g>
     </g>
    </g>
    <g id="ytick_13">
     <g id="line2d_46">
      <g>
       <use xlink:href="#m100961173c" x="54" y="177.692886" style="stroke: #000000; stroke-width: 0.6"/>
      </g>
     </g>
    </g>
    <g id="ytick_14">
     <g id="line2d_47">
      <g>
       <use xlink:href="#m100961173c" x="54" y="170.503848" style="stroke: #000000; stroke-width: 0.6"/>
      </g>
     </g>
    </g>
    <g id="ytick_15">
     <g id="line2d_48">
      <g>
       <use xlink:href="#m100961173c" x="54" y="164.927596" style="stroke: #000000; stroke-width: 0.6"/>
      </g>
     </g>
    </g>
    <g id="ytick_16">
     <g id="line2d_49">
      <g>
       <use xlink:href="#m100961173c" x="54" y="160.371467" style="stroke: #000000; stroke-width: 0.6"/>
      </g>
     </g>
    </g>
    <g id="ytick_17">
     <g id="line2d_50">
      <g>
       <use xlink:href="#m100961173c" x="54" y="156.519315" style="stroke: #000000; stroke-width: 0.6"/>
      </g>
     </g>
    </g>
    <g id="ytick_18">
     <g id="line2d_51">
      <g>
       <use xlink:href="#m100961173c" x="54" y="153.182429" style="stroke: #000000; stroke-width: 0.6"/>
      </g>
     </g>
    </g>
    <g id="ytick_19">
     <g id="line2d_52">
      <g>
       <use xlink:href="#m100961173c" x="54" y="150.239087" style="stroke: #000000; stroke-width: 0.6"/>
      </g>
     </g>
    </g>
    <g id="ytick_20">
     <g id="line2d_53">
      <g>
       <use xlink:href="#m100961173c" x="54" y="130.284759" style="stroke: #000000; stroke-width: 0.6"/>
      </g>
     </g>
    </g>
    <g id="ytick_21">
     <g id="line2d_54">
      <g>
       <use xlink:href="#m100961173c" x="54" y="120.152379" style="stroke: #000000; stroke-width: 0.6"/>
      </g>
     </g>
    </g>
    <g id="ytick_22">
     <g id="line2d_55">
      <g>
       <use xlink:href="#m100961173c" x="54" y="112.963341" style="stroke: #000000; stroke-width: 0.6"/>
      </g>
     </g>
    </g>
    <g id="ytick_23">
     <g id="line2d_56">
      <g>
       <use xlink:href="#m100961173c" x="54" y="107.38709" style="stroke: #000000; stroke-width: 0.6"/>
      </g>
     </g>
    </g>
    <g id="ytick_24">
     <g id="line2d_57">
      <g>
       <use xlink:href="#m100961173c" x="54" y="102.830961" style="stroke: #000000; stroke-width: 0.6"/>
      </g>
     </g>
    </g>
    <g id="ytick_25">
     <g id="line2d_58">
      <g>
       <use xlink:href="#m100961173c" x="54" y="98.978809" style="stroke: #000000; stroke-width: 0.6"/>
      </g>
     </g>
    </g>
    <g id="ytick_26">
     <g id="line2d_59">
      <g>
       <use xlink:href="#m100961173c" x="54" y="95.641923" style="stroke: #000000; stroke-width: 0.6"/>
      </g>
     </g>
    </g>
    <g id="ytick_27">
     <g id="line2d_60">
      <g>
       <use xlink:href="#m100961173c" x="54" y="92.698581" style="stroke: #000000; stroke-width: 0.6"/>
      </g>
     </g>
    </g>
    <g id="ytick_28">
     <g id="line2d_61">
      <g>
       <use xlink:href="#m100961173c" x="54" y="72.744253" style="stroke: #000000; stroke-width: 0.6"/>
      </g>
     </g>
    </g>
    <g id="ytick_29">
     <g id="line2d_62">
      <g>
       <use xlink:href="#m100961173c" x="54" y="62.611873" style="stroke: #000000; stroke-width: 0.6"/>
      </g>
     </g>
    </g>
    <g id="ytick_30">
     <g id="line2d_63">
      <g>
       <use xlink:href="#m100961173c" x="54" y="55.422835" style="stroke: #000000; stroke-width: 0.6"/>
      </g>
     </g>
    </g>
    <g id="ytick_31">
     <g id="line2d_64">
      <g>
       <use xlink:href="#m100961173c" x="54" y="49.846583" style="stroke: #000000; stroke-width: 0.6"/>
      </g>
     </g>
    </g>
    <g id="ytick_32">
     <g id="line2d_65">
      <g>
       <use xlink:href="#m100961173c" x="54" y="45.290454" style="stroke: #000000; stroke-width: 0.6"/>
      </g>
     </g>
    </g>
    <g id="ytick_33">
     <g id="line2d_66">
      <g>
       <use xlink:href="#m100961173c" x="54" y="41.438302" style="stroke: #000000; stroke-width: 0.6"/>
      </g>
     </g>
    </g>
    <g id="ytick_34">
     <g id="line2d_67">
      <g>
       <use xlink:href="#m100961173c" x="54" y="38.101416" style="stroke: #000000; stroke-width: 0.6"/>
      </g>
     </g>
    </g>
    <g id="ytick_35">
     <g id="line2d_68">
      <g>
       <use xlink:href="#m100961173c" x="54" y="35.158074" style="stroke: #000000; stroke-width: 0.6"/>
      </g>
     </g>
    </g>
    <g id="text_9">
     <!-- MSE -->
     <g transform="translate(17.420313 153.927656)rotate(-90)scale(0.1 -0.1)">
      <defs>
       <path id="DejaVuSans-4d" d="M 628 4666 
L 1569 4666 
L 2759 1491 
L 3956 4666 
L 4897 4666 
L 4897 0 
L 4281 0 
L 4281 4097 
L 3078 897 
L 2444 897 
L 1241 4097 
L 1241 0 
L 628 0 
L 628 4666 
z
" transform="scale(0.015625)"/>
       <path id="DejaVuSans-53" d="M 3425 4513 
L 3425 3897 
Q 3066 4069 2747 4153 
Q 2428 4238 2131 4238 
Q 1616 4238 1336 4038 
Q 1056 3838 1056 3469 
Q 1056 3159 1242 3001 
Q 1428 2844 1947 2747 
L 2328 2669 
Q 3034 2534 3370 2195 
Q 3706 1856 3706 1288 
Q 3706 609 3251 259 
Q 2797 -91 1919 -91 
Q 1588 -91 1214 -16 
Q 841 59 441 206 
L 441 856 
Q 825 641 1194 531 
Q 1563 422 1919 422 
Q 2459 422 2753 634 
Q 3047 847 3047 1241 
Q 3047 1584 2836 1778 
Q 2625 1972 2144 2069 
L 1759 2144 
Q 1053 2284 737 2584 
Q 422 2884 422 3419 
Q 422 4038 858 4394 
Q 1294 4750 2059 4750 
Q 2388 4750 2728 4690 
Q 3069 4631 3425 4513 
z
" transform="scale(0.015625)"/>
       <path id="DejaVuSans-45" d="M 628 4666 
L 3578 4666 
L 3578 4134 
L 1259 4134 
L 1259 2753 
L 3481 2753 
L 3481 2222 
L 1259 2222 
L 1259 531 
L 3634 531 
L 3634 0 
L 628 0 
L 628 4666 
z
" transform="scale(0.015625)"/>
      </defs>
      <use xlink:href="#DejaVuSans-4d"/>
      <use xlink:href="#DejaVuSans-53" x="86.279297"/>
      <use xlink:href="#DejaVuSans-45" x="149.755859"/>
     </g>
    </g>
   </g>
   <g id="line2d_69">
    <path d="M 69.218182 108.564505 
L 72.56614 108.318493 
L 75.645963 109.179464 
L 78.497434 109.211692 
L 81.15209 109.654019 
L 83.635354 109.850303 
L 85.968023 110.284793 
L 88.167321 110.361852 
L 90.247679 110.702775 
L 92.221304 111.168002 
L 95.888578 111.536452 
L 99.236536 112.054906 
L 100.807254 112.098402 
L 102.316359 112.336499 
L 103.768503 112.719711 
L 105.16783 112.862044 
L 106.518047 113.188471 
L 107.822486 113.280825 
L 110.30575 113.799536 
L 111.489759 113.828974 
L 113.753779 114.731649 
L 114.837717 114.562432 
L 115.891954 115.181822 
L 116.918075 115.448519 
L 117.91754 115.51244 
L 119.841804 116.267395 
L 120.769011 116.918763 
L 122.558973 117.195227 
L 123.423667 117.620473 
L 124.269355 117.668491 
L 125.906932 118.463428 
L 126.700305 118.614924 
L 127.47765 119.15544 
L 128.2396 118.853741 
L 128.986755 119.178207 
L 129.719677 119.795848 
L 131.144923 120.403867 
L 131.838225 120.123036 
L 132.519256 120.657807 
L 133.188443 120.738937 
L 134.492881 121.568922 
L 135.128883 121.130145 
L 135.754543 121.745553 
L 136.370192 121.948871 
L 136.976146 122.327745 
L 137.572704 122.024228 
L 138.160155 122.53075 
L 138.738771 122.611031 
L 139.308814 122.895226 
L 139.870536 122.428414 
L 140.424175 122.883708 
L 140.969961 122.780765 
L 141.508113 123.35477 
L 142.038842 123.160851 
L 143.078831 123.066097 
L 143.588471 123.542946 
L 144.091448 123.571616 
L 144.587936 123.347468 
L 145.078099 123.255869 
L 145.562096 122.854412 
L 146.04008 123.887949 
L 146.512199 123.302876 
L 146.978596 123.977482 
L 147.439407 123.302571 
L 147.894764 124.146043 
L 148.344796 123.653796 
L 148.789624 124.579624 
L 149.229369 123.346618 
L 149.664145 124.008614 
L 150.094063 123.721706 
L 150.51923 124.312001 
L 150.93975 123.569346 
L 151.355725 124.212647 
L 151.76725 123.611238 
L 152.17442 124.541897 
L 152.577327 123.864437 
L 152.976059 124.280932 
L 153.370701 124.109753 
L 153.761336 124.212066 
L 162.733995 125.75754 
L 175.68052 129.341917 
L 185.350408 132.144237 
L 199.499445 138.566863 
L 205.005572 140.814211 
L 209.821505 141.565146 
L 214.101162 143.59242 
L 217.952098 144.261339 
L 221.452441 144.741505 
L 224.660736 145.34192 
L 227.621985 145.360278 
L 232.93763 145.601367 
L 235.343241 145.523109 
L 237.607262 146.36749 
L 239.745437 146.165879 
L 241.771022 146.537668 
L 243.695286 146.701072 
L 245.527882 147.289513 
L 247.277149 147.617902 
L 248.950336 147.729781 
L 250.553787 148.609126 
L 252.093082 148.877634 
L 253.573159 149.788725 
L 254.998405 149.597544 
L 256.372739 149.63211 
L 257.699672 150.957408 
L 258.982365 150.498077 
L 260.223675 150.671314 
L 261.426186 152.982974 
L 262.592253 154.139583 
L 263.724018 154.641663 
L 264.823443 154.947111 
L 265.892324 155.625551 
L 266.932313 156.956871 
L 267.944931 155.890044 
L 270.832078 158.358416 
L 271.748246 158.231927 
L 272.643106 160.074939 
L 273.517627 160.45563 
L 274.372712 161.970662 
L 275.209207 160.172587 
L 276.027903 161.602047 
L 276.829541 162.368141 
L 277.614818 164.416075 
L 278.384389 163.622015 
L 279.138869 165.295623 
L 279.878839 163.517298 
L 280.604846 162.701633 
L 281.317408 165.367092 
L 282.017014 166.123004 
L 282.704126 164.663467 
L 283.379182 165.063098 
L 284.0426 165.822556 
L 284.694772 167.36416 
L 285.336074 167.724668 
L 285.966863 167.744822 
L 287.19824 167.293036 
L 287.799459 170.680796 
L 288.391428 169.601146 
L 288.974428 169.965573 
L 289.548726 171.340973 
L 290.114578 170.524653 
L 290.672229 171.173303 
L 291.221914 171.000506 
L 291.763856 171.416148 
L 292.29827 173.053402 
L 292.825364 171.282378 
L 293.345335 172.258426 
L 293.858373 171.459606 
L 294.364659 173.947021 
L 294.864371 172.097009 
L 295.357676 174.241851 
L 295.844736 173.951322 
L 296.325708 176.271852 
L 296.800742 175.748143 
L 297.269982 175.681472 
L 297.733569 175.1285 
L 298.191637 177.025812 
L 299.091731 175.113851 
L 299.534003 175.864405 
L 299.971249 176.153558 
L 300.403582 177.362568 
L 300.831111 178.889761 
L 301.253943 177.540982 
L 301.672178 177.031165 
L 302.085915 177.607011 
L 302.495252 179.052532 
L 302.900279 179.255553 
L 303.301087 178.673757 
L 303.697764 179.835074 
L 304.090392 178.51679 
L 304.86383 178.385603 
L 305.244796 180.97953 
L 305.622027 179.241505 
L 305.995595 180.448896 
L 306.365572 182.287229 
L 306.732024 180.101899 
L 307.09502 182.032005 
L 307.454623 183.17284 
L 308.163901 181.609269 
L 308.513697 182.940753 
L 308.860341 182.792372 
L 309.544399 182.85519 
L 309.881921 183.409822 
L 310.216508 184.69939 
L 310.54821 183.50488 
L 310.877078 182.83077 
L 311.203158 182.791882 
L 311.847144 185.352077 
L 312.165139 185.084419 
L 312.480528 184.047963 
L 312.793353 186.209013 
L 313.103655 185.530109 
L 313.411475 185.456562 
L 313.716851 186.363106 
L 314.019823 186.124094 
L 314.320428 186.411736 
L 314.618703 186.493774 
L 314.914683 187.769336 
L 315.208404 186.543023 
L 315.4999 187.941316 
L 315.789204 187.035702 
L 316.076349 187.416134 
L 316.361367 186.841535 
L 316.644289 187.54915 
L 316.925146 187.496553 
L 317.203968 188.488112 
L 317.480784 188.378315 
L 317.755623 187.937785 
L 318.028512 188.120089 
L 318.29948 188.857494 
L 318.568552 188.759887 
L 319.101118 189.890734 
L 319.364662 189.272638 
L 319.626413 190.313807 
L 319.886395 188.535212 
L 320.144633 190.177576 
L 320.401149 190.854784 
L 320.909107 189.761269 
L 321.160593 190.477972 
L 321.410446 189.669428 
L 321.658687 189.66824 
L 321.905337 190.816021 
L 322.150416 189.742628 
L 322.635939 191.017329 
L 322.876423 191.398585 
L 323.115413 192.980494 
L 323.352928 193.118892 
L 323.588985 192.176248 
L 324.056799 192.647404 
L 324.288591 193.798159 
L 324.518994 192.226366 
L 324.748026 193.121999 
L 324.975703 193.086881 
L 325.20204 194.080284 
L 325.650759 194.068798 
L 325.873172 195.073012 
L 326.314177 193.966935 
L 326.532798 194.136393 
L 326.750184 194.913671 
L 326.966349 196.203147 
L 327.181306 194.005455 
L 327.395069 195.505465 
L 327.607651 194.863182 
L 327.819065 193.713142 
L 328.23844 195.314626 
L 328.653293 195.904926 
L 328.859054 197.097721 
L 329.063721 197.44611 
L 329.267305 195.319746 
L 329.469817 196.517397 
L 329.671269 196.152729 
L 329.871672 197.548004 
L 330.071036 197.823027 
L 330.269373 196.724913 
L 330.466693 197.784106 
L 330.663006 197.87375 
L 330.858322 197.50847 
L 331.052652 197.82131 
L 331.246005 198.716013 
L 331.629821 197.344321 
L 331.820303 199.230767 
L 332.009847 199.216238 
L 332.198461 196.323334 
L 332.386155 195.990754 
L 333.127908 198.200547 
L 333.311134 197.943441 
L 333.493491 198.751402 
L 333.674987 198.991451 
L 333.855632 200.107808 
L 334.392533 198.790472 
L 334.569847 200.20673 
L 334.746349 199.738913 
L 334.922044 199.710539 
L 335.271047 201.187729 
L 335.444368 200.770175 
L 335.616912 199.909238 
L 335.788686 201.346198 
L 335.959696 200.067599 
L 336.12995 202.205468 
L 336.299453 199.889896 
L 336.468213 200.157503 
L 336.636236 201.304078 
L 336.803529 201.538961 
L 336.970098 202.111675 
L 337.135948 200.534856 
L 337.301087 202.394095 
L 337.46552 201.415048 
L 337.629253 202.033944 
L 337.792292 201.752227 
L 337.954644 203.317411 
L 338.437628 201.812328 
L 338.597285 203.781158 
L 338.756282 201.61824 
L 338.914625 202.635084 
L 339.072319 201.789931 
L 339.385781 203.698178 
L 339.541559 204.199138 
L 339.69671 203.239128 
L 339.851237 202.991773 
L 340.005146 204.222217 
L 340.158442 201.808949 
L 340.31113 204.137916 
L 340.463214 202.970553 
L 340.614699 204.67186 
L 340.765591 202.74246 
L 341.06561 205.984359 
L 341.214747 204.656418 
L 341.363308 205.984781 
L 341.511297 205.102728 
L 341.65872 202.613259 
L 341.951881 205.144783 
L 342.242826 206.453585 
L 342.387477 206.461718 
L 342.531587 204.845343 
L 342.675159 205.988579 
L 342.818197 205.364474 
L 343.102688 207.062765 
L 343.385092 206.411107 
L 343.52552 205.248134 
L 343.665437 205.600769 
L 343.804847 204.993952 
L 343.943755 205.252991 
L 344.082162 206.580702 
L 344.220074 206.752747 
L 344.357493 204.785074 
L 344.494422 204.761466 
L 344.630867 208.17486 
L 344.902312 206.441069 
L 345.03732 206.334729 
L 345.171856 207.411684 
L 345.305923 206.835372 
L 345.439525 208.30202 
L 345.572664 207.358639 
L 345.837569 208.854205 
L 345.969341 207.912516 
L 346.100662 208.841339 
L 346.361969 207.710092 
L 346.49196 206.842042 
L 346.750631 208.50067 
L 346.879318 208.070528 
L 347.135407 209.681535 
L 347.389803 207.241864 
L 347.768271 209.707144 
L 347.893604 209.668814 
L 348.143052 208.41936 
L 348.267172 208.111884 
L 348.390894 208.607977 
L 348.514218 209.839023 
L 348.637149 209.561215 
L 348.881838 208.42959 
L 349.003602 210.485625 
L 349.124981 209.538 
L 349.245979 209.902113 
L 349.366597 207.639361 
L 349.606706 210.795595 
L 349.7262 210.366328 
L 349.845325 209.096544 
L 349.964082 209.215871 
L 350.082474 209.093734 
L 350.200502 211.251397 
L 350.31817 210.098173 
L 350.435478 210.286925 
L 350.552431 211.454753 
L 350.669028 210.593897 
L 350.785274 211.288827 
L 350.901169 210.606072 
L 351.016717 210.8522 
L 351.131918 212.04668 
L 351.246776 210.629034 
L 351.361291 211.412616 
L 351.475467 211.257549 
L 351.589305 210.743211 
L 351.702808 210.770547 
L 351.815976 212.001006 
L 351.928813 211.919019 
L 352.041319 213.337844 
L 352.265351 212.347839 
L 352.488085 211.506659 
L 352.59897 211.7983 
L 352.709537 213.002277 
L 352.819787 212.071244 
L 352.929722 212.20802 
L 353.148655 213.049847 
L 353.257655 212.654968 
L 353.366348 214.312346 
L 353.474735 211.445752 
L 353.690597 213.862999 
L 353.905254 212.900596 
L 354.118721 213.645726 
L 354.225011 213.585488 
L 354.331009 214.041143 
L 354.436716 213.88379 
L 354.542133 214.788229 
L 354.647263 213.812829 
L 354.752105 214.202755 
L 354.856663 212.685606 
L 354.960938 213.350361 
L 355.06493 212.812627 
L 355.168643 211.690146 
L 355.375232 213.411851 
L 355.478113 212.786505 
L 355.683052 214.799953 
L 355.886905 212.163003 
L 356.089684 214.018333 
L 356.190675 212.767916 
L 356.2914 215.764006 
L 356.391863 215.270587 
L 356.492065 214.088749 
L 356.592006 217.243463 
L 356.791112 214.4525 
L 356.89028 213.712245 
L 357.087853 214.92757 
L 357.186261 214.855228 
L 357.382323 215.769679 
L 357.479981 213.98672 
L 357.577392 215.08443 
L 357.674557 214.444453 
L 357.771477 214.745801 
L 357.964588 216.147753 
L 358.252449 215.059394 
L 358.347926 214.743429 
L 358.632944 217.348839 
L 358.727483 214.467861 
L 358.915866 216.813079 
L 359.009713 215.870934 
L 359.196723 217.466519 
L 359.289889 217.090553 
L 359.382829 214.757697 
L 359.475545 217.426582 
L 359.568039 214.800006 
L 359.66031 215.654503 
L 359.752361 215.623669 
L 359.844192 215.548966 
L 359.935805 216.42253 
L 360.0272 215.846852 
L 360.209341 216.894007 
L 360.300089 216.847805 
L 360.390624 217.254663 
L 360.480946 215.815126 
L 360.571057 217.137123 
L 360.660957 216.950572 
L 360.750648 216.538221 
L 360.84013 216.650391 
L 360.929404 215.891767 
L 361.018472 218.12122 
L 361.107334 217.65784 
L 361.195991 218.13814 
L 361.284445 217.676202 
L 361.372695 218.806229 
L 361.460744 218.642504 
L 361.548591 218.172489 
L 361.636239 218.775387 
L 361.723687 217.3108 
L 361.89799 218.539489 
L 361.984846 217.586881 
L 362.071507 219.124511 
L 362.157972 217.757792 
L 362.244244 218.042145 
L 362.330323 218.241449 
L 362.41621 218.804356 
L 362.501905 217.139274 
L 362.672726 219.670981 
L 362.927543 217.575151 
L 363.012108 216.962892 
L 363.096488 219.13412 
L 363.180684 217.977069 
L 363.348524 219.709112 
L 363.515635 217.550819 
L 363.598919 218.381851 
L 363.682023 216.580841 
L 363.764948 218.77458 
L 363.847695 217.502503 
L 363.930264 220.369545 
L 364.176914 218.057771 
L 364.25878 218.143663 
L 364.340473 218.062224 
L 364.421993 218.406493 
L 364.50334 218.261048 
L 364.584516 219.850635 
L 364.665521 219.433698 
L 364.746355 219.2355 
L 364.907517 219.789161 
L 364.987845 218.687776 
L 365.068006 220.503508 
L 365.227828 218.414635 
L 365.38699 221.548074 
L 365.466325 219.183883 
L 365.545496 221.381201 
L 365.703352 219.697218 
L 365.782037 220.399017 
L 365.860562 220.079083 
L 366.017133 220.678785 
L 366.09518 219.010032 
L 366.250801 221.093762 
L 366.328376 220.856254 
L 366.483059 219.595542 
L 366.637122 221.341639 
L 366.713923 220.272812 
L 366.790571 220.34381 
L 366.867067 219.993603 
L 366.94341 220.042291 
L 367.019603 221.526279 
L 367.095645 220.668828 
L 367.24728 221.953703 
L 367.322874 221.816046 
L 367.398319 221.499799 
L 367.473617 222.530753 
L 367.623772 221.130573 
L 367.698631 220.564508 
L 367.773344 220.870447 
L 367.847912 220.472428 
L 367.922336 221.421577 
L 367.996617 219.976497 
L 368.144749 221.736824 
L 368.218602 222.422528 
L 368.292313 220.556355 
L 368.365883 220.890906 
L 368.439313 221.504334 
L 368.512603 220.291756 
L 368.585754 220.60237 
L 368.658766 220.814869 
L 368.731639 219.92881 
L 368.949436 221.860213 
L 369.093951 223.392376 
L 369.166006 223.311729 
L 369.237926 220.533075 
L 369.309712 221.879379 
L 369.452883 223.334332 
L 369.595524 223.158458 
L 369.666646 222.338623 
L 369.737638 222.837039 
L 369.808498 222.444904 
L 369.879228 222.781878 
L 369.949829 220.977037 
L 370.090642 223.749769 
L 370.160856 223.427811 
L 370.230942 223.626454 
L 370.300901 223.864695 
L 370.370733 223.19364 
L 370.440438 223.330486 
L 370.579471 222.960742 
L 370.648799 222.06159 
L 370.787082 224.28072 
L 370.92487 223.074421 
L 370.993579 223.450369 
L 371.062166 221.814945 
L 371.130631 222.481701 
L 371.198975 223.389058 
L 371.267197 222.452453 
L 371.335298 222.962027 
L 371.403279 223.000613 
L 371.538882 223.300136 
L 371.606504 222.138602 
L 371.674008 222.722677 
L 371.741394 222.612966 
L 371.875813 224.335477 
L 371.942846 224.321379 
L 372.143249 222.640944 
L 372.276273 223.787853 
L 372.342613 222.926016 
L 372.54095 224.596082 
L 372.606836 224.487507 
L 372.672609 223.846848 
L 372.73827 224.77208 
L 372.803819 223.259453 
L 372.869256 224.942837 
L 372.934583 224.06207 
L 372.999798 223.797914 
L 373.129899 225.693147 
L 373.259561 223.012739 
L 373.324229 224.005469 
L 373.388788 224.597077 
L 373.453239 223.385114 
L 373.517582 224.11381 
L 373.581818 223.519071 
L 373.581818 223.519071 
" clip-path="url(#pf4441d9799)" style="fill: none; stroke: #0000ff; stroke-width: 1.5; stroke-linecap: square"/>
   </g>
   <g id="line2d_70">
    <path d="M 69.218182 44.443636 
L 373.581818 242.116364 
L 373.581818 242.116364 
" clip-path="url(#pf4441d9799)" style="fill: none; stroke: #000000; stroke-width: 1.5; stroke-linecap: square"/>
   </g>
   <g id="patch_3">
    <path d="M 54 252 
L 54 34.56 
" style="fill: none; stroke: #000000; stroke-width: 0.8; stroke-linejoin: miter; stroke-linecap: square"/>
   </g>
   <g id="patch_4">
    <path d="M 388.8 252 
L 388.8 34.56 
" style="fill: none; stroke: #000000; stroke-width: 0.8; stroke-linejoin: miter; stroke-linecap: square"/>
   </g>
   <g id="patch_5">
    <path d="M 54 252 
L 388.8 252 
" style="fill: none; stroke: #000000; stroke-width: 0.8; stroke-linejoin: miter; stroke-linecap: square"/>
   </g>
   <g id="patch_6">
    <path d="M 54 34.56 
L 388.8 34.56 
" style="fill: none; stroke: #000000; stroke-width: 0.8; stroke-linejoin: miter; stroke-linecap: square"/>
   </g>
  </g>
 </g>
 <defs>
  <clipPath id="pf4441d9799">
   <rect x="54" y="34.56" width="334.8" height="217.44"/>
  </clipPath>
 </defs>
</svg>
