<?xml version="1.0" encoding="utf-8" standalone="no"?>
<!DOCTYPE svg PUBLIC "-//W3C//DTD SVG 1.1//EN"
  "http://www.w3.org/Graphics/SVG/1.1/DTD/svg11.dtd">
<svg xmlns:xlink="http://www.w3.org/1999/xlink" width="432pt" height="288pt" viewBox="0 0 432 288" xmlns="http://www.w3.org/2000/svg" version="1.1">
 <metadata>
  <rdf:RDF xmlns:dc="http://purl.org/dc/elements/1.1/" xmlns:cc="http://creativecommons.org/ns#" xmlns:rdf="http://www.w3.org/1999/02/22-rdf-syntax-ns#">
   <cc:Work>
    <dc:type rdf:resource="http://purl.org/dc/dcmitype/StillImage"/>
    <dc:date>2022-02-14T03:49:44.890594</dc:date>
    <dc:format>image/svg+xml</dc:format>
    <dc:creator>
     <cc:Agent>
      <dc:title>Matplotlib v3.5.1, https://matplotlib.org/</dc:title>
     </cc:Agent>
    </dc:creator>
   </cc:Work>
  </rdf:RDF>
 </metadata>
 <defs>
  <style type="text/css">*{stroke-linejoin: round; stroke-linecap: butt}</style>
 </defs>
 <g id="figure_1">
  <g id="patch_1">
   <path d="M 0 288 
L 432 288 
L 432 0 
L 0 0 
L 0 288 
z
" style="fill: none"/>
  </g>
  <g id="axes_1">
   <g id="patch_2">
    <path d="M 54 252 
L 388.8 252 
L 388.8 34.56 
L 54 34.56 
z
" style="fill: #ffffff"/>
   </g>
   <g id="PolyCollection_1">
    <path d="M 69.218182 54.817348 
L 69.218182 56.854018 
L 72.56614 56.897932 
L 75.645963 59.811565 
L 78.497434 60.885025 
L 81.15209 62.203961 
L 83.635354 60.561069 
L 85.968023 62.158143 
L 88.167321 64.319112 
L 90.247679 65.137658 
L 92.221304 64.128524 
L 94.098615 64.970796 
L 95.888578 65.316806 
L 97.598959 67.938687 
L 99.236536 67.649271 
L 100.807254 68.103101 
L 102.316359 69.182945 
L 103.768503 69.159558 
L 105.16783 70.467244 
L 106.518047 71.006236 
L 107.822486 70.52408 
L 109.084148 70.260321 
L 110.30575 72.227638 
L 111.489759 71.466501 
L 112.638419 72.321682 
L 113.753779 71.908472 
L 114.837717 73.485781 
L 115.891954 73.739339 
L 116.918075 73.287369 
L 117.91754 73.99849 
L 118.8917 73.746443 
L 119.841804 75.056743 
L 120.769011 75.452998 
L 121.6744 74.796147 
L 122.558973 75.198959 
L 123.423667 76.830304 
L 124.269355 76.257689 
L 125.096854 76.039006 
L 125.906932 75.914841 
L 126.700305 77.074303 
L 127.47765 76.533749 
L 128.2396 77.906282 
L 128.986755 78.729025 
L 129.719677 77.296 
L 130.438899 77.306823 
L 131.144923 78.388381 
L 131.838225 78.786562 
L 132.519256 78.985068 
L 133.188443 79.450871 
L 133.84619 78.875649 
L 134.492881 79.772307 
L 135.128883 78.242485 
L 135.754543 80.003962 
L 136.370192 79.160713 
L 136.976146 80.175851 
L 137.572704 80.313067 
L 138.160155 80.343395 
L 138.738771 80.801726 
L 139.308814 81.586423 
L 139.870536 80.504906 
L 140.424175 81.726271 
L 140.969961 81.698004 
L 141.508113 81.243852 
L 142.038842 81.899921 
L 142.56235 81.686686 
L 143.078831 82.073738 
L 143.588471 82.209082 
L 144.091448 83.873328 
L 144.587936 82.23002 
L 145.078099 84.164305 
L 145.562096 82.527479 
L 146.04008 82.135125 
L 146.512199 82.956895 
L 146.978596 82.311006 
L 147.439407 83.737452 
L 147.894764 82.641977 
L 148.344796 83.397869 
L 148.789624 83.32077 
L 149.229369 84.610237 
L 149.664145 82.989437 
L 150.094063 83.583343 
L 150.51923 83.273333 
L 150.93975 83.22327 
L 151.355725 84.944131 
L 151.76725 83.320195 
L 152.17442 83.465314 
L 152.577327 82.870111 
L 152.976059 85.558376 
L 153.370701 83.648105 
L 153.761336 84.163545 
L 162.733995 86.276597 
L 175.68052 91.244804 
L 185.350408 100.056383 
L 193.071664 103.563789 
L 199.499445 108.286549 
L 205.005572 109.029883 
L 209.821505 110.704931 
L 214.101162 112.258238 
L 217.952098 111.233903 
L 221.452441 112.054148 
L 224.660736 113.791928 
L 227.621985 113.54615 
L 230.371529 113.7519 
L 232.93763 113.628968 
L 235.343241 114.355972 
L 237.607262 115.157516 
L 239.745437 115.100983 
L 241.771022 115.724652 
L 243.695286 115.948651 
L 245.527882 115.831071 
L 247.277149 116.145556 
L 248.950336 117.086792 
L 250.553787 118.12322 
L 252.093082 117.803755 
L 253.573159 119.20122 
L 254.998405 119.661464 
L 256.372739 119.596065 
L 257.699672 118.704312 
L 258.982365 120.345887 
L 260.223675 121.775462 
L 261.426186 123.30974 
L 262.592253 124.292747 
L 263.724018 123.368265 
L 264.823443 123.120493 
L 265.892324 125.487345 
L 266.932313 128.714832 
L 267.944931 129.738919 
L 268.931581 129.743219 
L 269.893562 127.765342 
L 270.832078 130.753112 
L 271.748246 130.659388 
L 272.643106 130.87437 
L 273.517627 132.907862 
L 274.372712 134.147602 
L 275.209207 136.536067 
L 276.027903 136.844468 
L 276.829541 134.924871 
L 277.614818 139.490055 
L 278.384389 141.951428 
L 279.138869 138.992048 
L 279.878839 147.211483 
L 280.604846 137.823287 
L 281.317408 143.538065 
L 282.017014 143.094396 
L 282.704126 142.883755 
L 283.379182 145.007596 
L 284.0426 144.175162 
L 284.694772 143.798528 
L 285.336074 144.471348 
L 285.966863 146.678097 
L 286.587477 144.978627 
L 287.19824 148.312164 
L 287.799459 146.080636 
L 288.391428 146.120258 
L 288.974428 146.906052 
L 289.548726 144.77097 
L 290.114578 149.365216 
L 290.672229 149.126214 
L 291.221914 148.462474 
L 291.763856 150.53986 
L 292.29827 150.131994 
L 292.825364 151.808882 
L 293.345335 150.545411 
L 293.858373 150.406369 
L 294.364659 152.279256 
L 294.864371 150.944279 
L 295.357676 155.627305 
L 295.844736 152.864882 
L 296.325708 152.410982 
L 296.800742 153.234327 
L 297.269982 153.369954 
L 297.733569 156.176246 
L 298.191637 153.502177 
L 298.644316 152.086322 
L 299.091731 162.5915 
L 299.534003 154.892264 
L 299.971249 161.460203 
L 300.403582 156.31657 
L 300.831111 155.389711 
L 301.253943 153.988907 
L 301.672178 155.744618 
L 302.085915 158.807218 
L 302.495252 155.014911 
L 302.900279 154.425446 
L 303.301087 154.837408 
L 303.697764 155.967196 
L 304.090392 155.977886 
L 304.479054 158.174588 
L 304.86383 158.873358 
L 305.244796 155.790098 
L 305.622027 154.836696 
L 305.995595 156.843093 
L 306.365572 166.16308 
L 306.732024 156.872516 
L 307.09502 157.594759 
L 307.454623 155.735077 
L 307.810896 156.22629 
L 308.163901 155.426267 
L 308.513697 155.86473 
L 308.860341 156.848558 
L 309.20389 155.976453 
L 309.544399 155.320468 
L 309.881921 155.90638 
L 310.216508 156.449111 
L 310.54821 157.71165 
L 310.877078 157.824298 
L 311.203158 158.0391 
L 311.526498 160.597814 
L 311.847144 156.779471 
L 312.165139 156.992097 
L 312.480528 156.932371 
L 312.793353 160.001489 
L 313.103655 159.622147 
L 313.411475 159.604035 
L 313.716851 158.930574 
L 314.019823 158.955112 
L 314.320428 158.846557 
L 314.618703 157.979827 
L 314.914683 159.213434 
L 315.208404 158.650558 
L 315.4999 160.423883 
L 315.789204 157.783842 
L 316.076349 157.612103 
L 316.361367 162.44359 
L 316.644289 163.110128 
L 316.925146 160.374431 
L 317.203968 158.135717 
L 317.480784 158.577432 
L 317.755623 155.837539 
L 318.028512 173.137248 
L 318.29948 177.501655 
L 318.568552 173.32712 
L 318.835757 159.358946 
L 319.101118 157.648814 
L 319.364662 176.642197 
L 319.626413 161.123115 
L 319.886395 157.617106 
L 320.144633 157.693094 
L 320.401149 161.548939 
L 320.655966 174.621593 
L 320.909107 164.88167 
L 321.160593 160.061063 
L 321.410446 158.487898 
L 321.658687 158.039229 
L 321.905337 177.555683 
L 322.150416 157.050059 
L 322.393943 159.050042 
L 322.635939 161.2689 
L 322.876423 169.077944 
L 323.115413 181.055965 
L 323.352928 159.348952 
L 323.588985 177.380149 
L 323.823603 179.928062 
L 324.056799 176.777081 
L 324.288591 159.053662 
L 324.518994 159.587153 
L 324.748026 158.090176 
L 324.975703 162.876079 
L 325.20204 164.182894 
L 325.427054 167.631513 
L 325.650759 175.391092 
L 325.873172 201.400086 
L 326.094306 206.623242 
L 326.314177 171.701949 
L 326.532798 167.603775 
L 326.750184 167.846866 
L 326.966349 170.05453 
L 327.181306 182.013677 
L 327.395069 172.028123 
L 327.607651 196.792052 
L 327.819065 190.519338 
L 328.029324 168.334375 
L 328.23844 170.272759 
L 328.446426 182.87926 
L 328.653293 173.815765 
L 328.859054 182.897445 
L 329.063721 192.034231 
L 329.267305 180.927352 
L 329.469817 168.05094 
L 329.671269 184.510394 
L 329.871672 158.278022 
L 330.071036 162.983517 
L 330.269373 158.887661 
L 330.466693 160.001293 
L 330.663006 169.002179 
L 330.858322 160.558122 
L 331.052652 28589.086615 
L 331.246005 178.391528 
L 331.438392 28589.086615 
L 331.629821 204.775546 
L 331.820303 28589.086615 
L 332.009847 159.499157 
L 332.198461 160.160193 
L 332.386155 159.344872 
L 332.572938 169.433198 
L 332.758819 176.608519 
L 332.943806 28589.086615 
L 333.127908 28589.086615 
L 333.311134 28589.086615 
L 333.493491 168.82673 
L 333.674987 185.729323 
L 333.855632 28589.086615 
L 334.035433 190.479075 
L 334.214397 167.535948 
L 334.392533 167.399782 
L 334.569847 158.580535 
L 334.746349 168.922002 
L 334.922044 167.768346 
L 335.096941 168.143909 
L 335.271047 169.625317 
L 335.444368 167.644201 
L 335.616912 167.987362 
L 335.788686 168.666238 
L 335.959696 168.146431 
L 336.12995 167.919148 
L 336.299453 206.389782 
L 336.468213 28589.086615 
L 336.636236 201.753177 
L 336.803529 171.084572 
L 336.970098 168.252987 
L 337.135948 167.768105 
L 337.301087 167.959888 
L 337.46552 167.779761 
L 337.629253 168.943717 
L 337.792292 195.366106 
L 337.954644 28589.086615 
L 338.116313 168.808687 
L 338.277306 167.750677 
L 338.437628 167.739253 
L 338.597285 169.695754 
L 338.756282 169.763073 
L 338.914625 169.116587 
L 339.072319 168.431714 
L 339.229369 168.369221 
L 339.385781 169.111632 
L 339.541559 167.565959 
L 339.69671 168.693868 
L 339.851237 168.467925 
L 340.005146 168.46937 
L 340.158442 169.887419 
L 340.31113 202.32653 
L 340.463214 168.839282 
L 340.614699 168.045566 
L 340.765591 169.100173 
L 340.915893 168.531205 
L 341.06561 168.916346 
L 341.214747 169.738835 
L 341.363308 168.790828 
L 341.511297 168.878629 
L 341.65872 28589.086615 
L 341.80558 169.442525 
L 341.951881 168.504363 
L 342.097629 168.860192 
L 342.242826 169.577192 
L 342.387477 167.422775 
L 342.531587 170.166955 
L 342.675159 168.361149 
L 342.818197 168.982664 
L 342.960706 188.851872 
L 343.102688 28589.086615 
L 343.244149 169.623293 
L 343.385092 28589.086615 
L 343.52552 169.16851 
L 343.665437 170.299486 
L 343.804847 168.338469 
L 343.943755 168.773481 
L 344.082162 168.772144 
L 344.220074 169.333468 
L 344.357493 168.950748 
L 344.494422 28589.086615 
L 344.630867 169.413088 
L 344.766829 169.99219 
L 344.902312 169.929887 
L 345.03732 169.352022 
L 345.171856 168.993306 
L 345.305923 169.059093 
L 345.439525 28589.086615 
L 345.572664 169.516781 
L 345.705345 195.860002 
L 345.837569 169.946161 
L 345.969341 169.213067 
L 346.100662 185.88443 
L 346.231538 168.403218 
L 346.361969 168.616506 
L 346.49196 175.190827 
L 346.621513 170.085765 
L 346.750631 169.099044 
L 346.879318 168.4144 
L 347.007576 170.212146 
L 347.135407 168.897186 
L 347.262815 169.612505 
L 347.389803 169.464994 
L 347.516373 168.898801 
L 347.642528 169.805217 
L 347.768271 169.352185 
L 347.893604 169.780025 
L 348.01853 171.687782 
L 348.143052 170.591471 
L 348.267172 169.700978 
L 348.390894 169.270958 
L 348.514218 168.718274 
L 348.637149 169.858404 
L 348.759688 170.059163 
L 348.881838 168.900214 
L 349.003602 169.946316 
L 349.124981 169.615455 
L 349.245979 169.597667 
L 349.366597 169.576001 
L 349.486839 170.881402 
L 349.606706 168.775636 
L 349.7262 170.116839 
L 349.845325 169.537924 
L 349.964082 169.382895 
L 350.082474 169.837411 
L 350.200502 168.491686 
L 350.31817 169.780884 
L 350.435478 170.037394 
L 350.552431 28589.086615 
L 350.669028 172.222973 
L 350.785274 169.608106 
L 350.901169 169.355221 
L 351.016717 168.538669 
L 351.131918 169.102914 
L 351.246776 169.980245 
L 351.361291 168.744303 
L 351.475467 170.483673 
L 351.589305 170.439143 
L 351.702808 170.58231 
L 351.815976 169.417113 
L 351.928813 169.793227 
L 352.041319 170.480769 
L 352.153498 169.556729 
L 352.265351 169.705227 
L 352.376879 170.702189 
L 352.488085 169.91174 
L 352.59897 169.694373 
L 352.709537 169.127491 
L 352.819787 169.310448 
L 352.929722 171.029305 
L 353.039344 169.724894 
L 353.148655 169.019657 
L 353.257655 169.8008 
L 353.366348 169.559535 
L 353.474735 168.780341 
L 353.582817 170.813868 
L 353.690597 170.206946 
L 353.798075 170.741923 
L 353.905254 169.748761 
L 354.012135 28589.086615 
L 354.118721 169.326517 
L 354.225011 28589.086615 
L 354.331009 168.714972 
L 354.436716 170.796957 
L 354.542133 170.074465 
L 354.647263 171.998322 
L 354.752105 170.959141 
L 354.856663 169.757943 
L 354.960938 170.761474 
L 355.06493 169.785106 
L 355.168643 170.439434 
L 355.272076 170.392319 
L 355.375232 169.364059 
L 355.478113 170.167088 
L 355.580719 168.81057 
L 355.683052 169.104758 
L 355.785114 170.942716 
L 355.886905 170.192012 
L 355.988428 170.149305 
L 356.089684 170.666522 
L 356.190675 170.696673 
L 356.2914 169.558261 
L 356.391863 170.313899 
L 356.492065 170.937898 
L 356.592006 170.125939 
L 356.691688 170.433626 
L 356.791112 170.377737 
L 356.89028 170.548533 
L 356.989194 170.473315 
L 357.087853 170.136878 
L 357.186261 170.254628 
L 357.284417 171.082201 
L 357.382323 171.639495 
L 357.479981 171.746574 
L 357.577392 171.518482 
L 357.674557 171.014722 
L 357.771477 171.091542 
L 357.868154 170.117797 
L 357.964588 170.154338 
L 358.060781 169.917487 
L 358.156734 169.378366 
L 358.252449 170.167751 
L 358.347926 169.79856 
L 358.443167 169.679127 
L 358.538172 169.910874 
L 358.632944 170.643769 
L 358.727483 170.903085 
L 358.82179 170.627692 
L 358.915866 170.475814 
L 359.009713 170.793296 
L 359.103332 172.921716 
L 359.196723 169.993731 
L 359.289889 170.872395 
L 359.382829 170.974005 
L 359.475545 169.929027 
L 359.568039 170.810699 
L 359.66031 172.106565 
L 359.752361 173.001982 
L 359.844192 170.340078 
L 359.935805 171.146976 
L 360.0272 170.927141 
L 360.118378 170.574118 
L 360.209341 171.026063 
L 360.300089 169.067467 
L 360.390624 171.179948 
L 360.480946 170.260922 
L 360.571057 169.304576 
L 360.660957 172.297278 
L 360.750648 170.674959 
L 360.84013 171.969238 
L 360.929404 170.368082 
L 361.018472 170.963544 
L 361.107334 172.005258 
L 361.195991 171.361238 
L 361.284445 170.457403 
L 361.372695 171.483614 
L 361.460744 170.546759 
L 361.548591 171.176954 
L 361.636239 171.119036 
L 361.723687 170.869481 
L 361.810937 172.48553 
L 361.89799 170.826028 
L 361.984846 172.487234 
L 362.071507 171.349548 
L 362.157972 171.153019 
L 362.244244 172.894465 
L 362.330323 171.857209 
L 362.41621 169.676971 
L 362.501905 170.195274 
L 362.58741 171.814247 
L 362.672726 171.414969 
L 362.757852 170.074198 
L 362.842791 173.10452 
L 362.927543 170.249024 
L 363.012108 170.151336 
L 363.096488 171.524087 
L 363.180684 169.960855 
L 363.264695 172.341675 
L 363.348524 170.736051 
L 363.43217 171.304929 
L 363.515635 171.053077 
L 363.598919 171.552695 
L 363.682023 171.10845 
L 363.764948 171.536383 
L 363.847695 172.817766 
L 363.930264 172.671085 
L 364.012657 171.103655 
L 364.094873 171.574411 
L 364.176914 171.393544 
L 364.25878 172.493347 
L 364.340473 171.933341 
L 364.421993 170.947108 
L 364.50334 171.655126 
L 364.584516 171.628315 
L 364.665521 171.602757 
L 364.746355 172.624386 
L 364.82702 171.906901 
L 364.907517 170.825066 
L 364.987845 171.772008 
L 365.068006 172.280423 
L 365.148 171.729355 
L 365.227828 172.495358 
L 365.307492 172.330422 
L 365.38699 171.993697 
L 365.466325 171.604848 
L 365.545496 171.651029 
L 365.624505 171.575681 
L 365.703352 171.206807 
L 365.782037 174.760502 
L 365.860562 172.144618 
L 365.938927 171.057711 
L 366.017133 171.143162 
L 366.09518 171.305746 
L 366.173069 171.308959 
L 366.250801 173.863627 
L 366.328376 171.47518 
L 366.405795 173.441149 
L 366.483059 172.016455 
L 366.560168 171.79443 
L 366.637122 170.787981 
L 366.713923 172.304911 
L 366.790571 171.324833 
L 366.867067 172.001946 
L 366.94341 172.973495 
L 367.019603 171.135081 
L 367.095645 171.781942 
L 367.171537 171.543477 
L 367.24728 171.902584 
L 367.322874 170.318024 
L 367.398319 171.631106 
L 367.473617 171.096075 
L 367.548768 171.389468 
L 367.623772 171.784145 
L 367.698631 172.763777 
L 367.773344 171.845037 
L 367.847912 171.413344 
L 367.922336 172.102608 
L 367.996617 172.670691 
L 368.070754 171.296717 
L 368.144749 172.434244 
L 368.218602 172.652383 
L 368.292313 171.618783 
L 368.365883 172.552522 
L 368.439313 172.603097 
L 368.512603 171.466753 
L 368.585754 171.64705 
L 368.658766 172.1151 
L 368.731639 173.041855 
L 368.804375 172.200721 
L 368.876974 172.28468 
L 368.949436 172.31942 
L 369.021761 170.898304 
L 369.093951 172.779867 
L 369.166006 172.784075 
L 369.237926 172.711269 
L 369.309712 171.906033 
L 369.381364 172.579043 
L 369.452883 172.386566 
L 369.52427 172.698842 
L 369.595524 171.447497 
L 369.666646 171.686576 
L 369.737638 171.811365 
L 369.808498 172.168822 
L 369.879228 172.639696 
L 369.949829 171.962616 
L 370.0203 172.482865 
L 370.090642 172.950743 
L 370.160856 172.955777 
L 370.230942 172.404843 
L 370.300901 172.492539 
L 370.370733 171.46196 
L 370.440438 172.416112 
L 370.510017 171.93913 
L 370.579471 172.404221 
L 370.648799 172.115461 
L 370.718003 172.485031 
L 370.787082 171.260639 
L 370.856038 171.712282 
L 370.92487 172.988098 
L 370.993579 172.350789 
L 371.062166 172.471243 
L 371.130631 172.845319 
L 371.198975 170.971778 
L 371.267197 173.294053 
L 371.335298 172.561505 
L 371.403279 173.94396 
L 371.47114 171.925086 
L 371.538882 172.925171 
L 371.606504 173.72533 
L 371.674008 171.825687 
L 371.741394 173.9571 
L 371.808662 172.32823 
L 371.875813 172.530552 
L 371.942846 173.043021 
L 372.009763 173.142971 
L 372.076564 172.146172 
L 372.143249 173.604837 
L 372.209819 172.716279 
L 372.276273 172.945544 
L 372.342613 172.941583 
L 372.408839 172.624542 
L 372.474951 172.817255 
L 372.54095 172.764087 
L 372.606836 171.940648 
L 372.672609 172.311175 
L 372.73827 172.58895 
L 372.803819 171.424441 
L 372.869256 171.860199 
L 372.934583 173.461177 
L 372.999798 172.581704 
L 373.064904 172.313851 
L 373.129899 172.942984 
L 373.194785 172.681887 
L 373.259561 170.979124 
L 373.324229 172.218723 
L 373.388788 173.130619 
L 373.453239 172.964241 
L 373.517582 172.292864 
L 373.581818 171.827816 
L 373.581818 169.11184 
L 373.581818 169.11184 
L 373.517582 169.31443 
L 373.453239 169.880054 
L 373.388788 170.551139 
L 373.324229 170.04918 
L 373.259561 168.332958 
L 373.194785 170.168069 
L 373.129899 169.968969 
L 373.064904 170.343996 
L 372.999798 170.480416 
L 372.934583 171.057641 
L 372.869256 169.464869 
L 372.803819 169.051106 
L 372.73827 170.255582 
L 372.672609 170.074804 
L 372.606836 169.606177 
L 372.54095 170.86261 
L 372.474951 170.671841 
L 372.408839 170.574636 
L 372.342613 170.790106 
L 372.276273 170.275162 
L 372.209819 169.611354 
L 372.143249 171.552015 
L 372.076564 169.791219 
L 372.009763 170.745832 
L 371.942846 169.797328 
L 371.875813 170.240439 
L 371.808662 169.479898 
L 371.741394 170.217644 
L 371.674008 169.691426 
L 371.606504 170.815284 
L 371.538882 171.011226 
L 371.47114 169.826923 
L 371.403279 170.379868 
L 371.335298 170.548934 
L 371.267197 171.046316 
L 371.198975 168.339362 
L 371.130631 170.448888 
L 371.062166 170.469226 
L 370.993579 170.298077 
L 370.92487 170.389193 
L 370.856038 170.139622 
L 370.787082 168.909977 
L 370.718003 170.17047 
L 370.648799 170.220591 
L 370.579471 169.546207 
L 370.510017 169.575018 
L 370.440438 170.329868 
L 370.370733 169.377069 
L 370.300901 170.165368 
L 370.230942 170.367954 
L 370.160856 170.715525 
L 370.090642 170.340447 
L 370.0203 170.295459 
L 369.949829 170.621935 
L 369.879228 170.535018 
L 369.808498 168.323543 
L 369.737638 167.985205 
L 369.666646 170.01193 
L 369.595524 169.215329 
L 369.52427 170.601794 
L 369.452883 170.256317 
L 369.381364 170.154357 
L 369.309712 169.443307 
L 369.237926 170.171409 
L 369.166006 170.871491 
L 369.093951 170.222179 
L 369.021761 167.940093 
L 368.949436 170.168692 
L 368.876974 169.768023 
L 368.804375 168.446568 
L 368.731639 169.460147 
L 368.658766 169.172332 
L 368.585754 169.222803 
L 368.512603 169.081096 
L 368.439313 169.880986 
L 368.365883 170.377037 
L 368.292313 169.621285 
L 368.218602 170.624546 
L 368.144749 170.11915 
L 368.070754 168.773061 
L 367.996617 170.06929 
L 367.922336 169.881773 
L 367.847912 169.550323 
L 367.773344 169.339232 
L 367.698631 169.77624 
L 367.623772 169.305095 
L 367.548768 169.633726 
L 367.473617 169.225208 
L 367.398319 168.881246 
L 367.322874 167.714169 
L 367.24728 169.685722 
L 367.171537 167.280667 
L 367.095645 169.485911 
L 367.019603 168.677446 
L 366.94341 169.901059 
L 366.867067 169.925245 
L 366.790571 169.305513 
L 366.713923 169.587048 
L 366.637122 168.079787 
L 366.560168 168.462331 
L 366.483059 168.137394 
L 366.405795 171.342375 
L 366.328376 169.110925 
L 366.250801 170.918294 
L 366.173069 167.496183 
L 366.09518 168.797261 
L 366.017133 168.784023 
L 365.938927 168.080339 
L 365.860562 167.818303 
L 365.782037 167.703219 
L 365.703352 168.301362 
L 365.624505 169.603191 
L 365.545496 169.715703 
L 365.466325 169.917209 
L 365.38699 169.145971 
L 365.307492 168.186103 
L 365.227828 170.142027 
L 365.148 169.855918 
L 365.068006 169.695401 
L 364.987845 170.033269 
L 364.907517 168.899947 
L 364.82702 170.277069 
L 364.746355 169.916021 
L 364.665521 169.180281 
L 364.584516 168.470942 
L 364.50334 168.759613 
L 364.421993 168.522607 
L 364.340473 169.410726 
L 364.25878 170.25856 
L 364.176914 169.199241 
L 364.094873 169.351143 
L 364.012657 168.835147 
L 363.930264 169.959358 
L 363.847695 169.473169 
L 363.764948 169.533775 
L 363.682023 169.36369 
L 363.598919 169.880789 
L 363.515635 168.898898 
L 363.43217 169.566924 
L 363.348524 168.3447 
L 363.264695 169.512567 
L 363.180684 167.747692 
L 363.096488 169.122689 
L 363.012108 168.278128 
L 362.927543 167.446429 
L 362.842791 166.243261 
L 362.757852 167.909235 
L 362.672726 169.057189 
L 362.58741 169.796064 
L 362.501905 167.896617 
L 362.41621 167.370914 
L 362.330323 169.307878 
L 362.244244 170.568503 
L 362.157972 168.640348 
L 362.071507 167.756251 
L 361.984846 170.398283 
L 361.89799 168.612077 
L 361.810937 169.76524 
L 361.723687 169.028704 
L 361.636239 168.881159 
L 361.548591 168.647494 
L 361.460744 168.546336 
L 361.372695 168.780629 
L 361.284445 168.338741 
L 361.195991 169.741465 
L 361.107334 168.438905 
L 361.018472 168.892479 
L 360.929404 168.766556 
L 360.84013 169.976105 
L 360.750648 168.330375 
L 360.660957 168.697595 
L 360.571057 167.229295 
L 360.480946 167.838747 
L 360.390624 169.131922 
L 360.300089 167.392413 
L 360.209341 167.868713 
L 360.118378 168.883231 
L 360.0272 168.699695 
L 359.935805 168.527795 
L 359.844192 166.868921 
L 359.752361 166.780479 
L 359.66031 167.94662 
L 359.568039 167.617789 
L 359.475545 167.714036 
L 359.382829 168.624742 
L 359.289889 168.602948 
L 359.196723 168.296985 
L 359.103332 170.57721 
L 359.009713 168.802771 
L 358.915866 168.142078 
L 358.82179 168.4411 
L 358.727483 168.324646 
L 358.632944 168.14278 
L 358.538172 168.438046 
L 358.443167 168.213839 
L 358.347926 167.999464 
L 358.252449 167.671014 
L 358.156734 166.901916 
L 358.060781 168.062166 
L 357.964588 167.06001 
L 357.868154 167.77199 
L 357.771477 168.427895 
L 357.674557 168.034741 
L 357.577392 169.011445 
L 357.479981 168.981443 
L 357.382323 168.588819 
L 357.284417 168.715986 
L 357.186261 168.706752 
L 357.087853 167.566544 
L 356.989194 167.839404 
L 356.89028 168.627633 
L 356.791112 168.272804 
L 356.691688 167.978917 
L 356.592006 168.291358 
L 356.492065 169.34181 
L 356.391863 167.154501 
L 356.2914 168.001173 
L 356.190675 168.192485 
L 356.089684 168.02008 
L 355.988428 167.712858 
L 355.886905 168.090861 
L 355.785114 168.639994 
L 355.683052 167.153705 
L 355.580719 165.810073 
L 355.478113 167.077698 
L 355.375232 166.995525 
L 355.272076 168.031534 
L 355.168643 168.032622 
L 355.06493 167.807536 
L 354.960938 166.480457 
L 354.856663 167.444038 
L 354.752105 167.591313 
L 354.647263 168.134658 
L 354.542133 166.222316 
L 354.436716 167.795748 
L 354.331009 167.236075 
L 354.225011 165.481571 
L 354.118721 167.240971 
L 354.012135 164.187364 
L 353.905254 167.070739 
L 353.798075 166.823282 
L 353.690597 167.071617 
L 353.582817 168.462068 
L 353.474735 166.733207 
L 353.366348 167.465014 
L 353.257655 166.942124 
L 353.148655 166.160861 
L 353.039344 167.081058 
L 352.929722 169.016038 
L 352.819787 167.649092 
L 352.709537 166.842332 
L 352.59897 167.633108 
L 352.488085 167.239946 
L 352.376879 168.898922 
L 352.265351 167.268684 
L 352.153498 167.527678 
L 352.041319 168.197026 
L 351.928813 167.653134 
L 351.815976 166.998654 
L 351.702808 167.629449 
L 351.589305 167.614314 
L 351.475467 167.886057 
L 351.361291 166.807546 
L 351.246776 167.243601 
L 351.131918 166.590656 
L 351.016717 166.208451 
L 350.901169 166.128791 
L 350.785274 166.778288 
L 350.669028 165.691553 
L 350.552431 164.931192 
L 350.435478 166.765113 
L 350.31817 167.67893 
L 350.200502 166.356083 
L 350.082474 166.895521 
L 349.964082 167.596593 
L 349.845325 168.000234 
L 349.7262 167.826626 
L 349.606706 166.354957 
L 349.486839 168.546637 
L 349.366597 166.638119 
L 349.245979 167.040047 
L 349.124981 167.138531 
L 349.003602 167.77231 
L 348.881838 166.469186 
L 348.759688 167.852202 
L 348.637149 167.312306 
L 348.514218 166.727043 
L 348.390894 166.89153 
L 348.267172 167.501393 
L 348.143052 168.293529 
L 348.01853 168.307842 
L 347.893604 167.328843 
L 347.768271 167.276572 
L 347.642528 167.251765 
L 347.516373 166.805582 
L 347.389803 166.910964 
L 347.262815 167.397603 
L 347.135407 165.765343 
L 347.007576 167.936514 
L 346.879318 165.883762 
L 346.750631 166.684154 
L 346.621513 167.446713 
L 346.49196 164.92001 
L 346.361969 166.025316 
L 346.231538 166.600698 
L 346.100662 165.348738 
L 345.969341 166.275509 
L 345.837569 166.594709 
L 345.705345 165.095111 
L 345.572664 166.592325 
L 345.439525 160.980264 
L 345.305923 166.958037 
L 345.171856 166.790048 
L 345.03732 166.938901 
L 344.902312 167.306237 
L 344.766829 166.157909 
L 344.630867 165.533929 
L 344.494422 164.546449 
L 344.357493 166.897927 
L 344.220074 167.584086 
L 344.082162 166.676912 
L 343.943755 167.240945 
L 343.804847 166.722667 
L 343.665437 165.630668 
L 343.52552 166.376042 
L 343.385092 165.804262 
L 343.244149 166.602715 
L 343.102688 163.548792 
L 342.960706 165.302135 
L 342.818197 166.737351 
L 342.675159 166.428476 
L 342.531587 164.03427 
L 342.387477 165.808685 
L 342.242826 166.264766 
L 342.097629 165.630108 
L 341.951881 166.469776 
L 341.80558 166.481942 
L 341.65872 164.018268 
L 341.511297 165.894293 
L 341.363308 166.225482 
L 341.214747 167.428141 
L 341.06561 166.984179 
L 340.915893 166.870858 
L 340.765591 166.918934 
L 340.614699 165.543414 
L 340.463214 165.368908 
L 340.31113 165.037054 
L 340.158442 165.796673 
L 340.005146 165.763563 
L 339.851237 166.501488 
L 339.69671 164.785902 
L 339.541559 165.180959 
L 339.385781 165.69146 
L 339.229369 166.617016 
L 339.072319 166.091409 
L 338.914625 166.718064 
L 338.756282 166.021493 
L 338.597285 166.100917 
L 338.437628 165.086213 
L 338.277306 165.254815 
L 338.116313 166.751707 
L 337.954644 165.195387 
L 337.792292 163.623874 
L 337.629253 166.446768 
L 337.46552 165.854311 
L 337.301087 165.339274 
L 337.135948 164.933037 
L 336.970098 165.371114 
L 336.803529 164.309101 
L 336.636236 163.98818 
L 336.468213 162.699101 
L 336.299453 164.051979 
L 336.12995 165.066658 
L 335.959696 165.429891 
L 335.788686 165.022145 
L 335.616912 164.977072 
L 335.444368 164.995408 
L 335.271047 165.656408 
L 335.096941 165.702661 
L 334.922044 164.465838 
L 334.746349 164.627591 
L 334.569847 151.963481 
L 334.392533 164.526944 
L 334.214397 165.291335 
L 334.035433 162.553582 
L 333.855632 163.890252 
L 333.674987 160.770068 
L 333.493491 163.662456 
L 333.311134 164.854469 
L 333.127908 164.024331 
L 332.943806 163.218545 
L 332.758819 163.376322 
L 332.572938 165.354731 
L 332.386155 151.632609 
L 332.198461 152.273542 
L 332.009847 151.484362 
L 331.820303 161.946165 
L 331.629821 162.183749 
L 331.438392 162.780044 
L 331.246005 157.916814 
L 331.052652 161.808232 
L 330.858322 152.048337 
L 330.663006 164.508872 
L 330.466693 152.419938 
L 330.269373 152.028038 
L 330.071036 153.451319 
L 329.871672 151.592045 
L 329.671269 161.963846 
L 329.469817 156.897109 
L 329.267305 161.996726 
L 329.063721 162.000231 
L 328.859054 160.556249 
L 328.653293 163.308482 
L 328.446426 163.317201 
L 328.23844 163.050676 
L 328.029324 164.188501 
L 327.819065 163.207581 
L 327.607651 163.861474 
L 327.395069 163.363773 
L 327.181306 163.216057 
L 326.966349 164.080002 
L 326.750184 164.56222 
L 326.532798 163.292225 
L 326.314177 158.214713 
L 326.094306 162.142542 
L 325.873172 161.699427 
L 325.650759 159.87665 
L 325.427054 156.103503 
L 325.20204 155.188837 
L 324.975703 153.264058 
L 324.748026 151.611891 
L 324.518994 151.803998 
L 324.288591 151.708769 
L 324.056799 160.268168 
L 323.823603 160.679998 
L 323.588985 159.148253 
L 323.352928 152.534733 
L 323.115413 161.745505 
L 322.876423 155.894542 
L 322.635939 152.873697 
L 322.393943 151.23009 
L 322.150416 150.375283 
L 321.905337 160.241401 
L 321.658687 152.537716 
L 321.410446 151.243805 
L 321.160593 152.253318 
L 320.909107 155.054361 
L 320.655966 158.481462 
L 320.401149 154.004 
L 320.144633 151.136849 
L 319.886395 151.1599 
L 319.626413 152.337949 
L 319.364662 159.317381 
L 319.101118 151.572246 
L 318.835757 152.316591 
L 318.568552 162.52384 
L 318.29948 160.359236 
L 318.028512 158.585741 
L 317.755623 152.018779 
L 317.480784 152.881262 
L 317.203968 151.526041 
L 316.925146 154.588506 
L 316.644289 154.730858 
L 316.361367 154.242852 
L 316.076349 151.035713 
L 315.789204 152.860889 
L 315.4999 152.351382 
L 315.208404 152.502974 
L 314.914683 152.958092 
L 314.618703 152.474962 
L 314.320428 151.257068 
L 314.019823 151.935349 
L 313.716851 152.643521 
L 313.411475 153.132477 
L 313.103655 152.770109 
L 312.793353 154.50567 
L 312.480528 153.434626 
L 312.165139 153.907622 
L 311.847144 152.216548 
L 311.526498 152.664263 
L 311.203158 152.938441 
L 310.877078 153.185074 
L 310.54821 152.704253 
L 310.216508 152.660027 
L 309.881921 152.251859 
L 309.544399 152.270755 
L 309.20389 151.811609 
L 308.860341 151.974233 
L 308.513697 148.824233 
L 308.163901 151.065464 
L 307.810896 151.520126 
L 307.454623 151.278909 
L 307.09502 150.945482 
L 306.732024 150.518645 
L 306.365572 148.967221 
L 305.995595 152.498076 
L 305.622027 151.437312 
L 305.244796 152.828806 
L 304.86383 151.233437 
L 304.479054 152.225073 
L 304.090392 152.587544 
L 303.697764 151.76277 
L 303.301087 152.197856 
L 302.900279 149.287641 
L 302.495252 150.740419 
L 302.085915 151.56877 
L 301.672178 150.947511 
L 301.253943 149.08147 
L 300.831111 150.247515 
L 300.403582 147.084174 
L 299.971249 149.706213 
L 299.534003 149.965616 
L 299.091731 147.548009 
L 298.644316 147.95974 
L 298.191637 148.056448 
L 297.733569 149.515129 
L 297.269982 149.003403 
L 296.800742 146.749759 
L 296.325708 146.345818 
L 295.844736 147.992634 
L 295.357676 148.358515 
L 294.864371 143.789379 
L 294.364659 148.560612 
L 293.858373 145.108373 
L 293.345335 145.644126 
L 292.825364 143.448977 
L 292.29827 143.957358 
L 291.763856 144.556185 
L 291.221914 142.110813 
L 290.672229 142.858869 
L 290.114578 144.634273 
L 289.548726 139.476259 
L 288.974428 141.997052 
L 288.391428 139.377613 
L 287.799459 138.409184 
L 287.19824 138.869514 
L 286.587477 136.636587 
L 285.966863 140.016137 
L 285.336074 137.627454 
L 284.694772 139.411351 
L 284.0426 137.672178 
L 283.379182 135.866244 
L 282.704126 137.346326 
L 282.017014 137.550452 
L 281.317408 136.844226 
L 280.604846 125.518121 
L 279.878839 135.193278 
L 279.138869 130.614222 
L 278.384389 133.162032 
L 277.614818 131.383404 
L 276.829541 128.390757 
L 276.027903 130.727821 
L 275.209207 127.746579 
L 274.372712 127.311733 
L 273.517627 126.707239 
L 272.643106 126.124633 
L 271.748246 124.802106 
L 270.832078 126.465821 
L 269.893562 122.826758 
L 268.931581 125.181918 
L 267.944931 123.410135 
L 266.932313 123.810884 
L 265.892324 121.998591 
L 264.823443 120.547518 
L 263.724018 120.147665 
L 262.592253 121.318577 
L 261.426186 120.58085 
L 260.223675 118.628838 
L 258.982365 118.163745 
L 257.699672 116.825227 
L 256.372739 117.38973 
L 254.998405 116.70972 
L 253.573159 117.204844 
L 252.093082 115.721908 
L 250.553787 116.175104 
L 248.950336 114.991159 
L 247.277149 114.541333 
L 245.527882 113.607999 
L 243.695286 113.879228 
L 241.771022 113.784042 
L 239.745437 113.261054 
L 237.607262 113.129664 
L 235.343241 112.040649 
L 232.93763 111.920364 
L 230.371529 112.049734 
L 227.621985 111.552433 
L 224.660736 111.599995 
L 221.452441 110.429753 
L 217.952098 109.433347 
L 214.101162 109.438612 
L 209.821505 107.847992 
L 205.005572 106.041619 
L 199.499445 104.757058 
L 193.071664 99.484552 
L 185.350408 95.082574 
L 175.68052 89.193441 
L 162.733995 84.00937 
L 153.761336 82.542342 
L 153.370701 81.881088 
L 152.976059 83.404293 
L 152.577327 80.879654 
L 152.17442 81.537652 
L 151.76725 80.847782 
L 151.355725 82.945951 
L 150.93975 81.419638 
L 150.51923 80.818377 
L 150.094063 81.771274 
L 149.664145 81.114637 
L 149.229369 82.643372 
L 148.789624 81.619114 
L 148.344796 81.401877 
L 147.894764 80.762738 
L 147.439407 81.554091 
L 146.978596 80.245942 
L 146.512199 81.023187 
L 146.04008 79.782726 
L 145.562096 80.951937 
L 145.078099 81.618019 
L 144.587936 79.996685 
L 144.091448 81.340462 
L 143.588471 80.236355 
L 143.078831 80.030725 
L 142.56235 79.165256 
L 142.038842 79.721028 
L 141.508113 79.132413 
L 140.969961 79.003359 
L 140.424175 79.160124 
L 139.870536 78.546128 
L 139.308814 79.27846 
L 138.738771 78.545858 
L 138.160155 78.536571 
L 137.572704 78.026996 
L 136.976146 77.83771 
L 136.370192 77.179902 
L 135.754543 78.066957 
L 135.128883 76.739976 
L 134.492881 77.856647 
L 133.84619 77.267146 
L 133.188443 77.395062 
L 132.519256 77.003425 
L 131.838225 76.298667 
L 131.144923 76.594906 
L 130.438899 75.60898 
L 129.719677 75.296347 
L 128.986755 76.31857 
L 128.2396 75.868133 
L 127.47765 74.813597 
L 126.700305 74.395887 
L 125.906932 74.172006 
L 125.096854 73.957409 
L 124.269355 74.039352 
L 123.423667 73.926641 
L 122.558973 73.403802 
L 121.6744 72.814203 
L 120.769011 73.468556 
L 119.841804 72.882767 
L 118.8917 71.867362 
L 117.91754 72.077395 
L 116.918075 71.502243 
L 115.891954 71.759168 
L 114.837717 71.603697 
L 113.753779 69.400639 
L 112.638419 70.136268 
L 111.489759 69.413201 
L 110.30575 69.891813 
L 109.084148 67.53505 
L 107.822486 68.724518 
L 106.518047 68.265336 
L 105.16783 68.255486 
L 103.768503 66.908465 
L 102.316359 66.870385 
L 100.807254 66.056146 
L 99.236536 65.527208 
L 97.598959 65.043313 
L 95.888578 63.523484 
L 94.098615 63.225154 
L 92.221304 62.173249 
L 90.247679 63.108248 
L 88.167321 61.530639 
L 85.968023 59.537082 
L 83.635354 58.960837 
L 81.15209 58.904737 
L 78.497434 58.162716 
L 75.645963 57.119002 
L 72.56614 54.55121 
L 69.218182 54.817348 
z
" clip-path="url(#p8eea3de5c9)" style="fill: #ff0000; fill-opacity: 0.2; stroke: #ff0000; stroke-opacity: 0.2"/>
   </g>
   <g id="matplotlib.axis_1">
    <g id="xtick_1">
     <g id="line2d_1">
      <defs>
       <path id="m5aa6c0e6d9" d="M 0 0 
L 0 3.5 
" style="stroke: #000000; stroke-width: 0.8"/>
      </defs>
      <g>
       <use xlink:href="#m5aa6c0e6d9" x="65.550908" y="252" style="stroke: #000000; stroke-width: 0.8"/>
      </g>
     </g>
     <g id="text_1">
      <!-- $\mathdefault{10^{1}}$ -->
      <g transform="translate(56.750908 266.598437)scale(0.1 -0.1)">
       <defs>
        <path id="DejaVuSans-31" d="M 794 531 
L 1825 531 
L 1825 4091 
L 703 3866 
L 703 4441 
L 1819 4666 
L 2450 4666 
L 2450 531 
L 3481 531 
L 3481 0 
L 794 0 
L 794 531 
z
" transform="scale(0.015625)"/>
        <path id="DejaVuSans-30" d="M 2034 4250 
Q 1547 4250 1301 3770 
Q 1056 3291 1056 2328 
Q 1056 1369 1301 889 
Q 1547 409 2034 409 
Q 2525 409 2770 889 
Q 3016 1369 3016 2328 
Q 3016 3291 2770 3770 
Q 2525 4250 2034 4250 
z
M 2034 4750 
Q 2819 4750 3233 4129 
Q 3647 3509 3647 2328 
Q 3647 1150 3233 529 
Q 2819 -91 2034 -91 
Q 1250 -91 836 529 
Q 422 1150 422 2328 
Q 422 3509 836 4129 
Q 1250 4750 2034 4750 
z
" transform="scale(0.015625)"/>
       </defs>
       <use xlink:href="#DejaVuSans-31" transform="translate(0 0.684375)"/>
       <use xlink:href="#DejaVuSans-30" transform="translate(63.623047 0.684375)"/>
       <use xlink:href="#DejaVuSans-31" transform="translate(128.203125 38.965625)scale(0.7)"/>
      </g>
     </g>
    </g>
    <g id="xtick_2">
     <g id="line2d_2">
      <g>
       <use xlink:href="#m5aa6c0e6d9" x="154.148045" y="252" style="stroke: #000000; stroke-width: 0.8"/>
      </g>
     </g>
     <g id="text_2">
      <!-- $\mathdefault{10^{2}}$ -->
      <g transform="translate(145.348045 266.598437)scale(0.1 -0.1)">
       <defs>
        <path id="DejaVuSans-32" d="M 1228 531 
L 3431 531 
L 3431 0 
L 469 0 
L 469 531 
Q 828 903 1448 1529 
Q 2069 2156 2228 2338 
Q 2531 2678 2651 2914 
Q 2772 3150 2772 3378 
Q 2772 3750 2511 3984 
Q 2250 4219 1831 4219 
Q 1534 4219 1204 4116 
Q 875 4013 500 3803 
L 500 4441 
Q 881 4594 1212 4672 
Q 1544 4750 1819 4750 
Q 2544 4750 2975 4387 
Q 3406 4025 3406 3419 
Q 3406 3131 3298 2873 
Q 3191 2616 2906 2266 
Q 2828 2175 2409 1742 
Q 1991 1309 1228 531 
z
" transform="scale(0.015625)"/>
       </defs>
       <use xlink:href="#DejaVuSans-31" transform="translate(0 0.765625)"/>
       <use xlink:href="#DejaVuSans-30" transform="translate(63.623047 0.765625)"/>
       <use xlink:href="#DejaVuSans-32" transform="translate(128.203125 39.046875)scale(0.7)"/>
      </g>
     </g>
    </g>
    <g id="xtick_3">
     <g id="line2d_3">
      <g>
       <use xlink:href="#m5aa6c0e6d9" x="242.745182" y="252" style="stroke: #000000; stroke-width: 0.8"/>
      </g>
     </g>
     <g id="text_3">
      <!-- $\mathdefault{10^{3}}$ -->
      <g transform="translate(233.945182 266.598437)scale(0.1 -0.1)">
       <defs>
        <path id="DejaVuSans-33" d="M 2597 2516 
Q 3050 2419 3304 2112 
Q 3559 1806 3559 1356 
Q 3559 666 3084 287 
Q 2609 -91 1734 -91 
Q 1441 -91 1130 -33 
Q 819 25 488 141 
L 488 750 
Q 750 597 1062 519 
Q 1375 441 1716 441 
Q 2309 441 2620 675 
Q 2931 909 2931 1356 
Q 2931 1769 2642 2001 
Q 2353 2234 1838 2234 
L 1294 2234 
L 1294 2753 
L 1863 2753 
Q 2328 2753 2575 2939 
Q 2822 3125 2822 3475 
Q 2822 3834 2567 4026 
Q 2313 4219 1838 4219 
Q 1578 4219 1281 4162 
Q 984 4106 628 3988 
L 628 4550 
Q 988 4650 1302 4700 
Q 1616 4750 1894 4750 
Q 2613 4750 3031 4423 
Q 3450 4097 3450 3541 
Q 3450 3153 3228 2886 
Q 3006 2619 2597 2516 
z
" transform="scale(0.015625)"/>
       </defs>
       <use xlink:href="#DejaVuSans-31" transform="translate(0 0.765625)"/>
       <use xlink:href="#DejaVuSans-30" transform="translate(63.623047 0.765625)"/>
       <use xlink:href="#DejaVuSans-33" transform="translate(128.203125 39.046875)scale(0.7)"/>
      </g>
     </g>
    </g>
    <g id="xtick_4">
     <g id="line2d_4">
      <g>
       <use xlink:href="#m5aa6c0e6d9" x="331.342319" y="252" style="stroke: #000000; stroke-width: 0.8"/>
      </g>
     </g>
     <g id="text_4">
      <!-- $\mathdefault{10^{4}}$ -->
      <g transform="translate(322.542319 266.598437)scale(0.1 -0.1)">
       <defs>
        <path id="DejaVuSans-34" d="M 2419 4116 
L 825 1625 
L 2419 1625 
L 2419 4116 
z
M 2253 4666 
L 3047 4666 
L 3047 1625 
L 3713 1625 
L 3713 1100 
L 3047 1100 
L 3047 0 
L 2419 0 
L 2419 1100 
L 313 1100 
L 313 1709 
L 2253 4666 
z
" transform="scale(0.015625)"/>
       </defs>
       <use xlink:href="#DejaVuSans-31" transform="translate(0 0.684375)"/>
       <use xlink:href="#DejaVuSans-30" transform="translate(63.623047 0.684375)"/>
       <use xlink:href="#DejaVuSans-34" transform="translate(128.203125 38.965625)scale(0.7)"/>
      </g>
     </g>
    </g>
    <g id="xtick_5">
     <g id="line2d_5">
      <defs>
       <path id="m0f3a0838af" d="M 0 0 
L 0 2 
" style="stroke: #000000; stroke-width: 0.6"/>
      </defs>
      <g>
       <use xlink:href="#m0f3a0838af" x="56.964959" y="252" style="stroke: #000000; stroke-width: 0.6"/>
      </g>
     </g>
    </g>
    <g id="xtick_6">
     <g id="line2d_6">
      <g>
       <use xlink:href="#m0f3a0838af" x="61.496926" y="252" style="stroke: #000000; stroke-width: 0.6"/>
      </g>
     </g>
    </g>
    <g id="xtick_7">
     <g id="line2d_7">
      <g>
       <use xlink:href="#m0f3a0838af" x="92.221304" y="252" style="stroke: #000000; stroke-width: 0.6"/>
      </g>
     </g>
    </g>
    <g id="xtick_8">
     <g id="line2d_8">
      <g>
       <use xlink:href="#m0f3a0838af" x="107.822486" y="252" style="stroke: #000000; stroke-width: 0.6"/>
      </g>
     </g>
    </g>
    <g id="xtick_9">
     <g id="line2d_9">
      <g>
       <use xlink:href="#m0f3a0838af" x="118.8917" y="252" style="stroke: #000000; stroke-width: 0.6"/>
      </g>
     </g>
    </g>
    <g id="xtick_10">
     <g id="line2d_10">
      <g>
       <use xlink:href="#m0f3a0838af" x="127.47765" y="252" style="stroke: #000000; stroke-width: 0.6"/>
      </g>
     </g>
    </g>
    <g id="xtick_11">
     <g id="line2d_11">
      <g>
       <use xlink:href="#m0f3a0838af" x="134.492881" y="252" style="stroke: #000000; stroke-width: 0.6"/>
      </g>
     </g>
    </g>
    <g id="xtick_12">
     <g id="line2d_12">
      <g>
       <use xlink:href="#m0f3a0838af" x="140.424175" y="252" style="stroke: #000000; stroke-width: 0.6"/>
      </g>
     </g>
    </g>
    <g id="xtick_13">
     <g id="line2d_13">
      <g>
       <use xlink:href="#m0f3a0838af" x="145.562096" y="252" style="stroke: #000000; stroke-width: 0.6"/>
      </g>
     </g>
    </g>
    <g id="xtick_14">
     <g id="line2d_14">
      <g>
       <use xlink:href="#m0f3a0838af" x="150.094063" y="252" style="stroke: #000000; stroke-width: 0.6"/>
      </g>
     </g>
    </g>
    <g id="xtick_15">
     <g id="line2d_15">
      <g>
       <use xlink:href="#m0f3a0838af" x="180.818441" y="252" style="stroke: #000000; stroke-width: 0.6"/>
      </g>
     </g>
    </g>
    <g id="xtick_16">
     <g id="line2d_16">
      <g>
       <use xlink:href="#m0f3a0838af" x="196.419622" y="252" style="stroke: #000000; stroke-width: 0.6"/>
      </g>
     </g>
    </g>
    <g id="xtick_17">
     <g id="line2d_17">
      <g>
       <use xlink:href="#m0f3a0838af" x="207.488837" y="252" style="stroke: #000000; stroke-width: 0.6"/>
      </g>
     </g>
    </g>
    <g id="xtick_18">
     <g id="line2d_18">
      <g>
       <use xlink:href="#m0f3a0838af" x="216.074786" y="252" style="stroke: #000000; stroke-width: 0.6"/>
      </g>
     </g>
    </g>
    <g id="xtick_19">
     <g id="line2d_19">
      <g>
       <use xlink:href="#m0f3a0838af" x="223.090018" y="252" style="stroke: #000000; stroke-width: 0.6"/>
      </g>
     </g>
    </g>
    <g id="xtick_20">
     <g id="line2d_20">
      <g>
       <use xlink:href="#m0f3a0838af" x="229.021312" y="252" style="stroke: #000000; stroke-width: 0.6"/>
      </g>
     </g>
    </g>
    <g id="xtick_21">
     <g id="line2d_21">
      <g>
       <use xlink:href="#m0f3a0838af" x="234.159232" y="252" style="stroke: #000000; stroke-width: 0.6"/>
      </g>
     </g>
    </g>
    <g id="xtick_22">
     <g id="line2d_22">
      <g>
       <use xlink:href="#m0f3a0838af" x="238.691199" y="252" style="stroke: #000000; stroke-width: 0.6"/>
      </g>
     </g>
    </g>
    <g id="xtick_23">
     <g id="line2d_23">
      <g>
       <use xlink:href="#m0f3a0838af" x="269.415578" y="252" style="stroke: #000000; stroke-width: 0.6"/>
      </g>
     </g>
    </g>
    <g id="xtick_24">
     <g id="line2d_24">
      <g>
       <use xlink:href="#m0f3a0838af" x="285.016759" y="252" style="stroke: #000000; stroke-width: 0.6"/>
      </g>
     </g>
    </g>
    <g id="xtick_25">
     <g id="line2d_25">
      <g>
       <use xlink:href="#m0f3a0838af" x="296.085973" y="252" style="stroke: #000000; stroke-width: 0.6"/>
      </g>
     </g>
    </g>
    <g id="xtick_26">
     <g id="line2d_26">
      <g>
       <use xlink:href="#m0f3a0838af" x="304.671923" y="252" style="stroke: #000000; stroke-width: 0.6"/>
      </g>
     </g>
    </g>
    <g id="xtick_27">
     <g id="line2d_27">
      <g>
       <use xlink:href="#m0f3a0838af" x="311.687155" y="252" style="stroke: #000000; stroke-width: 0.6"/>
      </g>
     </g>
    </g>
    <g id="xtick_28">
     <g id="line2d_28">
      <g>
       <use xlink:href="#m0f3a0838af" x="317.618449" y="252" style="stroke: #000000; stroke-width: 0.6"/>
      </g>
     </g>
    </g>
    <g id="xtick_29">
     <g id="line2d_29">
      <g>
       <use xlink:href="#m0f3a0838af" x="322.756369" y="252" style="stroke: #000000; stroke-width: 0.6"/>
      </g>
     </g>
    </g>
    <g id="xtick_30">
     <g id="line2d_30">
      <g>
       <use xlink:href="#m0f3a0838af" x="327.288336" y="252" style="stroke: #000000; stroke-width: 0.6"/>
      </g>
     </g>
    </g>
    <g id="xtick_31">
     <g id="line2d_31">
      <g>
       <use xlink:href="#m0f3a0838af" x="358.012715" y="252" style="stroke: #000000; stroke-width: 0.6"/>
      </g>
     </g>
    </g>
    <g id="xtick_32">
     <g id="line2d_32">
      <g>
       <use xlink:href="#m0f3a0838af" x="373.613896" y="252" style="stroke: #000000; stroke-width: 0.6"/>
      </g>
     </g>
    </g>
    <g id="xtick_33">
     <g id="line2d_33">
      <g>
       <use xlink:href="#m0f3a0838af" x="384.68311" y="252" style="stroke: #000000; stroke-width: 0.6"/>
      </g>
     </g>
    </g>
    <g id="text_5">
     <!-- Resources -->
     <g transform="translate(195.867969 280.276563)scale(0.1 -0.1)">
      <defs>
       <path id="DejaVuSans-52" d="M 2841 2188 
Q 3044 2119 3236 1894 
Q 3428 1669 3622 1275 
L 4263 0 
L 3584 0 
L 2988 1197 
Q 2756 1666 2539 1819 
Q 2322 1972 1947 1972 
L 1259 1972 
L 1259 0 
L 628 0 
L 628 4666 
L 2053 4666 
Q 2853 4666 3247 4331 
Q 3641 3997 3641 3322 
Q 3641 2881 3436 2590 
Q 3231 2300 2841 2188 
z
M 1259 4147 
L 1259 2491 
L 2053 2491 
Q 2509 2491 2742 2702 
Q 2975 2913 2975 3322 
Q 2975 3731 2742 3939 
Q 2509 4147 2053 4147 
L 1259 4147 
z
" transform="scale(0.015625)"/>
       <path id="DejaVuSans-65" d="M 3597 1894 
L 3597 1613 
L 953 1613 
Q 991 1019 1311 708 
Q 1631 397 2203 397 
Q 2534 397 2845 478 
Q 3156 559 3463 722 
L 3463 178 
Q 3153 47 2828 -22 
Q 2503 -91 2169 -91 
Q 1331 -91 842 396 
Q 353 884 353 1716 
Q 353 2575 817 3079 
Q 1281 3584 2069 3584 
Q 2775 3584 3186 3129 
Q 3597 2675 3597 1894 
z
M 3022 2063 
Q 3016 2534 2758 2815 
Q 2500 3097 2075 3097 
Q 1594 3097 1305 2825 
Q 1016 2553 972 2059 
L 3022 2063 
z
" transform="scale(0.015625)"/>
       <path id="DejaVuSans-73" d="M 2834 3397 
L 2834 2853 
Q 2591 2978 2328 3040 
Q 2066 3103 1784 3103 
Q 1356 3103 1142 2972 
Q 928 2841 928 2578 
Q 928 2378 1081 2264 
Q 1234 2150 1697 2047 
L 1894 2003 
Q 2506 1872 2764 1633 
Q 3022 1394 3022 966 
Q 3022 478 2636 193 
Q 2250 -91 1575 -91 
Q 1294 -91 989 -36 
Q 684 19 347 128 
L 347 722 
Q 666 556 975 473 
Q 1284 391 1588 391 
Q 1994 391 2212 530 
Q 2431 669 2431 922 
Q 2431 1156 2273 1281 
Q 2116 1406 1581 1522 
L 1381 1569 
Q 847 1681 609 1914 
Q 372 2147 372 2553 
Q 372 3047 722 3315 
Q 1072 3584 1716 3584 
Q 2034 3584 2315 3537 
Q 2597 3491 2834 3397 
z
" transform="scale(0.015625)"/>
       <path id="DejaVuSans-6f" d="M 1959 3097 
Q 1497 3097 1228 2736 
Q 959 2375 959 1747 
Q 959 1119 1226 758 
Q 1494 397 1959 397 
Q 2419 397 2687 759 
Q 2956 1122 2956 1747 
Q 2956 2369 2687 2733 
Q 2419 3097 1959 3097 
z
M 1959 3584 
Q 2709 3584 3137 3096 
Q 3566 2609 3566 1747 
Q 3566 888 3137 398 
Q 2709 -91 1959 -91 
Q 1206 -91 779 398 
Q 353 888 353 1747 
Q 353 2609 779 3096 
Q 1206 3584 1959 3584 
z
" transform="scale(0.015625)"/>
       <path id="DejaVuSans-75" d="M 544 1381 
L 544 3500 
L 1119 3500 
L 1119 1403 
Q 1119 906 1312 657 
Q 1506 409 1894 409 
Q 2359 409 2629 706 
Q 2900 1003 2900 1516 
L 2900 3500 
L 3475 3500 
L 3475 0 
L 2900 0 
L 2900 538 
Q 2691 219 2414 64 
Q 2138 -91 1772 -91 
Q 1169 -91 856 284 
Q 544 659 544 1381 
z
M 1991 3584 
L 1991 3584 
z
" transform="scale(0.015625)"/>
       <path id="DejaVuSans-72" d="M 2631 2963 
Q 2534 3019 2420 3045 
Q 2306 3072 2169 3072 
Q 1681 3072 1420 2755 
Q 1159 2438 1159 1844 
L 1159 0 
L 581 0 
L 581 3500 
L 1159 3500 
L 1159 2956 
Q 1341 3275 1631 3429 
Q 1922 3584 2338 3584 
Q 2397 3584 2469 3576 
Q 2541 3569 2628 3553 
L 2631 2963 
z
" transform="scale(0.015625)"/>
       <path id="DejaVuSans-63" d="M 3122 3366 
L 3122 2828 
Q 2878 2963 2633 3030 
Q 2388 3097 2138 3097 
Q 1578 3097 1268 2742 
Q 959 2388 959 1747 
Q 959 1106 1268 751 
Q 1578 397 2138 397 
Q 2388 397 2633 464 
Q 2878 531 3122 666 
L 3122 134 
Q 2881 22 2623 -34 
Q 2366 -91 2075 -91 
Q 1284 -91 818 406 
Q 353 903 353 1747 
Q 353 2603 823 3093 
Q 1294 3584 2113 3584 
Q 2378 3584 2631 3529 
Q 2884 3475 3122 3366 
z
" transform="scale(0.015625)"/>
      </defs>
      <use xlink:href="#DejaVuSans-52"/>
      <use xlink:href="#DejaVuSans-65" x="64.982422"/>
      <use xlink:href="#DejaVuSans-73" x="126.505859"/>
      <use xlink:href="#DejaVuSans-6f" x="178.605469"/>
      <use xlink:href="#DejaVuSans-75" x="239.787109"/>
      <use xlink:href="#DejaVuSans-72" x="303.166016"/>
      <use xlink:href="#DejaVuSans-63" x="342.029297"/>
      <use xlink:href="#DejaVuSans-65" x="397.009766"/>
      <use xlink:href="#DejaVuSans-73" x="458.533203"/>
     </g>
    </g>
   </g>
   <g id="matplotlib.axis_2">
    <g id="ytick_1">
     <g id="line2d_34">
      <defs>
       <path id="mca1a76d718" d="M 0 0 
L -3.5 0 
" style="stroke: #000000; stroke-width: 0.8"/>
      </defs>
      <g>
       <use xlink:href="#mca1a76d718" x="54" y="243.281667" style="stroke: #000000; stroke-width: 0.8"/>
      </g>
     </g>
     <g id="text_6">
      <!-- $\mathdefault{10^{-8}}$ -->
      <g transform="translate(23.5 247.080885)scale(0.1 -0.1)">
       <defs>
        <path id="DejaVuSans-2212" d="M 678 2272 
L 4684 2272 
L 4684 1741 
L 678 1741 
L 678 2272 
z
" transform="scale(0.015625)"/>
        <path id="DejaVuSans-38" d="M 2034 2216 
Q 1584 2216 1326 1975 
Q 1069 1734 1069 1313 
Q 1069 891 1326 650 
Q 1584 409 2034 409 
Q 2484 409 2743 651 
Q 3003 894 3003 1313 
Q 3003 1734 2745 1975 
Q 2488 2216 2034 2216 
z
M 1403 2484 
Q 997 2584 770 2862 
Q 544 3141 544 3541 
Q 544 4100 942 4425 
Q 1341 4750 2034 4750 
Q 2731 4750 3128 4425 
Q 3525 4100 3525 3541 
Q 3525 3141 3298 2862 
Q 3072 2584 2669 2484 
Q 3125 2378 3379 2068 
Q 3634 1759 3634 1313 
Q 3634 634 3220 271 
Q 2806 -91 2034 -91 
Q 1263 -91 848 271 
Q 434 634 434 1313 
Q 434 1759 690 2068 
Q 947 2378 1403 2484 
z
M 1172 3481 
Q 1172 3119 1398 2916 
Q 1625 2713 2034 2713 
Q 2441 2713 2670 2916 
Q 2900 3119 2900 3481 
Q 2900 3844 2670 4047 
Q 2441 4250 2034 4250 
Q 1625 4250 1398 4047 
Q 1172 3844 1172 3481 
z
" transform="scale(0.015625)"/>
       </defs>
       <use xlink:href="#DejaVuSans-31" transform="translate(0 0.765625)"/>
       <use xlink:href="#DejaVuSans-30" transform="translate(63.623047 0.765625)"/>
       <use xlink:href="#DejaVuSans-2212" transform="translate(128.203125 39.046875)scale(0.7)"/>
       <use xlink:href="#DejaVuSans-38" transform="translate(186.855469 39.046875)scale(0.7)"/>
      </g>
     </g>
    </g>
    <g id="ytick_2">
     <g id="line2d_35">
      <g>
       <use xlink:href="#mca1a76d718" x="54" y="214.707266" style="stroke: #000000; stroke-width: 0.8"/>
      </g>
     </g>
     <g id="text_7">
      <!-- $\mathdefault{10^{-7}}$ -->
      <g transform="translate(23.5 218.506485)scale(0.1 -0.1)">
       <defs>
        <path id="DejaVuSans-37" d="M 525 4666 
L 3525 4666 
L 3525 4397 
L 1831 0 
L 1172 0 
L 2766 4134 
L 525 4134 
L 525 4666 
z
" transform="scale(0.015625)"/>
       </defs>
       <use xlink:href="#DejaVuSans-31" transform="translate(0 0.684375)"/>
       <use xlink:href="#DejaVuSans-30" transform="translate(63.623047 0.684375)"/>
       <use xlink:href="#DejaVuSans-2212" transform="translate(128.203125 38.965625)scale(0.7)"/>
       <use xlink:href="#DejaVuSans-37" transform="translate(186.855469 38.965625)scale(0.7)"/>
      </g>
     </g>
    </g>
    <g id="ytick_3">
     <g id="line2d_36">
      <g>
       <use xlink:href="#mca1a76d718" x="54" y="186.132866" style="stroke: #000000; stroke-width: 0.8"/>
      </g>
     </g>
     <g id="text_8">
      <!-- $\mathdefault{10^{-6}}$ -->
      <g transform="translate(23.5 189.932085)scale(0.1 -0.1)">
       <defs>
        <path id="DejaVuSans-36" d="M 2113 2584 
Q 1688 2584 1439 2293 
Q 1191 2003 1191 1497 
Q 1191 994 1439 701 
Q 1688 409 2113 409 
Q 2538 409 2786 701 
Q 3034 994 3034 1497 
Q 3034 2003 2786 2293 
Q 2538 2584 2113 2584 
z
M 3366 4563 
L 3366 3988 
Q 3128 4100 2886 4159 
Q 2644 4219 2406 4219 
Q 1781 4219 1451 3797 
Q 1122 3375 1075 2522 
Q 1259 2794 1537 2939 
Q 1816 3084 2150 3084 
Q 2853 3084 3261 2657 
Q 3669 2231 3669 1497 
Q 3669 778 3244 343 
Q 2819 -91 2113 -91 
Q 1303 -91 875 529 
Q 447 1150 447 2328 
Q 447 3434 972 4092 
Q 1497 4750 2381 4750 
Q 2619 4750 2861 4703 
Q 3103 4656 3366 4563 
z
" transform="scale(0.015625)"/>
       </defs>
       <use xlink:href="#DejaVuSans-31" transform="translate(0 0.765625)"/>
       <use xlink:href="#DejaVuSans-30" transform="translate(63.623047 0.765625)"/>
       <use xlink:href="#DejaVuSans-2212" transform="translate(128.203125 39.046875)scale(0.7)"/>
       <use xlink:href="#DejaVuSans-36" transform="translate(186.855469 39.046875)scale(0.7)"/>
      </g>
     </g>
    </g>
    <g id="ytick_4">
     <g id="line2d_37">
      <g>
       <use xlink:href="#mca1a76d718" x="54" y="157.558466" style="stroke: #000000; stroke-width: 0.8"/>
      </g>
     </g>
     <g id="text_9">
      <!-- $\mathdefault{10^{-5}}$ -->
      <g transform="translate(23.5 161.357685)scale(0.1 -0.1)">
       <defs>
        <path id="DejaVuSans-35" d="M 691 4666 
L 3169 4666 
L 3169 4134 
L 1269 4134 
L 1269 2991 
Q 1406 3038 1543 3061 
Q 1681 3084 1819 3084 
Q 2600 3084 3056 2656 
Q 3513 2228 3513 1497 
Q 3513 744 3044 326 
Q 2575 -91 1722 -91 
Q 1428 -91 1123 -41 
Q 819 9 494 109 
L 494 744 
Q 775 591 1075 516 
Q 1375 441 1709 441 
Q 2250 441 2565 725 
Q 2881 1009 2881 1497 
Q 2881 1984 2565 2268 
Q 2250 2553 1709 2553 
Q 1456 2553 1204 2497 
Q 953 2441 691 2322 
L 691 4666 
z
" transform="scale(0.015625)"/>
       </defs>
       <use xlink:href="#DejaVuSans-31" transform="translate(0 0.684375)"/>
       <use xlink:href="#DejaVuSans-30" transform="translate(63.623047 0.684375)"/>
       <use xlink:href="#DejaVuSans-2212" transform="translate(128.203125 38.965625)scale(0.7)"/>
       <use xlink:href="#DejaVuSans-35" transform="translate(186.855469 38.965625)scale(0.7)"/>
      </g>
     </g>
    </g>
    <g id="ytick_5">
     <g id="line2d_38">
      <g>
       <use xlink:href="#mca1a76d718" x="54" y="128.984066" style="stroke: #000000; stroke-width: 0.8"/>
      </g>
     </g>
     <g id="text_10">
      <!-- $\mathdefault{10^{-4}}$ -->
      <g transform="translate(23.5 132.783285)scale(0.1 -0.1)">
       <use xlink:href="#DejaVuSans-31" transform="translate(0 0.684375)"/>
       <use xlink:href="#DejaVuSans-30" transform="translate(63.623047 0.684375)"/>
       <use xlink:href="#DejaVuSans-2212" transform="translate(128.203125 38.965625)scale(0.7)"/>
       <use xlink:href="#DejaVuSans-34" transform="translate(186.855469 38.965625)scale(0.7)"/>
      </g>
     </g>
    </g>
    <g id="ytick_6">
     <g id="line2d_39">
      <g>
       <use xlink:href="#mca1a76d718" x="54" y="100.409666" style="stroke: #000000; stroke-width: 0.8"/>
      </g>
     </g>
     <g id="text_11">
      <!-- $\mathdefault{10^{-3}}$ -->
      <g transform="translate(23.5 104.208885)scale(0.1 -0.1)">
       <use xlink:href="#DejaVuSans-31" transform="translate(0 0.765625)"/>
       <use xlink:href="#DejaVuSans-30" transform="translate(63.623047 0.765625)"/>
       <use xlink:href="#DejaVuSans-2212" transform="translate(128.203125 39.046875)scale(0.7)"/>
       <use xlink:href="#DejaVuSans-33" transform="translate(186.855469 39.046875)scale(0.7)"/>
      </g>
     </g>
    </g>
    <g id="ytick_7">
     <g id="line2d_40">
      <g>
       <use xlink:href="#mca1a76d718" x="54" y="71.835266" style="stroke: #000000; stroke-width: 0.8"/>
      </g>
     </g>
     <g id="text_12">
      <!-- $\mathdefault{10^{-2}}$ -->
      <g transform="translate(23.5 75.634484)scale(0.1 -0.1)">
       <use xlink:href="#DejaVuSans-31" transform="translate(0 0.765625)"/>
       <use xlink:href="#DejaVuSans-30" transform="translate(63.623047 0.765625)"/>
       <use xlink:href="#DejaVuSans-2212" transform="translate(128.203125 39.046875)scale(0.7)"/>
       <use xlink:href="#DejaVuSans-32" transform="translate(186.855469 39.046875)scale(0.7)"/>
      </g>
     </g>
    </g>
    <g id="ytick_8">
     <g id="line2d_41">
      <g>
       <use xlink:href="#mca1a76d718" x="54" y="43.260866" style="stroke: #000000; stroke-width: 0.8"/>
      </g>
     </g>
     <g id="text_13">
      <!-- $\mathdefault{10^{-1}}$ -->
      <g transform="translate(23.5 47.060084)scale(0.1 -0.1)">
       <use xlink:href="#DejaVuSans-31" transform="translate(0 0.684375)"/>
       <use xlink:href="#DejaVuSans-30" transform="translate(63.623047 0.684375)"/>
       <use xlink:href="#DejaVuSans-2212" transform="translate(128.203125 38.965625)scale(0.7)"/>
       <use xlink:href="#DejaVuSans-31" transform="translate(186.855469 38.965625)scale(0.7)"/>
      </g>
     </g>
    </g>
    <g id="ytick_9">
     <g id="line2d_42">
      <defs>
       <path id="m3e93fcb109" d="M 0 0 
L -2 0 
" style="stroke: #000000; stroke-width: 0.6"/>
      </defs>
      <g>
       <use xlink:href="#m3e93fcb109" x="54" y="251.883418" style="stroke: #000000; stroke-width: 0.6"/>
      </g>
     </g>
    </g>
    <g id="ytick_10">
     <g id="line2d_43">
      <g>
       <use xlink:href="#m3e93fcb109" x="54" y="249.620862" style="stroke: #000000; stroke-width: 0.6"/>
      </g>
     </g>
    </g>
    <g id="ytick_11">
     <g id="line2d_44">
      <g>
       <use xlink:href="#m3e93fcb109" x="54" y="247.707897" style="stroke: #000000; stroke-width: 0.6"/>
      </g>
     </g>
    </g>
    <g id="ytick_12">
     <g id="line2d_45">
      <g>
       <use xlink:href="#m3e93fcb109" x="54" y="246.050812" style="stroke: #000000; stroke-width: 0.6"/>
      </g>
     </g>
    </g>
    <g id="ytick_13">
     <g id="line2d_46">
      <g>
       <use xlink:href="#m3e93fcb109" x="54" y="244.589159" style="stroke: #000000; stroke-width: 0.6"/>
      </g>
     </g>
    </g>
    <g id="ytick_14">
     <g id="line2d_47">
      <g>
       <use xlink:href="#m3e93fcb109" x="54" y="234.679915" style="stroke: #000000; stroke-width: 0.6"/>
      </g>
     </g>
    </g>
    <g id="ytick_15">
     <g id="line2d_48">
      <g>
       <use xlink:href="#m3e93fcb109" x="54" y="229.648213" style="stroke: #000000; stroke-width: 0.6"/>
      </g>
     </g>
    </g>
    <g id="ytick_16">
     <g id="line2d_49">
      <g>
       <use xlink:href="#m3e93fcb109" x="54" y="226.078164" style="stroke: #000000; stroke-width: 0.6"/>
      </g>
     </g>
    </g>
    <g id="ytick_17">
     <g id="line2d_50">
      <g>
       <use xlink:href="#m3e93fcb109" x="54" y="223.309018" style="stroke: #000000; stroke-width: 0.6"/>
      </g>
     </g>
    </g>
    <g id="ytick_18">
     <g id="line2d_51">
      <g>
       <use xlink:href="#m3e93fcb109" x="54" y="221.046461" style="stroke: #000000; stroke-width: 0.6"/>
      </g>
     </g>
    </g>
    <g id="ytick_19">
     <g id="line2d_52">
      <g>
       <use xlink:href="#m3e93fcb109" x="54" y="219.133497" style="stroke: #000000; stroke-width: 0.6"/>
      </g>
     </g>
    </g>
    <g id="ytick_20">
     <g id="line2d_53">
      <g>
       <use xlink:href="#m3e93fcb109" x="54" y="217.476412" style="stroke: #000000; stroke-width: 0.6"/>
      </g>
     </g>
    </g>
    <g id="ytick_21">
     <g id="line2d_54">
      <g>
       <use xlink:href="#m3e93fcb109" x="54" y="216.014759" style="stroke: #000000; stroke-width: 0.6"/>
      </g>
     </g>
    </g>
    <g id="ytick_22">
     <g id="line2d_55">
      <g>
       <use xlink:href="#m3e93fcb109" x="54" y="206.105515" style="stroke: #000000; stroke-width: 0.6"/>
      </g>
     </g>
    </g>
    <g id="ytick_23">
     <g id="line2d_56">
      <g>
       <use xlink:href="#m3e93fcb109" x="54" y="201.073813" style="stroke: #000000; stroke-width: 0.6"/>
      </g>
     </g>
    </g>
    <g id="ytick_24">
     <g id="line2d_57">
      <g>
       <use xlink:href="#m3e93fcb109" x="54" y="197.503763" style="stroke: #000000; stroke-width: 0.6"/>
      </g>
     </g>
    </g>
    <g id="ytick_25">
     <g id="line2d_58">
      <g>
       <use xlink:href="#m3e93fcb109" x="54" y="194.734618" style="stroke: #000000; stroke-width: 0.6"/>
      </g>
     </g>
    </g>
    <g id="ytick_26">
     <g id="line2d_59">
      <g>
       <use xlink:href="#m3e93fcb109" x="54" y="192.472061" style="stroke: #000000; stroke-width: 0.6"/>
      </g>
     </g>
    </g>
    <g id="ytick_27">
     <g id="line2d_60">
      <g>
       <use xlink:href="#m3e93fcb109" x="54" y="190.559097" style="stroke: #000000; stroke-width: 0.6"/>
      </g>
     </g>
    </g>
    <g id="ytick_28">
     <g id="line2d_61">
      <g>
       <use xlink:href="#m3e93fcb109" x="54" y="188.902012" style="stroke: #000000; stroke-width: 0.6"/>
      </g>
     </g>
    </g>
    <g id="ytick_29">
     <g id="line2d_62">
      <g>
       <use xlink:href="#m3e93fcb109" x="54" y="187.440359" style="stroke: #000000; stroke-width: 0.6"/>
      </g>
     </g>
    </g>
    <g id="ytick_30">
     <g id="line2d_63">
      <g>
       <use xlink:href="#m3e93fcb109" x="54" y="177.531115" style="stroke: #000000; stroke-width: 0.6"/>
      </g>
     </g>
    </g>
    <g id="ytick_31">
     <g id="line2d_64">
      <g>
       <use xlink:href="#m3e93fcb109" x="54" y="172.499413" style="stroke: #000000; stroke-width: 0.6"/>
      </g>
     </g>
    </g>
    <g id="ytick_32">
     <g id="line2d_65">
      <g>
       <use xlink:href="#m3e93fcb109" x="54" y="168.929363" style="stroke: #000000; stroke-width: 0.6"/>
      </g>
     </g>
    </g>
    <g id="ytick_33">
     <g id="line2d_66">
      <g>
       <use xlink:href="#m3e93fcb109" x="54" y="166.160218" style="stroke: #000000; stroke-width: 0.6"/>
      </g>
     </g>
    </g>
    <g id="ytick_34">
     <g id="line2d_67">
      <g>
       <use xlink:href="#m3e93fcb109" x="54" y="163.897661" style="stroke: #000000; stroke-width: 0.6"/>
      </g>
     </g>
    </g>
    <g id="ytick_35">
     <g id="line2d_68">
      <g>
       <use xlink:href="#m3e93fcb109" x="54" y="161.984697" style="stroke: #000000; stroke-width: 0.6"/>
      </g>
     </g>
    </g>
    <g id="ytick_36">
     <g id="line2d_69">
      <g>
       <use xlink:href="#m3e93fcb109" x="54" y="160.327612" style="stroke: #000000; stroke-width: 0.6"/>
      </g>
     </g>
    </g>
    <g id="ytick_37">
     <g id="line2d_70">
      <g>
       <use xlink:href="#m3e93fcb109" x="54" y="158.865959" style="stroke: #000000; stroke-width: 0.6"/>
      </g>
     </g>
    </g>
    <g id="ytick_38">
     <g id="line2d_71">
      <g>
       <use xlink:href="#m3e93fcb109" x="54" y="148.956715" style="stroke: #000000; stroke-width: 0.6"/>
      </g>
     </g>
    </g>
    <g id="ytick_39">
     <g id="line2d_72">
      <g>
       <use xlink:href="#m3e93fcb109" x="54" y="143.925013" style="stroke: #000000; stroke-width: 0.6"/>
      </g>
     </g>
    </g>
    <g id="ytick_40">
     <g id="line2d_73">
      <g>
       <use xlink:href="#m3e93fcb109" x="54" y="140.354963" style="stroke: #000000; stroke-width: 0.6"/>
      </g>
     </g>
    </g>
    <g id="ytick_41">
     <g id="line2d_74">
      <g>
       <use xlink:href="#m3e93fcb109" x="54" y="137.585818" style="stroke: #000000; stroke-width: 0.6"/>
      </g>
     </g>
    </g>
    <g id="ytick_42">
     <g id="line2d_75">
      <g>
       <use xlink:href="#m3e93fcb109" x="54" y="135.323261" style="stroke: #000000; stroke-width: 0.6"/>
      </g>
     </g>
    </g>
    <g id="ytick_43">
     <g id="line2d_76">
      <g>
       <use xlink:href="#m3e93fcb109" x="54" y="133.410297" style="stroke: #000000; stroke-width: 0.6"/>
      </g>
     </g>
    </g>
    <g id="ytick_44">
     <g id="line2d_77">
      <g>
       <use xlink:href="#m3e93fcb109" x="54" y="131.753212" style="stroke: #000000; stroke-width: 0.6"/>
      </g>
     </g>
    </g>
    <g id="ytick_45">
     <g id="line2d_78">
      <g>
       <use xlink:href="#m3e93fcb109" x="54" y="130.291559" style="stroke: #000000; stroke-width: 0.6"/>
      </g>
     </g>
    </g>
    <g id="ytick_46">
     <g id="line2d_79">
      <g>
       <use xlink:href="#m3e93fcb109" x="54" y="120.382314" style="stroke: #000000; stroke-width: 0.6"/>
      </g>
     </g>
    </g>
    <g id="ytick_47">
     <g id="line2d_80">
      <g>
       <use xlink:href="#m3e93fcb109" x="54" y="115.350612" style="stroke: #000000; stroke-width: 0.6"/>
      </g>
     </g>
    </g>
    <g id="ytick_48">
     <g id="line2d_81">
      <g>
       <use xlink:href="#m3e93fcb109" x="54" y="111.780563" style="stroke: #000000; stroke-width: 0.6"/>
      </g>
     </g>
    </g>
    <g id="ytick_49">
     <g id="line2d_82">
      <g>
       <use xlink:href="#m3e93fcb109" x="54" y="109.011417" style="stroke: #000000; stroke-width: 0.6"/>
      </g>
     </g>
    </g>
    <g id="ytick_50">
     <g id="line2d_83">
      <g>
       <use xlink:href="#m3e93fcb109" x="54" y="106.748861" style="stroke: #000000; stroke-width: 0.6"/>
      </g>
     </g>
    </g>
    <g id="ytick_51">
     <g id="line2d_84">
      <g>
       <use xlink:href="#m3e93fcb109" x="54" y="104.835896" style="stroke: #000000; stroke-width: 0.6"/>
      </g>
     </g>
    </g>
    <g id="ytick_52">
     <g id="line2d_85">
      <g>
       <use xlink:href="#m3e93fcb109" x="54" y="103.178811" style="stroke: #000000; stroke-width: 0.6"/>
      </g>
     </g>
    </g>
    <g id="ytick_53">
     <g id="line2d_86">
      <g>
       <use xlink:href="#m3e93fcb109" x="54" y="101.717159" style="stroke: #000000; stroke-width: 0.6"/>
      </g>
     </g>
    </g>
    <g id="ytick_54">
     <g id="line2d_87">
      <g>
       <use xlink:href="#m3e93fcb109" x="54" y="91.807914" style="stroke: #000000; stroke-width: 0.6"/>
      </g>
     </g>
    </g>
    <g id="ytick_55">
     <g id="line2d_88">
      <g>
       <use xlink:href="#m3e93fcb109" x="54" y="86.776212" style="stroke: #000000; stroke-width: 0.6"/>
      </g>
     </g>
    </g>
    <g id="ytick_56">
     <g id="line2d_89">
      <g>
       <use xlink:href="#m3e93fcb109" x="54" y="83.206163" style="stroke: #000000; stroke-width: 0.6"/>
      </g>
     </g>
    </g>
    <g id="ytick_57">
     <g id="line2d_90">
      <g>
       <use xlink:href="#m3e93fcb109" x="54" y="80.437017" style="stroke: #000000; stroke-width: 0.6"/>
      </g>
     </g>
    </g>
    <g id="ytick_58">
     <g id="line2d_91">
      <g>
       <use xlink:href="#m3e93fcb109" x="54" y="78.174461" style="stroke: #000000; stroke-width: 0.6"/>
      </g>
     </g>
    </g>
    <g id="ytick_59">
     <g id="line2d_92">
      <g>
       <use xlink:href="#m3e93fcb109" x="54" y="76.261496" style="stroke: #000000; stroke-width: 0.6"/>
      </g>
     </g>
    </g>
    <g id="ytick_60">
     <g id="line2d_93">
      <g>
       <use xlink:href="#m3e93fcb109" x="54" y="74.604411" style="stroke: #000000; stroke-width: 0.6"/>
      </g>
     </g>
    </g>
    <g id="ytick_61">
     <g id="line2d_94">
      <g>
       <use xlink:href="#m3e93fcb109" x="54" y="73.142759" style="stroke: #000000; stroke-width: 0.6"/>
      </g>
     </g>
    </g>
    <g id="ytick_62">
     <g id="line2d_95">
      <g>
       <use xlink:href="#m3e93fcb109" x="54" y="63.233514" style="stroke: #000000; stroke-width: 0.6"/>
      </g>
     </g>
    </g>
    <g id="ytick_63">
     <g id="line2d_96">
      <g>
       <use xlink:href="#m3e93fcb109" x="54" y="58.201812" style="stroke: #000000; stroke-width: 0.6"/>
      </g>
     </g>
    </g>
    <g id="ytick_64">
     <g id="line2d_97">
      <g>
       <use xlink:href="#m3e93fcb109" x="54" y="54.631763" style="stroke: #000000; stroke-width: 0.6"/>
      </g>
     </g>
    </g>
    <g id="ytick_65">
     <g id="line2d_98">
      <g>
       <use xlink:href="#m3e93fcb109" x="54" y="51.862617" style="stroke: #000000; stroke-width: 0.6"/>
      </g>
     </g>
    </g>
    <g id="ytick_66">
     <g id="line2d_99">
      <g>
       <use xlink:href="#m3e93fcb109" x="54" y="49.600061" style="stroke: #000000; stroke-width: 0.6"/>
      </g>
     </g>
    </g>
    <g id="ytick_67">
     <g id="line2d_100">
      <g>
       <use xlink:href="#m3e93fcb109" x="54" y="47.687096" style="stroke: #000000; stroke-width: 0.6"/>
      </g>
     </g>
    </g>
    <g id="ytick_68">
     <g id="line2d_101">
      <g>
       <use xlink:href="#m3e93fcb109" x="54" y="46.030011" style="stroke: #000000; stroke-width: 0.6"/>
      </g>
     </g>
    </g>
    <g id="ytick_69">
     <g id="line2d_102">
      <g>
       <use xlink:href="#m3e93fcb109" x="54" y="44.568358" style="stroke: #000000; stroke-width: 0.6"/>
      </g>
     </g>
    </g>
    <g id="ytick_70">
     <g id="line2d_103">
      <g>
       <use xlink:href="#m3e93fcb109" x="54" y="34.659114" style="stroke: #000000; stroke-width: 0.6"/>
      </g>
     </g>
    </g>
    <g id="text_14">
     <!-- MSE -->
     <g transform="translate(17.420313 153.927656)rotate(-90)scale(0.1 -0.1)">
      <defs>
       <path id="DejaVuSans-4d" d="M 628 4666 
L 1569 4666 
L 2759 1491 
L 3956 4666 
L 4897 4666 
L 4897 0 
L 4281 0 
L 4281 4097 
L 3078 897 
L 2444 897 
L 1241 4097 
L 1241 0 
L 628 0 
L 628 4666 
z
" transform="scale(0.015625)"/>
       <path id="DejaVuSans-53" d="M 3425 4513 
L 3425 3897 
Q 3066 4069 2747 4153 
Q 2428 4238 2131 4238 
Q 1616 4238 1336 4038 
Q 1056 3838 1056 3469 
Q 1056 3159 1242 3001 
Q 1428 2844 1947 2747 
L 2328 2669 
Q 3034 2534 3370 2195 
Q 3706 1856 3706 1288 
Q 3706 609 3251 259 
Q 2797 -91 1919 -91 
Q 1588 -91 1214 -16 
Q 841 59 441 206 
L 441 856 
Q 825 641 1194 531 
Q 1563 422 1919 422 
Q 2459 422 2753 634 
Q 3047 847 3047 1241 
Q 3047 1584 2836 1778 
Q 2625 1972 2144 2069 
L 1759 2144 
Q 1053 2284 737 2584 
Q 422 2884 422 3419 
Q 422 4038 858 4394 
Q 1294 4750 2059 4750 
Q 2388 4750 2728 4690 
Q 3069 4631 3425 4513 
z
" transform="scale(0.015625)"/>
       <path id="DejaVuSans-45" d="M 628 4666 
L 3578 4666 
L 3578 4134 
L 1259 4134 
L 1259 2753 
L 3481 2753 
L 3481 2222 
L 1259 2222 
L 1259 531 
L 3634 531 
L 3634 0 
L 628 0 
L 628 4666 
z
" transform="scale(0.015625)"/>
      </defs>
      <use xlink:href="#DejaVuSans-4d"/>
      <use xlink:href="#DejaVuSans-53" x="86.279297"/>
      <use xlink:href="#DejaVuSans-45" x="149.755859"/>
     </g>
    </g>
   </g>
   <g id="line2d_104">
    <path d="M 69.218182 55.891441 
L 72.56614 56.074839 
L 75.645963 58.224508 
L 81.15209 60.550856 
L 83.635354 59.935492 
L 85.968023 60.640094 
L 88.167321 62.378109 
L 90.247679 63.866342 
L 92.221304 63.361891 
L 94.098615 64.066432 
L 95.888578 64.619486 
L 97.598959 66.113287 
L 99.236536 66.458011 
L 100.807254 66.942691 
L 102.316359 68.11538 
L 103.768503 67.817702 
L 105.16783 69.172885 
L 106.518047 69.391899 
L 107.822486 69.488725 
L 109.084148 68.832795 
L 110.30575 70.869132 
L 111.489759 70.250031 
L 112.638419 71.265634 
L 113.753779 70.394313 
L 114.837717 72.346794 
L 115.891954 72.515468 
L 116.918075 72.235267 
L 117.91754 72.996961 
L 118.8917 72.768263 
L 119.841804 73.985651 
L 120.769011 73.978894 
L 121.6744 73.783766 
L 123.423667 74.869936 
L 124.269355 74.897248 
L 125.096854 75.051072 
L 125.906932 74.920177 
L 126.700305 75.469257 
L 127.47765 75.767449 
L 128.2396 76.609778 
L 128.986755 77.189342 
L 129.719677 76.386408 
L 130.438899 76.538451 
L 131.144923 77.607332 
L 131.838225 77.634243 
L 132.519256 77.911038 
L 133.188443 78.323828 
L 133.84619 77.986456 
L 134.492881 78.594409 
L 135.128883 77.644912 
L 135.754543 78.819297 
L 136.370192 78.049772 
L 136.976146 78.838032 
L 137.572704 79.261004 
L 138.160155 79.259457 
L 138.738771 79.438142 
L 139.308814 80.129321 
L 139.870536 79.658326 
L 140.424175 79.876788 
L 140.969961 80.250611 
L 141.508113 80.112843 
L 142.038842 80.672189 
L 142.56235 80.55221 
L 143.078831 81.163511 
L 143.588471 81.50501 
L 144.091448 82.604323 
L 144.587936 81.079715 
L 145.078099 82.633425 
L 145.562096 81.63509 
L 146.04008 81.033522 
L 146.512199 82.090111 
L 146.978596 81.529363 
L 147.439407 82.394118 
L 147.894764 81.821081 
L 148.344796 82.398107 
L 148.789624 82.425352 
L 149.229369 83.30396 
L 149.664145 82.049409 
L 150.094063 82.837008 
L 150.51923 82.144975 
L 150.93975 82.327915 
L 151.355725 83.824501 
L 151.76725 82.325474 
L 152.17442 82.591041 
L 152.577327 82.132076 
L 152.976059 84.151666 
L 153.370701 82.860506 
L 153.761336 83.377883 
L 162.733995 85.245775 
L 175.68052 90.269693 
L 185.350408 96.097964 
L 193.071664 101.282873 
L 199.499445 106.069737 
L 205.005572 107.29255 
L 209.821505 108.884078 
L 214.101162 110.561076 
L 217.952098 110.29566 
L 221.452441 111.19987 
L 224.660736 112.505544 
L 227.621985 112.258894 
L 230.371529 113.028737 
L 232.93763 112.552389 
L 235.343241 113.024634 
L 237.607262 113.952425 
L 239.745437 114.0348 
L 241.771022 114.610124 
L 245.527882 114.904446 
L 248.950336 116.062446 
L 250.553787 116.954167 
L 252.093082 116.664222 
L 253.573159 118.012022 
L 256.372739 118.315425 
L 257.699672 118.12435 
L 258.982365 119.443746 
L 260.223675 120.029716 
L 261.426186 122.069222 
L 262.592253 122.535445 
L 263.724018 121.529853 
L 264.823443 121.743698 
L 265.892324 123.952036 
L 266.932313 125.286719 
L 267.944931 125.251323 
L 268.931581 126.882037 
L 269.893562 125.210517 
L 270.832078 128.656514 
L 271.748246 127.293805 
L 272.643106 127.813189 
L 273.517627 128.726426 
L 274.372712 130.167024 
L 275.209207 130.264039 
L 276.027903 133.137438 
L 276.829541 130.8683 
L 277.614818 133.967212 
L 278.384389 135.800375 
L 279.138869 133.084151 
L 279.878839 137.770511 
L 280.604846 130.441073 
L 281.317408 138.986532 
L 282.017014 139.899363 
L 282.704126 139.01959 
L 283.379182 138.378681 
L 284.694772 141.507784 
L 285.336074 139.547653 
L 285.966863 142.006445 
L 286.587477 139.1169 
L 287.19824 141.572001 
L 287.799459 141.501312 
L 288.391428 141.847146 
L 288.974428 144.024337 
L 289.548726 141.419492 
L 290.114578 146.536904 
L 290.672229 145.238072 
L 291.221914 145.207042 
L 291.763856 146.716154 
L 292.29827 146.42735 
L 292.825364 146.492979 
L 293.345335 147.486628 
L 293.858373 147.330644 
L 294.364659 149.929494 
L 294.864371 146.030475 
L 295.357676 150.745556 
L 296.325708 147.984589 
L 296.800742 149.154098 
L 297.269982 150.875193 
L 297.733569 151.879851 
L 298.191637 149.536516 
L 298.644316 149.033214 
L 299.091731 149.54223 
L 299.534003 151.821186 
L 299.971249 151.289511 
L 300.403582 149.401078 
L 300.831111 151.889177 
L 301.253943 151.298857 
L 302.085915 154.490212 
L 302.495252 152.204448 
L 302.900279 151.496347 
L 303.301087 153.464781 
L 303.697764 153.197605 
L 304.479054 154.456685 
L 304.86383 152.839919 
L 305.244796 154.028146 
L 305.622027 153.147574 
L 305.995595 153.672106 
L 306.365572 151.490001 
L 306.732024 152.53147 
L 307.454623 153.168085 
L 307.810896 152.738065 
L 308.163901 153.043858 
L 308.513697 150.489692 
L 308.860341 154.264189 
L 309.20389 153.668947 
L 309.881921 154.388736 
L 310.216508 154.200324 
L 310.54821 154.483268 
L 310.877078 155.217686 
L 311.203158 154.739709 
L 311.526498 157.019228 
L 311.847144 153.530178 
L 312.165139 155.420378 
L 312.480528 155.12439 
L 312.793353 156.992142 
L 313.103655 154.840661 
L 313.411475 156.97644 
L 313.716851 156.405568 
L 314.019823 154.635098 
L 314.320428 155.54879 
L 314.618703 155.499059 
L 314.914683 154.779311 
L 315.208404 154.537728 
L 315.4999 155.596638 
L 315.789204 155.487208 
L 316.076349 155.83702 
L 316.361367 158.190647 
L 316.644289 158.698636 
L 317.203968 156.272782 
L 317.480784 156.988959 
L 317.755623 154.928592 
L 318.028512 161.167115 
L 318.568552 164.193673 
L 318.835757 156.714676 
L 319.101118 156.045027 
L 319.364662 161.929037 
L 319.626413 157.095661 
L 319.886395 155.936739 
L 320.144633 156.040449 
L 320.401149 158.125695 
L 320.655966 161.802665 
L 321.160593 157.049193 
L 321.658687 154.978379 
L 321.905337 162.620255 
L 322.150416 155.005319 
L 322.635939 156.908962 
L 323.115413 163.450118 
L 323.352928 157.025993 
L 323.588985 161.392554 
L 323.823603 162.930662 
L 324.056799 162.695196 
L 324.288591 156.40227 
L 324.518994 156.526416 
L 324.748026 155.937381 
L 324.975703 157.964222 
L 325.427054 159.853692 
L 325.873172 163.456162 
L 326.094306 164.025655 
L 326.314177 161.166271 
L 326.532798 164.88306 
L 326.750184 165.522717 
L 326.966349 165.29282 
L 327.181306 164.501244 
L 327.395069 164.67601 
L 327.607651 164.994292 
L 327.819065 164.378189 
L 328.029324 165.508331 
L 328.446426 164.333885 
L 328.653293 164.623714 
L 328.859054 162.861695 
L 329.063721 163.895452 
L 329.267305 163.855411 
L 329.469817 160.483133 
L 329.671269 163.932012 
L 329.871672 156.289107 
L 330.071036 158.174904 
L 330.269373 156.813819 
L 330.466693 156.846157 
L 330.663006 165.315096 
L 330.858322 156.682442 
L 331.052652 163.753274 
L 331.246005 161.080717 
L 331.438392 164.668073 
L 331.629821 164.101727 
L 331.820303 164.033752 
L 332.009847 156.22522 
L 332.198461 156.986312 
L 332.386155 156.489697 
L 332.572938 166.109841 
L 332.758819 164.528922 
L 333.311134 165.787127 
L 333.493491 165.041533 
L 333.674987 163.167003 
L 333.855632 165.255298 
L 334.035433 164.027337 
L 334.214397 166.241669 
L 334.392533 165.561004 
L 334.569847 157.073996 
L 334.746349 166.035223 
L 334.922044 165.804698 
L 335.096941 166.566546 
L 335.271047 166.690267 
L 335.444368 165.918326 
L 335.616912 165.932568 
L 336.12995 166.286946 
L 336.299453 165.64178 
L 336.468213 164.328569 
L 336.636236 165.655989 
L 336.803529 165.860012 
L 336.970098 166.676238 
L 337.135948 166.28515 
L 337.301087 166.327332 
L 337.46552 166.597197 
L 337.629253 167.482196 
L 337.792292 165.437057 
L 338.116313 167.429435 
L 338.277306 166.399425 
L 338.437628 166.327899 
L 338.756282 167.313589 
L 338.914625 167.472115 
L 339.072319 167.006186 
L 339.229369 167.282114 
L 339.385781 167.191915 
L 339.541559 166.175612 
L 339.69671 166.091485 
L 339.851237 167.230643 
L 340.005146 166.471744 
L 340.158442 166.853825 
L 340.31113 166.519372 
L 340.463214 166.615686 
L 340.614699 166.873492 
L 340.915893 167.79394 
L 341.06561 167.595276 
L 341.214747 168.050645 
L 341.65872 165.531702 
L 341.80558 167.846468 
L 341.951881 167.663752 
L 342.097629 166.500107 
L 342.242826 167.431454 
L 342.531587 165.6819 
L 342.675159 167.455071 
L 342.818197 167.627346 
L 343.102688 165.298947 
L 343.244149 167.577776 
L 343.385092 167.028461 
L 343.52552 167.564143 
L 343.665437 166.528848 
L 343.943755 167.876692 
L 344.082162 167.615434 
L 344.220074 168.487923 
L 344.494422 165.872554 
L 344.902312 168.190781 
L 345.03732 167.789445 
L 345.305923 167.897455 
L 345.439525 163.258941 
L 345.572664 167.455464 
L 345.705345 166.214971 
L 345.837569 167.610147 
L 345.969341 167.379524 
L 346.100662 166.684792 
L 346.231538 167.401726 
L 346.361969 167.157599 
L 346.49196 166.208899 
L 346.621513 168.52232 
L 346.879318 167.014397 
L 347.007576 168.863688 
L 347.135407 167.373291 
L 347.262815 168.04483 
L 347.516373 167.885873 
L 347.642528 168.137205 
L 347.768271 168.009958 
L 347.893604 168.345107 
L 348.01853 169.091063 
L 348.143052 169.018337 
L 348.514218 167.623348 
L 348.759688 168.977657 
L 348.881838 167.703879 
L 349.003602 168.59177 
L 349.124981 167.922045 
L 349.245979 167.977276 
L 349.366597 167.798754 
L 349.486839 169.121789 
L 349.606706 167.265573 
L 349.7262 168.738359 
L 349.964082 168.365962 
L 350.200502 167.091048 
L 350.31817 168.545287 
L 350.552431 166.33005 
L 350.785274 168.039724 
L 350.901169 167.284019 
L 351.131918 167.849744 
L 351.246776 168.16176 
L 351.361291 167.728393 
L 351.475467 169.161908 
L 351.589305 168.612179 
L 351.702808 168.940672 
L 351.815976 167.82597 
L 352.041319 169.03104 
L 352.265351 168.313503 
L 352.376879 169.836951 
L 352.59897 168.563373 
L 352.709537 167.998027 
L 352.819787 168.377915 
L 352.929722 169.781502 
L 353.148655 167.32948 
L 353.366348 168.568657 
L 353.474735 167.71903 
L 353.582817 169.148331 
L 353.798075 167.793632 
L 353.905254 168.121575 
L 354.012135 166.085294 
L 354.118721 168.120603 
L 354.225011 166.818649 
L 354.436716 168.961636 
L 354.542133 167.616078 
L 354.647263 169.157918 
L 354.960938 167.365824 
L 355.168643 169.016746 
L 355.272076 169.028672 
L 355.580719 167.043698 
L 355.785114 169.449279 
L 355.988428 168.733161 
L 356.190675 169.301609 
L 356.391863 168.444696 
L 356.492065 170.000102 
L 356.691688 168.892899 
L 356.89028 169.41295 
L 357.087853 168.476462 
L 357.284417 169.469409 
L 357.382323 169.754947 
L 357.479981 169.692961 
L 357.577392 169.901197 
L 357.674557 169.237666 
L 357.771477 169.432288 
L 357.964588 168.277914 
L 358.060781 169.037799 
L 358.156734 168.103942 
L 358.252449 169.109506 
L 358.347926 168.772367 
L 358.538172 169.037181 
L 358.632944 169.258571 
L 358.727483 169.142645 
L 359.009713 169.71896 
L 359.103332 171.041002 
L 359.196723 169.254357 
L 359.289889 169.828942 
L 359.382829 169.590424 
L 359.475545 168.786595 
L 359.66031 169.174535 
L 359.844192 168.101072 
L 359.935805 169.627123 
L 360.0272 169.400318 
L 360.118378 169.50578 
L 360.300089 168.301203 
L 360.390624 169.995198 
L 360.571057 168.365555 
L 360.660957 169.839949 
L 360.750648 169.399037 
L 360.84013 170.765337 
L 360.929404 169.573807 
L 361.018472 169.586016 
L 361.107334 169.33422 
L 361.195991 170.540569 
L 361.284445 169.316886 
L 361.372695 169.992632 
L 361.548591 169.63713 
L 361.636239 169.5737 
L 361.723687 169.775347 
L 361.810937 170.442814 
L 361.89799 169.533541 
L 361.984846 171.217016 
L 362.071507 168.944193 
L 362.244244 170.998229 
L 362.41621 168.636745 
L 362.501905 169.092962 
L 362.58741 170.690398 
L 362.842791 167.765178 
L 363.096488 170.215836 
L 363.180684 169.079469 
L 363.264695 170.519663 
L 363.348524 169.522148 
L 363.43217 170.351307 
L 363.515635 169.806666 
L 363.598919 170.60909 
L 363.682023 170.184554 
L 363.764948 170.208498 
L 363.930264 171.03777 
L 364.012657 169.912938 
L 364.094873 170.358833 
L 364.176914 170.018291 
L 364.25878 171.201305 
L 364.421993 169.568381 
L 364.50334 169.957182 
L 364.584516 169.896505 
L 364.665521 170.184983 
L 364.746355 171.050565 
L 364.82702 171.036364 
L 364.907517 169.67844 
L 365.068006 170.805264 
L 365.148 170.790897 
L 365.227828 171.01292 
L 365.307492 169.804379 
L 365.38699 170.077733 
L 365.545496 170.670896 
L 365.782037 169.122653 
L 365.938927 169.281506 
L 366.017133 169.748777 
L 366.09518 169.550642 
L 366.173069 168.890108 
L 366.250801 171.738052 
L 366.328376 170.259142 
L 366.405795 172.188647 
L 366.483059 169.398279 
L 366.560168 169.48722 
L 366.637122 169.242753 
L 366.713923 170.476722 
L 366.790571 170.256727 
L 366.94341 170.872454 
L 367.171537 168.43744 
L 367.24728 170.863693 
L 367.322874 169.194937 
L 367.398319 170.271969 
L 367.473617 170.140738 
L 367.548768 170.554561 
L 367.623772 170.041046 
L 367.698631 170.740986 
L 367.773344 170.230827 
L 367.996617 171.013826 
L 368.070754 169.861548 
L 368.218602 171.617547 
L 368.292313 170.665088 
L 368.365883 171.15768 
L 368.439313 170.861978 
L 368.512603 169.951839 
L 368.585754 170.318422 
L 368.731639 170.547893 
L 368.804375 169.851542 
L 368.949436 170.995255 
L 369.021761 169.489911 
L 369.166006 171.536697 
L 369.237926 171.29902 
L 369.309712 170.453506 
L 369.381364 171.245726 
L 369.452883 171.100341 
L 369.52427 171.311553 
L 369.737638 169.467772 
L 369.808498 169.744059 
L 369.879228 171.417799 
L 369.949829 171.147568 
L 370.0203 170.931589 
L 370.160856 171.686643 
L 370.370733 170.465179 
L 370.440438 171.206451 
L 370.579471 170.624844 
L 370.648799 171.25754 
L 370.718003 171.009293 
L 370.787082 169.806472 
L 370.92487 171.28595 
L 370.993579 171.239713 
L 371.130631 171.463758 
L 371.198975 169.823993 
L 371.267197 171.703558 
L 371.335298 171.553278 
L 371.403279 171.481829 
L 371.47114 170.747906 
L 371.538882 172.137165 
L 371.606504 171.853735 
L 371.674008 170.569965 
L 371.741394 171.131462 
L 371.808662 170.558231 
L 372.009763 171.702479 
L 372.076564 171.066638 
L 372.143249 172.503152 
L 372.209819 171.093991 
L 372.276273 171.371092 
L 372.342613 171.590056 
L 372.408839 171.334764 
L 372.54095 171.858831 
L 372.672609 170.79147 
L 372.73827 171.51785 
L 372.803819 170.124668 
L 372.869256 170.375199 
L 372.934583 172.321493 
L 372.999798 171.930142 
L 373.259561 170.120573 
L 373.388788 171.555152 
L 373.581818 170.346336 
L 373.581818 170.346336 
" clip-path="url(#p8eea3de5c9)" style="fill: none; stroke: #0000ff; stroke-width: 1.5; stroke-linecap: square"/>
   </g>
   <g id="line2d_105">
    <path d="M 69.218182 44.443636 
L 373.581818 142.607174 
L 373.581818 142.607174 
" clip-path="url(#p8eea3de5c9)" style="fill: none; stroke: #008000; stroke-width: 1.5; stroke-linecap: square"/>
   </g>
   <g id="line2d_106">
    <path d="M 69.218182 45.78929 
L 373.581818 242.116364 
L 373.581818 242.116364 
" clip-path="url(#p8eea3de5c9)" style="fill: none; stroke: #ff0000; stroke-width: 1.5; stroke-linecap: square"/>
   </g>
   <g id="patch_3">
    <path d="M 54 252 
L 54 34.56 
" style="fill: none; stroke: #000000; stroke-width: 0.8; stroke-linejoin: miter; stroke-linecap: square"/>
   </g>
   <g id="patch_4">
    <path d="M 388.8 252 
L 388.8 34.56 
" style="fill: none; stroke: #000000; stroke-width: 0.8; stroke-linejoin: miter; stroke-linecap: square"/>
   </g>
   <g id="patch_5">
    <path d="M 54 252 
L 388.8 252 
" style="fill: none; stroke: #000000; stroke-width: 0.8; stroke-linejoin: miter; stroke-linecap: square"/>
   </g>
   <g id="patch_6">
    <path d="M 54 34.56 
L 388.8 34.56 
" style="fill: none; stroke: #000000; stroke-width: 0.8; stroke-linejoin: miter; stroke-linecap: square"/>
   </g>
  </g>
 </g>
 <defs>
  <clipPath id="p8eea3de5c9">
   <rect x="54" y="34.56" width="334.8" height="217.44"/>
  </clipPath>
 </defs>
</svg>
