<?xml version="1.0" encoding="utf-8" standalone="no"?>
<!DOCTYPE svg PUBLIC "-//W3C//DTD SVG 1.1//EN"
  "http://www.w3.org/Graphics/SVG/1.1/DTD/svg11.dtd">
<svg xmlns:xlink="http://www.w3.org/1999/xlink" width="432pt" height="288pt" viewBox="0 0 432 288" xmlns="http://www.w3.org/2000/svg" version="1.1">
 <metadata>
  <rdf:RDF xmlns:dc="http://purl.org/dc/elements/1.1/" xmlns:cc="http://creativecommons.org/ns#" xmlns:rdf="http://www.w3.org/1999/02/22-rdf-syntax-ns#">
   <cc:Work>
    <dc:type rdf:resource="http://purl.org/dc/dcmitype/StillImage"/>
    <dc:date>2022-02-14T15:00:27.238820</dc:date>
    <dc:format>image/svg+xml</dc:format>
    <dc:creator>
     <cc:Agent>
      <dc:title>Matplotlib v3.5.1, https://matplotlib.org/</dc:title>
     </cc:Agent>
    </dc:creator>
   </cc:Work>
  </rdf:RDF>
 </metadata>
 <defs>
  <style type="text/css">*{stroke-linejoin: round; stroke-linecap: butt}</style>
 </defs>
 <g id="figure_1">
  <g id="patch_1">
   <path d="M 0 288 
L 432 288 
L 432 0 
L 0 0 
L 0 288 
z
" style="fill: none"/>
  </g>
  <g id="axes_1">
   <g id="patch_2">
    <path d="M 54 252 
L 388.8 252 
L 388.8 34.56 
L 54 34.56 
z
" style="fill: #ffffff"/>
   </g>
   <g id="PolyCollection_1">
    <defs>
     <path id="m765ad20c60" d="M 69.218182 -232.727294 
L 69.218182 -230.185275 
L 72.56614 -229.715724 
L 75.645963 -228.3599 
L 78.497434 -228.495456 
L 81.15209 -226.191596 
L 83.635354 -226.190885 
L 85.968023 -223.614529 
L 88.167321 -224.321359 
L 90.247679 -223.564616 
L 92.221304 -222.365733 
L 94.098615 -222.044013 
L 95.888578 -220.28433 
L 97.598959 -221.216349 
L 99.236536 -219.485671 
L 100.807254 -220.537575 
L 102.316359 -218.786644 
L 103.768503 -218.193811 
L 105.16783 -217.665353 
L 106.518047 -217.245111 
L 107.822486 -216.609825 
L 109.084148 -216.040665 
L 110.30575 -216.208828 
L 111.489759 -215.314397 
L 112.638419 -215.742995 
L 113.753779 -215.096968 
L 114.837717 -214.592297 
L 115.891954 -214.866571 
L 116.918075 -213.444574 
L 117.91754 -213.770099 
L 118.8917 -213.306356 
L 119.841804 -212.23076 
L 120.769011 -212.120956 
L 121.6744 -211.564227 
L 122.558973 -211.455585 
L 123.423667 -211.682771 
L 124.269355 -211.688264 
L 125.096854 -211.661241 
L 125.906932 -210.559787 
L 126.700305 -210.817757 
L 127.47765 -210.281251 
L 128.2396 -210.94707 
L 128.986755 -209.546459 
L 129.719677 -208.531908 
L 130.438899 -208.365621 
L 131.144923 -209.393344 
L 131.838225 -208.807893 
L 132.519256 -209.172978 
L 133.188443 -208.611384 
L 133.84619 -207.600716 
L 134.492881 -207.999839 
L 135.128883 -208.135635 
L 135.754543 -207.019407 
L 136.370192 -206.918328 
L 136.976146 -206.26613 
L 137.572704 -206.597642 
L 138.160155 -206.37879 
L 138.738771 -205.86713 
L 139.308814 -205.056119 
L 139.870536 -205.287661 
L 140.424175 -204.856756 
L 140.969961 -205.357506 
L 141.508113 -204.868144 
L 142.038842 -203.842114 
L 142.56235 -204.74059 
L 143.078831 -203.536814 
L 143.588471 -204.023054 
L 144.091448 -204.466337 
L 144.587936 -202.099756 
L 145.078099 -202.876079 
L 145.562096 -203.297649 
L 146.04008 -203.443713 
L 146.512199 -204.050149 
L 146.978596 -202.456824 
L 147.439407 -203.22564 
L 147.894764 -202.845229 
L 148.344796 -202.777688 
L 148.789624 -202.400747 
L 149.229369 -200.894722 
L 149.664145 -203.387104 
L 150.094063 -200.870714 
L 150.51923 -201.517388 
L 150.93975 -202.133177 
L 151.355725 -201.730244 
L 151.76725 -200.813665 
L 152.17442 -200.785571 
L 152.577327 -202.20019 
L 152.976059 -201.896088 
L 153.370701 -201.548649 
L 153.761336 -202.074083 
L 162.733995 -198.6391 
L 175.68052 -192.564087 
L 185.350408 -187.821756 
L 193.071664 -183.206941 
L 199.499445 -180.315893 
L 205.005572 -175.827914 
L 209.821505 -173.665154 
L 214.101162 -174.534242 
L 217.952098 -170.831127 
L 221.452441 -168.229026 
L 224.660736 -167.908871 
L 227.621985 -167.670786 
L 230.371529 -166.184645 
L 232.93763 -165.41233 
L 235.343241 -165.333528 
L 237.607262 -163.88828 
L 239.745437 -162.09353 
L 241.771022 -161.67152 
L 243.695286 -162.300528 
L 245.527882 -159.587964 
L 247.277149 -159.732252 
L 248.950336 -159.994847 
L 250.553787 -157.917643 
L 252.093082 -158.366945 
L 253.573159 -158.817719 
L 254.998405 -155.9827 
L 256.372739 -153.756825 
L 257.699672 -156.15071 
L 258.982365 -152.768322 
L 260.223675 -152.387996 
L 261.426186 -152.991035 
L 262.592253 -152.36072 
L 263.724018 -151.41488 
L 264.823443 -151.169811 
L 265.892324 -149.986405 
L 266.932313 -150.159189 
L 267.944931 -148.617045 
L 268.931581 -148.841964 
L 269.893562 -148.503843 
L 270.832078 -146.44639 
L 271.748246 -145.898094 
L 272.643106 -146.366666 
L 273.517627 -145.066993 
L 274.372712 -145.101859 
L 275.209207 -142.119657 
L 276.027903 -143.143587 
L 276.829541 -143.472057 
L 277.614818 -143.012658 
L 278.384389 -140.223183 
L 279.138869 -137.743336 
L 279.878839 -138.532489 
L 280.604846 -140.648861 
L 281.317408 -137.63951 
L 282.017014 -137.688978 
L 282.704126 -138.245556 
L 283.379182 -137.776796 
L 284.0426 -135.581502 
L 284.694772 -135.815255 
L 285.336074 -134.916796 
L 285.966863 -134.263089 
L 286.587477 -133.746878 
L 287.19824 -135.362143 
L 287.799459 -132.670316 
L 288.391428 -133.739843 
L 288.974428 -131.432217 
L 289.548726 -131.803269 
L 290.114578 -132.743898 
L 290.672229 -131.391503 
L 291.221914 -130.539452 
L 291.763856 -130.493428 
L 292.29827 -130.268001 
L 292.825364 -130.231783 
L 293.345335 -130.236693 
L 293.858373 -129.905795 
L 294.364659 -130.079505 
L 294.864371 -130.019401 
L 295.357676 -128.902375 
L 295.844736 -128.533173 
L 296.325708 -127.624609 
L 296.800742 -127.464369 
L 297.269982 -126.50251 
L 297.733569 -127.264416 
L 298.191637 -126.230654 
L 298.644316 -126.032044 
L 299.091731 -125.582875 
L 299.534003 -126.325851 
L 299.971249 -125.517033 
L 300.403582 -125.490353 
L 300.831111 -125.721597 
L 301.253943 -124.810716 
L 301.672178 -125.536481 
L 302.085915 -124.362448 
L 302.495252 -124.021098 
L 302.900279 -124.428604 
L 303.301087 -122.924921 
L 303.697764 -124.109976 
L 304.090392 -123.586395 
L 304.479054 -122.597898 
L 304.86383 -122.91122 
L 305.244796 -122.117652 
L 305.622027 -123.762454 
L 305.995595 -123.479767 
L 306.365572 -122.767088 
L 306.732024 -122.43659 
L 307.09502 -123.549502 
L 307.454623 -121.826922 
L 307.810896 -120.64365 
L 308.163901 -120.987128 
L 308.513697 -122.000431 
L 308.860341 -120.566583 
L 309.20389 -120.229434 
L 309.544399 -119.84732 
L 309.881921 -120.662222 
L 310.216508 -119.453476 
L 310.54821 -120.339127 
L 310.877078 -118.629931 
L 311.203158 -120.366167 
L 311.526498 -119.558676 
L 311.847144 -120.125448 
L 312.165139 -119.264695 
L 312.480528 -119.479508 
L 312.793353 -119.142837 
L 313.103655 -118.463618 
L 313.411475 -118.939117 
L 313.716851 -117.8496 
L 314.019823 -118.487454 
L 314.320428 -118.52952 
L 314.618703 -117.846923 
L 314.914683 -117.707464 
L 315.208404 -118.164942 
L 315.4999 -117.661672 
L 315.789204 -117.656014 
L 316.076349 -116.976449 
L 316.361367 -116.738142 
L 316.644289 -117.463603 
L 316.925146 -116.747594 
L 317.203968 -116.609741 
L 317.480784 -116.893344 
L 317.755623 -116.158345 
L 318.028512 -116.220674 
L 318.29948 -115.060448 
L 318.568552 -115.503555 
L 318.835757 -115.671383 
L 319.101118 -115.805757 
L 319.364662 -115.564399 
L 319.626413 -116.12888 
L 319.886395 -115.060806 
L 320.144633 -114.814016 
L 320.401149 -114.577738 
L 320.655966 -115.186626 
L 320.909107 -114.459374 
L 321.160593 -113.721071 
L 321.410446 -113.919134 
L 321.658687 -113.782149 
L 321.905337 -114.787709 
L 322.150416 -114.276185 
L 322.393943 -113.954997 
L 322.635939 -114.076197 
L 322.876423 -112.599845 
L 323.115413 -113.637836 
L 323.352928 -113.753253 
L 323.588985 -113.297787 
L 323.823603 -112.976673 
L 324.056799 -114.065729 
L 324.288591 -113.409408 
L 324.518994 -113.201623 
L 324.748026 -112.273642 
L 324.975703 -112.810634 
L 325.20204 -113.101258 
L 325.427054 -111.846855 
L 325.650759 -112.47223 
L 325.873172 -111.899845 
L 326.094306 -112.220852 
L 326.314177 -111.011996 
L 326.532798 -111.90201 
L 326.750184 -112.139046 
L 326.966349 -111.778349 
L 327.181306 -112.274003 
L 327.395069 -110.453693 
L 327.607651 -111.137194 
L 327.819065 -111.510626 
L 328.029324 -110.88463 
L 328.23844 -111.786645 
L 328.446426 -110.910618 
L 328.653293 -109.929037 
L 328.859054 -110.781902 
L 329.063721 -110.787983 
L 329.267305 -111.379935 
L 329.469817 -108.635862 
L 329.671269 -110.424541 
L 329.871672 -109.926192 
L 330.071036 -111.555811 
L 330.269373 -110.675734 
L 330.466693 -110.658756 
L 330.663006 -110.55274 
L 330.858322 -110.094563 
L 331.052652 -109.732144 
L 331.246005 -110.145176 
L 331.438392 -109.308656 
L 331.629821 -109.928831 
L 331.820303 -110.154944 
L 332.009847 -109.346246 
L 332.198461 -109.351691 
L 332.386155 -109.530601 
L 332.572938 -108.967758 
L 332.758819 -109.662212 
L 332.943806 -108.791723 
L 333.127908 -109.024643 
L 333.311134 -109.736488 
L 333.493491 -109.099132 
L 333.674987 -107.964297 
L 333.855632 -108.546679 
L 334.035433 -108.961513 
L 334.214397 -107.597238 
L 334.392533 -108.430991 
L 334.569847 -107.235838 
L 334.746349 -109.08226 
L 334.922044 -108.784064 
L 335.096941 -108.335164 
L 335.271047 -108.797867 
L 335.444368 -108.153511 
L 335.616912 -108.357424 
L 335.788686 -108.968845 
L 335.959696 -108.508953 
L 336.12995 -107.818077 
L 336.299453 -108.105035 
L 336.468213 -107.686549 
L 336.636236 -107.432976 
L 336.803529 -107.351385 
L 336.970098 -108.768724 
L 337.135948 -108.590618 
L 337.301087 -107.130136 
L 337.46552 -108.48185 
L 337.629253 -107.961786 
L 337.792292 -108.104799 
L 337.954644 -107.338626 
L 338.116313 -107.279707 
L 338.277306 -107.14227 
L 338.437628 -107.592666 
L 338.597285 -106.548835 
L 338.756282 -106.895837 
L 338.914625 -106.903919 
L 339.072319 -106.64888 
L 339.229369 -106.429453 
L 339.385781 -107.654763 
L 339.541559 -106.362763 
L 339.69671 -106.416884 
L 339.851237 -106.717004 
L 340.005146 -106.026949 
L 340.158442 -105.622513 
L 340.31113 -105.892187 
L 340.463214 -105.96024 
L 340.614699 -107.010541 
L 340.765591 -106.621065 
L 340.915893 -106.081481 
L 341.06561 -105.729772 
L 341.214747 -106.062203 
L 341.363308 -107.100788 
L 341.511297 -107.097561 
L 341.65872 -105.326242 
L 341.80558 -106.191795 
L 341.951881 -106.374576 
L 342.097629 -105.750913 
L 342.242826 -105.788426 
L 342.387477 -105.189051 
L 342.531587 -105.898769 
L 342.675159 -105.335676 
L 342.818197 -104.939283 
L 342.960706 -105.642619 
L 343.102688 -105.320695 
L 343.244149 -105.941968 
L 343.385092 -105.699064 
L 343.52552 -104.889362 
L 343.665437 -105.397914 
L 343.804847 -104.512882 
L 343.943755 -105.036985 
L 344.082162 -104.845708 
L 344.220074 -105.093032 
L 344.357493 -103.784836 
L 344.494422 -104.354463 
L 344.630867 -104.764713 
L 344.766829 -104.880334 
L 344.902312 -104.355268 
L 345.03732 -104.559157 
L 345.171856 -104.538292 
L 345.305923 -104.868606 
L 345.439525 -104.448555 
L 345.572664 -103.552531 
L 345.705345 -104.45908 
L 345.837569 -103.495737 
L 345.969341 -104.25384 
L 346.100662 -104.026418 
L 346.231538 -103.227185 
L 346.361969 -103.990243 
L 346.49196 -103.544444 
L 346.621513 -103.994974 
L 346.750631 -103.801604 
L 346.879318 -103.531709 
L 347.007576 -103.678206 
L 347.135407 -103.79503 
L 347.262815 -102.942305 
L 347.389803 -102.945275 
L 347.516373 -103.010134 
L 347.642528 -103.435233 
L 347.768271 -102.717226 
L 347.893604 -103.645092 
L 348.01853 -102.909384 
L 348.143052 -103.651264 
L 348.267172 -102.380476 
L 348.390894 -101.981059 
L 348.514218 -103.606706 
L 348.637149 -103.029936 
L 348.759688 -102.239194 
L 348.881838 -101.863801 
L 349.003602 -102.699193 
L 349.124981 -102.863818 
L 349.245979 -102.947228 
L 349.366597 -101.917614 
L 349.486839 -102.216827 
L 349.606706 -101.582256 
L 349.7262 -101.687504 
L 349.845325 -102.341059 
L 349.964082 -101.416018 
L 350.082474 -102.079635 
L 350.200502 -102.083302 
L 350.31817 -102.059163 
L 350.435478 -101.243057 
L 350.552431 -101.662558 
L 350.669028 -101.767013 
L 350.785274 -102.083444 
L 350.901169 -101.731982 
L 351.016717 -102.438729 
L 351.131918 -101.258666 
L 351.246776 -102.734637 
L 351.361291 -101.758821 
L 351.475467 -101.831647 
L 351.589305 -100.390863 
L 351.702808 -101.005725 
L 351.815976 -101.579636 
L 351.928813 -101.418636 
L 352.041319 -101.419699 
L 352.153498 -100.843175 
L 352.265351 -101.453394 
L 352.376879 -101.172591 
L 352.488085 -101.751862 
L 352.59897 -100.996518 
L 352.709537 -101.042978 
L 352.819787 -100.992091 
L 352.929722 -100.014664 
L 353.039344 -100.637459 
L 353.148655 -101.130701 
L 353.257655 -100.087694 
L 353.366348 -101.138256 
L 353.474735 -100.775344 
L 353.582817 -100.594881 
L 353.690597 -98.88718 
L 353.798075 -100.969151 
L 353.905254 -99.997242 
L 354.012135 -100.019926 
L 354.118721 -100.433596 
L 354.225011 -99.921927 
L 354.331009 -99.341913 
L 354.436716 -99.108598 
L 354.542133 -100.414321 
L 354.647263 -100.004209 
L 354.752105 -100.249048 
L 354.856663 -99.508694 
L 354.960938 -100.131052 
L 355.06493 -100.695107 
L 355.168643 -99.902926 
L 355.272076 -99.698582 
L 355.375232 -101.216585 
L 355.478113 -100.247021 
L 355.580719 -99.612765 
L 355.683052 -100.096263 
L 355.785114 -99.030654 
L 355.886905 -99.347365 
L 355.988428 -98.54846 
L 356.089684 -99.896357 
L 356.190675 -99.814076 
L 356.2914 -99.588551 
L 356.391863 -99.580851 
L 356.492065 -99.170733 
L 356.592006 -100.479417 
L 356.691688 -99.139891 
L 356.791112 -100.322755 
L 356.89028 -98.830988 
L 356.989194 -99.27471 
L 357.087853 -98.913561 
L 357.186261 -99.193579 
L 357.284417 -99.473179 
L 357.382323 -99.537019 
L 357.479981 -98.755029 
L 357.577392 -99.874792 
L 357.674557 -100.167151 
L 357.771477 -98.763292 
L 357.868154 -99.923405 
L 357.964588 -100.183088 
L 358.060781 -100.156502 
L 358.156734 -98.351607 
L 358.252449 -98.492242 
L 358.347926 -98.478506 
L 358.443167 -98.858487 
L 358.538172 -98.600297 
L 358.632944 -98.588634 
L 358.727483 -99.648951 
L 358.82179 -99.301463 
L 358.915866 -98.229178 
L 359.009713 -99.102253 
L 359.103332 -98.432835 
L 359.196723 -98.355442 
L 359.289889 -99.599334 
L 359.382829 -98.622 
L 359.475545 -97.868472 
L 359.568039 -97.960567 
L 359.66031 -99.712393 
L 359.752361 -98.521356 
L 359.844192 -99.784174 
L 359.935805 -98.424587 
L 360.0272 -98.184076 
L 360.118378 -98.758721 
L 360.209341 -98.020502 
L 360.300089 -98.689517 
L 360.390624 -97.882079 
L 360.480946 -98.600941 
L 360.571057 -98.464347 
L 360.660957 -97.917243 
L 360.750648 -97.27835 
L 360.84013 -97.064714 
L 360.929404 -98.006625 
L 361.018472 -97.61609 
L 361.107334 -97.26774 
L 361.195991 -96.193182 
L 361.284445 -97.457423 
L 361.372695 -96.456753 
L 361.460744 -97.754844 
L 361.548591 -97.604334 
L 361.636239 -96.714186 
L 361.723687 -98.37799 
L 361.810937 -96.768827 
L 361.89799 -97.162907 
L 361.984846 -97.438347 
L 362.071507 -96.421328 
L 362.157972 -96.471911 
L 362.244244 -98.022492 
L 362.330323 -97.587503 
L 362.41621 -97.438114 
L 362.501905 -97.896548 
L 362.58741 -97.048166 
L 362.672726 -97.84776 
L 362.757852 -97.274533 
L 362.842791 -97.033231 
L 362.927543 -97.005083 
L 363.012108 -96.635701 
L 363.096488 -97.095909 
L 363.180684 -96.218624 
L 363.264695 -96.878775 
L 363.348524 -96.767696 
L 363.43217 -96.93137 
L 363.515635 -97.069214 
L 363.598919 -97.450642 
L 363.682023 -97.322397 
L 363.764948 -96.774535 
L 363.847695 -96.805349 
L 363.930264 -96.531619 
L 364.012657 -96.371121 
L 364.094873 -96.668998 
L 364.176914 -96.606246 
L 364.25878 -96.23791 
L 364.340473 -97.024549 
L 364.421993 -96.151701 
L 364.50334 -95.754943 
L 364.584516 -96.40846 
L 364.665521 -97.029472 
L 364.746355 -96.814809 
L 364.82702 -96.588492 
L 364.907517 -96.167119 
L 364.987845 -95.575266 
L 365.068006 -96.137326 
L 365.148 -96.601168 
L 365.227828 -96.194041 
L 365.307492 -95.791874 
L 365.38699 -96.354241 
L 365.466325 -95.900923 
L 365.545496 -95.40281 
L 365.624505 -95.622396 
L 365.703352 -95.973938 
L 365.782037 -95.74418 
L 365.860562 -95.799551 
L 365.938927 -95.202352 
L 366.017133 -95.074587 
L 366.09518 -96.025527 
L 366.173069 -95.879467 
L 366.250801 -96.519861 
L 366.328376 -95.889256 
L 366.405795 -95.360669 
L 366.483059 -96.134179 
L 366.560168 -95.949732 
L 366.637122 -94.758582 
L 366.713923 -94.971281 
L 366.790571 -94.31993 
L 366.867067 -95.993295 
L 366.94341 -94.919086 
L 367.019603 -95.574423 
L 367.095645 -95.306144 
L 367.171537 -94.53226 
L 367.24728 -95.339319 
L 367.322874 -96.013134 
L 367.398319 -95.784591 
L 367.473617 -95.331248 
L 367.548768 -95.40231 
L 367.623772 -95.474324 
L 367.698631 -94.525719 
L 367.773344 -95.608226 
L 367.847912 -95.99082 
L 367.922336 -94.905863 
L 367.996617 -94.415317 
L 368.070754 -94.933072 
L 368.144749 -94.513996 
L 368.218602 -95.360015 
L 368.292313 -94.147706 
L 368.365883 -94.692217 
L 368.439313 -95.141037 
L 368.512603 -95.21681 
L 368.585754 -93.597132 
L 368.658766 -95.020708 
L 368.731639 -94.564466 
L 368.804375 -94.837617 
L 368.876974 -94.230363 
L 368.949436 -96.239055 
L 369.021761 -94.869961 
L 369.093951 -94.350719 
L 369.166006 -93.516729 
L 369.237926 -95.895065 
L 369.309712 -94.37692 
L 369.381364 -93.816874 
L 369.452883 -94.351478 
L 369.52427 -94.573568 
L 369.595524 -94.473876 
L 369.666646 -94.275795 
L 369.737638 -93.923178 
L 369.808498 -93.890074 
L 369.879228 -94.202518 
L 369.949829 -95.051226 
L 370.0203 -94.526622 
L 370.090642 -94.486788 
L 370.160856 -94.142145 
L 370.230942 -94.126743 
L 370.300901 -94.188584 
L 370.370733 -94.814623 
L 370.440438 -93.483822 
L 370.510017 -94.679559 
L 370.579471 -92.923904 
L 370.648799 -94.625312 
L 370.718003 -94.011433 
L 370.787082 -93.06952 
L 370.856038 -94.302082 
L 370.92487 -92.988114 
L 370.993579 -94.364115 
L 371.062166 -94.161621 
L 371.130631 -94.146204 
L 371.198975 -93.65491 
L 371.267197 -93.9551 
L 371.335298 -93.908302 
L 371.403279 -94.914571 
L 371.47114 -93.799938 
L 371.538882 -94.203613 
L 371.606504 -94.255098 
L 371.674008 -93.997326 
L 371.741394 -93.025602 
L 371.808662 -92.698459 
L 371.875813 -94.456551 
L 371.942846 -94.132574 
L 372.009763 -93.409789 
L 372.076564 -93.022861 
L 372.143249 -94.495315 
L 372.209819 -93.426279 
L 372.276273 -94.688478 
L 372.342613 -93.492366 
L 372.408839 -93.392942 
L 372.474951 -94.372442 
L 372.54095 -93.768698 
L 372.606836 -92.853749 
L 372.672609 -94.009747 
L 372.73827 -93.472946 
L 372.803819 -93.417739 
L 372.869256 -93.443584 
L 372.934583 -94.149198 
L 372.999798 -92.934945 
L 373.064904 -92.788307 
L 373.129899 -93.031032 
L 373.194785 -93.133184 
L 373.259561 -92.956679 
L 373.324229 -93.571114 
L 373.388788 -93.363077 
L 373.453239 -92.284361 
L 373.517582 -93.583142 
L 373.581818 -92.962434 
L 373.581818 -95.195948 
L 373.581818 -95.195948 
L 373.517582 -95.82073 
L 373.453239 -94.992326 
L 373.388788 -95.079095 
L 373.324229 -95.732349 
L 373.259561 -95.296247 
L 373.194785 -95.254791 
L 373.129899 -95.506505 
L 373.064904 -95.116399 
L 372.999798 -95.249804 
L 372.934583 -95.774887 
L 372.869256 -95.378785 
L 372.803819 -95.594521 
L 372.73827 -95.740306 
L 372.672609 -96.371389 
L 372.606836 -94.713557 
L 372.54095 -95.802665 
L 372.474951 -95.922065 
L 372.408839 -95.34643 
L 372.342613 -95.900166 
L 372.276273 -96.757875 
L 372.209819 -95.863791 
L 372.143249 -96.738181 
L 372.076564 -95.301387 
L 372.009763 -96.026665 
L 371.942846 -96.495998 
L 371.875813 -96.245915 
L 371.808662 -95.596343 
L 371.741394 -95.833522 
L 371.674008 -95.719934 
L 371.606504 -96.311128 
L 371.538882 -96.457573 
L 371.47114 -95.729943 
L 371.403279 -96.628564 
L 371.335298 -96.026227 
L 371.267197 -96.578277 
L 371.198975 -96.300749 
L 371.130631 -96.570853 
L 371.062166 -96.70195 
L 370.993579 -96.490891 
L 370.92487 -95.503488 
L 370.856038 -95.944002 
L 370.787082 -95.544201 
L 370.718003 -95.959245 
L 370.648799 -96.848609 
L 370.579471 -95.478967 
L 370.510017 -96.388689 
L 370.440438 -95.780909 
L 370.370733 -96.684045 
L 370.300901 -96.430572 
L 370.230942 -96.138129 
L 370.160856 -96.412956 
L 370.090642 -97.056099 
L 370.0203 -96.777063 
L 369.949829 -96.759432 
L 369.879228 -96.001347 
L 369.808498 -95.642154 
L 369.737638 -96.441168 
L 369.666646 -96.498619 
L 369.595524 -96.710155 
L 369.52427 -96.604836 
L 369.452883 -96.576458 
L 369.381364 -95.998143 
L 369.309712 -96.577694 
L 369.237926 -97.574526 
L 369.166006 -95.972796 
L 369.093951 -96.229741 
L 369.021761 -96.623461 
L 368.949436 -98.327448 
L 368.876974 -96.035141 
L 368.804375 -96.970651 
L 368.731639 -96.518634 
L 368.658766 -96.784117 
L 368.585754 -95.813698 
L 368.512603 -97.098446 
L 368.439313 -97.511927 
L 368.365883 -97.032176 
L 368.292313 -96.996066 
L 368.218602 -97.14008 
L 368.144749 -96.298811 
L 368.070754 -97.19624 
L 367.996617 -96.346232 
L 367.922336 -97.518438 
L 367.847912 -98.057489 
L 367.773344 -97.485748 
L 367.698631 -97.309286 
L 367.623772 -97.40952 
L 367.548768 -97.465185 
L 367.473617 -97.029016 
L 367.398319 -97.312827 
L 367.322874 -97.785088 
L 367.24728 -97.475732 
L 367.171537 -97.060844 
L 367.095645 -97.444016 
L 367.019603 -98.066449 
L 366.94341 -97.10026 
L 366.867067 -97.941073 
L 366.790571 -96.857606 
L 366.713923 -97.29213 
L 366.637122 -96.543523 
L 366.560168 -98.021672 
L 366.483059 -98.480913 
L 366.405795 -97.621818 
L 366.328376 -97.278081 
L 366.250801 -98.557317 
L 366.173069 -97.981349 
L 366.09518 -97.801189 
L 366.017133 -97.482669 
L 365.938927 -97.167079 
L 365.860562 -97.718596 
L 365.782037 -97.808981 
L 365.703352 -97.636377 
L 365.624505 -97.862564 
L 365.545496 -97.309422 
L 365.466325 -98.012022 
L 365.38699 -98.293076 
L 365.307492 -97.580269 
L 365.227828 -98.111226 
L 365.148 -98.14999 
L 365.068006 -98.00481 
L 364.987845 -98.132832 
L 364.907517 -98.60062 
L 364.82702 -98.559318 
L 364.746355 -98.343725 
L 364.665521 -98.359455 
L 364.584516 -98.597136 
L 364.50334 -97.82129 
L 364.421993 -98.006969 
L 364.340473 -98.97581 
L 364.25878 -98.529076 
L 364.176914 -98.812532 
L 364.094873 -98.829742 
L 364.012657 -98.180522 
L 363.930264 -98.92974 
L 363.847695 -98.524833 
L 363.764948 -98.569219 
L 363.682023 -99.059474 
L 363.598919 -98.957065 
L 363.515635 -98.8155 
L 363.43217 -99.566448 
L 363.348524 -98.3772 
L 363.264695 -99.112574 
L 363.180684 -98.295352 
L 363.096488 -98.969167 
L 363.012108 -98.51297 
L 362.927543 -98.948279 
L 362.842791 -99.083516 
L 362.757852 -99.222567 
L 362.672726 -99.90306 
L 362.58741 -99.115052 
L 362.501905 -99.876704 
L 362.41621 -100.012011 
L 362.330323 -99.586637 
L 362.244244 -99.608689 
L 362.157972 -98.792703 
L 362.071507 -99.124458 
L 361.984846 -99.475365 
L 361.89799 -99.874197 
L 361.810937 -98.888041 
L 361.723687 -99.944691 
L 361.636239 -99.006411 
L 361.548591 -99.744058 
L 361.460744 -99.587561 
L 361.372695 -99.086674 
L 361.284445 -99.498239 
L 361.195991 -98.998398 
L 361.107334 -100.209951 
L 361.018472 -99.915771 
L 360.929404 -100.09664 
L 360.84013 -99.763472 
L 360.750648 -99.81406 
L 360.660957 -100.056833 
L 360.571057 -100.543082 
L 360.480946 -100.90742 
L 360.390624 -99.856575 
L 360.300089 -100.621783 
L 360.209341 -100.266567 
L 360.118378 -100.358396 
L 360.0272 -100.136204 
L 359.935805 -100.370302 
L 359.844192 -101.314454 
L 359.752361 -100.644425 
L 359.66031 -101.928231 
L 359.568039 -100.280522 
L 359.475545 -100.172146 
L 359.382829 -100.613069 
L 359.289889 -101.570693 
L 359.196723 -100.915954 
L 359.103332 -100.044023 
L 359.009713 -101.040713 
L 358.915866 -100.053704 
L 358.82179 -101.056041 
L 358.727483 -101.574586 
L 358.632944 -100.427507 
L 358.538172 -100.659668 
L 358.443167 -100.683457 
L 358.347926 -100.409121 
L 358.252449 -100.786668 
L 358.156734 -100.777961 
L 358.060781 -101.833922 
L 357.964588 -102.226873 
L 357.868154 -102.092938 
L 357.771477 -100.776481 
L 357.674557 -102.240858 
L 357.577392 -101.884153 
L 357.479981 -100.782231 
L 357.382323 -101.204591 
L 357.284417 -101.305242 
L 357.186261 -100.9593 
L 357.087853 -101.315069 
L 356.989194 -101.521996 
L 356.89028 -101.061264 
L 356.791112 -102.658612 
L 356.691688 -101.230371 
L 356.592006 -102.308325 
L 356.492065 -101.253613 
L 356.391863 -101.771186 
L 356.2914 -101.431724 
L 356.190675 -102.148698 
L 356.089684 -101.504957 
L 355.988428 -101.775961 
L 355.886905 -101.747869 
L 355.785114 -101.7213 
L 355.683052 -102.38681 
L 355.580719 -101.465918 
L 355.478113 -102.702185 
L 355.375232 -103.077369 
L 355.272076 -102.318693 
L 355.168643 -101.866715 
L 355.06493 -102.277446 
L 354.960938 -102.387048 
L 354.856663 -101.552823 
L 354.752105 -102.639049 
L 354.647263 -102.131675 
L 354.542133 -102.970006 
L 354.436716 -101.484132 
L 354.331009 -101.432797 
L 354.225011 -102.270827 
L 354.118721 -102.804473 
L 354.012135 -102.32379 
L 353.905254 -101.753868 
L 353.798075 -102.700454 
L 353.690597 -101.359627 
L 353.582817 -102.70055 
L 353.474735 -102.704863 
L 353.366348 -103.304323 
L 353.257655 -102.813837 
L 353.148655 -103.147997 
L 353.039344 -103.208315 
L 352.929722 -102.744447 
L 352.819787 -102.852459 
L 352.709537 -103.048797 
L 352.59897 -103.222772 
L 352.488085 -103.396978 
L 352.376879 -103.195743 
L 352.265351 -103.625962 
L 352.153498 -103.350792 
L 352.041319 -103.764208 
L 351.928813 -102.932738 
L 351.815976 -103.964563 
L 351.702808 -103.134377 
L 351.589305 -102.806074 
L 351.475467 -103.791258 
L 351.361291 -103.748013 
L 351.246776 -104.422389 
L 351.131918 -103.432957 
L 351.016717 -104.135331 
L 350.901169 -104.316708 
L 350.785274 -104.314583 
L 350.669028 -103.260664 
L 350.552431 -103.697616 
L 350.435478 -103.390993 
L 350.31817 -104.224718 
L 350.200502 -103.777387 
L 350.082474 -104.172774 
L 349.964082 -104.055811 
L 349.845325 -104.378176 
L 349.7262 -104.02294 
L 349.606706 -103.252834 
L 349.486839 -104.388245 
L 349.366597 -104.223491 
L 349.245979 -104.891415 
L 349.124981 -104.835313 
L 349.003602 -105.374031 
L 348.881838 -103.866088 
L 348.759688 -104.206404 
L 348.637149 -105.197376 
L 348.514218 -105.742951 
L 348.390894 -104.865199 
L 348.267172 -104.295666 
L 348.143052 -105.683029 
L 348.01853 -104.926082 
L 347.893604 -105.837439 
L 347.768271 -105.015628 
L 347.642528 -105.836488 
L 347.516373 -104.743825 
L 347.389803 -104.600791 
L 347.262815 -105.14106 
L 347.135407 -106.152334 
L 347.007576 -105.59116 
L 346.879318 -105.886693 
L 346.750631 -105.872409 
L 346.621513 -106.0573 
L 346.49196 -105.696244 
L 346.361969 -106.058212 
L 346.231538 -105.695346 
L 346.100662 -106.237642 
L 345.969341 -106.473665 
L 345.837569 -105.48494 
L 345.705345 -106.946832 
L 345.572664 -105.395093 
L 345.439525 -106.366662 
L 345.305923 -106.56826 
L 345.171856 -106.515542 
L 345.03732 -105.974949 
L 344.902312 -106.016283 
L 344.766829 -107.01452 
L 344.630867 -106.779673 
L 344.494422 -106.412497 
L 344.357493 -106.167412 
L 344.220074 -107.089583 
L 344.082162 -107.271475 
L 343.943755 -107.619648 
L 343.804847 -106.911202 
L 343.665437 -107.837742 
L 343.52552 -106.780454 
L 343.385092 -106.782191 
L 343.244149 -108.1408 
L 343.102688 -107.704295 
L 342.960706 -107.211964 
L 342.818197 -107.063752 
L 342.675159 -107.653234 
L 342.531587 -107.60702 
L 342.387477 -107.593242 
L 342.242826 -107.01656 
L 342.097629 -107.750505 
L 341.951881 -108.35188 
L 341.80558 -108.20047 
L 341.65872 -107.828876 
L 341.511297 -108.722669 
L 341.363308 -108.600223 
L 341.214747 -107.849369 
L 341.06561 -108.037032 
L 340.915893 -107.908754 
L 340.765591 -109.111713 
L 340.614699 -108.470271 
L 340.463214 -108.099412 
L 340.31113 -107.882299 
L 340.158442 -108.095183 
L 340.005146 -107.637024 
L 339.851237 -109.233058 
L 339.69671 -108.619829 
L 339.541559 -108.645594 
L 339.385781 -109.141447 
L 339.229369 -108.517912 
L 339.072319 -108.604566 
L 338.914625 -109.072054 
L 338.756282 -108.806365 
L 338.597285 -108.739959 
L 338.437628 -110.060375 
L 338.277306 -109.102702 
L 338.116313 -109.490105 
L 337.954644 -109.456695 
L 337.792292 -109.483824 
L 337.629253 -110.037156 
L 337.46552 -110.068294 
L 337.301087 -109.943873 
L 337.135948 -111.158182 
L 336.970098 -110.38581 
L 336.803529 -109.734872 
L 336.636236 -109.789681 
L 336.468213 -109.706383 
L 336.299453 -109.723879 
L 336.12995 -109.371316 
L 335.959696 -110.524269 
L 335.788686 -110.761418 
L 335.616912 -110.666441 
L 335.444368 -110.151973 
L 335.271047 -110.806508 
L 335.096941 -110.415842 
L 334.922044 -110.416299 
L 334.746349 -110.864034 
L 334.569847 -109.910489 
L 334.392533 -110.729481 
L 334.214397 -109.330113 
L 334.035433 -110.940651 
L 333.855632 -110.599031 
L 333.674987 -109.906065 
L 333.493491 -110.984762 
L 333.311134 -112.140666 
L 333.127908 -111.243907 
L 332.943806 -111.151482 
L 332.758819 -111.750382 
L 332.572938 -111.276099 
L 332.386155 -111.534208 
L 332.198461 -111.461639 
L 332.009847 -111.619291 
L 331.820303 -111.768519 
L 331.629821 -111.791325 
L 331.438392 -111.396383 
L 331.246005 -111.686381 
L 331.052652 -111.963379 
L 330.858322 -112.313877 
L 330.663006 -112.527304 
L 330.466693 -112.606637 
L 330.269373 -112.794268 
L 330.071036 -113.783331 
L 329.871672 -111.799125 
L 329.671269 -112.630459 
L 329.469817 -110.805242 
L 329.267305 -113.478598 
L 329.063721 -112.466986 
L 328.859054 -112.554494 
L 328.653293 -112.426789 
L 328.446426 -113.7257 
L 328.23844 -113.482934 
L 328.029324 -113.165446 
L 327.819065 -113.258266 
L 327.607651 -113.033414 
L 327.395069 -113.206954 
L 327.181306 -114.432656 
L 326.966349 -114.416655 
L 326.750184 -114.2409 
L 326.532798 -114.513297 
L 326.314177 -113.322416 
L 326.094306 -114.223094 
L 325.873172 -114.365973 
L 325.650759 -114.991923 
L 325.427054 -113.948635 
L 325.20204 -114.914043 
L 324.975703 -114.670149 
L 324.748026 -114.638418 
L 324.518994 -115.287103 
L 324.288591 -115.076316 
L 324.056799 -115.733094 
L 323.823603 -114.965487 
L 323.588985 -115.687026 
L 323.352928 -116.048803 
L 323.115413 -115.681701 
L 322.876423 -115.103746 
L 322.635939 -115.761242 
L 322.393943 -115.921601 
L 322.150416 -115.958295 
L 321.905337 -116.351816 
L 321.658687 -116.168527 
L 321.410446 -115.865998 
L 321.160593 -115.682512 
L 320.909107 -116.612537 
L 320.655966 -117.027608 
L 320.401149 -116.444984 
L 320.144633 -116.94352 
L 319.886395 -117.435558 
L 319.626413 -118.077618 
L 319.364662 -118.22368 
L 319.101118 -117.392669 
L 318.835757 -117.778308 
L 318.568552 -117.687366 
L 318.29948 -117.309209 
L 318.028512 -117.900772 
L 317.755623 -117.926725 
L 317.480784 -118.976952 
L 317.203968 -118.78072 
L 316.925146 -118.574211 
L 316.644289 -119.187017 
L 316.361367 -118.24789 
L 316.076349 -118.524833 
L 315.789204 -120.333083 
L 315.4999 -120.060714 
L 315.208404 -120.889692 
L 314.914683 -119.785093 
L 314.618703 -119.994186 
L 314.320428 -120.721852 
L 314.019823 -120.303254 
L 313.716851 -119.899889 
L 313.411475 -121.046328 
L 313.103655 -120.79215 
L 312.793353 -120.963874 
L 312.480528 -121.190977 
L 312.165139 -121.848847 
L 311.847144 -122.49836 
L 311.526498 -121.47976 
L 311.203158 -121.968299 
L 310.877078 -120.870843 
L 310.54821 -122.499127 
L 310.216508 -121.523354 
L 309.881921 -122.266665 
L 309.544399 -122.026464 
L 309.20389 -122.610217 
L 308.860341 -123.209869 
L 308.513697 -124.326495 
L 308.163901 -123.728136 
L 307.810896 -123.31932 
L 307.454623 -124.060214 
L 307.09502 -125.566371 
L 306.732024 -125.098874 
L 306.365572 -124.810148 
L 305.995595 -125.722211 
L 305.622027 -125.917235 
L 305.244796 -124.358251 
L 304.86383 -125.187223 
L 304.479054 -124.903074 
L 304.090392 -125.97802 
L 303.697764 -126.341035 
L 303.301087 -125.21204 
L 302.900279 -126.689894 
L 302.495252 -125.975364 
L 302.085915 -126.306226 
L 301.672178 -127.716742 
L 301.253943 -127.360723 
L 300.831111 -127.728481 
L 300.403582 -128.139668 
L 299.971249 -127.809588 
L 299.534003 -127.876477 
L 299.091731 -128.383146 
L 298.644316 -128.30225 
L 298.191637 -129.61977 
L 297.733569 -130.021361 
L 297.269982 -129.728023 
L 296.800742 -130.066536 
L 296.325708 -129.792991 
L 295.844736 -130.178926 
L 295.357676 -131.795544 
L 294.864371 -131.960646 
L 294.364659 -132.213621 
L 293.858373 -132.919812 
L 293.345335 -132.366194 
L 292.825364 -132.508899 
L 292.29827 -132.189004 
L 291.763856 -133.141413 
L 291.221914 -133.46242 
L 290.672229 -134.807156 
L 290.114578 -135.305247 
L 289.548726 -134.598077 
L 288.974428 -135.386808 
L 288.391428 -136.646778 
L 287.799459 -136.871774 
L 287.19824 -137.393776 
L 286.587477 -137.622867 
L 285.966863 -138.065649 
L 285.336074 -138.630273 
L 284.694772 -139.720289 
L 284.0426 -138.412442 
L 283.379182 -139.773461 
L 282.704126 -141.514898 
L 282.017014 -140.965355 
L 281.317408 -143.286401 
L 280.604846 -144.417761 
L 279.878839 -142.628787 
L 279.138869 -143.16737 
L 278.384389 -144.56036 
L 277.614818 -148.583874 
L 276.829541 -148.714795 
L 276.027903 -147.625827 
L 275.209207 -146.475758 
L 274.372712 -149.58353 
L 273.517627 -149.675988 
L 272.643106 -151.14517 
L 271.748246 -151.19882 
L 270.832078 -150.767119 
L 269.893562 -153.248378 
L 268.931581 -152.867874 
L 267.944931 -153.822782 
L 266.932313 -153.799125 
L 265.892324 -153.412946 
L 264.823443 -155.084824 
L 263.724018 -155.693945 
L 262.592253 -155.457964 
L 261.426186 -156.08771 
L 260.223675 -156.60829 
L 258.982365 -155.97446 
L 257.699672 -159.210647 
L 256.372739 -157.421338 
L 254.998405 -158.562675 
L 253.573159 -161.060329 
L 252.093082 -160.625868 
L 250.553787 -160.586782 
L 248.950336 -162.585063 
L 247.277149 -161.882881 
L 245.527882 -162.344647 
L 243.695286 -165.099048 
L 241.771022 -163.737941 
L 239.745437 -164.81805 
L 237.607262 -166.373609 
L 235.343241 -167.904315 
L 232.93763 -167.261956 
L 230.371529 -168.794883 
L 227.621985 -171.096413 
L 224.660736 -169.847957 
L 221.452441 -171.803535 
L 217.952098 -174.436534 
L 214.101162 -178.490995 
L 209.821505 -178.306222 
L 205.005572 -180.63964 
L 199.499445 -184.459306 
L 193.071664 -187.917684 
L 185.350408 -192.358113 
L 175.68052 -195.473442 
L 162.733995 -200.959763 
L 153.761336 -204.076601 
L 153.370701 -203.768255 
L 152.976059 -203.382104 
L 152.577327 -203.954913 
L 152.17442 -202.974935 
L 151.76725 -203.228622 
L 151.355725 -203.445815 
L 150.93975 -204.294249 
L 150.51923 -203.787823 
L 150.094063 -203.362848 
L 149.664145 -205.495698 
L 149.229369 -203.431852 
L 148.789624 -204.484896 
L 148.344796 -205.007877 
L 147.894764 -204.710374 
L 147.439407 -204.774887 
L 146.978596 -204.56636 
L 146.512199 -205.650884 
L 146.04008 -205.249996 
L 145.562096 -204.876527 
L 145.078099 -205.253673 
L 144.587936 -204.81208 
L 144.091448 -205.916292 
L 143.588471 -205.840688 
L 143.078831 -206.801674 
L 142.56235 -206.616344 
L 142.038842 -205.92567 
L 141.508113 -206.783752 
L 140.969961 -206.974383 
L 140.424175 -207.117474 
L 139.870536 -207.15487 
L 139.308814 -206.966116 
L 138.738771 -207.766207 
L 138.160155 -208.199864 
L 137.572704 -208.298984 
L 136.976146 -208.407677 
L 136.370192 -208.431504 
L 135.754543 -208.444202 
L 135.128883 -210.297007 
L 134.492881 -209.283144 
L 133.84619 -209.418594 
L 133.188443 -210.110703 
L 132.519256 -211.12193 
L 131.838225 -210.687312 
L 131.144923 -211.230615 
L 130.438899 -211.079327 
L 129.719677 -211.192437 
L 128.986755 -211.867031 
L 128.2396 -212.874257 
L 127.47765 -212.297512 
L 126.700305 -212.356417 
L 125.906932 -212.645544 
L 125.096854 -213.534976 
L 124.269355 -213.762322 
L 123.423667 -213.408018 
L 122.558973 -213.809437 
L 121.6744 -213.185361 
L 120.769011 -214.392386 
L 119.841804 -214.442253 
L 118.8917 -215.325173 
L 117.91754 -215.97847 
L 116.918075 -215.512228 
L 115.891954 -216.917763 
L 114.837717 -216.875062 
L 113.753779 -217.645056 
L 112.638419 -217.918773 
L 111.489759 -217.063728 
L 110.30575 -218.50798 
L 109.084148 -218.106691 
L 107.822486 -218.555464 
L 106.518047 -219.5711 
L 105.16783 -219.495919 
L 103.768503 -220.424392 
L 102.316359 -220.918842 
L 100.807254 -223.006787 
L 99.236536 -222.54507 
L 97.598959 -223.282111 
L 95.888578 -222.46525 
L 94.098615 -224.040267 
L 92.221304 -224.346512 
L 90.247679 -225.183959 
L 88.167321 -226.72678 
L 85.968023 -226.206361 
L 83.635354 -228.275166 
L 81.15209 -228.482273 
L 78.497434 -230.860019 
L 75.645963 -230.527321 
L 72.56614 -232.030048 
L 69.218182 -232.727294 
z
" style="stroke: #ff0000; stroke-opacity: 0.2"/>
    </defs>
    <g clip-path="url(#pcb4f34472e)">
     <use xlink:href="#m765ad20c60" x="0" y="288" style="fill: #ff0000; fill-opacity: 0.2; stroke: #ff0000; stroke-opacity: 0.2"/>
    </g>
   </g>
   <g id="matplotlib.axis_1">
    <g id="xtick_1">
     <g id="line2d_1">
      <defs>
       <path id="m1321cb01db" d="M 0 0 
L 0 3.5 
" style="stroke: #000000; stroke-width: 0.8"/>
      </defs>
      <g>
       <use xlink:href="#m1321cb01db" x="65.550908" y="252" style="stroke: #000000; stroke-width: 0.8"/>
      </g>
     </g>
     <g id="text_1">
      <!-- $\mathdefault{10^{1}}$ -->
      <g transform="translate(56.750908 266.598437)scale(0.1 -0.1)">
       <defs>
        <path id="DejaVuSans-31" d="M 794 531 
L 1825 531 
L 1825 4091 
L 703 3866 
L 703 4441 
L 1819 4666 
L 2450 4666 
L 2450 531 
L 3481 531 
L 3481 0 
L 794 0 
L 794 531 
z
" transform="scale(0.015625)"/>
        <path id="DejaVuSans-30" d="M 2034 4250 
Q 1547 4250 1301 3770 
Q 1056 3291 1056 2328 
Q 1056 1369 1301 889 
Q 1547 409 2034 409 
Q 2525 409 2770 889 
Q 3016 1369 3016 2328 
Q 3016 3291 2770 3770 
Q 2525 4250 2034 4250 
z
M 2034 4750 
Q 2819 4750 3233 4129 
Q 3647 3509 3647 2328 
Q 3647 1150 3233 529 
Q 2819 -91 2034 -91 
Q 1250 -91 836 529 
Q 422 1150 422 2328 
Q 422 3509 836 4129 
Q 1250 4750 2034 4750 
z
" transform="scale(0.015625)"/>
       </defs>
       <use xlink:href="#DejaVuSans-31" transform="translate(0 0.684375)"/>
       <use xlink:href="#DejaVuSans-30" transform="translate(63.623047 0.684375)"/>
       <use xlink:href="#DejaVuSans-31" transform="translate(128.203125 38.965625)scale(0.7)"/>
      </g>
     </g>
    </g>
    <g id="xtick_2">
     <g id="line2d_2">
      <g>
       <use xlink:href="#m1321cb01db" x="154.148045" y="252" style="stroke: #000000; stroke-width: 0.8"/>
      </g>
     </g>
     <g id="text_2">
      <!-- $\mathdefault{10^{2}}$ -->
      <g transform="translate(145.348045 266.598437)scale(0.1 -0.1)">
       <defs>
        <path id="DejaVuSans-32" d="M 1228 531 
L 3431 531 
L 3431 0 
L 469 0 
L 469 531 
Q 828 903 1448 1529 
Q 2069 2156 2228 2338 
Q 2531 2678 2651 2914 
Q 2772 3150 2772 3378 
Q 2772 3750 2511 3984 
Q 2250 4219 1831 4219 
Q 1534 4219 1204 4116 
Q 875 4013 500 3803 
L 500 4441 
Q 881 4594 1212 4672 
Q 1544 4750 1819 4750 
Q 2544 4750 2975 4387 
Q 3406 4025 3406 3419 
Q 3406 3131 3298 2873 
Q 3191 2616 2906 2266 
Q 2828 2175 2409 1742 
Q 1991 1309 1228 531 
z
" transform="scale(0.015625)"/>
       </defs>
       <use xlink:href="#DejaVuSans-31" transform="translate(0 0.765625)"/>
       <use xlink:href="#DejaVuSans-30" transform="translate(63.623047 0.765625)"/>
       <use xlink:href="#DejaVuSans-32" transform="translate(128.203125 39.046875)scale(0.7)"/>
      </g>
     </g>
    </g>
    <g id="xtick_3">
     <g id="line2d_3">
      <g>
       <use xlink:href="#m1321cb01db" x="242.745182" y="252" style="stroke: #000000; stroke-width: 0.8"/>
      </g>
     </g>
     <g id="text_3">
      <!-- $\mathdefault{10^{3}}$ -->
      <g transform="translate(233.945182 266.598437)scale(0.1 -0.1)">
       <defs>
        <path id="DejaVuSans-33" d="M 2597 2516 
Q 3050 2419 3304 2112 
Q 3559 1806 3559 1356 
Q 3559 666 3084 287 
Q 2609 -91 1734 -91 
Q 1441 -91 1130 -33 
Q 819 25 488 141 
L 488 750 
Q 750 597 1062 519 
Q 1375 441 1716 441 
Q 2309 441 2620 675 
Q 2931 909 2931 1356 
Q 2931 1769 2642 2001 
Q 2353 2234 1838 2234 
L 1294 2234 
L 1294 2753 
L 1863 2753 
Q 2328 2753 2575 2939 
Q 2822 3125 2822 3475 
Q 2822 3834 2567 4026 
Q 2313 4219 1838 4219 
Q 1578 4219 1281 4162 
Q 984 4106 628 3988 
L 628 4550 
Q 988 4650 1302 4700 
Q 1616 4750 1894 4750 
Q 2613 4750 3031 4423 
Q 3450 4097 3450 3541 
Q 3450 3153 3228 2886 
Q 3006 2619 2597 2516 
z
" transform="scale(0.015625)"/>
       </defs>
       <use xlink:href="#DejaVuSans-31" transform="translate(0 0.765625)"/>
       <use xlink:href="#DejaVuSans-30" transform="translate(63.623047 0.765625)"/>
       <use xlink:href="#DejaVuSans-33" transform="translate(128.203125 39.046875)scale(0.7)"/>
      </g>
     </g>
    </g>
    <g id="xtick_4">
     <g id="line2d_4">
      <g>
       <use xlink:href="#m1321cb01db" x="331.342319" y="252" style="stroke: #000000; stroke-width: 0.8"/>
      </g>
     </g>
     <g id="text_4">
      <!-- $\mathdefault{10^{4}}$ -->
      <g transform="translate(322.542319 266.598437)scale(0.1 -0.1)">
       <defs>
        <path id="DejaVuSans-34" d="M 2419 4116 
L 825 1625 
L 2419 1625 
L 2419 4116 
z
M 2253 4666 
L 3047 4666 
L 3047 1625 
L 3713 1625 
L 3713 1100 
L 3047 1100 
L 3047 0 
L 2419 0 
L 2419 1100 
L 313 1100 
L 313 1709 
L 2253 4666 
z
" transform="scale(0.015625)"/>
       </defs>
       <use xlink:href="#DejaVuSans-31" transform="translate(0 0.684375)"/>
       <use xlink:href="#DejaVuSans-30" transform="translate(63.623047 0.684375)"/>
       <use xlink:href="#DejaVuSans-34" transform="translate(128.203125 38.965625)scale(0.7)"/>
      </g>
     </g>
    </g>
    <g id="xtick_5">
     <g id="line2d_5">
      <defs>
       <path id="me0660d96df" d="M 0 0 
L 0 2 
" style="stroke: #000000; stroke-width: 0.6"/>
      </defs>
      <g>
       <use xlink:href="#me0660d96df" x="56.964959" y="252" style="stroke: #000000; stroke-width: 0.6"/>
      </g>
     </g>
    </g>
    <g id="xtick_6">
     <g id="line2d_6">
      <g>
       <use xlink:href="#me0660d96df" x="61.496926" y="252" style="stroke: #000000; stroke-width: 0.6"/>
      </g>
     </g>
    </g>
    <g id="xtick_7">
     <g id="line2d_7">
      <g>
       <use xlink:href="#me0660d96df" x="92.221304" y="252" style="stroke: #000000; stroke-width: 0.6"/>
      </g>
     </g>
    </g>
    <g id="xtick_8">
     <g id="line2d_8">
      <g>
       <use xlink:href="#me0660d96df" x="107.822486" y="252" style="stroke: #000000; stroke-width: 0.6"/>
      </g>
     </g>
    </g>
    <g id="xtick_9">
     <g id="line2d_9">
      <g>
       <use xlink:href="#me0660d96df" x="118.8917" y="252" style="stroke: #000000; stroke-width: 0.6"/>
      </g>
     </g>
    </g>
    <g id="xtick_10">
     <g id="line2d_10">
      <g>
       <use xlink:href="#me0660d96df" x="127.47765" y="252" style="stroke: #000000; stroke-width: 0.6"/>
      </g>
     </g>
    </g>
    <g id="xtick_11">
     <g id="line2d_11">
      <g>
       <use xlink:href="#me0660d96df" x="134.492881" y="252" style="stroke: #000000; stroke-width: 0.6"/>
      </g>
     </g>
    </g>
    <g id="xtick_12">
     <g id="line2d_12">
      <g>
       <use xlink:href="#me0660d96df" x="140.424175" y="252" style="stroke: #000000; stroke-width: 0.6"/>
      </g>
     </g>
    </g>
    <g id="xtick_13">
     <g id="line2d_13">
      <g>
       <use xlink:href="#me0660d96df" x="145.562096" y="252" style="stroke: #000000; stroke-width: 0.6"/>
      </g>
     </g>
    </g>
    <g id="xtick_14">
     <g id="line2d_14">
      <g>
       <use xlink:href="#me0660d96df" x="150.094063" y="252" style="stroke: #000000; stroke-width: 0.6"/>
      </g>
     </g>
    </g>
    <g id="xtick_15">
     <g id="line2d_15">
      <g>
       <use xlink:href="#me0660d96df" x="180.818441" y="252" style="stroke: #000000; stroke-width: 0.6"/>
      </g>
     </g>
    </g>
    <g id="xtick_16">
     <g id="line2d_16">
      <g>
       <use xlink:href="#me0660d96df" x="196.419622" y="252" style="stroke: #000000; stroke-width: 0.6"/>
      </g>
     </g>
    </g>
    <g id="xtick_17">
     <g id="line2d_17">
      <g>
       <use xlink:href="#me0660d96df" x="207.488837" y="252" style="stroke: #000000; stroke-width: 0.6"/>
      </g>
     </g>
    </g>
    <g id="xtick_18">
     <g id="line2d_18">
      <g>
       <use xlink:href="#me0660d96df" x="216.074786" y="252" style="stroke: #000000; stroke-width: 0.6"/>
      </g>
     </g>
    </g>
    <g id="xtick_19">
     <g id="line2d_19">
      <g>
       <use xlink:href="#me0660d96df" x="223.090018" y="252" style="stroke: #000000; stroke-width: 0.6"/>
      </g>
     </g>
    </g>
    <g id="xtick_20">
     <g id="line2d_20">
      <g>
       <use xlink:href="#me0660d96df" x="229.021312" y="252" style="stroke: #000000; stroke-width: 0.6"/>
      </g>
     </g>
    </g>
    <g id="xtick_21">
     <g id="line2d_21">
      <g>
       <use xlink:href="#me0660d96df" x="234.159232" y="252" style="stroke: #000000; stroke-width: 0.6"/>
      </g>
     </g>
    </g>
    <g id="xtick_22">
     <g id="line2d_22">
      <g>
       <use xlink:href="#me0660d96df" x="238.691199" y="252" style="stroke: #000000; stroke-width: 0.6"/>
      </g>
     </g>
    </g>
    <g id="xtick_23">
     <g id="line2d_23">
      <g>
       <use xlink:href="#me0660d96df" x="269.415578" y="252" style="stroke: #000000; stroke-width: 0.6"/>
      </g>
     </g>
    </g>
    <g id="xtick_24">
     <g id="line2d_24">
      <g>
       <use xlink:href="#me0660d96df" x="285.016759" y="252" style="stroke: #000000; stroke-width: 0.6"/>
      </g>
     </g>
    </g>
    <g id="xtick_25">
     <g id="line2d_25">
      <g>
       <use xlink:href="#me0660d96df" x="296.085973" y="252" style="stroke: #000000; stroke-width: 0.6"/>
      </g>
     </g>
    </g>
    <g id="xtick_26">
     <g id="line2d_26">
      <g>
       <use xlink:href="#me0660d96df" x="304.671923" y="252" style="stroke: #000000; stroke-width: 0.6"/>
      </g>
     </g>
    </g>
    <g id="xtick_27">
     <g id="line2d_27">
      <g>
       <use xlink:href="#me0660d96df" x="311.687155" y="252" style="stroke: #000000; stroke-width: 0.6"/>
      </g>
     </g>
    </g>
    <g id="xtick_28">
     <g id="line2d_28">
      <g>
       <use xlink:href="#me0660d96df" x="317.618449" y="252" style="stroke: #000000; stroke-width: 0.6"/>
      </g>
     </g>
    </g>
    <g id="xtick_29">
     <g id="line2d_29">
      <g>
       <use xlink:href="#me0660d96df" x="322.756369" y="252" style="stroke: #000000; stroke-width: 0.6"/>
      </g>
     </g>
    </g>
    <g id="xtick_30">
     <g id="line2d_30">
      <g>
       <use xlink:href="#me0660d96df" x="327.288336" y="252" style="stroke: #000000; stroke-width: 0.6"/>
      </g>
     </g>
    </g>
    <g id="xtick_31">
     <g id="line2d_31">
      <g>
       <use xlink:href="#me0660d96df" x="358.012715" y="252" style="stroke: #000000; stroke-width: 0.6"/>
      </g>
     </g>
    </g>
    <g id="xtick_32">
     <g id="line2d_32">
      <g>
       <use xlink:href="#me0660d96df" x="373.613896" y="252" style="stroke: #000000; stroke-width: 0.6"/>
      </g>
     </g>
    </g>
    <g id="xtick_33">
     <g id="line2d_33">
      <g>
       <use xlink:href="#me0660d96df" x="384.68311" y="252" style="stroke: #000000; stroke-width: 0.6"/>
      </g>
     </g>
    </g>
    <g id="text_5">
     <!-- Resources -->
     <g transform="translate(195.867969 280.276563)scale(0.1 -0.1)">
      <defs>
       <path id="DejaVuSans-52" d="M 2841 2188 
Q 3044 2119 3236 1894 
Q 3428 1669 3622 1275 
L 4263 0 
L 3584 0 
L 2988 1197 
Q 2756 1666 2539 1819 
Q 2322 1972 1947 1972 
L 1259 1972 
L 1259 0 
L 628 0 
L 628 4666 
L 2053 4666 
Q 2853 4666 3247 4331 
Q 3641 3997 3641 3322 
Q 3641 2881 3436 2590 
Q 3231 2300 2841 2188 
z
M 1259 4147 
L 1259 2491 
L 2053 2491 
Q 2509 2491 2742 2702 
Q 2975 2913 2975 3322 
Q 2975 3731 2742 3939 
Q 2509 4147 2053 4147 
L 1259 4147 
z
" transform="scale(0.015625)"/>
       <path id="DejaVuSans-65" d="M 3597 1894 
L 3597 1613 
L 953 1613 
Q 991 1019 1311 708 
Q 1631 397 2203 397 
Q 2534 397 2845 478 
Q 3156 559 3463 722 
L 3463 178 
Q 3153 47 2828 -22 
Q 2503 -91 2169 -91 
Q 1331 -91 842 396 
Q 353 884 353 1716 
Q 353 2575 817 3079 
Q 1281 3584 2069 3584 
Q 2775 3584 3186 3129 
Q 3597 2675 3597 1894 
z
M 3022 2063 
Q 3016 2534 2758 2815 
Q 2500 3097 2075 3097 
Q 1594 3097 1305 2825 
Q 1016 2553 972 2059 
L 3022 2063 
z
" transform="scale(0.015625)"/>
       <path id="DejaVuSans-73" d="M 2834 3397 
L 2834 2853 
Q 2591 2978 2328 3040 
Q 2066 3103 1784 3103 
Q 1356 3103 1142 2972 
Q 928 2841 928 2578 
Q 928 2378 1081 2264 
Q 1234 2150 1697 2047 
L 1894 2003 
Q 2506 1872 2764 1633 
Q 3022 1394 3022 966 
Q 3022 478 2636 193 
Q 2250 -91 1575 -91 
Q 1294 -91 989 -36 
Q 684 19 347 128 
L 347 722 
Q 666 556 975 473 
Q 1284 391 1588 391 
Q 1994 391 2212 530 
Q 2431 669 2431 922 
Q 2431 1156 2273 1281 
Q 2116 1406 1581 1522 
L 1381 1569 
Q 847 1681 609 1914 
Q 372 2147 372 2553 
Q 372 3047 722 3315 
Q 1072 3584 1716 3584 
Q 2034 3584 2315 3537 
Q 2597 3491 2834 3397 
z
" transform="scale(0.015625)"/>
       <path id="DejaVuSans-6f" d="M 1959 3097 
Q 1497 3097 1228 2736 
Q 959 2375 959 1747 
Q 959 1119 1226 758 
Q 1494 397 1959 397 
Q 2419 397 2687 759 
Q 2956 1122 2956 1747 
Q 2956 2369 2687 2733 
Q 2419 3097 1959 3097 
z
M 1959 3584 
Q 2709 3584 3137 3096 
Q 3566 2609 3566 1747 
Q 3566 888 3137 398 
Q 2709 -91 1959 -91 
Q 1206 -91 779 398 
Q 353 888 353 1747 
Q 353 2609 779 3096 
Q 1206 3584 1959 3584 
z
" transform="scale(0.015625)"/>
       <path id="DejaVuSans-75" d="M 544 1381 
L 544 3500 
L 1119 3500 
L 1119 1403 
Q 1119 906 1312 657 
Q 1506 409 1894 409 
Q 2359 409 2629 706 
Q 2900 1003 2900 1516 
L 2900 3500 
L 3475 3500 
L 3475 0 
L 2900 0 
L 2900 538 
Q 2691 219 2414 64 
Q 2138 -91 1772 -91 
Q 1169 -91 856 284 
Q 544 659 544 1381 
z
M 1991 3584 
L 1991 3584 
z
" transform="scale(0.015625)"/>
       <path id="DejaVuSans-72" d="M 2631 2963 
Q 2534 3019 2420 3045 
Q 2306 3072 2169 3072 
Q 1681 3072 1420 2755 
Q 1159 2438 1159 1844 
L 1159 0 
L 581 0 
L 581 3500 
L 1159 3500 
L 1159 2956 
Q 1341 3275 1631 3429 
Q 1922 3584 2338 3584 
Q 2397 3584 2469 3576 
Q 2541 3569 2628 3553 
L 2631 2963 
z
" transform="scale(0.015625)"/>
       <path id="DejaVuSans-63" d="M 3122 3366 
L 3122 2828 
Q 2878 2963 2633 3030 
Q 2388 3097 2138 3097 
Q 1578 3097 1268 2742 
Q 959 2388 959 1747 
Q 959 1106 1268 751 
Q 1578 397 2138 397 
Q 2388 397 2633 464 
Q 2878 531 3122 666 
L 3122 134 
Q 2881 22 2623 -34 
Q 2366 -91 2075 -91 
Q 1284 -91 818 406 
Q 353 903 353 1747 
Q 353 2603 823 3093 
Q 1294 3584 2113 3584 
Q 2378 3584 2631 3529 
Q 2884 3475 3122 3366 
z
" transform="scale(0.015625)"/>
      </defs>
      <use xlink:href="#DejaVuSans-52"/>
      <use xlink:href="#DejaVuSans-65" x="64.982422"/>
      <use xlink:href="#DejaVuSans-73" x="126.505859"/>
      <use xlink:href="#DejaVuSans-6f" x="178.605469"/>
      <use xlink:href="#DejaVuSans-75" x="239.787109"/>
      <use xlink:href="#DejaVuSans-72" x="303.166016"/>
      <use xlink:href="#DejaVuSans-63" x="342.029297"/>
      <use xlink:href="#DejaVuSans-65" x="397.009766"/>
      <use xlink:href="#DejaVuSans-73" x="458.533203"/>
     </g>
    </g>
   </g>
   <g id="matplotlib.axis_2">
    <g id="ytick_1">
     <g id="line2d_34">
      <defs>
       <path id="m596af70b8b" d="M 0 0 
L -3.5 0 
" style="stroke: #000000; stroke-width: 0.8"/>
      </defs>
      <g>
       <use xlink:href="#m596af70b8b" x="54" y="243.281667" style="stroke: #000000; stroke-width: 0.8"/>
      </g>
     </g>
     <g id="text_6">
      <!-- $\mathdefault{10^{-8}}$ -->
      <g transform="translate(23.5 247.080885)scale(0.1 -0.1)">
       <defs>
        <path id="DejaVuSans-2212" d="M 678 2272 
L 4684 2272 
L 4684 1741 
L 678 1741 
L 678 2272 
z
" transform="scale(0.015625)"/>
        <path id="DejaVuSans-38" d="M 2034 2216 
Q 1584 2216 1326 1975 
Q 1069 1734 1069 1313 
Q 1069 891 1326 650 
Q 1584 409 2034 409 
Q 2484 409 2743 651 
Q 3003 894 3003 1313 
Q 3003 1734 2745 1975 
Q 2488 2216 2034 2216 
z
M 1403 2484 
Q 997 2584 770 2862 
Q 544 3141 544 3541 
Q 544 4100 942 4425 
Q 1341 4750 2034 4750 
Q 2731 4750 3128 4425 
Q 3525 4100 3525 3541 
Q 3525 3141 3298 2862 
Q 3072 2584 2669 2484 
Q 3125 2378 3379 2068 
Q 3634 1759 3634 1313 
Q 3634 634 3220 271 
Q 2806 -91 2034 -91 
Q 1263 -91 848 271 
Q 434 634 434 1313 
Q 434 1759 690 2068 
Q 947 2378 1403 2484 
z
M 1172 3481 
Q 1172 3119 1398 2916 
Q 1625 2713 2034 2713 
Q 2441 2713 2670 2916 
Q 2900 3119 2900 3481 
Q 2900 3844 2670 4047 
Q 2441 4250 2034 4250 
Q 1625 4250 1398 4047 
Q 1172 3844 1172 3481 
z
" transform="scale(0.015625)"/>
       </defs>
       <use xlink:href="#DejaVuSans-31" transform="translate(0 0.765625)"/>
       <use xlink:href="#DejaVuSans-30" transform="translate(63.623047 0.765625)"/>
       <use xlink:href="#DejaVuSans-2212" transform="translate(128.203125 39.046875)scale(0.7)"/>
       <use xlink:href="#DejaVuSans-38" transform="translate(186.855469 39.046875)scale(0.7)"/>
      </g>
     </g>
    </g>
    <g id="ytick_2">
     <g id="line2d_35">
      <g>
       <use xlink:href="#m596af70b8b" x="54" y="214.707266" style="stroke: #000000; stroke-width: 0.8"/>
      </g>
     </g>
     <g id="text_7">
      <!-- $\mathdefault{10^{-7}}$ -->
      <g transform="translate(23.5 218.506485)scale(0.1 -0.1)">
       <defs>
        <path id="DejaVuSans-37" d="M 525 4666 
L 3525 4666 
L 3525 4397 
L 1831 0 
L 1172 0 
L 2766 4134 
L 525 4134 
L 525 4666 
z
" transform="scale(0.015625)"/>
       </defs>
       <use xlink:href="#DejaVuSans-31" transform="translate(0 0.684375)"/>
       <use xlink:href="#DejaVuSans-30" transform="translate(63.623047 0.684375)"/>
       <use xlink:href="#DejaVuSans-2212" transform="translate(128.203125 38.965625)scale(0.7)"/>
       <use xlink:href="#DejaVuSans-37" transform="translate(186.855469 38.965625)scale(0.7)"/>
      </g>
     </g>
    </g>
    <g id="ytick_3">
     <g id="line2d_36">
      <g>
       <use xlink:href="#m596af70b8b" x="54" y="186.132866" style="stroke: #000000; stroke-width: 0.8"/>
      </g>
     </g>
     <g id="text_8">
      <!-- $\mathdefault{10^{-6}}$ -->
      <g transform="translate(23.5 189.932085)scale(0.1 -0.1)">
       <defs>
        <path id="DejaVuSans-36" d="M 2113 2584 
Q 1688 2584 1439 2293 
Q 1191 2003 1191 1497 
Q 1191 994 1439 701 
Q 1688 409 2113 409 
Q 2538 409 2786 701 
Q 3034 994 3034 1497 
Q 3034 2003 2786 2293 
Q 2538 2584 2113 2584 
z
M 3366 4563 
L 3366 3988 
Q 3128 4100 2886 4159 
Q 2644 4219 2406 4219 
Q 1781 4219 1451 3797 
Q 1122 3375 1075 2522 
Q 1259 2794 1537 2939 
Q 1816 3084 2150 3084 
Q 2853 3084 3261 2657 
Q 3669 2231 3669 1497 
Q 3669 778 3244 343 
Q 2819 -91 2113 -91 
Q 1303 -91 875 529 
Q 447 1150 447 2328 
Q 447 3434 972 4092 
Q 1497 4750 2381 4750 
Q 2619 4750 2861 4703 
Q 3103 4656 3366 4563 
z
" transform="scale(0.015625)"/>
       </defs>
       <use xlink:href="#DejaVuSans-31" transform="translate(0 0.765625)"/>
       <use xlink:href="#DejaVuSans-30" transform="translate(63.623047 0.765625)"/>
       <use xlink:href="#DejaVuSans-2212" transform="translate(128.203125 39.046875)scale(0.7)"/>
       <use xlink:href="#DejaVuSans-36" transform="translate(186.855469 39.046875)scale(0.7)"/>
      </g>
     </g>
    </g>
    <g id="ytick_4">
     <g id="line2d_37">
      <g>
       <use xlink:href="#m596af70b8b" x="54" y="157.558466" style="stroke: #000000; stroke-width: 0.8"/>
      </g>
     </g>
     <g id="text_9">
      <!-- $\mathdefault{10^{-5}}$ -->
      <g transform="translate(23.5 161.357685)scale(0.1 -0.1)">
       <defs>
        <path id="DejaVuSans-35" d="M 691 4666 
L 3169 4666 
L 3169 4134 
L 1269 4134 
L 1269 2991 
Q 1406 3038 1543 3061 
Q 1681 3084 1819 3084 
Q 2600 3084 3056 2656 
Q 3513 2228 3513 1497 
Q 3513 744 3044 326 
Q 2575 -91 1722 -91 
Q 1428 -91 1123 -41 
Q 819 9 494 109 
L 494 744 
Q 775 591 1075 516 
Q 1375 441 1709 441 
Q 2250 441 2565 725 
Q 2881 1009 2881 1497 
Q 2881 1984 2565 2268 
Q 2250 2553 1709 2553 
Q 1456 2553 1204 2497 
Q 953 2441 691 2322 
L 691 4666 
z
" transform="scale(0.015625)"/>
       </defs>
       <use xlink:href="#DejaVuSans-31" transform="translate(0 0.684375)"/>
       <use xlink:href="#DejaVuSans-30" transform="translate(63.623047 0.684375)"/>
       <use xlink:href="#DejaVuSans-2212" transform="translate(128.203125 38.965625)scale(0.7)"/>
       <use xlink:href="#DejaVuSans-35" transform="translate(186.855469 38.965625)scale(0.7)"/>
      </g>
     </g>
    </g>
    <g id="ytick_5">
     <g id="line2d_38">
      <g>
       <use xlink:href="#m596af70b8b" x="54" y="128.984066" style="stroke: #000000; stroke-width: 0.8"/>
      </g>
     </g>
     <g id="text_10">
      <!-- $\mathdefault{10^{-4}}$ -->
      <g transform="translate(23.5 132.783285)scale(0.1 -0.1)">
       <use xlink:href="#DejaVuSans-31" transform="translate(0 0.684375)"/>
       <use xlink:href="#DejaVuSans-30" transform="translate(63.623047 0.684375)"/>
       <use xlink:href="#DejaVuSans-2212" transform="translate(128.203125 38.965625)scale(0.7)"/>
       <use xlink:href="#DejaVuSans-34" transform="translate(186.855469 38.965625)scale(0.7)"/>
      </g>
     </g>
    </g>
    <g id="ytick_6">
     <g id="line2d_39">
      <g>
       <use xlink:href="#m596af70b8b" x="54" y="100.409666" style="stroke: #000000; stroke-width: 0.8"/>
      </g>
     </g>
     <g id="text_11">
      <!-- $\mathdefault{10^{-3}}$ -->
      <g transform="translate(23.5 104.208885)scale(0.1 -0.1)">
       <use xlink:href="#DejaVuSans-31" transform="translate(0 0.765625)"/>
       <use xlink:href="#DejaVuSans-30" transform="translate(63.623047 0.765625)"/>
       <use xlink:href="#DejaVuSans-2212" transform="translate(128.203125 39.046875)scale(0.7)"/>
       <use xlink:href="#DejaVuSans-33" transform="translate(186.855469 39.046875)scale(0.7)"/>
      </g>
     </g>
    </g>
    <g id="ytick_7">
     <g id="line2d_40">
      <g>
       <use xlink:href="#m596af70b8b" x="54" y="71.835266" style="stroke: #000000; stroke-width: 0.8"/>
      </g>
     </g>
     <g id="text_12">
      <!-- $\mathdefault{10^{-2}}$ -->
      <g transform="translate(23.5 75.634484)scale(0.1 -0.1)">
       <use xlink:href="#DejaVuSans-31" transform="translate(0 0.765625)"/>
       <use xlink:href="#DejaVuSans-30" transform="translate(63.623047 0.765625)"/>
       <use xlink:href="#DejaVuSans-2212" transform="translate(128.203125 39.046875)scale(0.7)"/>
       <use xlink:href="#DejaVuSans-32" transform="translate(186.855469 39.046875)scale(0.7)"/>
      </g>
     </g>
    </g>
    <g id="ytick_8">
     <g id="line2d_41">
      <g>
       <use xlink:href="#m596af70b8b" x="54" y="43.260866" style="stroke: #000000; stroke-width: 0.8"/>
      </g>
     </g>
     <g id="text_13">
      <!-- $\mathdefault{10^{-1}}$ -->
      <g transform="translate(23.5 47.060084)scale(0.1 -0.1)">
       <use xlink:href="#DejaVuSans-31" transform="translate(0 0.684375)"/>
       <use xlink:href="#DejaVuSans-30" transform="translate(63.623047 0.684375)"/>
       <use xlink:href="#DejaVuSans-2212" transform="translate(128.203125 38.965625)scale(0.7)"/>
       <use xlink:href="#DejaVuSans-31" transform="translate(186.855469 38.965625)scale(0.7)"/>
      </g>
     </g>
    </g>
    <g id="ytick_9">
     <g id="line2d_42">
      <defs>
       <path id="m0add9e998b" d="M 0 0 
L -2 0 
" style="stroke: #000000; stroke-width: 0.6"/>
      </defs>
      <g>
       <use xlink:href="#m0add9e998b" x="54" y="251.883418" style="stroke: #000000; stroke-width: 0.6"/>
      </g>
     </g>
    </g>
    <g id="ytick_10">
     <g id="line2d_43">
      <g>
       <use xlink:href="#m0add9e998b" x="54" y="249.620862" style="stroke: #000000; stroke-width: 0.6"/>
      </g>
     </g>
    </g>
    <g id="ytick_11">
     <g id="line2d_44">
      <g>
       <use xlink:href="#m0add9e998b" x="54" y="247.707897" style="stroke: #000000; stroke-width: 0.6"/>
      </g>
     </g>
    </g>
    <g id="ytick_12">
     <g id="line2d_45">
      <g>
       <use xlink:href="#m0add9e998b" x="54" y="246.050812" style="stroke: #000000; stroke-width: 0.6"/>
      </g>
     </g>
    </g>
    <g id="ytick_13">
     <g id="line2d_46">
      <g>
       <use xlink:href="#m0add9e998b" x="54" y="244.589159" style="stroke: #000000; stroke-width: 0.6"/>
      </g>
     </g>
    </g>
    <g id="ytick_14">
     <g id="line2d_47">
      <g>
       <use xlink:href="#m0add9e998b" x="54" y="234.679915" style="stroke: #000000; stroke-width: 0.6"/>
      </g>
     </g>
    </g>
    <g id="ytick_15">
     <g id="line2d_48">
      <g>
       <use xlink:href="#m0add9e998b" x="54" y="229.648213" style="stroke: #000000; stroke-width: 0.6"/>
      </g>
     </g>
    </g>
    <g id="ytick_16">
     <g id="line2d_49">
      <g>
       <use xlink:href="#m0add9e998b" x="54" y="226.078164" style="stroke: #000000; stroke-width: 0.6"/>
      </g>
     </g>
    </g>
    <g id="ytick_17">
     <g id="line2d_50">
      <g>
       <use xlink:href="#m0add9e998b" x="54" y="223.309018" style="stroke: #000000; stroke-width: 0.6"/>
      </g>
     </g>
    </g>
    <g id="ytick_18">
     <g id="line2d_51">
      <g>
       <use xlink:href="#m0add9e998b" x="54" y="221.046461" style="stroke: #000000; stroke-width: 0.6"/>
      </g>
     </g>
    </g>
    <g id="ytick_19">
     <g id="line2d_52">
      <g>
       <use xlink:href="#m0add9e998b" x="54" y="219.133497" style="stroke: #000000; stroke-width: 0.6"/>
      </g>
     </g>
    </g>
    <g id="ytick_20">
     <g id="line2d_53">
      <g>
       <use xlink:href="#m0add9e998b" x="54" y="217.476412" style="stroke: #000000; stroke-width: 0.6"/>
      </g>
     </g>
    </g>
    <g id="ytick_21">
     <g id="line2d_54">
      <g>
       <use xlink:href="#m0add9e998b" x="54" y="216.014759" style="stroke: #000000; stroke-width: 0.6"/>
      </g>
     </g>
    </g>
    <g id="ytick_22">
     <g id="line2d_55">
      <g>
       <use xlink:href="#m0add9e998b" x="54" y="206.105515" style="stroke: #000000; stroke-width: 0.6"/>
      </g>
     </g>
    </g>
    <g id="ytick_23">
     <g id="line2d_56">
      <g>
       <use xlink:href="#m0add9e998b" x="54" y="201.073813" style="stroke: #000000; stroke-width: 0.6"/>
      </g>
     </g>
    </g>
    <g id="ytick_24">
     <g id="line2d_57">
      <g>
       <use xlink:href="#m0add9e998b" x="54" y="197.503763" style="stroke: #000000; stroke-width: 0.6"/>
      </g>
     </g>
    </g>
    <g id="ytick_25">
     <g id="line2d_58">
      <g>
       <use xlink:href="#m0add9e998b" x="54" y="194.734618" style="stroke: #000000; stroke-width: 0.6"/>
      </g>
     </g>
    </g>
    <g id="ytick_26">
     <g id="line2d_59">
      <g>
       <use xlink:href="#m0add9e998b" x="54" y="192.472061" style="stroke: #000000; stroke-width: 0.6"/>
      </g>
     </g>
    </g>
    <g id="ytick_27">
     <g id="line2d_60">
      <g>
       <use xlink:href="#m0add9e998b" x="54" y="190.559097" style="stroke: #000000; stroke-width: 0.6"/>
      </g>
     </g>
    </g>
    <g id="ytick_28">
     <g id="line2d_61">
      <g>
       <use xlink:href="#m0add9e998b" x="54" y="188.902012" style="stroke: #000000; stroke-width: 0.6"/>
      </g>
     </g>
    </g>
    <g id="ytick_29">
     <g id="line2d_62">
      <g>
       <use xlink:href="#m0add9e998b" x="54" y="187.440359" style="stroke: #000000; stroke-width: 0.6"/>
      </g>
     </g>
    </g>
    <g id="ytick_30">
     <g id="line2d_63">
      <g>
       <use xlink:href="#m0add9e998b" x="54" y="177.531115" style="stroke: #000000; stroke-width: 0.6"/>
      </g>
     </g>
    </g>
    <g id="ytick_31">
     <g id="line2d_64">
      <g>
       <use xlink:href="#m0add9e998b" x="54" y="172.499413" style="stroke: #000000; stroke-width: 0.6"/>
      </g>
     </g>
    </g>
    <g id="ytick_32">
     <g id="line2d_65">
      <g>
       <use xlink:href="#m0add9e998b" x="54" y="168.929363" style="stroke: #000000; stroke-width: 0.6"/>
      </g>
     </g>
    </g>
    <g id="ytick_33">
     <g id="line2d_66">
      <g>
       <use xlink:href="#m0add9e998b" x="54" y="166.160218" style="stroke: #000000; stroke-width: 0.6"/>
      </g>
     </g>
    </g>
    <g id="ytick_34">
     <g id="line2d_67">
      <g>
       <use xlink:href="#m0add9e998b" x="54" y="163.897661" style="stroke: #000000; stroke-width: 0.6"/>
      </g>
     </g>
    </g>
    <g id="ytick_35">
     <g id="line2d_68">
      <g>
       <use xlink:href="#m0add9e998b" x="54" y="161.984697" style="stroke: #000000; stroke-width: 0.6"/>
      </g>
     </g>
    </g>
    <g id="ytick_36">
     <g id="line2d_69">
      <g>
       <use xlink:href="#m0add9e998b" x="54" y="160.327612" style="stroke: #000000; stroke-width: 0.6"/>
      </g>
     </g>
    </g>
    <g id="ytick_37">
     <g id="line2d_70">
      <g>
       <use xlink:href="#m0add9e998b" x="54" y="158.865959" style="stroke: #000000; stroke-width: 0.6"/>
      </g>
     </g>
    </g>
    <g id="ytick_38">
     <g id="line2d_71">
      <g>
       <use xlink:href="#m0add9e998b" x="54" y="148.956715" style="stroke: #000000; stroke-width: 0.6"/>
      </g>
     </g>
    </g>
    <g id="ytick_39">
     <g id="line2d_72">
      <g>
       <use xlink:href="#m0add9e998b" x="54" y="143.925013" style="stroke: #000000; stroke-width: 0.6"/>
      </g>
     </g>
    </g>
    <g id="ytick_40">
     <g id="line2d_73">
      <g>
       <use xlink:href="#m0add9e998b" x="54" y="140.354963" style="stroke: #000000; stroke-width: 0.6"/>
      </g>
     </g>
    </g>
    <g id="ytick_41">
     <g id="line2d_74">
      <g>
       <use xlink:href="#m0add9e998b" x="54" y="137.585818" style="stroke: #000000; stroke-width: 0.6"/>
      </g>
     </g>
    </g>
    <g id="ytick_42">
     <g id="line2d_75">
      <g>
       <use xlink:href="#m0add9e998b" x="54" y="135.323261" style="stroke: #000000; stroke-width: 0.6"/>
      </g>
     </g>
    </g>
    <g id="ytick_43">
     <g id="line2d_76">
      <g>
       <use xlink:href="#m0add9e998b" x="54" y="133.410297" style="stroke: #000000; stroke-width: 0.6"/>
      </g>
     </g>
    </g>
    <g id="ytick_44">
     <g id="line2d_77">
      <g>
       <use xlink:href="#m0add9e998b" x="54" y="131.753212" style="stroke: #000000; stroke-width: 0.6"/>
      </g>
     </g>
    </g>
    <g id="ytick_45">
     <g id="line2d_78">
      <g>
       <use xlink:href="#m0add9e998b" x="54" y="130.291559" style="stroke: #000000; stroke-width: 0.6"/>
      </g>
     </g>
    </g>
    <g id="ytick_46">
     <g id="line2d_79">
      <g>
       <use xlink:href="#m0add9e998b" x="54" y="120.382314" style="stroke: #000000; stroke-width: 0.6"/>
      </g>
     </g>
    </g>
    <g id="ytick_47">
     <g id="line2d_80">
      <g>
       <use xlink:href="#m0add9e998b" x="54" y="115.350612" style="stroke: #000000; stroke-width: 0.6"/>
      </g>
     </g>
    </g>
    <g id="ytick_48">
     <g id="line2d_81">
      <g>
       <use xlink:href="#m0add9e998b" x="54" y="111.780563" style="stroke: #000000; stroke-width: 0.6"/>
      </g>
     </g>
    </g>
    <g id="ytick_49">
     <g id="line2d_82">
      <g>
       <use xlink:href="#m0add9e998b" x="54" y="109.011417" style="stroke: #000000; stroke-width: 0.6"/>
      </g>
     </g>
    </g>
    <g id="ytick_50">
     <g id="line2d_83">
      <g>
       <use xlink:href="#m0add9e998b" x="54" y="106.748861" style="stroke: #000000; stroke-width: 0.6"/>
      </g>
     </g>
    </g>
    <g id="ytick_51">
     <g id="line2d_84">
      <g>
       <use xlink:href="#m0add9e998b" x="54" y="104.835896" style="stroke: #000000; stroke-width: 0.6"/>
      </g>
     </g>
    </g>
    <g id="ytick_52">
     <g id="line2d_85">
      <g>
       <use xlink:href="#m0add9e998b" x="54" y="103.178811" style="stroke: #000000; stroke-width: 0.6"/>
      </g>
     </g>
    </g>
    <g id="ytick_53">
     <g id="line2d_86">
      <g>
       <use xlink:href="#m0add9e998b" x="54" y="101.717159" style="stroke: #000000; stroke-width: 0.6"/>
      </g>
     </g>
    </g>
    <g id="ytick_54">
     <g id="line2d_87">
      <g>
       <use xlink:href="#m0add9e998b" x="54" y="91.807914" style="stroke: #000000; stroke-width: 0.6"/>
      </g>
     </g>
    </g>
    <g id="ytick_55">
     <g id="line2d_88">
      <g>
       <use xlink:href="#m0add9e998b" x="54" y="86.776212" style="stroke: #000000; stroke-width: 0.6"/>
      </g>
     </g>
    </g>
    <g id="ytick_56">
     <g id="line2d_89">
      <g>
       <use xlink:href="#m0add9e998b" x="54" y="83.206163" style="stroke: #000000; stroke-width: 0.6"/>
      </g>
     </g>
    </g>
    <g id="ytick_57">
     <g id="line2d_90">
      <g>
       <use xlink:href="#m0add9e998b" x="54" y="80.437017" style="stroke: #000000; stroke-width: 0.6"/>
      </g>
     </g>
    </g>
    <g id="ytick_58">
     <g id="line2d_91">
      <g>
       <use xlink:href="#m0add9e998b" x="54" y="78.174461" style="stroke: #000000; stroke-width: 0.6"/>
      </g>
     </g>
    </g>
    <g id="ytick_59">
     <g id="line2d_92">
      <g>
       <use xlink:href="#m0add9e998b" x="54" y="76.261496" style="stroke: #000000; stroke-width: 0.6"/>
      </g>
     </g>
    </g>
    <g id="ytick_60">
     <g id="line2d_93">
      <g>
       <use xlink:href="#m0add9e998b" x="54" y="74.604411" style="stroke: #000000; stroke-width: 0.6"/>
      </g>
     </g>
    </g>
    <g id="ytick_61">
     <g id="line2d_94">
      <g>
       <use xlink:href="#m0add9e998b" x="54" y="73.142759" style="stroke: #000000; stroke-width: 0.6"/>
      </g>
     </g>
    </g>
    <g id="ytick_62">
     <g id="line2d_95">
      <g>
       <use xlink:href="#m0add9e998b" x="54" y="63.233514" style="stroke: #000000; stroke-width: 0.6"/>
      </g>
     </g>
    </g>
    <g id="ytick_63">
     <g id="line2d_96">
      <g>
       <use xlink:href="#m0add9e998b" x="54" y="58.201812" style="stroke: #000000; stroke-width: 0.6"/>
      </g>
     </g>
    </g>
    <g id="ytick_64">
     <g id="line2d_97">
      <g>
       <use xlink:href="#m0add9e998b" x="54" y="54.631763" style="stroke: #000000; stroke-width: 0.6"/>
      </g>
     </g>
    </g>
    <g id="ytick_65">
     <g id="line2d_98">
      <g>
       <use xlink:href="#m0add9e998b" x="54" y="51.862617" style="stroke: #000000; stroke-width: 0.6"/>
      </g>
     </g>
    </g>
    <g id="ytick_66">
     <g id="line2d_99">
      <g>
       <use xlink:href="#m0add9e998b" x="54" y="49.600061" style="stroke: #000000; stroke-width: 0.6"/>
      </g>
     </g>
    </g>
    <g id="ytick_67">
     <g id="line2d_100">
      <g>
       <use xlink:href="#m0add9e998b" x="54" y="47.687096" style="stroke: #000000; stroke-width: 0.6"/>
      </g>
     </g>
    </g>
    <g id="ytick_68">
     <g id="line2d_101">
      <g>
       <use xlink:href="#m0add9e998b" x="54" y="46.030011" style="stroke: #000000; stroke-width: 0.6"/>
      </g>
     </g>
    </g>
    <g id="ytick_69">
     <g id="line2d_102">
      <g>
       <use xlink:href="#m0add9e998b" x="54" y="44.568358" style="stroke: #000000; stroke-width: 0.6"/>
      </g>
     </g>
    </g>
    <g id="ytick_70">
     <g id="line2d_103">
      <g>
       <use xlink:href="#m0add9e998b" x="54" y="34.659114" style="stroke: #000000; stroke-width: 0.6"/>
      </g>
     </g>
    </g>
    <g id="text_14">
     <!-- MSE -->
     <g transform="translate(17.420313 153.927656)rotate(-90)scale(0.1 -0.1)">
      <defs>
       <path id="DejaVuSans-4d" d="M 628 4666 
L 1569 4666 
L 2759 1491 
L 3956 4666 
L 4897 4666 
L 4897 0 
L 4281 0 
L 4281 4097 
L 3078 897 
L 2444 897 
L 1241 4097 
L 1241 0 
L 628 0 
L 628 4666 
z
" transform="scale(0.015625)"/>
       <path id="DejaVuSans-53" d="M 3425 4513 
L 3425 3897 
Q 3066 4069 2747 4153 
Q 2428 4238 2131 4238 
Q 1616 4238 1336 4038 
Q 1056 3838 1056 3469 
Q 1056 3159 1242 3001 
Q 1428 2844 1947 2747 
L 2328 2669 
Q 3034 2534 3370 2195 
Q 3706 1856 3706 1288 
Q 3706 609 3251 259 
Q 2797 -91 1919 -91 
Q 1588 -91 1214 -16 
Q 841 59 441 206 
L 441 856 
Q 825 641 1194 531 
Q 1563 422 1919 422 
Q 2459 422 2753 634 
Q 3047 847 3047 1241 
Q 3047 1584 2836 1778 
Q 2625 1972 2144 2069 
L 1759 2144 
Q 1053 2284 737 2584 
Q 422 2884 422 3419 
Q 422 4038 858 4394 
Q 1294 4750 2059 4750 
Q 2388 4750 2728 4690 
Q 3069 4631 3425 4513 
z
" transform="scale(0.015625)"/>
       <path id="DejaVuSans-45" d="M 628 4666 
L 3578 4666 
L 3578 4134 
L 1259 4134 
L 1259 2753 
L 3481 2753 
L 3481 2222 
L 1259 2222 
L 1259 531 
L 3634 531 
L 3634 0 
L 628 0 
L 628 4666 
z
" transform="scale(0.015625)"/>
      </defs>
      <use xlink:href="#DejaVuSans-4d"/>
      <use xlink:href="#DejaVuSans-53" x="86.279297"/>
      <use xlink:href="#DejaVuSans-45" x="149.755859"/>
     </g>
    </g>
   </g>
   <g id="line2d_104">
    <path d="M 69.218182 56.401521 
L 72.56614 56.938735 
L 75.645963 58.542315 
L 78.497434 58.352205 
L 81.15209 60.584347 
L 83.635354 60.798944 
L 85.968023 62.607216 
L 88.167321 62.160718 
L 90.247679 63.668111 
L 92.221304 64.483585 
L 94.098615 65.045343 
L 95.888578 66.535549 
L 97.598959 65.654195 
L 99.236536 66.969766 
L 100.807254 66.136244 
L 102.316359 67.897799 
L 105.16783 68.996752 
L 106.518047 69.594467 
L 107.822486 70.305542 
L 109.084148 70.7207 
L 110.30575 70.762943 
L 111.489759 71.635847 
L 112.638419 71.242336 
L 113.753779 71.643436 
L 114.837717 72.362142 
L 115.891954 72.070198 
L 116.918075 73.276319 
L 117.91754 73.112017 
L 118.8917 73.739116 
L 119.841804 74.158147 
L 120.769011 74.731364 
L 121.6744 75.431968 
L 122.558973 75.044657 
L 123.423667 75.356235 
L 124.269355 75.319333 
L 125.096854 75.533613 
L 125.906932 76.555557 
L 126.700305 76.331058 
L 127.47765 76.440037 
L 128.2396 76.128145 
L 128.986755 77.192166 
L 129.719677 77.669115 
L 130.438899 78.315904 
L 131.144923 77.830873 
L 131.838225 78.316717 
L 132.519256 77.776138 
L 133.84619 79.561317 
L 135.128883 79.14322 
L 135.754543 80.140184 
L 136.976146 80.366585 
L 137.572704 80.654159 
L 138.738771 80.98026 
L 139.308814 81.877157 
L 139.870536 81.667472 
L 140.424175 81.96398 
L 140.969961 81.688575 
L 141.508113 82.033223 
L 142.038842 82.918274 
L 142.56235 82.460077 
L 143.078831 82.508314 
L 143.588471 83.044356 
L 144.091448 82.823441 
L 144.587936 84.061743 
L 145.078099 83.842796 
L 145.562096 84.052826 
L 146.512199 83.276097 
L 146.978596 84.325514 
L 147.439407 83.846767 
L 147.894764 84.105478 
L 148.344796 84.105315 
L 148.789624 84.524919 
L 149.229369 85.125932 
L 149.664145 83.666956 
L 150.094063 85.749085 
L 150.51923 85.230669 
L 150.93975 84.503074 
L 151.355725 85.301215 
L 152.17442 85.828545 
L 152.577327 84.873296 
L 152.976059 85.28127 
L 153.761336 85.111457 
L 162.733995 87.850682 
L 175.68052 93.474973 
L 185.350408 97.415921 
L 193.071664 101.619207 
L 199.499445 104.716807 
L 205.005572 109.398335 
L 209.821505 111.995028 
L 214.101162 111.14568 
L 217.952098 115.401558 
L 224.660736 118.910979 
L 227.621985 118.371282 
L 230.371529 120.292522 
L 232.93763 121.503713 
L 235.343241 121.289529 
L 237.607262 122.737614 
L 239.745437 124.403059 
L 241.771022 125.140979 
L 243.695286 124.2854 
L 245.527882 127.02474 
L 248.950336 127.114144 
L 250.553787 128.265607 
L 252.093082 128.528955 
L 253.573159 128.247572 
L 254.998405 130.742931 
L 256.372739 131.799909 
L 257.699672 130.381687 
L 258.982365 133.14242 
L 260.223675 132.807908 
L 261.426186 132.990786 
L 262.592253 134.30154 
L 263.724018 133.757406 
L 264.823443 134.769487 
L 265.892324 135.931457 
L 266.932313 135.87122 
L 267.944931 136.021971 
L 268.931581 137.15163 
L 269.893562 136.727568 
L 270.832078 139.045189 
L 272.643106 138.649635 
L 273.517627 140.165406 
L 274.372712 140.175142 
L 275.209207 143.192538 
L 276.829541 141.163359 
L 277.614818 141.529843 
L 278.384389 145.143455 
L 279.138869 146.707705 
L 279.878839 146.545771 
L 280.604846 145.757778 
L 281.317408 146.922932 
L 282.017014 148.400505 
L 282.704126 148.256975 
L 283.379182 149.363241 
L 284.0426 150.992807 
L 284.694772 150.11868 
L 286.587477 151.978302 
L 287.19824 151.674437 
L 287.799459 152.401801 
L 288.391428 152.672083 
L 288.974428 153.968141 
L 289.548726 154.600661 
L 290.114578 153.980894 
L 290.672229 154.693698 
L 291.221914 155.666355 
L 292.29827 156.843813 
L 292.825364 156.769668 
L 293.345335 156.540771 
L 294.864371 157.18092 
L 295.357676 157.517715 
L 295.844736 158.522214 
L 296.325708 159.180506 
L 296.800742 158.852044 
L 297.269982 159.362232 
L 297.733569 159.173158 
L 298.644316 160.863538 
L 299.091731 161.011716 
L 299.534003 160.838102 
L 300.403582 161.146773 
L 300.831111 161.125943 
L 301.253943 161.719711 
L 301.672178 161.246916 
L 302.085915 162.599044 
L 302.495252 162.809256 
L 302.900279 162.642097 
L 303.301087 163.796849 
L 303.697764 162.985309 
L 304.090392 163.239997 
L 304.479054 163.97075 
L 304.86383 163.698601 
L 305.244796 164.445814 
L 305.622027 163.268541 
L 306.365572 163.956285 
L 306.732024 164.103566 
L 307.09502 163.707562 
L 307.454623 164.907355 
L 307.810896 165.623759 
L 308.513697 164.778323 
L 308.860341 165.883765 
L 309.20389 166.243628 
L 309.544399 166.968859 
L 309.881921 166.359088 
L 310.216508 167.405601 
L 310.54821 166.782081 
L 310.877078 167.814278 
L 311.203158 166.655165 
L 311.526498 167.283357 
L 311.847144 166.665086 
L 312.165139 167.381661 
L 312.793353 167.980842 
L 313.103655 168.480683 
L 313.411475 167.991493 
L 313.716851 168.607473 
L 314.019823 168.571636 
L 314.320428 168.38327 
L 314.618703 169.06927 
L 314.914683 168.923151 
L 315.208404 168.426946 
L 315.4999 168.99434 
L 315.789204 169.25575 
L 316.076349 170.132732 
L 316.361367 170.311895 
L 316.644289 169.557765 
L 316.925146 170.554379 
L 317.203968 170.395736 
L 317.480784 169.857505 
L 317.755623 170.874889 
L 318.028512 171.099068 
L 318.29948 171.475738 
L 318.568552 171.164303 
L 318.835757 171.157345 
L 319.101118 171.394335 
L 319.364662 171.139096 
L 319.626413 171.095741 
L 320.401149 172.286124 
L 320.655966 171.987669 
L 320.909107 172.198445 
L 321.160593 173.255142 
L 321.658687 172.586514 
L 321.905337 172.410855 
L 322.393943 173.164498 
L 322.635939 173.117903 
L 322.876423 173.870973 
L 323.115413 173.280954 
L 323.352928 173.039366 
L 323.823603 173.839496 
L 324.056799 173.018462 
L 324.288591 173.726928 
L 324.518994 173.666243 
L 324.748026 174.163201 
L 324.975703 174.164363 
L 325.20204 173.825771 
L 325.427054 174.876588 
L 325.650759 174.085446 
L 325.873172 174.802797 
L 326.094306 174.666683 
L 326.314177 175.47351 
L 326.532798 174.880054 
L 326.750184 175.087623 
L 327.181306 174.643926 
L 327.395069 175.735258 
L 327.607651 175.721047 
L 327.819065 175.543858 
L 328.029324 175.800119 
L 328.23844 175.342686 
L 328.446426 175.684871 
L 328.653293 176.387147 
L 328.859054 175.960048 
L 329.063721 176.447728 
L 329.267305 175.664676 
L 329.469817 177.791179 
L 329.671269 176.252731 
L 329.871672 176.974822 
L 330.071036 175.52736 
L 330.269373 176.345385 
L 330.466693 176.580272 
L 330.663006 176.439151 
L 331.438392 177.446773 
L 331.629821 177.161979 
L 331.820303 177.322086 
L 332.198461 177.257846 
L 332.386155 177.487167 
L 332.572938 177.380053 
L 332.758819 177.113298 
L 332.943806 178.236917 
L 333.311134 177.140634 
L 333.674987 178.732491 
L 334.035433 177.723565 
L 334.214397 179.492338 
L 334.392533 178.16086 
L 334.569847 179.075764 
L 334.746349 178.117021 
L 334.922044 178.575702 
L 335.271047 178.170638 
L 335.444368 178.897071 
L 335.788686 178.193908 
L 335.959696 178.394381 
L 336.12995 179.144148 
L 336.299453 179.165592 
L 336.468213 179.304354 
L 336.803529 179.123362 
L 337.135948 178.236235 
L 337.301087 179.302974 
L 337.46552 178.648808 
L 337.792292 179.305301 
L 337.954644 179.514147 
L 338.116313 179.463581 
L 338.277306 179.749258 
L 338.437628 178.823549 
L 338.597285 180.153485 
L 338.756282 179.819714 
L 339.229369 180.334316 
L 339.385781 179.599467 
L 339.541559 180.399206 
L 339.851237 179.649304 
L 340.005146 180.969154 
L 340.158442 181.055528 
L 340.463214 180.721474 
L 340.614699 180.110684 
L 340.765591 180.002116 
L 340.915893 181.029578 
L 341.06561 181.000106 
L 341.214747 180.805218 
L 341.511297 180.060623 
L 341.65872 181.239115 
L 341.951881 180.551554 
L 342.242826 181.50885 
L 342.387477 181.473271 
L 342.531587 181.320321 
L 342.818197 181.918448 
L 342.960706 181.628511 
L 343.102688 181.0748 
L 343.244149 180.984561 
L 343.385092 181.83686 
L 343.52552 181.953726 
L 343.665437 181.201355 
L 343.804847 182.170793 
L 343.943755 181.678163 
L 344.082162 181.888459 
L 344.220074 181.865726 
L 344.357493 182.772042 
L 344.766829 181.871911 
L 344.902312 182.669465 
L 345.03732 182.719127 
L 345.305923 182.120949 
L 345.572664 183.407623 
L 345.705345 182.376263 
L 345.837569 183.171451 
L 345.969341 182.635022 
L 346.100662 182.746968 
L 346.231538 183.095854 
L 346.361969 182.941868 
L 346.49196 183.337166 
L 346.621513 182.923197 
L 346.750631 182.89525 
L 346.879318 183.025618 
L 347.007576 183.321459 
L 347.135407 182.956115 
L 347.389803 184.116049 
L 347.516373 183.958762 
L 347.642528 183.247334 
L 347.768271 183.999925 
L 347.893604 183.211232 
L 348.01853 183.879928 
L 348.143052 183.334733 
L 348.267172 184.328856 
L 348.390894 184.302345 
L 348.514218 183.609707 
L 348.637149 183.855086 
L 348.881838 185.005785 
L 349.003602 183.939818 
L 349.124981 183.978081 
L 349.245979 184.211444 
L 349.366597 184.789226 
L 349.486839 184.454894 
L 349.606706 185.418352 
L 349.845325 184.709414 
L 349.964082 184.968016 
L 350.082474 184.900223 
L 350.200502 185.09922 
L 350.31817 184.715706 
L 350.435478 185.361078 
L 350.669028 185.257507 
L 350.785274 184.769475 
L 350.901169 184.982821 
L 351.016717 184.678939 
L 351.131918 185.778257 
L 351.246776 184.728542 
L 351.475467 185.01019 
L 351.589305 186.35508 
L 351.815976 185.284945 
L 351.928813 185.649923 
L 352.041319 185.444296 
L 352.153498 185.943421 
L 352.265351 185.172258 
L 352.376879 185.690904 
L 352.488085 185.475241 
L 352.929722 186.361984 
L 353.039344 185.878746 
L 353.148655 185.993389 
L 353.257655 186.287655 
L 353.366348 186.038193 
L 353.582817 186.248233 
L 353.690597 187.350545 
L 353.798075 186.190459 
L 353.905254 186.823955 
L 354.118721 186.430292 
L 354.436716 187.377543 
L 354.542133 186.509763 
L 354.647263 186.743304 
L 354.752105 186.664314 
L 354.856663 187.432603 
L 355.06493 186.344896 
L 355.168643 186.900624 
L 355.375232 186.096026 
L 355.580719 187.306537 
L 355.683052 186.931047 
L 355.785114 187.601205 
L 356.089684 187.041043 
L 356.190675 187.080657 
L 356.2914 187.443288 
L 356.391863 187.197922 
L 356.492065 187.709416 
L 356.592006 186.713596 
L 356.691688 187.766988 
L 356.791112 186.50221 
L 356.89028 187.950523 
L 357.087853 187.494309 
L 357.186261 187.822287 
L 357.382323 187.500365 
L 357.479981 187.802038 
L 357.674557 186.823407 
L 357.771477 187.947753 
L 357.964588 186.905871 
L 358.060781 187.057979 
L 358.156734 188.218834 
L 358.252449 188.059882 
L 358.538172 188.268557 
L 358.632944 188.459919 
L 358.727483 187.54492 
L 358.915866 188.660298 
L 359.009713 187.787568 
L 359.103332 188.687007 
L 359.289889 187.532215 
L 359.568039 188.977605 
L 359.66031 187.743013 
L 359.752361 188.374853 
L 359.844192 187.757915 
L 360.0272 188.732819 
L 360.118378 188.489021 
L 360.209341 188.641894 
L 360.300089 188.478123 
L 360.390624 189.011732 
L 360.480946 188.211562 
L 360.571057 188.384598 
L 360.84013 189.40153 
L 360.929404 188.700466 
L 361.018472 189.02381 
L 361.107334 188.800686 
L 361.195991 189.808642 
L 361.284445 189.111939 
L 361.372695 189.885423 
L 361.460744 189.225067 
L 361.548591 189.362974 
L 361.636239 189.770664 
L 361.723687 188.869255 
L 361.810937 189.971774 
L 361.984846 189.374417 
L 362.157972 190.009393 
L 362.244244 189.24359 
L 362.330323 189.457633 
L 362.501905 188.903001 
L 362.58741 189.899802 
L 362.672726 189.357151 
L 363.012108 190.475828 
L 363.096488 189.753255 
L 363.180684 190.436284 
L 363.264695 190.142951 
L 363.348524 190.360501 
L 363.43217 189.80192 
L 363.515635 189.82636 
L 363.598919 190.032819 
L 363.682023 189.883878 
L 363.764948 190.291667 
L 363.847695 190.232596 
L 363.930264 190.160314 
L 364.012657 190.573129 
L 364.176914 190.15282 
L 364.25878 190.54321 
L 364.340473 190.099088 
L 364.50334 190.926973 
L 364.665521 190.269286 
L 364.746355 190.609292 
L 364.82702 190.504389 
L 364.907517 190.402071 
L 364.987845 190.993512 
L 365.068006 190.517289 
L 365.148 190.609818 
L 365.307492 191.15655 
L 365.38699 190.53623 
L 365.545496 191.291054 
L 365.624505 191.06758 
L 365.938927 191.71577 
L 366.250801 190.569079 
L 366.328376 191.429857 
L 366.405795 191.349778 
L 366.483059 190.593741 
L 366.637122 192.276944 
L 366.713923 191.945584 
L 366.790571 191.876714 
L 366.867067 190.847124 
L 366.94341 191.715824 
L 367.019603 191.024959 
L 367.171537 192.118663 
L 367.322874 191.132772 
L 367.473617 191.742458 
L 367.548768 191.418376 
L 367.623772 191.477914 
L 367.698631 191.837146 
L 367.847912 190.980704 
L 367.996617 192.386144 
L 368.070754 191.589515 
L 368.144749 192.202102 
L 368.218602 191.718622 
L 368.292313 192.44561 
L 368.365883 192.354932 
L 368.439313 191.686482 
L 368.512603 191.829766 
L 368.585754 192.882057 
L 368.658766 192.100495 
L 368.731639 192.299699 
L 368.804375 192.072942 
L 368.876974 192.683555 
L 368.949436 191.162527 
L 369.166006 192.924735 
L 369.237926 191.446051 
L 369.381364 192.719872 
L 369.452883 192.69614 
L 369.595524 192.127985 
L 369.808498 192.966806 
L 370.0203 192.214885 
L 370.090642 192.336372 
L 370.300901 192.815334 
L 370.370733 192.047964 
L 370.440438 193.151544 
L 370.510017 192.496631 
L 370.579471 193.463733 
L 370.648799 192.15721 
L 370.787082 193.195209 
L 370.856038 192.855935 
L 370.92487 193.526829 
L 370.993579 192.436047 
L 371.062166 192.596193 
L 371.130631 192.415936 
L 371.198975 192.98764 
L 371.267197 192.588981 
L 371.335298 192.868031 
L 371.403279 192.229859 
L 371.47114 193.146786 
L 371.538882 192.618862 
L 371.808662 193.416843 
L 371.875813 192.762102 
L 371.942846 192.808224 
L 372.076564 193.443926 
L 372.143249 192.398571 
L 372.209819 193.083432 
L 372.276273 192.34214 
L 372.408839 193.606769 
L 372.474951 193.057419 
L 372.54095 193.154341 
L 372.606836 193.905775 
L 372.672609 193.210221 
L 372.73827 193.458507 
L 372.869256 193.734612 
L 372.934583 193.211109 
L 372.999798 193.73018 
L 373.064904 193.383918 
L 373.259561 193.961481 
L 373.324229 193.376905 
L 373.453239 194.178953 
L 373.517582 193.123591 
L 373.581818 193.920361 
L 373.581818 193.920361 
" clip-path="url(#pcb4f34472e)" style="fill: none; stroke: #0000ff; stroke-width: 1.5; stroke-linecap: square"/>
   </g>
   <g id="line2d_105">
    <path d="M 69.218182 44.443636 
L 373.581818 142.607174 
L 373.581818 142.607174 
" clip-path="url(#pcb4f34472e)" style="fill: none; stroke: #008000; stroke-width: 1.5; stroke-linecap: square"/>
   </g>
   <g id="line2d_106">
    <path d="M 69.218182 45.78929 
L 373.581818 242.116364 
L 373.581818 242.116364 
" clip-path="url(#pcb4f34472e)" style="fill: none; stroke: #ff0000; stroke-width: 1.5; stroke-linecap: square"/>
   </g>
   <g id="line2d_107">
    <path d="M 69.218182 107.22424 
L 373.581818 205.387777 
L 373.581818 205.387777 
" clip-path="url(#pcb4f34472e)" style="fill: none; stroke: #000000; stroke-width: 1.5; stroke-linecap: square"/>
   </g>
   <g id="patch_3">
    <path d="M 54 252 
L 54 34.56 
" style="fill: none; stroke: #000000; stroke-width: 0.8; stroke-linejoin: miter; stroke-linecap: square"/>
   </g>
   <g id="patch_4">
    <path d="M 388.8 252 
L 388.8 34.56 
" style="fill: none; stroke: #000000; stroke-width: 0.8; stroke-linejoin: miter; stroke-linecap: square"/>
   </g>
   <g id="patch_5">
    <path d="M 54 252 
L 388.8 252 
" style="fill: none; stroke: #000000; stroke-width: 0.8; stroke-linejoin: miter; stroke-linecap: square"/>
   </g>
   <g id="patch_6">
    <path d="M 54 34.56 
L 388.8 34.56 
" style="fill: none; stroke: #000000; stroke-width: 0.8; stroke-linejoin: miter; stroke-linecap: square"/>
   </g>
  </g>
 </g>
 <defs>
  <clipPath id="pcb4f34472e">
   <rect x="54" y="34.56" width="334.8" height="217.44"/>
  </clipPath>
 </defs>
</svg>
